<?xml version="1.0" encoding="UTF-8" standalone="no"?>
<!-- Created with Inkscape (http://www.inkscape.org/) -->

<svg
   xmlns:dc="http://purl.org/dc/elements/1.1/"
   xmlns:cc="http://creativecommons.org/ns#"
   xmlns:rdf="http://www.w3.org/1999/02/22-rdf-syntax-ns#"
   xmlns:svg="http://www.w3.org/2000/svg"
   xmlns="http://www.w3.org/2000/svg"
   xmlns:sodipodi="http://sodipodi.sourceforge.net/DTD/sodipodi-0.dtd"
   xmlns:inkscape="http://www.inkscape.org/namespaces/inkscape"
   width="744.09448819"
   height="1052.3622047"
   id="svg3784"
   version="1.1"
   inkscape:version="0.48.4 r9939"
   sodipodi:docname="New document 35">
  <defs
     id="defs3786" />
  <sodipodi:namedview
     id="base"
     pagecolor="#ffffff"
     bordercolor="#666666"
     borderopacity="1.0"
     inkscape:pageopacity="0.0"
     inkscape:pageshadow="2"
     inkscape:zoom="0.35"
     inkscape:cx="375"
     inkscape:cy="520"
     inkscape:document-units="px"
     inkscape:current-layer="layer1"
     showgrid="false"
     inkscape:window-width="1440"
     inkscape:window-height="845"
     inkscape:window-x="-4"
     inkscape:window-y="-3"
     inkscape:window-maximized="1" />
  <metadata
     id="metadata3789">
    <rdf:RDF>
      <cc:Work
         rdf:about="">
        <dc:format>image/svg+xml</dc:format>
        <dc:type
           rdf:resource="http://purl.org/dc/dcmitype/StillImage" />
        <dc:title></dc:title>
      </cc:Work>
    </rdf:RDF>
  </metadata>
  <g
     inkscape:label="Layer 1"
     inkscape:groupmode="layer"
     id="layer1">
    <path
       id="path4159"
       style="fill:none;stroke:#000000;stroke-width:1.91445494;stroke-linecap:butt;stroke-linejoin:miter;stroke-miterlimit:4;stroke-opacity:1;stroke-dasharray:none"
       d="m 74.283719,837.59049 8.888547,-10.25601 z m -20.512006,-29.40055 -15.04214,26.66563 z m 30.084281,19.14454 c 0,0 -2.614609,-14.70626 -8.204779,-18.46082 -6.246446,-4.19529 -22.56323,-0.68372 -22.56323,-0.68372 0,0 15.185686,-3.71443 21.195734,0 6.069167,3.75095 9.572275,19.14454 9.572275,19.14454 z M 52.062411,808.87363 81.462964,771.95202 z m 31.793583,19.14458 29.400556,-36.9216 z m 121.704656,-68.37338 -92.30407,31.45174 z m -130.593164,-70.4246 5.469866,84.09929 z M 206.02977,760.27224 482.57621,359.95665 c 0,0 5.8077,-25.86697 3.86778,-38.67785 -2.72473,-17.99354 -13.83872,-32.49205 -29.0084,-42.54558 -19.88146,-13.1762 -40.60513,-13.21548 -63.81835,-7.73559 -16.83453,3.97411 -46.4134,23.20668 -46.4134,23.20668 L 74.52517,688.71822 c 0,0 36.73866,-1.06512 54.14894,3.86781 16.08981,4.55878 31.77107,12.3366 44.47953,23.20668 14.01078,11.98403 32.87613,44.47953 32.87613,44.47953 z"
       inkscape:connector-curvature="0" />
    <path
       style="fill:none;stroke:#000000;stroke-width:2.29734612;stroke-linecap:butt;stroke-linejoin:miter;stroke-miterlimit:4;stroke-opacity:1;stroke-dasharray:none"
       d="m 248.45811,696.45381 c 0,0 -26.26284,-38.52213 -46.29611,-48.3473 -22.11479,-10.84604 -48.93102,-9.64905 -73.48789,-7.73555 -8.37088,0.65225 -24.33954,6.48541 -24.33954,6.48541 l 24.57418,-34.12635 c 0,0 18.76767,-8.06502 28.77376,-9.103 19.33163,-2.00539 40.81805,-3.25036 58.01671,5.80168 23.2406,12.23206 50.84762,60.18525 50.84762,60.18525 z"
       id="path4162"
       inkscape:connector-curvature="0"
       sodipodi:nodetypes="cssccsscc" />
    <rect
       style="fill:#ffffff;fill-opacity:1;stroke:#343434;stroke-width:2.5037725;stroke-linecap:round;stroke-linejoin:round;stroke-miterlimit:4;stroke-opacity:1;stroke-dasharray:none"
       id="rect4164"
       width="583.82886"
       height="59.744213"
       x="32.082745"
       y="849.33417" />
    <flowRoot
       transform="matrix(3.8289099,0,0,3.8289099,-1956.061,-2843.6716)"
       xml:space="preserve"
       id="flowRoot4166"
       style="font-size:12px;font-style:normal;font-variant:normal;font-weight:normal;font-stretch:normal;text-align:start;line-height:125%;letter-spacing:0px;word-spacing:0px;writing-mode:lr-tb;text-anchor:start;fill:#000000;fill-opacity:1;stroke:none;font-family:Sans;-inkscape-font-specification:Sans"><flowRegion
         id="flowRegion4168"><rect
           id="rect4170"
           width="200.71428"
           height="16.428572"
           x="519.28571"
           y="781.64789" /></flowRegion><flowPara
         id="flowPara4172">colour ring, tip &amp; line alpha!</flowPara></flowRoot>  </g>
</svg>
