<?xml version="1.0" encoding="UTF-8" standalone="no"?>
<!-- Created with Inkscape (http://www.inkscape.org/) -->

<svg
   xmlns:dc="http://purl.org/dc/elements/1.1/"
   xmlns:cc="http://creativecommons.org/ns#"
   xmlns:rdf="http://www.w3.org/1999/02/22-rdf-syntax-ns#"
   xmlns:svg="http://www.w3.org/2000/svg"
   xmlns="http://www.w3.org/2000/svg"
   xmlns:xlink="http://www.w3.org/1999/xlink"
   xmlns:sodipodi="http://sodipodi.sourceforge.net/DTD/sodipodi-0.dtd"
   xmlns:inkscape="http://www.inkscape.org/namespaces/inkscape"
   width="697.37518"
   height="691.83429"
   id="svg3469"
   version="1.1"
   inkscape:version="0.48.4 r9939"
   sodipodi:docname="dictionary.svg">
  <defs
     id="defs3471">
    <linearGradient
       id="linearGradient3765">
      <stop
         style="stop-color:#110b02;stop-opacity:1;"
         offset="0"
         id="stop3767" />
      <stop
         id="stop3775"
         offset="0.25"
         style="stop-color:#ffffff;stop-opacity:1;" />
      <stop
         id="stop3773"
         offset="0.5"
         style="stop-color:#146bd5;stop-opacity:1;" />
      <stop
         style="stop-color:#110b02;stop-opacity:1;"
         offset="1"
         id="stop3769" />
    </linearGradient>
    <linearGradient
       id="linearGradient3757">
      <stop
         style="stop-color:#dbe1e4;stop-opacity:1;"
         offset="0"
         id="stop3759" />
      <stop
         style="stop-color:#ffffff;stop-opacity:1;"
         offset="1"
         id="stop3761" />
    </linearGradient>
    <linearGradient
       inkscape:collect="always"
       xlink:href="#linearGradient3757"
       id="linearGradient3763"
       x1="448.85098"
       y1="174.1189"
       x2="661.55334"
       y2="748.53131"
       gradientUnits="userSpaceOnUse" />
    <linearGradient
       inkscape:collect="always"
       xlink:href="#linearGradient3765"
       id="linearGradient3771"
       x1="230.091"
       y1="383.28171"
       x2="647.75208"
       y2="848.07343"
       gradientUnits="userSpaceOnUse" />
  </defs>
  <sodipodi:namedview
     id="base"
     pagecolor="#ffffff"
     bordercolor="#666666"
     borderopacity="1.0"
     inkscape:pageopacity="0.0"
     inkscape:pageshadow="2"
     inkscape:zoom="0.59105127"
     inkscape:cx="366.32865"
     inkscape:cy="314.75641"
     inkscape:document-units="px"
     inkscape:current-layer="layer1"
     showgrid="false"
     inkscape:window-width="1440"
     inkscape:window-height="824"
     inkscape:window-x="0"
     inkscape:window-y="24"
     inkscape:window-maximized="1"
     fit-margin-top="5"
     fit-margin-left="15"
     fit-margin-right="15"
     fit-margin-bottom="5" />
  <metadata
     id="metadata3474">
    <rdf:RDF>
      <cc:Work
         rdf:about="">
        <dc:format>image/svg+xml</dc:format>
        <dc:type
           rdf:resource="http://purl.org/dc/dcmitype/StillImage" />
        <dc:title />
      </cc:Work>
    </rdf:RDF>
  </metadata>
  <g
     inkscape:label="Layer 1"
     inkscape:groupmode="layer"
     id="layer1"
     transform="translate(-5.7185947,-149.10319)">
    <rect
       style="fill:url(#linearGradient3771);fill-opacity:1;stroke:#110b02;stroke-width:2;stroke-linejoin:round;stroke-miterlimit:4;stroke-opacity:1;stroke-dasharray:none"
       id="rect3875"
       width="608.59351"
       height="640.22882"
       x="21.715488"
       y="194.7121" />
    <path
       style="fill:#000080;fill-opacity:1;stroke:#110b02;stroke-width:2;stroke-linecap:butt;stroke-linejoin:miter;stroke-miterlimit:4;stroke-opacity:1;stroke-dasharray:none"
       d="m 22.931576,195.49594 c 0,0 5.12483,-29.39808 16.950821,-32.73284 39.757852,-11.21106 68.126153,-6.81262 68.126153,-6.81262 l 576.80132,0 2.27089,622.2188 c 0,0 -27.65198,1.68105 -38.60483,9.08347 -8.07958,5.46055 -16.83676,23.9248 -16.83676,23.9248 l -2.54632,-613.68624 z"
       id="path3877"
       inkscape:connector-curvature="0"
       sodipodi:nodetypes="cscccsccc" />
    <path
       style="fill:url(#linearGradient3763);fill-opacity:1;stroke:#110b02;stroke-width:2;stroke-linecap:butt;stroke-linejoin:miter;stroke-miterlimit:4;stroke-opacity:1;stroke-dasharray:none"
       d="m 34.388572,192.45446 c 0,0 26.394871,-3.854 36.932191,-11.24024 4.382974,-3.07227 9.634504,-12.84597 9.634504,-12.84597 l 581.280963,0 1.60574,590.9155 c 0,0 -16.83784,2.41845 -22.48048,8.02877 -4.44269,4.41723 -6.42299,17.66322 -6.42299,17.66322 l -3.21147,-589.30976 z"
       id="path3879"
       inkscape:connector-curvature="0"
       sodipodi:nodetypes="cscccsccc" />
    <g
       transform="matrix(4.3930436,-4.7192404,5.4685649,6.0001556,-3681.6189,-2793.2937)"
       inkscape:transform-center-x="2.672774e-05"
       inkscape:transform-center-y="83.550717"
       style="font-size:12px;font-style:normal;font-variant:normal;font-weight:normal;font-stretch:normal;text-align:start;line-height:125%;letter-spacing:0px;word-spacing:0px;writing-mode:lr-tb;text-anchor:start;fill:#110b02;fill-opacity:1;stroke:none;font-family:Liberation Serif;-inkscape-font-specification:Liberation Serif"
       id="flowRoot3881">
      <path
         d="m 71.863281,639.95935 c -1.2e-5,-1.22656 -0.117199,-2.25781 -0.351562,-3.09375 -0.226574,-0.84374 -0.562512,-1.52343 -1.007813,-2.03907 -0.445323,-0.51561 -0.996103,-0.8828 -1.652344,-1.10156 -0.656258,-0.22655 -1.41407,-0.33983 -2.273437,-0.33984 l -0.867188,0 0,13.08984 c 0.187494,0.0156 0.355463,0.0274 0.503907,0.0352 0.156243,0.008 0.308587,0.0195 0.457031,0.0352 0.156243,0.008 0.316399,0.0156 0.480469,0.0234 0.171867,0 0.371086,0 0.597656,0 0.781241,0 1.433584,-0.125 1.957031,-0.375 0.523427,-0.25781 0.945302,-0.65625 1.265625,-1.19531 0.320301,-0.53906 0.546863,-1.22265 0.679688,-2.05078 0.140613,-0.83594 0.210925,-1.83203 0.210937,-2.98828 m -4.382812,-7.86329 c 1.265616,2e-5 2.406239,0.13674 3.421875,0.41016 1.023425,0.26564 1.894518,0.70314 2.613281,1.3125 0.718735,0.60939 1.269516,1.41017 1.652344,2.40234 0.390609,0.98439 0.585921,2.19923 0.585937,3.64454 -1.6e-5,1.28125 -0.148453,2.41797 -0.445312,3.41015 -0.296891,0.99219 -0.761734,1.82813 -1.394532,2.50781 -0.632826,0.67969 -1.441419,1.19532 -2.425781,1.54688 -0.976573,0.35156 -2.148447,0.52734 -3.515625,0.52734 -0.44532,0 -0.91407,-0.004 -1.40625,-0.0117 -0.492194,0 -0.972662,-0.004 -1.441406,-0.0117 -0.468755,-0.008 -0.914067,-0.0156 -1.335938,-0.0234 -0.414066,0 -0.77344,0 -1.078125,0 l -2.695312,0 0,-0.85547 2.015625,-0.31641 0,-13.38281 -2.015625,-0.30469 0,-0.85547 7.464844,0"
         style="font-size:24px;font-weight:bold;fill:#110b02;font-family:Liberation Serif;-inkscape-font-specification:Liberation Serif"
         id="path3778" />
      <path
         d="m 82.046875,646.75622 1.207031,0.28125 0,0.77344 -5.789062,0 0,-0.77344 1.195312,-0.28125 0,-8.90625 -1.125,-0.28125 0,-0.77344 4.511719,0 0,9.96094 m -3.503906,-13.80469 c -2e-6,-0.24998 0.04687,-0.48436 0.140625,-0.70312 0.09375,-0.21874 0.222654,-0.40624 0.386718,-0.5625 0.164061,-0.16405 0.355467,-0.29295 0.574219,-0.38672 0.218747,-0.0937 0.453122,-0.14061 0.703125,-0.14063 0.249997,2e-5 0.484371,0.0469 0.703125,0.14063 0.218746,0.0938 0.406246,0.22267 0.5625,0.38672 0.164058,0.15626 0.292964,0.34376 0.386719,0.5625 0.09374,0.21876 0.14062,0.45314 0.140625,0.70312 -5e-6,0.25002 -0.04688,0.48439 -0.140625,0.70313 -0.09376,0.21876 -0.222661,0.41017 -0.386719,0.57422 -0.156254,0.16407 -0.343754,0.29298 -0.5625,0.38672 -0.218754,0.0938 -0.453128,0.14063 -0.703125,0.14062 -0.250003,10e-6 -0.484378,-0.0469 -0.703125,-0.14062 -0.218752,-0.0937 -0.410158,-0.22265 -0.574219,-0.38672 -0.164064,-0.16405 -0.29297,-0.35546 -0.386718,-0.57422 -0.09375,-0.21874 -0.140627,-0.45311 -0.140625,-0.70313"
         style="font-size:24px;font-weight:bold;fill:#110b02;font-family:Liberation Serif;-inkscape-font-specification:Liberation Serif"
         id="path3780" />
      <path
         d="m 93.648437,647.14294 c -0.187509,0.14844 -0.410165,0.27734 -0.667968,0.38672 -0.250009,0.10937 -0.527353,0.20312 -0.832032,0.28125 -0.296883,0.0703 -0.605476,0.125 -0.925781,0.16406 -0.32032,0.0391 -0.636725,0.0586 -0.949219,0.0586 -1.04688,0 -1.94141,-0.1289 -2.683593,-0.38671 -0.742191,-0.26563 -1.347659,-0.64454 -1.816407,-1.13672 -0.468751,-0.49219 -0.812501,-1.09375 -1.03125,-1.80469 -0.21875,-0.71093 -0.328125,-1.51953 -0.328125,-2.42578 0,-1.00781 0.144531,-1.87499 0.433594,-2.60156 0.289061,-0.73437 0.679686,-1.33593 1.171875,-1.80469 0.499997,-0.46874 1.078122,-0.81249 1.734375,-1.03125 0.656245,-0.22655 1.347651,-0.33983 2.074219,-0.33985 0.671868,2e-5 1.30468,0.043 1.898437,0.12891 0.601554,0.0781 1.160147,0.17189 1.675782,0.28125 l 0,3.25781 -0.84375,0 -0.492188,-1.93359 c -0.125008,-0.0937 -0.250008,-0.17187 -0.375,-0.23438 -0.117195,-0.0703 -0.246101,-0.12499 -0.386719,-0.16406 -0.140632,-0.0469 -0.296882,-0.0781 -0.46875,-0.0937 -0.164069,-0.0234 -0.355475,-0.0351 -0.574218,-0.0352 -0.304694,10e-6 -0.601569,0.0899 -0.890625,0.26953 -0.289068,0.17188 -0.550787,0.44141 -0.785157,0.80859 -0.226567,0.35938 -0.41016,0.82423 -0.550781,1.39453 -0.140629,0.57032 -0.210941,1.2461 -0.210937,2.02735 -4e-6,0.65625 0.04296,1.25391 0.128906,1.79296 0.09375,0.53907 0.253902,1.00001 0.480469,1.38282 0.226557,0.38281 0.539057,0.67969 0.9375,0.89062 0.398431,0.20313 0.902337,0.30469 1.511718,0.30469 0.507805,0 1.007805,-0.0312 1.5,-0.0937 0.499991,-0.0625 0.921866,-0.14453 1.265625,-0.24609 l 0,0.90234"
         style="font-size:24px;font-weight:bold;fill:#110b02;font-family:Liberation Serif;-inkscape-font-specification:Liberation Serif"
         id="path3782" />
      <path
         d="m 99.367187,648.04528 c -0.585942,0 -1.089847,-0.0703 -1.511718,-0.21093 -0.414066,-0.14063 -0.753909,-0.33204 -1.019532,-0.57422 -0.265627,-0.25 -0.460939,-0.54297 -0.585937,-0.87891 -0.125002,-0.34375 -0.187502,-0.71484 -0.1875,-1.11328 l 0,-7.25391 -1.441406,0 0,-0.76172 1.699218,-0.45703 1.371094,-2.49609 1.757813,0 0,2.49609 2.320311,0 0,1.21875 -2.320311,0 0,7.04297 c -5e-6,0.50782 0.105463,0.89063 0.316406,1.14844 0.210932,0.25781 0.488275,0.38672 0.832035,0.38672 0.26561,0 0.52733,-0.0195 0.78515,-0.0586 0.26562,-0.0391 0.51171,-0.082 0.73828,-0.1289 l 0,0.99609 c -0.10938,0.0781 -0.26954,0.15625 -0.48046,0.23438 -0.21095,0.0781 -0.44532,0.14453 -0.70313,0.19922 -0.25001,0.0625 -0.51563,0.11328 -0.79687,0.15234 -0.273448,0.0391 -0.53126,0.0586 -0.773443,0.0586"
         style="font-size:24px;font-weight:bold;fill:#110b02;font-family:Liberation Serif;-inkscape-font-specification:Liberation Serif"
         id="path3784" />
      <path
         d="m 107.35938,646.75622 1.20703,0.28125 0,0.77344 -5.78907,0 0,-0.77344 1.19532,-0.28125 0,-8.90625 -1.125,-0.28125 0,-0.77344 4.51172,0 0,9.96094 m -3.50391,-13.80469 c 0,-0.24998 0.0469,-0.48436 0.14062,-0.70312 0.0937,-0.21874 0.22266,-0.40624 0.38672,-0.5625 0.16406,-0.16405 0.35547,-0.29295 0.57422,-0.38672 0.21875,-0.0937 0.45312,-0.14061 0.70313,-0.14063 0.24999,2e-5 0.48437,0.0469 0.70312,0.14063 0.21875,0.0938 0.40625,0.22267 0.5625,0.38672 0.16406,0.15626 0.29297,0.34376 0.38672,0.5625 0.0937,0.21876 0.14062,0.45314 0.14063,0.70312 -1e-5,0.25002 -0.0469,0.48439 -0.14063,0.70313 -0.0937,0.21876 -0.22266,0.41017 -0.38672,0.57422 -0.15625,0.16407 -0.34375,0.29298 -0.5625,0.38672 -0.21875,0.0938 -0.45313,0.14063 -0.70312,0.14062 -0.25001,10e-6 -0.48438,-0.0469 -0.70313,-0.14062 -0.21875,-0.0937 -0.41016,-0.22265 -0.57422,-0.38672 -0.16406,-0.16405 -0.29297,-0.35546 -0.38672,-0.57422 -0.0937,-0.21874 -0.14062,-0.45311 -0.14062,-0.70313"
         style="font-size:24px;font-weight:bold;fill:#110b02;font-family:Liberation Serif;-inkscape-font-specification:Liberation Serif"
         id="path3786" />
      <path
         d="m 119.99219,642.2445 c -10e-6,0.93751 -0.0977,1.76563 -0.29297,2.48438 -0.18751,0.71875 -0.48829,1.32422 -0.90234,1.8164 -0.41408,0.49219 -0.94923,0.86719 -1.60547,1.125 -0.64845,0.25 -1.4336,0.375 -2.35547,0.375 -0.8672,0 -1.61719,-0.125 -2.25,-0.375 -0.63282,-0.25 -1.15626,-0.62109 -1.57031,-1.11328 -0.40626,-0.49218 -0.70704,-1.09765 -0.90235,-1.8164 -0.19531,-0.72656 -0.29297,-1.55859 -0.29297,-2.4961 0,-0.92968 0.0977,-1.74999 0.29297,-2.46094 0.19531,-0.71874 0.5,-1.3203 0.91406,-1.80468 0.41406,-0.48437 0.94141,-0.85156 1.58204,-1.10157 0.64843,-0.24998 1.42186,-0.37498 2.32031,-0.375 1.74218,2e-5 3.01952,0.4883 3.83203,1.46485 0.8203,0.96876 1.23046,2.39454 1.23047,4.27734 m -3.4336,0 c 0,-0.7578 -0.0234,-1.42187 -0.0703,-1.99219 -0.0469,-0.5703 -0.13282,-1.04686 -0.25781,-1.42968 -0.12501,-0.38281 -0.29688,-0.66796 -0.51563,-0.85547 -0.21875,-0.18749 -0.50391,-0.28124 -0.85546,-0.28125 -0.34376,10e-6 -0.6211,0.0938 -0.83204,0.28125 -0.21094,0.18751 -0.375,0.47266 -0.49218,0.85547 -0.10938,0.38282 -0.1836,0.85938 -0.22266,1.42968 -0.0391,0.57032 -0.0586,1.23439 -0.0586,1.99219 -1e-5,0.76563 0.0195,1.43751 0.0586,2.01563 0.0391,0.57031 0.11328,1.05078 0.22266,1.4414 0.11718,0.39063 0.28124,0.6836 0.49218,0.87891 0.21094,0.19531 0.48828,0.29297 0.83204,0.29297 0.35155,0 0.63671,-0.0977 0.85546,-0.29297 0.21875,-0.19531 0.39062,-0.48828 0.51563,-0.87891 0.12499,-0.39062 0.21093,-0.87109 0.25781,-1.4414 0.0469,-0.57812 0.0703,-1.25 0.0703,-2.01563"
         style="font-size:24px;font-weight:bold;fill:#110b02;font-family:Liberation Serif;-inkscape-font-specification:Liberation Serif"
         id="path3788" />
      <path
         d="m 125.99219,637.75622 c 0.24218,-0.12499 0.5078,-0.26171 0.79687,-0.41016 0.28906,-0.14842 0.59375,-0.28514 0.91407,-0.41015 0.3203,-0.12499 0.65233,-0.22655 0.99609,-0.30469 0.34374,-0.0859 0.6914,-0.12889 1.04297,-0.12891 0.4453,2e-5 0.85546,0.0586 1.23047,0.17579 0.37499,0.11719 0.6953,0.30469 0.96093,0.5625 0.27343,0.25782 0.48437,0.59376 0.63282,1.00781 0.14842,0.41407 0.22264,0.91407 0.22265,1.5 l 0,7.00781 1.10156,0.28125 0,0.77344 -5.47265,0 0,-0.77344 0.98437,-0.28125 0,-6.55078 c 0,-0.65624 -0.14063,-1.16796 -0.42187,-1.53516 -0.27345,-0.36718 -0.66798,-0.55077 -1.18359,-0.55078 -0.59376,10e-6 -1.18751,0.13282 -1.78125,0.39844 l 0,8.23828 1.00781,0.28125 0,0.77344 -5.47266,0 0,-0.77344 1.07813,-0.28125 0,-8.90625 -1.07813,-0.28125 0,-0.77344 4.27735,0 0.16406,0.96094"
         style="font-size:24px;font-weight:bold;fill:#110b02;font-family:Liberation Serif;-inkscape-font-specification:Liberation Serif"
         id="path3790" />
      <path
         d="m 140.66406,636.54919 c 0.60156,1e-5 1.15624,0.0508 1.66406,0.15234 0.50781,0.10158 0.94531,0.27345 1.3125,0.51563 0.36718,0.23438 0.65234,0.54688 0.85547,0.9375 0.20312,0.39063 0.30468,0.8711 0.30469,1.4414 l 0,7.16016 1.10156,0.28125 0,0.77344 -4.05468,0 -0.25782,-0.84375 c -0.14844,0.10156 -0.32422,0.21484 -0.52734,0.33984 -0.19532,0.125 -0.42188,0.24219 -0.67969,0.35156 -0.25782,0.10938 -0.54688,0.19922 -0.86719,0.26954 -0.32031,0.0781 -0.67578,0.11718 -1.0664,0.11718 -0.64063,0 -1.17969,-0.082 -1.61719,-0.24609 -0.42969,-0.16406 -0.77734,-0.39063 -1.04297,-0.67969 -0.26562,-0.29687 -0.45703,-0.64453 -0.57422,-1.04297 -0.11718,-0.40625 -0.17578,-0.84374 -0.17578,-1.3125 0,-0.75781 0.13281,-1.36327 0.39844,-1.8164 0.26562,-0.45312 0.62109,-0.80078 1.06641,-1.04297 0.45312,-0.25 0.97656,-0.41406 1.57031,-0.49219 0.60156,-0.0781 1.23827,-0.12499 1.91015,-0.14062 l 1.42969,-0.0352 0,-1.60547 c 0,-0.64843 -0.13282,-1.14062 -0.39844,-1.47656 -0.26563,-0.34374 -0.67578,-0.51562 -1.23046,-0.51563 -0.4297,10e-6 -0.82423,0.0625 -1.1836,0.1875 -0.35156,0.1172 -0.69141,0.25782 -1.01953,0.42188 l -0.44531,1.37109 -0.77344,0 0,-2.66015 c 0.35937,-0.0547 0.69922,-0.10546 1.01953,-0.15235 0.32812,-0.0469 0.66015,-0.0898 0.9961,-0.1289 0.33593,-0.0391 0.68749,-0.0703 1.05468,-0.0937 0.375,-0.0234 0.78515,-0.0351 1.23047,-0.0352 m 0.75,5.73047 -0.98437,0.0351 c -0.34376,0.0156 -0.64063,0.0625 -0.89063,0.14063 -0.25,0.0781 -0.46094,0.21094 -0.63281,0.39844 -0.16407,0.17969 -0.28907,0.41797 -0.375,0.71484 -0.0781,0.29688 -0.11719,0.67188 -0.11719,1.125 0,0.66407 0.11719,1.15235 0.35156,1.46484 0.23438,0.31251 0.53906,0.46876 0.91407,0.46875 0.37499,1e-5 0.6953,-0.0391 0.96093,-0.11718 0.26562,-0.0859 0.52344,-0.1836 0.77344,-0.29297 l 0,-3.9375"
         style="font-size:24px;font-weight:bold;fill:#110b02;font-family:Liberation Serif;-inkscape-font-specification:Liberation Serif"
         id="path3792" />
      <path
         d="m 151.66797,639.08044 c 0.20312,-0.22655 0.45312,-0.49218 0.75,-0.79688 0.30468,-0.30467 0.6328,-0.59374 0.98437,-0.86718 0.35937,-0.27343 0.73828,-0.5039 1.13672,-0.69141 0.40624,-0.18749 0.8164,-0.28124 1.23047,-0.28125 l 0.63281,0 0,4.01953 -0.65625,0 -0.6914,-1.47656 c -0.25782,1e-5 -0.53907,0.0313 -0.84375,0.0937 -0.3047,0.0625 -0.60548,0.14844 -0.90235,0.25781 -0.29688,0.10157 -0.58594,0.21876 -0.86718,0.35156 -0.27345,0.12501 -0.51173,0.25001 -0.71485,0.375 l 0,6.69141 1.76953,0.28125 0,0.77344 -6.58593,0 0,-0.77344 1.42968,-0.28125 0,-8.90625 -1.42968,-0.28125 0,-0.77344 4.6289,0 0.12891,2.28516"
         style="font-size:24px;font-weight:bold;fill:#110b02;font-family:Liberation Serif;-inkscape-font-specification:Liberation Serif"
         id="path3794" />
      <path
         d="m 162.32031,648.15075 -4.40625,-10.30078 -0.77344,-0.28125 0,-0.77344 5.63672,0 0,0.77344 -1.3125,0.30469 2.58985,6.09375 2.30859,-6.11719 -1.28906,-0.28125 0,-0.77344 3.59765,0 0,0.77344 -0.79687,0.23438 -4.34766,10.69921 c -0.25,0.64063 -0.50391,1.23438 -0.76172,1.78125 -0.25781,0.54688 -0.54688,1.01953 -0.86718,1.41797 -0.31251,0.40625 -0.67188,0.72265 -1.07813,0.94922 -0.40625,0.22656 -0.87891,0.33984 -1.41797,0.33985 -0.21875,-10e-6 -0.41015,-0.004 -0.57422,-0.0117 -0.15625,-0.008 -0.30859,-0.0235 -0.45703,-0.0469 -0.14062,-0.0156 -0.28515,-0.0391 -0.43359,-0.0703 -0.14063,-0.0234 -0.29688,-0.0547 -0.46875,-0.0937 l 0,-2.83594 0.70312,0 0.50391,1.47656 c 0.10937,0.0859 0.23047,0.15234 0.36328,0.19922 0.14063,0.0469 0.30859,0.0703 0.50391,0.0703 0.32031,-10e-6 0.59765,-0.082 0.83203,-0.2461 0.24218,-0.16406 0.46093,-0.38672 0.65625,-0.66797 0.19531,-0.27344 0.375,-0.59766 0.53906,-0.97265 0.17187,-0.36719 0.35156,-0.75782 0.53906,-1.17188 l 0.21094,-0.46875"
         style="font-size:24px;font-weight:bold;fill:#110b02;font-family:Liberation Serif;-inkscape-font-specification:Liberation Serif"
         id="path3796" />
    </g>
  </g>
</svg>
