<?xml version="1.0" encoding="UTF-8" standalone="no"?>
<!-- Created with Inkscape (http://www.inkscape.org/) -->

<svg
   xmlns:dc="http://purl.org/dc/elements/1.1/"
   xmlns:cc="http://creativecommons.org/ns#"
   xmlns:rdf="http://www.w3.org/1999/02/22-rdf-syntax-ns#"
   xmlns:svg="http://www.w3.org/2000/svg"
   xmlns="http://www.w3.org/2000/svg"
   xmlns:sodipodi="http://sodipodi.sourceforge.net/DTD/sodipodi-0.dtd"
   xmlns:inkscape="http://www.inkscape.org/namespaces/inkscape"
   width="699.68756"
   height="697.71875"
   id="svg3398"
   version="1.1"
   inkscape:version="0.48.4 r9939"
   sodipodi:docname="header_footer.svg">
  <defs
     id="defs3400" />
  <sodipodi:namedview
     id="base"
     pagecolor="#ffffff"
     bordercolor="#666666"
     borderopacity="1.0"
     inkscape:pageopacity="0.0"
     inkscape:pageshadow="2"
     inkscape:zoom="0.35"
     inkscape:cx="-625.3705"
     inkscape:cy="361.98157"
     inkscape:document-units="px"
     inkscape:current-layer="layer1"
     showgrid="false"
     inkscape:window-width="1440"
     inkscape:window-height="824"
     inkscape:window-x="0"
     inkscape:window-y="24"
     inkscape:window-maximized="1"
     fit-margin-top="15"
     fit-margin-left="5"
     fit-margin-right="5"
     fit-margin-bottom="15" />
  <metadata
     id="metadata3403">
    <rdf:RDF>
      <cc:Work
         rdf:about="">
        <dc:format>image/svg+xml</dc:format>
        <dc:type
           rdf:resource="http://purl.org/dc/dcmitype/StillImage" />
        <dc:title />
      </cc:Work>
    </rdf:RDF>
  </metadata>
  <g
     inkscape:label="Layer 1"
     inkscape:groupmode="layer"
     id="layer1"
     transform="translate(-14.656215,-196.625)">
    <rect
       style="fill:#ffffff;fill-opacity:1;stroke:#000000;stroke-width:4.0813961;stroke-linejoin:round;stroke-miterlimit:4;stroke-opacity:1;stroke-dasharray:none"
       id="rect3839"
       width="508.3757"
       height="358.31046"
       x="106.75323"
       y="373.74109" />
    <rect
       style="fill:#e3f700;fill-opacity:1;stroke:#110b02;stroke-width:5;stroke-linecap:round;stroke-linejoin:round;stroke-miterlimit:4;stroke-opacity:1;stroke-dasharray:none"
       id="rect3837"
       width="678.42529"
       height="168.17303"
       x="28.417376"
       y="214.138" />
    <rect
       style="fill:#e3dd00;fill-opacity:1;stroke:#110b02;stroke-width:4;stroke-linecap:round;stroke-linejoin:round;stroke-miterlimit:4;stroke-opacity:1;stroke-dasharray:none"
       id="rect3837-8"
       width="678.58435"
       height="145.3994"
       x="21.649254"
       y="731.95496" />
    <g
       transform="matrix(5.912562,0,0,7.4539116,-3244.9827,-2191.9424)"
       style="font-size:12px;font-style:normal;font-variant:normal;font-weight:normal;font-stretch:normal;text-align:start;line-height:125%;letter-spacing:0px;word-spacing:0px;writing-mode:lr-tb;text-anchor:start;fill:#110b02;fill-opacity:1;stroke:#110b02;stroke-width:0.374791;stroke-miterlimit:4;stroke-opacity:1;font-family:Sans;-inkscape-font-specification:Sans"
       id="flowRoot3859">
      <path
         d="m 566.9933,333.62008 0,5.06 c 0,1.078 -0.374,1.386 -1.98,1.562 l 0,0.55 7.48,0 0,-0.55 c -1.584,-0.198 -1.936,-0.484 -1.936,-1.562 l 0,-10.648 c 0,-1.1 0.44,-1.452 1.936,-1.562 l 0,-0.55 -7.48,0 0,0.55 c 1.54,0.11 1.98,0.462 1.98,1.562 l 0,4.554 -5.302,0 0,-4.554 c 0,-1.1 0.44,-1.452 1.98,-1.562 l 0,-0.55 -7.414,0 0,0.55 c 1.474,0.132 1.87,0.462 1.87,1.562 l 0,10.648 c 0,1.078 -0.33,1.364 -1.87,1.562 l 0,0.55 7.414,0 0,-0.55 c -1.606,-0.176 -1.98,-0.484 -1.98,-1.562 l 0,-5.06 5.302,0"
         style="font-size:22px;font-weight:bold;text-align:center;letter-spacing:7.81000423px;text-anchor:middle;fill:#110b02;stroke:#110b02;font-family:Nimbus Roman No9 L;-inkscape-font-specification:Nimbus Roman No9 L Bold"
         id="path3762"
         inkscape:connector-curvature="0" />
      <path
         d="m 589.55087,338.04208 c -0.88,1.078 -1.562,1.474 -2.508,1.474 -0.858,0 -1.496,-0.396 -1.958,-1.166 -0.396,-0.704 -0.572,-1.43 -0.66,-2.948 l 5.544,0 c -0.132,-1.848 -0.462,-2.882 -1.166,-3.718 -0.726,-0.858 -1.738,-1.298 -2.948,-1.298 -2.75,0 -4.598,2.17801 -4.598,5.39 0,3.212 1.804,5.324 4.532,5.324 1.782,0 2.86,-0.704 4.29,-2.75 l -0.528,-0.308 m -5.236,-3.454 c 0.066,-2.63999 0.462,-3.52 1.54,-3.52 0.616,0 1.034,0.352 1.21,1.034 0.11,0.418 0.154,1.034 0.198,2.156 l 0,0.33 -2.948,0"
         style="font-size:22px;font-weight:bold;text-align:center;letter-spacing:7.81000423px;text-anchor:middle;fill:#110b02;stroke:#110b02;font-family:Nimbus Roman No9 L;-inkscape-font-specification:Nimbus Roman No9 L Bold"
         id="path3764"
         inkscape:connector-curvature="0" />
      <path
         d="m 608.67678,339.38408 -0.22,0.22 c -0.066,0.066 -0.132,0.088 -0.242,0.088 -0.308,0 -0.462,-0.198 -0.462,-0.55 l 0,-5.742 c 0,-1.848 -1.672,-3.014 -4.356,-3.014 -2.486,0 -4.158,1.122 -4.158,2.772 0,0.902 0.528,1.452 1.43,1.452 0.88,0 1.496,-0.528 1.496,-1.276 0,-0.308 -0.132,-0.594 -0.396,-0.946 -0.198,-0.22 -0.264,-0.352 -0.264,-0.484 0,-0.462 0.616,-0.814 1.386,-0.814 1.276,0 1.848,0.594 1.848,1.936 l 0,1.606 c -2.618,0.792 -3.696,1.232 -4.51,1.782 -0.946,0.66 -1.408,1.408 -1.408,2.354 0,1.342 1.034,2.332 2.442,2.332 1.254,0 2.266,-0.44 3.476,-1.54 0.242,1.122 0.726,1.54 1.804,1.54 0.946,0 1.628,-0.352 2.464,-1.254 l -0.33,-0.462 m -3.96,-0.792 c -0.594,0.682 -1.034,0.946 -1.562,0.946 -0.66,0 -1.122,-0.594 -1.122,-1.474 0,-1.276 0.924,-2.2 2.684,-2.662 l 0,3.19"
         style="font-size:22px;font-weight:bold;text-align:center;letter-spacing:7.81000423px;text-anchor:middle;fill:#110b02;stroke:#110b02;font-family:Nimbus Roman No9 L;-inkscape-font-specification:Nimbus Roman No9 L Bold"
         id="path3766"
         inkscape:connector-curvature="0" />
      <path
         d="m 624.53878,341.07808 c 1.012,-0.286 1.562,-0.396 2.926,-0.55 l 1.364,-0.176 0,-0.506 c -1.012,-0.066 -1.298,-0.352 -1.298,-1.276 l 0,-12.65 -4.73,0 0,0.528 c 1.474,0.11 1.672,0.264 1.672,1.276 l 0,4.026 c -0.946,-1.012 -1.606,-1.364 -2.618,-1.364 -2.42,0 -4.224,2.35401 -4.224,5.544 0,2.992 1.672,5.17 3.982,5.17 1.166,0 1.892,-0.352 2.926,-1.452 l 0,1.43 m -0.066,-2.75 c 0,0.132 -0.22,0.506 -0.484,0.792 -0.44,0.506 -0.902,0.748 -1.386,0.748 -1.166,0 -1.716,-1.32 -1.716,-4.114 0,-2.83799 0.594,-4.136 1.87,-4.136 0.726,0 1.408,0.528 1.716,1.364 l 0,5.346"
         style="font-size:22px;font-weight:bold;text-align:center;letter-spacing:7.81000423px;text-anchor:middle;fill:#110b02;stroke:#110b02;font-family:Nimbus Roman No9 L;-inkscape-font-specification:Nimbus Roman No9 L Bold"
         id="path3768"
         inkscape:connector-curvature="0" />
      <path
         d="m 645.98089,338.04208 c -0.88,1.078 -1.56201,1.474 -2.508,1.474 -0.858,0 -1.49601,-0.396 -1.958,-1.166 -0.396,-0.704 -0.572,-1.43 -0.66,-2.948 l 5.544,0 c -0.132,-1.848 -0.46201,-2.882 -1.166,-3.718 -0.726,-0.858 -1.73801,-1.298 -2.948,-1.298 -2.75,0 -4.598,2.17801 -4.598,5.39 0,3.212 1.804,5.324 4.532,5.324 1.78199,0 2.86,-0.704 4.29,-2.75 l -0.528,-0.308 m -5.236,-3.454 c 0.066,-2.63999 0.462,-3.52 1.54,-3.52 0.61599,0 1.034,0.352 1.21,1.034 0.11,0.418 0.154,1.034 0.198,2.156 l 0,0.33 -2.948,0"
         style="font-size:22px;font-weight:bold;text-align:center;letter-spacing:7.81000423px;text-anchor:middle;fill:#110b02;stroke:#110b02;font-family:Nimbus Roman No9 L;-inkscape-font-specification:Nimbus Roman No9 L Bold"
         id="path3770"
         inkscape:connector-curvature="0" />
      <path
         d="m 659.49679,330.65008 -4.158,0 0,0.528 c 0.946,0.132 1.188,0.418 1.188,1.298 l 0,6.468 c 0,0.902 -0.22,1.144 -1.188,1.32 l 0,0.528 5.852,0 0,-0.528 c -1.342,-0.088 -1.606,-0.374 -1.606,-1.738 l 0,-4.158 c 0,-1.144 0.616,-2.09 1.342,-2.09 0.176,0 0.374,0.154 0.616,0.506 0.418,0.594 0.748,0.792 1.32,0.792 0.814,0 1.386,-0.616 1.386,-1.474 0,-0.99 -0.748,-1.716 -1.782,-1.716 -1.1,0 -1.936,0.594 -2.97,2.068 l 0,-1.804"
         style="font-size:22px;font-weight:bold;text-align:center;letter-spacing:7.81000423px;text-anchor:middle;fill:#110b02;stroke:#110b02;font-family:Nimbus Roman No9 L;-inkscape-font-specification:Nimbus Roman No9 L Bold"
         id="path3772"
         inkscape:connector-curvature="0" />
    </g>
    <g
       transform="matrix(6.0554012,0,0,6.5977599,-3128.5956,-2294.2741)"
       style="font-size:12px;font-style:normal;font-variant:normal;font-weight:normal;font-stretch:normal;text-align:start;line-height:125%;letter-spacing:0px;word-spacing:0px;writing-mode:lr-tb;text-anchor:start;fill:#110b02;fill-opacity:1;stroke:#110b02;stroke-width:0.34799856;stroke-miterlimit:4;stroke-opacity:1;font-family:Sans;-inkscape-font-specification:Sans"
       id="flowRoot3867">
      <path
         d="m 538.27325,461.28782 -13.608,0 0,0.6 c 1.656,0.096 2.112,0.456 2.112,1.704 l 0,11.616 c 0,1.248 -0.336,1.512 -2.112,1.704 l 0,0.6 8.64,0 0,-0.6 c -2.208,-0.096 -2.64,-0.384 -2.64,-1.704 l 0,-5.592 c 2.448,0.048 3.336,0.936 3.672,3.72 l 0.6,0 0,-8.112 -0.6,0 c -0.432,2.736 -1.272,3.576 -3.672,3.576 l 0,-5.568 c 0,-0.888 0.312,-1.128 1.536,-1.128 2.208,0 3.624,0.408 4.368,1.248 0.528,0.6 0.792,1.248 1.128,2.76 l 0.576,0 0,-4.824"
         style="font-size:24px;font-weight:bold;letter-spacing:6.79000187px;fill:#110b02;stroke:#110b02;font-family:Nimbus Roman No9 L;-inkscape-font-specification:Nimbus Roman No9 L Bold"
         id="path3775"
         inkscape:connector-curvature="0" />
      <path
         d="m 551.76713,466.15982 c -3.048,0 -5.424,2.52 -5.424,5.784 0,3.43199 2.28,5.904 5.424,5.904 3.09599,0 5.4,-2.49601 5.4,-5.832 0,-3.36 -2.30401,-5.856 -5.4,-5.856 m 0.024,0.744 c 1.39199,0 1.848,1.32 1.848,5.256 0,3.69599 -0.48001,4.944 -1.872,4.944 -1.416,0 -1.896,-1.22401 -1.896,-4.728 0,-4.224 0.432,-5.472 1.92,-5.472"
         style="font-size:24px;font-weight:bold;letter-spacing:6.79000187px;fill:#110b02;stroke:#110b02;font-family:Nimbus Roman No9 L;-inkscape-font-specification:Nimbus Roman No9 L Bold"
         id="path3777"
         inkscape:connector-curvature="0" />
      <path
         d="m 570.55713,466.15982 c -3.048,0 -5.424,2.52 -5.424,5.784 0,3.43199 2.28,5.904 5.424,5.904 3.09599,0 5.4,-2.49601 5.4,-5.832 0,-3.36 -2.30401,-5.856 -5.4,-5.856 m 0.024,0.744 c 1.392,0 1.848,1.32 1.848,5.256 0,3.69599 -0.48,4.944 -1.872,4.944 -1.416,0 -1.896,-1.22401 -1.896,-4.728 0,-4.224 0.432,-5.472 1.92,-5.472"
         style="font-size:24px;font-weight:bold;letter-spacing:6.79000187px;fill:#110b02;stroke:#110b02;font-family:Nimbus Roman No9 L;-inkscape-font-specification:Nimbus Roman No9 L Bold"
         id="path3779"
         inkscape:connector-curvature="0" />
      <path
         d="m 590.64313,466.44782 -2.256,0 0,-4.056 -0.6,0 c -1.464,2.064 -2.424,3.144 -3.984,4.464 l 0,0.648 1.248,0 0,7.776 c 0,1.56 1.032,2.52 2.688,2.52 1.608,0 2.568,-0.72 3.552,-2.688 l -0.6,-0.264 c -0.48,0.912 -0.864,1.248 -1.368,1.248 -0.672,0 -0.936,-0.408 -0.936,-1.368 l 0,-7.224 2.256,0 0,-1.056"
         style="font-size:24px;font-weight:bold;letter-spacing:6.79000187px;fill:#110b02;stroke:#110b02;font-family:Nimbus Roman No9 L;-inkscape-font-specification:Nimbus Roman No9 L Bold"
         id="path3781"
         inkscape:connector-curvature="0" />
      <path
         d="m 607.77675,474.51182 c -0.96,1.176 -1.704,1.608 -2.736,1.608 -0.936,0 -1.632,-0.432 -2.136,-1.272 -0.432,-0.768 -0.624,-1.56 -0.72,-3.216 l 6.048,0 c -0.144,-2.016 -0.504,-3.144 -1.272,-4.056 -0.792,-0.936 -1.896,-1.416 -3.216,-1.416 -2.99999,0 -5.016,2.376 -5.016,5.88 0,3.50399 1.96801,5.808 4.944,5.808 1.944,0 3.12001,-0.768 4.68,-3 l -0.576,-0.336 m -5.712,-3.768 c 0.072,-2.88 0.504,-3.84 1.68,-3.84 0.672,0 1.128,0.384 1.32,1.128 0.12,0.456 0.168,1.128 0.216,2.352 l 0,0.36 -3.216,0"
         style="font-size:24px;font-weight:bold;letter-spacing:6.79000187px;fill:#110b02;stroke:#110b02;font-family:Nimbus Roman No9 L;-inkscape-font-specification:Nimbus Roman No9 L Bold"
         id="path3783"
         inkscape:connector-curvature="0" />
      <path
         d="m 620.79139,466.44782 -4.536,0 0,0.576 c 1.032,0.144 1.296,0.456 1.296,1.416 l 0,7.056 c 0,0.984 -0.24,1.248 -1.296,1.44 l 0,0.576 6.384,0 0,-0.576 c -1.464,-0.096 -1.752,-0.408 -1.752,-1.896 l 0,-4.536 c 0,-1.248 0.672,-2.28 1.464,-2.28 0.192,0 0.408,0.168 0.672,0.552 0.456,0.648 0.816,0.864 1.44,0.864 0.888,0 1.512,-0.672 1.512,-1.608 0,-1.08 -0.816,-1.872 -1.944,-1.872 -1.2,0 -2.112,0.648 -3.24,2.256 l 0,-1.968"
         style="font-size:24px;font-weight:bold;letter-spacing:6.79000187px;fill:#110b02;stroke:#110b02;font-family:Nimbus Roman No9 L;-inkscape-font-specification:Nimbus Roman No9 L Bold"
         id="path3785"
         inkscape:connector-curvature="0" />
    </g>
  </g>
</svg>
