<?xml version="1.0" encoding="UTF-8" standalone="no"?>
<!-- Created with Inkscape (http://www.inkscape.org/) -->

<svg
   xmlns:dc="http://purl.org/dc/elements/1.1/"
   xmlns:cc="http://creativecommons.org/ns#"
   xmlns:rdf="http://www.w3.org/1999/02/22-rdf-syntax-ns#"
   xmlns:svg="http://www.w3.org/2000/svg"
   xmlns="http://www.w3.org/2000/svg"
   xmlns:xlink="http://www.w3.org/1999/xlink"
   xmlns:sodipodi="http://sodipodi.sourceforge.net/DTD/sodipodi-0.dtd"
   xmlns:inkscape="http://www.inkscape.org/namespaces/inkscape"
   width="650.34381"
   height="651.72174"
   id="svg3051"
   version="1.1"
   inkscape:version="0.48.4 r9939"
   sodipodi:docname="import_pdf.svg">
  <defs
     id="defs3053">
    <linearGradient
       id="linearGradient3780">
      <stop
         style="stop-color:#110b02;stop-opacity:1;"
         offset="0"
         id="stop3782" />
      <stop
         style="stop-color:#3b3b3b;stop-opacity:1;"
         offset="1"
         id="stop3784" />
    </linearGradient>
    <linearGradient
       id="linearGradient3763">
      <stop
         style="stop-color:#000080;stop-opacity:1;"
         offset="0"
         id="stop3765" />
      <stop
         id="stop3771"
         offset="0.63513511"
         style="stop-color:#146bd5;stop-opacity:1;" />
      <stop
         style="stop-color:#6193cf;stop-opacity:1;"
         offset="1"
         id="stop3767" />
    </linearGradient>
    <linearGradient
       inkscape:collect="always"
       xlink:href="#linearGradient3763"
       id="linearGradient3769"
       x1="212.81021"
       y1="677.70496"
       x2="213.78476"
       y2="955.04205"
       gradientUnits="userSpaceOnUse" />
    <linearGradient
       inkscape:collect="always"
       xlink:href="#linearGradient3780"
       id="linearGradient3786"
       x1="591.28729"
       y1="848.99054"
       x2="614.63531"
       y2="879.85785"
       gradientUnits="userSpaceOnUse" />
    <linearGradient
       inkscape:collect="always"
       xlink:href="#linearGradient3780"
       id="linearGradient3794"
       x1="591.28729"
       y1="848.99054"
       x2="614.63531"
       y2="879.85785"
       gradientUnits="userSpaceOnUse" />
    <linearGradient
       inkscape:collect="always"
       xlink:href="#linearGradient3780"
       id="linearGradient3796"
       gradientUnits="userSpaceOnUse"
       x1="591.28729"
       y1="848.99054"
       x2="614.63531"
       y2="879.85785" />
    <linearGradient
       inkscape:collect="always"
       xlink:href="#linearGradient3780"
       id="linearGradient3798"
       gradientUnits="userSpaceOnUse"
       x1="591.28729"
       y1="848.99054"
       x2="614.63531"
       y2="879.85785" />
    <linearGradient
       inkscape:collect="always"
       xlink:href="#linearGradient3780"
       id="linearGradient3800"
       gradientUnits="userSpaceOnUse"
       x1="591.28729"
       y1="848.99054"
       x2="614.63531"
       y2="879.85785" />
    <linearGradient
       inkscape:collect="always"
       xlink:href="#linearGradient3780"
       id="linearGradient3802"
       gradientUnits="userSpaceOnUse"
       x1="591.28729"
       y1="848.99054"
       x2="614.63531"
       y2="879.85785" />
    <linearGradient
       inkscape:collect="always"
       xlink:href="#linearGradient3780"
       id="linearGradient3804"
       gradientUnits="userSpaceOnUse"
       x1="591.28729"
       y1="848.99054"
       x2="614.63531"
       y2="879.85785" />
    <linearGradient
       inkscape:collect="always"
       xlink:href="#linearGradient3780"
       id="linearGradient3806"
       gradientUnits="userSpaceOnUse"
       x1="591.28729"
       y1="848.99054"
       x2="614.63531"
       y2="879.85785" />
  </defs>
  <sodipodi:namedview
     id="base"
     pagecolor="#ffffff"
     bordercolor="#666666"
     borderopacity="1.0"
     inkscape:pageopacity="0.0"
     inkscape:pageshadow="2"
     inkscape:zoom="0.59105127"
     inkscape:cx="334.35978"
     inkscape:cy="432.31891"
     inkscape:document-units="px"
     inkscape:current-layer="layer1"
     showgrid="false"
     inkscape:window-width="1440"
     inkscape:window-height="824"
     inkscape:window-x="0"
     inkscape:window-y="24"
     inkscape:window-maximized="1"
     fit-margin-top="5"
     fit-margin-left="20"
     fit-margin-right="20"
     fit-margin-bottom="5" />
  <metadata
     id="metadata3056">
    <rdf:RDF>
      <cc:Work
         rdf:about="">
        <dc:format>image/svg+xml</dc:format>
        <dc:type
           rdf:resource="http://purl.org/dc/dcmitype/StillImage" />
        <dc:title />
      </cc:Work>
    </rdf:RDF>
  </metadata>
  <g
     inkscape:label="Layer 1"
     inkscape:groupmode="layer"
     id="layer1"
     transform="translate(-37.687465,-306.77826)">
    <rect
       style="fill:url(#linearGradient3769);fill-opacity:1;stroke:#000000;stroke-width:4;stroke-linecap:round;stroke-linejoin:round;stroke-miterlimit:4;stroke-opacity:1;stroke-dasharray:none;stroke-dashoffset:0"
       id="rect2993"
       width="600.0567"
       height="271.28613"
       x="64.543915"
       y="680.2262" />
    <path
       style="fill:#ffffff;fill-opacity:1;stroke:#110b02;stroke-width:4;stroke-linecap:round;stroke-linejoin:round;stroke-miterlimit:4;stroke-opacity:1;stroke-dasharray:none"
       d="m 59.67438,313.77077 486.30516,0.71042 120.06036,60.3846 0,304.76474 -602.727321,0.71033 z"
       id="path4120"
       inkscape:connector-curvature="0"
       sodipodi:nodetypes="cccccc" />
    <g
       transform="matrix(5.7915965,0,0,6.4037267,-3174.6332,-5047.4013)"
       style="font-size:40px;font-style:normal;font-weight:normal;line-height:125%;letter-spacing:0px;word-spacing:0px;fill:url(#linearGradient3786);fill-opacity:1;stroke:url(#linearGradient3794);stroke-width:0.32840854;stroke-miterlimit:4;stroke-opacity:1;font-family:Liberation Serif;-inkscape-font-specification:Liberation Serif"
       id="flowRoot4132">
      <path
         d="m 582.83594,861.74682 c -2e-5,-1.24998 -0.1094,-2.30467 -0.32813,-3.16407 -0.21877,-0.85935 -0.57814,-1.54685 -1.07812,-2.0625 -0.4844,-0.53122 -1.13283,-0.91403 -1.94532,-1.14843 -0.79689,-0.23435 -1.78126,-0.35154 -2.95312,-0.35157 l -1.85156,0 0,13.94532 1.94531,0 c 1.18748,1e-5 2.17186,-0.14843 2.95312,-0.44532 0.79686,-0.31248 1.43749,-0.76561 1.92188,-1.35937 0.48436,-0.60936 0.82811,-1.35936 1.03125,-2.25 0.2031,-0.90623 0.30467,-1.96092 0.30469,-3.16406 m -8.15625,9.79687 0,9.98438 5.22656,0.63281 0,1.71094 -16.35938,0 0,-1.71094 3.72657,-0.63281 0,-26.76563 -4.03125,-0.60937 0,-1.71094 13.85156,0 c 2.62498,3e-5 4.78904,0.24222 6.49219,0.72656 1.71872,0.46878 3.0781,1.12503 4.07812,1.96875 1.0156,0.82815 1.71873,1.80471 2.10938,2.92969 0.40622,1.12502 0.60934,2.33596 0.60937,3.63281 -3e-5,1.28127 -0.1719,2.51564 -0.51562,3.70313 -0.32815,1.18751 -0.92972,2.23439 -1.80469,3.14062 -0.8594,0.90626 -2.03127,1.63283 -3.51563,2.17969 -1.48439,0.54689 -3.3672,0.82032 -5.64843,0.82031 l -4.21875,0"
         style="font-size:48px;font-variant:normal;font-weight:bold;font-stretch:normal;text-align:center;writing-mode:lr-tb;text-anchor:middle;fill:url(#linearGradient3796);fill-opacity:1;stroke:url(#linearGradient3798);font-family:Liberation Serif;-inkscape-font-specification:Liberation Serif"
         id="path3774"
         inkscape:connector-curvature="0" />
      <path
         d="m 616.30469,868.16869 c -3e-5,-2.45311 -0.2344,-4.5156 -0.70313,-6.1875 -0.45315,-1.68748 -1.12502,-3.04685 -2.01562,-4.07812 -0.89065,-1.03123 -1.99221,-1.7656 -3.30469,-2.20313 -1.31252,-0.4531 -2.82814,-0.67966 -4.54688,-0.67969 l -1.73437,0 0,26.17969 c 0.37499,0.0312 0.71092,0.0547 1.00781,0.0703 0.31249,0.0156 0.61718,0.0391 0.91406,0.0703 0.31249,0.0156 0.6328,0.0312 0.96094,0.0469 0.34374,0 0.74217,0 1.19531,0 1.56249,0 2.86717,-0.25 3.91407,-0.75 1.04685,-0.51562 1.8906,-1.3125 2.53125,-2.39062 0.6406,-1.07812 1.09372,-2.44531 1.35937,-4.10157 0.28123,-1.67186 0.42185,-3.66405 0.42188,-5.97656 m -8.76563,-15.72656 c 2.53123,3e-5 4.81248,0.27347 6.84375,0.82031 2.04685,0.53128 3.78904,1.40628 5.22656,2.625 1.43748,1.21878 2.53904,2.82034 3.30469,4.80469 0.78122,1.96877 1.17185,4.39845 1.17188,7.28906 -3e-5,2.56251 -0.29691,4.83595 -0.89063,6.82031 -0.59378,1.98438 -1.52346,3.65626 -2.78906,5.01563 -1.26565,1.35938 -2.88284,2.39062 -4.85156,3.09375 -1.95315,0.70312 -4.2969,1.05469 -7.03125,1.05469 -0.89064,0 -1.82814,-0.008 -2.8125,-0.0234 -0.98439,0 -1.94533,-0.008 -2.88282,-0.0234 -0.93751,-0.0156 -1.82813,-0.0312 -2.67187,-0.0469 -0.82813,0 -1.54688,0 -2.15625,0 l -5.39063,0 0,-1.71094 4.03125,-0.63281 0,-26.76563 -4.03125,-0.60937 0,-1.71094 14.92969,0"
         style="font-size:48px;font-variant:normal;font-weight:bold;font-stretch:normal;text-align:center;writing-mode:lr-tb;text-anchor:middle;fill:url(#linearGradient3800);fill-opacity:1;stroke:url(#linearGradient3802);font-family:Liberation Serif;-inkscape-font-specification:Liberation Serif"
         id="path3776"
         inkscape:connector-curvature="0" />
      <path
         d="m 638.6875,870.46557 0,11.0625 5.22656,0.63281 0,1.71094 -16.33594,0 0,-1.71094 3.72657,-0.63281 0,-26.76563 -4.03125,-0.60937 0,-1.71094 26.20312,0 0,8.46094 -2.20312,0 -0.75,-5.55469 c -0.32815,-0.0469 -0.75003,-0.0859 -1.26563,-0.11719 -0.50002,-0.0312 -1.04689,-0.0625 -1.64062,-0.0937 -0.57815,-0.0312 -1.17971,-0.0468 -1.80469,-0.0469 -0.60939,-0.0156 -1.19533,-0.0312 -1.75781,-0.0469 -0.54689,-0.0156 -1.04689,-0.0234 -1.5,-0.0234 -0.45314,3e-5 -0.79689,3e-5 -1.03125,0 l -2.83594,0 0,12.86719 7.66406,0 0.72656,-3.98437 2.08594,0 0,10.59375 -2.08594,0 -0.72656,-4.03125 -7.66406,0"
         style="font-size:48px;font-variant:normal;font-weight:bold;font-stretch:normal;text-align:center;writing-mode:lr-tb;text-anchor:middle;fill:url(#linearGradient3804);fill-opacity:1;stroke:url(#linearGradient3806);font-family:Liberation Serif;-inkscape-font-specification:Liberation Serif"
         id="path3778"
         inkscape:connector-curvature="0" />
    </g>
    <path
       style="fill:#ffffff;fill-opacity:1;stroke:#110b02;stroke-width:4;stroke-linecap:round;stroke-linejoin:round;stroke-miterlimit:4;stroke-opacity:1;stroke-dasharray:none"
       d="m 194.75478,917.34253 288.57144,0.84014 -0.16836,-57.14286 71.42857,0 -220,-117.14286 -228.57142,117.14286 88.57142,0 z"
       id="path2992"
       inkscape:connector-curvature="0"
       sodipodi:nodetypes="cccccccc" />
  </g>
</svg>
