<?xml version="1.0" encoding="UTF-8" standalone="no"?>
<!-- Created with Inkscape (http://www.inkscape.org/) -->

<svg
   xmlns:dc="http://purl.org/dc/elements/1.1/"
   xmlns:cc="http://creativecommons.org/ns#"
   xmlns:rdf="http://www.w3.org/1999/02/22-rdf-syntax-ns#"
   xmlns:svg="http://www.w3.org/2000/svg"
   xmlns="http://www.w3.org/2000/svg"
   xmlns:sodipodi="http://sodipodi.sourceforge.net/DTD/sodipodi-0.dtd"
   xmlns:inkscape="http://www.inkscape.org/namespaces/inkscape"
   width="651.9881"
   height="652.41193"
   id="svg3797"
   version="1.1"
   inkscape:version="0.48.4 r9939"
   sodipodi:docname="superscript.svg">
  <defs
     id="defs3799" />
  <sodipodi:namedview
     id="base"
     pagecolor="#ffffff"
     bordercolor="#666666"
     borderopacity="1.0"
     inkscape:pageopacity="0.0"
     inkscape:pageshadow="2"
     inkscape:zoom="0.35"
     inkscape:cx="-630.78652"
     inkscape:cy="374.77394"
     inkscape:document-units="px"
     inkscape:current-layer="layer1"
     showgrid="false"
     inkscape:window-width="1440"
     inkscape:window-height="824"
     inkscape:window-x="0"
     inkscape:window-y="24"
     inkscape:window-maximized="1"
     fit-margin-top="30"
     fit-margin-left="5"
     fit-margin-right="5"
     fit-margin-bottom="30" />
  <metadata
     id="metadata3802">
    <rdf:RDF>
      <cc:Work
         rdf:about="">
        <dc:format>image/svg+xml</dc:format>
        <dc:type
           rdf:resource="http://purl.org/dc/dcmitype/StillImage" />
        <dc:title />
      </cc:Work>
    </rdf:RDF>
  </metadata>
  <g
     inkscape:label="Layer 1"
     inkscape:groupmode="layer"
     id="layer1"
     transform="translate(-20.072239,-254.72419)">
    <g
       transform="matrix(4.8866729,0,0,5.5236544,-2598.9184,-4541.051)"
       style="font-size:12px;font-style:normal;font-variant:normal;font-weight:normal;font-stretch:normal;text-align:start;line-height:125%;letter-spacing:0px;word-spacing:0px;writing-mode:lr-tb;text-anchor:start;fill:#110b02;fill-opacity:1;stroke:#110b02;stroke-width:0.38495514;stroke-miterlimit:4;stroke-opacity:1;font-family:Sans;-inkscape-font-specification:Sans"
       id="flowRoot3944">
      <path
         d="m 567.26562,960.82094 46.19532,0 0,19.89844 -76.28907,0 0,-19.89844 38.32032,-33.82031 c 3.42182,-3.09369 5.95307,-6.11713 7.59375,-9.07031 1.64056,-2.95306 2.46088,-6.02337 2.46093,-9.21094 -5e-5,-4.9218 -1.66412,-8.88273 -4.99218,-11.88281 -3.2813,-2.99992 -7.66411,-4.49991 -13.14844,-4.5 -4.21879,9e-5 -8.83597,0.91415 -13.85156,2.74218 -5.01565,1.78134 -10.38283,4.45321 -16.10157,8.01563 l 0,-23.0625 c 6.09374,-2.01552 12.11717,-3.53896 18.07032,-4.57031 5.95309,-1.07802 11.78902,-1.61708 17.50781,-1.61719 12.56244,1.1e-4 22.31243,2.76573 29.25,8.29687 6.98429,5.53135 10.47648,13.24228 10.47656,23.13282 -8e-5,5.71882 -1.47665,11.06256 -4.42969,16.03125 -2.9532,4.92193 -9.16413,11.53129 -18.63281,19.82812 l -22.42969,19.6875"
         style="font-size:144px;font-weight:bold;fill:#110b02;stroke:#110b02;font-family:Sans;-inkscape-font-specification:Sans Bold"
         id="path3764"
         inkscape:connector-curvature="0" />
    </g>
    <g
       transform="matrix(4.9607869,0,0,6.3482339,-2819.9078,-4968.2632)"
       style="font-size:12px;font-style:normal;font-variant:normal;font-weight:normal;font-stretch:normal;text-align:start;line-height:125%;letter-spacing:0px;word-spacing:0px;writing-mode:lr-tb;text-anchor:start;fill:#e3dd00;fill-opacity:1;stroke:#110b02;stroke-width:1.06917679;stroke-miterlimit:4;stroke-opacity:1;font-family:Sans;-inkscape-font-specification:Sans"
       id="flowRoot3952">
      <path
         d="m 660.20725,841.67689 -9.168,0 0,1.152 c 2.112,0.336 2.544,0.816 2.544,2.832 l 0,14.112 c 0,2.01599 -0.384,2.448 -2.544,2.88 l 0,1.152 11.568,0 0,-1.152 c -1.776,-0.24 -2.352,-0.96001 -2.352,-2.736 l 0,-12.816 c 0,-0.192 0.336,-0.672 0.816,-1.104 1.056,-1.104 2.208,-1.68 3.312,-1.68 1.68,0 2.496,1.296 2.496,3.984 l 0,11.616 c 0,1.77599 -0.624,2.544 -2.256,2.736 l 0,1.152 11.28,0 0,-1.152 c -1.872,-0.144 -2.352,-0.72001 -2.352,-2.736 l 0,-12.048 c 0,-4.128 -2.544,-6.768 -6.48,-6.768 -2.88,0 -5.088,1.344 -6.864,4.176 l 0,-3.6"
         style="font-size:48px;font-weight:bold;fill:#e3dd00;stroke:#110b02;font-family:Nimbus Roman No9 L;-inkscape-font-specification:Nimbus Roman No9 L Bold"
         id="path3759"
         inkscape:connector-curvature="0" />
      <path
         d="m 693.022,864.42889 c 2.208,-0.624 3.408,-0.864 6.384,-1.2 l 2.976,-0.384 0,-1.104 c -2.208,-0.144 -2.832,-0.76801 -2.832,-2.784 l 0,-27.6 -10.32,0 0,1.152 c 3.216,0.24 3.648,0.576 3.648,2.784 l 0,8.784 c -2.064,-2.208 -3.504,-2.976 -5.712,-2.976 -5.27999,0 -9.216,5.136 -9.216,12.096 0,6.52799 3.64801,11.28 8.688,11.28 2.544,0 4.128,-0.76801 6.384,-3.168 l 0,3.12 m -0.144,-6 c 0,0.288 -0.48,1.104 -1.056,1.728 -0.96,1.10399 -1.968,1.632 -3.024,1.632 -2.544,0 -3.744,-2.88001 -3.744,-8.976 0,-6.192 1.296,-9.024 4.08,-9.024 1.584,0 3.072,1.152 3.744,2.976 l 0,11.664"
         style="font-size:48px;font-weight:bold;fill:#e3dd00;stroke:#110b02;font-family:Nimbus Roman No9 L;-inkscape-font-specification:Nimbus Roman No9 L Bold"
         id="path3761"
         inkscape:connector-curvature="0" />
    </g>
  </g>
</svg>
