<?xml version="1.0" encoding="UTF-8" standalone="no"?>
<!-- Created with Inkscape (http://www.inkscape.org/) -->

<svg
   xmlns:dc="http://purl.org/dc/elements/1.1/"
   xmlns:cc="http://creativecommons.org/ns#"
   xmlns:rdf="http://www.w3.org/1999/02/22-rdf-syntax-ns#"
   xmlns:svg="http://www.w3.org/2000/svg"
   xmlns="http://www.w3.org/2000/svg"
   xmlns:sodipodi="http://sodipodi.sourceforge.net/DTD/sodipodi-0.dtd"
   xmlns:inkscape="http://www.inkscape.org/namespaces/inkscape"
   width="744.09448819"
   height="1052.3622047"
   id="svg3321"
   version="1.1"
   inkscape:version="0.48.4 r9939"
   sodipodi:docname="reconcile.svg">
  <defs
     id="defs3323" />
  <sodipodi:namedview
     id="base"
     pagecolor="#ffffff"
     bordercolor="#666666"
     borderopacity="1.0"
     inkscape:pageopacity="0.0"
     inkscape:pageshadow="2"
     inkscape:zoom="0.89557631"
     inkscape:cx="176.58194"
     inkscape:cy="398.12877"
     inkscape:document-units="px"
     inkscape:current-layer="layer1"
     showgrid="false"
     inkscape:window-width="1440"
     inkscape:window-height="851"
     inkscape:window-x="0"
     inkscape:window-y="25"
     inkscape:window-maximized="1" />
  <metadata
     id="metadata3326">
    <rdf:RDF>
      <cc:Work
         rdf:about="">
        <dc:format>image/svg+xml</dc:format>
        <dc:type
           rdf:resource="http://purl.org/dc/dcmitype/StillImage" />
        <dc:title />
      </cc:Work>
    </rdf:RDF>
  </metadata>
  <g
     inkscape:label="Layer 1"
     inkscape:groupmode="layer"
     id="layer1">
    <path
       style="fill:none;stroke:#110b02;stroke-width:2;stroke-linecap:butt;stroke-linejoin:miter;stroke-miterlimit:4;stroke-opacity:1;stroke-dasharray:none"
       d="m 643.33052,916.51791 78.07826,-81.34298 -2.49059,-206.74994 c 0,0 -20.35475,-19.96681 -32.38256,-27.4006 -21.5167,-13.29791 -44.48189,-31.10259 -69.74729,-29.89153 -61.3074,2.9387 -141.98466,0 -141.98466,0 0,0 -44.9006,-50.79387 -54.8013,-82.2018 -10.98619,-34.85297 -2.49108,-109.60239 -2.49108,-109.60239 0,0 34.30401,-28.32015 44.83747,-47.32831 11.22589,-20.2574 23.52199,-44.90982 17.43657,-67.25601 -6.78722,-24.92589 -54.8008,-54.80115 -54.8008,-54.80115 l -113.63997,0.51552 c 0,0 -45.91976,21.1432 -53.2545,46.81279 -7.50385,26.26144 8.36626,52.33282 21.81741,76.10323 9.00556,15.91456 40.45664,46.81279 40.45664,46.81279 0,0 9.96177,74.19334 -0.85922,108.22802 -10.96893,34.5006 -61.41483,82.71731 -61.41483,82.71731 0,0 -82.60115,0.30237 -124.54858,0 -18.6586,-0.1345 -36.295415,10.35154 -52.310218,19.92771 -22.637027,13.53598 -50.826142,27.83253 -59.782965,52.31021 -3.687447,10.07725 14.6749,-20.97032 24.136172,-21.30208 171.866281,-6.02663 576.186021,-3.60758 576.186021,-3.60758 0,0 22.04844,2.20574 28.25962,9.10506 4.74641,5.27245 4.12294,23.2775 4.12294,23.2775 l 2.49108,246.60535 z"
       id="path3947"
       inkscape:connector-curvature="0"
       sodipodi:nodetypes="cccsscscssccsscscsssscsccc" />
    <rect
       style="fill:none;stroke:#110b02;stroke-width:2;stroke-linejoin:round;stroke-miterlimit:4;stroke-opacity:1;stroke-dasharray:none"
       id="rect3949"
       width="580.39441"
       height="261.55112"
       x="43.867195"
       y="650.84351" />
    <flowRoot
       xml:space="preserve"
       id="flowRoot3951"
       style="font-size:28px;font-style:normal;font-variant:normal;font-weight:bold;font-stretch:normal;text-align:center;line-height:100%;letter-spacing:0px;word-spacing:0px;writing-mode:lr-tb;text-anchor:middle;fill:none;stroke:#110b02;stroke-width:0.41483772;stroke-miterlimit:4;stroke-opacity:1;stroke-dasharray:none;font-family:Nimbus Roman No9 L;-inkscape-font-specification:Nimbus Roman No9 L Bold"
       transform="matrix(4.7129538,0,0,4.9318554,-1452.6221,-3831.821)"><flowRegion
         id="flowRegion3953"><rect
           id="rect3955"
           width="140.91626"
           height="56.06348"
           x="307.59146"
           y="922.05249"
           style="font-size:28px;font-style:normal;font-variant:normal;font-weight:bold;font-stretch:normal;text-align:center;line-height:100%;writing-mode:lr-tb;text-anchor:middle;fill:none;stroke:#110b02;stroke-width:0.41483772;stroke-miterlimit:4;stroke-opacity:1;stroke-dasharray:none;font-family:Nimbus Roman No9 L;-inkscape-font-specification:Nimbus Roman No9 L Bold" /></flowRegion><flowPara
         id="flowPara3957"
         style="font-size:28px;font-style:normal;font-variant:normal;font-weight:bold;font-stretch:normal;text-align:center;line-height:100%;writing-mode:lr-tb;text-anchor:middle;fill:none;stroke:#110b02;stroke-width:0.41483772;stroke-miterlimit:4;stroke-opacity:1;stroke-dasharray:none;font-family:Nimbus Roman No9 L;-inkscape-font-specification:Nimbus Roman No9 L Bold">Reconcile</flowPara></flowRoot>    <rect
       style="fill:none;stroke:#110b02;stroke-width:1.9945401;stroke-miterlimit:4;stroke-opacity:1;stroke-dasharray:none"
       id="rect3756"
       width="635.35052"
       height="298.13751"
       x="21.21266"
       y="620.23547"
       ry="26.698881" />
  </g>
</svg>
