<?xml version="1.0" encoding="UTF-8" standalone="no"?>
<!-- Created with Inkscape (http://www.inkscape.org/) -->

<svg
   xmlns:dc="http://purl.org/dc/elements/1.1/"
   xmlns:cc="http://creativecommons.org/ns#"
   xmlns:rdf="http://www.w3.org/1999/02/22-rdf-syntax-ns#"
   xmlns:svg="http://www.w3.org/2000/svg"
   xmlns="http://www.w3.org/2000/svg"
   xmlns:sodipodi="http://sodipodi.sourceforge.net/DTD/sodipodi-0.dtd"
   xmlns:inkscape="http://www.inkscape.org/namespaces/inkscape"
   width="744.09448819"
   height="1052.3622047"
   id="svg3544"
   version="1.1"
   inkscape:version="0.48.4 r9939"
   sodipodi:docname="add_image.svg">
  <defs
     id="defs3546" />
  <sodipodi:namedview
     id="base"
     pagecolor="#ffffff"
     bordercolor="#666666"
     borderopacity="1.0"
     inkscape:pageopacity="0.0"
     inkscape:pageshadow="2"
     inkscape:zoom="0.35"
     inkscape:cx="-117.85714"
     inkscape:cy="520"
     inkscape:document-units="px"
     inkscape:current-layer="layer1"
     showgrid="false"
     inkscape:window-width="1440"
     inkscape:window-height="851"
     inkscape:window-x="0"
     inkscape:window-y="25"
     inkscape:window-maximized="1" />
  <metadata
     id="metadata3549">
    <rdf:RDF>
      <cc:Work
         rdf:about="">
        <dc:format>image/svg+xml</dc:format>
        <dc:type
           rdf:resource="http://purl.org/dc/dcmitype/StillImage" />
        <dc:title />
      </cc:Work>
    </rdf:RDF>
  </metadata>
  <g
     inkscape:label="Layer 1"
     inkscape:groupmode="layer"
     id="layer1">
    <rect
       style="fill:none;stroke:#110b02;stroke-width:2;stroke-linecap:round;stroke-linejoin:round;stroke-miterlimit:4;stroke-opacity:1;stroke-dasharray:none"
       id="rect4044"
       width="560.17859"
       height="513.64069"
       x="71.0103"
       y="361.0314" />
    <path
       style="fill:none;stroke:#110b02;stroke-width:2;stroke-linecap:butt;stroke-linejoin:miter;stroke-miterlimit:4;stroke-opacity:1;stroke-dasharray:none"
       d="m 26.195948,878.11939 c -2.26133,9.77583 -0.114664,22.12165 6.894488,29.30167 9.539737,9.77237 26.081015,8.73954 39.643429,10.34176 28.534405,3.37098 57.720005,2.21724 86.181315,-1.72364 13.52764,-1.87311 26.0086,-9.56864 39.64339,-10.34176 28.39278,-1.60997 56.01964,12.20017 84.45771,12.0654 34.28973,-0.16244 67.42563,-16.7346 101.69396,-15.51265 31.20167,1.11258 60.1332,20.28914 91.3522,20.68354 35.1524,0.44408 68.30727,-22.45994 103.4176,-20.68354 15.60926,0.78975 29.18584,13.63118 44.81428,13.78901 16.73006,0.16893 37.26474,-1.17973 48.26156,-13.78901 8.01078,-9.1854 7.66631,-24.26646 5.17088,-36.19615 -2.90539,-13.88951 -20.22116,-22.17539 -22.40714,-36.19615 -3.64924,-23.40621 17.90704,-45.26556 17.23626,-68.94505 -0.76672,-27.0659 -23.81508,-50.48832 -24.13078,-77.56322 -0.34137,-29.27713 24.13078,-55.17857 24.13078,-84.45767 0,-25.09638 -22.02377,-47.33176 -20.68354,-72.39234 1.22499,-22.90582 25.85442,-40.83562 25.85442,-63.77417 0,-22.93855 -28.71278,-41.01441 -25.85442,-63.77417 1.68969,-13.454 22.1025,-19.34177 24.13078,-32.74891 2.09278,-13.83361 -4.05762,-29.59112 -13.78901,-39.6434 -11.13213,-11.49922 -28.89686,-18.90737 -44.81428,-17.23629 -13.63009,1.43094 -20.92296,20.34921 -34.47255,22.40718 -23.01738,3.49597 -43.95754,-18.05781 -67.22141,-18.9599 -32.20142,-1.24867 -62.57734,19.43367 -94.79948,18.9599 -38.32258,-0.56346 -73.75905,-27.81302 -112.03569,-25.85442 -24.85917,1.27205 -45.84919,22.23661 -70.6687,24.13078 -32.58855,2.48711 -63.99121,-20.3792 -96.52308,-17.23626 -19.01016,1.8366 -34.33631,20.37166 -53.432439,20.6835 -12.172698,0.19862 -22.603329,-14.77395 -34.472511,-12.06537 -10.298085,2.35006 -18.881985,12.44991 -22.407139,22.40714 -3.663262,10.3473 1.969757,21.87218 3.447245,32.74891 1.881642,13.852 7.268544,27.39282 6.894488,41.36703 -0.708662,26.47561 -18.600718,51.11327 -17.236255,77.56318 1.029617,19.95894 17.718047,36.93283 18.959894,56.87969 1.820387,29.23941 -17.127768,56.88548 -17.236255,86.18131 -0.112616,30.42342 18.623753,59.23663 17.236255,89.62859 -1.227344,26.88363 -23.592235,50.67765 -22.407139,77.56318 0.841037,19.08013 23.692293,34.57223 20.6835,53.43241 -1.286416,8.06382 -13.672334,11.00419 -15.512616,18.95989 z"
       id="path4046"
       inkscape:connector-curvature="0"
       sodipodi:nodetypes="ssssssssssssssssssssssssssssssssssssssss" />
    <rect
       style="fill:none;stroke:#110b02;stroke-width:2;stroke-linecap:round;stroke-linejoin:round;stroke-miterlimit:4;stroke-opacity:1;stroke-dasharray:none"
       id="rect4048"
       width="529.15332"
       height="479.16818"
       x="88.246521"
       y="379.99133" />
    <flowRoot
       transform="matrix(3.4126063,0,0,3.4126063,-908.0096,-1572.1377)"
       xml:space="preserve"
       id="flowRoot4050"
       style="font-size:12px;font-style:normal;font-variant:normal;font-weight:normal;font-stretch:normal;text-align:start;line-height:125%;letter-spacing:0px;word-spacing:0px;writing-mode:lr-tb;text-anchor:start;fill:#000000;fill-opacity:1;stroke:none;font-family:Sans;-inkscape-font-specification:Sans"><flowRegion
         id="flowRegion4052"><rect
           id="rect4054"
           width="185.36299"
           height="17.172594"
           x="281.83255"
           y="522.53717" /></flowRegion><flowPara
         id="flowPara4056">alpha in middle for image bmp</flowPara></flowRoot>  </g>
</svg>
