<?xml version="1.0" encoding="UTF-8" standalone="no"?>
<!-- Created with Inkscape (http://www.inkscape.org/) -->

<svg
   xmlns:dc="http://purl.org/dc/elements/1.1/"
   xmlns:cc="http://creativecommons.org/ns#"
   xmlns:rdf="http://www.w3.org/1999/02/22-rdf-syntax-ns#"
   xmlns:svg="http://www.w3.org/2000/svg"
   xmlns="http://www.w3.org/2000/svg"
   xmlns:sodipodi="http://sodipodi.sourceforge.net/DTD/sodipodi-0.dtd"
   xmlns:inkscape="http://www.inkscape.org/namespaces/inkscape"
   width="719.81323"
   height="717.47638"
   id="svg3271"
   version="1.1"
   inkscape:version="0.48.4 r9939"
   sodipodi:docname="cut.svg">
  <defs
     id="defs3273" />
  <sodipodi:namedview
     id="base"
     pagecolor="#ffffff"
     bordercolor="#666666"
     borderopacity="1.0"
     inkscape:pageopacity="0.0"
     inkscape:pageshadow="2"
     inkscape:zoom="0.59105127"
     inkscape:cx="361.36045"
     inkscape:cy="354.35016"
     inkscape:document-units="px"
     inkscape:current-layer="layer1"
     showgrid="false"
     inkscape:window-width="1440"
     inkscape:window-height="824"
     inkscape:window-x="0"
     inkscape:window-y="24"
     inkscape:window-maximized="1"
     fit-margin-top="25"
     fit-margin-left="5"
     fit-margin-right="5"
     fit-margin-bottom="25" />
  <metadata
     id="metadata3276">
    <rdf:RDF>
      <cc:Work
         rdf:about="">
        <dc:format>image/svg+xml</dc:format>
        <dc:type
           rdf:resource="http://purl.org/dc/dcmitype/StillImage" />
        <dc:title />
      </cc:Work>
    </rdf:RDF>
  </metadata>
  <g
     inkscape:label="Layer 1"
     inkscape:groupmode="layer"
     id="layer1"
     transform="translate(-10.686791,-163.05489)">
    <path
       style="fill:#110b02;fill-opacity:1;stroke:#110b02;stroke-width:2;stroke-linecap:butt;stroke-linejoin:miter;stroke-miterlimit:4;stroke-opacity:1;stroke-dasharray:none"
       d="m 174.03889,496.93685 c 7.08469,-5.14338 19.29922,-17.81468 19.29922,-17.81468 l 29.69113,4.45368 c 0,0 22.53562,7.01442 34.1448,8.90732 21.5396,3.51207 65.32051,4.45368 65.32051,4.45368 0,0 25.06306,9.89459 34.1448,19.29926 9.68616,10.03056 15.98794,23.56883 19.29918,37.11389 1.05762,4.32628 0,13.361 0,13.361 0,0 81.7903,128.76483 130.64099,187.05413 12.58648,15.01836 41.56761,41.56761 41.56761,41.56761 0,0 30.08861,27.43406 46.02125,40.08303 8.60532,6.83182 26.72203,19.29922 26.72203,19.29922 L 491.73397,611.2477 l -92.04254,-62.35138 313.24148,207.83794 10.3919,2.96913 c 0,0 -29.28455,-48.37688 -48.99038,-68.28963 -19.42405,-19.62802 -66.80506,-48.99035 -66.80506,-48.99035 l -105.4035,-86.10428 c 0,0 -55.92337,-50.14692 -80.16608,-78.6815 -17.2452,-20.29821 -46.02126,-65.32051 -46.02126,-65.32051 0,0 -22.11212,-13.35035 -32.66018,-20.78377 -4.61202,-3.25019 -13.36103,-10.3919 -13.36103,-10.3919 0,0 6.48455,-35.95164 2.96913,-53.44406 -3.79377,-18.87733 -15.00599,-35.64804 -25.23748,-51.95948 -12.73078,-20.29589 -26.35255,-40.81403 -44.53671,-56.41315 -12.95107,-11.10994 -28.16049,-20.44362 -44.53667,-25.23745 -17.59777,-5.15142 -36.97563,-6.69859 -54.9286,-2.96913 -10.83395,2.2506 -21.7764,7.11277 -29.69113,14.84558 -6.80852,6.65201 -13.25035,15.71942 -13.36103,25.23745 -0.19292,16.59675 13.21788,30.62351 22.26835,44.5367 13.99236,21.51031 31.09397,40.99213 48.99038,59.38228 17.85644,18.34904 37.70896,34.72833 57.89771,50.47493 10.93251,8.52701 22.17685,16.75303 34.1448,23.7529 14.71046,8.60397 46.02125,22.26835 46.02125,22.26835 0,0 -44.02278,25.00376 -68.28961,25.23745 -24.09976,0.23222 -68.2896,-23.7529 -68.2896,-23.7529 l -19.29922,-19.29922 -13.36103,-29.69116 -43.05212,5.93822 c 0,0 -19.092619,-17.46219 -31.175711,-19.29922 -15.663005,-2.38128 -33.876209,1.70302 -46.021252,11.87645 -14.598709,12.22875 -23.556474,12.13293 -23.752899,51.95948 -0.09825,19.94787 10.277149,40.22039 23.752899,54.92861 14.060167,15.34607 34.663124,24.94766 54.928607,29.69112 13.499826,3.15984 28.216686,2.25492 41.567576,-1.48455 13.6536,-3.82424 25.6398,-12.45375 37.11393,-20.7838 z"
       id="path4958"
       inkscape:connector-curvature="0"
       sodipodi:nodetypes="sccscsscscscccccsccscscssssssssssscsccccsssssss" />
    <path
       sodipodi:type="arc"
       style="fill:#ffffff;fill-opacity:1;stroke:#110b02;stroke-width:1.8811599;stroke-miterlimit:4;stroke-opacity:1;stroke-dasharray:none"
       id="path2983"
       sodipodi:cx="170.97812"
       sodipodi:cy="322.82059"
       sodipodi:rx="87.062477"
       sodipodi:ry="48.775967"
       d="m 258.0406,322.82059 c 0,26.93822 -38.9792,48.77596 -87.06248,48.77596 -48.08328,0 -87.062478,-21.83774 -87.062478,-48.77596 0,-26.93823 38.979198,-48.77597 87.062478,-48.77597 48.08328,0 87.06248,21.83774 87.06248,48.77597 z"
       transform="matrix(0.77873297,0.82131382,-0.72472769,0.68715434,330.52979,-80.342545)" />
    <path
       sodipodi:type="arc"
       style="fill:#ffffff;fill-opacity:1;stroke:#110b02;stroke-width:2.03109121;stroke-miterlimit:4;stroke-opacity:1;stroke-dasharray:none"
       id="path2985"
       sodipodi:cx="104.37008"
       sodipodi:cy="457.0856"
       sodipodi:rx="60.314365"
       sodipodi:ry="50.873856"
       d="m 164.68444,457.0856 c 0,28.09686 -27.00366,50.87386 -60.31436,50.87386 -33.310705,0 -60.314366,-22.777 -60.314366,-50.87386 0,-28.09685 27.003661,-50.87385 60.314366,-50.87385 33.3107,0 60.31436,22.777 60.31436,50.87385 z"
       transform="matrix(0.86612659,0.50033228,-0.48488557,0.83938675,226.16608,11.229303)" />
    <path
       style="fill:#575757;fill-opacity:1;stroke:none"
       d="m 618.87785,852.01359 c 0,0 -122.63853,-125.91434 -169.92918,-199.29964 -20.50415,-31.8182 -48.25149,-102.79667 -48.25149,-102.79667 l 91.25826,60.83884 z"
       id="path2986"
       inkscape:connector-curvature="0"
       sodipodi:nodetypes="csccc" />
  </g>
</svg>
