<?xml version="1.0" encoding="UTF-8" standalone="no"?>
<!-- Created with Inkscape (http://www.inkscape.org/) -->

<svg
   xmlns:dc="http://purl.org/dc/elements/1.1/"
   xmlns:cc="http://creativecommons.org/ns#"
   xmlns:rdf="http://www.w3.org/1999/02/22-rdf-syntax-ns#"
   xmlns:svg="http://www.w3.org/2000/svg"
   xmlns="http://www.w3.org/2000/svg"
   xmlns:xlink="http://www.w3.org/1999/xlink"
   xmlns:sodipodi="http://sodipodi.sourceforge.net/DTD/sodipodi-0.dtd"
   xmlns:inkscape="http://www.inkscape.org/namespaces/inkscape"
   width="791.34375"
   height="791.72113"
   id="svg3196"
   version="1.1"
   inkscape:version="0.48.4 r9939"
   sodipodi:docname="print_view.svg">
  <defs
     id="defs3198">
    <linearGradient
       id="linearGradient3782">
      <stop
         style="stop-color:#110b02;stop-opacity:1;"
         offset="0"
         id="stop3784" />
      <stop
         style="stop-color:#3b3b3b;stop-opacity:1;"
         offset="1"
         id="stop3786" />
    </linearGradient>
    <linearGradient
       id="linearGradient3774">
      <stop
         style="stop-color:#e3f700;stop-opacity:1;"
         offset="0"
         id="stop3776" />
      <stop
         style="stop-color:#e3dd00;stop-opacity:1;"
         offset="1"
         id="stop3778" />
    </linearGradient>
    <linearGradient
       id="linearGradient3766">
      <stop
         style="stop-color:#ffffff;stop-opacity:1;"
         offset="0"
         id="stop3768" />
      <stop
         style="stop-color:#6193cf;stop-opacity:0.94117647;"
         offset="1"
         id="stop3770" />
    </linearGradient>
    <linearGradient
       inkscape:collect="always"
       xlink:href="#linearGradient3766"
       id="linearGradient3772"
       x1="298.82089"
       y1="140.76723"
       x2="440.56778"
       y2="187.51381"
       gradientUnits="userSpaceOnUse" />
    <linearGradient
       inkscape:collect="always"
       xlink:href="#linearGradient3774"
       id="linearGradient3780"
       x1="348.6673"
       y1="412.73044"
       x2="657.12738"
       y2="412.73044"
       gradientUnits="userSpaceOnUse" />
    <linearGradient
       inkscape:collect="always"
       xlink:href="#linearGradient3782"
       id="linearGradient3788"
       x1="473.66086"
       y1="777.97467"
       x2="556.74481"
       y2="698.80011"
       gradientUnits="userSpaceOnUse" />
    <linearGradient
       inkscape:collect="always"
       xlink:href="#linearGradient3782"
       id="linearGradient3796"
       x1="473.66086"
       y1="777.97467"
       x2="556.74481"
       y2="698.80011"
       gradientUnits="userSpaceOnUse" />
  </defs>
  <sodipodi:namedview
     id="base"
     pagecolor="#ffffff"
     bordercolor="#666666"
     borderopacity="1.0"
     inkscape:pageopacity="0.0"
     inkscape:pageshadow="2"
     inkscape:zoom="0.60625516"
     inkscape:cx="131.7636"
     inkscape:cy="388.97516"
     inkscape:document-units="px"
     inkscape:current-layer="layer1"
     showgrid="false"
     inkscape:window-width="1440"
     inkscape:window-height="824"
     inkscape:window-x="0"
     inkscape:window-y="24"
     inkscape:window-maximized="1"
     fit-margin-top="5"
     fit-margin-left="55"
     fit-margin-right="55"
     fit-margin-bottom="5" />
  <metadata
     id="metadata3201">
    <rdf:RDF>
      <cc:Work
         rdf:about="">
        <dc:format>image/svg+xml</dc:format>
        <dc:type
           rdf:resource="http://purl.org/dc/dcmitype/StillImage" />
        <dc:title />
      </cc:Work>
    </rdf:RDF>
  </metadata>
  <g
     inkscape:label="Layer 1"
     inkscape:groupmode="layer"
     id="layer1"
     transform="translate(44.250018,-123.43511)">
    <rect
       style="fill:#ffffff;fill-opacity:1;stroke:#110b02;stroke-width:5;stroke-linecap:round;stroke-linejoin:round;stroke-miterlimit:4;stroke-opacity:1;stroke-dasharray:none"
       id="rect4802"
       width="676.32593"
       height="776.71802"
       x="13.265596"
       y="130.92796" />
    <g
       transform="matrix(4.2385733,0,0,4.2385733,-1163.2597,48.919659)"
       style="font-size:12px;font-style:normal;font-variant:normal;font-weight:normal;font-stretch:normal;text-align:start;line-height:125%;letter-spacing:0px;word-spacing:0px;writing-mode:lr-tb;text-anchor:start;fill:#000000;fill-opacity:1;stroke:#110b02;stroke-width:0.47185689;stroke-miterlimit:4;stroke-opacity:1;font-family:Sans;-inkscape-font-specification:Sans"
       id="flowRoot4804">
      <path
         d="m 289.6582,143.25396 1.23633,0 0,1.48828 -1.23633,0 0,-1.48828"
         style=""
         id="path3799" />
      <path
         d="m 298.37695,140.56451 0,3.20507 1.89844,0 c 0.63671,0 1.10742,-0.13085 1.41211,-0.39257 0.30859,-0.26563 0.46288,-0.66992 0.46289,-1.2129 -1e-5,-0.54687 -0.1543,-0.94921 -0.46289,-1.20703 -0.30469,-0.26171 -0.7754,-0.39257 -1.41211,-0.39257 l -1.89844,0 m 0,-3.59766 0,2.63672 1.75196,0 c 0.57812,0 1.0078,-0.10742 1.28906,-0.32227 0.28515,-0.21874 0.42773,-0.55077 0.42773,-0.99609 0,-0.4414 -0.14258,-0.77148 -0.42773,-0.99024 -0.28126,-0.21874 -0.71094,-0.32811 -1.28906,-0.32812 l -1.75196,0 m -1.18359,-0.97266 3.02344,0 c 0.90234,1e-5 1.59765,0.18751 2.08593,0.5625 0.48828,0.37501 0.73242,0.90821 0.73243,1.59961 -1e-5,0.53516 -0.12501,0.96095 -0.375,1.27735 -0.25001,0.31641 -0.6172,0.51367 -1.10157,0.59179 0.58203,0.12501 1.0332,0.38673 1.35352,0.78516 0.32421,0.39453 0.48632,0.88867 0.48633,1.48242 -10e-6,0.78125 -0.26563,1.38477 -0.79688,1.81055 -0.53125,0.42578 -1.28711,0.63867 -2.26758,0.63867 l -3.14062,0 0,-8.74805"
         style=""
         id="path3801" />
      <path
         d="m 305.26172,142.1524 0,-3.97266 1.07812,0 0,3.93164 c 0,0.6211 0.1211,1.08789 0.36328,1.40039 0.24219,0.3086 0.60547,0.46289 1.08985,0.46289 0.58203,0 1.04101,-0.18554 1.37695,-0.55664 0.33984,-0.37109 0.50976,-0.87695 0.50977,-1.51758 l 0,-3.7207 1.07812,0 0,6.5625 -1.07812,0 0,-1.00781 c -0.26173,0.39844 -0.56641,0.69531 -0.91407,0.89062 -0.34375,0.19141 -0.74414,0.28711 -1.20117,0.28711 -0.75391,0 -1.32617,-0.23437 -1.71679,-0.70312 -0.39063,-0.46875 -0.58594,-1.1543 -0.58594,-2.05664 m 2.71289,-4.13086 0,0"
         style=""
         id="path3803" />
      <path
         d="m 312.99023,135.62505 1.07813,0 0,9.11719 -1.07813,0 0,-9.11719"
         style=""
         id="path3805" />
      <path
         d="m 316.31836,135.62505 1.07812,0 0,9.11719 -1.07812,0 0,-9.11719"
         style=""
         id="path3807" />
      <path
         d="m 325.25977,141.19146 0,0.52734 -4.95704,0 c 0.0469,0.74219 0.26953,1.3086 0.66797,1.69922 0.40234,0.38672 0.96094,0.58008 1.67578,0.58008 0.41406,0 0.81445,-0.0508 1.20118,-0.15234 0.39062,-0.10157 0.77733,-0.25391 1.16015,-0.45704 l 0,1.01954 c -0.38672,0.16406 -0.78321,0.28906 -1.18945,0.375 -0.40626,0.0859 -0.81836,0.1289 -1.23633,0.1289 -1.04688,0 -1.87695,-0.30469 -2.49023,-0.91406 -0.60938,-0.60937 -0.91407,-1.43359 -0.91407,-2.47266 0,-1.07421 0.28907,-1.92577 0.86719,-2.55468 0.58203,-0.63281 1.36523,-0.94922 2.34961,-0.94922 0.88281,0 1.58007,0.28516 2.0918,0.85547 0.51562,0.56641 0.77343,1.33789 0.77344,2.31445 m -1.07813,-0.31641 c -0.008,-0.58984 -0.17383,-1.06054 -0.49805,-1.41211 -0.32031,-0.35155 -0.74609,-0.52733 -1.27734,-0.52734 -0.60157,1e-5 -1.08399,0.16993 -1.44727,0.50976 -0.35937,0.33985 -0.5664,0.81837 -0.62109,1.43555 l 3.84375,-0.006"
         style=""
         id="path3809" />
      <path
         d="m 328.0957,136.31646 0,1.86328 2.22071,0 0,0.83789 -2.22071,0 0,3.5625 c 0,0.53516 0.0723,0.87891 0.2168,1.03125 0.14843,0.15235 0.44726,0.22852 0.89648,0.22852 l 1.10743,0 0,0.90234 -1.10743,0 c -0.83203,0 -1.40625,-0.1543 -1.72265,-0.46289 -0.31641,-0.3125 -0.47461,-0.87891 -0.47461,-1.69922 l 0,-3.5625 -0.79102,0 0,-0.83789 0.79102,0 0,-1.86328 1.08398,0"
         style=""
         id="path3811" />
      <path
         d="m 338.10352,138.9356 c -0.57813,1e-5 -1.03516,0.22657 -1.3711,0.67969 -0.33594,0.44922 -0.50391,1.06641 -0.5039,1.85156 -10e-6,0.78516 0.16601,1.4043 0.49804,1.85742 0.33594,0.44922 0.79492,0.67383 1.37696,0.67383 0.57421,0 1.02929,-0.22656 1.36523,-0.67969 0.33593,-0.45312 0.5039,-1.07031 0.50391,-1.85156 -1e-5,-0.77734 -0.16798,-1.39257 -0.50391,-1.8457 -0.33594,-0.45703 -0.79102,-0.68554 -1.36523,-0.68555 m 0,-0.91406 c 0.93749,0 1.67382,0.30469 2.20898,0.91406 0.53515,0.60938 0.80273,1.45313 0.80273,2.53125 0,1.07422 -0.26758,1.91797 -0.80273,2.53125 -0.53516,0.60937 -1.27149,0.91406 -2.20898,0.91406 -0.94141,0 -1.67969,-0.30469 -2.21485,-0.91406 -0.53125,-0.61328 -0.79687,-1.45703 -0.79687,-2.53125 0,-1.07812 0.26562,-1.92187 0.79687,-2.53125 0.53516,-0.60937 1.27344,-0.91406 2.21485,-0.91406"
         style=""
         id="path3813" />
      <path
         d="m 348.35156,140.7813 0,3.96094 -1.07812,0 0,-3.92578 c -10e-6,-0.62109 -0.1211,-1.08593 -0.36328,-1.39453 -0.2422,-0.30859 -0.60548,-0.46289 -1.08985,-0.46289 -0.58203,0 -1.04102,0.18555 -1.37695,0.55664 -0.33594,0.3711 -0.50391,0.87695 -0.50391,1.51758 l 0,3.70898 -1.08398,0 0,-6.5625 1.08398,0 0,1.01953 c 0.25781,-0.39452 0.56055,-0.68945 0.90821,-0.88476 0.35156,-0.19531 0.75585,-0.29297 1.21289,-0.29297 0.7539,0 1.32421,0.23438 1.71093,0.70312 0.38672,0.46485 0.58008,1.1504 0.58008,2.05664"
         style=""
         id="path3815" />
      <path
         d="m 356.12695,141.19146 0,0.52734 -4.95703,0 c 0.0469,0.74219 0.26953,1.3086 0.66797,1.69922 0.40234,0.38672 0.96093,0.58008 1.67578,0.58008 0.41406,0 0.81445,-0.0508 1.20117,-0.15234 0.39062,-0.10157 0.77734,-0.25391 1.16016,-0.45704 l 0,1.01954 c -0.38672,0.16406 -0.78321,0.28906 -1.18945,0.375 -0.40626,0.0859 -0.81837,0.1289 -1.23633,0.1289 -1.04688,0 -1.87696,-0.30469 -2.49024,-0.91406 -0.60937,-0.60937 -0.91406,-1.43359 -0.91406,-2.47266 0,-1.07421 0.28906,-1.92577 0.86719,-2.55468 0.58203,-0.63281 1.36523,-0.94922 2.34961,-0.94922 0.88281,0 1.58007,0.28516 2.0918,0.85547 0.51561,0.56641 0.77343,1.33789 0.77343,2.31445 m -1.07812,-0.31641 c -0.008,-0.58984 -0.17384,-1.06054 -0.49805,-1.41211 -0.32032,-0.35155 -0.7461,-0.52733 -1.27734,-0.52734 -0.60157,1e-5 -1.08399,0.16993 -1.44727,0.50976 -0.35938,0.33985 -0.56641,0.81837 -0.62109,1.43555 l 3.84375,-0.006"
         style=""
         id="path3817" />
      <path
         d="m 289.6582,158.25396 1.23633,0 0,1.48828 -1.23633,0 0,-1.48828"
         style=""
         id="path3819" />
      <path
         d="m 298.37695,155.56451 0,3.20507 1.89844,0 c 0.63671,0 1.10742,-0.13085 1.41211,-0.39257 0.30859,-0.26563 0.46288,-0.66992 0.46289,-1.2129 -1e-5,-0.54687 -0.1543,-0.94921 -0.46289,-1.20703 -0.30469,-0.26171 -0.7754,-0.39257 -1.41211,-0.39257 l -1.89844,0 m 0,-3.59766 0,2.63672 1.75196,0 c 0.57812,0 1.0078,-0.10742 1.28906,-0.32227 0.28515,-0.21874 0.42773,-0.55077 0.42773,-0.99609 0,-0.4414 -0.14258,-0.77148 -0.42773,-0.99024 -0.28126,-0.21874 -0.71094,-0.32811 -1.28906,-0.32812 l -1.75196,0 m -1.18359,-0.97266 3.02344,0 c 0.90234,1e-5 1.59765,0.18751 2.08593,0.5625 0.48828,0.37501 0.73242,0.90821 0.73243,1.59961 -1e-5,0.53516 -0.12501,0.96095 -0.375,1.27735 -0.25001,0.31641 -0.6172,0.51367 -1.10157,0.59179 0.58203,0.12501 1.0332,0.38673 1.35352,0.78516 0.32421,0.39453 0.48632,0.88867 0.48633,1.48242 -10e-6,0.78125 -0.26563,1.38477 -0.79688,1.81055 -0.53125,0.42578 -1.28711,0.63867 -2.26758,0.63867 l -3.14062,0 0,-8.74805"
         style=""
         id="path3821" />
      <path
         d="m 305.26172,157.1524 0,-3.97266 1.07812,0 0,3.93164 c 0,0.6211 0.1211,1.08789 0.36328,1.40039 0.24219,0.3086 0.60547,0.46289 1.08985,0.46289 0.58203,0 1.04101,-0.18554 1.37695,-0.55664 0.33984,-0.37109 0.50976,-0.87695 0.50977,-1.51758 l 0,-3.7207 1.07812,0 0,6.5625 -1.07812,0 0,-1.00781 c -0.26173,0.39844 -0.56641,0.69531 -0.91407,0.89062 -0.34375,0.19141 -0.74414,0.28711 -1.20117,0.28711 -0.75391,0 -1.32617,-0.23437 -1.71679,-0.70312 -0.39063,-0.46875 -0.58594,-1.1543 -0.58594,-2.05664 m 2.71289,-4.13086 0,0"
         style=""
         id="path3823" />
      <path
         d="m 312.99023,150.62505 1.07813,0 0,9.11719 -1.07813,0 0,-9.11719"
         style=""
         id="path3825" />
      <path
         d="m 316.31836,150.62505 1.07812,0 0,9.11719 -1.07812,0 0,-9.11719"
         style=""
         id="path3827" />
      <path
         d="m 325.25977,156.19146 0,0.52734 -4.95704,0 c 0.0469,0.74219 0.26953,1.3086 0.66797,1.69922 0.40234,0.38672 0.96094,0.58008 1.67578,0.58008 0.41406,0 0.81445,-0.0508 1.20118,-0.15234 0.39062,-0.10157 0.77733,-0.25391 1.16015,-0.45704 l 0,1.01954 c -0.38672,0.16406 -0.78321,0.28906 -1.18945,0.375 -0.40626,0.0859 -0.81836,0.1289 -1.23633,0.1289 -1.04688,0 -1.87695,-0.30469 -2.49023,-0.91406 -0.60938,-0.60937 -0.91407,-1.43359 -0.91407,-2.47266 0,-1.07421 0.28907,-1.92577 0.86719,-2.55468 0.58203,-0.63281 1.36523,-0.94922 2.34961,-0.94922 0.88281,0 1.58007,0.28516 2.0918,0.85547 0.51562,0.56641 0.77343,1.33789 0.77344,2.31445 m -1.07813,-0.31641 c -0.008,-0.58984 -0.17383,-1.06054 -0.49805,-1.41211 -0.32031,-0.35155 -0.74609,-0.52733 -1.27734,-0.52734 -0.60157,1e-5 -1.08399,0.16993 -1.44727,0.50976 -0.35937,0.33985 -0.5664,0.81837 -0.62109,1.43555 l 3.84375,-0.006"
         style=""
         id="path3829" />
      <path
         d="m 328.0957,151.31646 0,1.86328 2.22071,0 0,0.83789 -2.22071,0 0,3.5625 c 0,0.53516 0.0723,0.87891 0.2168,1.03125 0.14843,0.15235 0.44726,0.22852 0.89648,0.22852 l 1.10743,0 0,0.90234 -1.10743,0 c -0.83203,0 -1.40625,-0.1543 -1.72265,-0.46289 -0.31641,-0.3125 -0.47461,-0.87891 -0.47461,-1.69922 l 0,-3.5625 -0.79102,0 0,-0.83789 0.79102,0 0,-1.86328 1.08398,0"
         style=""
         id="path3831" />
      <path
         d="m 336.62695,151.31646 0,1.86328 2.22071,0 0,0.83789 -2.22071,0 0,3.5625 c 0,0.53516 0.0723,0.87891 0.2168,1.03125 0.14843,0.15235 0.44726,0.22852 0.89648,0.22852 l 1.10743,0 0,0.90234 -1.10743,0 c -0.83203,0 -1.40625,-0.1543 -1.72265,-0.46289 -0.31641,-0.3125 -0.47461,-0.87891 -0.47461,-1.69922 l 0,-3.5625 -0.79102,0 0,-0.83789 0.79102,0 0,-1.86328 1.08398,0"
         style=""
         id="path3833" />
      <path
         d="m 339.64453,153.17974 1.07813,0 1.34765,5.12109 1.3418,-5.12109 1.27148,0 1.34766,5.12109 1.3418,-5.12109 1.07812,0 -1.7168,6.5625 -1.27148,0 -1.41211,-5.37891 -1.41797,5.37891 -1.27148,0 -1.7168,-6.5625"
         style=""
         id="path3835" />
      <path
         d="m 352.63477,153.9356 c -0.57813,1e-5 -1.03516,0.22657 -1.3711,0.67969 -0.33594,0.44922 -0.50391,1.06641 -0.5039,1.85156 -10e-6,0.78516 0.16601,1.4043 0.49804,1.85742 0.33594,0.44922 0.79492,0.67383 1.37696,0.67383 0.57421,0 1.02929,-0.22656 1.36523,-0.67969 0.33593,-0.45312 0.5039,-1.07031 0.50391,-1.85156 -1e-5,-0.77734 -0.16798,-1.39257 -0.50391,-1.8457 -0.33594,-0.45703 -0.79102,-0.68554 -1.36523,-0.68555 m 0,-0.91406 c 0.93749,0 1.67382,0.30469 2.20898,0.91406 0.53515,0.60938 0.80273,1.45313 0.80273,2.53125 0,1.07422 -0.26758,1.91797 -0.80273,2.53125 -0.53516,0.60937 -1.27149,0.91406 -2.20898,0.91406 -0.94141,0 -1.67969,-0.30469 -2.21485,-0.91406 -0.53125,-0.61328 -0.79687,-1.45703 -0.79687,-2.53125 0,-1.07812 0.26562,-1.92187 0.79687,-2.53125 0.53516,-0.60937 1.27344,-0.91406 2.21485,-0.91406"
         style=""
         id="path3837" />
      <path
         d="m 289.6582,173.25396 1.23633,0 0,1.48828 -1.23633,0 0,-1.48828"
         style=""
         id="path3839" />
      <path
         d="m 300.11719,167.16021 -1.60547,4.35351 3.2168,0 -1.61133,-4.35351 m -0.66797,-1.16602 1.3418,0 3.33398,8.74805 -1.23047,0 -0.79687,-2.24414 -3.94336,0 -0.79688,2.24414 -1.24805,0 3.33985,-8.74805"
         style=""
         id="path3841" />
      <path
         d="m 310.80469,170.7813 0,3.96094 -1.07813,0 0,-3.92578 c 0,-0.62109 -0.1211,-1.08593 -0.36328,-1.39453 -0.24219,-0.30859 -0.60547,-0.46289 -1.08984,-0.46289 -0.58204,0 -1.04102,0.18555 -1.37696,0.55664 -0.33594,0.3711 -0.5039,0.87695 -0.5039,1.51758 l 0,3.70898 -1.08399,0 0,-6.5625 1.08399,0 0,1.01953 c 0.25781,-0.39452 0.56054,-0.68945 0.9082,-0.88476 0.35156,-0.19531 0.75586,-0.29297 1.21289,-0.29297 0.7539,0 1.32422,0.23438 1.71094,0.70312 0.38671,0.46485 0.58007,1.1504 0.58008,2.05664"
         style=""
         id="path3843" />
      <path
         d="m 317.28516,169.17583 0,-3.55078 1.07812,0 0,9.11719 -1.07812,0 0,-0.98438 c -0.22657,0.39063 -0.51368,0.68165 -0.86133,0.87305 -0.34376,0.1875 -0.75782,0.28125 -1.24219,0.28125 -0.79297,0 -1.43945,-0.3164 -1.93945,-0.94922 -0.4961,-0.63281 -0.74414,-1.46484 -0.74414,-2.49609 0,-1.03125 0.24804,-1.86328 0.74414,-2.49609 0.5,-0.63281 1.14648,-0.94922 1.93945,-0.94922 0.48437,0 0.89843,0.0957 1.24219,0.28711 0.34765,0.1875 0.63476,0.47656 0.86133,0.86718 m -3.67383,2.29102 c 0,0.79297 0.16211,1.41602 0.48633,1.86914 0.32812,0.44922 0.77734,0.67383 1.34765,0.67383 0.57031,0 1.01953,-0.22461 1.34766,-0.67383 0.32812,-0.45312 0.49218,-1.07617 0.49219,-1.86914 -1e-5,-0.79297 -0.16407,-1.41406 -0.49219,-1.86328 -0.32813,-0.45312 -0.77735,-0.67968 -1.34766,-0.67969 -0.57031,1e-5 -1.01953,0.22657 -1.34765,0.67969 -0.32422,0.44922 -0.48633,1.07031 -0.48633,1.86328"
         style=""
         id="path3845" />
      <path
         d="m 325.4707,166.31646 0,1.86328 2.22071,0 0,0.83789 -2.22071,0 0,3.5625 c 0,0.53516 0.0723,0.87891 0.2168,1.03125 0.14843,0.15235 0.44726,0.22852 0.89648,0.22852 l 1.10743,0 0,0.90234 -1.10743,0 c -0.83203,0 -1.40625,-0.1543 -1.72265,-0.46289 -0.31641,-0.3125 -0.47461,-0.87891 -0.47461,-1.69922 l 0,-3.5625 -0.79102,0 0,-0.83789 0.79102,0 0,-1.86328 1.08398,0"
         style=""
         id="path3847" />
      <path
         d="m 334.57031,170.7813 0,3.96094 -1.07812,0 0,-3.92578 c -10e-6,-0.62109 -0.1211,-1.08593 -0.36328,-1.39453 -0.2422,-0.30859 -0.60548,-0.46289 -1.08985,-0.46289 -0.58203,0 -1.04102,0.18555 -1.37695,0.55664 -0.33594,0.3711 -0.50391,0.87695 -0.50391,1.51758 l 0,3.70898 -1.08398,0 0,-9.11719 1.08398,0 0,3.57422 c 0.25781,-0.39452 0.56055,-0.68945 0.90821,-0.88476 0.35156,-0.19531 0.75585,-0.29297 1.21289,-0.29297 0.7539,0 1.32421,0.23438 1.71093,0.70312 0.38672,0.46485 0.58008,1.1504 0.58008,2.05664"
         style=""
         id="path3849" />
      <path
         d="m 340.53516,169.18755 c -0.1211,-0.0703 -0.25391,-0.12109 -0.39844,-0.15234 -0.14063,-0.0352 -0.29688,-0.0527 -0.46875,-0.0527 -0.60938,1e-5 -1.07813,0.19923 -1.40625,0.59766 -0.32422,0.39454 -0.48633,0.9629 -0.48633,1.70508 l 0,3.45703 -1.08398,0 0,-6.5625 1.08398,0 0,1.01953 c 0.22656,-0.39843 0.52148,-0.69335 0.88477,-0.88476 0.36327,-0.19531 0.80468,-0.29297 1.32421,-0.29297 0.0742,0 0.15625,0.006 0.2461,0.0176 0.0898,0.008 0.18945,0.0215 0.29883,0.041 l 0.006,1.10742"
         style=""
         id="path3851" />
      <path
         d="m 347.0332,171.19146 0,0.52734 -4.95703,0 c 0.0469,0.74219 0.26953,1.3086 0.66797,1.69922 0.40234,0.38672 0.96093,0.58008 1.67578,0.58008 0.41406,0 0.81445,-0.0508 1.20117,-0.15234 0.39062,-0.10157 0.77734,-0.25391 1.16016,-0.45704 l 0,1.01954 c -0.38672,0.16406 -0.78321,0.28906 -1.18945,0.375 -0.40626,0.0859 -0.81837,0.1289 -1.23633,0.1289 -1.04688,0 -1.87696,-0.30469 -2.49024,-0.91406 -0.60937,-0.60937 -0.91406,-1.43359 -0.91406,-2.47266 0,-1.07421 0.28906,-1.92577 0.86719,-2.55468 0.58203,-0.63281 1.36523,-0.94922 2.34961,-0.94922 0.88281,0 1.58007,0.28516 2.0918,0.85547 0.51561,0.56641 0.77343,1.33789 0.77343,2.31445 m -1.07812,-0.31641 c -0.008,-0.58984 -0.17384,-1.06054 -0.49805,-1.41211 -0.32032,-0.35155 -0.7461,-0.52733 -1.27734,-0.52734 -0.60157,1e-5 -1.08399,0.16993 -1.44727,0.50976 -0.35938,0.33985 -0.56641,0.81837 -0.62109,1.43555 l 3.84375,-0.006"
         style=""
         id="path3853" />
      <path
         d="m 354.41602,171.19146 0,0.52734 -4.95704,0 c 0.0469,0.74219 0.26953,1.3086 0.66797,1.69922 0.40234,0.38672 0.96094,0.58008 1.67578,0.58008 0.41406,0 0.81445,-0.0508 1.20118,-0.15234 0.39062,-0.10157 0.77733,-0.25391 1.16015,-0.45704 l 0,1.01954 c -0.38672,0.16406 -0.78321,0.28906 -1.18945,0.375 -0.40626,0.0859 -0.81836,0.1289 -1.23633,0.1289 -1.04688,0 -1.87695,-0.30469 -2.49023,-0.91406 -0.60938,-0.60937 -0.91407,-1.43359 -0.91407,-2.47266 0,-1.07421 0.28907,-1.92577 0.86719,-2.55468 0.58203,-0.63281 1.36523,-0.94922 2.34961,-0.94922 0.88281,0 1.58007,0.28516 2.0918,0.85547 0.51562,0.56641 0.77343,1.33789 0.77344,2.31445 m -1.07813,-0.31641 c -0.008,-0.58984 -0.17383,-1.06054 -0.49805,-1.41211 -0.32031,-0.35155 -0.74609,-0.52733 -1.27734,-0.52734 -0.60157,1e-5 -1.08399,0.16993 -1.44727,0.50976 -0.35937,0.33985 -0.5664,0.81837 -0.62109,1.43555 l 3.84375,-0.006"
         style=""
         id="path3855" />
      <path
         d="m 289.6582,188.25396 1.23633,0 0,1.48828 -1.23633,0 0,-1.48828"
         style=""
         id="path3857" />
      <path
         d="m 297.19336,180.99419 5.02734,0 0,0.9961 -3.84375,0 0,2.57812 3.46875,0 0,0.9961 -3.46875,0 0,4.17773 -1.18359,0 0,-8.74805"
         style=""
         id="path3859" />
      <path
         d="m 303.19336,183.17974 1.07812,0 0,6.5625 -1.07812,0 0,-6.5625 m 0,-2.55469 1.07812,0 0,1.36524 -1.07812,0 0,-1.36524"
         style=""
         id="path3861" />
      <path
         d="m 311.97656,185.7813 0,3.96094 -1.07812,0 0,-3.92578 c -10e-6,-0.62109 -0.1211,-1.08593 -0.36328,-1.39453 -0.2422,-0.30859 -0.60548,-0.46289 -1.08985,-0.46289 -0.58203,0 -1.04102,0.18555 -1.37695,0.55664 -0.33594,0.3711 -0.50391,0.87695 -0.50391,1.51758 l 0,3.70898 -1.08398,0 0,-6.5625 1.08398,0 0,1.01953 c 0.25781,-0.39452 0.56055,-0.68945 0.90821,-0.88476 0.35156,-0.19531 0.75585,-0.29297 1.21289,-0.29297 0.7539,0 1.32421,0.23438 1.71093,0.70312 0.38672,0.46485 0.58008,1.1504 0.58008,2.05664"
         style=""
         id="path3863" />
      <path
         d="m 317.12109,186.44341 c -0.87109,1e-5 -1.47461,0.0996 -1.81054,0.29883 -0.33594,0.19922 -0.50391,0.53906 -0.50391,1.01953 0,0.38282 0.125,0.6875 0.375,0.91406 0.2539,0.22266 0.59765,0.33399 1.03125,0.33399 0.59765,0 1.07617,-0.21094 1.43555,-0.63281 0.36327,-0.42578 0.54491,-0.99024 0.54492,-1.69336 l 0,-0.24024 -1.07227,0 m 2.15039,-0.44531 0,3.74414 -1.07812,0 0,-0.99609 c -0.2461,0.39843 -0.55274,0.69336 -0.91992,0.88476 -0.36719,0.1875 -0.81641,0.28125 -1.34766,0.28125 -0.67188,0 -1.20703,-0.1875 -1.60547,-0.5625 -0.39453,-0.3789 -0.5918,-0.88476 -0.59179,-1.51758 -10e-6,-0.73827 0.24609,-1.29491 0.73828,-1.66992 0.49609,-0.37499 1.23437,-0.56249 2.21484,-0.5625 l 1.51172,0 0,-0.10547 c -10e-6,-0.49609 -0.16407,-0.8789 -0.49219,-1.14843 -0.32422,-0.27344 -0.78125,-0.41015 -1.37109,-0.41016 -0.375,1e-5 -0.74024,0.0449 -1.09571,0.13476 -0.35547,0.0899 -0.69726,0.22462 -1.02539,0.4043 l 0,-0.99609 c 0.39453,-0.15234 0.77735,-0.26562 1.14844,-0.33985 0.37109,-0.0781 0.73242,-0.11718 1.08399,-0.11718 0.94921,0 1.65819,0.2461 2.12695,0.73828 0.46874,0.49219 0.70312,1.23828 0.70312,2.23828"
         style=""
         id="path3865" />
      <path
         d="m 321.49805,180.62505 1.07812,0 0,9.11719 -1.07812,0 0,-9.11719"
         style=""
         id="path3867" />
      <path
         d="m 324.82617,180.62505 1.07813,0 0,9.11719 -1.07813,0 0,-9.11719"
         style=""
         id="path3869" />
      <path
         d="m 330.88477,190.35161 c -0.3047,0.78125 -0.60157,1.29102 -0.89063,1.5293 -0.28906,0.23828 -0.67578,0.35742 -1.16016,0.35742 l -0.86132,0 0,-0.90234 0.63281,0 c 0.29687,0 0.52734,-0.0703 0.6914,-0.21094 0.16407,-0.14062 0.34571,-0.47265 0.54493,-0.99609 l 0.19336,-0.49219 -2.6543,-6.45703 1.14258,0 2.05078,5.13281 2.05078,-5.13281 1.14258,0 -2.88281,7.17187"
         style=""
         id="path3871" />
      <path
         d="m 342.39844,180.62505 0,0.89649 -1.03125,0 c -0.38672,1e-5 -0.65626,0.0781 -0.8086,0.23437 -0.14844,0.15626 -0.22265,0.43751 -0.22265,0.84375 l 0,0.58008 1.77539,0 0,0.83789 -1.77539,0 0,5.72461 -1.08399,0 0,-5.72461 -1.03125,0 0,-0.83789 1.03125,0 0,-0.45703 c 0,-0.73046 0.16992,-1.26171 0.50977,-1.59375 0.33984,-0.33593 0.8789,-0.5039 1.61719,-0.50391 l 1.01953,0"
         style=""
         id="path3873" />
      <path
         d="m 345.83789,183.9356 c -0.57813,1e-5 -1.03516,0.22657 -1.37109,0.67969 -0.33594,0.44922 -0.50391,1.06641 -0.50391,1.85156 0,0.78516 0.16601,1.4043 0.49805,1.85742 0.33593,0.44922 0.79492,0.67383 1.37695,0.67383 0.57422,0 1.02929,-0.22656 1.36523,-0.67969 0.33594,-0.45312 0.50391,-1.07031 0.50391,-1.85156 0,-0.77734 -0.16797,-1.39257 -0.50391,-1.8457 -0.33594,-0.45703 -0.79101,-0.68554 -1.36523,-0.68555 m 0,-0.91406 c 0.9375,0 1.67382,0.30469 2.20898,0.91406 0.53515,0.60938 0.80273,1.45313 0.80274,2.53125 -10e-6,1.07422 -0.26759,1.91797 -0.80274,2.53125 -0.53516,0.60937 -1.27148,0.91406 -2.20898,0.91406 -0.94141,0 -1.67969,-0.30469 -2.21484,-0.91406 -0.53125,-0.61328 -0.79688,-1.45703 -0.79688,-2.53125 0,-1.07812 0.26563,-1.92187 0.79688,-2.53125 0.53515,-0.60937 1.27343,-0.91406 2.21484,-0.91406"
         style=""
         id="path3875" />
      <path
         d="m 350.51953,187.1524 0,-3.97266 1.07813,0 0,3.93164 c -1e-5,0.6211 0.12109,1.08789 0.36328,1.40039 0.24218,0.3086 0.60546,0.46289 1.08984,0.46289 0.58203,0 1.04101,-0.18554 1.37695,-0.55664 0.33984,-0.37109 0.50976,-0.87695 0.50977,-1.51758 l 0,-3.7207 1.07812,0 0,6.5625 -1.07812,0 0,-1.00781 c -0.26172,0.39844 -0.56641,0.69531 -0.91406,0.89062 -0.34376,0.19141 -0.74415,0.28711 -1.20117,0.28711 -0.75391,0 -1.32618,-0.23437 -1.7168,-0.70312 -0.39063,-0.46875 -0.58594,-1.1543 -0.58594,-2.05664 m 2.71289,-4.13086 0,0"
         style=""
         id="path3877" />
      <path
         d="m 362.05078,184.18755 c -0.1211,-0.0703 -0.25391,-0.12109 -0.39844,-0.15234 -0.14063,-0.0352 -0.29688,-0.0527 -0.46875,-0.0527 -0.60937,1e-5 -1.07812,0.19923 -1.40625,0.59766 -0.32422,0.39454 -0.48633,0.9629 -0.48632,1.70508 l 0,3.45703 -1.08399,0 0,-6.5625 1.08399,0 0,1.01953 c 0.22656,-0.39843 0.52148,-0.69335 0.88476,-0.88476 0.36328,-0.19531 0.80468,-0.29297 1.32422,-0.29297 0.0742,0 0.15625,0.006 0.24609,0.0176 0.0898,0.008 0.18945,0.0215 0.29883,0.041 l 0.006,1.10742"
         style=""
         id="path3879" />
    </g>
    <rect
       style="fill:url(#linearGradient3780);fill-opacity:1;stroke:#110b02;stroke-width:2;stroke-miterlimit:4;stroke-opacity:1;stroke-dasharray:none"
       id="rect4834"
       width="306.46005"
       height="274.75745"
       x="349.6673"
       y="275.35172" />
    <g
       transform="matrix(4.3326192,0,0,4.3393064,-1206.6248,-73.007442)"
       style="font-size:12px;font-style:normal;font-variant:normal;font-weight:normal;font-stretch:normal;text-align:start;line-height:125%;letter-spacing:0px;word-spacing:0px;writing-mode:lr-tb;text-anchor:start;fill:#000000;fill-opacity:1;stroke:#110b02;stroke-width:0.46125871;stroke-miterlimit:4;stroke-opacity:1;font-family:Sans;-inkscape-font-specification:Sans"
       id="flowRoot4836-3">
      <path
         d="m 330.05528,61.849476 c 0.156,-0.546 0.572,-2.106003 1.248,-4.654 0.026,-0.104 0.104,-0.468001 0.208,-0.962 l 1.014,-0.858 c -0.676,-0.026 -1.144,-0.052 -1.508,-0.052 -2.548,0 -4.316,0.468001 -5.72,1.508 -1.404,1.039999 -2.028,2.236001 -2.028,3.874 0,0.389999 0.052,0.676 0.234,1.3 l 1.95,-0.65 c -0.234,-0.831999 -0.312,-1.222001 -0.312,-1.794 0,-1.429999 0.598,-2.496001 1.664,-2.938 0.624,-0.26 1.248,-0.338 2.86,-0.338 -0.39,1.299999 -0.416,1.378004 -1.482,5.616 l -0.936,0.988 0.676,0.052 c -1.248,4.835995 -1.82,5.538 -4.602,5.538 -0.364,0 -0.702,0 -1.378,-0.052 l -1.222,1.69 c 0.572,0.078 0.832,0.104 1.274,0.104 0.832,0 1.482,-0.078 2.002,-0.26 0.78,-0.234 2.106,-1.274002 3.458,-2.678 1.378,-1.429999 1.456,-1.586003 2.314,-4.29 3.224,-0.208 4.16,-0.26 5.616,-0.286 -0.13,0.545999 -0.234,0.91 -0.26,1.066 -1.092,4.029996 -1.508,5.772 -1.508,6.188 0,0.286 0.26,0.546 0.572,0.546 0.182,0 0.442,-0.052 0.728,-0.13 0.676,-0.182 0.806,-0.208001 3.926,-0.78 l 0.468,-0.65 c -1.404,0.13 -1.82,0.156 -2.444,0.156 -0.546,0 -0.858,-0.260001 -0.858,-0.702 0,-0.805999 0,-0.806005 1.274,-5.72 0.468,-1.793998 1.404,-5.148001 1.82,-6.448 0.572,-1.819998 1.014,-2.288 2.106,-2.288 0.52,0 0.806,0.052 1.378,0.26 l 0.884,-1.43 c -0.494,-0.156 -0.702,-0.182 -1.17,-0.182 -1.092,0 -2.236,0.728002 -3.926,2.522 -1.04,1.117999 -1.404,1.794001 -1.846,3.406 l -0.702,2.522 c 0,0.026 -0.13,0.468 -0.234,0.806 l -5.538,0"
         style="font-size:26px;font-style:italic;font-weight:bold;text-align:center;text-anchor:middle;fill:#000000;stroke:#110b02;font-family:URW Chancery L;-inkscape-font-specification:URW Chancery L Bold Italic"
         id="path3882" />
      <path
         d="m 347.41516,66.659476 c -1.95,1.689998 -3.198,2.418 -4.186,2.418 -0.65,0 -1.196,-0.442001 -1.378,-1.118 -0.104,-0.416 -0.13,-0.702001 -0.13,-1.456 1.17,-0.727999 1.95,-1.274001 3.484,-2.418 1.40399,-1.065999 1.95,-1.924001 1.95,-3.094 0,-0.909999 -0.572,-1.456 -1.482,-1.456 -0.572,0 -0.988,0.13 -1.586,0.468 -0.988,0.571999 -1.872,1.274 -2.418,1.898 -0.988,1.195999 -1.872,4.056002 -1.872,6.162 0,1.533998 0.806,2.496 2.132,2.496 1.53399,0 3.432,-1.092002 5.486,-3.146 l 0,-0.754 m -5.616,-1.092 c 0.442,-2.781997 1.638,-4.94 2.756,-4.94 0.442,0 0.728,0.442 0.728,1.066 0,1.299999 -0.70201,2.080002 -3.484,3.874"
         style="font-size:26px;font-style:italic;font-weight:bold;text-align:center;text-anchor:middle;fill:#000000;stroke:#110b02;font-family:URW Chancery L;-inkscape-font-specification:URW Chancery L Bold Italic"
         id="path3884" />
      <path
         d="m 359.16309,66.841476 c -1.94999,1.299999 -2.34,1.534 -2.6,1.534 -0.182,0 -0.312,-0.208 -0.312,-0.52 0,-0.675999 0.624,-3.536004 1.56,-6.994 0.286,-0.39 0.338,-0.468001 0.754,-0.936 -1.248,-0.286 -2.158,-0.39 -3.276,-0.39 -1.066,0 -1.56,0.104 -2.236,0.52 -0.936,0.545999 -2.028,1.352 -2.366,1.716 -0.962,1.091999 -2.054,4.602002 -2.054,6.708 0,1.247999 0.416,2.08 1.066,2.08 0.572,0 1.43001,-0.520002 4.68,-2.86 -0.26,1.195999 -0.39,2.002 -0.39,2.314 0,0.338 0.156,0.546 0.416,0.546 0.312,0 0.31201,-10e-7 2.392,-1.326 0.754,-0.494 1.352,-0.910001 2.34,-1.638 l 0.026,-0.754 m -5.07,0.156 c -1.53399,1.117999 -2.314,1.56 -2.782,1.56 -0.416,0 -0.676,-0.468001 -0.676,-1.3 0,-1.299999 0.416,-3.068002 1.066,-4.55 0.624,-1.429999 1.196,-1.976 2.08,-1.976 0.468,0 1.274,0.13 2.21,0.338 -0.52,1.975998 -0.702,2.574 -0.728,2.704 -0.156,0.649999 -0.286,1.300001 -0.442,1.976 -0.026,0.13 -0.104,0.442 -0.234,0.91 l -0.494,0.338"
         style="font-size:26px;font-style:italic;font-weight:bold;text-align:center;text-anchor:middle;fill:#000000;stroke:#110b02;font-family:URW Chancery L;-inkscape-font-specification:URW Chancery L Bold Italic"
         id="path3886" />
      <path
         d="m 370.21106,66.815476 c -0.338,0.208 -0.598,0.39 -0.728,0.468 -1.43,0.987999 -2.158,1.404 -2.392,1.404 -0.208,0 -0.364,-0.286001 -0.364,-0.676 0,-0.857999 2.184,-10.270002 2.73,-11.882 0.572,-1.559999 1.144,-2.158 2.08,-2.158 0.338,0 0.598,0.052 1.196,0.208 l 0.91,-1.456 c -0.39,-0.078 -0.598,-0.104 -0.832,-0.104 -0.624,0 -0.962,0.104 -1.56,0.442 -0.65,0.363999 -1.534,1.040001 -2.262,1.716 -1.274,1.221999 -1.352,1.404003 -2.028,4.082 -0.026,0.104 -0.104,0.442 -0.208,0.832 -0.468,-0.104 -0.858,-0.156 -1.066,-0.156 -0.806,0 -3.042,1.404001 -4.082,2.548 -0.884,1.013999 -2.054,4.680002 -2.054,6.474 0,0.987999 0.52,2.002 0.988,2.002 0.494,0 1.63801,-0.702002 4.368,-2.678 -0.13,0.649999 -0.208,1.404 -0.208,1.872 0,0.519999 0.208,0.806 0.572,0.806 0.416,0 2.678,-1.378002 4.836,-2.938 l 0.104,-0.806 m -5.096,0.104 c -2.21,1.559998 -2.782,1.898 -3.146,1.898 -0.364,0 -0.546,-0.390001 -0.546,-1.144 0,-0.857999 0.156,-1.846001 0.468,-2.99 0.754,-2.625998 1.768,-3.926 3.094,-3.926 0.468,0 0.806,0.182 1.352,0.702 l -1.222,5.46"
         style="font-size:26px;font-style:italic;font-weight:bold;text-align:center;text-anchor:middle;fill:#000000;stroke:#110b02;font-family:URW Chancery L;-inkscape-font-specification:URW Chancery L Bold Italic"
         id="path3888" />
      <path
         d="m 375.00684,57.377476 c 0.754,-0.675999 0.806,-0.728001 1.69,-1.404 -0.156,-0.312 -0.286,-0.52 -0.338,-0.598 -0.156,-0.312 -0.182,-0.338001 -0.39,-0.832 -0.052,-0.104 -0.104,-0.208 -0.156,-0.338 -0.13,0.104 -0.286,0.208 -0.364,0.286 -0.104,0.104 -0.312,0.26 -0.572,0.468 -0.13,0.104 -0.312,0.234 -0.546,0.39 -0.104,0.078 -0.208,0.156 -0.312,0.208 0.182,0.571999 0.416,0.988001 0.988,1.82 m 1.794,9.828 c -2.46999,1.325999 -2.522,1.352 -2.86,1.352 -0.286,0 -0.468,-0.286001 -0.468,-0.728 0,-0.26 0.078,-0.754001 0.234,-1.326 1.326,-5.459995 1.586,-6.5 1.586,-6.708 0,-0.156 -0.13,-0.26 -0.312,-0.26 -0.442,0 -1.976,0.858001 -4.108,2.288 l -0.052,0.728 c 1.534,-0.831999 1.664,-0.884 1.898,-0.884 0.208,0 0.312,0.156 0.312,0.468 0,0.338 -0.078,0.702001 -0.468,2.184 -1.222,4.549995 -1.222,4.550001 -1.222,5.2 0,0.623999 0.26,1.04 0.624,1.04 0.442,0 1.14401,-0.338001 2.522,-1.222 0.494,-0.312 0.988,-0.624 1.482,-0.962 0.234,-0.13 0.468,-0.286 0.728,-0.442 l 0.104,-0.728"
         style="font-size:26px;font-style:italic;font-weight:bold;text-align:center;text-anchor:middle;fill:#000000;stroke:#110b02;font-family:URW Chancery L;-inkscape-font-specification:URW Chancery L Bold Italic"
         id="path3890" />
      <path
         d="m 379.22494,69.727476 1.534,-6.11 c 3.24999,-2.053998 3.328,-2.08 3.692,-2.08 0.182,0 0.286,0.13 0.286,0.338 0,0.389999 -0.208,1.378003 -0.962,4.342 -0.572,2.313998 -0.676,2.756 -0.676,3.25 0,0.363999 0.104,0.702 0.39,1.17 1.196,-0.546 2.99,-1.664001 4.81,-3.016 l 0.182,-0.728 c -2.6,1.481998 -2.704,1.534 -2.964,1.534 -0.26,0 -0.416,-0.286001 -0.416,-0.702 0,-0.546 0.182,-1.404002 0.676,-3.198 1.222,-4.367996 1.222,-4.368 1.222,-4.55 0,-0.286 -0.182,-0.442 -0.52,-0.442 -0.39,0 -0.962,0.234 -1.898,0.832 l -3.562,2.21 c 0.234,-0.857999 0.624,-2.496 0.624,-2.704 0,-0.182 -0.156,-0.338 -0.338,-0.338 -0.286,0 -2.158,0.962001 -4.082,2.106 l -0.156,0.676 c 1.664,-0.753999 1.768,-0.78 2.002,-0.78 0.182,0 0.312,0.156 0.312,0.364 0,0.545999 -0.494,2.704002 -1.144,5.07 l -0.598,2.106 c -0.052,0.182 -0.182,0.676001 -0.364,1.404 l 1.95,-0.754"
         style="font-size:26px;font-style:italic;font-weight:bold;text-align:center;text-anchor:middle;fill:#000000;stroke:#110b02;font-family:URW Chancery L;-inkscape-font-specification:URW Chancery L Bold Italic"
         id="path3892" />
      <path
         d="m 397.26731,64.527476 c 0.104,-0.572 0.234,-1.066001 0.338,-1.482 l 0.39,-1.456 c 0.052,-0.234 0.104,-0.416 0.13,-0.572 0.468,-0.13 0.494,-0.130001 1.326,-1.456 -2.132,0.052 -2.73,0.052 -3.016,0.052 -1.586,0.026 -2.028,0.104 -2.808,0.572 -1.248,0.779999 -2.132,1.508001 -2.678,2.21 -0.78,1.013999 -1.716,4.160001 -1.716,5.746 0,0.649999 0.156,1.118 0.572,1.69 l -2.99,2.574 c -1.3,1.143999 -1.898,2.002001 -1.898,2.73 0,0.961999 1.144,1.508 3.12,1.508 2.392,0 4.264,-0.676002 6.006,-2.184 1.118,-0.961999 1.378,-1.508003 1.924,-4.082 l 1.3,-5.85 m -3.406,7.124 c -0.338,1.559998 -0.572,2.158 -1.04,2.652 -0.572,0.649999 -1.638,0.988 -3.172,0.988 -1.69,0 -2.6,-0.468001 -2.6,-1.3 0,-1.065999 0.70201,-1.716006 7.93,-7.254 l -1.118,4.914 m 3.042,-10.66 0.832,0 c -0.13,0.104 -0.286,0.234 -0.416,0.312 -0.832,0.597999 -1.014,0.832 -1.248,1.456 -0.234,0.753999 -0.52,1.768001 -0.858,3.042 -0.52,0.338 -1.144,0.806001 -3.328,2.444 -0.468,-0.468 -0.65,-0.884001 -0.65,-1.508 0,-0.883999 0.624,-3.146001 1.17,-4.394 0.52,-1.065999 1.066,-1.326 2.964,-1.326 0.182,0 0.494,0 0.832,-0.026 l 0.702,0"
         style="font-size:26px;font-style:italic;font-weight:bold;text-align:center;text-anchor:middle;fill:#000000;stroke:#110b02;font-family:URW Chancery L;-inkscape-font-specification:URW Chancery L Bold Italic"
         id="path3894" />
    </g>
    <path
       sodipodi:type="arc"
       style="fill:#3b3b3b;fill-opacity:1;stroke:#3b3b3b;stroke-width:0.52723688;stroke-miterlimit:4;stroke-opacity:1;stroke-dasharray:none"
       id="path4871"
       sodipodi:cx="357.14542"
       sodipodi:cy="140.76723"
       sodipodi:rx="58.030621"
       sodipodi:ry="55.973843"
       d="m 415.17604,140.76723 c 0,30.9135 -25.9812,55.97384 -58.03062,55.97384 -32.04943,0 -58.03062,-25.06034 -58.03062,-55.97384 0,-30.9135 25.98119,-55.973845 58.03062,-55.973845 32.04942,0 58.03062,25.060345 58.03062,55.973845 z"
       transform="matrix(3.8013913,0,0,3.7853485,-1041.4581,-29.055429)" />
    <path
       sodipodi:type="arc"
       style="fill:url(#linearGradient3772);fill-opacity:1;stroke:#110b02;stroke-width:0.58781582;stroke-miterlimit:4;stroke-opacity:1;stroke-dasharray:none"
       id="path4871-0"
       sodipodi:cx="357.14542"
       sodipodi:cy="140.76723"
       sodipodi:rx="58.030621"
       sodipodi:ry="55.973843"
       d="m 415.17604,140.76723 c 0,30.9135 -25.9812,55.97384 -58.03062,55.97384 -32.04943,0 -58.03062,-25.06034 -58.03062,-55.97384 0,-30.9135 25.98119,-55.973845 58.03062,-55.973845 32.04942,0 58.03062,25.060345 58.03062,55.973845 z"
       transform="matrix(3.4175244,0,0,3.3873951,-906.86314,26.963383)" />
    <path
       style="fill:url(#linearGradient3796);fill-opacity:1;stroke:url(#linearGradient3788);stroke-width:2;stroke-linecap:butt;stroke-linejoin:miter;stroke-miterlimit:4;stroke-opacity:1;stroke-dasharray:none"
       d="m 458.16617,665.69994 c 0,0 81.21302,92.71387 132.0127,117.06782 6.53758,3.13417 15.81831,-0.0928 21.17189,-4.98159 4.84689,-4.42626 8.89057,-12.68194 6.22697,-18.68105 C 596.43878,711.4945 480.58339,643.28267 480.58339,643.28267 z"
       id="path4891"
       inkscape:connector-curvature="0"
       sodipodi:nodetypes="cssscc" />
  </g>
</svg>
