<?xml version="1.0" encoding="UTF-8" standalone="no"?>
<!-- Created with Inkscape (http://www.inkscape.org/) -->

<svg
   xmlns:dc="http://purl.org/dc/elements/1.1/"
   xmlns:cc="http://creativecommons.org/ns#"
   xmlns:rdf="http://www.w3.org/1999/02/22-rdf-syntax-ns#"
   xmlns:svg="http://www.w3.org/2000/svg"
   xmlns="http://www.w3.org/2000/svg"
   xmlns:sodipodi="http://sodipodi.sourceforge.net/DTD/sodipodi-0.dtd"
   xmlns:inkscape="http://www.inkscape.org/namespaces/inkscape"
   width="744.09448819"
   height="1052.3622047"
   id="svg3554"
   version="1.1"
   inkscape:version="0.48.4 r9939"
   sodipodi:docname="zoom_orig.svg">
  <defs
     id="defs3556" />
  <sodipodi:namedview
     id="base"
     pagecolor="#ffffff"
     bordercolor="#666666"
     borderopacity="1.0"
     inkscape:pageopacity="0.0"
     inkscape:pageshadow="2"
     inkscape:zoom="0.35"
     inkscape:cx="-117.85714"
     inkscape:cy="520"
     inkscape:document-units="px"
     inkscape:current-layer="layer1"
     showgrid="false"
     inkscape:window-width="1440"
     inkscape:window-height="851"
     inkscape:window-x="0"
     inkscape:window-y="25"
     inkscape:window-maximized="1" />
  <metadata
     id="metadata3559">
    <rdf:RDF>
      <cc:Work
         rdf:about="">
        <dc:format>image/svg+xml</dc:format>
        <dc:type
           rdf:resource="http://purl.org/dc/dcmitype/StillImage" />
        <dc:title />
      </cc:Work>
    </rdf:RDF>
  </metadata>
  <g
     inkscape:label="Layer 1"
     inkscape:groupmode="layer"
     id="layer1">
    <path
       sodipodi:type="arc"
       style="fill:none;stroke:#110b02;stroke-width:0.48140573;stroke-linejoin:round;stroke-miterlimit:4;stroke-opacity:1;stroke-dasharray:none"
       id="path3891-4"
       sodipodi:cx="609.17084"
       sodipodi:cy="378.99155"
       sodipodi:rx="51.110512"
       sodipodi:ry="55.058071"
       d="m 660.28135,378.99155 a 51.110512,55.058071 0 1 1 -102.22102,0 51.110512,55.058071 0 1 1 102.22102,0 z"
       transform="matrix(4.4102582,0,0,3.9135732,-2416.9266,-1062.5416)" />
    <path
       sodipodi:type="arc"
       style="fill:none;stroke:#110b02;stroke-width:0.55081459;stroke-linejoin:round;stroke-miterlimit:4;stroke-opacity:1;stroke-dasharray:none"
       id="path3893-4"
       sodipodi:cx="610.41742"
       sodipodi:cy="383.56241"
       sodipodi:rx="69.393951"
       sodipodi:ry="69.18618"
       d="m 679.81137,383.56241 a 69.393951,69.18618 0 1 1 -138.7879,0 69.393951,69.18618 0 1 1 138.7879,0 z"
       transform="matrix(3.6587483,0,0,3.6034341,-1964.4524,-966.06054)" />
    <path
       style="fill:none;stroke:#110b02;stroke-width:2;stroke-linecap:butt;stroke-linejoin:miter;stroke-miterlimit:4;stroke-opacity:1;stroke-dasharray:none"
       d="m 435.61386,607.25409 c 0,0 102.78324,111.74283 151.40879,140.70311 28.27709,16.8412 94.82165,35.17577 94.82165,35.17577 0,0 16.20726,-2.13754 21.41135,-7.64689 6.20317,-6.56703 7.6469,-25.99947 7.6469,-25.99947 0,0 -24.5842,-35.84947 -45.88145,-56.58717 -42.35893,-41.24605 -186.58456,-134.58555 -186.58456,-134.58555 0,0 -14.00903,17.55839 -21.41136,25.99948 -6.89665,7.86445 -21.41132,22.94072 -21.41132,22.94072 z"
       id="path3895-4"
       inkscape:connector-curvature="0"
       sodipodi:nodetypes="cscscscsc" />
    <path
       style="fill:none;stroke:#110b02;stroke-width:2;stroke-linecap:butt;stroke-linejoin:miter;stroke-miterlimit:4;stroke-opacity:1;stroke-dasharray:none"
       d="m 333.14528,602.66594 c 0,0 -132.67335,13.36129 -185.05517,-19.88195 C 77.816028,538.18576 56.327198,428.31643 56.327198,428.31643 c 0,0 67.637342,99.93653 120.821162,119.29179 63.56766,23.13425 155.99692,55.05772 155.99692,55.05772 z"
       id="path3897-5"
       inkscape:connector-curvature="0"
       sodipodi:nodetypes="cscsc" />
    <flowRoot
       xml:space="preserve"
       id="flowRoot3968"
       style="font-size:12px;font-style:normal;font-variant:normal;font-weight:normal;font-stretch:normal;text-align:start;line-height:125%;letter-spacing:0px;word-spacing:0px;writing-mode:lr-tb;text-anchor:start;fill:#110b02;stroke:#110b02;stroke-width:0.30658919;stroke-miterlimit:4;stroke-opacity:1;stroke-dasharray:none;font-family:Sans;-inkscape-font-specification:Sans;fill-opacity:1"
       transform="matrix(6.034165,0,0,7.0522734,-1757.4841,-3987.8147)"><flowRegion
         id="flowRegion3970"><rect
           id="rect3972"
           width="93.079308"
           height="61.083298"
           x="305.41647"
           y="599.01611"
           style="fill:#110b02;stroke:#110b02;stroke-width:0.30658919;stroke-miterlimit:4;stroke-opacity:1;stroke-dasharray:none;fill-opacity:1" /></flowRegion><flowPara
         id="flowPara3974"
         style="font-size:44px;font-style:normal;font-variant:normal;font-weight:bold;font-stretch:normal;text-align:start;line-height:125%;writing-mode:lr-tb;text-anchor:start;fill:#110b02;stroke:#110b02;stroke-width:0.30658919;stroke-miterlimit:4;stroke-opacity:1;stroke-dasharray:none;font-family:Nimbus Roman No9 L;-inkscape-font-specification:Nimbus Roman No9 L Bold;fill-opacity:1">1:1</flowPara></flowRoot>  </g>
</svg>
