<?xml version="1.0" encoding="UTF-8" standalone="no"?>
<!-- Created with Inkscape (http://www.inkscape.org/) -->

<svg
   xmlns:dc="http://purl.org/dc/elements/1.1/"
   xmlns:cc="http://creativecommons.org/ns#"
   xmlns:rdf="http://www.w3.org/1999/02/22-rdf-syntax-ns#"
   xmlns:svg="http://www.w3.org/2000/svg"
   xmlns="http://www.w3.org/2000/svg"
   xmlns:sodipodi="http://sodipodi.sourceforge.net/DTD/sodipodi-0.dtd"
   xmlns:inkscape="http://www.inkscape.org/namespaces/inkscape"
   width="744.09448819"
   height="1052.3622047"
   id="svg3837"
   version="1.1"
   inkscape:version="0.48.4 r9939"
   sodipodi:docname="check_mailbox.svg">
  <defs
     id="defs3839" />
  <sodipodi:namedview
     id="base"
     pagecolor="#ffffff"
     bordercolor="#666666"
     borderopacity="1.0"
     inkscape:pageopacity="0.0"
     inkscape:pageshadow="2"
     inkscape:zoom="0.60625516"
     inkscape:cx="372.04724"
     inkscape:cy="526.18109"
     inkscape:document-units="px"
     inkscape:current-layer="layer1"
     showgrid="false"
     inkscape:window-width="1440"
     inkscape:window-height="851"
     inkscape:window-x="0"
     inkscape:window-y="25"
     inkscape:window-maximized="1" />
  <metadata
     id="metadata3842">
    <rdf:RDF>
      <cc:Work
         rdf:about="">
        <dc:format>image/svg+xml</dc:format>
        <dc:type
           rdf:resource="http://purl.org/dc/dcmitype/StillImage" />
        <dc:title />
      </cc:Work>
    </rdf:RDF>
  </metadata>
  <g
     inkscape:label="Layer 1"
     inkscape:groupmode="layer"
     id="layer1">
    <path
       style="fill:none;stroke:#110b02;stroke-width:2;stroke-linecap:butt;stroke-linejoin:miter;stroke-opacity:1;stroke-miterlimit:4;stroke-dasharray:none"
       d="m 147.53703,705.90141 391.68951,3.99684 0,-321.07882 c 0,0 -40.01023,-70.88215 -70.61066,-101.25308 -25.87721,-25.68309 -55.38694,-51.81631 -90.59487,-61.28475 -30.95194,-8.32385 -66.10171,-5.0835 -95.92394,6.66137 -30.84667,12.1483 -54.41489,38.60361 -77.2721,62.61705 -15.5551,16.34192 -28.83707,34.99902 -39.96833,54.62334 -6.18556,10.90512 -17.31961,29.31009 -17.31961,29.31009 z"
       id="path4074"
       inkscape:connector-curvature="0"
       sodipodi:nodetypes="cccssssscc" />
    <path
       style="fill:none;stroke:#110b02;stroke-width:2;stroke-linecap:butt;stroke-linejoin:miter;stroke-opacity:1;stroke-miterlimit:4;stroke-dasharray:none"
       d="M 539.22654,711.23051 713.75487,483.4111 c 0,0 2.71773,-85.45621 -1.33226,-127.8986 -1.41493,-14.82795 -7.99368,-43.96517 -7.99368,-43.96517 0,0 -4.19536,-16.00865 -67.94615,-62.61701 -26.51876,-19.38796 -62.61702,-22.64872 -62.61702,-22.64872 l -231.81625,-6.66137 c 0,0 74.98445,4.84766 125.23407,66.61385 26.91064,33.07822 74.60753,103.91761 74.60753,103.91761 L 705.7612,312.87963 541.89111,390.15169 z"
       id="path4076"
       inkscape:connector-curvature="0"
       sodipodi:nodetypes="ccscsccscccc" />
    <path
       style="fill:#ffffff;fill-opacity:1;stroke:#110b02;stroke-width:2;stroke-linecap:butt;stroke-linejoin:miter;stroke-opacity:1;stroke-miterlimit:4;stroke-dasharray:none"
       d="m 27.632102,785.83804 440.983748,7.99367 57.28794,-93.2594 5.32911,-29.31013 -6.66141,-15.98731 9.32594,-21.31645 6.66141,-19.98415 -1.3323,-114.57582 -233.14848,-3.99688 -278.445958,193.18022 c 34.046025,8.23641 27.473923,10.7342 -2.66457,23.98099 -3.439743,24.85087 -5.329104,29.31013 -5.329104,29.31013 45.413787,2.0993 37.409668,15.872 7.993674,29.31008 23.063425,3.874 50.047064,8.71483 0,14.65505 z"
       id="path4078"
       inkscape:connector-curvature="0"
       sodipodi:nodetypes="cccccccccccccc" />
    <path
       style="fill:none;stroke:#000000;stroke-width:1px;stroke-linecap:butt;stroke-linejoin:miter;stroke-opacity:1"
       d="m 27.094584,687.48846 432.610186,5.41891 61.41439,-36.12611 3.61261,-1.8063 -66.83331,37.93241 z"
       id="path3753"
       inkscape:connector-curvature="0" />
    <path
       style="fill:none;stroke:#000000;stroke-width:1px;stroke-linecap:butt;stroke-linejoin:miter;stroke-opacity:1"
       d="m 25.288278,712.77673 431.707032,3.61261 68.63961,-59.60808 -68.63961,59.60808 z"
       id="path3755"
       inkscape:connector-curvature="0" />
    <path
       style="fill:none;stroke:#000000;stroke-width:1px;stroke-linecap:butt;stroke-linejoin:miter;stroke-opacity:1"
       d="m 19.869361,740.77447 437.125949,7.22522 72.25222,-74.96168 -72.25222,73.15538 z"
       id="path3757"
       inkscape:connector-curvature="0" />
    <path
       style="fill:none;stroke:#000000;stroke-width:1px;stroke-linecap:butt;stroke-linejoin:miter;stroke-opacity:1"
       d="m 32.5135,769.67536 429.90073,0.90315 65.027,-83.99321 -66.83331,84.89636 z"
       id="path3759"
       inkscape:connector-curvature="0" />
  </g>
</svg>
