<?xml version="1.0" encoding="UTF-8" standalone="no"?>
<!-- Created with Inkscape (http://www.inkscape.org/) -->

<svg
   xmlns:dc="http://purl.org/dc/elements/1.1/"
   xmlns:cc="http://creativecommons.org/ns#"
   xmlns:rdf="http://www.w3.org/1999/02/22-rdf-syntax-ns#"
   xmlns:svg="http://www.w3.org/2000/svg"
   xmlns="http://www.w3.org/2000/svg"
   xmlns:sodipodi="http://sodipodi.sourceforge.net/DTD/sodipodi-0.dtd"
   xmlns:inkscape="http://www.inkscape.org/namespaces/inkscape"
   width="744.09448819"
   height="1052.3622047"
   id="svg3218"
   version="1.1"
   inkscape:version="0.48.4 r9939"
   sodipodi:docname="folder.svg">
  <defs
     id="defs3220" />
  <sodipodi:namedview
     id="base"
     pagecolor="#ffffff"
     bordercolor="#666666"
     borderopacity="1.0"
     inkscape:pageopacity="0.0"
     inkscape:pageshadow="2"
     inkscape:zoom="0.35"
     inkscape:cx="-117.85714"
     inkscape:cy="520"
     inkscape:document-units="px"
     inkscape:current-layer="layer1"
     showgrid="false"
     inkscape:window-width="1440"
     inkscape:window-height="851"
     inkscape:window-x="0"
     inkscape:window-y="25"
     inkscape:window-maximized="1" />
  <metadata
     id="metadata3223">
    <rdf:RDF>
      <cc:Work
         rdf:about="">
        <dc:format>image/svg+xml</dc:format>
        <dc:type
           rdf:resource="http://purl.org/dc/dcmitype/StillImage" />
        <dc:title />
      </cc:Work>
    </rdf:RDF>
  </metadata>
  <g
     inkscape:label="Layer 1"
     inkscape:groupmode="layer"
     id="layer1">
    <path
       style="fill:none;stroke:#110b02;stroke-width:2;stroke-linecap:butt;stroke-linejoin:miter;stroke-opacity:1;stroke-miterlimit:3.95000005;stroke-dasharray:none"
       d="m 39.169183,850.94181 645.948177,1.9717 15.99872,-29.5753 7.99936,-465.31861 -45.99628,-120.27301 -597.952078,-5.91508 -39.99681,139.98991 0,437.71493 z"
       id="path2995-2"
       inkscape:connector-curvature="0"
       sodipodi:nodetypes="ccccccccc" />
    <path
       style="fill:none;stroke:#110b02;stroke-width:2;stroke-linecap:butt;stroke-linejoin:miter;stroke-miterlimit:3.95000005;stroke-opacity:1;stroke-dasharray:none"
       d="M 625.12219,703.06516 93.164794,697.15011 c 0,0 -35.607803,-6.14296 -47.996136,-17.74521 -12.121422,-11.35232 -19.998386,-45.34885 -19.998386,-45.34885 0,0 18.35958,22.82284 29.997598,31.54699 12.579857,9.43017 26.194988,21.47895 41.99666,21.6886 200.10271,2.65482 531.95733,1.97169 531.95733,1.97169 0,0 30.23027,-6.63248 41.99662,-15.77351 12.05409,-9.36452 29.9976,-31.547 29.9976,-31.547 0,0 -8.1341,34.55181 -21.9982,47.32051 -13.58749,12.51396 -53.99569,13.80183 -53.99569,13.80183 z"
       id="path2997-2"
       inkscape:connector-curvature="0"
       sodipodi:nodetypes="ccscsscscsc" />
  </g>
</svg>
