<?xml version="1.0" encoding="UTF-8" standalone="no"?>
<!-- Created with Inkscape (http://www.inkscape.org/) -->

<svg
   xmlns:dc="http://purl.org/dc/elements/1.1/"
   xmlns:cc="http://creativecommons.org/ns#"
   xmlns:rdf="http://www.w3.org/1999/02/22-rdf-syntax-ns#"
   xmlns:svg="http://www.w3.org/2000/svg"
   xmlns="http://www.w3.org/2000/svg"
   xmlns:sodipodi="http://sodipodi.sourceforge.net/DTD/sodipodi-0.dtd"
   xmlns:inkscape="http://www.inkscape.org/namespaces/inkscape"
   width="744.09448819"
   height="1052.3622047"
   id="svg3432"
   version="1.1"
   inkscape:version="0.48.4 r9939"
   sodipodi:docname="junk_folder.svg">
  <defs
     id="defs3434" />
  <sodipodi:namedview
     id="base"
     pagecolor="#ffffff"
     bordercolor="#666666"
     borderopacity="1.0"
     inkscape:pageopacity="0.0"
     inkscape:pageshadow="2"
     inkscape:zoom="0.35"
     inkscape:cx="-117.85714"
     inkscape:cy="520"
     inkscape:document-units="px"
     inkscape:current-layer="layer1"
     showgrid="false"
     inkscape:window-width="1440"
     inkscape:window-height="851"
     inkscape:window-x="0"
     inkscape:window-y="25"
     inkscape:window-maximized="1" />
  <metadata
     id="metadata3437">
    <rdf:RDF>
      <cc:Work
         rdf:about="">
        <dc:format>image/svg+xml</dc:format>
        <dc:type
           rdf:resource="http://purl.org/dc/dcmitype/StillImage" />
        <dc:title />
      </cc:Work>
    </rdf:RDF>
  </metadata>
  <g
     inkscape:label="Layer 1"
     inkscape:groupmode="layer"
     id="layer1">
    <path
       inkscape:connector-curvature="0"
       id="path3812"
       style="fill:none;stroke:#110b02;stroke-width:2;stroke-linecap:butt;stroke-linejoin:miter;stroke-opacity:1;stroke-miterlimit:4;stroke-dasharray:none"
       d="M 659.44434,317.05692 388.04056,514.44147 z M 90.065793,322.7507 389.9385,514.44147 z m 1.897943,377.68774 571.276454,0 0,-383.38152 -571.276454,3.79584 z" />
    <g
       id="g3841"
       style="stroke:#110b02;stroke-opacity:1;stroke-width:2;stroke-miterlimit:4;stroke-dasharray:none">
      <path
         style="fill:#ffffff;stroke:#110b02;stroke-width:2;stroke-linecap:butt;stroke-linejoin:miter;stroke-miterlimit:4;stroke-opacity:1;stroke-dasharray:none;fill-opacity:1"
         clip-path="none"
         d="M 29.34375 189.90625 L 29.34375 239.25 L 48.3125 277.1875 L 46.40625 751.6875 L 19.84375 791.53125 L 17.9375 859.875 L 727.78125 859.875 L 727.78125 791.53125 L 699.3125 753.59375 L 699.3125 277.1875 L 727.78125 241.125 L 727.78125 193.6875 L 29.34375 189.90625 z M 69.1875 281 L 154.59375 281 L 154.59375 747.875 L 69.1875 747.875 L 69.1875 281 z M 196.34375 281 L 293.15625 281 L 293.15625 749.78125 L 196.34375 749.78125 L 196.34375 281 z M 334.90625 281.9375 L 420.3125 281.9375 L 420.3125 748.84375 L 334.90625 748.84375 L 334.90625 281.9375 z M 462.0625 281.9375 L 558.84375 281.9375 L 558.84375 750.75 L 462.0625 750.75 L 462.0625 281.9375 z M 606.28125 282.875 L 680.34375 282.875 L 680.34375 751.6875 L 606.28125 751.6875 L 606.28125 282.875 z "
         id="path3815" />
      <g
         style="fill:none;fill-opacity:1;stroke:#110b02;stroke-opacity:1;stroke-width:2;stroke-miterlimit:4;stroke-dasharray:none"
         id="g3771" />
    </g>
  </g>
</svg>
