<?xml version="1.0" encoding="UTF-8" standalone="no"?>
<!-- Created with Inkscape (http://www.inkscape.org/) -->

<svg
   xmlns:dc="http://purl.org/dc/elements/1.1/"
   xmlns:cc="http://creativecommons.org/ns#"
   xmlns:rdf="http://www.w3.org/1999/02/22-rdf-syntax-ns#"
   xmlns:svg="http://www.w3.org/2000/svg"
   xmlns="http://www.w3.org/2000/svg"
   xmlns:xlink="http://www.w3.org/1999/xlink"
   xmlns:sodipodi="http://sodipodi.sourceforge.net/DTD/sodipodi-0.dtd"
   xmlns:inkscape="http://www.inkscape.org/namespaces/inkscape"
   width="711.625"
   height="706.1875"
   id="svg3485"
   version="1.1"
   inkscape:version="0.48.4 r9939"
   sodipodi:docname="footer.svg">
  <defs
     id="defs3487">
    <linearGradient
       id="linearGradient3755">
      <stop
         style="stop-color:#110b02;stop-opacity:1;"
         offset="0"
         id="stop3757" />
      <stop
         style="stop-color:#3b3b3b;stop-opacity:1;"
         offset="1"
         id="stop3759" />
    </linearGradient>
    <linearGradient
       inkscape:collect="always"
       xlink:href="#linearGradient3755"
       id="linearGradient3761"
       x1="364.55176"
       y1="206.04742"
       x2="361.8913"
       y2="494.97589"
       gradientUnits="userSpaceOnUse" />
  </defs>
  <sodipodi:namedview
     id="base"
     pagecolor="#ffffff"
     bordercolor="#666666"
     borderopacity="1.0"
     inkscape:pageopacity="0.0"
     inkscape:pageshadow="2"
     inkscape:zoom="0.59105127"
     inkscape:cx="363.57849"
     inkscape:cy="177.16266"
     inkscape:document-units="px"
     inkscape:current-layer="layer1"
     showgrid="false"
     inkscape:window-width="1440"
     inkscape:window-height="824"
     inkscape:window-x="0"
     inkscape:window-y="24"
     inkscape:window-maximized="1"
     fit-margin-top="207"
     fit-margin-left="5"
     fit-margin-right="5"
     fit-margin-bottom="207" />
  <metadata
     id="metadata3490">
    <rdf:RDF>
      <cc:Work
         rdf:about="">
        <dc:format>image/svg+xml</dc:format>
        <dc:type
           rdf:resource="http://purl.org/dc/dcmitype/StillImage" />
        <dc:title />
      </cc:Work>
    </rdf:RDF>
  </metadata>
  <g
     inkscape:label="Layer 1"
     inkscape:groupmode="layer"
     id="layer1"
     transform="translate(-8.46875,2.84375)">
    <rect
       style="fill:url(#linearGradient3761);fill-opacity:1;stroke:#ffffff;stroke-width:5;stroke-linecap:round;stroke-linejoin:round;stroke-miterlimit:4;stroke-opacity:1;stroke-dasharray:none"
       id="rect3848-5"
       width="696.64288"
       height="287.16568"
       x="15.964275"
       y="206.66278" />
    <g
       transform="matrix(3.5096247,0,0,3.5096247,-938.59602,-1804.5094)"
       style="font-size:12px;font-style:normal;font-variant:normal;font-weight:normal;font-stretch:normal;text-align:start;line-height:125%;letter-spacing:0px;word-spacing:0px;writing-mode:lr-tb;text-anchor:start;fill:#ffffff;fill-opacity:1;stroke:#ffffff;stroke-width:1.13972300000000004;stroke-miterlimit:4;stroke-opacity:1;font-family:Sans;-inkscape-font-specification:Sans;stroke-dasharray:none;stroke-linejoin:round"
       id="flowRoot3876">
      <path
         d="m 319.51562,604.17286 -1.80468,0 c -0.45316,-1.29685 -1.25784,-2.67185 -2.41407,-4.125 -1.14065,-1.46872 -2.22658,-2.2734 -3.25781,-2.41406 -0.46877,-0.0625 -1.09377,-0.11716 -1.875,-0.16406 -0.78127,-0.0468 -1.50002,-0.0703 -2.15625,-0.0703 l -5.17969,0 0,13.05469 3.30469,0 c 0.93748,2e-5 1.74998,-0.10154 2.4375,-0.30469 0.68748,-0.21873 1.29686,-0.60154 1.82813,-1.14843 0.3906,-0.39061 0.7656,-1.03904 1.125,-1.94532 0.37497,-0.92185 0.60154,-1.71091 0.67968,-2.36718 l 1.78125,0 0,13.99218 -1.78125,0 c -0.0625,-0.70311 -0.30471,-1.55467 -0.72656,-2.55468 -0.4219,-1.01561 -0.78127,-1.68749 -1.07812,-2.01563 -0.45315,-0.49998 -1.03127,-0.86717 -1.73438,-1.10156 -0.70314,-0.24998 -1.54689,-0.37498 -2.53125,-0.375 l -3.30469,0 0,11.01562 c -1e-5,0.56251 0.10155,1.04688 0.30469,1.45313 0.21874,0.39063 0.62499,0.71094 1.21875,0.96094 0.34374,0.14062 0.81249,0.27344 1.40625,0.39843 0.60936,0.10938 1.21092,0.19532 1.80469,0.25782 l 0,1.82812 -17.92969,0 0,-1.82812 c 0.45313,-0.0469 1.05469,-0.10938 1.80469,-0.1875 0.75,-0.0937 1.27343,-0.20313 1.57031,-0.32813 0.5625,-0.21875 0.95312,-0.52343 1.17188,-0.91406 0.21874,-0.39062 0.32812,-0.89062 0.32812,-1.5 l 0,-23.46094 c 0,-0.53122 -0.10157,-0.99216 -0.30469,-1.38281 -0.1875,-0.40622 -0.58594,-0.74216 -1.19531,-1.00781 -0.4375,-0.18747 -1.01563,-0.35935 -1.73437,-0.51563 -0.71876,-0.15622 -1.26563,-0.25778 -1.64063,-0.30469 l 0,-1.82812 29.88281,0 0,8.88281"
         style="font-size:48px;font-weight:bold;text-align:center;text-anchor:middle;fill:#ffffff;fill-opacity:1;stroke:#ffffff;stroke-opacity:1;font-family:Georgia;-inkscape-font-specification:Georgia Bold;stroke-width:1.13972300000000004;stroke-miterlimit:4;stroke-dasharray:none;stroke-linejoin:round"
         id="path3764"
         inkscape:connector-curvature="0" />
      <path
         d="m 345.55469,608.06349 c 1.15622,1.07814 2.03903,2.3672 2.64843,3.86718 0.60935,1.50002 0.91404,3.12502 0.91407,4.875 -3e-5,1.73439 -0.30472,3.37501 -0.91407,4.92188 -0.59377,1.53125 -1.46877,2.84375 -2.625,3.9375 -1.23439,1.17188 -2.71096,2.07031 -4.42968,2.69531 -1.70315,0.625 -3.65627,0.9375 -5.85938,0.9375 -1.90626,0 -3.66407,-0.27344 -5.27344,-0.82031 -1.59375,-0.54687 -3.00781,-1.36719 -4.24218,-2.46094 -1.18751,-1.04687 -2.12501,-2.33593 -2.8125,-3.86719 -0.6875,-1.54686 -1.03125,-3.27342 -1.03125,-5.17968 0,-1.87499 0.29687,-3.53905 0.89062,-4.99219 0.60937,-1.46873 1.51562,-2.77342 2.71875,-3.91406 1.15625,-1.09373 2.57812,-1.93748 4.26563,-2.53125 1.70311,-0.60935 3.60155,-0.91404 5.69531,-0.91407 2.18748,3e-5 4.10936,0.30472 5.76562,0.91407 1.67186,0.59377 3.10154,1.43752 4.28907,2.53125 m -6,16.24218 c 0.34373,-0.87499 0.59373,-1.93749 0.75,-3.1875 0.17185,-1.24999 0.25779,-2.70311 0.25781,-4.35937 -2e-5,-1.09374 -0.0781,-2.34374 -0.23438,-3.75 -0.15626,-1.40623 -0.39064,-2.51561 -0.70312,-3.32813 -0.37502,-0.98435 -0.89846,-1.75779 -1.57031,-2.32031 -0.65627,-0.56248 -1.49221,-0.84373 -2.50782,-0.84375 -1.10938,2e-5 -2.00001,0.30471 -2.67187,0.91406 -0.65626,0.6094 -1.16407,1.39846 -1.52344,2.36719 -0.32813,0.89064 -0.5547,1.93752 -0.67969,3.14063 -0.12501,1.18751 -0.18751,2.4297 -0.1875,3.72656 -1e-5,1.70313 0.0547,3.1172 0.16407,4.24219 0.10936,1.10938 0.37499,2.22656 0.79687,3.35156 0.35937,0.96875 0.87499,1.73438 1.54688,2.29687 0.67186,0.56251 1.52342,0.84376 2.55468,0.84375 0.93749,1e-5 1.74218,-0.25781 2.41407,-0.77343 0.67185,-0.53125 1.2031,-1.30469 1.59375,-2.32032"
         style="font-size:48px;font-weight:bold;text-align:center;text-anchor:middle;fill:#ffffff;fill-opacity:1;stroke:#ffffff;stroke-opacity:1;font-family:Georgia;-inkscape-font-specification:Georgia Bold;stroke-width:1.13972300000000004;stroke-miterlimit:4;stroke-dasharray:none;stroke-linejoin:round"
         id="path3766"
         inkscape:connector-curvature="0" />
      <path
         d="m 376.11719,608.06349 c 1.15622,1.07814 2.03903,2.3672 2.64843,3.86718 0.60935,1.50002 0.91404,3.12502 0.91407,4.875 -3e-5,1.73439 -0.30472,3.37501 -0.91407,4.92188 -0.59377,1.53125 -1.46877,2.84375 -2.625,3.9375 -1.23439,1.17188 -2.71096,2.07031 -4.42968,2.69531 -1.70315,0.625 -3.65627,0.9375 -5.85938,0.9375 -1.90626,0 -3.66407,-0.27344 -5.27344,-0.82031 -1.59375,-0.54687 -3.00781,-1.36719 -4.24218,-2.46094 -1.18751,-1.04687 -2.12501,-2.33593 -2.8125,-3.86719 -0.6875,-1.54686 -1.03125,-3.27342 -1.03125,-5.17968 0,-1.87499 0.29687,-3.53905 0.89062,-4.99219 0.60937,-1.46873 1.51562,-2.77342 2.71875,-3.91406 1.15625,-1.09373 2.57812,-1.93748 4.26563,-2.53125 1.70311,-0.60935 3.60155,-0.91404 5.69531,-0.91407 2.18748,3e-5 4.10936,0.30472 5.76562,0.91407 1.67186,0.59377 3.10154,1.43752 4.28907,2.53125 m -6,16.24218 c 0.34373,-0.87499 0.59373,-1.93749 0.75,-3.1875 0.17185,-1.24999 0.25779,-2.70311 0.25781,-4.35937 -2e-5,-1.09374 -0.0781,-2.34374 -0.23438,-3.75 -0.15626,-1.40623 -0.39064,-2.51561 -0.70312,-3.32813 -0.37502,-0.98435 -0.89846,-1.75779 -1.57031,-2.32031 -0.65627,-0.56248 -1.49221,-0.84373 -2.50782,-0.84375 -1.10938,2e-5 -2.00001,0.30471 -2.67187,0.91406 -0.65626,0.6094 -1.16407,1.39846 -1.52344,2.36719 -0.32813,0.89064 -0.5547,1.93752 -0.67969,3.14063 -0.12501,1.18751 -0.18751,2.4297 -0.1875,3.72656 -1e-5,1.70313 0.0547,3.1172 0.16407,4.24219 0.10936,1.10938 0.37499,2.22656 0.79687,3.35156 0.35937,0.96875 0.87499,1.73438 1.54688,2.29687 0.67186,0.56251 1.52342,0.84376 2.55468,0.84375 0.93749,1e-5 1.74218,-0.25781 2.41407,-0.77343 0.67185,-0.53125 1.2031,-1.30469 1.59375,-2.32032"
         style="font-size:48px;font-weight:bold;text-align:center;text-anchor:middle;fill:#ffffff;fill-opacity:1;stroke:#ffffff;stroke-opacity:1;font-family:Georgia;-inkscape-font-specification:Georgia Bold;stroke-width:1.13972300000000004;stroke-miterlimit:4;stroke-dasharray:none;stroke-linejoin:round"
         id="path3768"
         inkscape:connector-curvature="0" />
      <path
         d="m 400.1875,627.46974 c -1.00002,0.4375 -2.07033,0.82812 -3.21094,1.17187 -1.14064,0.35938 -2.53126,0.53906 -4.17187,0.53906 -2.43751,0 -4.25001,-0.59375 -5.4375,-1.78125 -1.17188,-1.18749 -1.75782,-2.8828 -1.75782,-5.08593 l 0,-14.39063 -4.21875,0 0,-2.53125 4.3125,0 0,-7.10156 7.61719,0 0,7.10156 6.5625,0 0,2.53125 -6.51562,0 0,12.84375 c -10e-6,1.82813 0.24999,3.12501 0.75,3.89063 0.51561,0.76563 1.42967,1.14844 2.74218,1.14843 0.42186,1e-5 1.0078,-0.0312 1.75782,-0.0937 0.74998,-0.0625 1.27342,-0.1328 1.57031,-0.21093 l 0,1.96875"
         style="font-size:48px;font-weight:bold;text-align:center;text-anchor:middle;fill:#ffffff;fill-opacity:1;stroke:#ffffff;stroke-opacity:1;font-family:Georgia;-inkscape-font-specification:Georgia Bold;stroke-width:1.13972300000000004;stroke-miterlimit:4;stroke-dasharray:none;stroke-linejoin:round"
         id="path3770"
         inkscape:connector-curvature="0" />
      <path
         d="m 427.07031,622.9463 c -0.5469,0.89063 -1.21096,1.73438 -1.99219,2.53125 -0.76564,0.78125 -1.64064,1.45313 -2.625,2.01562 -1.04689,0.59376 -2.10939,1.03907 -3.1875,1.33594 -1.06251,0.3125 -2.28907,0.46875 -3.67968,0.46875 -2.31252,0 -4.31251,-0.32812 -6,-0.98437 -1.67188,-0.65625 -3.0547,-1.53906 -4.14844,-2.64844 -1.09375,-1.10937 -1.91407,-2.41406 -2.46094,-3.91406 -0.53125,-1.51562 -0.79687,-3.15624 -0.79687,-4.92188 0,-1.59373 0.28906,-3.11717 0.86718,-4.57031 0.59375,-1.46873 1.42969,-2.77342 2.50782,-3.91406 1.06249,-1.10936 2.39843,-2.00779 4.00781,-2.69532 1.62499,-0.68747 3.43749,-1.03122 5.4375,-1.03125 2.18748,3e-5 3.98436,0.26565 5.39062,0.79688 1.40623,0.53127 2.5703,1.26565 3.49219,2.20312 0.8906,0.89065 1.53904,1.94534 1.94531,3.16407 0.40623,1.20314 0.60935,2.46876 0.60938,3.79687 l 0,1.52344 -15.84375,0 c -10e-6,3.20313 0.61718,5.64063 1.85156,7.3125 1.23436,1.67188 3.1953,2.50781 5.88281,2.50781 1.46874,0 2.78905,-0.39843 3.96094,-1.19531 1.17185,-0.8125 2.17185,-1.83593 3,-3.07031 l 1.78125,1.28906 m -8.95312,-8.90625 c -2e-5,-0.93749 -0.0469,-1.89842 -0.14063,-2.88281 -0.0938,-0.98436 -0.25783,-1.78905 -0.49219,-2.41407 -0.26564,-0.73435 -0.63282,-1.28904 -1.10156,-1.66406 -0.45314,-0.37498 -1.03126,-0.56248 -1.73437,-0.5625 -1.20314,2e-5 -2.16408,0.6094 -2.88282,1.82813 -0.71876,1.21877 -1.10938,3.14845 -1.17187,5.78906 l 7.52344,-0.0937"
         style="font-size:48px;font-weight:bold;text-align:center;text-anchor:middle;fill:#ffffff;fill-opacity:1;stroke:#ffffff;stroke-opacity:1;font-family:Georgia;-inkscape-font-specification:Georgia Bold;stroke-width:1.13972300000000004;stroke-miterlimit:4;stroke-dasharray:none;stroke-linejoin:round"
         id="path3772"
         inkscape:connector-curvature="0" />
      <path
         d="m 452.6875,609.58692 c -2e-5,1.18752 -0.36721,2.2344 -1.10156,3.14063 -0.7344,0.89064 -1.70315,1.33595 -2.90625,1.33594 -1.14065,10e-6 -2.1094,-0.28905 -2.90625,-0.86719 -0.78127,-0.57811 -1.17189,-1.42967 -1.17188,-2.55469 -1e-5,-0.54685 0.039,-0.96873 0.11719,-1.26562 0.0781,-0.31248 0.14842,-0.60155 0.21094,-0.86719 -0.71877,0.0313 -1.47658,0.28127 -2.27344,0.75 -0.79689,0.46877 -1.50001,1.09377 -2.10938,1.875 l 0,12.86719 c -1e-5,0.54688 0.0859,1 0.25782,1.35937 0.17186,0.35938 0.46092,0.64063 0.86718,0.84375 0.34374,0.17188 0.89843,0.32032 1.66407,0.44531 0.78123,0.10938 1.34373,0.17188 1.6875,0.1875 l 0,1.71094 -15.67969,0 0,-1.71094 c 0.39062,-0.0312 0.78125,-0.0703 1.17187,-0.11718 0.40625,-0.0625 0.75,-0.14063 1.03125,-0.23438 0.5,-0.17187 0.84375,-0.4375 1.03125,-0.79687 0.1875,-0.35937 0.28125,-0.82812 0.28125,-1.40625 l 0,-13.64063 c 0,-0.56248 -0.13281,-1.06248 -0.39843,-1.5 -0.26563,-0.4531 -0.58594,-0.81248 -0.96094,-1.07812 -0.28125,-0.18748 -0.64063,-0.34373 -1.07813,-0.46875 -0.42187,-0.12498 -0.89062,-0.21092 -1.40625,-0.25782 l 0,-1.71093 11.17969,-0.60938 0.35156,0.35156 0,3.39844 0.0937,0 c 1.07812,-1.24998 2.21874,-2.22654 3.42188,-2.92969 1.21873,-0.71872 2.48436,-1.0781 3.79687,-1.07812 1.45311,2e-5 2.61717,0.45315 3.49219,1.35937 0.8906,0.89065 1.33592,2.0469 1.33594,3.46875"
         style="font-size:48px;font-weight:bold;text-align:center;text-anchor:middle;fill:#ffffff;fill-opacity:1;stroke:#ffffff;stroke-opacity:1;font-family:Georgia;-inkscape-font-specification:Georgia Bold;stroke-width:1.13972300000000004;stroke-miterlimit:4;stroke-dasharray:none;stroke-linejoin:round"
         id="path3774"
         inkscape:connector-curvature="0" />
    </g>
  </g>
</svg>
