<?xml version="1.0" encoding="UTF-8" standalone="no"?>
<!-- Created with Inkscape (http://www.inkscape.org/) -->

<svg
   xmlns:dc="http://purl.org/dc/elements/1.1/"
   xmlns:cc="http://creativecommons.org/ns#"
   xmlns:rdf="http://www.w3.org/1999/02/22-rdf-syntax-ns#"
   xmlns:svg="http://www.w3.org/2000/svg"
   xmlns="http://www.w3.org/2000/svg"
   xmlns:xlink="http://www.w3.org/1999/xlink"
   xmlns:sodipodi="http://sodipodi.sourceforge.net/DTD/sodipodi-0.dtd"
   xmlns:inkscape="http://www.inkscape.org/namespaces/inkscape"
   width="692.88965"
   height="692.54449"
   id="svg3185"
   version="1.1"
   inkscape:version="0.48.4 r9939"
   sodipodi:docname="gantt_tasks.svg">
  <defs
     id="defs3187">
    <linearGradient
       id="linearGradient3761">
      <stop
         style="stop-color:#110b02;stop-opacity:1;"
         offset="0"
         id="stop3763" />
      <stop
         id="stop3769"
         offset="0.3108108"
         style="stop-color:#e3dd00;stop-opacity:1;" />
      <stop
         style="stop-color:#3b3b3b;stop-opacity:1;"
         offset="1"
         id="stop3765" />
    </linearGradient>
    <linearGradient
       inkscape:collect="always"
       xlink:href="#linearGradient3761"
       id="linearGradient3767"
       x1="557.46582"
       y1="175.58513"
       x2="690.74286"
       y2="211.68797"
       gradientUnits="userSpaceOnUse" />
  </defs>
  <sodipodi:namedview
     id="base"
     pagecolor="#ffffff"
     bordercolor="#666666"
     borderopacity="1.0"
     inkscape:pageopacity="0.0"
     inkscape:pageshadow="2"
     inkscape:zoom="0.59105127"
     inkscape:cx="363.86222"
     inkscape:cy="331.79958"
     inkscape:document-units="px"
     inkscape:current-layer="layer1"
     showgrid="false"
     inkscape:window-width="1440"
     inkscape:window-height="824"
     inkscape:window-x="0"
     inkscape:window-y="24"
     inkscape:window-maximized="1"
     fit-margin-top="25"
     fit-margin-left="5"
     fit-margin-right="5"
     fit-margin-bottom="25" />
  <metadata
     id="metadata3190">
    <rdf:RDF>
      <cc:Work
         rdf:about="">
        <dc:format>image/svg+xml</dc:format>
        <dc:type
           rdf:resource="http://purl.org/dc/dcmitype/StillImage" />
        <dc:title />
      </cc:Work>
    </rdf:RDF>
  </metadata>
  <g
     inkscape:label="Layer 1"
     inkscape:groupmode="layer"
     id="layer1"
     transform="translate(-8.1850221,-165.4362)">
    <path
       inkscape:connector-curvature="0"
       id="path3796-0"
       style="fill:#ffffff;fill-opacity:1;stroke:#110b02;stroke-width:4;stroke-linecap:round;stroke-linejoin:round;stroke-miterlimit:4;stroke-opacity:1;stroke-dasharray:none"
       d="m 444.28063,340.49634 0.63789,47.69867 z m -153.79173,133.80479 0,71.64271 z m -227.967466,99.65829 68.635406,0 z m 328.469226,-320.62258 220.61365,0 0,87.1595 -220.61365,0 z m -132.36815,133.85214 225.51619,0 0,87.15949 -225.51619,0 z m -125.0144,158.75489 181.39349,0 0,71.59533 -181.39349,0 z m -85.794253,146.30352 598.108233,3.11284 z m 14.707577,-457.58761 0,491.82886 z M 30.654937,194.19286 c 219.250403,-2.20225 434.648183,-2.45691 644.682233,0 l 0,569.64982 -644.682233,0 z"
       sodipodi:nodetypes="ccccccccccccccccccccccccccccccccccc" />
    <g
       transform="matrix(4.8766948,0,0,5.056259,-2609.5624,-228.99173)"
       style="font-size:12px;font-style:normal;font-variant:normal;font-weight:normal;font-stretch:normal;text-align:start;line-height:125%;letter-spacing:0px;word-spacing:0px;writing-mode:lr-tb;text-anchor:start;fill:#000080;fill-opacity:1;stroke:#110b02;stroke-width:0.80553156000000004;stroke-miterlimit:4;stroke-opacity:1;font-family:Sans;-inkscape-font-specification:Sans"
       id="flowRoot3795">
      <path
         d="m 570.4375,185.08692 -1.80469,0 c -0.4844,-1.42185 -1.26565,-2.94528 -2.34375,-4.57031 -1.06252,-1.62497 -2.0469,-2.49997 -2.95312,-2.625 -0.50003,-0.0625 -1.11721,-0.11715 -1.85157,-0.16406 -0.73439,-0.0468 -1.3672,-0.0703 -1.89843,-0.0703 l -1.10157,0 0,26.08593 c -2e-5,0.56251 0.10155,1.06251 0.30469,1.5 0.20311,0.42188 0.60154,0.75782 1.19531,1.00782 0.35936,0.14062 0.91404,0.28906 1.66407,0.44531 0.7656,0.14063 1.41403,0.24219 1.94531,0.30469 l 0,1.82812 -18.53906,0 0,-1.82812 c 0.45311,-0.0469 1.08593,-0.10938 1.89843,-0.1875 0.82812,-0.0937 1.39062,-0.20313 1.6875,-0.32813 0.60937,-0.25 1.01562,-0.58593 1.21875,-1.00781 0.20312,-0.42187 0.30468,-0.92187 0.30469,-1.5 l 0,-26.32031 -1.10156,0 c -0.53126,3e-5 -1.16407,0.0235 -1.89844,0.0703 -0.73438,0.0469 -1.35157,0.10159 -1.85156,0.16406 -0.90626,0.12503 -1.89844,1.00003 -2.97656,2.625 -1.06251,1.62503 -1.83594,3.14846 -2.32032,4.57031 l -1.80468,0 0,-9.51562 32.22656,0 0,9.51562"
         style="font-size:48px;font-weight:bold;fill:#000080;stroke:#110b02;font-family:Georgia;-inkscape-font-specification:Georgia Bold;fill-opacity:1"
         id="path3772"
         inkscape:connector-curvature="0" />
      <path
         d="m 598.86719,208.33692 c -0.68753,0.29688 -1.50003,0.57032 -2.4375,0.82032 -0.93753,0.25 -1.92971,0.375 -2.97657,0.375 -1.92189,0 -3.33595,-0.28125 -4.24218,-0.84375 -0.90627,-0.57813 -1.52346,-1.39844 -1.85157,-2.46094 l -0.14062,0 c -0.53127,0.53125 -1.04689,0.98438 -1.54688,1.35937 -0.48438,0.37501 -1.00782,0.69532 -1.57031,0.96094 -0.73439,0.34375 -1.44532,0.59375 -2.13281,0.75 -0.67189,0.17188 -1.6172,0.25781 -2.83594,0.25781 -1.8125,0 -3.35938,-0.53125 -4.64062,-1.59375 -1.28125,-1.07812 -1.92188,-2.49999 -1.92188,-4.26562 0,-1.01562 0.14063,-1.87499 0.42188,-2.57813 0.28124,-0.71874 0.67968,-1.35155 1.19531,-1.89843 0.46875,-0.49999 1.00781,-0.91405 1.61719,-1.24219 0.62499,-0.32811 1.30468,-0.6328 2.03906,-0.91406 1.40624,-0.51562 3.09374,-1.04687 5.0625,-1.59375 1.96874,-0.56249 3.40623,-1.06249 4.3125,-1.5 l 0,-2.25 c -2e-5,-0.39061 -0.0313,-0.90623 -0.0937,-1.54688 -0.0625,-0.6406 -0.19533,-1.17967 -0.39844,-1.61719 -0.21876,-0.49997 -0.56251,-0.92185 -1.03125,-1.26562 -0.46876,-0.34373 -1.08595,-0.5156 -1.85156,-0.51563 -0.68751,3e-5 -1.26564,0.10159 -1.73438,0.30469 -0.45313,0.18752 -0.82032,0.38284 -1.10156,0.58594 0.0469,0.31252 0.17968,0.78908 0.39844,1.42969 0.21874,0.64064 0.32811,1.25783 0.32812,1.85156 -10e-6,0.26564 -0.0703,0.60158 -0.21093,1.00781 -0.14064,0.39064 -0.34376,0.70314 -0.60938,0.9375 -0.35938,0.31252 -0.76563,0.5547 -1.21875,0.72656 -0.43751,0.17189 -1.11719,0.25783 -2.03906,0.25782 -1.31251,1e-5 -2.30469,-0.31249 -2.97656,-0.9375 -0.67188,-0.64061 -1.00782,-1.46874 -1.00782,-2.48438 0,-0.87498 0.34375,-1.65623 1.03125,-2.34375 0.70313,-0.7031 1.55469,-1.28123 2.55469,-1.73437 0.98437,-0.46873 2.11718,-0.8281 3.39844,-1.07813 1.28124,-0.2656 2.46874,-0.39841 3.5625,-0.39844 1.51561,3e-5 2.90623,0.0938 4.17187,0.28125 1.26561,0.1719 2.40623,0.53909 3.42188,1.10157 0.96873,0.54689 1.73435,1.34377 2.29687,2.39062 0.57811,1.03127 0.86717,2.38283 0.86719,4.05469 -2e-5,1.76564 -0.0391,3.85939 -0.11719,6.28125 -0.0625,2.42188 -0.0938,4.01563 -0.0937,4.78125 -2e-5,0.70313 0.10154,1.25782 0.30469,1.66406 0.21873,0.40626 0.54685,0.71094 0.98438,0.91406 0.2656,0.12501 0.67966,0.20313 1.24218,0.23438 0.5781,0.0156 1.10154,0.0234 1.57032,0.0234 l 0,1.71093 m -11.64844,-12.21093 c -0.87502,0.29688 -1.7422,0.64063 -2.60156,1.03125 -0.85939,0.37501 -1.56251,0.77345 -2.10938,1.19531 -0.57813,0.43751 -1.03126,1.00001 -1.35937,1.6875 -0.32814,0.67188 -0.4922,1.46876 -0.49219,2.39062 -10e-6,1.21876 0.27343,2.10157 0.82031,2.64844 0.56249,0.54688 1.24999,0.82032 2.0625,0.82031 0.85936,1e-5 1.56249,-0.17187 2.10938,-0.51562 0.56248,-0.35937 1.05467,-0.79687 1.47656,-1.3125 l 0.0937,-7.94531"
         style="font-size:48px;font-weight:bold;fill:#000080;stroke:#110b02;font-family:Georgia;-inkscape-font-specification:Georgia Bold;fill-opacity:1"
         id="path3774"
         inkscape:connector-curvature="0" />
      <path
         d="m 611.52344,209.62599 c -1.51564,0 -3.00001,-0.22657 -4.45313,-0.67969 -1.4375,-0.4375 -2.55469,-0.90625 -3.35156,-1.40625 l -0.70313,1.59375 -1.82812,0 -0.30469,-8.74219 1.71094,0 c 0.23437,0.70313 0.625,1.50001 1.17187,2.39063 0.54688,0.875 1.17187,1.66406 1.875,2.36718 0.73437,0.70313 1.57031,1.29688 2.50782,1.78125 0.95311,0.48438 1.96874,0.72657 3.04687,0.72657 1.42186,0 2.47655,-0.27344 3.16406,-0.82032 0.70311,-0.56249 1.05468,-1.42187 1.05469,-2.57812 -10e-6,-0.625 -0.15626,-1.14062 -0.46875,-1.54688 -0.31251,-0.40624 -0.7422,-0.7578 -1.28906,-1.05468 -0.60939,-0.3125 -1.28126,-0.57812 -2.01563,-0.79688 -0.71876,-0.21874 -1.60938,-0.48436 -2.67187,-0.79687 -1.06251,-0.31249 -1.97657,-0.62499 -2.74219,-0.9375 -0.75,-0.32812 -1.53125,-0.83593 -2.34375,-1.52344 -0.70313,-0.60936 -1.26563,-1.34374 -1.6875,-2.20313 -0.42187,-0.85936 -0.63281,-1.88279 -0.63281,-3.07031 0,-2.2031 0.92187,-3.98435 2.76562,-5.34375 1.85937,-1.35935 4.28906,-2.03904 7.28907,-2.03906 1.42186,2e-5 2.72654,0.14846 3.91406,0.44531 1.20311,0.28128 2.21092,0.59377 3.02344,0.9375 l 0.49218,-1.38281 1.78125,0 0.375,7.99219 -1.66406,0 c -0.54689,-1.62499 -1.48439,-3.02342 -2.8125,-4.19532 -1.32814,-1.18747 -2.75782,-1.78122 -4.28906,-1.78125 -1.20314,3e-5 -2.14845,0.25003 -2.83594,0.75 -0.68751,0.50003 -1.03126,1.19534 -1.03125,2.08594 -10e-6,1.18752 0.49999,2.04689 1.5,2.57813 1.01562,0.53126 2.42968,1.03126 4.24219,1.5 2.79686,0.71876 4.84373,1.70314 6.14062,2.95312 1.29686,1.23439 1.94529,2.81251 1.94532,4.73438 -3e-5,2.5625 -1.00784,4.54687 -3.02344,5.95312 -2.00002,1.40625 -4.6172,2.10938 -7.85156,2.10938"
         style="font-size:48px;font-weight:bold;fill:#000080;stroke:#110b02;font-family:Georgia;-inkscape-font-specification:Georgia Bold;fill-opacity:1"
         id="path3776"
         inkscape:connector-curvature="0" />
      <path
         d="m 655.39844,208.82911 -11.03907,0 c -1.35939,-2.39062 -2.60158,-4.41406 -3.72656,-6.07031 -1.12501,-1.67187 -2.18751,-3.21874 -3.1875,-4.64063 l -1.40625,1.19532 0,5.10937 c -10e-6,0.56251 0.0781,1.02344 0.23438,1.38281 0.17186,0.35938 0.49217,0.62501 0.96093,0.79688 0.28124,0.125 0.60937,0.23438 0.98438,0.32812 0.37499,0.0938 0.74999,0.15626 1.125,0.1875 l 0,1.71094 -14.50781,0 0,-1.71094 c 0.39062,-0.0312 0.78125,-0.0703 1.17187,-0.11718 0.39063,-0.0625 0.73437,-0.14063 1.03125,-0.23438 0.5,-0.17187 0.83594,-0.4375 1.00781,-0.79687 0.1875,-0.35937 0.28125,-0.82812 0.28125,-1.40625 l 0,-26.13282 c 0,-0.51559 -0.11719,-1.04684 -0.35156,-1.59375 -0.21875,-0.56246 -0.54688,-0.98434 -0.98437,-1.26562 -0.29688,-0.18747 -0.74219,-0.34372 -1.33594,-0.46875 -0.59375,-0.12497 -1.13281,-0.20309 -1.61719,-0.23438 l 0,-1.71093 11.64844,-0.60938 0.35156,0.375 0,24.1875 c 1.15624,-1.03124 2.45311,-2.22655 3.89063,-3.58594 1.45311,-1.35935 2.61717,-2.48435 3.49218,-3.375 0.51561,-0.53123 0.79686,-0.92966 0.84375,-1.19531 0.0625,-0.28123 0.0937,-0.4531 0.0937,-0.51562 -2e-5,-0.28123 -0.25002,-0.51561 -0.75,-0.70313 -0.48439,-0.18748 -1.21876,-0.35154 -2.20312,-0.49219 l 0,-1.66406 11.90625,0 0,1.61719 c -1.56253,0.43752 -2.75784,0.85158 -3.58594,1.24219 -0.81252,0.37502 -1.70315,0.88283 -2.67187,1.52343 -0.64065,0.4219 -1.26565,0.86721 -1.875,1.33594 -0.59377,0.45314 -1.28127,1.02346 -2.0625,1.71094 1.53123,2.21876 2.94529,4.27345 4.24218,6.16406 1.29686,1.89063 2.65623,3.89063 4.07813,6 0.48435,0.73438 1.08591,1.22657 1.80469,1.47656 0.71872,0.25001 1.43747,0.40626 2.15625,0.46875 l 0,1.71094"
         style="font-size:48px;font-weight:bold;fill:#000080;stroke:#110b02;font-family:Georgia;-inkscape-font-specification:Georgia Bold;fill-opacity:1"
         id="path3778"
         inkscape:connector-curvature="0" />
      <path
         d="m 666.55469,209.62599 c -1.51564,0 -3.00001,-0.22657 -4.45313,-0.67969 -1.4375,-0.4375 -2.55469,-0.90625 -3.35156,-1.40625 l -0.70313,1.59375 -1.82812,0 -0.30469,-8.74219 1.71094,0 c 0.23437,0.70313 0.625,1.50001 1.17187,2.39063 0.54688,0.875 1.17187,1.66406 1.875,2.36718 0.73437,0.70313 1.57031,1.29688 2.50782,1.78125 0.95311,0.48438 1.96874,0.72657 3.04687,0.72657 1.42186,0 2.47655,-0.27344 3.16406,-0.82032 0.70311,-0.56249 1.05468,-1.42187 1.05469,-2.57812 -10e-6,-0.625 -0.15626,-1.14062 -0.46875,-1.54688 -0.31251,-0.40624 -0.7422,-0.7578 -1.28906,-1.05468 -0.60939,-0.3125 -1.28126,-0.57812 -2.01563,-0.79688 -0.71876,-0.21874 -1.60938,-0.48436 -2.67187,-0.79687 -1.06251,-0.31249 -1.97657,-0.62499 -2.74219,-0.9375 -0.75,-0.32812 -1.53125,-0.83593 -2.34375,-1.52344 -0.70313,-0.60936 -1.26563,-1.34374 -1.6875,-2.20313 -0.42187,-0.85936 -0.63281,-1.88279 -0.63281,-3.07031 0,-2.2031 0.92187,-3.98435 2.76562,-5.34375 1.85937,-1.35935 4.28906,-2.03904 7.28907,-2.03906 1.42186,2e-5 2.72654,0.14846 3.91406,0.44531 1.20311,0.28128 2.21092,0.59377 3.02344,0.9375 l 0.49218,-1.38281 1.78125,0 0.375,7.99219 -1.66406,0 c -0.54689,-1.62499 -1.48439,-3.02342 -2.8125,-4.19532 -1.32814,-1.18747 -2.75782,-1.78122 -4.28906,-1.78125 -1.20314,3e-5 -2.14845,0.25003 -2.83594,0.75 -0.68751,0.50003 -1.03126,1.19534 -1.03125,2.08594 -10e-6,1.18752 0.49999,2.04689 1.5,2.57813 1.01562,0.53126 2.42968,1.03126 4.24219,1.5 2.79686,0.71876 4.84373,1.70314 6.14062,2.95312 1.29686,1.23439 1.94529,2.81251 1.94532,4.73438 -3e-5,2.5625 -1.00784,4.54687 -3.02344,5.95312 -2.00002,1.40625 -4.6172,2.10938 -7.85156,2.10938"
         style="font-size:48px;font-weight:bold;fill:#000080;stroke:#110b02;font-family:Georgia;-inkscape-font-specification:Georgia Bold;fill-opacity:1"
         id="path3780"
         inkscape:connector-curvature="0" />
    </g>
    <rect
       style="fill:#a6a6a6;fill-opacity:1;stroke:#1ff000;stroke-width:4;stroke-linecap:round;stroke-linejoin:round;stroke-miterlimit:4;stroke-opacity:0;stroke-dasharray:none"
       id="rect3755"
       width="177.77786"
       height="67.535149"
       x="134.8936"
       y="547.79834" />
    <rect
       style="fill:#6193cf;fill-opacity:1;stroke:#1ff000;stroke-width:4;stroke-linecap:round;stroke-linejoin:round;stroke-miterlimit:4;stroke-opacity:0;stroke-dasharray:none"
       id="rect3757"
       width="222.07767"
       height="84.098267"
       x="260.66821"
       y="389.04166" />
    <rect
       style="fill:#000080;fill-opacity:1;stroke:#1ff000;stroke-width:4;stroke-linecap:round;stroke-linejoin:round;stroke-miterlimit:4;stroke-opacity:0;stroke-dasharray:none"
       id="rect3759"
       width="216.9808"
       height="83.37014"
       x="393.18671"
       y="255.06693" />
  </g>
</svg>
