<?xml version="1.0" encoding="UTF-8" standalone="no"?>
<!-- Created with Inkscape (http://www.inkscape.org/) -->

<svg
   xmlns:dc="http://purl.org/dc/elements/1.1/"
   xmlns:cc="http://creativecommons.org/ns#"
   xmlns:rdf="http://www.w3.org/1999/02/22-rdf-syntax-ns#"
   xmlns:svg="http://www.w3.org/2000/svg"
   xmlns="http://www.w3.org/2000/svg"
   xmlns:sodipodi="http://sodipodi.sourceforge.net/DTD/sodipodi-0.dtd"
   xmlns:inkscape="http://www.inkscape.org/namespaces/inkscape"
   width="703.125"
   height="702.62811"
   id="svg3428"
   version="1.1"
   inkscape:version="0.48.4 r9939"
   sodipodi:docname="header.svg">
  <defs
     id="defs3430" />
  <sodipodi:namedview
     id="base"
     pagecolor="#ffffff"
     bordercolor="#666666"
     borderopacity="1.0"
     inkscape:pageopacity="0.0"
     inkscape:pageshadow="2"
     inkscape:zoom="0.59105127"
     inkscape:cx="363.60977"
     inkscape:cy="199.31891"
     inkscape:document-units="px"
     inkscape:current-layer="layer1"
     showgrid="false"
     inkscape:window-width="1440"
     inkscape:window-height="824"
     inkscape:window-x="0"
     inkscape:window-y="24"
     inkscape:window-maximized="1"
     fit-margin-top="207"
     fit-margin-left="5"
     fit-margin-right="5"
     fit-margin-bottom="207" />
  <metadata
     id="metadata3433">
    <rdf:RDF>
      <cc:Work
         rdf:about="">
        <dc:format>image/svg+xml</dc:format>
        <dc:type
           rdf:resource="http://purl.org/dc/dcmitype/StillImage" />
        <dc:title />
      </cc:Work>
    </rdf:RDF>
  </metadata>
  <g
     inkscape:label="Layer 1"
     inkscape:groupmode="layer"
     id="layer1"
     transform="translate(-8.4374697,-22.871873)">
    <rect
       style="fill:#ffffff;fill-opacity:1;stroke:#110b02;stroke-width:5;stroke-linecap:round;stroke-linejoin:round;stroke-miterlimit:4;stroke-opacity:1;stroke-dasharray:none"
       id="rect3848"
       width="688.10321"
       height="283.64551"
       x="15.948389"
       y="232.36119" />
    <g
       transform="matrix(4.0575187,0,0,4.9568026,-145.17206,-2622.6469)"
       style="font-size:12px;font-style:normal;font-variant:normal;font-weight:normal;font-stretch:normal;text-align:start;line-height:125%;letter-spacing:0px;word-spacing:0px;writing-mode:lr-tb;text-anchor:start;fill:#110b02;fill-opacity:1;stroke:#110b02;stroke-width:0.44596308;stroke-miterlimit:4;stroke-opacity:1;font-family:Sans;-inkscape-font-specification:Sans"
       id="flowRoot3850">
      <path
         d="m 81.152344,620.47739 -14.980469,0 0,-1.52344 c 0.3255,-0.026 0.80076,-0.0651 1.425781,-0.11719 0.624978,-0.0521 1.054665,-0.13021 1.289063,-0.23437 0.481747,-0.19532 0.813778,-0.44922 0.996093,-0.76172 0.182268,-0.32552 0.273414,-0.73568 0.273438,-1.23047 l 0,-9.55078 -11.835938,0 0,9.33593 c -1.2e-5,0.44272 0.09113,0.83985 0.273438,1.19141 0.1953,0.35157 0.52082,0.625 0.976562,0.82031 0.247382,0.10417 0.670559,0.21485 1.269532,0.33203 0.598943,0.11719 1.087223,0.18881 1.464843,0.21485 l 0,1.52344 -14.980468,0 0,-1.52344 c 0.325519,-0.013 0.800779,-0.0521 1.425781,-0.11719 0.638017,-0.0781 1.100257,-0.16927 1.386719,-0.27344 0.468745,-0.16927 0.794266,-0.42317 0.976562,-0.76172 0.182287,-0.35156 0.273432,-0.76171 0.273438,-1.23046 l 0,-19.60938 c -6e-6,-0.45571 -0.08464,-0.83982 -0.253907,-1.15234 -0.156255,-0.31248 -0.488285,-0.58592 -0.996093,-0.82032 -0.377608,-0.16924 -0.872399,-0.31898 -1.484375,-0.44921 -0.611981,-0.14321 -1.054689,-0.22784 -1.328125,-0.25391 l 0,-1.52344 14.980468,0 0,1.52344 c -0.403661,0.0261 -0.885432,0.0912 -1.445312,0.19531 -0.55991,0.10419 -0.989597,0.20185 -1.289063,0.29297 -0.507825,0.1693 -0.846366,0.44273 -1.015625,0.82031 -0.156262,0.36461 -0.234387,0.75524 -0.234375,1.17188 l 0,8.28125 11.835938,0 0,-8.08594 c -2.4e-5,-0.45571 -0.08466,-0.83982 -0.253906,-1.15234 -0.169295,-0.31248 -0.507836,-0.58592 -1.015625,-0.82032 -0.338564,-0.15622 -0.794293,-0.29945 -1.367188,-0.42968 -0.559917,-0.14321 -1.009135,-0.23435 -1.347656,-0.27344 l 0,-1.52344 14.980469,0 0,1.52344 c -0.416702,0.0261 -0.885451,0.0847 -1.40625,0.17578 -0.520867,0.0781 -0.989616,0.18232 -1.40625,0.3125 -0.494824,0.1693 -0.826855,0.43622 -0.996094,0.80078 -0.169302,0.36461 -0.253937,0.76174 -0.253906,1.19141 l 0,19.6289 c -3.1e-5,0.46876 0.0846,0.86589 0.253906,1.19141 0.169239,0.32552 0.50127,0.59896 0.996094,0.82031 0.312467,0.13021 0.761685,0.2474 1.347656,0.35157 0.598924,0.10416 1.087205,0.16927 1.464844,0.19531 l 0,1.52344"
         style="font-size:40px;font-weight:bold;text-align:center;text-anchor:middle;fill:#110b02;fill-opacity:1;stroke:#110b02;font-family:Georgia;-inkscape-font-specification:Georgia Bold"
         id="path3756"
         inkscape:connector-curvature="0" />
      <path
         d="m 104.66797,615.80942 c -0.45575,0.74219 -1.00914,1.44531 -1.66016,2.10937 -0.63804,0.65104 -1.3672,1.21094 -2.1875,1.67969 -0.872411,0.49479 -1.757827,0.86588 -2.656248,1.11328 -0.885431,0.26042 -1.907565,0.39062 -3.066406,0.39063 -1.927094,-10e-6 -3.593759,-0.27344 -5,-0.82032 -1.393235,-0.54687 -2.545578,-1.28255 -3.457031,-2.20703 -0.911462,-0.92447 -1.595055,-2.01171 -2.050781,-3.26172 -0.44271,-1.26301 -0.664064,-2.6302 -0.664063,-4.10156 -10e-7,-1.32811 0.240884,-2.59764 0.722656,-3.80859 0.49479,-1.22395 1.191403,-2.31119 2.089844,-3.26172 0.885412,-0.92446 1.998692,-1.67316 3.339844,-2.2461 1.354158,-0.57289 2.864573,-0.85935 4.53125,-0.85937 1.822903,2e-5 3.320297,0.22137 4.492187,0.66406 1.171858,0.44273 2.141908,1.05471 2.910158,1.83594 0.74217,0.7422 1.28253,1.62111 1.62109,2.63672 0.33852,1.00262 0.50779,2.0573 0.50782,3.16406 l 0,1.26953 -13.20313,0 c -8e-6,2.66928 0.514314,4.70053 1.542969,6.09375 1.028635,1.39323 2.662748,2.08985 4.902343,2.08985 1.223943,0 2.324202,-0.33203 3.300778,-0.9961 0.97655,-0.67708 1.80988,-1.52994 2.5,-2.55859 l 1.48438,1.07422 m -7.460939,-7.42188 c -1.4e-5,-0.78124 -0.03908,-1.58202 -0.117187,-2.40234 -0.07814,-0.8203 -0.214858,-1.49087 -0.410157,-2.01172 -0.221368,-0.61196 -0.527357,-1.0742 -0.917968,-1.38672 -0.377617,-0.31248 -0.859388,-0.46873 -1.445313,-0.46875 -1.002615,2e-5 -1.803395,0.50783 -2.402344,1.52344 -0.598967,1.01564 -0.924487,2.62371 -0.976562,4.82422 l 6.269531,-0.0781"
         style="font-size:40px;font-weight:bold;text-align:center;text-anchor:middle;fill:#110b02;fill-opacity:1;stroke:#110b02;font-family:Georgia;-inkscape-font-specification:Georgia Bold"
         id="path3758"
         inkscape:connector-curvature="0" />
      <path
         d="m 128.88672,620.06723 c -0.57294,0.24739 -1.25002,0.47526 -2.03125,0.68359 -0.78127,0.20834 -1.60809,0.3125 -2.48047,0.3125 -1.60158,0 -2.77996,-0.23437 -3.53516,-0.70312 -0.75522,-0.48177 -1.26954,-1.16537 -1.54296,-2.05078 l -0.11719,0 c -0.44272,0.44271 -0.87241,0.82031 -1.28906,1.13281 -0.40366,0.3125 -0.83986,0.57943 -1.3086,0.80078 -0.61199,0.28646 -1.20444,0.49479 -1.77734,0.625 -0.55991,0.14323 -1.34767,0.21484 -2.36328,0.21484 -1.51043,0 -2.79949,-0.4427 -3.86719,-1.32812 -1.06771,-0.89844 -1.60157,-2.08333 -1.60156,-3.55469 -1e-5,-0.84635 0.11718,-1.56249 0.35156,-2.14844 0.23437,-0.59895 0.5664,-1.12629 0.99609,-1.58203 0.39062,-0.41666 0.83984,-0.76171 1.34766,-1.03515 0.52083,-0.27343 1.08723,-0.52734 1.69922,-0.76172 1.17187,-0.42968 2.57811,-0.87239 4.21875,-1.32813 1.64061,-0.46874 2.83853,-0.8854 3.59375,-1.25 l 0,-1.875 c -2e-5,-0.3255 -0.0261,-0.75519 -0.0781,-1.28906 -0.0521,-0.53384 -0.16277,-0.98306 -0.33203,-1.34766 -0.1823,-0.41665 -0.46876,-0.76821 -0.85937,-1.05468 -0.39064,-0.28644 -0.90496,-0.42967 -1.54297,-0.42969 -0.57293,2e-5 -1.0547,0.0847 -1.44531,0.25391 -0.37762,0.15626 -0.68361,0.31902 -0.91797,0.48828 0.039,0.26043 0.14973,0.65757 0.33203,1.1914 0.18228,0.53387 0.27343,1.0482 0.27344,1.54297 -1e-5,0.22137 -0.0586,0.50132 -0.17579,0.83985 -0.11719,0.32553 -0.28646,0.58595 -0.50781,0.78125 -0.29949,0.26042 -0.63803,0.46225 -1.01562,0.60546 -0.36459,0.14325 -0.931,0.21486 -1.69922,0.21485 -1.09376,1e-5 -1.92058,-0.26041 -2.48047,-0.78125 -0.5599,-0.53384 -0.83985,-1.22395 -0.83984,-2.07031 -1e-5,-0.72916 0.28645,-1.3802 0.85937,-1.95313 0.58593,-0.58592 1.29557,-1.06769 2.12891,-1.44531 0.8203,-0.39061 1.76431,-0.69009 2.83203,-0.89844 1.0677,-0.22133 2.05728,-0.33201 2.96875,-0.33203 1.26301,2e-5 2.42186,0.0781 3.47656,0.23437 1.05467,0.14325 2.00519,0.44924 2.85156,0.91797 0.80728,0.45575 1.4453,1.11981 1.91407,1.99219 0.48175,0.85939 0.72263,1.98569 0.72265,3.37891 -2e-5,1.47136 -0.0326,3.21615 -0.0977,5.23437 -0.0521,2.01824 -0.0782,3.34636 -0.0781,3.98438 -2e-5,0.58594 0.0846,1.04818 0.25391,1.38672 0.18227,0.33854 0.4557,0.59245 0.82031,0.76171 0.22133,0.10417 0.56638,0.16928 1.03516,0.19532 0.48174,0.013 0.91794,0.0195 1.30859,0.0195 l 0,1.42578 m -9.70703,-10.17578 c -0.72918,0.2474 -1.45184,0.53386 -2.16797,0.85937 -0.71616,0.31251 -1.30209,0.64454 -1.75781,0.9961 -0.48178,0.36459 -0.85939,0.83334 -1.13282,1.40625 -0.27344,0.5599 -0.41016,1.22396 -0.41015,1.99218 -1e-5,1.01563 0.22785,1.75131 0.68359,2.20704 0.46874,0.45573 1.04166,0.68359 1.71875,0.68359 0.71614,0 1.30207,-0.14323 1.75781,-0.42969 0.46874,-0.29947 0.8789,-0.66406 1.23047,-1.09375 l 0.0781,-6.62109"
         style="font-size:40px;font-weight:bold;text-align:center;text-anchor:middle;fill:#110b02;fill-opacity:1;stroke:#110b02;font-family:Georgia;-inkscape-font-specification:Georgia Bold"
         id="path3760"
         inkscape:connector-curvature="0" />
      <path
         d="m 155.64453,620.06723 -9.62891,0.56641 -0.29296,-0.27344 0,-1.79688 -0.13672,-0.0391 c -0.63804,0.69011 -1.50392,1.29557 -2.59766,1.81641 -1.08074,0.50781 -2.17449,0.76171 -3.28125,0.76172 -2.63021,-10e-6 -4.79818,-0.97657 -6.50391,-2.92969 -1.70573,-1.95312 -2.55859,-4.47916 -2.55859,-7.57813 0,-2.74738 0.95052,-5.10415 2.85156,-7.07031 1.91406,-1.96613 4.22526,-2.9492 6.9336,-2.94922 1.06769,2e-5 2.0703,0.12372 3.00781,0.3711 0.93748,0.23439 1.68618,0.51434 2.24609,0.83984 l 0,-6.38672 c -1e-5,-0.48175 -0.0977,-0.93096 -0.29297,-1.34766 -0.19532,-0.42966 -0.45574,-0.76169 -0.78125,-0.99609 -0.40366,-0.28643 -0.91147,-0.48825 -1.52343,-0.60547 -0.59897,-0.13018 -1.20444,-0.22132 -1.81641,-0.27344 l 0,-1.42578 10.54688,-0.50781 0.29296,0.3125 0,25.60547 c -2e-5,0.49479 0.0781,0.91146 0.23438,1.25 0.16925,0.33854 0.43617,0.60547 0.80078,0.80078 0.27341,0.14323 0.67055,0.2474 1.19141,0.3125 0.53383,0.0651 0.97002,0.10417 1.30859,0.11719 l 0,1.42578 m -9.96094,-3.47656 0,-11.03516 c -0.0912,-0.29946 -0.22137,-0.63149 -0.39062,-0.99609 -0.15627,-0.36457 -0.37762,-0.70962 -0.66406,-1.03516 -0.26044,-0.27342 -0.612,-0.51431 -1.05469,-0.72266 -0.4297,-0.20831 -0.91798,-0.31248 -1.46485,-0.3125 -1.30209,2e-5 -2.3698,0.7357 -3.20312,2.20704 -0.83334,1.47136 -1.25001,3.54818 -1.25,6.23046 -1e-5,1.0547 0.0716,2.00522 0.21484,2.85157 0.15624,0.83334 0.42317,1.59505 0.80078,2.28515 0.3776,0.69011 0.85937,1.23047 1.44532,1.6211 0.59894,0.39062 1.31509,0.58594 2.14843,0.58593 0.79426,10e-6 1.45181,-0.14973 1.97266,-0.44921 0.52082,-0.3125 1.00259,-0.72266 1.44531,-1.23047"
         style="font-size:40px;font-weight:bold;text-align:center;text-anchor:middle;fill:#110b02;fill-opacity:1;stroke:#110b02;font-family:Georgia;-inkscape-font-specification:Georgia Bold"
         id="path3762"
         inkscape:connector-curvature="0" />
      <path
         d="m 177.94922,615.80942 c -0.45575,0.74219 -1.00914,1.44531 -1.66016,2.10937 -0.63804,0.65104 -1.3672,1.21094 -2.1875,1.67969 -0.87241,0.49479 -1.75783,0.86588 -2.65625,1.11328 -0.88543,0.26042 -1.90756,0.39062 -3.0664,0.39063 -1.9271,-10e-6 -3.59376,-0.27344 -5,-0.82032 -1.39324,-0.54687 -2.54558,-1.28255 -3.45704,-2.20703 -0.91146,-0.92447 -1.59505,-2.01171 -2.05078,-3.26172 -0.44271,-1.26301 -0.66406,-2.6302 -0.66406,-4.10156 0,-1.32811 0.24089,-2.59764 0.72266,-3.80859 0.49479,-1.22395 1.1914,-2.31119 2.08984,-3.26172 0.88541,-0.92446 1.99869,-1.67316 3.33984,-2.2461 1.35416,-0.57289 2.86458,-0.85935 4.53125,-0.85937 1.82291,2e-5 3.3203,0.22137 4.49219,0.66406 1.17186,0.44273 2.14191,1.05471 2.91016,1.83594 0.74217,0.7422 1.28253,1.62111 1.62109,2.63672 0.33852,1.00262 0.50779,2.0573 0.50781,3.16406 l 0,1.26953 -13.20312,0 c -1e-5,2.66928 0.51431,4.70053 1.54297,6.09375 1.02863,1.39323 2.66275,2.08985 4.90234,2.08985 1.22394,0 2.3242,-0.33203 3.30078,-0.9961 0.97655,-0.67708 1.80988,-1.52994 2.5,-2.55859 l 1.48438,1.07422 m -7.46094,-7.42188 c -1e-5,-0.78124 -0.0391,-1.58202 -0.11719,-2.40234 -0.0781,-0.8203 -0.21485,-1.49087 -0.41015,-2.01172 -0.22137,-0.61196 -0.52736,-1.0742 -0.91797,-1.38672 -0.37762,-0.31248 -0.85939,-0.46873 -1.44531,-0.46875 -1.00262,2e-5 -1.8034,0.50783 -2.40235,1.52344 -0.59896,1.01564 -0.92449,2.62371 -0.97656,4.82422 l 6.26953,-0.0781"
         style="font-size:40px;font-weight:bold;text-align:center;text-anchor:middle;fill:#110b02;fill-opacity:1;stroke:#110b02;font-family:Georgia;-inkscape-font-specification:Georgia Bold"
         id="path3764"
         inkscape:connector-curvature="0" />
      <path
         d="m 199.29687,604.6766 c -2e-5,0.9896 -0.306,1.862 -0.91796,2.61719 -0.612,0.7422 -1.41929,1.11329 -2.42188,1.11328 -0.95054,10e-6 -1.75783,-0.24087 -2.42187,-0.72265 -0.65106,-0.48176 -0.97658,-1.1914 -0.97657,-2.12891 -1e-5,-0.45571 0.0325,-0.80728 0.0977,-1.05469 0.0651,-0.2604 0.12368,-0.50128 0.17578,-0.72265 -0.59897,0.026 -1.23048,0.23439 -1.89453,0.625 -0.66407,0.39064 -1.25001,0.91147 -1.75781,1.5625 l 0,10.72265 c -1e-5,0.45574 0.0716,0.83334 0.21484,1.13282 0.14322,0.29948 0.3841,0.53385 0.72266,0.70312 0.28644,0.14323 0.74868,0.26693 1.38672,0.37109 0.65102,0.0911 1.11977,0.14323 1.40625,0.15625 l 0,1.42579 -13.06641,0 0,-1.42579 c 0.32552,-0.026 0.65104,-0.0586 0.97656,-0.0977 0.33854,-0.0521 0.625,-0.11719 0.85938,-0.19531 0.41666,-0.14323 0.70312,-0.36459 0.85937,-0.66407 0.15625,-0.29947 0.23437,-0.6901 0.23438,-1.17187 l 0,-11.36719 c -1e-5,-0.46873 -0.11068,-0.8854 -0.33203,-1.25 -0.22136,-0.37759 -0.48829,-0.67707 -0.80079,-0.89844 -0.23437,-0.15623 -0.53385,-0.28644 -0.89843,-0.39062 -0.35157,-0.10415 -0.74219,-0.17577 -1.17188,-0.21485 l 0,-1.42578 9.31641,-0.50781 0.29297,0.29297 0,2.83203 0.0781,0 c 0.89843,-1.04165 1.84895,-1.85545 2.85156,-2.44141 1.01562,-0.59894 2.0703,-0.89841 3.16407,-0.89843 1.21092,2e-5 2.18097,0.37762 2.91015,1.13281 0.74217,0.7422 1.11326,1.70574 1.11328,2.89062"
         style="font-size:40px;font-weight:bold;text-align:center;text-anchor:middle;fill:#110b02;fill-opacity:1;stroke:#110b02;font-family:Georgia;-inkscape-font-specification:Georgia Bold"
         id="path3766"
         inkscape:connector-curvature="0" />
    </g>
  </g>
</svg>
