<?xml version="1.0" encoding="UTF-8" standalone="no"?>
<!-- Created with Inkscape (http://www.inkscape.org/) -->

<svg
   xmlns:dc="http://purl.org/dc/elements/1.1/"
   xmlns:cc="http://creativecommons.org/ns#"
   xmlns:rdf="http://www.w3.org/1999/02/22-rdf-syntax-ns#"
   xmlns:svg="http://www.w3.org/2000/svg"
   xmlns="http://www.w3.org/2000/svg"
   xmlns:sodipodi="http://sodipodi.sourceforge.net/DTD/sodipodi-0.dtd"
   xmlns:inkscape="http://www.inkscape.org/namespaces/inkscape"
   width="681.55103"
   height="681.10284"
   id="svg3602"
   version="1.1"
   inkscape:version="0.48.4 r9939"
   sodipodi:docname="master_task_list.svg">
  <defs
     id="defs3604" />
  <sodipodi:namedview
     id="base"
     pagecolor="#ffffff"
     bordercolor="#666666"
     borderopacity="1.0"
     inkscape:pageopacity="0.0"
     inkscape:pageshadow="2"
     inkscape:zoom="0.59105127"
     inkscape:cx="341.67424"
     inkscape:cy="176.5361"
     inkscape:document-units="px"
     inkscape:current-layer="layer1"
     showgrid="false"
     inkscape:window-width="1440"
     inkscape:window-height="824"
     inkscape:window-x="0"
     inkscape:window-y="24"
     inkscape:window-maximized="1"
     fit-margin-top="82"
     fit-margin-left="5"
     fit-margin-right="5"
     fit-margin-bottom="83" />
  <metadata
     id="metadata3607">
    <rdf:RDF>
      <cc:Work
         rdf:about="">
        <dc:format>image/svg+xml</dc:format>
        <dc:type
           rdf:resource="http://purl.org/dc/dcmitype/StillImage" />
        <dc:title />
      </cc:Work>
    </rdf:RDF>
  </metadata>
  <g
     inkscape:label="Layer 1"
     inkscape:groupmode="layer"
     id="layer1"
     transform="translate(-15.186503,-96.422829)">
    <g
       transform="matrix(6.0029947,0,0,6.0029947,-1666.2428,-4796.8076)"
       style="font-size:12px;font-style:normal;font-variant:normal;font-weight:normal;font-stretch:normal;text-align:start;line-height:125%;letter-spacing:0px;word-spacing:0px;writing-mode:lr-tb;text-anchor:start;fill:#000000;fill-opacity:1;stroke:#ffffff;stroke-width:0.66633409;stroke-miterlimit:4;stroke-opacity:1;font-family:Sans;-inkscape-font-specification:Sans"
       id="flowRoot3956">
      <path
         d="m 307.0805,855.83657 -1.344,0 c -1.624,4.032 -2.29601,4.368 -8.008,4.368 l -8.456,0 9.072,-8.624 c 4.424,-4.19999 6.384,-7.952 6.384,-12.208 0,-5.99199 -4.31201,-10.248 -10.36,-10.248 -2.8,0 -5.488,1.12001 -7.448,3.136 -2.184,2.184 -3.304,4.08801 -4.872,8.288 l 1.568,0 c 1.736,-3.47199 3.808,-5.04 6.832,-5.04 2.464,0 4.312,1.06401 5.544,3.08 0.672,1.176 1.12,2.74401 1.12,4.032 0,2.464 -1.064,5.54401 -2.856,8.288 -2.856,4.368 -4.81601,6.72001 -12.992,15.456 l 0,1.288 23.296,0 2.52,-11.816"
         style="font-size:56px;font-weight:bold;fill:#000000;stroke:#ffffff;font-family:Nimbus Roman No9 L;-inkscape-font-specification:Nimbus Roman No9 L Bold"
         id="path3768" />
      <path
         d="m 322.3125,829.12457 c -3.64,0 -7.336,2.46401 -9.632,6.496 -1.792,3.08 -3.024,8.34401 -3.024,12.992 0,11.53599 5.26401,19.768 12.712,19.768 7.22399,0 12.6,-8.34401 12.6,-19.6 0,-11.19998 -5.43201,-19.656 -12.656,-19.656 m 3.808,26.096 c 0,3.304 -0.448,7.67201 -0.952,9.184 -0.616,1.624 -1.512,2.408 -2.8,2.408 -2.8,0 -3.864,-3.304 -3.864,-11.592 l 0,-12.824 c 0,-8.45599 1.064,-11.704 3.752,-11.704 2.744,0 3.864,3.47201 3.864,11.704 l 0,12.824"
         style="font-size:56px;font-weight:bold;fill:#000000;stroke:#ffffff;font-family:Nimbus Roman No9 L;-inkscape-font-specification:Nimbus Roman No9 L Bold"
         id="path3770" />
      <path
         d="m 354.0645,829.12457 -14.112,6.104 0,1.456 c 0.504,-0.16799 0.952,-0.336 1.12,-0.448 1.512,-0.55999 2.912,-0.952 3.64,-0.952 1.4,0 2.016,1.23201 2.016,3.864 l 0,21.56 c 0,4.592 -1.12001,5.544 -6.664,5.6 l 0,1.344 21,0 0,-1.344 c -5.09599,-0.11199 -6.048,-0.952 -6.048,-5.264 l 0,-31.92 -0.952,0"
         style="font-size:56px;font-weight:bold;fill:#000000;stroke:#ffffff;font-family:Nimbus Roman No9 L;-inkscape-font-specification:Nimbus Roman No9 L Bold"
         id="path3772" />
      <path
         d="m 387.3845,853.37257 0,-24.248 -4.48,0 -3.304,4.312 c -7.16799,9.352 -10.864,14.50401 -14.224,19.824 l 0,6.328 13.888,0 0,8.064 8.12,0 0,-8.064 3.528,0 0,-6.216 -3.528,0 m -8.008,0 -11.704,0 11.704,-16.632 0,16.632"
         style="font-size:56px;font-weight:bold;fill:#000000;stroke:#ffffff;font-family:Nimbus Roman No9 L;-inkscape-font-specification:Nimbus Roman No9 L Bold"
         id="path3774" />
    </g>
    <g
       transform="matrix(4.3139246,0,0,5.4133762,-1191.1673,-4389.2401)"
       style="font-size:12px;font-style:normal;font-variant:normal;font-weight:normal;font-stretch:normal;text-align:start;line-height:125%;letter-spacing:0px;word-spacing:0px;writing-mode:lr-tb;text-anchor:start;fill:#110b02;fill-opacity:1;stroke:#ffffff;stroke-width:0.82773173;stroke-miterlimit:4;stroke-opacity:1;font-family:Sans;-inkscape-font-specification:Sans"
       id="flowRoot3964">
      <path
         d="m 289.45312,903.07052 32.25,0 0,6.82031 -11.60156,0 0,28.17188 -9.02344,0 0,-28.17188 -11.625,0 0,-6.82031"
         style="font-size:48px;font-weight:bold;text-align:center;text-anchor:middle;fill:#110b02;stroke:#ffffff;font-family:Sans;-inkscape-font-specification:Sans Bold"
         id="path3759" />
      <path
         d="m 332.08594,917.1799 c -1.85939,2e-5 -3.28127,0.67189 -4.26563,2.01562 -0.96876,1.32814 -1.45313,3.25002 -1.45312,5.76563 -10e-6,2.51563 0.48436,4.44532 1.45312,5.78906 0.98436,1.32813 2.40624,1.99219 4.26563,1.99219 1.8281,0 3.22654,-0.66406 4.19531,-1.99219 0.96873,-1.34374 1.4531,-3.27343 1.45312,-5.78906 -2e-5,-2.51561 -0.48439,-4.43749 -1.45312,-5.76563 -0.96877,-1.34373 -2.36721,-2.0156 -4.19531,-2.01562 m 0,-6 c 4.5156,2e-5 8.03904,1.21877 10.57031,3.65625 2.54685,2.43752 3.82028,5.81251 3.82031,10.125 -3e-5,4.31251 -1.27346,7.6875 -3.82031,10.125 -2.53127,2.4375 -6.05471,3.65625 -10.57031,3.65625 -4.53126,0 -8.07814,-1.21875 -10.64063,-3.65625 -2.54688,-2.4375 -3.82031,-5.81249 -3.82031,-10.125 0,-4.31249 1.27343,-7.68748 3.82031,-10.125 2.56249,-2.43748 6.10937,-3.65623 10.64063,-3.65625"
         style="font-size:48px;font-weight:bold;text-align:center;text-anchor:middle;fill:#110b02;stroke:#ffffff;font-family:Sans;-inkscape-font-specification:Sans Bold"
         id="path3761" />
      <path
         d="m 378.67969,909.89083 0,21.35157 3.23437,0 c 3.68748,0 6.49998,-0.91406 8.4375,-2.74219 1.9531,-1.82811 2.92966,-4.48436 2.92969,-7.96875 -3e-5,-3.46873 -0.96878,-6.10935 -2.90625,-7.92188 -1.93752,-1.81247 -4.75783,-2.71872 -8.46094,-2.71875 l -3.23437,0 m -9.02344,-6.82031 9.51562,0 c 5.31249,4e-5 9.26561,0.38285 11.85938,1.14844 2.60935,0.75003 4.84372,2.03128 6.70312,3.84375 1.6406,1.57815 2.85934,3.39846 3.65625,5.46094 0.79684,2.06252 1.19528,4.39845 1.19532,7.00781 -4e-5,2.64064 -0.39848,5.00001 -1.19532,7.07812 -0.79691,2.06251 -2.01565,3.88282 -3.65625,5.46094 -1.87503,1.81251 -4.12502,3.10157 -6.75,3.86719 -2.62502,0.75 -6.56251,1.125 -11.8125,1.125 l -9.51562,0 0,-34.99219"
         style="font-size:48px;font-weight:bold;text-align:center;text-anchor:middle;fill:#110b02;stroke:#ffffff;font-family:Sans;-inkscape-font-specification:Sans Bold"
         id="path3763" />
      <path
         d="m 421.61719,917.1799 c -1.85939,2e-5 -3.28127,0.67189 -4.26563,2.01562 -0.96876,1.32814 -1.45313,3.25002 -1.45312,5.76563 -10e-6,2.51563 0.48436,4.44532 1.45312,5.78906 0.98436,1.32813 2.40624,1.99219 4.26563,1.99219 1.8281,0 3.22654,-0.66406 4.19531,-1.99219 0.96873,-1.34374 1.4531,-3.27343 1.45312,-5.78906 -2e-5,-2.51561 -0.48439,-4.43749 -1.45312,-5.76563 -0.96877,-1.34373 -2.36721,-2.0156 -4.19531,-2.01562 m 0,-6 c 4.5156,2e-5 8.03904,1.21877 10.57031,3.65625 2.54685,2.43752 3.82028,5.81251 3.82031,10.125 -3e-5,4.31251 -1.27346,7.6875 -3.82031,10.125 -2.53127,2.4375 -6.05471,3.65625 -10.57031,3.65625 -4.53126,0 -8.07814,-1.21875 -10.64063,-3.65625 -2.54688,-2.4375 -3.82031,-5.81249 -3.82031,-10.125 0,-4.31249 1.27343,-7.68748 3.82031,-10.125 2.56249,-2.43748 6.10937,-3.65623 10.64063,-3.65625"
         style="font-size:48px;font-weight:bold;text-align:center;text-anchor:middle;fill:#110b02;stroke:#ffffff;font-family:Sans;-inkscape-font-specification:Sans Bold"
         id="path3765" />
    </g>
  </g>
</svg>
