<?xml version="1.0" encoding="UTF-8" standalone="no"?>
<!-- Created with Inkscape (http://www.inkscape.org/) -->

<svg
   xmlns:dc="http://purl.org/dc/elements/1.1/"
   xmlns:cc="http://creativecommons.org/ns#"
   xmlns:rdf="http://www.w3.org/1999/02/22-rdf-syntax-ns#"
   xmlns:svg="http://www.w3.org/2000/svg"
   xmlns="http://www.w3.org/2000/svg"
   xmlns:xlink="http://www.w3.org/1999/xlink"
   xmlns:sodipodi="http://sodipodi.sourceforge.net/DTD/sodipodi-0.dtd"
   xmlns:inkscape="http://www.inkscape.org/namespaces/inkscape"
   width="703.15625"
   height="737.78125"
   id="svg3356"
   version="1.1"
   inkscape:version="0.48.4 r9939"
   sodipodi:docname="set_working_hours.svg">
  <defs
     id="defs3358">
    <linearGradient
       id="linearGradient3825">
      <stop
         style="stop-color:#000000;stop-opacity:1;"
         offset="0"
         id="stop3827" />
      <stop
         style="stop-color:#000000;stop-opacity:0;"
         offset="1"
         id="stop3829" />
    </linearGradient>
    <linearGradient
       id="linearGradient3812">
      <stop
         style="stop-color:#110b02;stop-opacity:1;"
         offset="0"
         id="stop3814" />
      <stop
         style="stop-color:#000080;stop-opacity:1;"
         offset="1"
         id="stop3816" />
    </linearGradient>
    <linearGradient
       inkscape:collect="always"
       xlink:href="#linearGradient3812"
       id="linearGradient3798"
       x1="625.96075"
       y1="355.0437"
       x2="716.63916"
       y2="355.0437"
       gradientUnits="userSpaceOnUse" />
    <linearGradient
       inkscape:collect="always"
       xlink:href="#linearGradient3812"
       id="linearGradient3800"
       x1="524.15027"
       y1="338.66547"
       x2="609.22174"
       y2="338.66547"
       gradientUnits="userSpaceOnUse" />
    <linearGradient
       inkscape:collect="always"
       xlink:href="#linearGradient3812"
       id="linearGradient3802"
       x1="472.21216"
       y1="323.57834"
       x2="500.62387"
       y2="323.57834"
       gradientUnits="userSpaceOnUse" />
    <linearGradient
       inkscape:collect="always"
       xlink:href="#linearGradient3812"
       id="linearGradient3804"
       x1="371.58212"
       y1="323.57834"
       x2="464.25244"
       y2="323.57834"
       gradientUnits="userSpaceOnUse" />
    <linearGradient
       inkscape:collect="always"
       xlink:href="#linearGradient3812"
       id="linearGradient3806"
       x1="296.92105"
       y1="338.66547"
       x2="360.30261"
       y2="338.66547"
       gradientUnits="userSpaceOnUse" />
    <linearGradient
       inkscape:collect="always"
       xlink:href="#linearGradient3812"
       id="linearGradient3808"
       x1="186.84772"
       y1="339.73523"
       x2="279.66559"
       y2="339.73523"
       gradientUnits="userSpaceOnUse" />
    <linearGradient
       inkscape:collect="always"
       xlink:href="#linearGradient3812"
       id="linearGradient3810"
       x1="149.14882"
       y1="263.04514"
       x2="186.84772"
       y2="339.73523"
       gradientUnits="userSpaceOnUse" />
    <linearGradient
       inkscape:collect="always"
       xlink:href="#linearGradient3812"
       id="linearGradient3831"
       x1="264.2326"
       y1="435.83789"
       x2="279.41653"
       y2="575.83789"
       gradientUnits="userSpaceOnUse" />
    <linearGradient
       inkscape:collect="always"
       xlink:href="#linearGradient3812"
       id="linearGradient3833"
       gradientUnits="userSpaceOnUse"
       x1="264.2326"
       y1="435.83789"
       x2="279.41653"
       y2="575.83789" />
    <linearGradient
       inkscape:collect="always"
       xlink:href="#linearGradient3812"
       id="linearGradient3835"
       gradientUnits="userSpaceOnUse"
       x1="264.2326"
       y1="435.83789"
       x2="279.41653"
       y2="575.83789" />
    <linearGradient
       inkscape:collect="always"
       xlink:href="#linearGradient3812"
       id="linearGradient3837"
       gradientUnits="userSpaceOnUse"
       x1="264.2326"
       y1="435.83789"
       x2="279.41653"
       y2="575.83789" />
    <linearGradient
       inkscape:collect="always"
       xlink:href="#linearGradient3812"
       id="linearGradient3839"
       gradientUnits="userSpaceOnUse"
       x1="264.2326"
       y1="435.83789"
       x2="279.41653"
       y2="575.83789" />
    <linearGradient
       inkscape:collect="always"
       xlink:href="#linearGradient3812"
       id="linearGradient3841"
       gradientUnits="userSpaceOnUse"
       x1="264.2326"
       y1="435.83789"
       x2="279.41653"
       y2="575.83789" />
  </defs>
  <sodipodi:namedview
     id="base"
     pagecolor="#ffffff"
     bordercolor="#666666"
     borderopacity="1.0"
     inkscape:pageopacity="0.0"
     inkscape:pageshadow="2"
     inkscape:zoom="0.35"
     inkscape:cx="-629.18303"
     inkscape:cy="255.60657"
     inkscape:document-units="px"
     inkscape:current-layer="layer1"
     showgrid="false"
     inkscape:window-width="1440"
     inkscape:window-height="824"
     inkscape:window-x="0"
     inkscape:window-y="24"
     inkscape:window-maximized="1"
     fit-margin-top="215"
     fit-margin-left="5"
     fit-margin-right="5"
     fit-margin-bottom="215" />
  <metadata
     id="metadata3361">
    <rdf:RDF>
      <cc:Work
         rdf:about="">
        <dc:format>image/svg+xml</dc:format>
        <dc:type
           rdf:resource="http://purl.org/dc/dcmitype/StillImage" />
        <dc:title />
      </cc:Work>
    </rdf:RDF>
  </metadata>
  <g
     inkscape:label="Layer 1"
     inkscape:groupmode="layer"
     id="layer1"
     transform="translate(-18.46875,-50.1875)">
    <path
       inkscape:connector-curvature="0"
       id="path3756"
       style="font-size:36px;font-style:normal;font-variant:normal;font-weight:bold;font-stretch:normal;text-align:start;line-height:125%;letter-spacing:0px;word-spacing:0px;writing-mode:lr-tb;text-anchor:start;fill:url(#linearGradient3810);fill-opacity:1;stroke:#110b02;stroke-width:2;stroke-miterlimit:4;stroke-opacity:1;font-family:Sans;-inkscape-font-specification:Sans Bold"
       d="m 24.434539,270.82872 27.223203,0 19.034149,80.04662 18.886582,-80.04662 27.370767,0 18.88659,80.04662 19.03414,-80.04662 27.0019,0 -25.96905,110.14713 -32.75639,0 -19.99325,-83.73542 -19.771856,83.73542 -32.756426,0 -26.190359,-110.14713" />
    <path
       inkscape:connector-curvature="0"
       id="path3758"
       style="font-size:36px;font-style:normal;font-variant:normal;font-weight:bold;font-stretch:normal;text-align:start;line-height:125%;letter-spacing:0px;word-spacing:0px;writing-mode:lr-tb;text-anchor:start;fill:url(#linearGradient3808);fill-opacity:1;stroke:#110b02;stroke-width:2;stroke-miterlimit:4;stroke-opacity:1;font-family:Sans;-inkscape-font-specification:Sans Bold"
       d="m 233.36735,315.24169 c -5.85295,9e-5 -10.32865,2.11496 -13.42718,6.34472 -3.04943,4.18069 -4.57412,10.23027 -4.57412,18.14883 0,7.9186 1.52469,13.99282 4.57412,18.22257 3.09853,4.18065 7.57423,6.27098 13.42718,6.27098 5.75445,0 10.15637,-2.09033 13.20584,-6.27098 3.04934,-4.22975 4.57403,-10.30397 4.57407,-18.22257 -4e-5,-7.91856 -1.52473,-13.96814 -4.57407,-18.14883 -3.04947,-4.22976 -7.45139,-6.34463 -13.20584,-6.34472 m 0,-18.88658 c 14.21404,9e-5 25.30496,3.83641 33.27283,11.50902 8.01685,7.67274 12.02534,18.29644 12.02542,31.87111 -8e-5,13.57475 -4.00857,24.19845 -12.02542,31.87111 -7.96787,7.67265 -19.05879,11.50898 -33.27283,11.50902 -14.26336,-4e-5 -25.42805,-3.83637 -33.49418,-11.50902 -8.01697,-7.67266 -12.02546,-18.29636 -12.02546,-31.87111 0,-13.57467 4.00849,-24.19837 12.02546,-31.87111 8.06613,-7.67261 19.23082,-11.50893 33.49418,-11.50902" />
    <path
       inkscape:connector-curvature="0"
       id="path3760"
       style="font-size:36px;font-style:normal;font-variant:normal;font-weight:bold;font-stretch:normal;text-align:start;line-height:125%;letter-spacing:0px;word-spacing:0px;writing-mode:lr-tb;text-anchor:start;fill:url(#linearGradient3806);fill-opacity:1;stroke:#110b02;stroke-width:2;stroke-miterlimit:4;stroke-opacity:1;font-family:Sans;-inkscape-font-specification:Sans Bold"
       d="m 359.30245,320.84866 c -2.31168,-1.08199 -4.62331,-1.86893 -6.9349,-2.36082 -2.26253,-0.54096 -4.54957,-0.8115 -6.86112,-0.81154 -6.78742,4e-5 -12.0255,2.18874 -15.71426,6.56602 -3.63962,4.32822 -5.45944,10.54997 -5.4594,18.66528 l 0,38.06825 -26.41171,0 0,-82.62879 26.41171,0 0,13.57471 c 3.39367,-5.41013 7.27918,-9.34483 11.65659,-11.80412 4.42647,-2.50826 9.71374,-3.76245 15.86175,-3.76254 0.88527,9e-5 1.84433,0.0491 2.87726,0.14774 1.0328,0.0491 2.5329,0.19684 4.50034,0.44266 l 0.0739,23.90332" />
    <path
       inkscape:connector-curvature="0"
       id="path3762"
       style="font-size:36px;font-style:normal;font-variant:normal;font-weight:bold;font-stretch:normal;text-align:start;line-height:125%;letter-spacing:0px;word-spacing:0px;writing-mode:lr-tb;text-anchor:start;fill:url(#linearGradient3804);fill-opacity:1;stroke:#110b02;stroke-width:2;stroke-miterlimit:4;stroke-opacity:1;font-family:Sans;-inkscape-font-specification:Sans Bold"
       d="m 372.58211,266.18086 26.41171,0 0,62.48802 30.39556,-30.32182 30.6907,0 -40.3553,37.92073 43.52765,44.70806 -32.01863,0 -32.23998,-34.45323 0,34.45323 -26.41171,0 0,-114.79499" />
    <path
       inkscape:connector-curvature="0"
       id="path3764"
       style="font-size:36px;font-style:normal;font-variant:normal;font-weight:bold;font-stretch:normal;text-align:start;line-height:125%;letter-spacing:0px;word-spacing:0px;writing-mode:lr-tb;text-anchor:start;fill:url(#linearGradient3802);fill-opacity:1;stroke:#110b02;stroke-width:2;stroke-miterlimit:4;stroke-opacity:1;font-family:Sans;-inkscape-font-specification:Sans Bold"
       d="m 473.21217,298.34706 26.41171,0 0,82.62879 -26.41171,0 0,-82.62879 m 0,-32.1662 26.41171,0 0,21.5425 -26.41171,0 0,-21.5425" />
    <path
       inkscape:connector-curvature="0"
       id="path3766"
       style="font-size:36px;font-style:normal;font-variant:normal;font-weight:bold;font-stretch:normal;text-align:start;line-height:125%;letter-spacing:0px;word-spacing:0px;writing-mode:lr-tb;text-anchor:start;fill:url(#linearGradient3800);fill-opacity:1;stroke:#110b02;stroke-width:2;stroke-miterlimit:4;stroke-opacity:1;font-family:Sans;-inkscape-font-specification:Sans Bold"
       d="m 608.22172,330.66082 0,50.31503 -26.55927,0 0,-8.18909 0,-30.32182 c -5e-5,-7.13162 -0.17208,-12.04998 -0.5164,-14.75516 -0.29505,-2.70502 -0.83622,-4.69697 -1.62308,-5.9758 -1.03292,-1.72141 -2.43469,-3.04935 -4.20524,-3.9839 -1.77064,-0.98361 -3.78718,-1.47546 -6.04958,-1.47554 -5.50863,8e-5 -9.8368,2.13955 -12.98453,6.4185 -3.1478,4.22988 -4.72168,10.10734 -4.72164,17.63238 l 0,40.65043 -26.41171,0 0,-82.62879 26.41171,0 0,12.0992 c 3.98385,-4.81994 8.21365,-8.36117 12.68943,-10.6237 4.47566,-2.31155 9.41861,-3.46736 14.82891,-3.46745 9.54158,9e-5 16.77157,2.92654 21.69006,8.77932 4.96746,5.85296 7.45126,14.36174 7.45134,25.52639" />
    <path
       inkscape:connector-curvature="0"
       id="path3768"
       style="font-size:36px;font-style:normal;font-variant:normal;font-weight:bold;font-stretch:normal;text-align:start;line-height:125%;letter-spacing:0px;word-spacing:0px;writing-mode:lr-tb;text-anchor:start;fill:url(#linearGradient3798);fill-opacity:1;stroke:#110b02;stroke-width:2;stroke-miterlimit:4;stroke-opacity:1;font-family:Sans;-inkscape-font-specification:Sans Bold"
       d="m 689.07988,366.95848 c -3.63965,4.82003 -7.64814,8.36122 -12.02542,10.62371 -4.37741,2.26244 -9.44333,3.39366 -15.19778,3.39366 -10.08275,0 -18.41937,-3.95929 -25.00999,-11.87789 -6.59062,-7.96775 -9.88595,-18.0996 -9.88595,-30.39561 0,-12.34506 3.29533,-22.45232 9.88595,-30.32182 6.59062,-7.91847 14.92724,-11.87777 25.00999,-11.87785 5.75445,8e-5 10.82037,1.1313 15.19778,3.39367 4.37728,2.26252 8.38577,5.82835 12.02542,10.69748 l 0,-12.24677 26.55928,0 0,74.29213 c -9e-5,13.27962 -4.20533,23.41147 -12.61565,30.3956 -8.36134,7.03324 -20.5097,10.54988 -36.44519,10.54992 -5.16434,-4e-5 -10.15649,-0.39368 -14.97647,-1.18041 -4.82006,-0.78698 -9.66464,-1.99199 -14.53381,-3.61502 l 0,-20.58339 c 4.62322,2.65591 9.14816,4.62327 13.57471,5.90206 4.42651,1.32793 8.87766,1.9919 13.3534,1.99194 8.65631,-4e-5 15.00102,-1.89361 19.03415,-5.68074 4.033,-3.78718 6.04954,-9.71379 6.04958,-17.77996 l 0,-5.68071 m -17.41103,-51.42169 c -5.45949,8e-5 -9.71388,2.01662 -12.76322,6.04962 -3.04943,4.03312 -4.57412,9.73843 -4.57408,17.11594 -4e-5,7.57436 1.47546,13.32885 4.42651,17.26356 2.95101,3.88551 7.25459,5.82827 12.91079,5.82827 5.5085,0 9.78748,-2.01654 12.83695,-6.04962 3.04935,-4.03304 4.57404,-9.71375 4.57408,-17.04221 -4e-5,-7.37751 -1.52473,-13.08282 -4.57408,-17.11594 -3.04947,-4.033 -7.32845,-6.04954 -12.83695,-6.04962" />
    <g
       id="g3818"
       style="fill:url(#linearGradient3831);fill-opacity:1">
      <path
         d="m 33.804047,459.69454 28.403656,0 0,41.97837 41.904587,0 0,-41.97837 28.40365,0 0,110.14713 -28.40365,0 0,-46.70001 -41.904587,0 0,46.70001 -28.403656,0 0,-110.14713"
         style="font-size:36px;font-style:normal;font-variant:normal;font-weight:bold;font-stretch:normal;text-align:start;line-height:125%;letter-spacing:0px;word-spacing:0px;writing-mode:lr-tb;text-anchor:start;fill:url(#linearGradient3833);fill-opacity:1;stroke:#110b02;stroke-width:2;stroke-miterlimit:4;stroke-opacity:1;font-family:Sans;-inkscape-font-specification:Sans Bold"
         id="path3770"
         inkscape:connector-curvature="0" />
      <path
         d="m 198.5452,504.10751 c -5.85291,9e-5 -10.32866,2.11496 -13.42719,6.34472 -3.04943,4.18069 -4.57412,10.23027 -4.57408,18.14883 -4e-5,7.9186 1.52465,13.99282 4.57408,18.22257 3.09853,4.18065 7.57428,6.27098 13.42719,6.27098 5.75444,0 10.1564,-2.09033 13.20583,-6.27098 3.04934,-4.22975 4.57404,-10.30397 4.57412,-18.22257 -8e-5,-7.91856 -1.52478,-13.96814 -4.57412,-18.14883 -3.04943,-4.22976 -7.45139,-6.34463 -13.20583,-6.34472 m 0,-18.88658 c 14.21404,8e-5 25.30499,3.83641 33.27282,11.50902 8.01689,7.67274 12.02538,18.29644 12.02547,31.87111 -9e-5,13.57475 -4.00858,24.19845 -12.02547,31.87111 -7.96783,7.67265 -19.05878,11.50898 -33.27282,11.50902 -14.26336,-4e-5 -25.42806,-3.83637 -33.49418,-11.50902 -8.01698,-7.67266 -12.02543,-18.29636 -12.02543,-31.87111 0,-13.57467 4.00845,-24.19837 12.02543,-31.87111 8.06612,-7.67261 19.23082,-11.50894 33.49418,-11.50902"
         style="font-size:36px;font-style:normal;font-variant:normal;font-weight:bold;font-stretch:normal;text-align:start;line-height:125%;letter-spacing:0px;word-spacing:0px;writing-mode:lr-tb;text-anchor:start;fill:url(#linearGradient3835);fill-opacity:1;stroke:#110b02;stroke-width:2;stroke-miterlimit:4;stroke-opacity:1;font-family:Sans;-inkscape-font-specification:Sans Bold"
         id="path3772"
         inkscape:connector-curvature="0" />
      <path
         d="m 262.21363,537.67547 0,-50.46259 26.55927,0 0,8.26288 c -4e-5,4.47578 -0.0252,10.10734 -0.0739,16.89463 -0.0491,6.73823 -0.0739,11.23857 -0.0739,13.50097 -4e-5,6.63985 0.17207,11.43524 0.51644,14.38625 0.34416,2.90186 0.93442,5.01678 1.7706,6.34471 1.08203,1.72145 2.48375,3.04943 4.20524,3.9839 1.77055,0.9345 3.7871,1.40176 6.04958,1.40172 5.50855,4e-5 9.83672,-2.11488 12.98453,-6.34472 3.14772,-4.22976 4.7216,-10.10722 4.72164,-17.63239 l 0,-40.79795 26.41171,0 0,82.62879 -26.41171,0 0,-11.95168 c -3.98393,4.82003 -8.21373,8.38585 -12.68943,10.69749 -4.42655,2.26244 -9.32036,3.39367 -14.68134,3.39371 -9.54171,-4e-5 -16.82089,-2.92646 -21.83763,-8.77933 -4.96755,-5.85286 -7.45134,-14.36165 -7.45134,-25.52639"
         style="font-size:36px;font-style:normal;font-variant:normal;font-weight:bold;font-stretch:normal;text-align:start;line-height:125%;letter-spacing:0px;word-spacing:0px;writing-mode:lr-tb;text-anchor:start;fill:url(#linearGradient3837);fill-opacity:1;stroke:#110b02;stroke-width:2;stroke-miterlimit:4;stroke-opacity:1;font-family:Sans;-inkscape-font-specification:Sans Bold"
         id="path3774"
         inkscape:connector-curvature="0" />
      <path
         d="m 432.19286,509.71448 c -2.31172,-1.08199 -4.62335,-1.86894 -6.9349,-2.36083 -2.26253,-0.54095 -4.54957,-0.81149 -6.86116,-0.81153 -6.78742,4e-5 -12.02546,2.18874 -15.71422,6.56602 -3.63961,4.32822 -5.45944,10.54996 -5.4594,18.66528 l 0,38.06825 -26.41171,0 0,-82.62879 26.41171,0 0,13.57471 c 3.39363,-5.41013 7.27918,-9.34483 11.65655,-11.80412 4.42651,-2.50826 9.71374,-3.76246 15.86179,-3.76254 0.88523,8e-5 1.84434,0.0491 2.87726,0.14774 1.03281,0.0491 2.5329,0.19684 4.5003,0.44266 l 0.0739,23.90331"
         style="font-size:36px;font-style:normal;font-variant:normal;font-weight:bold;font-stretch:normal;text-align:start;line-height:125%;letter-spacing:0px;word-spacing:0px;writing-mode:lr-tb;text-anchor:start;fill:url(#linearGradient3839);fill-opacity:1;stroke:#110b02;stroke-width:2;stroke-miterlimit:4;stroke-opacity:1;font-family:Sans;-inkscape-font-specification:Sans Bold"
         id="path3776"
         inkscape:connector-curvature="0" />
      <path
         d="m 510.02623,489.79501 0,20.06699 c -5.6562,-2.36074 -11.11559,-4.13137 -16.37819,-5.31183 -5.26273,-1.18033 -10.23028,-1.77055 -14.90269,-1.77064 -5.01678,9e-5 -8.75477,0.63946 -11.21393,1.91821 -2.41001,1.22964 -3.61502,3.1478 -3.61498,5.75449 -4e-5,2.11496 0.90988,3.73803 2.7297,4.86921 1.86894,1.13127 5.18886,1.9674 9.9597,2.50835 l 4.6479,0.66397 c 13.52548,1.72149 22.62445,4.54957 27.29699,8.48423 4.67237,3.93474 7.0086,10.1073 7.00868,18.5177 -8e-5,8.80392 -3.24618,15.41914 -9.73838,19.84565 -6.49233,4.42655 -16.18152,6.63981 -29.06763,6.63985 -5.45944,-4e-5 -11.11559,-0.44266 -16.96842,-1.32798 -5.80372,-0.83613 -11.77952,-2.11492 -17.92748,-3.83633 l 0,-20.06699 c 5.26265,2.55758 10.64826,4.47574 16.15689,5.75449 5.55773,1.27879 11.18925,1.9182 16.89463,1.91816 5.16422,4e-5 9.04974,-0.71316 11.65655,-2.13947 2.60668,-1.42631 3.91007,-3.54123 3.91011,-6.34472 -4e-5,-2.36082 -0.90996,-4.10682 -2.7297,-5.23809 -1.77068,-1.18036 -5.33651,-2.09028 -10.69749,-2.72969 l -4.64786,-0.59023 c -11.75496,-1.47546 -19.99325,-4.20516 -24.71485,-8.1891 -4.72165,-3.98385 -7.08247,-10.03343 -7.08247,-18.14883 0,-8.75464 3.0002,-15.24688 9.00063,-19.47676 6.00039,-4.22972 15.19778,-6.34464 27.59212,-6.34472 4.86913,8e-5 9.98425,0.36892 15.34535,1.10663 5.36098,0.73783 11.18925,1.89365 17.48482,3.46745"
         style="font-size:36px;font-style:normal;font-variant:normal;font-weight:bold;font-stretch:normal;text-align:start;line-height:125%;letter-spacing:0px;word-spacing:0px;writing-mode:lr-tb;text-anchor:start;fill:url(#linearGradient3841);fill-opacity:1;stroke:#110b02;stroke-width:2;stroke-miterlimit:4;stroke-opacity:1;font-family:Sans;-inkscape-font-specification:Sans Bold"
         id="path3778"
         inkscape:connector-curvature="0" />
    </g>
  </g>
</svg>
