<?xml version="1.0" encoding="UTF-8" standalone="no"?>
<!-- Created with Inkscape (http://www.inkscape.org/) -->

<svg
   xmlns:dc="http://purl.org/dc/elements/1.1/"
   xmlns:cc="http://creativecommons.org/ns#"
   xmlns:rdf="http://www.w3.org/1999/02/22-rdf-syntax-ns#"
   xmlns:svg="http://www.w3.org/2000/svg"
   xmlns="http://www.w3.org/2000/svg"
   xmlns:sodipodi="http://sodipodi.sourceforge.net/DTD/sodipodi-0.dtd"
   xmlns:inkscape="http://www.inkscape.org/namespaces/inkscape"
   width="744.09448819"
   height="1052.3622047"
   id="svg3491"
   version="1.1"
   inkscape:version="0.48.4 r9939"
   sodipodi:docname="bin.svg">
  <defs
     id="defs3493" />
  <sodipodi:namedview
     id="base"
     pagecolor="#ffffff"
     bordercolor="#666666"
     borderopacity="1.0"
     inkscape:pageopacity="0.0"
     inkscape:pageshadow="2"
     inkscape:zoom="0.35"
     inkscape:cx="-117.85714"
     inkscape:cy="520"
     inkscape:document-units="px"
     inkscape:current-layer="layer1"
     showgrid="false"
     inkscape:window-width="1440"
     inkscape:window-height="851"
     inkscape:window-x="0"
     inkscape:window-y="25"
     inkscape:window-maximized="1" />
  <metadata
     id="metadata3496">
    <rdf:RDF>
      <cc:Work
         rdf:about="">
        <dc:format>image/svg+xml</dc:format>
        <dc:type
           rdf:resource="http://purl.org/dc/dcmitype/StillImage" />
        <dc:title />
      </cc:Work>
    </rdf:RDF>
  </metadata>
  <g
     inkscape:label="Layer 1"
     inkscape:groupmode="layer"
     id="layer1">
    <path
       sodipodi:type="arc"
       style="fill:none;stroke:#110b02;stroke-width:0.38389488;stroke-linejoin:round;stroke-miterlimit:4;stroke-opacity:1;stroke-dasharray:none"
       id="path3959"
       sodipodi:cx="112.37947"
       sodipodi:cy="595.01562"
       sodipodi:rx="58.336308"
       sodipodi:ry="13.889597"
       d="m 55.940095,591.50244 a 58.336308,13.889597 0 1 1 -0.855647,0.90058"
       sodipodi:start="3.3973071"
       sodipodi:end="9.6140029"
       sodipodi:open="true"
       transform="matrix(5.4713418,0,0,4.9606834,-264.24296,-2635.5198)" />
    <path
       style="fill:none;stroke:#110b02;stroke-width:2;stroke-linecap:butt;stroke-linejoin:miter;stroke-miterlimit:4;stroke-opacity:1;stroke-dasharray:none"
       d="m 28.975176,319.26699 62.055093,554.35876 c 0,0 53.601751,34.57271 80.968991,45.99825 37.44854,15.63438 70.89361,23.96732 111.40176,26.39935 40.65989,2.44112 78.72542,4.22573 119.18447,-0.49122 41.77663,-4.87057 86.99023,-15.39748 126.96737,-28.46783 22.56961,-7.37901 64.12357,-31.02752 64.12357,-31.02752 l 76.53464,-568.8383 c 0,0 -9.88956,-65.01339 -322.68649,-70.32909 -315.704884,-5.36509 -318.549404,72.3976 -318.549404,72.3976 z"
       id="path3961"
       inkscape:connector-curvature="0"
       sodipodi:nodetypes="ccssssccsc" />
    <path
       style="fill:#fefefe;fill-opacity:1;stroke:#110b02;stroke-width:2;stroke-linecap:butt;stroke-linejoin:miter;stroke-miterlimit:4;stroke-opacity:1;stroke-dasharray:none"
       d="M 105.50977,354.43152 328.90804,159.99229 550.23788,364.77406 c 0,0 -131.3763,19.56378 -219.26133,20.68502 -125.4909,1.60107 -225.46678,-31.02756 -225.46678,-31.02756 z"
       id="path3963"
       inkscape:connector-curvature="0"
       sodipodi:nodetypes="cccsc" />
  </g>
</svg>
