<?xml version="1.0" encoding="UTF-8" standalone="no"?>
<!-- Created with Inkscape (http://www.inkscape.org/) -->

<svg
   xmlns:dc="http://purl.org/dc/elements/1.1/"
   xmlns:cc="http://creativecommons.org/ns#"
   xmlns:rdf="http://www.w3.org/1999/02/22-rdf-syntax-ns#"
   xmlns:svg="http://www.w3.org/2000/svg"
   xmlns="http://www.w3.org/2000/svg"
   xmlns:xlink="http://www.w3.org/1999/xlink"
   xmlns:sodipodi="http://sodipodi.sourceforge.net/DTD/sodipodi-0.dtd"
   xmlns:inkscape="http://www.inkscape.org/namespaces/inkscape"
   width="685.02722"
   height="684.20831"
   id="svg3313"
   version="1.1"
   inkscape:version="0.48.4 r9939"
   sodipodi:docname="edit_contact.svg">
  <defs
     id="defs3315">
    <linearGradient
       id="linearGradient3755">
      <stop
         style="stop-color:#110b02;stop-opacity:1;"
         offset="0"
         id="stop3757" />
      <stop
         style="stop-color:#146bd5;stop-opacity:1;"
         offset="1"
         id="stop3759" />
    </linearGradient>
    <linearGradient
       inkscape:collect="always"
       xlink:href="#linearGradient3755"
       id="linearGradient3761"
       x1="38.204781"
       y1="312.05469"
       x2="522.26398"
       y2="312.05469"
       gradientUnits="userSpaceOnUse" />
    <linearGradient
       inkscape:collect="always"
       xlink:href="#linearGradient3755"
       id="linearGradient3775"
       gradientUnits="userSpaceOnUse"
       x1="38.204781"
       y1="312.05469"
       x2="522.26398"
       y2="312.05469" />
    <linearGradient
       inkscape:collect="always"
       xlink:href="#linearGradient3755"
       id="linearGradient3777"
       gradientUnits="userSpaceOnUse"
       x1="38.204781"
       y1="312.05469"
       x2="522.26398"
       y2="312.05469" />
  </defs>
  <sodipodi:namedview
     id="base"
     pagecolor="#ffffff"
     bordercolor="#666666"
     borderopacity="1.0"
     inkscape:pageopacity="0.0"
     inkscape:pageshadow="2"
     inkscape:zoom="0.90907986"
     inkscape:cx="342.51361"
     inkscape:cy="342.10416"
     inkscape:document-units="px"
     inkscape:current-layer="layer1"
     showgrid="false"
     inkscape:window-width="1440"
     inkscape:window-height="824"
     inkscape:window-x="0"
     inkscape:window-y="24"
     inkscape:window-maximized="1"
     fit-margin-top="140"
     fit-margin-left="5"
     fit-margin-right="5"
     fit-margin-bottom="140" />
  <metadata
     id="metadata3318">
    <rdf:RDF>
      <cc:Work
         rdf:about="">
        <dc:format>image/svg+xml</dc:format>
        <dc:type
           rdf:resource="http://purl.org/dc/dcmitype/StillImage" />
        <dc:title />
      </cc:Work>
    </rdf:RDF>
  </metadata>
  <g
     inkscape:label="Layer 1"
     inkscape:groupmode="layer"
     id="layer1"
     transform="translate(-7.2075888,-25.956096)">
    <g
       transform="matrix(1.3945138,0,0,1.3945138,-41.069503,-67.10433)"
       style="font-size:40px;font-style:normal;font-variant:normal;font-weight:normal;font-stretch:normal;line-height:125%;letter-spacing:0px;word-spacing:0px;fill:url(#linearGradient3761);fill-opacity:1;stroke:#110b02;stroke-width:1.43419158;stroke-miterlimit:4;stroke-opacity:1;font-family:Abyssinica SIL;-inkscape-font-specification:Abyssinica SIL"
       id="flowRoot3321">
      <path
         d="m 38.921875,273.94531 0,-6.1875 7.453125,-0.5625 c 1.031237,-0.0937 1.804674,-0.46874 2.320312,-1.125 0.562486,-0.65624 0.843735,-1.33593 0.84375,-2.03906 l 0,-76.78125 c -1.5e-5,-0.70304 -0.281264,-1.38272 -0.84375,-2.03906 -0.515638,-0.65616 -1.289075,-1.03116 -2.320312,-1.125 l -7.453125,-0.5625 0,-6.1875 69.960935,0 0,21.44531 -8.64843,0 -2.179693,-11.8125 c -0.09381,-0.70304 -0.3985,-1.33585 -0.914062,-1.89844 -0.468812,-0.56241 -1.031312,-0.84366 -1.6875,-0.84375 l -31.21875,0 0,35.85938 21.585937,0 c 0.656198,5e-5 1.242135,-0.2812 1.757813,-0.84375 0.562446,-0.56245 0.843696,-1.10151 0.84375,-1.61719 l 1.476562,-9.91406 7.3125,0 0,32.13281 -7.3125,0 -1.476562,-9.98438 c -5.4e-5,-0.51558 -0.281304,-1.07807 -0.84375,-1.6875 -0.562553,-0.60932 -1.14849,-0.91401 -1.757813,-0.91406 l -21.585937,0 0,39.65625 36.421875,0 c 0.60931,10e-6 1.17181,-0.32812 1.6875,-0.98437 0.51556,-0.65624 0.82024,-1.24218 0.91406,-1.75782 l 2.60157,-14.27343 7.73437,0 0,24.04687 -74.671875,0"
         style="font-size:144px;font-weight:bold;fill:url(#linearGradient3775);stroke:#110b02;-inkscape-font-specification:Abyssinica SIL Bold"
         id="path3780" />
      <path
         d="m 173.21875,273.94531 0,-7.66406 c -1.64068,1.26563 -3.35161,2.48438 -5.13281,3.65625 -1.73443,1.125 -3.53911,2.10938 -5.41407,2.95312 -1.82816,0.84376 -3.7266,1.52344 -5.69531,2.03907 -1.92191,0.51562 -3.93753,0.77343 -6.04687,0.77343 -4.82816,0 -9.00003,-1.03125 -12.51563,-3.09375 -3.46876,-2.10937 -6.32814,-4.80468 -8.57812,-8.08593 -2.25001,-3.32811 -3.91407,-7.03124 -4.99219,-11.10938 -1.03126,-4.12497 -1.54688,-8.22653 -1.54687,-12.30469 -1e-5,-4.87496 0.74999,-9.60933 2.25,-14.20312 1.49999,-4.64057 3.77342,-8.74213 6.82031,-12.30469 3.04686,-3.56243 6.86716,-6.42181 11.46093,-8.57812 4.59372,-2.15618 9.98434,-3.23431 16.17188,-3.23438 1.12496,7e-5 2.34371,0.0704 3.65625,0.21094 1.31245,0.1407 2.57808,0.30476 3.79687,0.49219 1.26558,0.14069 2.39058,0.32819 3.375,0.5625 1.0312,0.18757 1.82808,0.35163 2.39063,0.49218 l 0,-26.36718 -10.89844,0 0,-4.78125 18.5625,-5.55469 5.76563,0 0,96.89062 c -7e-5,0.89064 0.28118,1.6172 0.84375,2.17969 0.56243,0.56251 1.28899,0.89063 2.17968,0.98438 l 6.1875,0.42187 0,5.625 -22.64062,0 m 0,-62.08594 c -0.60943,-0.18743 -1.4063,-0.39837 -2.39063,-0.63281 -0.93755,-0.28118 -1.9688,-0.51556 -3.09375,-0.70312 -1.07817,-0.23431 -2.2266,-0.42181 -3.44531,-0.5625 -1.17192,-0.14056 -2.27348,-0.21088 -3.30469,-0.21094 -3.56253,6e-5 -6.79691,0.70319 -9.70312,2.10937 -2.90628,1.35944 -5.39065,3.30475 -7.45313,5.83594 -2.01564,2.48443 -3.58595,5.50787 -4.71093,9.07031 -1.07815,3.56255 -1.61721,7.52348 -1.61719,11.88282 -2e-5,3.93753 0.46873,7.57034 1.40625,10.89843 0.93748,3.28128 2.29685,6.14065 4.07812,8.57813 1.78123,2.43751 3.96091,4.33595 6.53907,5.69531 2.57809,1.35939 5.53121,2.03907 8.85937,2.03906 1.45309,10e-6 2.85933,-0.14061 4.21875,-0.42187 1.35933,-0.32812 2.67183,-0.72655 3.9375,-1.19531 1.26558,-0.51562 2.46089,-1.05468 3.58594,-1.61719 1.12495,-0.60936 2.1562,-1.1953 3.09375,-1.75781 l 0,-49.00782"
         style="font-size:144px;font-weight:bold;fill:url(#linearGradient3775);stroke:#110b02;-inkscape-font-specification:Abyssinica SIL Bold"
         id="path3782" />
      <path
         d="m 230.73437,180.78125 c -3e-5,1.21884 -0.2344,2.39072 -0.70312,3.51562 -0.42191,1.07822 -1.03128,2.01572 -1.82813,2.8125 -0.7969,0.79697 -1.7344,1.42978 -2.8125,1.89844 -1.03127,0.46884 -2.15627,0.70321 -3.375,0.70313 -1.21877,8e-5 -2.39064,-0.23429 -3.51562,-0.70313 -1.07814,-0.46866 -2.01564,-1.10147 -2.8125,-1.89844 -0.79689,-0.79678 -1.4297,-1.73428 -1.89844,-2.8125 -0.46876,-1.1249 -0.70314,-2.29678 -0.70312,-3.51562 -2e-5,-1.21866 0.23436,-2.36709 0.70312,-3.44531 0.46874,-1.07803 1.10155,-2.01553 1.89844,-2.8125 0.79686,-0.79678 1.73436,-1.40615 2.8125,-1.82813 1.12498,-0.46865 2.29685,-0.70302 3.51562,-0.70312 1.21873,1e-4 2.34373,0.23447 3.375,0.70312 1.0781,0.42198 2.0156,1.03135 2.8125,1.82813 0.79685,0.79697 1.40622,1.73447 1.82813,2.8125 0.46872,1.07822 0.70309,2.22665 0.70312,3.44531 m -26.4375,93.16406 0,-5.625 7.03125,-0.42187 c 0.89062,-0.0937 1.61718,-0.42187 2.17969,-0.98438 0.56249,-0.56249 0.84374,-1.28905 0.84375,-2.17969 l 0,-51.39843 -9.91406,0 0,-5.0625 17.57812,-5.48438 5.69532,0 0,61.94531 c -3e-5,0.89064 0.28122,1.6172 0.84375,2.17969 0.60934,0.56251 1.3359,0.89063 2.17968,0.98438 l 7.38282,0.42187 0,5.625 -33.82032,0"
         style="font-size:144px;font-weight:bold;fill:url(#linearGradient3775);stroke:#110b02;-inkscape-font-specification:Abyssinica SIL Bold"
         id="path3784" />
      <path
         d="m 290.92187,270.92187 c -1.78129,0.89063 -3.7266,1.68751 -5.83593,2.39063 -1.78129,0.60938 -3.84379,1.14844 -6.1875,1.61719 -2.34379,0.51562 -4.80472,0.77343 -7.38282,0.77343 -5.43752,0 -9.37501,-1.26562 -11.8125,-3.79687 -2.43751,-2.53125 -3.65626,-6.65624 -3.65625,-12.375 l 0,-47.8125 -9.21093,0 0,-4.71094 9.84375,-4.64062 6.46875,-15.25782 6.32812,0 0,17.4375 20.32031,0 0,7.17188 -20.32031,0 0,40.21875 c -2e-5,2.85939 0.23435,5.29689 0.70313,7.3125 0.51559,1.96876 1.24216,3.58595 2.17968,4.85156 0.98435,1.21876 2.17966,2.10939 3.58594,2.67188 1.45309,0.5625 3.14059,0.84375 5.0625,0.84375 1.40621,0 2.69527,-0.11718 3.86719,-0.35157 1.21871,-0.23436 2.27339,-0.51561 3.16406,-0.84375 1.03121,-0.37499 1.99214,-0.79686 2.88281,-1.26562 l 0,5.76562"
         style="font-size:144px;font-weight:bold;fill:url(#linearGradient3775);stroke:#110b02;-inkscape-font-specification:Abyssinica SIL Bold"
         id="path3786" />
      <path
         d="m 118.9375,450.64062 c -0.18758,0.0938 -1.10165,0.44532 -2.74219,1.05469 -1.6407,0.5625 -3.77351,1.19532 -6.39843,1.89844 -2.62508,0.65625 -5.64851,1.26562 -9.07032,1.82812 -3.375061,0.5625 -6.890682,0.84375 -10.546873,0.84375 -5.390675,0 -10.382858,-0.65625 -14.976562,-1.96875 -4.546911,-1.26562 -8.695345,-3.04687 -12.445313,-5.34375 -3.703149,-2.29686 -6.984396,-5.03905 -9.84375,-8.22656 -2.812515,-3.18748 -5.203138,-6.65623 -7.171875,-10.40625 -1.921884,-3.74997 -3.375008,-7.73434 -4.359375,-11.95312 -0.984381,-4.21871 -1.476568,-8.53121 -1.476562,-12.9375 -6e-6,-7.45307 1.218743,-14.27338 3.65625,-20.46094 2.437488,-6.18742 5.85936,-11.48429 10.265625,-15.89063 4.406226,-4.45303 9.703096,-7.89834 15.890625,-10.33593 6.187458,-2.48428 13.054639,-3.72647 20.601562,-3.72657 2.343692,10e-5 4.59369,0.14073 6.75,0.42188 2.203061,0.23447 4.429618,0.58604 6.679688,1.05469 2.24993,0.46884 4.61711,1.05478 7.10156,1.75781 2.4843,0.70322 5.17961,1.50009 8.08594,2.39062 l 0,22.57032 -8.64844,0 -2.10937,-13.07813 c -0.0938,-0.65616 -0.42195,-1.31241 -0.98438,-1.96875 -0.56257,-0.65616 -1.05476,-1.10147 -1.47656,-1.33594 -0.56257,-0.23428 -1.31257,-0.56241 -2.25,-0.98437 -0.89069,-0.42179 -1.96882,-0.82022 -3.23437,-1.19531 -1.265695,-0.42179 -2.671943,-0.77335 -4.218755,-1.05469 -1.546935,-0.32803 -3.210996,-0.4921 -4.992188,-0.49219 -4.921926,9e-5 -9.492234,0.91415 -13.710937,2.74219 -4.218789,1.82821 -7.875035,4.52352 -10.96875,8.08594 -3.093779,3.56257 -5.531277,7.99226 -7.3125,13.28906 -1.734398,5.25006 -2.601585,11.32037 -2.601563,18.21094 -2.2e-5,6.70316 0.82029,12.70316 2.460938,18 1.687474,5.2969 4.101534,9.79689 7.242187,13.5 3.140591,3.70314 6.960899,6.53907 11.460938,8.50781 4.499952,1.92188 9.609322,2.88282 15.328125,2.88281 1.68744,10e-6 3.210876,-0.11718 4.570312,-0.35156 1.406186,-0.23437 2.624933,-0.49218 3.656253,-0.77344 1.03118,-0.32812 1.82805,-0.60937 2.39062,-0.84375 0.56243,-0.28124 0.89056,-0.4453 0.98438,-0.49219 0.74993,-0.28124 1.3593,-0.67967 1.82812,-1.19531 0.46868,-0.51561 0.77337,-1.07811 0.91407,-1.6875 l 3.30468,-15.67969 8.36719,0 0,21.9375 0,1.40625"
         style="font-size:144px;font-weight:bold;fill:url(#linearGradient3777);stroke:#110b02;-inkscape-font-specification:Abyssinica SIL Bold"
         id="path3788" />
      <path
         d="m 197.96875,419.35156 c -7e-5,5.10941 -0.82039,9.89065 -2.46094,14.34375 -1.59382,4.40627 -3.89069,8.25001 -6.89062,11.53125 -2.95319,3.23438 -6.56256,5.78907 -10.82813,7.66406 -4.2188,1.875 -8.95317,2.8125 -14.20312,2.8125 -5.25004,0 -9.98441,-0.91406 -14.20313,-2.74218 -4.21877,-1.875 -7.8047,-4.42968 -10.75781,-7.66407 -2.95314,-3.23436 -5.22657,-7.05467 -6.82031,-11.46093 -1.54688,-4.4531 -2.32032,-9.28122 -2.32032,-14.48438 0,-5.10933 0.79687,-9.89058 2.39063,-14.34375 1.59374,-4.45307 3.89061,-8.32025 6.89062,-11.60156 2.99999,-3.32806 6.60936,-5.92962 10.82813,-7.80469 4.2656,-1.87493 9.07028,-2.81243 14.41406,-2.8125 5.34371,7e-5 10.12495,0.96101 14.34375,2.88281 4.21869,1.92195 7.78119,4.54694 10.6875,7.875 2.90619,3.28131 5.10931,7.1485 6.60938,11.60157 1.5468,4.40629 2.32024,9.14066 2.32031,14.20312 m -14.97656,-0.14062 c -6e-5,-3.93746 -0.3985,-7.7109 -1.19532,-11.32032 -0.75005,-3.60932 -1.92193,-6.79682 -3.51562,-9.5625 -1.5938,-2.76556 -3.58599,-4.96868 -5.97656,-6.60937 -2.39067,-1.64056 -5.20317,-2.46087 -8.4375,-2.46094 -3.32816,7e-5 -6.21097,0.82038 -8.64844,2.46094 -2.43753,1.64069 -4.45315,3.84381 -6.04688,6.60937 -1.54689,2.76568 -2.69533,5.95318 -3.44531,9.5625 -0.75002,3.60942 -1.12502,7.38286 -1.125,11.32032 -2e-5,3.89065 0.37498,7.64065 1.125,11.25 0.79686,3.60939 1.99217,6.79689 3.58594,9.5625 1.59372,2.76563 3.58591,4.99219 5.97656,6.67968 2.39059,1.64064 5.20309,2.46095 8.4375,2.46094 3.28121,10e-6 6.14058,-0.8203 8.57813,-2.46094 2.43745,-1.64061 4.42963,-3.84373 5.97656,-6.60937 1.59369,-2.76561 2.76557,-5.95311 3.51562,-9.5625 0.79682,-3.60935 1.19526,-7.38278 1.19532,-11.32031"
         style="font-size:144px;font-weight:bold;fill:url(#linearGradient3777);stroke:#110b02;-inkscape-font-specification:Abyssinica SIL Bold"
         id="path3790" />
      <path
         d="m 249.71875,453.94531 0,-5.625 6.04687,-0.42187 c 0.8437,-0.0937 1.54683,-0.42187 2.10938,-0.98438 0.60932,-0.56249 0.91401,-1.28905 0.91406,-2.17969 l 0,-37.47656 c -5e-5,-4.54682 -1.05474,-7.99213 -3.16406,-10.33594 -2.10943,-2.39056 -5.67192,-3.58587 -10.6875,-3.58593 -2.76566,6e-5 -5.48441,0.3985 -8.15625,1.19531 -2.67191,0.75006 -5.22659,1.73443 -7.66406,2.95312 l 0,47.25 c -3e-5,0.89064 0.28122,1.6172 0.84375,2.17969 0.56247,0.56251 1.28903,0.89063 2.17968,0.98438 l 6.04688,0.42187 0,5.625 -32.55469,0 0,-5.625 7.03125,-0.42187 c 0.89062,-0.0937 1.61718,-0.42187 2.17969,-0.98438 0.56249,-0.56249 0.84374,-1.28905 0.84375,-2.17969 l 0,-49.99218 -10.05469,0 0,-4.71094 17.57813,-5.48438 5.90625,0 0,7.17188 c 2.01559,-1.12494 4.05465,-2.2265 6.11718,-3.30469 2.10935,-1.07806 4.19528,-2.03899 6.25782,-2.88281 2.06246,-0.84368 4.05464,-1.49993 5.97656,-1.96875 1.92183,-0.51555 3.72651,-0.77337 5.41406,-0.77344 6.2812,7e-5 11.06244,1.94538 14.34375,5.83594 3.28118,3.89069 4.92181,9.35162 4.92188,16.38281 l 0,39.72656 c -7e-5,0.89064 0.28118,1.6172 0.84375,2.17969 0.6093,0.56251 1.33586,0.89063 2.17968,0.98438 l 6.32813,0.42187 0,5.625 -31.78125,0"
         style="font-size:144px;font-weight:bold;fill:url(#linearGradient3777);stroke:#110b02;-inkscape-font-specification:Abyssinica SIL Bold"
         id="path3792" />
      <path
         d="m 332.26562,450.92187 c -1.78129,0.89063 -3.7266,1.68751 -5.83593,2.39063 -1.78129,0.60938 -3.84379,1.14844 -6.1875,1.61719 -2.34379,0.51562 -4.80472,0.77343 -7.38282,0.77343 -5.43752,0 -9.37501,-1.26562 -11.8125,-3.79687 -2.43751,-2.53125 -3.65626,-6.65624 -3.65625,-12.375 l 0,-47.8125 -9.21093,0 0,-4.71094 9.84375,-4.64062 6.46875,-15.25782 6.32812,0 0,17.4375 20.32031,0 0,7.17188 -20.32031,0 0,40.21875 c -2e-5,2.85939 0.23435,5.29689 0.70313,7.3125 0.51559,1.96876 1.24216,3.58595 2.17968,4.85156 0.98435,1.21876 2.17966,2.10939 3.58594,2.67188 1.45309,0.5625 3.14059,0.84375 5.0625,0.84375 1.40621,0 2.69527,-0.11718 3.86719,-0.35157 1.21871,-0.23436 2.27339,-0.51561 3.16406,-0.84375 1.03121,-0.37499 1.99214,-0.79686 2.88281,-1.26562 l 0,5.76562"
         style="font-size:144px;font-weight:bold;fill:url(#linearGradient3777);stroke:#110b02;-inkscape-font-specification:Abyssinica SIL Bold"
         id="path3794" />
      <path
         d="m 383.10156,453.94531 -1.89844,-8.50781 c -2.53129,1.92188 -5.13285,3.63282 -7.80468,5.13281 -1.17192,0.65626 -2.4141,1.28907 -3.72657,1.89844 -1.31253,0.60938 -2.6719,1.14844 -4.07812,1.61719 -1.35941,0.51562 -2.76565,0.91406 -4.21875,1.19531 -1.40628,0.28125 -2.81253,0.42187 -4.21875,0.42187 -2.62502,0 -5.08596,-0.44531 -7.38281,-1.33593 -2.25002,-0.89063 -4.21876,-2.17969 -5.90625,-3.86719 -1.68751,-1.68749 -3.02345,-3.72656 -4.00782,-6.11719 -0.9375,-2.39061 -1.40625,-5.10936 -1.40625,-8.15625 0,-1.78123 0.16406,-3.46873 0.49219,-5.0625 0.375,-1.59372 1.10156,-3.1406 2.17969,-4.64062 1.07812,-1.49997 2.57811,-2.92966 4.5,-4.28907 1.96874,-1.40621 4.52342,-2.78902 7.66406,-4.14843 3.18748,-1.35934 7.05466,-2.69528 11.60156,-4.00782 4.59372,-1.35933 10.03121,-2.7187 16.3125,-4.07812 l 0,-6.1875 c -4e-5,-4.82807 -1.07817,-8.39057 -3.23437,-10.6875 -2.15629,-2.34369 -5.55473,-3.51556 -10.19531,-3.51563 -2.53128,7e-5 -4.68753,0.23444 -6.46875,0.70313 -1.78128,0.46881 -3.02346,0.84381 -3.72657,1.125 l 0,12.51562 -10.47656,0 c -0.65626,5e-5 -1.31251,-0.0468 -1.96875,-0.14062 -0.60938,-0.0937 -1.17188,-0.2812 -1.6875,-0.5625 -0.51563,-0.32807 -0.93751,-0.74995 -1.26562,-1.26563 -0.28126,-0.56244 -0.42189,-1.289 -0.42188,-2.17968 -1e-5,-2.95307 0.89062,-5.48432 2.67188,-7.59375 1.78123,-2.15619 4.10154,-3.93744 6.96093,-5.34375 2.85936,-1.40618 6.07029,-2.43743 9.63282,-3.09375 3.56247,-0.65618 7.12496,-0.98431 10.6875,-0.98438 4.45308,7e-5 8.13276,0.53914 11.03906,1.61719 2.95307,1.07819 5.27338,2.57819 6.96094,4.5 1.73431,1.92194 2.95306,4.19537 3.65625,6.82031 0.70306,2.62506 1.05462,5.50787 1.05468,8.64844 l 0,40.35937 c -6e-5,0.89064 0.28119,1.6172 0.84375,2.17969 0.60932,0.56251 1.33588,0.89063 2.17969,0.98438 l 6.96094,0.42187 0,5.625 -21.30469,0 m -1.89844,-38.46094 c -6.46879,1.64067 -11.60159,3.25785 -15.39843,4.85157 -3.79691,1.59378 -6.67972,3.21097 -8.64844,4.85156 -1.9219,1.59378 -3.16408,3.2344 -3.72656,4.92187 -0.51565,1.64065 -0.77346,3.35159 -0.77344,5.13282 -2e-5,1.50001 0.23436,2.97658 0.70312,4.42968 0.51561,1.40627 1.21873,2.67189 2.10938,3.79688 0.93748,1.12501 2.06248,2.03907 3.375,2.74219 1.35935,0.65625 2.90622,0.98438 4.64062,0.98437 1.92185,10e-6 3.91403,-0.35155 5.97657,-1.05469 2.10933,-0.70311 4.03121,-1.47655 5.76562,-2.32031 2.01558,-0.98436 4.00777,-2.1328 5.97656,-3.44531 l 0,-24.89063"
         style="font-size:144px;font-weight:bold;fill:url(#linearGradient3777);stroke:#110b02;-inkscape-font-specification:Abyssinica SIL Bold"
         id="path3796" />
      <path
         d="m 468.88281,448.60156 c -1.64068,0.84376 -3.37506,1.71094 -5.20312,2.60156 -1.78131,0.84376 -3.70318,1.59376 -5.76563,2.25 -2.01567,0.65625 -4.14848,1.19532 -6.39844,1.61719 -2.20316,0.42188 -4.52347,0.63281 -6.96093,0.63281 -5.06254,0 -9.63284,-0.89062 -13.71094,-2.67187 -4.03127,-1.82812 -7.47658,-4.33593 -10.33594,-7.52344 -2.85938,-3.23436 -5.06251,-7.05467 -6.60937,-11.46094 -1.54688,-4.40622 -2.32032,-9.18747 -2.32032,-14.34375 0,-6.04683 0.9375,-11.36714 2.8125,-15.96093 1.875,-4.5937 4.40624,-8.43744 7.59375,-11.53125 3.18749,-3.14056 6.86717,-5.48431 11.03907,-7.03125 4.21872,-1.59368 8.62496,-2.39056 13.21875,-2.39063 3.14058,7e-5 6.07026,0.3282 8.78906,0.98438 2.76557,0.60944 5.13276,1.5235 7.10156,2.74218 2.01557,1.21882 3.58588,2.71882 4.71094,4.5 1.17181,1.78132 1.75775,3.84381 1.75781,6.1875 -6e-5,1.40631 -0.25787,2.6485 -0.77344,3.72657 -0.46881,1.0313 -1.10162,1.92192 -1.89843,2.67187 -0.79694,0.70318 -1.711,1.24224 -2.74219,1.61719 -0.98443,0.32817 -2.01568,0.49224 -3.09375,0.49219 -1.5938,5e-5 -2.97661,-0.25777 -4.14844,-0.77344 -1.17192,-0.56245 -2.20317,-1.12495 -3.09375,-1.6875 l 0,-12.51563 c -0.98442,-0.56243 -2.01567,-1.00774 -3.09375,-1.33593 -1.03129,-0.37494 -2.01566,-0.56244 -2.95312,-0.5625 -3.18754,6e-5 -6.07035,0.72662 -8.64844,2.17968 -2.53128,1.45319 -4.68753,3.46881 -6.46875,6.04688 -1.7344,2.57818 -3.07033,5.64849 -4.00781,9.21094 -0.93752,3.51567 -1.40627,7.35941 -1.40625,11.53125 -2e-5,3.9844 0.49216,7.7344 1.47656,11.25 1.03123,3.51564 2.53123,6.58595 4.5,9.21093 2.0156,2.57814 4.49997,4.6172 7.45312,6.11719 2.99997,1.50001 6.46872,2.25001 10.40625,2.25 3.37496,10e-6 6.56245,-0.51561 9.5625,-1.54687 3.04682,-1.07812 6.11713,-2.64843 9.21094,-4.71094 l 0,6.11719 0,2.10937"
         style="font-size:144px;font-weight:bold;fill:url(#linearGradient3777);stroke:#110b02;-inkscape-font-specification:Abyssinica SIL Bold"
         id="path3798" />
      <path
         d="m 521.54687,450.92187 c -1.78129,0.89063 -3.7266,1.68751 -5.83593,2.39063 -1.78129,0.60938 -3.84379,1.14844 -6.1875,1.61719 -2.34379,0.51562 -4.80472,0.77343 -7.38282,0.77343 -5.43752,0 -9.37501,-1.26562 -11.8125,-3.79687 -2.43751,-2.53125 -3.65626,-6.65624 -3.65625,-12.375 l 0,-47.8125 -9.21093,0 0,-4.71094 9.84375,-4.64062 6.46875,-15.25782 6.32812,0 0,17.4375 20.32031,0 0,7.17188 -20.32031,0 0,40.21875 c -2e-5,2.85939 0.23435,5.29689 0.70313,7.3125 0.51559,1.96876 1.24216,3.58595 2.17968,4.85156 0.98435,1.21876 2.17966,2.10939 3.58594,2.67188 1.45309,0.5625 3.14059,0.84375 5.0625,0.84375 1.40621,0 2.69527,-0.11718 3.86719,-0.35157 1.21871,-0.23436 2.27339,-0.51561 3.16406,-0.84375 1.03121,-0.37499 1.99214,-0.79686 2.88281,-1.26562 l 0,5.76562"
         style="font-size:144px;font-weight:bold;fill:url(#linearGradient3777);stroke:#110b02;-inkscape-font-specification:Abyssinica SIL Bold"
         id="path3800" />
    </g>
  </g>
</svg>
