<?xml version="1.0" encoding="UTF-8" standalone="no"?>
<!-- Created with Inkscape (http://www.inkscape.org/) -->

<svg
   xmlns:dc="http://purl.org/dc/elements/1.1/"
   xmlns:cc="http://creativecommons.org/ns#"
   xmlns:rdf="http://www.w3.org/1999/02/22-rdf-syntax-ns#"
   xmlns:svg="http://www.w3.org/2000/svg"
   xmlns="http://www.w3.org/2000/svg"
   xmlns:sodipodi="http://sodipodi.sourceforge.net/DTD/sodipodi-0.dtd"
   xmlns:inkscape="http://www.inkscape.org/namespaces/inkscape"
   width="712.3125"
   height="676.5625"
   id="svg3373"
   version="1.1"
   inkscape:version="0.48.4 r9939"
   sodipodi:docname="send.svg">
  <defs
     id="defs3375" />
  <sodipodi:namedview
     id="base"
     pagecolor="#ffffff"
     bordercolor="#666666"
     borderopacity="1.0"
     inkscape:pageopacity="0.0"
     inkscape:pageshadow="2"
     inkscape:zoom="0.68630005"
     inkscape:cx="356.15177"
     inkscape:cy="338.28025"
     inkscape:document-units="px"
     inkscape:current-layer="layer1"
     showgrid="false"
     inkscape:window-width="1440"
     inkscape:window-height="824"
     inkscape:window-x="0"
     inkscape:window-y="24"
     inkscape:window-maximized="1"
     fit-margin-top="255"
     fit-margin-left="5"
     fit-margin-right="5"
     fit-margin-bottom="255" />
  <metadata
     id="metadata3378">
    <rdf:RDF>
      <cc:Work
         rdf:about="">
        <dc:format>image/svg+xml</dc:format>
        <dc:type
           rdf:resource="http://purl.org/dc/dcmitype/StillImage" />
        <dc:title />
      </cc:Work>
    </rdf:RDF>
  </metadata>
  <g
     inkscape:label="Layer 1"
     inkscape:groupmode="layer"
     id="layer1"
     transform="translate(-9.5625,1)">
    <path
       inkscape:connector-curvature="0"
       id="path2988"
       style="font-size:12px;font-style:normal;font-variant:normal;font-weight:normal;font-stretch:normal;text-align:start;line-height:125%;letter-spacing:0px;word-spacing:0px;writing-mode:lr-tb;text-anchor:start;fill:#dbe1e4;fill-opacity:1;stroke:#110b02;stroke-width:4;stroke-linecap:round;stroke-linejoin:round;stroke-miterlimit:4;stroke-opacity:1;stroke-dasharray:none;font-family:Open Sans;-inkscape-font-specification:Open Sans"
       d="m 171.35508,329.97272 c -1.8e-4,9.16471 -1.42005,17.5549 -4.25966,25.17058 -2.83989,7.61575 -6.84137,13.52116 -12.00442,17.71624 -5.16333,4.19511 -11.10103,6.29267 -17.81303,6.29264 -5.55055,3e-5 -10.22972,-1.67801 -14.03744,-5.03411 -3.808,-3.35605 -6.06689,-7.64796 -6.77672,-12.87573 l -0.77448,0 c -2.58168,5.61499 -6.29274,10.00373 -11.13315,13.16616 -4.776031,3.16246 -10.455561,4.74371 -17.038551,4.74368 -9.681051,3e-5 -17.26451,-3.29152 -22.750341,-9.87461 -5.421394,-6.64761 -8.132091,-15.6509 -8.13202,-27.01 -7.1e-5,-13.16609 3.807785,-23.84743 11.423568,-32.0441 7.615642,-8.26103 17.619337,-12.39157 30.011085,-12.39168 4.388639,1.1e-4 9.358199,0.41962 14.908749,1.25854 5.5503,0.77458 10.55215,1.87174 15.00554,3.29155 l -2.42024,45.50068 0,2.12981 c -1.4e-4,11.48814 4.29177,17.23222 12.8757,17.23218 5.87302,4e-5 10.64898,-3.45285 14.32789,-10.35866 3.67863,-6.97028 5.51802,-16.00587 5.51816,-27.10679 -1.4e-4,-11.68167 -2.38813,-21.91125 -7.16391,-30.68877 -4.77611,-8.77735 -11.58509,-15.52175 -20.42694,-20.23327 -8.77752,-4.77586 -18.87805,-7.16385 -30.30151,-7.16395 -14.392508,1e-4 -26.913236,3.00123 -37.562254,9.00333 -10.649159,5.93777 -18.78118,14.45705 -24.396132,25.55784 -5.614987,11.03641 -8.422481,23.81531 -8.422481,38.33673 0,19.68474 5.195441,34.81934 15.586428,45.40388 10.390882,10.58455 25.364135,15.87682 44.91983,15.87686 13.553309,-4e-5 27.622999,-2.77524 42.209129,-8.32569 l 0,12.87573 c -12.39178,5.42136 -26.46147,8.13202 -42.209129,8.13206 -23.428094,-4e-5 -41.628352,-6.42176 -54.600845,-19.2652 C 23.009921,386.38067 16.55591,368.37404 16.55591,345.26869 c 0,-16.78035 3.452888,-31.72131 10.358664,-44.82303 6.905775,-13.10151 16.748095,-23.23425 29.527065,-30.39834 12.778864,-7.22832 27.429402,-10.84258 43.951721,-10.84272 13.87599,1.4e-4 26.20312,2.93672 36.9814,8.80974 10.84258,5.80872 19.20052,14.10208 25.07378,24.88015 5.93753,10.71374 8.90636,23.07313 8.90654,37.07823 M 71.253552,342.65483 c -7e-5,16.39319 6.2926,24.58976 18.877942,24.58972 13.359676,4e-5 20.620426,-10.10045 21.782266,-30.30151 l 1.35533,-25.26741 c -4.64698,-1.29071 -9.71337,-1.93611 -15.199169,-1.93621 -8.390263,1e-4 -14.973359,2.90439 -19.749218,8.7129 -4.711493,5.80869 -7.067221,13.87617 -7.067151,24.20251" />
    <path
       inkscape:connector-curvature="0"
       id="path2990"
       style="font-size:56px;font-style:normal;font-variant:normal;font-weight:normal;font-stretch:normal;text-align:start;line-height:125%;letter-spacing:0px;word-spacing:0px;writing-mode:lr-tb;text-anchor:start;fill:#110b02;fill-opacity:1;stroke:#999999;stroke-width:4;stroke-linecap:round;stroke-linejoin:round;stroke-miterlimit:4;stroke-opacity:1;stroke-dasharray:none;font-family:WoodenNickelBlack;-inkscape-font-specification:WoodenNickelBlack"
       d="m 313.3296,370.80716 c -2.2471,12.29254 -8.52554,22.07372 -18.83534,29.34349 -10.30995,7.26977 -22.13986,10.83858 -35.48977,10.70641 -0.92527,0 -1.8505,0 -2.77573,0 -0.79311,0 -1.65224,-0.0662 -2.57747,-0.19827 -0.52874,0 -1.12354,-0.0662 -1.7844,-0.19826 -0.52874,0 -1.12354,-0.0662 -1.78441,-0.19827 -6.6089,-0.6609 -12.95344,-1.98267 -19.03361,-3.96534 -6.08017,-1.98266 -10.50814,-5.4193 -13.28384,-10.30987 -0.26448,-0.39654 -0.46264,-1.1235 -0.59481,-2.18094 -0.13206,-1.1896 -0.19826,-2.4453 -0.19826,-3.76707 0,-1.0574 0,-2.04873 0,-2.974 0.13206,-0.92523 0.26447,-1.6522 0.39653,-2.18093 0.6609,-2.24701 2.64357,-4.09751 5.94801,-5.55148 3.43663,-1.45393 7.0715,-2.1809 10.90467,-2.18093 0.26448,3e-5 0.5287,3e-5 0.79307,0 0.39653,3e-5 0.72697,3e-5 0.99133,0 5.02274,0.26447 8.92201,1.71833 11.69775,4.36187 2.7757,2.64357 4.82447,5.48541 6.14627,8.52547 0.3965,0.92527 0.72697,1.85051 0.99133,2.77574 0.26448,0.92523 0.5287,1.7844 0.79307,2.57747 0.3965,1.7183 1.0574,2.974 1.98267,3.76707 1.0574,0.6609 2.247,0.99133 3.5688,0.99133 0.52867,0 1.0574,-0.0662 1.58617,-0.19827 0.66083,-0.13206 1.25563,-0.26447 1.78437,-0.39653 2.247,-0.92523 4.29573,-2.51137 6.14631,-4.7584 1.98259,-2.24704 2.97393,-4.69231 2.97396,-7.33588 -0.13241,-0.79306 -0.33032,-1.52003 -0.5948,-2.18093 -0.13241,-0.79307 -0.33032,-1.52004 -0.5948,-2.18094 -1.71833,-4.22967 -4.75844,-8.39327 -9.12024,-12.49081 -4.36194,-4.09746 -9.05424,-8.1289 -14.07694,-12.09427 -1.85054,-1.5861 -3.76711,-3.10614 -5.74978,-4.56014 -1.98266,-1.5861 -3.83317,-3.10613 -5.55143,-4.56014 -5.81588,-4.75837 -10.50818,-11.0368 -14.07695,-18.83535 -3.43663,-7.9306 -5.35324,-16.05954 -5.74977,-24.38682 0,-0.39643 0,-0.79296 0,-1.1896 0,-0.52863 0,-0.99123 0,-1.38787 0,-12.16027 3.96534,-23.13101 11.89601,-32.91229 8.06284,-9.78104 21.34672,-14.67161 39.85163,-14.67175 2.1148,1.4e-4 4.36184,0.19827 6.74108,0.5948 2.51133,0.26448 5.0227,0.72711 7.53417,1.38787 6.47663,1.71844 12.4246,4.29591 17.84398,7.73241 5.4192,3.43674 8.12887,7.20381 8.12898,11.30121 -1.1e-4,3.17237 -1.71845,5.74984 -5.15498,7.7324 -3.4367,1.98278 -7.20377,3.04021 -11.30121,3.17227 -0.13241,1.1e-4 -0.33068,1.1e-4 -0.5948,0 -0.13241,1.1e-4 -0.26447,1.1e-4 -0.3965,0 -2.77584,1.1e-4 -5.35331,-0.46253 -7.73244,-1.38787 -2.37923,-0.92512 -4.22974,-2.44516 -5.55143,-4.56013 -0.39661,-0.66076 -0.72708,-1.32166 -0.99137,-1.98267 -0.26448,-0.79296 -0.46267,-1.51993 -0.5948,-2.18094 -4e-5,-0.26412 -0.0662,-0.46249 -0.19827,-0.5948 -4e-5,-0.26412 -0.0662,-0.52859 -0.19827,-0.79306 -0.13241,-0.92513 -0.33068,-1.7843 -0.59483,-2.57747 -0.26448,-0.92513 -0.66094,-1.7182 -1.1896,-2.3792 -0.92531,-1.0573 -2.18097,-1.85037 -3.76707,-2.37921 -1.45401,-0.52859 -3.04014,-0.79292 -4.75841,-0.79306 -0.13206,1.4e-4 -0.26447,1.4e-4 -0.3965,0 -7e-5,1.4e-4 -0.0662,1.4e-4 -0.19826,0 -3.70101,0.13241 -6.87328,1.38801 -9.51681,3.76707 -2.5114,2.24714 -2.31314,4.82461 0.5948,7.7324 0.26447,0.26448 0.5287,0.52884 0.79307,0.79307 0.26447,0.26447 0.59476,0.52884 0.99137,0.79307 5.0227,4.89067 9.97937,9.58301 14.86997,14.07694 4.89054,4.36198 9.51674,8.65775 13.87872,12.88735 7.53403,7.66641 13.7464,15.53098 18.63708,23.59375 5.02263,7.93074 7.53403,17.11708 7.53414,27.55909 -1.1e-4,1.71834 -0.0662,3.56884 -0.19827,5.55147 -0.13241,1.85054 -0.3966,3.76711 -0.79306,5.74974 l 0,0" />
    <path
       inkscape:connector-curvature="0"
       id="path2992"
       style="font-size:56px;font-style:normal;font-variant:normal;font-weight:normal;font-stretch:normal;text-align:start;line-height:125%;letter-spacing:0px;word-spacing:0px;writing-mode:lr-tb;text-anchor:start;fill:#110b02;fill-opacity:1;stroke:#999999;stroke-width:4;stroke-linecap:round;stroke-linejoin:round;stroke-miterlimit:4;stroke-opacity:1;stroke-dasharray:none;font-family:WoodenNickelBlack;-inkscape-font-specification:WoodenNickelBlack"
       d="m 426.84356,322.62832 c -1e-4,0.26447 -0.0662,0.52877 -0.19826,0.79307 -1.4e-4,0.26447 -0.0662,0.59487 -0.19827,0.99133 -0.26447,0.52877 -0.66097,1.05751 -1.18957,1.58614 -0.52884,0.3966 -1.3219,0.59487 -2.37923,0.5948 l -49.76494,0 0,68.60032 c -7e-5,0.92523 0.26447,1.7844 0.79303,2.57747 0.66083,0.6609 1.38783,1.2557 2.18093,1.7844 1.05737,0.79307 2.24697,1.32177 3.56881,1.58614 1.45389,0.39653 2.90786,0.5948 4.36187,0.5948 3.04003,0 5.6175,-0.66091 7.73244,-1.98267 2.24693,-1.45397 3.37043,-3.04011 3.37054,-4.75841 -1.1e-4,-0.39653 -0.0662,-0.79306 -0.19827,-1.1896 -7e-5,-0.5287 -0.13242,-1.05743 -0.3965,-1.58613 -0.13241,-0.26448 -0.26447,-0.5287 -0.39657,-0.79307 -0.13241,-0.26447 -0.19827,-0.5287 -0.19827,-0.79307 -0.13241,-0.5287 -0.26447,-1.0574 -0.39653,-1.58613 -7e-5,-0.5287 -7e-5,-1.0574 0,-1.58614 -7e-5,-3.30443 1.3878,-6.08017 4.1636,-8.3272 2.90784,-2.37917 6.21231,-3.56877 9.91335,-3.56881 3.83306,4e-5 7.13753,1.18964 9.91334,3.56881 2.90783,2.24703 4.36176,5.02277 4.3619,8.3272 -1.4e-4,1.71834 -0.52884,3.43664 -1.58617,5.15494 -0.92534,1.58614 -1.98274,2.974 -3.17227,4.16361 -0.13241,0 -0.26447,0.0662 -0.39653,0.19826 -7e-5,0 -0.0662,0.0662 -0.19827,0.19827 -4.89071,4.0975 -10.50824,7.33587 -16.85271,9.71507 -6.21241,2.51137 -12.75522,3.76707 -19.62842,3.76707 -16.39008,0 -30.46703,-5.08887 -42.23084,-15.26654 -11.63164,-10.17768 -17.44748,-26.10512 -17.44748,-47.78231 0,-20.48751 5.08888,-35.82013 15.26655,-45.99791 10.30987,-10.1776 23.06502,-15.86124 38.2655,-17.05094 0.66083,-0.26412 1.18956,-0.39643 1.58613,-0.39654 0.3965,-0.13206 0.66083,-0.19826 0.79307,-0.19826 19.29791,10e-5 32.51569,3.83327 39.6534,11.49947 7.26967,7.53425 10.90454,16.58842 10.90464,27.16256 l 0,0 m -29.34349,-3.17227 0,-11.89601 c -7e-5,-4.2296 -1.18967,-7.7984 -3.5688,-10.70641 -2.37927,-2.9078 -5.35328,-4.36176 -8.92197,-4.36187 -3.43671,1.1e-4 -6.41071,1.45407 -8.92205,4.36187 -2.37923,2.90801 -3.56883,6.47681 -3.5688,10.70641 l 0,11.89601 24.98162,0 0,0" />
    <path
       inkscape:connector-curvature="0"
       id="path2994"
       style="font-size:56px;font-style:normal;font-variant:normal;font-weight:normal;font-stretch:normal;text-align:start;line-height:125%;letter-spacing:0px;word-spacing:0px;writing-mode:lr-tb;text-anchor:start;fill:#110b02;fill-opacity:1;stroke:#999999;stroke-width:4;stroke-linecap:round;stroke-linejoin:round;stroke-miterlimit:4;stroke-opacity:1;stroke-dasharray:none;font-family:WoodenNickelBlack;-inkscape-font-specification:WoodenNickelBlack"
       d="m 566.77969,401.34025 c -1.4e-4,1.45397 -0.85927,2.70964 -2.57746,3.76707 -1.58628,1.0574 -3.56895,1.58614 -5.94801,1.58614 l -36.4811,0.19826 c -3.70107,-0.13206 -6.27854,-1.3218 -7.7324,-3.5688 -1.32188,-2.11483 -1.98274,-5.15494 -1.98267,-9.12027 l 0,-84.65994 c -7e-5,-1.71823 -0.85924,-3.1061 -2.57747,-4.16361 -1.58621,-1.05732 -3.37061,-1.71823 -5.35321,-1.98266 -0.26447,1e-4 -0.52877,1e-4 -0.79306,0 -0.13242,1e-4 -0.33033,1e-4 -0.5948,0 -1.98274,1e-4 -3.76714,0.5288 -5.35321,1.58613 -1.454,1.05751 -2.181,2.70974 -2.18093,4.95667 l 0,84.06514 2.3792,1.1896 c 2.24696,0 4.16353,0.5948 5.74974,1.7844 1.71823,1.1896 2.57739,2.4453 2.57747,3.76707 -8e-5,1.7183 -0.85924,3.10617 -2.57747,4.16361 -1.58621,1.1896 -3.50278,1.7844 -5.74974,1.7844 l -50.16151,0.19826 c -2.5114,-0.13206 -4.56014,-0.79306 -6.14627,-1.98266 -1.45397,-1.05744 -2.18094,-2.44531 -2.18094,-4.16361 0,-1.32177 0.72697,-2.57747 2.18094,-3.76707 1.58613,-1.1896 3.63487,-1.7844 6.14627,-1.7844 l 1.7844,-1.1896 0,-97.15075 -1.98267,-0.99133 c -2.3792,10e-5 -4.42797,-0.5286 -6.14627,-1.58614 -1.58613,-1.18949 -2.3792,-2.64346 -2.3792,-4.36187 0,-1.58603 0.79307,-2.90779 2.3792,-3.96534 1.7183,-1.18949 3.76707,-1.78429 6.14627,-1.7844 l 38.2655,0 c 2.90787,1.1e-4 5.0888,0.79318 6.54281,2.3792 1.45389,1.45408 2.37913,3.50281 2.77573,6.14628 3.1722,-3.17217 6.741,-5.55137 10.70641,-7.13761 3.96527,-1.71819 7.99667,-2.77563 12.09428,-3.17227 0.793,-0.13206 1.51996,-0.19827 2.18093,-0.19827 0.6608,1.1e-4 1.3217,1.1e-4 1.98267,0 8.72364,1.1e-4 16.58821,2.37931 23.59376,7.13761 7.00529,4.75851 10.50803,10.90478 10.50814,18.43882 l 0.39653,86.44434 1.98267,1.1896 c 2.37906,0 4.36173,0.5948 5.94801,1.7844 1.71819,1.05743 2.57732,2.3792 2.57746,3.96534 l 0,0.19826" />
    <path
       inkscape:connector-curvature="0"
       id="path2996"
       style="font-size:56px;font-style:normal;font-variant:normal;font-weight:normal;font-stretch:normal;text-align:start;line-height:125%;letter-spacing:0px;word-spacing:0px;writing-mode:lr-tb;text-anchor:start;fill:#110b02;fill-opacity:1;stroke:#999999;stroke-width:4;stroke-linecap:round;stroke-linejoin:round;stroke-miterlimit:4;stroke-opacity:1;stroke-dasharray:none;font-family:WoodenNickelBlack;-inkscape-font-specification:WoodenNickelBlack"
       d="m 714.87263,400.94372 c -1.4e-4,1.58613 -0.79321,2.974 -2.3792,4.1636 -1.58628,1.1896 -3.63501,1.7844 -6.14628,1.7844 l -48.17884,0.19827 c -1.7184,-0.13206 -3.3706,-0.5948 -4.95667,-1.38787 -1.45404,-0.79306 -2.51147,-1.7844 -3.17227,-2.974 -2.2471,1.0574 -4.62631,1.91657 -7.1376,2.57747 -2.51144,0.79307 -5.02281,1.25567 -7.53414,1.38787 -0.52877,0.13206 -1.05747,0.19826 -1.58614,0.19826 -0.52877,0 -1.05747,0 -1.58613,0 -14.27525,0 -26.43563,-6.0141 -36.4811,-18.04228 -10.04554,-12.16034 -15.06828,-26.63382 -15.06828,-43.42044 0,-16.7865 5.02274,-31.19388 15.06828,-43.22217 10.04547,-12.02807 22.20585,-18.04217 36.4811,-18.04228 5.15486,1.1e-4 10.11154,0.85928 14.87001,2.57747 4.8905,1.71841 9.31847,4.22981 13.28388,7.53414 l 0,-25.37815 -1.7844,-1.1896 c -2.51148,1.4e-4 -4.56021,-0.59466 -6.14627,-1.78441 -1.58621,-1.18946 -2.37928,-2.57732 -2.37921,-4.1636 -7e-5,-1.58599 0.793,-2.90776 2.37921,-3.96534 1.58606,-1.05729 3.63479,-1.58599 6.14627,-1.58613 l 36.08456,0 c 4.0974,1.4e-4 6.74093,0.59494 7.93067,1.7844 1.32167,1.05758 1.98253,2.90804 1.98267,5.55147 l 0,130.65785 1.7844,1.1896 c 2.51127,0 4.56,0.5948 6.14628,1.7844 1.58599,1.05743 2.37906,2.24703 2.3792,3.5688 l 0,0.19827 M 659.35791,381.3153 c -7e-5,-0.66086 -0.26447,-1.1896 -0.79306,-1.58613 -0.39661,-0.5287 -0.85924,-0.9913 -1.38787,-1.38787 -0.66097,-0.3965 -1.25577,-0.85913 -1.7844,-1.38787 -0.39661,-0.5287 -0.59487,-1.0574 -0.5948,-1.58613 l 0,-59.08352 c -7e-5,-0.66079 0.19826,-1.18953 0.5948,-1.58613 0.52863,-0.52863 1.12343,-0.99127 1.7844,-1.38787 -7e-5,7e-5 -7e-5,7e-5 0,0 0.13206,-0.13206 0.19827,-0.19827 0.19827,-0.19827 0.52862,-0.39646 0.99126,-0.793 1.38786,-1.1896 0.39647,-0.39646 0.59473,-0.85906 0.5948,-1.38787 -7e-5,-1.9826 -1.1236,-3.7009 -3.37053,-5.15494 -2.11494,-1.45386 -4.69241,-2.18082 -7.73241,-2.18093 -2.90797,1.1e-4 -5.48544,0.72707 -7.73241,2.18093 -2.1149,1.45404 -3.17234,3.17234 -3.17226,5.15494 l 0,70.97953 c -8e-5,0.92527 0.33032,1.7844 0.99133,2.57747 0.66083,0.79307 1.3878,1.45397 2.18093,1.98267 1.05737,0.79306 2.24697,1.38786 3.56881,1.7844 1.32169,0.39653 2.70956,0.5948 4.1636,0.5948 3.04,0 5.61747,-0.72697 7.73241,-2.18094 2.24693,-1.45393 3.37046,-3.10617 3.37053,-4.95667 l 0,0" />
  </g>
</svg>
