<?xml version="1.0" encoding="UTF-8" standalone="no"?>
<!-- Created with Inkscape (http://www.inkscape.org/) -->

<svg
   xmlns:dc="http://purl.org/dc/elements/1.1/"
   xmlns:cc="http://creativecommons.org/ns#"
   xmlns:rdf="http://www.w3.org/1999/02/22-rdf-syntax-ns#"
   xmlns:svg="http://www.w3.org/2000/svg"
   xmlns="http://www.w3.org/2000/svg"
   xmlns:xlink="http://www.w3.org/1999/xlink"
   xmlns:sodipodi="http://sodipodi.sourceforge.net/DTD/sodipodi-0.dtd"
   xmlns:inkscape="http://www.inkscape.org/namespaces/inkscape"
   width="734.28485"
   height="734.047"
   id="svg3286"
   version="1.1"
   inkscape:version="0.48.4 r9939"
   sodipodi:docname="attach_file.svg">
  <defs
     id="defs3288">
    <linearGradient
       id="linearGradient3782">
      <stop
         style="stop-color:#ffffff;stop-opacity:1;"
         offset="0"
         id="stop3784" />
      <stop
         id="stop3790"
         offset="0.8108108"
         style="stop-color:#e3f700;stop-opacity:0.66141731;" />
      <stop
         style="stop-color:#e3dd00;stop-opacity:0.48818898;"
         offset="1"
         id="stop3786" />
    </linearGradient>
    <linearGradient
       id="linearGradient3756">
      <stop
         style="stop-color:#110b02;stop-opacity:1;"
         offset="0"
         id="stop3758" />
      <stop
         id="stop3764"
         offset="0.5"
         style="stop-color:#888580;stop-opacity:1;" />
      <stop
         style="stop-color:#110b02;stop-opacity:1;"
         offset="1"
         id="stop3760" />
    </linearGradient>
    <linearGradient
       inkscape:collect="always"
       xlink:href="#linearGradient3756"
       id="linearGradient3762"
       x1="69.243614"
       y1="446.66449"
       x2="321.76239"
       y2="446.66449"
       gradientUnits="userSpaceOnUse" />
    <linearGradient
       inkscape:collect="always"
       xlink:href="#linearGradient3756"
       id="linearGradient3772"
       x1="69.243614"
       y1="446.66449"
       x2="321.76239"
       y2="446.66449"
       gradientUnits="userSpaceOnUse" />
    <linearGradient
       inkscape:collect="always"
       xlink:href="#linearGradient3782"
       id="linearGradient3800"
       x1="12.195787"
       y1="426.32004"
       x2="692.80096"
       y2="923.73883"
       gradientUnits="userSpaceOnUse" />
  </defs>
  <sodipodi:namedview
     id="base"
     pagecolor="#ffffff"
     bordercolor="#666666"
     borderopacity="1.0"
     inkscape:pageopacity="0.0"
     inkscape:pageshadow="2"
     inkscape:zoom="0.59105127"
     inkscape:cx="368.66344"
     inkscape:cy="375.36407"
     inkscape:document-units="px"
     inkscape:current-layer="layer1"
     showgrid="false"
     inkscape:window-width="1440"
     inkscape:window-height="824"
     inkscape:window-x="0"
     inkscape:window-y="24"
     inkscape:window-maximized="1"
     fit-margin-top="0"
     fit-margin-left="0"
     fit-margin-right="0"
     fit-margin-bottom="0" />
  <metadata
     id="metadata3291">
    <rdf:RDF>
      <cc:Work
         rdf:about="">
        <dc:format>image/svg+xml</dc:format>
        <dc:type
           rdf:resource="http://purl.org/dc/dcmitype/StillImage" />
        <dc:title />
      </cc:Work>
    </rdf:RDF>
  </metadata>
  <g
     inkscape:label="Layer 1"
     inkscape:groupmode="layer"
     id="layer1"
     transform="translate(-3.3838012,-167.49817)">
    <rect
       style="fill:#ffffff;fill-opacity:1;stroke:none"
       id="rect3802"
       width="734.28485"
       height="734.047"
       x="3.3838012"
       y="167.49817" />
    <rect
       style="fill:url(#linearGradient3800);fill-opacity:1;stroke:#110b02;stroke-width:4;stroke-linecap:round;stroke-linejoin:round;stroke-miterlimit:4;stroke-opacity:1;stroke-dasharray:none"
       id="rect3841"
       width="688.44849"
       height="531.63525"
       x="24.347191"
       y="334.76819" />
    <path
       style="fill:url(#linearGradient3762);fill-opacity:1;stroke:url(#linearGradient3772);stroke-width:2;stroke-linecap:butt;stroke-linejoin:miter;stroke-miterlimit:4;stroke-opacity:1;stroke-dasharray:none"
       d="m 282.51525,357.71657 -3.8247,250.51876 c 0,0 -2.84648,98.57011 -97.53021,101.35491 C 85.190121,712.41287 70.243617,625.44652 70.243617,625.44652 l 1.912371,-374.82197 c 0,0 28.642742,-65.41011 120.478472,-66.93249 96.07302,-1.59263 128.12792,89.88079 128.12792,89.88079 l -1.91234,63.10776 c 1.71409,-4.70078 3.53301,-1.40714 -26.77301,-1.91234 l 0,-51.63364 c 0,0 -28.86791,-74.52886 -97.5302,-70.75724 -84.5991,4.64705 -101.354912,55.45839 -101.354912,55.45839 l -1.912371,330.83777 c 0,0 14.549283,62.56624 86.056053,61.19542 71.52699,-1.3712 70.7572,-70.7572 70.7572,-70.7572 l 5.73708,-233.30757 c 0,0 6.61034,-15.27239 13.38652,-15.29885 7.67587,-0.0303 15.29885,17.21122 15.29885,17.21122 z"
       id="path3839"
       inkscape:connector-curvature="0"
       sodipodi:nodetypes="ccsccsccccsccsccsc" />
    <g
       transform="matrix(3.7862736,0,0,3.7862736,-1947.2929,-918.91717)"
       style="font-size:12px;font-style:normal;font-variant:normal;font-weight:normal;font-stretch:normal;text-align:start;line-height:125%;letter-spacing:0px;word-spacing:0px;writing-mode:lr-tb;text-anchor:start;fill:#146bd5;fill-opacity:1;stroke:#146bd5;stroke-width:0.52822387;stroke-miterlimit:4;stroke-opacity:1;font-family:Sans;-inkscape-font-specification:Sans"
       id="flowRoot3843">
      <path
         d="m 594.5935,418.99939 c 0,2.11199 -1.2,3.072 -3.984,3.168 l 0,1.2 15.168,0 c 10.36799,0 17.28,-6.62401 17.28,-16.56 0,-9.88799 -6.72001,-15.888 -17.808,-15.888 l -14.64,0 0,1.2 c 3.072,0.288 3.984,1.008 3.984,3.216 l 0,23.664 m 7.776,-24.768 c 0,-1.104 0.96,-1.68 2.832,-1.68 3.456,0 5.904,1.584 7.536,4.896 1.296,2.54399 1.968,6.048 1.968,10.08 0,4.55999 -0.96,8.688 -2.496,10.848 -1.632,2.20799 -3.936,3.312 -7.056,3.312 -2.16,0 -2.784,-0.62401 -2.784,-2.784 l 0,-24.672"
         style="font-size:48px;font-weight:bold;fill:#146bd5;stroke:#146bd5;font-family:Nimbus Roman No9 L;-inkscape-font-specification:Nimbus Roman No9 L Bold"
         id="path3805" />
      <path
         d="m 643.489,390.19939 c -10.03199,0 -17.184,7.10401 -17.184,17.088 0,9.93599 7.05601,16.992 16.992,16.992 9.93599,0 16.992,-7.10401 16.992,-17.04 0,-9.79199 -7.15201,-17.04 -16.8,-17.04 m -0.048,1.584 c 5.27999,0 8.352,5.80801 8.352,15.792 0,9.83999 -2.97601,15.12 -8.496,15.12 -5.51999,0 -8.496,-5.28001 -8.496,-14.976 0,-10.36799 3.02401,-15.936 8.64,-15.936"
         style="font-size:48px;font-weight:bold;fill:#146bd5;stroke:#146bd5;font-family:Nimbus Roman No9 L;-inkscape-font-specification:Nimbus Roman No9 L Bold"
         id="path3807" />
      <path
         d="m 693.4735,416.07139 c -2.832,2.97599 -4.368,4.128 -6.72,5.04 -1.392,0.576 -2.976,0.864 -4.32,0.864 -3.168,0 -6.192,-1.68001 -7.584,-4.176 -1.392,-2.544 -2.064,-6.00001 -2.064,-10.8 0,-9.93599 3.07201,-15.216 8.832,-15.216 2.256,0 4.32,0.864 6.384,2.688 2.064,1.87199 3.168,3.456 4.848,7.104 l 1.2,0 0,-11.232 -1.296,0 c -0.672,1.67999 -1.2,2.208 -2.112,2.208 -0.432,0 -1.152,-0.192 -2.208,-0.672 -2.832,-1.152 -5.136,-1.68 -7.44,-1.68 -9.55199,0 -16.704,7.39201 -16.704,17.184 0,9.88799 7.05601,16.896 16.992,16.896 3.408,0 6.24,-0.81601 8.88,-2.592 1.536,-1.056 2.592,-2.01601 4.752,-4.416 l -1.44,-1.2"
         style="font-size:48px;font-weight:bold;fill:#146bd5;stroke:#146bd5;font-family:Nimbus Roman No9 L;-inkscape-font-specification:Nimbus Roman No9 L Bold"
         id="path3809" />
    </g>
  </g>
</svg>
