<?xml version="1.0" encoding="UTF-8" standalone="no"?>
<!-- Created with Inkscape (http://www.inkscape.org/) -->

<svg
   xmlns:dc="http://purl.org/dc/elements/1.1/"
   xmlns:cc="http://creativecommons.org/ns#"
   xmlns:rdf="http://www.w3.org/1999/02/22-rdf-syntax-ns#"
   xmlns:svg="http://www.w3.org/2000/svg"
   xmlns="http://www.w3.org/2000/svg"
   xmlns:xlink="http://www.w3.org/1999/xlink"
   xmlns:sodipodi="http://sodipodi.sourceforge.net/DTD/sodipodi-0.dtd"
   xmlns:inkscape="http://www.inkscape.org/namespaces/inkscape"
   width="795.23865"
   height="802.5011"
   id="svg3491"
   version="1.1"
   inkscape:version="0.48.4 r9939"
   sodipodi:docname="bin.svg">
  <defs
     id="defs3493">
    <linearGradient
       id="linearGradient3787">
      <stop
         style="stop-color:#3b3b3b;stop-opacity:1;"
         offset="0"
         id="stop3789" />
      <stop
         id="stop3795"
         offset="0.28378379"
         style="stop-color:#8c8c8c;stop-opacity:1;" />
      <stop
         style="stop-color:#dddddd;stop-opacity:1;"
         offset="1"
         id="stop3791" />
    </linearGradient>
    <linearGradient
       id="linearGradient3757">
      <stop
         style="stop-color:#000080;stop-opacity:1;"
         offset="0"
         id="stop3759" />
      <stop
         id="stop3767"
         offset="0.5"
         style="stop-color:#6193cf;stop-opacity:1;" />
      <stop
         style="stop-color:#000080;stop-opacity:1;"
         offset="1"
         id="stop3761" />
    </linearGradient>
    <linearGradient
       inkscape:collect="always"
       xlink:href="#linearGradient3757"
       id="linearGradient3763"
       x1="80.836708"
       y1="875.1145"
       x2="602.89996"
       y2="875.1145"
       gradientUnits="userSpaceOnUse" />
    <linearGradient
       inkscape:collect="always"
       xlink:href="#linearGradient3757"
       id="linearGradient3765"
       x1="30.001265"
       y1="397.85617"
       x2="668.98608"
       y2="397.85617"
       gradientUnits="userSpaceOnUse" />
    <linearGradient
       inkscape:collect="always"
       xlink:href="#linearGradient3757"
       id="linearGradient3775"
       x1="80.836708"
       y1="875.1145"
       x2="602.89996"
       y2="875.1145"
       gradientUnits="userSpaceOnUse" />
    <linearGradient
       inkscape:collect="always"
       xlink:href="#linearGradient3757"
       id="linearGradient3777"
       x1="30.001265"
       y1="397.85617"
       x2="668.98608"
       y2="397.85617"
       gradientUnits="userSpaceOnUse" />
    <linearGradient
       inkscape:collect="always"
       xlink:href="#linearGradient3787"
       id="linearGradient3793"
       x1="27.975176"
       y1="597.5437"
       x2="671.21106"
       y2="597.5437"
       gradientUnits="userSpaceOnUse" />
  </defs>
  <sodipodi:namedview
     id="base"
     pagecolor="#ffffff"
     bordercolor="#666666"
     borderopacity="1.0"
     inkscape:pageopacity="0.0"
     inkscape:pageshadow="2"
     inkscape:zoom="0.59105127"
     inkscape:cx="448.10974"
     inkscape:cy="332.44905"
     inkscape:document-units="px"
     inkscape:current-layer="layer1"
     showgrid="false"
     inkscape:window-width="1440"
     inkscape:window-height="824"
     inkscape:window-x="0"
     inkscape:window-y="24"
     inkscape:window-maximized="1"
     fit-margin-top="5"
     fit-margin-left="75"
     fit-margin-right="75"
     fit-margin-bottom="5" />
  <metadata
     id="metadata3496">
    <rdf:RDF>
      <cc:Work
         rdf:about="">
        <dc:format>image/svg+xml</dc:format>
        <dc:type
           rdf:resource="http://purl.org/dc/dcmitype/StillImage" />
        <dc:title />
      </cc:Work>
    </rdf:RDF>
  </metadata>
  <g
     inkscape:label="Layer 1"
     inkscape:groupmode="layer"
     id="layer1"
     transform="translate(48.03125,-152.99508)">
    <path
       sodipodi:type="arc"
       style="fill:none;stroke:#110b02;stroke-width:0.38389489;stroke-linejoin:round;stroke-miterlimit:4;stroke-opacity:1;stroke-dasharray:none"
       id="path3959"
       sodipodi:cx="112.37947"
       sodipodi:cy="595.01562"
       sodipodi:rx="58.336308"
       sodipodi:ry="13.889597"
       d="m 55.940095,591.50244 c 8.149178,-7.42158 40.024162,-11.86504 71.194765,-9.92476 31.17061,1.94028 49.83317,9.52956 41.68399,16.95113 -8.14918,7.42158 -40.02416,11.86504 -71.194772,9.92476 -29.715003,-1.84967 -48.316812,-8.86829 -42.53963,-16.05055"
       sodipodi:start="3.3973071"
       sodipodi:end="9.6140029"
       sodipodi:open="true"
       transform="matrix(5.4713418,0,0,4.9606834,-264.24296,-2635.5198)" />
    <path
       style="fill:url(#linearGradient3793);fill-opacity:1;stroke:#000000;stroke-width:4;stroke-linecap:round;stroke-linejoin:round;stroke-miterlimit:4;stroke-opacity:1;stroke-dasharray:none"
       d="m 28.975176,319.26699 62.055093,554.35876 c 0,0 53.601751,34.57271 80.968991,45.99825 37.44854,15.63438 70.89361,23.96732 111.40176,26.39935 40.65989,2.44112 78.72542,4.22573 119.18447,-0.49122 41.77663,-4.87057 86.99023,-15.39748 126.96737,-28.46783 22.56961,-7.37901 64.12357,-31.02752 64.12357,-31.02752 l 76.53464,-568.8383 c 0,0 -9.88956,-65.01339 -322.68649,-70.32909 -315.704884,-5.36509 -318.549404,72.3976 -318.549404,72.3976 z"
       id="path3961"
       inkscape:connector-curvature="0"
       sodipodi:nodetypes="ccssssccsc" />
    <path
       sodipodi:type="arc"
       style="fill:#110b02;fill-opacity:1;stroke:#000000;stroke-width:4;stroke-linecap:round;stroke-linejoin:round;stroke-miterlimit:4;stroke-opacity:1;stroke-dasharray:none"
       id="path3797"
       sodipodi:cx="361.56708"
       sodipodi:cy="374.97992"
       sodipodi:rx="314.54431"
       sodipodi:ry="82.60759"
       d="m 676.11139,374.97992 c 0,45.62291 -140.82629,82.60759 -314.54431,82.60759 -173.71803,0 -314.544314,-36.98468 -314.544314,-82.60759 0,-45.62291 140.826284,-82.60759 314.544314,-82.60759 173.71802,0 314.54431,36.98468 314.54431,82.60759 z"
       transform="matrix(1.0123305,0,0,0.92387367,-14.625377,-26.102255)" />
    <path
       style="fill:#fefefe;fill-opacity:1;stroke:#110b02;stroke-width:4;stroke-linecap:butt;stroke-linejoin:round;stroke-miterlimit:4;stroke-opacity:1;stroke-dasharray:none"
       d="M 102.968,363.32772 328.90804,159.99229 585.82269,391.46267 c 0,0 -166.96111,-7.12483 -254.84614,-6.00359 C 205.48565,387.06015 102.968,363.32772 102.968,363.32772 z"
       id="path3963"
       inkscape:connector-curvature="0"
       sodipodi:nodetypes="cccsc" />
    <path
       style="fill:url(#linearGradient3763);fill-opacity:1;stroke:url(#linearGradient3775);stroke-width:1px;stroke-linecap:butt;stroke-linejoin:miter;stroke-opacity:1"
       d="M 91.503796,871.89636 81.336707,801.99763 c 0,0 85.866913,46.49884 132.172153,61.00253 34.89324,10.92923 66.26464,20.04397 108.02531,19.06329 49.01407,-1.15101 98.49136,-5.02469 146.1519,-16.52152 46.6572,-11.2548 134.71392,-50.83544 134.71392,-50.83544 l -8.8962,74.98228 c 0,0 -103.29431,47.6772 -180.46582,54.6481 -24.9249,2.25147 -49.9614,4.33758 -74.98228,3.81266 -36.58131,-0.76745 -73.48562,-2.65819 -109.2962,-10.16709 C 151.87078,921.86013 91.503796,871.89636 91.503796,871.89636 z"
       id="path2985"
       inkscape:connector-curvature="0"
       sodipodi:nodetypes="ccsssccsssc" />
    <path
       style="fill:url(#linearGradient3765);fill-opacity:1;stroke:url(#linearGradient3777);stroke-width:1px;stroke-linecap:butt;stroke-linejoin:miter;stroke-opacity:1"
       d="m 30.501265,320.33182 7.625317,82.60759 c 0,0 16.66264,72.18265 303.741768,72.4405 303.04128,0.27219 317.72151,-87.69113 317.72151,-87.69113 l 8.8962,-67.35696 c 0,0 -30.0946,69.27737 -322.80505,64.81518 C 31.17201,380.35251 30.501265,320.33182 30.501265,320.33182 z"
       id="path2987"
       inkscape:connector-curvature="0"
       sodipodi:nodetypes="ccsccsc" />
  </g>
</svg>
