<?xml version="1.0" encoding="UTF-8" standalone="no"?>
<!-- Created with Inkscape (http://www.inkscape.org/) -->

<svg
   xmlns:dc="http://purl.org/dc/elements/1.1/"
   xmlns:cc="http://creativecommons.org/ns#"
   xmlns:rdf="http://www.w3.org/1999/02/22-rdf-syntax-ns#"
   xmlns:svg="http://www.w3.org/2000/svg"
   xmlns="http://www.w3.org/2000/svg"
   xmlns:xlink="http://www.w3.org/1999/xlink"
   xmlns:sodipodi="http://sodipodi.sourceforge.net/DTD/sodipodi-0.dtd"
   xmlns:inkscape="http://www.inkscape.org/namespaces/inkscape"
   width="718.56091"
   height="700.97131"
   id="svg3313"
   version="1.1"
   inkscape:version="0.48.4 r9939"
   sodipodi:docname="del_contact.svg">
  <defs
     id="defs3315">
    <linearGradient
       id="linearGradient3755">
      <stop
         style="stop-color:#110b02;stop-opacity:1;"
         offset="0"
         id="stop3757" />
      <stop
         style="stop-color:#146bd5;stop-opacity:1;"
         offset="1"
         id="stop3759" />
    </linearGradient>
    <linearGradient
       inkscape:collect="always"
       xlink:href="#linearGradient3755"
       id="linearGradient3761"
       x1="38.204781"
       y1="316.80078"
       x2="546.31085"
       y2="316.80078"
       gradientUnits="userSpaceOnUse" />
    <linearGradient
       inkscape:collect="always"
       xlink:href="#linearGradient3755"
       id="linearGradient3767"
       gradientUnits="userSpaceOnUse"
       x1="38.204781"
       y1="316.80078"
       x2="546.31085"
       y2="316.80078" />
    <linearGradient
       inkscape:collect="always"
       xlink:href="#linearGradient3755"
       id="linearGradient3769"
       gradientUnits="userSpaceOnUse"
       x1="38.204781"
       y1="316.80078"
       x2="546.31085"
       y2="316.80078" />
  </defs>
  <sodipodi:namedview
     id="base"
     pagecolor="#ffffff"
     bordercolor="#666666"
     borderopacity="1.0"
     inkscape:pageopacity="0.0"
     inkscape:pageshadow="2"
     inkscape:zoom="0.59105127"
     inkscape:cx="364.83965"
     inkscape:cy="198.98329"
     inkscape:document-units="px"
     inkscape:current-layer="layer1"
     showgrid="false"
     inkscape:window-width="1440"
     inkscape:window-height="824"
     inkscape:window-x="0"
     inkscape:window-y="24"
     inkscape:window-maximized="1"
     fit-margin-top="155"
     fit-margin-left="5"
     fit-margin-right="5"
     fit-margin-bottom="155" />
  <metadata
     id="metadata3318">
    <rdf:RDF>
      <cc:Work
         rdf:about="">
        <dc:format>image/svg+xml</dc:format>
        <dc:type
           rdf:resource="http://purl.org/dc/dcmitype/StillImage" />
        <dc:title />
      </cc:Work>
    </rdf:RDF>
  </metadata>
  <g
     inkscape:label="Layer 1"
     inkscape:groupmode="layer"
     id="layer1"
     transform="translate(-7.2075888,-24.193082)">
    <g
       transform="matrix(1.3945138,0,0,1.3945138,-41.069503,-67.10433)"
       style="font-size:40px;font-style:normal;font-variant:normal;font-weight:normal;font-stretch:normal;line-height:125%;letter-spacing:0px;word-spacing:0px;fill:url(#linearGradient3761);fill-opacity:1;stroke:#110b02;stroke-width:1.43419158;stroke-miterlimit:4;stroke-opacity:1;font-family:Abyssinica SIL;-inkscape-font-specification:Abyssinica SIL"
       id="flowRoot3321">
      <path
         d="m 127.72656,274.36719 c -0.32822,0.0469 -0.79697,0.16406 -1.40625,0.35156 -0.60946,0.1875 -1.33603,0.39844 -2.17968,0.63281 -0.84384,0.23438 -1.78134,0.44531 -2.8125,0.63281 -0.98447,0.1875 -2.01572,0.28125 -3.09375,0.28125 -4.31258,0 -7.80477,-0.65625 -10.47657,-1.96875 -2.67194,-1.26562 -4.85163,-2.95312 -6.53906,-5.0625 -1.64069,-2.15624 -2.929752,-4.59374 -3.867188,-7.3125 C 96.414,259.20314 95.546814,256.43752 94.75,253.625 c -0.796935,-2.85935 -1.687559,-5.64841 -2.671875,-8.36719 -0.937557,-2.71872 -2.273493,-5.13278 -4.007813,-7.24219 -1.734427,-2.15621 -3.984424,-3.86714 -6.75,-5.13281 -2.765669,-1.31246 -6.351603,-1.9687 -10.757812,-1.96875 -0.750036,5e-5 -1.500035,0.0235 -2.25,0.0703 -0.750033,5e-5 -1.42972,0.0235 -2.039063,0.0703 -0.562531,0.0469 -1.054718,0.0938 -1.476562,0.14062 -0.421905,5e-5 -0.65628,5e-5 -0.703125,0 l 0,32.83594 c -3e-5,0.70313 0.234345,1.38282 0.703125,2.03906 0.515594,0.65626 1.289031,1.03126 2.320312,1.125 l 7.59375,0.5625 0,6.1875 -35.789062,0 0,-6.1875 7.453125,-0.5625 c 1.031237,-0.0937 1.804674,-0.46874 2.320312,-1.125 0.562486,-0.65624 0.843735,-1.33593 0.84375,-2.03906 l 0,-76.78125 c -1.5e-5,-0.70304 -0.281264,-1.38272 -0.84375,-2.03906 -0.515638,-0.65616 -1.289075,-1.03116 -2.320312,-1.125 l -7.453125,-0.5625 0,-6.1875 37.546875,0 c 5.484327,9e-5 10.406197,0.44541 14.765625,1.33593 4.359314,0.89072 8.062435,2.34385 11.109375,4.35938 3.0468,2.01571 5.36711,4.66415 6.96094,7.94531 1.64055,3.23446 2.46086,7.21883 2.46094,11.95313 -8e-5,3.79694 -0.65633,7.05475 -1.96875,9.77343 -1.31258,2.71881 -3.07039,5.01569 -5.27344,6.89063 -2.15632,1.87505 -4.664131,3.39849 -7.52344,4.57031 -2.859435,1.17193 -5.812557,2.10943 -8.859375,2.8125 3.890567,0.93755 7.007752,2.25005 9.351562,3.9375 2.343685,1.64067 4.195243,3.51567 5.554693,5.625 1.3593,2.10941 2.36711,4.35941 3.02343,6.75 0.65618,2.34378 1.24212,4.68753 1.75782,7.03125 0.51555,2.2969 1.10148,4.50002 1.75781,6.60938 0.65617,2.10939 1.66398,3.98439 3.02344,5.625 1.40617,1.64063 3.28116,2.95313 5.625,3.9375 2.39053,0.9375 5.55459,1.40625 9.49218,1.40625 l 0,6.46875 M 96.085937,203.5625 c -6.1e-5,-3.09368 -0.468811,-5.81242 -1.40625,-8.15625 -0.937559,-2.39054 -2.437557,-4.40617 -4.5,-6.04688 -2.015678,-1.64053 -4.640676,-2.88272 -7.875,-3.72656 -3.187544,-0.84366 -7.054728,-1.26553 -11.601562,-1.26562 l -6.609375,0 0,39.44531 c 0.09372,5e-5 0.421845,0.0235 0.984375,0.0703 0.562469,5e-5 1.195281,5e-5 1.898437,0 0.749967,5e-5 1.499966,0.0235 2.25,0.0703 0.79684,5e-5 1.476527,5e-5 2.039063,0 3.984334,5e-5 7.523393,-0.32807 10.617187,-0.98437 3.0937,-0.70307 5.69526,-1.85151 7.804688,-3.44531 2.109317,-1.5937 3.703066,-3.67963 4.78125,-6.25782 1.078064,-2.62493 1.617126,-5.8593 1.617187,-9.70312"
         style="font-size:144px;font-weight:bold;fill:url(#linearGradient3767);stroke:#110b02;-inkscape-font-specification:Abyssinica SIL Bold"
         id="path3772" />
      <path
         d="m 193.32812,266.77344 c -2.01568,1.26563 -4.12506,2.4375 -6.32812,3.51562 -2.15631,1.07813 -4.4063,2.01563 -6.75,2.8125 -2.29693,0.79688 -4.64067,1.42969 -7.03125,1.89844 -2.39067,0.46875 -4.80473,0.70312 -7.24219,0.70312 -4.35941,0 -8.55471,-0.72656 -12.58594,-2.17968 -4.03127,-1.5 -7.59376,-3.72656 -10.6875,-6.67969 -3.04688,-2.95311 -5.50782,-6.65624 -7.38281,-11.10938 -1.82813,-4.49997 -2.74219,-9.74997 -2.74219,-15.75 0,-5.62496 0.84375,-10.71089 2.53125,-15.25781 1.6875,-4.59369 4.03124,-8.50775 7.03125,-11.74219 2.99999,-3.28118 6.56248,-5.78899 10.6875,-7.52343 4.12498,-1.78118 8.64841,-2.67181 13.57032,-2.67188 4.45308,7e-5 8.36714,0.75007 11.74218,2.25 3.37495,1.45319 6.18745,3.49226 8.4375,6.11719 2.24994,2.57819 3.93744,5.69537 5.0625,9.35156 1.12494,3.60943 1.68744,7.54692 1.6875,11.8125 -6e-5,0.51567 -6e-5,1.14848 0,1.89844 -6e-5,0.75004 -0.0469,1.45316 -0.14062,2.10937 l -46.6875,0 c -2e-5,3.65629 0.37498,7.31254 1.125,10.96875 0.79685,3.65628 2.10935,6.93752 3.9375,9.84375 1.8281,2.90627 4.28903,5.27345 7.38281,7.10157 3.09372,1.78126 6.9609,2.67188 11.60156,2.67187 2.06246,10e-6 4.10152,-0.2578 6.11719,-0.77344 2.01558,-0.56249 3.98432,-1.26561 5.90625,-2.10937 1.9687,-0.84374 3.84369,-1.78124 5.625,-2.8125 1.78119,-1.07811 3.49213,-2.15624 5.13281,-3.23438 l 0,8.78907 m -14.41406,-40.07813 c -5e-5,-2.39057 -0.2813,-4.5937 -0.84375,-6.60937 -0.56255,-2.06245 -1.42973,-3.84369 -2.60156,-5.34375 -1.12505,-1.49994 -2.57817,-2.67182 -4.35938,-3.51563 -1.73441,-0.89056 -3.79691,-1.33587 -6.1875,-1.33594 -2.39065,7e-5 -4.61722,0.46882 -6.67968,1.40625 -2.06253,0.89069 -3.89065,2.20319 -5.48438,3.9375 -1.5469,1.73444 -2.81252,3.84381 -3.79687,6.32813 -0.93752,2.43755 -1.50002,5.20317 -1.6875,8.29687 l 31.64062,0 0,-3.16406"
         style="font-size:144px;font-weight:bold;fill:url(#linearGradient3767);stroke:#110b02;-inkscape-font-specification:Abyssinica SIL Bold"
         id="path3774" />
      <path
         d="m 285.22656,273.94531 0,-5.625 6.04688,-0.42187 c 0.89053,-0.0937 1.61709,-0.42187 2.17968,-0.98438 0.56241,-0.56249 0.84366,-1.28905 0.84375,-2.17969 l 0,-36.70312 c -9e-5,-2.24995 -0.21103,-4.26557 -0.63281,-6.04688 -0.42197,-1.82807 -1.14853,-3.37494 -2.17969,-4.64062 -0.98446,-1.26557 -2.29696,-2.24994 -3.9375,-2.95313 -1.64071,-0.70306 -3.65633,-1.05462 -6.04687,-1.05468 -1.21883,6e-5 -2.50789,0.11725 -3.86719,0.35156 -1.31258,0.18756 -2.64851,0.46881 -4.00781,0.84375 -1.31257,0.32818 -2.62507,0.75006 -3.9375,1.26562 -1.2657,0.46881 -2.46101,0.98444 -3.58594,1.54688 l 0,47.39062 c -7e-5,0.89064 0.28118,1.6172 0.84375,2.17969 0.56243,0.56251 1.289,0.89063 2.17969,0.98438 l 6.04687,0.42187 0,5.625 -31.57031,0 0,-5.625 6.04688,-0.42187 c 0.89057,-0.0937 1.61713,-0.42187 2.17968,-0.98438 0.56245,-0.56249 0.8437,-1.28905 0.84375,-2.17969 l 0,-37.61718 c -5e-5,-2.01558 -0.23442,-3.86714 -0.70312,-5.55469 -0.42193,-1.73432 -1.14849,-3.18744 -2.17969,-4.35938 -0.98442,-1.21869 -2.29692,-2.15619 -3.9375,-2.8125 -1.59379,-0.70306 -3.5391,-1.05462 -5.83594,-1.05468 -1.35941,6e-5 -2.7891,0.14068 -4.28906,0.42187 -1.45316,0.23444 -2.85941,0.56256 -4.21875,0.98438 -1.3594,0.37506 -2.64847,0.82037 -3.86719,1.33593 -1.1719,0.46881 -2.17971,0.93756 -3.02343,1.40625 l 0,47.25 c -3e-5,0.89064 0.28122,1.6172 0.84375,2.17969 0.56247,0.56251 1.28903,0.89063 2.17968,0.98438 l 6.04688,0.42187 0,5.625 -32.55469,0 0,-5.625 7.03125,-0.42187 c 0.89062,-0.0937 1.61718,-0.42187 2.17969,-0.98438 0.56249,-0.56249 0.84374,-1.28905 0.84375,-2.17969 l 0,-49.99218 -9.91406,0 0,-4.71094 17.4375,-5.48438 5.90625,0 0,7.17188 c 1.59372,-0.98431 3.35153,-1.99212 5.27343,-3.02344 1.96872,-1.03118 3.98434,-1.99212 6.04688,-2.88281 2.06246,-0.89056 4.12496,-1.61712 6.1875,-2.17969 2.10933,-0.56243 4.10151,-0.84368 5.97656,-0.84375 2.06245,7e-5 3.93745,0.30476 5.625,0.91406 1.68745,0.56257 3.16401,1.33601 4.42969,2.32032 1.31244,0.93756 2.43744,2.01569 3.375,3.23437 0.98431,1.17194 1.78118,2.34381 2.39062,3.51563 1.45306,-0.89057 3.21087,-1.92181 5.27344,-3.09375 2.06243,-1.17181 4.24211,-2.24994 6.53906,-3.23438 2.2968,-1.03118 4.59367,-1.89837 6.89063,-2.60156 2.29679,-0.70305 4.40616,-1.05462 6.32812,-1.05469 3.79679,7e-5 6.89053,0.7032 9.28125,2.10938 2.39053,1.35944 4.26553,3.11725 5.625,5.27343 1.40615,2.10944 2.36708,4.47663 2.88282,7.10157 0.51551,2.62505 0.77333,5.1563 0.77343,7.59375 l 0,39.86718 c -1e-4,0.89064 0.28115,1.6172 0.84375,2.17969 0.60927,0.56251 1.33583,0.89063 2.17969,0.98438 l 6.96094,0.42187 0,5.625 -32.27344,0"
         style="font-size:144px;font-weight:bold;fill:url(#linearGradient3767);stroke:#110b02;-inkscape-font-specification:Abyssinica SIL Bold"
         id="path3776" />
      <path
         d="m 394,239.35156 c -7e-5,5.10941 -0.82039,9.89065 -2.46094,14.34375 -1.59382,4.40627 -3.89069,8.25001 -6.89062,11.53125 -2.95319,3.23438 -6.56256,5.78907 -10.82813,7.66406 -4.2188,1.875 -8.95317,2.8125 -14.20312,2.8125 -5.25004,0 -9.98441,-0.91406 -14.20313,-2.74218 -4.21877,-1.875 -7.8047,-4.42968 -10.75781,-7.66407 -2.95314,-3.23436 -5.22657,-7.05467 -6.82031,-11.46093 -1.54688,-4.4531 -2.32032,-9.28122 -2.32032,-14.48438 0,-5.10933 0.79687,-9.89058 2.39063,-14.34375 1.59374,-4.45307 3.89061,-8.32025 6.89062,-11.60156 2.99999,-3.32806 6.60936,-5.92962 10.82813,-7.80469 4.2656,-1.87493 9.07028,-2.81243 14.41406,-2.8125 5.34371,7e-5 10.12495,0.96101 14.34375,2.88281 4.21869,1.92195 7.78119,4.54694 10.6875,7.875 2.90619,3.28131 5.10931,7.1485 6.60938,11.60157 1.5468,4.40629 2.32024,9.14066 2.32031,14.20312 m -14.97656,-0.14062 c -6e-5,-3.93746 -0.3985,-7.7109 -1.19532,-11.32032 -0.75005,-3.60932 -1.92193,-6.79682 -3.51562,-9.5625 -1.5938,-2.76556 -3.58599,-4.96868 -5.97656,-6.60937 -2.39067,-1.64056 -5.20317,-2.46087 -8.4375,-2.46094 -3.32816,7e-5 -6.21097,0.82038 -8.64844,2.46094 -2.43753,1.64069 -4.45315,3.84381 -6.04688,6.60937 -1.54689,2.76568 -2.69533,5.95318 -3.44531,9.5625 -0.75002,3.60942 -1.12502,7.38286 -1.125,11.32032 -2e-5,3.89065 0.37498,7.64065 1.125,11.25 0.79686,3.60939 1.99217,6.79689 3.58594,9.5625 1.59372,2.76563 3.58591,4.99219 5.97656,6.67968 2.39059,1.64064 5.20309,2.46095 8.4375,2.46094 3.28121,10e-6 6.14058,-0.8203 8.57813,-2.46094 2.43745,-1.64061 4.42963,-3.84373 5.97656,-6.60937 1.59369,-2.76561 2.76557,-5.95311 3.51562,-9.5625 0.79682,-3.60935 1.19526,-7.38278 1.19532,-11.32031"
         style="font-size:144px;font-weight:bold;fill:url(#linearGradient3767);stroke:#110b02;-inkscape-font-specification:Abyssinica SIL Bold"
         id="path3778" />
      <path
         d="m 465.85937,211.01562 -25.17187,62.92969 -9.35156,0 -23.20313,-62.92969 -7.94531,-0.84375 0,-5.625 31.85156,0 0,5.625 -6.89062,0.42188 c -0.7969,0.0938 -1.42971,0.44538 -1.89844,1.05469 -0.46877,0.60943 -0.56252,1.31256 -0.28125,2.10937 l 16.10156,45.07031 17.71875,-45.07031 c 0.32807,-0.74994 0.28119,-1.42962 -0.14062,-2.03906 -0.42193,-0.65619 -1.03131,-1.03119 -1.82813,-1.125 l -6.46875,-0.42188 0,-5.625 25.17188,0 0,5.625 -7.66407,0.84375"
         style="font-size:144px;font-weight:bold;fill:url(#linearGradient3767);stroke:#110b02;-inkscape-font-specification:Abyssinica SIL Bold"
         id="path3780" />
      <path
         d="m 540.67187,266.77344 c -2.01568,1.26563 -4.12506,2.4375 -6.32812,3.51562 -2.15631,1.07813 -4.4063,2.01563 -6.75,2.8125 -2.29693,0.79688 -4.64067,1.42969 -7.03125,1.89844 -2.39067,0.46875 -4.80473,0.70312 -7.24219,0.70312 -4.35941,0 -8.55471,-0.72656 -12.58594,-2.17968 -4.03127,-1.5 -7.59376,-3.72656 -10.6875,-6.67969 -3.04688,-2.95311 -5.50782,-6.65624 -7.38281,-11.10938 -1.82813,-4.49997 -2.74219,-9.74997 -2.74219,-15.75 0,-5.62496 0.84375,-10.71089 2.53125,-15.25781 1.6875,-4.59369 4.03124,-8.50775 7.03125,-11.74219 2.99999,-3.28118 6.56248,-5.78899 10.6875,-7.52343 4.12498,-1.78118 8.64841,-2.67181 13.57032,-2.67188 4.45308,7e-5 8.36714,0.75007 11.74218,2.25 3.37495,1.45319 6.18745,3.49226 8.4375,6.11719 2.24994,2.57819 3.93744,5.69537 5.0625,9.35156 1.12494,3.60943 1.68744,7.54692 1.6875,11.8125 -6e-5,0.51567 -6e-5,1.14848 0,1.89844 -6e-5,0.75004 -0.0469,1.45316 -0.14062,2.10937 l -46.6875,0 c -2e-5,3.65629 0.37498,7.31254 1.125,10.96875 0.79685,3.65628 2.10935,6.93752 3.9375,9.84375 1.8281,2.90627 4.28903,5.27345 7.38281,7.10157 3.09372,1.78126 6.9609,2.67188 11.60156,2.67187 2.06246,10e-6 4.10152,-0.2578 6.11719,-0.77344 2.01558,-0.56249 3.98432,-1.26561 5.90625,-2.10937 1.9687,-0.84374 3.84369,-1.78124 5.625,-2.8125 1.78119,-1.07811 3.49213,-2.15624 5.13281,-3.23438 l 0,8.78907 m -14.41406,-40.07813 c -5e-5,-2.39057 -0.2813,-4.5937 -0.84375,-6.60937 -0.56255,-2.06245 -1.42973,-3.84369 -2.60156,-5.34375 -1.12505,-1.49994 -2.57817,-2.67182 -4.35938,-3.51563 -1.73441,-0.89056 -3.79691,-1.33587 -6.1875,-1.33594 -2.39065,7e-5 -4.61722,0.46882 -6.67968,1.40625 -2.06253,0.89069 -3.89065,2.20319 -5.48438,3.9375 -1.5469,1.73444 -2.81252,3.84381 -3.79687,6.32813 -0.93752,2.43755 -1.50002,5.20317 -1.6875,8.29687 l 31.64062,0 0,-3.16406"
         style="font-size:144px;font-weight:bold;fill:url(#linearGradient3767);stroke:#110b02;-inkscape-font-specification:Abyssinica SIL Bold"
         id="path3782" />
      <path
         d="m 118.9375,450.64062 c -0.18758,0.0938 -1.10165,0.44532 -2.74219,1.05469 -1.6407,0.5625 -3.77351,1.19532 -6.39843,1.89844 -2.62508,0.65625 -5.64851,1.26562 -9.07032,1.82812 -3.375061,0.5625 -6.890682,0.84375 -10.546873,0.84375 -5.390675,0 -10.382858,-0.65625 -14.976562,-1.96875 -4.546911,-1.26562 -8.695345,-3.04687 -12.445313,-5.34375 -3.703149,-2.29686 -6.984396,-5.03905 -9.84375,-8.22656 -2.812515,-3.18748 -5.203138,-6.65623 -7.171875,-10.40625 -1.921884,-3.74997 -3.375008,-7.73434 -4.359375,-11.95312 -0.984381,-4.21871 -1.476568,-8.53121 -1.476562,-12.9375 -6e-6,-7.45307 1.218743,-14.27338 3.65625,-20.46094 2.437488,-6.18742 5.85936,-11.48429 10.265625,-15.89063 4.406226,-4.45303 9.703096,-7.89834 15.890625,-10.33593 6.187458,-2.48428 13.054639,-3.72647 20.601562,-3.72657 2.343692,10e-5 4.59369,0.14073 6.75,0.42188 2.203061,0.23447 4.429618,0.58604 6.679688,1.05469 2.24993,0.46884 4.61711,1.05478 7.10156,1.75781 2.4843,0.70322 5.17961,1.50009 8.08594,2.39062 l 0,22.57032 -8.64844,0 -2.10937,-13.07813 c -0.0938,-0.65616 -0.42195,-1.31241 -0.98438,-1.96875 -0.56257,-0.65616 -1.05476,-1.10147 -1.47656,-1.33594 -0.56257,-0.23428 -1.31257,-0.56241 -2.25,-0.98437 -0.89069,-0.42179 -1.96882,-0.82022 -3.23437,-1.19531 -1.265695,-0.42179 -2.671943,-0.77335 -4.218755,-1.05469 -1.546935,-0.32803 -3.210996,-0.4921 -4.992188,-0.49219 -4.921926,9e-5 -9.492234,0.91415 -13.710937,2.74219 -4.218789,1.82821 -7.875035,4.52352 -10.96875,8.08594 -3.093779,3.56257 -5.531277,7.99226 -7.3125,13.28906 -1.734398,5.25006 -2.601585,11.32037 -2.601563,18.21094 -2.2e-5,6.70316 0.82029,12.70316 2.460938,18 1.687474,5.2969 4.101534,9.79689 7.242187,13.5 3.140591,3.70314 6.960899,6.53907 11.460938,8.50781 4.499952,1.92188 9.609322,2.88282 15.328125,2.88281 1.68744,10e-6 3.210876,-0.11718 4.570312,-0.35156 1.406186,-0.23437 2.624933,-0.49218 3.656253,-0.77344 1.03118,-0.32812 1.82805,-0.60937 2.39062,-0.84375 0.56243,-0.28124 0.89056,-0.4453 0.98438,-0.49219 0.74993,-0.28124 1.3593,-0.67967 1.82812,-1.19531 0.46868,-0.51561 0.77337,-1.07811 0.91407,-1.6875 l 3.30468,-15.67969 8.36719,0 0,21.9375 0,1.40625"
         style="font-size:144px;font-weight:bold;fill:url(#linearGradient3769);stroke:#110b02;-inkscape-font-specification:Abyssinica SIL Bold"
         id="path3784" />
      <path
         d="m 197.96875,419.35156 c -7e-5,5.10941 -0.82039,9.89065 -2.46094,14.34375 -1.59382,4.40627 -3.89069,8.25001 -6.89062,11.53125 -2.95319,3.23438 -6.56256,5.78907 -10.82813,7.66406 -4.2188,1.875 -8.95317,2.8125 -14.20312,2.8125 -5.25004,0 -9.98441,-0.91406 -14.20313,-2.74218 -4.21877,-1.875 -7.8047,-4.42968 -10.75781,-7.66407 -2.95314,-3.23436 -5.22657,-7.05467 -6.82031,-11.46093 -1.54688,-4.4531 -2.32032,-9.28122 -2.32032,-14.48438 0,-5.10933 0.79687,-9.89058 2.39063,-14.34375 1.59374,-4.45307 3.89061,-8.32025 6.89062,-11.60156 2.99999,-3.32806 6.60936,-5.92962 10.82813,-7.80469 4.2656,-1.87493 9.07028,-2.81243 14.41406,-2.8125 5.34371,7e-5 10.12495,0.96101 14.34375,2.88281 4.21869,1.92195 7.78119,4.54694 10.6875,7.875 2.90619,3.28131 5.10931,7.1485 6.60938,11.60157 1.5468,4.40629 2.32024,9.14066 2.32031,14.20312 m -14.97656,-0.14062 c -6e-5,-3.93746 -0.3985,-7.7109 -1.19532,-11.32032 -0.75005,-3.60932 -1.92193,-6.79682 -3.51562,-9.5625 -1.5938,-2.76556 -3.58599,-4.96868 -5.97656,-6.60937 -2.39067,-1.64056 -5.20317,-2.46087 -8.4375,-2.46094 -3.32816,7e-5 -6.21097,0.82038 -8.64844,2.46094 -2.43753,1.64069 -4.45315,3.84381 -6.04688,6.60937 -1.54689,2.76568 -2.69533,5.95318 -3.44531,9.5625 -0.75002,3.60942 -1.12502,7.38286 -1.125,11.32032 -2e-5,3.89065 0.37498,7.64065 1.125,11.25 0.79686,3.60939 1.99217,6.79689 3.58594,9.5625 1.59372,2.76563 3.58591,4.99219 5.97656,6.67968 2.39059,1.64064 5.20309,2.46095 8.4375,2.46094 3.28121,10e-6 6.14058,-0.8203 8.57813,-2.46094 2.43745,-1.64061 4.42963,-3.84373 5.97656,-6.60937 1.59369,-2.76561 2.76557,-5.95311 3.51562,-9.5625 0.79682,-3.60935 1.19526,-7.38278 1.19532,-11.32031"
         style="font-size:144px;font-weight:bold;fill:url(#linearGradient3769);stroke:#110b02;-inkscape-font-specification:Abyssinica SIL Bold"
         id="path3786" />
      <path
         d="m 249.71875,453.94531 0,-5.625 6.04687,-0.42187 c 0.8437,-0.0937 1.54683,-0.42187 2.10938,-0.98438 0.60932,-0.56249 0.91401,-1.28905 0.91406,-2.17969 l 0,-37.47656 c -5e-5,-4.54682 -1.05474,-7.99213 -3.16406,-10.33594 -2.10943,-2.39056 -5.67192,-3.58587 -10.6875,-3.58593 -2.76566,6e-5 -5.48441,0.3985 -8.15625,1.19531 -2.67191,0.75006 -5.22659,1.73443 -7.66406,2.95312 l 0,47.25 c -3e-5,0.89064 0.28122,1.6172 0.84375,2.17969 0.56247,0.56251 1.28903,0.89063 2.17968,0.98438 l 6.04688,0.42187 0,5.625 -32.55469,0 0,-5.625 7.03125,-0.42187 c 0.89062,-0.0937 1.61718,-0.42187 2.17969,-0.98438 0.56249,-0.56249 0.84374,-1.28905 0.84375,-2.17969 l 0,-49.99218 -10.05469,0 0,-4.71094 17.57813,-5.48438 5.90625,0 0,7.17188 c 2.01559,-1.12494 4.05465,-2.2265 6.11718,-3.30469 2.10935,-1.07806 4.19528,-2.03899 6.25782,-2.88281 2.06246,-0.84368 4.05464,-1.49993 5.97656,-1.96875 1.92183,-0.51555 3.72651,-0.77337 5.41406,-0.77344 6.2812,7e-5 11.06244,1.94538 14.34375,5.83594 3.28118,3.89069 4.92181,9.35162 4.92188,16.38281 l 0,39.72656 c -7e-5,0.89064 0.28118,1.6172 0.84375,2.17969 0.6093,0.56251 1.33586,0.89063 2.17968,0.98438 l 6.32813,0.42187 0,5.625 -31.78125,0"
         style="font-size:144px;font-weight:bold;fill:url(#linearGradient3769);stroke:#110b02;-inkscape-font-specification:Abyssinica SIL Bold"
         id="path3788" />
      <path
         d="m 332.26562,450.92187 c -1.78129,0.89063 -3.7266,1.68751 -5.83593,2.39063 -1.78129,0.60938 -3.84379,1.14844 -6.1875,1.61719 -2.34379,0.51562 -4.80472,0.77343 -7.38282,0.77343 -5.43752,0 -9.37501,-1.26562 -11.8125,-3.79687 -2.43751,-2.53125 -3.65626,-6.65624 -3.65625,-12.375 l 0,-47.8125 -9.21093,0 0,-4.71094 9.84375,-4.64062 6.46875,-15.25782 6.32812,0 0,17.4375 20.32031,0 0,7.17188 -20.32031,0 0,40.21875 c -2e-5,2.85939 0.23435,5.29689 0.70313,7.3125 0.51559,1.96876 1.24216,3.58595 2.17968,4.85156 0.98435,1.21876 2.17966,2.10939 3.58594,2.67188 1.45309,0.5625 3.14059,0.84375 5.0625,0.84375 1.40621,0 2.69527,-0.11718 3.86719,-0.35157 1.21871,-0.23436 2.27339,-0.51561 3.16406,-0.84375 1.03121,-0.37499 1.99214,-0.79686 2.88281,-1.26562 l 0,5.76562"
         style="font-size:144px;font-weight:bold;fill:url(#linearGradient3769);stroke:#110b02;-inkscape-font-specification:Abyssinica SIL Bold"
         id="path3790" />
      <path
         d="m 383.10156,453.94531 -1.89844,-8.50781 c -2.53129,1.92188 -5.13285,3.63282 -7.80468,5.13281 -1.17192,0.65626 -2.4141,1.28907 -3.72657,1.89844 -1.31253,0.60938 -2.6719,1.14844 -4.07812,1.61719 -1.35941,0.51562 -2.76565,0.91406 -4.21875,1.19531 -1.40628,0.28125 -2.81253,0.42187 -4.21875,0.42187 -2.62502,0 -5.08596,-0.44531 -7.38281,-1.33593 -2.25002,-0.89063 -4.21876,-2.17969 -5.90625,-3.86719 -1.68751,-1.68749 -3.02345,-3.72656 -4.00782,-6.11719 -0.9375,-2.39061 -1.40625,-5.10936 -1.40625,-8.15625 0,-1.78123 0.16406,-3.46873 0.49219,-5.0625 0.375,-1.59372 1.10156,-3.1406 2.17969,-4.64062 1.07812,-1.49997 2.57811,-2.92966 4.5,-4.28907 1.96874,-1.40621 4.52342,-2.78902 7.66406,-4.14843 3.18748,-1.35934 7.05466,-2.69528 11.60156,-4.00782 4.59372,-1.35933 10.03121,-2.7187 16.3125,-4.07812 l 0,-6.1875 c -4e-5,-4.82807 -1.07817,-8.39057 -3.23437,-10.6875 -2.15629,-2.34369 -5.55473,-3.51556 -10.19531,-3.51563 -2.53128,7e-5 -4.68753,0.23444 -6.46875,0.70313 -1.78128,0.46881 -3.02346,0.84381 -3.72657,1.125 l 0,12.51562 -10.47656,0 c -0.65626,5e-5 -1.31251,-0.0468 -1.96875,-0.14062 -0.60938,-0.0937 -1.17188,-0.2812 -1.6875,-0.5625 -0.51563,-0.32807 -0.93751,-0.74995 -1.26562,-1.26563 -0.28126,-0.56244 -0.42189,-1.289 -0.42188,-2.17968 -1e-5,-2.95307 0.89062,-5.48432 2.67188,-7.59375 1.78123,-2.15619 4.10154,-3.93744 6.96093,-5.34375 2.85936,-1.40618 6.07029,-2.43743 9.63282,-3.09375 3.56247,-0.65618 7.12496,-0.98431 10.6875,-0.98438 4.45308,7e-5 8.13276,0.53914 11.03906,1.61719 2.95307,1.07819 5.27338,2.57819 6.96094,4.5 1.73431,1.92194 2.95306,4.19537 3.65625,6.82031 0.70306,2.62506 1.05462,5.50787 1.05468,8.64844 l 0,40.35937 c -6e-5,0.89064 0.28119,1.6172 0.84375,2.17969 0.60932,0.56251 1.33588,0.89063 2.17969,0.98438 l 6.96094,0.42187 0,5.625 -21.30469,0 m -1.89844,-38.46094 c -6.46879,1.64067 -11.60159,3.25785 -15.39843,4.85157 -3.79691,1.59378 -6.67972,3.21097 -8.64844,4.85156 -1.9219,1.59378 -3.16408,3.2344 -3.72656,4.92187 -0.51565,1.64065 -0.77346,3.35159 -0.77344,5.13282 -2e-5,1.50001 0.23436,2.97658 0.70312,4.42968 0.51561,1.40627 1.21873,2.67189 2.10938,3.79688 0.93748,1.12501 2.06248,2.03907 3.375,2.74219 1.35935,0.65625 2.90622,0.98438 4.64062,0.98437 1.92185,10e-6 3.91403,-0.35155 5.97657,-1.05469 2.10933,-0.70311 4.03121,-1.47655 5.76562,-2.32031 2.01558,-0.98436 4.00777,-2.1328 5.97656,-3.44531 l 0,-24.89063"
         style="font-size:144px;font-weight:bold;fill:url(#linearGradient3769);stroke:#110b02;-inkscape-font-specification:Abyssinica SIL Bold"
         id="path3792" />
      <path
         d="m 468.88281,448.60156 c -1.64068,0.84376 -3.37506,1.71094 -5.20312,2.60156 -1.78131,0.84376 -3.70318,1.59376 -5.76563,2.25 -2.01567,0.65625 -4.14848,1.19532 -6.39844,1.61719 -2.20316,0.42188 -4.52347,0.63281 -6.96093,0.63281 -5.06254,0 -9.63284,-0.89062 -13.71094,-2.67187 -4.03127,-1.82812 -7.47658,-4.33593 -10.33594,-7.52344 -2.85938,-3.23436 -5.06251,-7.05467 -6.60937,-11.46094 -1.54688,-4.40622 -2.32032,-9.18747 -2.32032,-14.34375 0,-6.04683 0.9375,-11.36714 2.8125,-15.96093 1.875,-4.5937 4.40624,-8.43744 7.59375,-11.53125 3.18749,-3.14056 6.86717,-5.48431 11.03907,-7.03125 4.21872,-1.59368 8.62496,-2.39056 13.21875,-2.39063 3.14058,7e-5 6.07026,0.3282 8.78906,0.98438 2.76557,0.60944 5.13276,1.5235 7.10156,2.74218 2.01557,1.21882 3.58588,2.71882 4.71094,4.5 1.17181,1.78132 1.75775,3.84381 1.75781,6.1875 -6e-5,1.40631 -0.25787,2.6485 -0.77344,3.72657 -0.46881,1.0313 -1.10162,1.92192 -1.89843,2.67187 -0.79694,0.70318 -1.711,1.24224 -2.74219,1.61719 -0.98443,0.32817 -2.01568,0.49224 -3.09375,0.49219 -1.5938,5e-5 -2.97661,-0.25777 -4.14844,-0.77344 -1.17192,-0.56245 -2.20317,-1.12495 -3.09375,-1.6875 l 0,-12.51563 c -0.98442,-0.56243 -2.01567,-1.00774 -3.09375,-1.33593 -1.03129,-0.37494 -2.01566,-0.56244 -2.95312,-0.5625 -3.18754,6e-5 -6.07035,0.72662 -8.64844,2.17968 -2.53128,1.45319 -4.68753,3.46881 -6.46875,6.04688 -1.7344,2.57818 -3.07033,5.64849 -4.00781,9.21094 -0.93752,3.51567 -1.40627,7.35941 -1.40625,11.53125 -2e-5,3.9844 0.49216,7.7344 1.47656,11.25 1.03123,3.51564 2.53123,6.58595 4.5,9.21093 2.0156,2.57814 4.49997,4.6172 7.45312,6.11719 2.99997,1.50001 6.46872,2.25001 10.40625,2.25 3.37496,10e-6 6.56245,-0.51561 9.5625,-1.54687 3.04682,-1.07812 6.11713,-2.64843 9.21094,-4.71094 l 0,6.11719 0,2.10937"
         style="font-size:144px;font-weight:bold;fill:url(#linearGradient3769);stroke:#110b02;-inkscape-font-specification:Abyssinica SIL Bold"
         id="path3794" />
      <path
         d="m 521.54687,450.92187 c -1.78129,0.89063 -3.7266,1.68751 -5.83593,2.39063 -1.78129,0.60938 -3.84379,1.14844 -6.1875,1.61719 -2.34379,0.51562 -4.80472,0.77343 -7.38282,0.77343 -5.43752,0 -9.37501,-1.26562 -11.8125,-3.79687 -2.43751,-2.53125 -3.65626,-6.65624 -3.65625,-12.375 l 0,-47.8125 -9.21093,0 0,-4.71094 9.84375,-4.64062 6.46875,-15.25782 6.32812,0 0,17.4375 20.32031,0 0,7.17188 -20.32031,0 0,40.21875 c -2e-5,2.85939 0.23435,5.29689 0.70313,7.3125 0.51559,1.96876 1.24216,3.58595 2.17968,4.85156 0.98435,1.21876 2.17966,2.10939 3.58594,2.67188 1.45309,0.5625 3.14059,0.84375 5.0625,0.84375 1.40621,0 2.69527,-0.11718 3.86719,-0.35157 1.21871,-0.23436 2.27339,-0.51561 3.16406,-0.84375 1.03121,-0.37499 1.99214,-0.79686 2.88281,-1.26562 l 0,5.76562"
         style="font-size:144px;font-weight:bold;fill:url(#linearGradient3769);stroke:#110b02;-inkscape-font-specification:Abyssinica SIL Bold"
         id="path3796" />
    </g>
  </g>
</svg>
