<?xml version="1.0" encoding="UTF-8" standalone="no"?>
<!-- Created with Inkscape (http://www.inkscape.org/) -->

<svg
   xmlns:dc="http://purl.org/dc/elements/1.1/"
   xmlns:cc="http://creativecommons.org/ns#"
   xmlns:rdf="http://www.w3.org/1999/02/22-rdf-syntax-ns#"
   xmlns:svg="http://www.w3.org/2000/svg"
   xmlns="http://www.w3.org/2000/svg"
   xmlns:xlink="http://www.w3.org/1999/xlink"
   xmlns:sodipodi="http://sodipodi.sourceforge.net/DTD/sodipodi-0.dtd"
   xmlns:inkscape="http://www.inkscape.org/namespaces/inkscape"
   width="695.4115"
   height="696.7168"
   id="svg3074"
   version="1.1"
   inkscape:version="0.48.4 r9939"
   sodipodi:docname="daily_task_list.svg">
  <defs
     id="defs3076">
    <linearGradient
       id="linearGradient3792">
      <stop
         style="stop-color:#000080;stop-opacity:1;"
         offset="0"
         id="stop3794" />
      <stop
         style="stop-color:#146bd5;stop-opacity:1;"
         offset="1"
         id="stop3796" />
    </linearGradient>
    <linearGradient
       inkscape:collect="always"
       xlink:href="#linearGradient3792"
       id="linearGradient3798"
       x1="555.28802"
       y1="580.88812"
       x2="687.87695"
       y2="580.88812"
       gradientUnits="userSpaceOnUse" />
    <linearGradient
       inkscape:collect="always"
       xlink:href="#linearGradient3792"
       id="linearGradient3800"
       x1="385.55432"
       y1="555.9281"
       x2="536.60175"
       y2="555.9281"
       gradientUnits="userSpaceOnUse" />
    <linearGradient
       inkscape:collect="always"
       xlink:href="#linearGradient3792"
       id="linearGradient3808"
       x1="555.28802"
       y1="580.88812"
       x2="687.87695"
       y2="580.88812"
       gradientUnits="userSpaceOnUse" />
    <linearGradient
       inkscape:collect="always"
       xlink:href="#linearGradient3792"
       id="linearGradient3810"
       x1="385.55432"
       y1="555.9281"
       x2="536.60175"
       y2="555.9281"
       gradientUnits="userSpaceOnUse" />
  </defs>
  <sodipodi:namedview
     id="base"
     pagecolor="#ffffff"
     bordercolor="#666666"
     borderopacity="1.0"
     inkscape:pageopacity="0.0"
     inkscape:pageshadow="2"
     inkscape:zoom="0.59105127"
     inkscape:cx="338.86359"
     inkscape:cy="184.7973"
     inkscape:document-units="px"
     inkscape:current-layer="layer1"
     showgrid="false"
     inkscape:window-width="1440"
     inkscape:window-height="824"
     inkscape:window-x="0"
     inkscape:window-y="24"
     inkscape:window-maximized="1"
     fit-margin-top="145"
     fit-margin-left="5"
     fit-margin-right="5"
     fit-margin-bottom="145" />
  <metadata
     id="metadata3079">
    <rdf:RDF>
      <cc:Work
         rdf:about="">
        <dc:format>image/svg+xml</dc:format>
        <dc:type
           rdf:resource="http://purl.org/dc/dcmitype/StillImage" />
        <dc:title />
      </cc:Work>
    </rdf:RDF>
  </metadata>
  <g
     inkscape:label="Layer 1"
     inkscape:groupmode="layer"
     id="layer1"
     transform="translate(-16.591827,-108.43948)">
    <g
       transform="matrix(3.7940093,0,0,5.2109652,-102.78054,-105.62859)"
       style="font-size:40px;font-style:normal;font-variant:normal;font-weight:bold;font-stretch:normal;text-align:start;line-height:125%;letter-spacing:0px;word-spacing:0px;writing-mode:lr-tb;text-anchor:start;fill:#110b02;fill-opacity:1;stroke:#110b02;stroke-width:0.44980234;stroke-miterlimit:4;stroke-opacity:1;font-family:Nimbus Roman No9 L;-inkscape-font-specification:Nimbus Roman No9 L Bold"
       id="flowRoot2995">
      <path
         d="m 51.4325,88.329696 -0.96,0 c -1.159999,2.879998 -1.640004,3.12 -5.72,3.12 l -6.04,0 6.48,-6.16 c 3.159997,-2.999997 4.56,-5.680003 4.56,-8.72 0,-4.279995 -3.080004,-7.32 -7.4,-7.32 -1.999998,0 -3.920001,0.800002 -5.32,2.24 -1.559998,1.559999 -2.360001,2.920003 -3.48,5.92 l 1.12,0 c 1.239999,-2.479997 2.720002,-3.6 4.88,-3.6 1.759998,0 3.080001,0.760002 3.96,2.2 0.48,0.84 0.8,1.960001 0.8,2.88 0,1.759999 -0.760001,3.960002 -2.04,5.92 -2.039998,3.119997 -3.440006,4.800007 -9.28,11.04 l 0,0.92 16.64,0 1.8,-8.44"
         style="fill:#110b02;stroke:#110b02;font-family:Nimbus Roman No9 L;-inkscape-font-specification:Nimbus Roman No9 L Bold"
         id="path3768"
         inkscape:connector-curvature="0" />
      <path
         d="m 71.3925,69.729696 -16.64,0 -1.76,8.88 1,0 c 0.759999,-2.559997 1.720002,-3.4 3.92,-3.4 l 8.28,0 -8,21.56 3.8,0 9.4,-27.04"
         style="fill:#110b02;stroke:#110b02;font-family:Nimbus Roman No9 L;-inkscape-font-specification:Nimbus Roman No9 L Bold"
         id="path3770"
         inkscape:connector-curvature="0" />
      <path
         d="m 84.3925,69.129696 -3.6,0 -9.44,28.4 3.6,0 9.44,-28.4"
         style="fill:#110b02;stroke:#110b02;font-family:Nimbus Roman No9 L;-inkscape-font-specification:Nimbus Roman No9 L Bold"
         id="path3772"
         inkscape:connector-curvature="0" />
      <path
         d="m 93.40625,69.249696 c -2.599997,0 -5.240002,1.760003 -6.88,4.64 -1.279999,2.199998 -2.16,5.960004 -2.16,9.28 0,8.239992 3.760005,14.12 9.08,14.12 5.159995,0 9,-5.960008 9,-14 0,-7.999992 -3.880005,-14.04 -9.04,-14.04 m 2.72,18.64 c 0,2.359998 -0.32,5.480001 -0.68,6.56 -0.44,1.159999 -1.080001,1.72 -2,1.72 -1.999998,0 -2.76,-2.360006 -2.76,-8.28 l 0,-9.16 c 0,-6.039994 0.760002,-8.36 2.68,-8.36 1.959998,0 2.76,2.480006 2.76,8.36 l 0,9.16"
         style="fill:#110b02;stroke:#110b02;font-family:Nimbus Roman No9 L;-inkscape-font-specification:Nimbus Roman No9 L Bold"
         id="path3774"
         inkscape:connector-curvature="0" />
      <path
         d="m 104.64625,97.289696 c 5.59999,-0.799999 8.32,-1.800002 11.44,-4.16 4.08,-3.079997 6.24,-7.360005 6.24,-12.44 0,-6.919993 -3.68001,-11.44 -9.28,-11.44 -4.99999,0 -8.6,3.960006 -8.6,9.44 0,4.719996 2.92,7.92 7.28,7.92 1.52,0 2.56,-0.2 3.64,-0.76 -1.72,6.079994 -4.96001,9.240002 -10.72,10.4 l 0,1.04 m 11.12,-13.64 c -0.04,0.52 -0.08,0.72 -0.2,0.8 -0.28,0.2 -1.04,0.36 -1.64,0.36 -2.48,0 -3.4,-2.360006 -3.4,-8.64 0,-4.639995 0.48,-5.84 2.44,-5.84 1,0 1.68,0.440001 2.12,1.36 0.6,1.119999 1,3.920003 1,6.76 0,1.079999 -0.08,2.360002 -0.2,4.16 l -0.12,1.04"
         style="fill:#110b02;stroke:#110b02;font-family:Nimbus Roman No9 L;-inkscape-font-specification:Nimbus Roman No9 L Bold"
         id="path3776"
         inkscape:connector-curvature="0" />
      <path
         d="m 135.48625,69.129696 -3.6,0 -9.44,28.4 3.6,0 9.44,-28.4"
         style="fill:#110b02;stroke:#110b02;font-family:Nimbus Roman No9 L;-inkscape-font-specification:Nimbus Roman No9 L Bold"
         id="path3778"
         inkscape:connector-curvature="0" />
      <path
         d="m 153.62,88.329696 -0.96,0 c -1.16,2.879998 -1.64,3.12 -5.72,3.12 l -6.04,0 6.48,-6.16 c 3.16,-2.999997 4.56,-5.680003 4.56,-8.72 0,-4.279995 -3.08,-7.32 -7.4,-7.32 -2,0 -3.92,0.800002 -5.32,2.24 -1.56,1.559999 -2.36,2.920003 -3.48,5.92 l 1.12,0 c 1.24,-2.479997 2.72,-3.6 4.88,-3.6 1.76,0 3.08,0.760002 3.96,2.2 0.48,0.84 0.8,1.960001 0.8,2.88 0,1.759999 -0.76,3.960002 -2.04,5.92 -2.04,3.119997 -3.44001,4.800007 -9.28,11.04 l 0,0.92 16.64,0 1.8,-8.44"
         style="fill:#110b02;stroke:#110b02;font-family:Nimbus Roman No9 L;-inkscape-font-specification:Nimbus Roman No9 L Bold"
         id="path3780"
         inkscape:connector-curvature="0" />
      <path
         d="m 164.5,69.249696 c -2.6,0 -5.24,1.760003 -6.88,4.64 -1.28,2.199998 -2.16,5.960004 -2.16,9.28 0,8.239992 3.76001,14.12 9.08,14.12 5.15999,0 9,-5.960008 9,-14 0,-7.999992 -3.88001,-14.04 -9.04,-14.04 m 2.72,18.64 c 0,2.359998 -0.32,5.480001 -0.68,6.56 -0.44,1.159999 -1.08,1.72 -2,1.72 -2,0 -2.76,-2.360006 -2.76,-8.28 l 0,-9.16 c 0,-6.039994 0.76,-8.36 2.68,-8.36 1.96,0 2.76,2.480006 2.76,8.36 l 0,9.16"
         style="fill:#110b02;stroke:#110b02;font-family:Nimbus Roman No9 L;-inkscape-font-specification:Nimbus Roman No9 L Bold"
         id="path3782"
         inkscape:connector-curvature="0" />
      <path
         d="m 187.18,69.249696 -10.08,4.36 0,1.04 c 0.36,-0.119999 0.68,-0.24 0.8,-0.32 1.08,-0.399999 2.08,-0.68 2.6,-0.68 1,0 1.44,0.880002 1.44,2.76 l 0,15.4 c 0,3.279997 -0.8,3.96 -4.76,4 l 0,0.96 15,0 0,-0.96 c -3.64,-0.08 -4.32,-0.680003 -4.32,-3.76 l 0,-22.8 -0.68,0"
         style="fill:#110b02;stroke:#110b02;font-family:Nimbus Roman No9 L;-inkscape-font-specification:Nimbus Roman No9 L Bold"
         id="path3784"
         inkscape:connector-curvature="0" />
      <path
         d="m 196.82,75.849696 c 1.52,-2.439997 2.84,-3.36 4.92,-3.36 2.52,0 4.08,1.600003 4.08,4.12 0,2.639998 -1.4,4.040002 -5.2,5.24 l 0,0.68 c 3.32,1.159999 4.64,1.840002 6.08,3.2 1.24,1.159999 1.96,2.960002 1.96,4.88 0,2.879998 -1.52,4.72 -3.92,4.72 -0.96,0 -1.72,-0.440001 -3.04,-1.72 -1.56,-1.559998 -2.76,-2.2 -3.96,-2.2 -1.52,0 -2.6,0.960002 -2.6,2.32 0,2.159998 2.44,3.6 6.12,3.6 6.67999,0 11.96,-4.560005 11.96,-10.4 0,-1.839998 -0.6,-3.560001 -1.76,-4.96 -0.84,-0.959999 -1.52,-1.44 -3.12,-2.16 2.56,-1.559998 3.32,-2.720002 3.32,-5.08 0,-3.439996 -2.44,-5.48 -6.52,-5.48 -3.96,0 -6.96,2.000005 -9.16,6.12 l 0.84,0.48"
         style="fill:#110b02;stroke:#110b02;font-family:Nimbus Roman No9 L;-inkscape-font-specification:Nimbus Roman No9 L Bold"
         id="path3786"
         inkscape:connector-curvature="0" />
    </g>
    <path
       inkscape:connector-curvature="0"
       id="path3759"
       style="font-size:48px;font-style:normal;font-variant:normal;font-weight:bold;font-stretch:normal;text-align:center;line-height:125%;letter-spacing:0px;word-spacing:0px;writing-mode:lr-tb;text-anchor:middle;fill:#146bd5;fill-opacity:1;stroke:#146bd5;stroke-width:2;stroke-miterlimit:4;stroke-opacity:1;font-family:Sans;-inkscape-font-specification:Sans Bold"
       d="m 23.536264,456.55387 145.971016,0 0,38.73795 -52.51137,0 0,160.01046 -40.842188,0 0,-160.01046 -52.617458,0 0,-38.73795" />
    <path
       inkscape:connector-curvature="0"
       id="path3761"
       style="font-size:48px;font-style:normal;font-variant:normal;font-weight:bold;font-stretch:normal;text-align:center;line-height:125%;letter-spacing:0px;word-spacing:0px;writing-mode:lr-tb;text-anchor:middle;fill:#146bd5;fill-opacity:1;stroke:#146bd5;stroke-width:2;stroke-miterlimit:4;stroke-opacity:1;font-family:Sans;-inkscape-font-specification:Sans Bold"
       d="m 216.50234,536.69223 c -8.41603,1.2e-4 -14.85179,3.8162 -19.30723,11.44831 -4.38484,7.54356 -6.57721,18.45944 -6.57716,32.74759 -5e-5,14.28826 2.19232,25.2485 6.57716,32.88066 4.45544,7.54351 10.8912,11.31523 19.30723,11.31523 8.27441,0 14.60407,-3.77172 18.98895,-11.31523 4.3847,-7.63216 6.57707,-18.5924 6.57716,-32.88066 -9e-5,-14.28815 -2.19246,-25.20403 -6.57716,-32.74759 -4.38488,-7.63211 -10.71454,-11.44819 -18.98895,-11.44831 m 0,-34.07876 c 20.43866,1.2e-4 36.38657,6.92237 47.84369,20.76675 11.52763,13.84461 17.29147,33.01385 17.29161,57.50791 -1.4e-4,24.49416 -5.76398,43.66341 -17.29161,57.50791 -11.45712,13.84449 -27.40503,20.76674 -47.84369,20.76674 -20.50954,0 -36.56354,-6.92225 -48.16197,-20.76674 -11.52777,-13.8445 -17.29161,-33.01375 -17.29161,-57.50791 0,-24.49406 5.76384,-43.6633 17.29161,-57.50791 11.59843,-13.84438 27.65243,-20.76663 48.16197,-20.76675" />
    <path
       inkscape:connector-curvature="0"
       id="path3763"
       style="font-size:48px;font-style:normal;font-variant:normal;font-weight:bold;font-stretch:normal;text-align:center;line-height:125%;letter-spacing:0px;word-spacing:0px;writing-mode:lr-tb;text-anchor:middle;fill:url(#linearGradient3800);fill-opacity:1;stroke:url(#linearGradient3810);stroke-width:2;stroke-miterlimit:4;stroke-opacity:1;font-family:Sans;-inkscape-font-specification:Sans Bold"
       d="m 427.39651,495.29182 0,121.27251 14.63951,0 c 16.6904,0 29.42043,-5.19167 38.19009,-15.57507 8.84019,-10.38329 13.26033,-25.47024 13.26046,-45.26086 -1.3e-4,-19.70167 -4.38492,-34.69984 -13.15436,-44.99464 -8.76967,-10.29445 -21.53505,-15.44177 -38.29619,-15.44194 l -14.63951,0 m -40.84219,-38.73795 43.06991,0 c 24.04557,2.3e-4 41.93831,2.17451 53.67832,6.5229 11.81052,4.26002 21.9238,11.53725 30.33988,21.83171 7.42574,8.96356 12.94204,19.30255 16.54904,31.01701 3.60668,11.71469 5.41012,24.98229 5.4103,39.80291 -1.8e-4,14.99829 -1.80362,28.39903 -5.4103,40.20226 -3.607,11.71463 -9.1233,22.05362 -16.54904,31.01701 -8.48682,10.29469 -18.6708,17.61628 -30.55207,21.96485 -11.88145,4.25984 -29.70345,6.38976 -53.46613,6.38976 l -43.06991,0 0,-198.74841" />
    <path
       inkscape:connector-curvature="0"
       id="path3765"
       style="font-size:48px;font-style:normal;font-variant:normal;font-weight:bold;font-stretch:normal;text-align:center;line-height:125%;letter-spacing:0px;word-spacing:0px;writing-mode:lr-tb;text-anchor:middle;fill:url(#linearGradient3798);fill-opacity:1;stroke:url(#linearGradient3808);stroke-width:2;stroke-miterlimit:4;stroke-opacity:1;font-family:Sans;-inkscape-font-specification:Sans Bold"
       d="m 621.74164,536.69223 c -8.41603,1.2e-4 -14.85179,3.8162 -19.30724,11.44831 -4.38483,7.54356 -6.5772,18.45944 -6.57716,32.74759 -4e-5,14.28826 2.19233,25.2485 6.57716,32.88066 4.45545,7.54351 10.89121,11.31523 19.30724,11.31523 8.27441,0 14.60407,-3.77172 18.98895,-11.31523 4.3847,-7.63216 6.57707,-18.5924 6.57716,-32.88066 -9e-5,-14.28815 -2.19246,-25.20403 -6.57716,-32.74759 -4.38488,-7.63211 -10.71454,-11.44819 -18.98895,-11.44831 m 0,-34.07876 c 20.43866,1.2e-4 36.38657,6.92237 47.84368,20.76675 11.52764,13.84461 17.29148,33.01385 17.29162,57.50791 -1.4e-4,24.49416 -5.76398,43.66341 -17.29162,57.50791 -11.45711,13.84449 -27.40502,20.76674 -47.84368,20.76674 -20.50954,0 -36.56355,-6.92225 -48.16197,-20.76674 -11.52777,-13.8445 -17.29162,-33.01375 -17.29162,-57.50791 0,-24.49406 5.76385,-43.6633 17.29162,-57.50791 11.59842,-13.84438 27.65243,-20.76663 48.16197,-20.76675" />
  </g>
</svg>
