<?xml version="1.0" encoding="UTF-8" standalone="no"?>
<!-- Created with Inkscape (http://www.inkscape.org/) -->

<svg
   xmlns:dc="http://purl.org/dc/elements/1.1/"
   xmlns:cc="http://creativecommons.org/ns#"
   xmlns:rdf="http://www.w3.org/1999/02/22-rdf-syntax-ns#"
   xmlns:svg="http://www.w3.org/2000/svg"
   xmlns="http://www.w3.org/2000/svg"
   xmlns:sodipodi="http://sodipodi.sourceforge.net/DTD/sodipodi-0.dtd"
   xmlns:inkscape="http://www.inkscape.org/namespaces/inkscape"
   width="753.37646"
   height="759.99658"
   id="svg3692"
   version="1.1"
   inkscape:version="0.48.4 r9939"
   sodipodi:docname="convert_file.svg">
  <defs
     id="defs3694" />
  <sodipodi:namedview
     id="base"
     pagecolor="#ffffff"
     bordercolor="#666666"
     borderopacity="1.0"
     inkscape:pageopacity="0.0"
     inkscape:pageshadow="2"
     inkscape:zoom="0.5"
     inkscape:cx="290.17356"
     inkscape:cy="342.31639"
     inkscape:document-units="px"
     inkscape:current-layer="layer1"
     showgrid="false"
     inkscape:window-width="1440"
     inkscape:window-height="824"
     inkscape:window-x="0"
     inkscape:window-y="24"
     inkscape:window-maximized="1"
     fit-margin-top="5"
     fit-margin-left="35"
     fit-margin-right="35"
     fit-margin-bottom="5" />
  <metadata
     id="metadata3697">
    <rdf:RDF>
      <cc:Work
         rdf:about="">
        <dc:format>image/svg+xml</dc:format>
        <dc:type
           rdf:resource="http://purl.org/dc/dcmitype/StillImage" />
        <dc:title />
      </cc:Work>
    </rdf:RDF>
  </metadata>
  <g
     inkscape:label="Layer 1"
     inkscape:groupmode="layer"
     id="layer1"
     transform="translate(11.65625,-113.2534)">
    <rect
       style="fill:#3b3b3b;fill-opacity:1;stroke:none"
       id="rect4173"
       width="543.05914"
       height="662.6004"
       x="163.66107"
       y="118.2534" />
    <rect
       style="fill:#dbe1e4;fill-opacity:1;stroke:#110b02;stroke-width:4;stroke-linecap:round;stroke-linejoin:round;stroke-miterlimit:4;stroke-opacity:1;stroke-dasharray:none"
       id="rect4175"
       width="607.953"
       height="715.54016"
       x="25.334702"
       y="150.70039" />
    <g
       transform="matrix(4.109745,0,0,4.109745,-2165.687,-3240.1099)"
       style="font-size:12px;font-style:normal;font-variant:normal;font-weight:normal;font-stretch:normal;text-align:start;line-height:125%;letter-spacing:0px;word-spacing:0px;writing-mode:lr-tb;text-anchor:start;fill:#110b02;fill-opacity:1;stroke:#110b02;stroke-width:0.7299723;stroke-linejoin:round;stroke-miterlimit:4;stroke-opacity:1;stroke-dasharray:none;font-family:Sans;-inkscape-font-specification:Sans"
       id="flowRoot4179">
      <path
         d="m 569.21875,871.86094 c -10e-6,0.42969 -0.0781,0.83333 -0.23438,1.21093 -0.15625,0.37761 -0.37761,0.70313 -0.66406,0.97657 -0.27344,0.27343 -0.59896,0.49479 -0.97656,0.66406 -0.36459,0.15625 -0.76172,0.23437 -1.19141,0.23437 -0.42969,0 -0.83333,-0.0781 -1.21093,-0.23437 -0.37761,-0.16927 -0.70964,-0.39063 -0.9961,-0.66406 -0.27344,-0.27344 -0.48828,-0.59896 -0.64453,-0.97657 -0.15625,-0.3776 -0.23438,-0.78124 -0.23437,-1.21093 -10e-6,-0.42969 0.0781,-0.82682 0.23437,-1.19141 0.15625,-0.3776 0.37109,-0.70312 0.64453,-0.97656 0.28646,-0.28645 0.61849,-0.50781 0.9961,-0.66406 0.3776,-0.15625 0.78124,-0.23437 1.21093,-0.23438 0.42969,10e-6 0.82682,0.0781 1.19141,0.23438 0.3776,0.15625 0.70312,0.37761 0.97656,0.66406 0.28645,0.27344 0.50781,0.59896 0.66406,0.97656 0.15625,0.36459 0.23437,0.76172 0.23438,1.19141"
         style="font-size:40px;text-align:center;text-anchor:middle;fill:#110b02;fill-opacity:1;stroke:#110b02;stroke-width:0.7299723;stroke-linejoin:round;stroke-miterlimit:4;stroke-dasharray:none;font-family:Abyssinica SIL;-inkscape-font-specification:Abyssinica SIL"
         id="path3759"
         inkscape:connector-curvature="0" />
      <path
         d="m 599.72656,861.47031 c -2e-5,1.15887 -0.1107,2.29819 -0.33203,3.41797 -0.22138,1.1198 -0.56643,2.181 -1.03516,3.18359 -0.46877,1.00261 -1.07424,1.92709 -1.8164,2.77344 -0.72919,0.83334 -1.6081,1.55599 -2.63672,2.16797 -1.02867,0.61198 -2.21356,1.08724 -3.55469,1.42578 -1.34116,0.33854 -2.84506,0.50781 -4.51172,0.50781 l -11.11328,0 0,-1.71875 2.10938,-0.15625 c 0.28645,-0.026 0.5013,-0.1302 0.64453,-0.3125 0.15624,-0.18228 0.23437,-0.37109 0.23437,-0.5664 l 0,-21.32813 c 0,-0.19529 -0.0781,-0.38409 -0.23437,-0.5664 -0.14323,-0.18227 -0.35808,-0.28644 -0.64453,-0.3125 l -2.10938,-0.15625 0,-1.71875 10.3125,0 c 2.09634,2e-5 4.04296,0.26695 5.83985,0.80078 1.79685,0.52086 3.34633,1.32815 4.64843,2.42187 1.31508,1.09378 2.34373,2.48049 3.08594,4.16016 0.74216,1.6797 1.11326,3.67189 1.11328,5.97656 m -4.53125,0.0781 c -2e-5,-2.09634 -0.24741,-3.87368 -0.74219,-5.33203 -0.48179,-1.47134 -1.1784,-2.66274 -2.08984,-3.57422 -0.89845,-0.92446 -1.9922,-1.58852 -3.28125,-1.99219 -1.27605,-0.41664 -2.70183,-0.62498 -4.27734,-0.625 l -3.04688,0 0,23.00781 3.24219,-0.0391 c 1.53645,-0.013 2.92967,-0.22786 4.17969,-0.64453 1.263,-0.42969 2.33722,-1.10026 3.22265,-2.01172 0.8854,-0.91145 1.56899,-2.08984 2.05078,-3.53516 0.49478,-1.4453 0.74217,-3.1966 0.74219,-5.2539"
         style="font-size:40px;text-align:center;text-anchor:middle;fill:#110b02;fill-opacity:1;stroke:#110b02;stroke-width:0.7299723;stroke-linejoin:round;stroke-miterlimit:4;stroke-dasharray:none;font-family:Abyssinica SIL;-inkscape-font-specification:Abyssinica SIL"
         id="path3761"
         inkscape:connector-curvature="0" />
      <path
         d="m 628.92578,861.54844 c -3e-5,1.94011 -0.31253,3.76303 -0.9375,5.46875 -0.62502,1.70573 -1.51044,3.19662 -2.65625,4.47265 -1.13283,1.26303 -2.50002,2.26563 -4.10156,3.00782 -1.60158,0.72916 -3.37892,1.09374 -5.33203,1.09375 -1.96616,-10e-6 -3.75652,-0.35157 -5.3711,-1.05469 -1.60157,-0.71615 -2.97526,-1.70573 -4.12109,-2.96875 -1.14584,-1.26302 -2.03125,-2.74739 -2.65625,-4.45313 -0.625,-1.71874 -0.9375,-3.58723 -0.9375,-5.60547 0,-1.95311 0.30599,-3.78253 0.91797,-5.48828 0.61197,-1.70571 1.48437,-3.19008 2.61719,-4.45312 1.1328,-1.27602 2.49999,-2.27862 4.10156,-3.00781 1.61457,-0.72914 3.41795,-1.09373 5.41015,-1.09375 1.97916,2e-5 3.76952,0.37112 5.3711,1.11328 1.61456,0.74221 2.98826,1.75132 4.12109,3.02734 1.14581,1.27606 2.02472,2.76695 2.63672,4.47266 0.62497,1.70574 0.93747,3.52866 0.9375,5.46875 m -4.62891,0.0391 c -2e-5,-1.62759 -0.1758,-3.15754 -0.52734,-4.58984 -0.35158,-1.4453 -0.87893,-2.70181 -1.58203,-3.76954 -0.70315,-1.0807 -1.58205,-1.92706 -2.63672,-2.53906 -1.04168,-0.62497 -2.25913,-0.93747 -3.65234,-0.9375 -1.44533,3e-5 -2.70184,0.31253 -3.76953,0.9375 -1.06772,0.62503 -1.95314,1.47789 -2.65625,2.5586 -0.70314,1.06772 -1.22397,2.31772 -1.5625,3.75 -0.33855,1.41928 -0.50782,2.92319 -0.50782,4.51171 0,1.60158 0.16927,3.12501 0.50782,4.57032 0.35155,1.4323 0.87238,2.68881 1.5625,3.76953 0.70311,1.08073 1.57551,1.94011 2.61718,2.57812 1.05468,0.63803 2.29166,0.95704 3.71094,0.95703 1.4453,10e-6 2.6953,-0.319 3.75,-0.95703 1.06769,-0.63801 1.95311,-1.49088 2.65625,-2.55859 0.7031,-1.08072 1.22394,-2.33072 1.5625,-3.75 0.35154,-1.43228 0.52732,-2.9427 0.52734,-4.53125"
         style="font-size:40px;text-align:center;text-anchor:middle;fill:#110b02;fill-opacity:1;stroke:#110b02;stroke-width:0.7299723;stroke-linejoin:round;stroke-miterlimit:4;stroke-dasharray:none;font-family:Abyssinica SIL;-inkscape-font-specification:Abyssinica SIL"
         id="path3763"
         inkscape:connector-curvature="0" />
      <path
         d="m 653.98437,874.02891 c -0.0521,0.026 -0.30601,0.12369 -0.76171,0.29296 -0.45576,0.15625 -1.0482,0.33204 -1.77735,0.52735 -0.72918,0.18229 -1.56903,0.35156 -2.51953,0.50781 -0.93752,0.15625 -1.91408,0.23437 -2.92969,0.23438 -1.49741,-10e-6 -2.88412,-0.1823 -4.16015,-0.54688 -1.26303,-0.35156 -2.41538,-0.84635 -3.45703,-1.48437 -1.02866,-0.63802 -1.94011,-1.39974 -2.73438,-2.28516 -0.78125,-0.88541 -1.44531,-1.84895 -1.99219,-2.89063 -0.53385,-1.04165 -0.9375,-2.14842 -1.21093,-3.32031 -0.27344,-1.17186 -0.41016,-2.36978 -0.41016,-3.59375 0,-2.0703 0.33854,-3.96482 1.01562,-5.68359 0.67709,-1.71873 1.6276,-3.19008 2.85157,-4.41406 1.22395,-1.23696 2.6953,-2.19399 4.41406,-2.8711 1.71874,-0.69008 3.62629,-1.03513 5.72266,-1.03515 0.65102,2e-5 1.27602,0.0391 1.875,0.11718 0.61196,0.0651 1.23045,0.16279 1.85546,0.29297 0.62499,0.13024 1.28254,0.293 1.97266,0.48828 0.69008,0.19534 1.43878,0.4167 2.24609,0.66407 l 0,6.26953 -2.40234,0 -0.58594,-3.63282 c -0.0261,-0.18226 -0.1172,-0.36456 -0.27343,-0.54687 -0.15627,-0.18227 -0.29299,-0.30597 -0.41016,-0.37109 -0.15627,-0.0651 -0.3646,-0.15623 -0.625,-0.27344 -0.24741,-0.11716 -0.54689,-0.22784 -0.89844,-0.33203 -0.35158,-0.11717 -0.7422,-0.21482 -1.17187,-0.29297 -0.42971,-0.0911 -0.89195,-0.1367 -1.38672,-0.13672 -1.3672,2e-5 -2.63673,0.25393 -3.8086,0.76172 -1.17188,0.50783 -2.1875,1.25653 -3.04687,2.24609 -0.85938,0.98961 -1.53647,2.22007 -2.03125,3.69141 -0.48178,1.45835 -0.72266,3.14454 -0.72266,5.05859 0,1.86199 0.22786,3.52866 0.6836,5 0.46874,1.47136 1.13931,2.72136 2.01172,3.75 0.87238,1.02865 1.93358,1.81641 3.18359,2.36328 1.24999,0.53386 2.66926,0.80079 4.25781,0.80078 0.46874,10e-6 0.89191,-0.0326 1.26953,-0.0977 0.39061,-0.0651 0.72915,-0.13672 1.01563,-0.21485 0.28644,-0.0911 0.50779,-0.16926 0.66406,-0.23437 0.15623,-0.0781 0.24738,-0.1237 0.27344,-0.13672 0.20831,-0.0781 0.37758,-0.1888 0.50781,-0.33203 0.13019,-0.14323 0.21482,-0.29948 0.25391,-0.46875 l 0.91797,-4.35547 2.32421,0 0,6.09375 0,0.39063"
         style="font-size:40px;text-align:center;text-anchor:middle;fill:#110b02;fill-opacity:1;stroke:#110b02;stroke-width:0.7299723;stroke-linejoin:round;stroke-miterlimit:4;stroke-dasharray:none;font-family:Abyssinica SIL;-inkscape-font-specification:Abyssinica SIL"
         id="path3765"
         inkscape:connector-curvature="0" />
      <path
         d="m 555.23437,923.80859 c 0,0.42969 -0.0781,0.83334 -0.23437,1.21094 -0.15626,0.37761 -0.37761,0.70313 -0.66406,0.97656 -0.27345,0.27344 -0.59897,0.4948 -0.97657,0.66407 -0.36458,0.15625 -0.76172,0.23437 -1.1914,0.23437 -0.42969,0 -0.83334,-0.0781 -1.21094,-0.23437 -0.37761,-0.16927 -0.70964,-0.39063 -0.99609,-0.66407 -0.27344,-0.27343 -0.48829,-0.59895 -0.64453,-0.97656 -0.15626,-0.3776 -0.23438,-0.78125 -0.23438,-1.21094 0,-0.42968 0.0781,-0.82682 0.23438,-1.1914 0.15624,-0.3776 0.37109,-0.70312 0.64453,-0.97657 0.28645,-0.28645 0.61848,-0.5078 0.99609,-0.66406 0.3776,-0.15624 0.78125,-0.23437 1.21094,-0.23437 0.42968,0 0.82682,0.0781 1.1914,0.23437 0.3776,0.15626 0.70312,0.37761 0.97657,0.66406 0.28645,0.27345 0.5078,0.59897 0.66406,0.97657 0.15624,0.36458 0.23437,0.76172 0.23437,1.1914"
         style="font-size:40px;text-align:center;text-anchor:middle;fill:#110b02;fill-opacity:1;stroke:#110b02;stroke-width:0.7299723;stroke-linejoin:round;stroke-miterlimit:4;stroke-dasharray:none;font-family:Abyssinica SIL;-inkscape-font-specification:Abyssinica SIL"
         id="path3767"
         inkscape:connector-curvature="0" />
      <path
         d="m 577.77344,926.89453 0,-1.71875 2.28515,-0.15625 c 0.27342,-0.026 0.48175,-0.13021 0.625,-0.3125 0.14321,-0.18229 0.21483,-0.37109 0.21485,-0.56641 l 0,-10.33203 -13.16407,0 0,10.33203 c 0,0.19532 0.0651,0.38412 0.19532,0.56641 0.14322,0.18229 0.35806,0.28646 0.64453,0.3125 l 2.28515,0.15625 0,1.71875 -10.11718,0 0,-1.71875 2.07031,-0.15625 c 0.28645,-0.026 0.5013,-0.13021 0.64453,-0.3125 0.15625,-0.18229 0.23437,-0.37109 0.23438,-0.56641 l 0,-21.32812 c -10e-6,-0.19529 -0.0781,-0.37758 -0.23438,-0.54688 -0.14323,-0.16924 -0.35808,-0.2669 -0.64453,-0.29296 l -2.07031,-0.15625 0,-1.75782 10.11718,0 0,1.75782 -2.28515,0.15625 c -0.28647,0.0261 -0.50131,0.12372 -0.64453,0.29296 -0.13022,0.1693 -0.19532,0.35159 -0.19532,0.54688 l 0,9.00391 13.16407,0 0,-9.00391 c -2e-5,-0.19529 -0.0716,-0.37758 -0.21485,-0.54688 -0.14325,-0.16924 -0.35158,-0.2669 -0.625,-0.29296 l -2.28515,-0.15625 0,-1.75782 10.11718,0 0,1.75782 -2.07031,0.15625 c -0.28648,0.0261 -0.50784,0.12372 -0.66406,0.29296 -0.14325,0.1693 -0.21487,0.35159 -0.21484,0.54688 l 0,21.32812 c -3e-5,0.19532 0.0716,0.38412 0.21484,0.56641 0.15622,0.18229 0.37758,0.28646 0.66406,0.3125 l 2.07031,0.15625 0,1.71875 -10.11718,0"
         style="font-size:40px;text-align:center;text-anchor:middle;fill:#110b02;fill-opacity:1;stroke:#110b02;stroke-width:0.7299723;stroke-linejoin:round;stroke-miterlimit:4;stroke-dasharray:none;font-family:Abyssinica SIL;-inkscape-font-specification:Abyssinica SIL"
         id="path3769"
         inkscape:connector-curvature="0" />
      <path
         d="m 610.17578,906.44531 -0.56641,-3.75 c -0.0391,-0.20831 -0.1172,-0.37107 -0.23437,-0.48828 -0.10419,-0.13018 -0.24742,-0.19529 -0.42969,-0.19531 l -5.72265,0 0,22.1289 c -2e-5,0.19532 0.0651,0.38412 0.19531,0.56641 0.14321,0.18229 0.35806,0.28646 0.64453,0.3125 l 2.55859,0.15625 0,1.71875 -10.83984,0 0,-1.71875 2.55859,-0.15625 c 0.28645,-0.026 0.49479,-0.13021 0.625,-0.3125 0.14322,-0.18229 0.21484,-0.37109 0.21485,-0.56641 l 0,-22.1289 -5.76172,0 c -0.1823,2e-5 -0.33855,0.0651 -0.46875,0.19531 -0.11719,0.11721 -0.18881,0.27997 -0.21485,0.48828 l -0.54687,3.75 -2.32422,0 0,-6.38672 22.67578,0 0,6.38672 -2.36328,0"
         style="font-size:40px;text-align:center;text-anchor:middle;fill:#110b02;fill-opacity:1;stroke:#110b02;stroke-width:0.7299723;stroke-linejoin:round;stroke-miterlimit:4;stroke-dasharray:none;font-family:Abyssinica SIL;-inkscape-font-specification:Abyssinica SIL"
         id="path3771"
         inkscape:connector-curvature="0" />
      <path
         d="m 636.91406,926.89453 0,-1.71875 2.12891,-0.15625 c 0.28643,-0.026 0.50127,-0.13021 0.64453,-0.3125 0.15622,-0.18229 0.23435,-0.37109 0.23437,-0.56641 l 0,-22.05078 -9.19921,24.80469 -1.99219,0 -8.88672,-24.43359 0,21.67968 c -10e-6,0.19532 0.0716,0.38412 0.21484,0.56641 0.15625,0.18229 0.3776,0.28646 0.66407,0.3125 l 2.28515,0.15625 0,1.71875 -8.65234,0 0,-1.71875 2.28515,-0.15625 c 0.28646,-0.026 0.49479,-0.13021 0.625,-0.3125 0.14323,-0.18229 0.21484,-0.37109 0.21485,-0.56641 l 0,-21.32812 c -10e-6,-0.19529 -0.0716,-0.38409 -0.21485,-0.56641 -0.13021,-0.18226 -0.33854,-0.28643 -0.625,-0.3125 l -2.28515,-0.15625 0,-1.71875 8.96484,0 0,1.07422 7.2461,19.64844 7.24609,-19.53125 0,-1.19141 9.19922,0 0,1.71875 -2.16797,0.15625 c -0.28649,0.0261 -0.50784,0.13024 -0.66406,0.3125 -0.14326,0.18232 -0.21488,0.37112 -0.21485,0.56641 l 0,21.32812 c -3e-5,0.19532 0.0716,0.38412 0.21485,0.56641 0.15622,0.18229 0.37757,0.28646 0.66406,0.3125 l 2.16797,0.15625 0,1.71875 -10.09766,0"
         style="font-size:40px;text-align:center;text-anchor:middle;fill:#110b02;fill-opacity:1;stroke:#110b02;stroke-width:0.7299723;stroke-linejoin:round;stroke-miterlimit:4;stroke-dasharray:none;font-family:Abyssinica SIL;-inkscape-font-specification:Abyssinica SIL"
         id="path3773"
         inkscape:connector-curvature="0" />
      <path
         d="m 649.35547,926.89453 0,-1.71875 2.32422,-0.15625 c 0.28645,-0.026 0.49479,-0.13021 0.625,-0.3125 0.14322,-0.18229 0.21484,-0.37109 0.21484,-0.56641 l 0,-21.32812 c 0,-0.19529 -0.0716,-0.38409 -0.21484,-0.56641 -0.13021,-0.18226 -0.33855,-0.28643 -0.625,-0.3125 l -2.32422,-0.15625 0,-1.71875 10.21484,0 0,1.71875 -2.1289,0.15625 c -0.28647,0.0261 -0.50782,0.13024 -0.66407,0.3125 -0.14323,0.18232 -0.21485,0.37112 -0.21484,0.56641 l 0,22.12891 8.39844,0 c 0.18227,0 0.36456,-0.0651 0.54687,-0.19532 0.1953,-0.14322 0.30597,-0.30598 0.33203,-0.48828 l 0.64453,-4.80469 2.32422,0 0,7.44141 -19.45312,0"
         style="font-size:40px;text-align:center;text-anchor:middle;fill:#110b02;fill-opacity:1;stroke:#110b02;stroke-width:0.7299723;stroke-linejoin:round;stroke-miterlimit:4;stroke-dasharray:none;font-family:Abyssinica SIL;-inkscape-font-specification:Abyssinica SIL"
         id="path3775"
         inkscape:connector-curvature="0" />
      <path
         d="m 571.36719,973.80859 c -1e-5,0.42969 -0.0781,0.83334 -0.23438,1.21094 -0.15626,0.37761 -0.37761,0.70313 -0.66406,0.97656 -0.27344,0.27344 -0.59897,0.4948 -0.97656,0.66407 -0.36459,0.15625 -0.76173,0.23437 -1.19141,0.23437 -0.42969,0 -0.83334,-0.0781 -1.21094,-0.23437 -0.3776,-0.16927 -0.70964,-0.39063 -0.99609,-0.66407 -0.27344,-0.27343 -0.48828,-0.59895 -0.64453,-0.97656 -0.15625,-0.3776 -0.23438,-0.78125 -0.23438,-1.21094 0,-0.42968 0.0781,-0.82682 0.23438,-1.1914 0.15625,-0.3776 0.37109,-0.70312 0.64453,-0.97657 0.28645,-0.28645 0.61849,-0.5078 0.99609,-0.66406 0.3776,-0.15624 0.78125,-0.23437 1.21094,-0.23437 0.42968,0 0.82682,0.0781 1.19141,0.23437 0.37759,0.15626 0.70312,0.37761 0.97656,0.66406 0.28645,0.27345 0.5078,0.59897 0.66406,0.97657 0.15624,0.36458 0.23437,0.76172 0.23438,1.1914"
         style="font-size:40px;text-align:center;text-anchor:middle;fill:#110b02;fill-opacity:1;stroke:#110b02;stroke-width:0.7299723;stroke-linejoin:round;stroke-miterlimit:4;stroke-dasharray:none;font-family:Abyssinica SIL;-inkscape-font-specification:Abyssinica SIL"
         id="path3777"
         inkscape:connector-curvature="0" />
      <path
         d="m 603.26172,963.49609 c -3e-5,1.94012 -0.31253,3.76303 -0.9375,5.46875 -0.62503,1.70574 -1.51044,3.19662 -2.65625,4.47266 -1.13284,1.26302 -2.50002,2.26563 -4.10156,3.00781 -1.60158,0.72917 -3.37893,1.09375 -5.33204,1.09375 -1.96615,0 -3.75652,-0.35156 -5.37109,-1.05469 -1.60157,-0.71614 -2.97527,-1.70572 -4.12109,-2.96875 -1.14584,-1.26301 -2.03126,-2.74738 -2.65625,-4.45312 -0.625,-1.71874 -0.9375,-3.58723 -0.9375,-5.60547 0,-1.95311 0.30599,-3.78253 0.91797,-5.48828 0.61197,-1.70571 1.48437,-3.19008 2.61718,-4.45313 1.13281,-1.27601 2.5,-2.27862 4.10157,-3.00781 1.61457,-0.72914 3.41795,-1.09372 5.41015,-1.09375 1.97915,3e-5 3.76952,0.37112 5.3711,1.11328 1.61456,0.74222 2.98825,1.75133 4.12109,3.02735 1.14581,1.27606 2.02471,2.76695 2.63672,4.47265 0.62497,1.70575 0.93747,3.52866 0.9375,5.46875 m -4.62891,0.0391 c -2e-5,-1.62759 -0.1758,-3.15754 -0.52734,-4.58985 -0.35159,-1.44529 -0.87893,-2.7018 -1.58203,-3.76953 -0.70315,-1.08071 -1.58205,-1.92706 -2.63672,-2.53906 -1.04169,-0.62498 -2.25913,-0.93748 -3.65235,-0.9375 -1.44532,2e-5 -2.70183,0.31252 -3.76953,0.9375 -1.06771,0.62502 -1.95313,1.47789 -2.65625,2.55859 -0.70313,1.06773 -1.22396,2.31773 -1.5625,3.75 -0.33854,1.41929 -0.50781,2.92319 -0.50781,4.51172 0,1.60158 0.16927,3.12501 0.50781,4.57031 0.35156,1.4323 0.87239,2.68881 1.5625,3.76953 0.70312,1.08074 1.57551,1.94011 2.61719,2.57813 1.05468,0.63802 2.29165,0.95703 3.71094,0.95703 1.4453,0 2.69529,-0.31901 3.75,-0.95703 1.06769,-0.63802 1.9531,-1.49088 2.65625,-2.55859 0.7031,-1.08073 1.22393,-2.33073 1.5625,-3.75 0.35154,-1.43229 0.52732,-2.9427 0.52734,-4.53125"
         style="font-size:40px;text-align:center;text-anchor:middle;fill:#110b02;fill-opacity:1;stroke:#110b02;stroke-width:0.7299723;stroke-linejoin:round;stroke-miterlimit:4;stroke-dasharray:none;font-family:Abyssinica SIL;-inkscape-font-specification:Abyssinica SIL"
         id="path3779"
         inkscape:connector-curvature="0" />
      <path
         d="m 631.09375,963.41797 c -3e-5,1.15887 -0.1107,2.29819 -0.33203,3.41797 -0.22138,1.1198 -0.56643,2.18099 -1.03516,3.18359 -0.46877,1.00261 -1.07424,1.92709 -1.8164,2.77344 -0.72919,0.83334 -1.6081,1.55599 -2.63672,2.16797 -1.02867,0.61198 -2.21356,1.08724 -3.55469,1.42578 -1.34116,0.33854 -2.84507,0.50781 -4.51172,0.50781 l -11.11328,0 0,-1.71875 2.10937,-0.15625 c 0.28646,-0.026 0.5013,-0.13021 0.64454,-0.3125 0.15624,-0.18229 0.23437,-0.37109 0.23437,-0.56641 l 0,-21.32812 c 0,-0.19529 -0.0781,-0.38409 -0.23437,-0.56641 -0.14324,-0.18226 -0.35808,-0.28643 -0.64454,-0.3125 l -2.10937,-0.15625 0,-1.71875 10.3125,0 c 2.09634,3e-5 4.04295,0.26696 5.83984,0.80078 1.79686,0.52086 3.34634,1.32815 4.64844,2.42188 1.31508,1.09377 2.34373,2.48049 3.08594,4.16016 0.74216,1.6797 1.11325,3.67189 1.11328,5.97656 m -4.53125,0.0781 c -2e-5,-2.09633 -0.24742,-3.87368 -0.74219,-5.33203 -0.48179,-1.47133 -1.1784,-2.66274 -2.08984,-3.57422 -0.89846,-0.92445 -1.99221,-1.58851 -3.28125,-1.99218 -1.27606,-0.41665 -2.70184,-0.62498 -4.27735,-0.625 l -3.04687,0 0,23.00781 3.24219,-0.0391 c 1.53644,-0.013 2.92967,-0.22787 4.17968,-0.64454 1.26301,-0.42968 2.33723,-1.10025 3.22266,-2.01171 0.8854,-0.91146 1.56899,-2.08984 2.05078,-3.53516 0.49477,-1.4453 0.74217,-3.1966 0.74219,-5.25391"
         style="font-size:40px;text-align:center;text-anchor:middle;fill:#110b02;fill-opacity:1;stroke:#110b02;stroke-width:0.7299723;stroke-linejoin:round;stroke-miterlimit:4;stroke-dasharray:none;font-family:Abyssinica SIL;-inkscape-font-specification:Abyssinica SIL"
         id="path3781"
         inkscape:connector-curvature="0" />
      <path
         d="m 651.89453,969.375 c -2e-5,1.01563 -0.20184,2.01172 -0.60547,2.98828 -0.39064,0.97657 -1.01564,1.84896 -1.875,2.61719 -0.85939,0.76823 -1.95965,1.38672 -3.30078,1.85547 -1.34116,0.46875 -2.94923,0.70312 -4.82422,0.70312 -1.09376,0 -2.07683,-0.0781 -2.94922,-0.23437 -0.85938,-0.15625 -1.60156,-0.32552 -2.22656,-0.50782 -0.71615,-0.22135 -1.36068,-0.46874 -1.93359,-0.74218 l 0,-7.08985 2.51953,0 0.52734,4.53125 c 0.026,0.15626 0.10416,0.32553 0.23438,0.50782 0.14322,0.18229 0.28645,0.30599 0.42968,0.37109 0.026,0.013 0.13672,0.0716 0.33204,0.17578 0.1953,0.0911 0.46223,0.19532 0.80078,0.3125 0.33853,0.10417 0.74869,0.20183 1.23047,0.29297 0.49478,0.0911 1.05468,0.13672 1.67968,0.13672 0.84635,0 1.6276,-0.10417 2.34375,-0.3125 0.72916,-0.22135 1.35416,-0.53385 1.875,-0.9375 0.52082,-0.40364 0.92447,-0.89843 1.21094,-1.48438 0.29947,-0.58593 0.4492,-1.24999 0.44922,-1.99218 -2e-5,-0.80729 -0.23439,-1.51041 -0.70313,-2.10938 -0.45574,-0.61197 -1.03516,-1.15233 -1.73828,-1.62109 -0.69011,-0.48176 -1.44532,-0.91145 -2.26562,-1.28907 -0.82032,-0.37759 -1.59506,-0.74217 -2.32422,-1.09375 -0.82032,-0.39061 -1.60808,-0.79425 -2.36328,-1.21093 -0.74219,-0.41666 -1.39975,-0.89843 -1.97266,-1.44532 -0.5599,-0.54685 -1.00911,-1.18487 -1.34765,-1.91406 -0.32553,-0.74217 -0.48829,-1.62107 -0.48829,-2.63672 0,-1.18487 0.23438,-2.25909 0.70313,-3.22265 0.46875,-0.96352 1.11328,-1.78383 1.93359,-2.46094 0.83333,-0.69008 1.80989,-1.21742 2.92969,-1.58203 1.13281,-0.37758 2.35676,-0.56638 3.67188,-0.56641 0.75519,3e-5 1.46483,0.0456 2.1289,0.13672 0.67707,0.0912 1.30207,0.20836 1.875,0.35156 0.58592,0.13024 1.12629,0.27347 1.6211,0.42969 0.50779,0.15628 0.98305,0.30602 1.42578,0.44922 l 0,6.23047 -2.28516,0 -0.60547,-3.82813 c -0.026,-0.13018 -0.10418,-0.26039 -0.23437,-0.39062 -0.11721,-0.13019 -0.23439,-0.22784 -0.35157,-0.29297 -0.0261,-0.013 -0.11069,-0.0716 -0.2539,-0.17578 -0.14324,-0.10414 -0.35809,-0.20831 -0.64453,-0.3125 -0.27345,-0.10414 -0.63153,-0.2018 -1.07422,-0.29297 -0.4297,-0.0911 -0.94402,-0.13669 -1.54297,-0.13672 -0.8073,3e-5 -1.52996,0.11721 -2.16797,0.35156 -0.63803,0.2344 -1.17839,0.56643 -1.62109,0.9961 -0.44272,0.41669 -0.78777,0.91148 -1.03516,1.48437 -0.23438,0.57294 -0.35157,1.19794 -0.35156,1.875 -10e-6,0.612 0.11718,1.1719 0.35156,1.67969 0.24739,0.49481 0.60546,0.95705 1.07422,1.38672 0.48176,0.41668 1.0677,0.80731 1.75781,1.17187 0.6901,0.3646 1.48437,0.71617 2.38281,1.05469 1.21093,0.45575 2.28515,0.93101 3.22266,1.42578 0.95051,0.49481 1.74478,1.04819 2.38281,1.66016 0.65103,0.61199 1.14582,1.30209 1.48438,2.07031 0.33852,0.75522 0.50779,1.63412 0.50781,2.63672"
         style="font-size:40px;text-align:center;text-anchor:middle;fill:#110b02;fill-opacity:1;stroke:#110b02;stroke-width:0.7299723;stroke-linejoin:round;stroke-miterlimit:4;stroke-dasharray:none;font-family:Abyssinica SIL;-inkscape-font-specification:Abyssinica SIL"
         id="path3783"
         inkscape:connector-curvature="0" />
    </g>
  </g>
</svg>
