<?xml version="1.0" encoding="UTF-8" standalone="no"?>
<!-- Created with Inkscape (http://www.inkscape.org/) -->

<svg
   xmlns:dc="http://purl.org/dc/elements/1.1/"
   xmlns:cc="http://creativecommons.org/ns#"
   xmlns:rdf="http://www.w3.org/1999/02/22-rdf-syntax-ns#"
   xmlns:svg="http://www.w3.org/2000/svg"
   xmlns="http://www.w3.org/2000/svg"
   xmlns:sodipodi="http://sodipodi.sourceforge.net/DTD/sodipodi-0.dtd"
   xmlns:inkscape="http://www.inkscape.org/namespaces/inkscape"
   width="744.09448819"
   height="1052.3622047"
   id="svg3620"
   version="1.1"
   inkscape:version="0.48.4 r9939"
   sodipodi:docname="New document 36">
  <defs
     id="defs3622" />
  <sodipodi:namedview
     id="base"
     pagecolor="#ffffff"
     bordercolor="#666666"
     borderopacity="1.0"
     inkscape:pageopacity="0.0"
     inkscape:pageshadow="2"
     inkscape:zoom="0.35"
     inkscape:cx="375"
     inkscape:cy="520"
     inkscape:document-units="px"
     inkscape:current-layer="layer1"
     showgrid="false"
     inkscape:window-width="1440"
     inkscape:window-height="845"
     inkscape:window-x="-2"
     inkscape:window-y="-3"
     inkscape:window-maximized="1" />
  <metadata
     id="metadata3625">
    <rdf:RDF>
      <cc:Work
         rdf:about="">
        <dc:format>image/svg+xml</dc:format>
        <dc:type
           rdf:resource="http://purl.org/dc/dcmitype/StillImage" />
        <dc:title></dc:title>
      </cc:Work>
    </rdf:RDF>
  </metadata>
  <g
     inkscape:label="Layer 1"
     inkscape:groupmode="layer"
     id="layer1">
    <path
       style="fill:none;stroke:#1f031d;stroke-width:3.63265967px;stroke-linecap:butt;stroke-linejoin:miter;stroke-opacity:1"
       d="m 235.32623,576.62792 68.82963,78.3601 36.29058,51.23372 c 0,0 10.21173,59.52404 -74.71587,104.60222 -75.78738,40.22669 -117.41068,2.13477 -117.41068,2.13477 L 126.97249,783.07236 84.277734,610.15849 c 0,0 -16.096933,-21.79897 -21.347397,-34.15582 -5.736769,-13.50137 -4.253191,-29.50487 -10.673699,-42.6948 -3.550961,-7.29489 -12.310102,-11.53852 -14.943163,-19.21263 -4.387744,-12.78823 2.265181,-27.23114 0,-40.56006 -2.52626,-14.86499 -14.943199,-42.69479 -14.943199,-42.69479 0,0 12.054944,-20.45104 19.212664,-29.88633 C 51.940306,387.301 75.738768,362.52873 75.738768,362.52873 L 46.746911,287.27387 c 0,0 26.370929,-39.06028 46.794141,-48.30362 18.816738,-8.51626 61.889008,-3.019 61.889008,-3.019 l 30.18979,28.68029 c 0,0 9.96334,-15.12015 16.60438,-21.13282 4.8633,-4.40314 16.60434,-10.56642 16.60434,-10.56642 l 18.1139,-4.52848 -9.05695,-10.56642 c 0,0 25.41605,-35.10058 43.77518,-45.28466 30.14123,-16.71983 58.87006,0 58.87006,0 l 42.26564,52.83212 9.05694,15.09487 c 0,0 13.56988,-7.81676 21.13282,-9.05691 12.45294,-2.04199 37.73723,3.01896 37.73723,3.01896 0,0 24.39113,11.25281 34.71823,19.62333 8.86202,7.183 22.64233,25.66133 22.64233,25.66133 0,0 18.56951,7.41585 24.15181,15.0949 4.87947,6.71221 1.04574,17.52304 6.03796,24.15181 6.64558,8.82416 21.11153,8.55807 28.68028,16.60437 13.87582,14.75133 27.17081,54.34158 27.17081,54.34158 l 9.05691,18.11385 107.1737,114.72114 18.11385,30.18976 c 0,0 19.83963,50.77118 -64.90799,99.62627 -91.15444,52.54849 -113.21166,9.05691 -113.21166,9.05691 l -25.66129,-37.73719 -43.77518,-138.87295 -33.20876,18.11386 c 0,0 -30.27389,18.08581 -42.26566,6.03795 -6.02386,-6.05201 -13.04085,-11.24522 -18.11386,-18.11385 -5.75003,-7.78534 -13.58538,-25.66133 -13.58538,-25.66133 0,0 -15.67875,7.10846 -22.6423,12.07591 -16.28888,11.61968 -31.69928,0 -31.69928,0 0,0 -11.97896,7.38596 -13.5854,13.58542 -1.83769,7.09193 6.03796,21.13281 6.03796,21.13281 0,0 4.59985,28.06313 -15.0949,43.77518 -14.4424,11.52186 -51.42934,20.66508 -51.42934,20.66508 z"
       id="path4022"
       inkscape:connector-curvature="0"
       sodipodi:nodetypes="cccscccsssscsccsccscccscccscscsssccccsccccsscscscsc" />
    <path
       style="fill:none;stroke:#494949;stroke-width:2.5428617;stroke-linecap:butt;stroke-linejoin:miter;stroke-miterlimit:4;stroke-opacity:1;stroke-dasharray:none"
       d="m 82.974626,599.73799 c 0,0 8.862127,-27.29232 18.113854,-37.73719 14.25249,-16.09058 36.71326,-22.41853 54.34158,-34.71824 12.9574,-9.04071 22.88858,-23.28153 37.73723,-28.68028 19.88332,-7.22932 42.3891,-5.51191 63.39852,-3.019 12.49144,1.4822 36.22771,10.56643 36.22771,10.56643 l 10.56643,9.05695 -10.56643,-24.15181 c 0,0 -26.79373,-9.66437 -40.75619,-12.07591 -18.37217,-3.17316 -37.81246,-7.73226 -55.85105,-3.01899 -23.63456,6.17541 -41.78757,25.36653 -61.88904,39.24671 -14.49159,10.00652 -30.88258,18.26192 -42.265704,31.69924 -9.89155,11.67656 -21.132815,40.75619 -21.132815,40.75619 z"
       id="path4024"
       inkscape:connector-curvature="0"
       sodipodi:nodetypes="csssscccsssscc" />
    <path
       style="fill:none;stroke:#444444;stroke-width:2.5428617;stroke-linecap:butt;stroke-linejoin:miter;stroke-miterlimit:4;stroke-opacity:1;stroke-dasharray:none"
       d="m 584.12481,394.44757 c 0,0 -13.20509,-10.35097 -21.13286,-12.0759 -10.8611,-2.36319 -22.11527,2.32399 -33.20875,3.01895 -14.57184,0.91289 -30.21378,-3.89977 -43.77515,1.50952 -38.07445,15.18699 -92.0788,81.51238 -92.0788,81.51238 0,0 -7.14228,9.54819 -9.05695,15.09486 -1.32367,3.8346 -1.50948,12.0759 -1.50948,12.0759 l -15.0949,-25.66129 c 0,0 39.06871,-45.59652 61.88904,-64.90799 14.38167,-12.17032 29.12619,-25.1577 46.79414,-31.69928 16.62254,-6.15453 35.17552,-4.47827 52.8321,-6.03795 8.03504,-0.70975 16.19665,-2.84383 24.15184,-1.50948 6.45099,1.08206 18.11386,7.54743 18.11386,7.54743 z"
       id="path4026"
       inkscape:connector-curvature="0"
       sodipodi:nodetypes="cssscsccsssscc" />
    <path
       style="fill:none;stroke:#606060;stroke-width:1.81632984;stroke-linecap:butt;stroke-linejoin:miter;stroke-miterlimit:4;stroke-opacity:1;stroke-dasharray:none"
       d="m 169.01548,805.02845 c -15.53162,-28.24967 26.7027,-63.40873 54.34157,-80.0029 28.20208,-16.9323 81.21559,-30.08213 98.11677,-10.56643 19.74623,22.80086 -25.7608,70.43767 -55.85107,87.55037 -28.00588,15.92729 -81.08514,31.25141 -96.60727,3.01896 z"
       id="path4032"
       inkscape:connector-curvature="0"
       sodipodi:nodetypes="sssss" />
    <path
       style="fill:none;stroke:#4f4f4f;stroke-width:1.81632984;stroke-linecap:butt;stroke-linejoin:miter;stroke-miterlimit:4;stroke-opacity:1;stroke-dasharray:none"
       d="m 558.46348,655.58908 c -17.58803,-26.68261 26.08224,-62.51742 52.83213,-80.0029 24.78811,-16.20311 70.95292,-39.62069 87.55033,-15.09486 17.21826,25.44325 -22.92666,61.17762 -48.30366,78.49338 -25.76209,17.57855 -74.91445,42.64426 -92.0788,16.60438 z"
       id="path4034"
       inkscape:connector-curvature="0"
       sodipodi:nodetypes="sssss" />
    <path
       style="fill:none;stroke:#494949;stroke-width:2.5428617;stroke-linecap:butt;stroke-linejoin:miter;stroke-miterlimit:4;stroke-opacity:1;stroke-dasharray:none"
       d="m 303.35995,475.95995 -13.58539,15.0949 -61.88904,-18.1139 93.5883,-49.8131 7.54747,4.52848 c 0,0 -21.08292,16.69694 -25.66134,28.68028 -2.33453,6.11032 0,19.62334 0,19.62334 z"
       id="path4036"
       inkscape:connector-curvature="0"
       sodipodi:nodetypes="cccccsc" />
    <path
       style="fill:none;stroke:#4d4d4d;stroke-width:2.17959595;stroke-linecap:butt;stroke-linejoin:miter;stroke-miterlimit:4;stroke-opacity:1;stroke-dasharray:none"
       d="M 437.70439,395.95705 387.8913,442.75119 369.77744,424.63733 342.60667,414.07091 z"
       id="path4038"
       inkscape:connector-curvature="0" />
    <path
       style="fill:none;stroke:#000000;stroke-width:3.63265967px;stroke-linecap:butt;stroke-linejoin:miter;stroke-opacity:1"
       d="m 368.26796,380.86215 c 0,0 -43.13387,-5.96646 -58.87005,3.01899 -26.41817,15.08499 -48.30363,43.77519 -48.30363,43.77519 L 232.414,385.39062 c 0,0 -8.72391,-42.61592 46.79414,-69.43647 16.41068,-7.92791 54.34158,6.03795 54.34158,6.03795 z"
       id="path4040"
       inkscape:connector-curvature="0"
       sodipodi:nodetypes="csccscc" />
  </g>
</svg>
