<?xml version="1.0" encoding="UTF-8" standalone="no"?>
<!-- Created with Inkscape (http://www.inkscape.org/) -->

<svg
   xmlns:dc="http://purl.org/dc/elements/1.1/"
   xmlns:cc="http://creativecommons.org/ns#"
   xmlns:rdf="http://www.w3.org/1999/02/22-rdf-syntax-ns#"
   xmlns:svg="http://www.w3.org/2000/svg"
   xmlns="http://www.w3.org/2000/svg"
   xmlns:sodipodi="http://sodipodi.sourceforge.net/DTD/sodipodi-0.dtd"
   xmlns:inkscape="http://www.inkscape.org/namespaces/inkscape"
   width="744.09448819"
   height="1052.3622047"
   id="svg3087"
   version="1.1"
   inkscape:version="0.48.4 r9939"
   sodipodi:docname="New document 2">
  <defs
     id="defs3089" />
  <sodipodi:namedview
     id="base"
     pagecolor="#ffffff"
     bordercolor="#666666"
     borderopacity="1.0"
     inkscape:pageopacity="0.0"
     inkscape:pageshadow="2"
     inkscape:zoom="0.35"
     inkscape:cx="375"
     inkscape:cy="520"
     inkscape:document-units="px"
     inkscape:current-layer="layer1"
     showgrid="false"
     inkscape:window-width="1440"
     inkscape:window-height="845"
     inkscape:window-x="-2"
     inkscape:window-y="-3"
     inkscape:window-maximized="1" />
  <metadata
     id="metadata3092">
    <rdf:RDF>
      <cc:Work
         rdf:about="">
        <dc:format>image/svg+xml</dc:format>
        <dc:type
           rdf:resource="http://purl.org/dc/dcmitype/StillImage" />
        <dc:title></dc:title>
      </cc:Work>
    </rdf:RDF>
  </metadata>
  <g
     inkscape:label="Layer 1"
     inkscape:groupmode="layer"
     id="layer1">
    <path
       style="fill:none;stroke:#000000;stroke-width:3.51304364px;stroke-linecap:butt;stroke-linejoin:miter;stroke-opacity:1"
       d="m 26.269623,205.83453 6.193355,363.3426 c 0,0 22.562944,81.45125 35.095586,121.80235 7.745559,24.93826 6.209375,55.95467 24.773351,74.32009 14.387915,14.23405 37.809625,15.44552 57.804495,18.58 28.55353,4.47618 86.70677,0 86.70677,0 0,0 -2.55989,-31.67097 6.19335,-43.35335 9.97167,-13.30857 45.41779,-20.64447 45.41779,-20.64447 l 346.82705,-18.58003 c 0,0 18.9248,-6.51624 26.83779,-12.38668 6.655,-4.93716 16.51555,-18.58003 16.51555,-18.58003 l 2.06448,-338.56922 -70.19121,-74.32009 c 0,0 19.01688,-2.63397 16.51559,-8.25779 -12.11382,-27.23635 -41.28894,-49.5467 -41.28894,-49.5467 0,0 -25.65481,-10.42113 -39.22447,-12.38671 -37.46348,-5.42657 -113.54459,2.06447 -113.54459,2.06447 z"
       id="path4278"
       inkscape:connector-curvature="0"
       sodipodi:nodetypes="ccssscsccscccscscc" />
    <path
       style="fill:none;stroke:#000000;stroke-width:3.51304364px;stroke-linecap:butt;stroke-linejoin:miter;stroke-opacity:1"
       d="m 629.08801,261.57458 72.25565,78.44897 c 0,0 8.23763,17.48245 10.3222,26.83783 2.10062,9.42742 2.06447,28.90223 2.06447,28.90223 L 703.4081,742.59066 243.03653,775.62181 c 0,0 -3.66786,-23.60551 2.06444,-33.03115 4.16995,-6.85669 13.18361,-9.43059 20.64447,-12.38668 15.05817,-5.9663 47.48222,-10.32223 47.48222,-10.32223 l 322.05371,-16.51559 c 0,0 20.7468,-7.41488 28.90223,-14.45112 6.35998,-5.4872 14.45111,-20.64447 14.45111,-20.64447 l 6.19336,-334.44034 -72.25561,-74.32009 z"
       id="path4280"
       inkscape:connector-curvature="0"
       sodipodi:nodetypes="ccscccssccscccc" />
    <path
       style="fill:none;stroke:#000000;stroke-width:3.51304364px;stroke-linecap:butt;stroke-linejoin:miter;stroke-opacity:1"
       d="m 28.334063,251.25235 c 0,0 27.866199,79.42271 41.288941,109.41567 4.024754,8.99329 17.412155,15.35622 26.837791,18.22581 16.667245,5.07428 51.611175,2.41866 51.611175,2.41866 0,0 375.2592,-16.47326 518.17607,-26.83779 5.5335,-0.40129 7.71109,-8.93012 8.25779,-14.45115 0.42887,-4.33106 -4.12888,-12.38667 -4.12888,-12.38667 l -76.38453,-76.38453 c 0,0 3.6868,-20.00152 0,-28.90223 -3.35183,-8.09202 -18.58003,-18.58003 -18.58003,-18.58003 L 28.334063,226.479 z"
       id="path4282"
       inkscape:connector-curvature="0"
       sodipodi:nodetypes="csscssccsccc" />
    <path
       style="fill:none;stroke:#000000;stroke-width:3.51304364px;stroke-linecap:butt;stroke-linejoin:miter;stroke-opacity:1"
       d="m 121.23418,253.31679 57.8045,97.029 c 0,0 14.16329,11.71698 22.70891,14.45115 12.47021,3.9898 39.22447,2.06444 39.22447,2.06444 l 313.79586,-20.64447 c 0,0 16.83507,-1.9001 20.64447,-8.2578 3.20285,-5.34534 -2.06444,-18.58003 -2.06444,-18.58003 l -97.02899,-111.48011 2.06444,28.90226 z"
       id="path4284"
       inkscape:connector-curvature="0"
       sodipodi:nodetypes="ccsccscccc" />
    <path
       style="fill:none;stroke:#000000;stroke-width:3.51304364px;stroke-linecap:butt;stroke-linejoin:miter;stroke-opacity:1"
       d="m 476.31896,238.86567 0,39.2245 -284.89361,14.45112 -22.70891,20.64447 -8.25779,0 -33.03115,-61.93341 z"
       id="path4286"
       inkscape:connector-curvature="0" />
    <path
       style="fill:#fcfcfc;fill-opacity:1;stroke:#696969;stroke-width:2.45913053;stroke-linecap:butt;stroke-linejoin:miter;stroke-miterlimit:4;stroke-opacity:1;stroke-dasharray:none"
       d="m 222.39206,333.83023 c 0,0 -10.83363,-19.19713 -18.58003,-26.83783 -3.6216,-3.57216 -7.58248,-8.31136 -12.66537,-8.51329 -8.92566,-0.35461 -23.35654,13.13804 -23.35654,13.13804 0,0 9.73416,-9.7031 16.05763,-10.21846 99.32414,-8.09504 299.25574,-21.89676 299.25574,-21.89676 l 26.27612,0 c 0,0 14.1093,0.21499 20.43696,2.91955 7.96635,3.40512 20.43699,16.05763 20.43699,16.05763 l 13.13804,13.13804 z"
       id="path4288"
       inkscape:connector-curvature="0"
       sodipodi:nodetypes="csscsccsccc" />
    <path
       style="fill:none;stroke:#4c4c4c;stroke-width:1.40521741;stroke-linecap:butt;stroke-linejoin:miter;stroke-miterlimit:4;stroke-opacity:1;stroke-dasharray:none"
       d="m 129.83573,383.14658 7.29891,248.16333 c 0,0 32.15597,2.70164 48.17289,1.45978 165.92066,-12.8647 487.5679,-39.41417 487.5679,-39.41417 l 0,48.17289 c 0,0 -329.12609,24.61712 -487.5679,32.11522 -16.63971,0.78745 -49.63267,-1.45977 -49.63267,-1.45977 l 1.45978,97.80555 z"
       id="path4798"
       inkscape:connector-curvature="0"
       sodipodi:nodetypes="ccsccsccc" />
    <path
       sodipodi:type="arc"
       style="fill:#fcfcfc;fill-opacity:1;stroke:#4c4c4c;stroke-width:0.40000001;stroke-miterlimit:4;stroke-opacity:1;stroke-dasharray:none"
       id="path4800"
       sodipodi:cx="135.46364"
       sodipodi:cy="148.7865"
       sodipodi:rx="15.374707"
       sodipodi:ry="8.9339514"
       d="m 120.58887,146.52677 a 15.374707,8.9339514 0 1 1 -0.46896,2.82661"
       sodipodi:start="3.3973071"
       sodipodi:end="9.3612828"
       sodipodi:open="true"
       transform="matrix(3.5029699,-0.26585171,0.26585171,3.5029699,-106.88527,12.562853)" />
  </g>
</svg>
