<?xml version="1.0" encoding="UTF-8" standalone="no"?>
<!-- Created with Inkscape (http://www.inkscape.org/) -->

<svg
   xmlns:dc="http://purl.org/dc/elements/1.1/"
   xmlns:cc="http://creativecommons.org/ns#"
   xmlns:rdf="http://www.w3.org/1999/02/22-rdf-syntax-ns#"
   xmlns:svg="http://www.w3.org/2000/svg"
   xmlns="http://www.w3.org/2000/svg"
   xmlns:xlink="http://www.w3.org/1999/xlink"
   xmlns:sodipodi="http://sodipodi.sourceforge.net/DTD/sodipodi-0.dtd"
   xmlns:inkscape="http://www.inkscape.org/namespaces/inkscape"
   width="902.71997"
   height="902.72296"
   id="svg3452"
   version="1.1"
   inkscape:version="0.48.4 r9939"
   sodipodi:docname="dollar.svg">
  <defs
     id="defs3454">
    <linearGradient
       id="linearGradient3787">
      <stop
         style="stop-color:#000000;stop-opacity:1;"
         offset="0"
         id="stop3789" />
      <stop
         style="stop-color:#dddddd;stop-opacity:1;"
         offset="1"
         id="stop3791" />
    </linearGradient>
    <linearGradient
       id="linearGradient3769">
      <stop
         style="stop-color:#ffffff;stop-opacity:1;"
         offset="0"
         id="stop3771" />
      <stop
         id="stop3777"
         offset="0.103125"
         style="stop-color:#ed0000;stop-opacity:1;" />
      <stop
         style="stop-color:#ffffff;stop-opacity:1;"
         offset="0.1897295"
         id="stop3779" />
      <stop
         id="stop3781"
         offset="0.34165522"
         style="stop-color:#ed0000;stop-opacity:1;" />
      <stop
         style="stop-color:#ffffff;stop-opacity:1;"
         offset="0.34165522"
         id="stop3783" />
      <stop
         id="stop3785"
         offset="0.45686555"
         style="stop-color:#ed0000;stop-opacity:1;" />
      <stop
         style="stop-color:#ffffff;stop-opacity:1;"
         offset="1"
         id="stop3773" />
    </linearGradient>
    <linearGradient
       inkscape:collect="always"
       xlink:href="#linearGradient3787"
       id="linearGradient3793"
       x1="38.915543"
       y1="701.13879"
       x2="93.457222"
       y2="607.25128"
       gradientUnits="userSpaceOnUse" />
    <linearGradient
       inkscape:collect="always"
       xlink:href="#linearGradient3787"
       id="linearGradient3799"
       gradientUnits="userSpaceOnUse"
       x1="38.915543"
       y1="701.13879"
       x2="93.457222"
       y2="607.25128" />
  </defs>
  <sodipodi:namedview
     id="base"
     pagecolor="#ffffff"
     bordercolor="#666666"
     borderopacity="1.0"
     inkscape:pageopacity="0.0"
     inkscape:pageshadow="2"
     inkscape:zoom="0.60625516"
     inkscape:cx="379.41337"
     inkscape:cy="461.82821"
     inkscape:document-units="px"
     inkscape:current-layer="layer1"
     showgrid="false"
     inkscape:window-width="1440"
     inkscape:window-height="851"
     inkscape:window-x="0"
     inkscape:window-y="25"
     inkscape:window-maximized="1"
     fit-margin-top="2"
     fit-margin-left="30"
     fit-margin-right="30"
     fit-margin-bottom="2" />
  <metadata
     id="metadata3457">
    <rdf:RDF>
      <cc:Work
         rdf:about="">
        <dc:format>image/svg+xml</dc:format>
        <dc:type
           rdf:resource="http://purl.org/dc/dcmitype/StillImage" />
        <dc:title />
      </cc:Work>
    </rdf:RDF>
  </metadata>
  <g
     inkscape:label="Layer 1"
     inkscape:groupmode="layer"
     id="layer1"
     transform="translate(4.0671905,-85.286367)">
    <g
       transform="matrix(7.9016216,0,0,6.8046239,-76.413697,-3964.5319)"
       style="font-size:12px;font-style:normal;font-variant:normal;font-weight:normal;font-stretch:normal;text-align:start;line-height:125%;letter-spacing:0px;word-spacing:0px;writing-mode:lr-tb;text-anchor:start;fill:url(#linearGradient3793);fill-opacity:1;stroke:#110b02;stroke-width:0.67479873;stroke-linecap:round;stroke-linejoin:round;stroke-miterlimit:4;stroke-opacity:1;font-family:Sans;-inkscape-font-specification:Sans"
       id="flowRoot3884">
      <path
         d="m 96.5625,632.861 0,-17.76 c -5.439995,-4.48 -12.320013,-6.88001 -25.76,-8.48 l 0,-10.08 -5.44,0 0,10.08 c -10.07999,1.11999 -14.560005,2.56 -19.84,6.72 -5.439995,4.31999 -8.64,10.72 -8.64,17.6 0,7.51999 2.560006,13.12 8.96,19.04 4.639995,4.47999 8.160011,6.88 19.52,13.28 l 0,45.12 c -15.039985,-0.16 -23.520004,-7.68002 -27.36,-24.48 l -2.4,0 0,20.8 c 9.59999,5.91999 16.320013,7.68 29.76,8.16 l 0,13.92 5.44,0 0,-13.92 c 11.839988,-1.92 16.800006,-3.84001 22.56,-8.48 5.279995,-4.48 8.32,-11.04001 8.32,-18.72 0,-5.44 -1.28,-11.20001 -3.2,-14.4 -3.999996,-6.56 -8.320019,-9.76002 -27.68,-20.96 l 0,-39.36 c 13.439987,1.59999 20.640003,8.32001 23.36,21.92 l 2.4,0 m -31.36,14.88 c -13.279987,-8.96 -16.48,-12.96001 -16.48,-20.32 0,-8.8 5.440011,-14.24001 16.48,-16.48 l 0,36.8 m 5.6,18.24 c 14.879985,9.27999 18.24,13.60001 18.24,23.52 0,10.55999 -5.760012,16.48 -18.24,18.88 l 0,-42.4"
         style="font-size:160px;line-height:125%;fill:url(#linearGradient3799);stroke:#110b02;font-family:Nimbus Roman No9 L;-inkscape-font-specification:Nimbus Roman No9 L"
         id="path3031" />
    </g>
    <g
       id="g3784"
       transform="matrix(0.98760499,0,0,0.99162076,176.8234,5.6711797)">
      <path
         style="fill:#000093;fill-opacity:1;stroke:#000088;stroke-width:0.741;stroke-miterlimit:4;stroke-opacity:1"
         d="m 266.69031,89.469765 40.70537,0 0,892.710815 -40.70537,0 z"
         id="rect3782" />
      <path
         transform="matrix(0.69227518,0,0,0.79283157,161.94781,-344.47551)"
         style="fill:#ffffff;fill-opacity:1;stroke:#000088;stroke-width:1.00020349;stroke-miterlimit:4;stroke-opacity:1"
         inkscape:transform-center-x="-0.064657055"
         inkscape:transform-center-y="-1.9851719"
         d="m 203.57143,627.36216 -22.34036,-17.85388 -22.85032,17.19638 10.07649,-26.76409 -23.41586,-16.41798 28.56798,1.31276 8.37852,-27.34325 7.57948,27.57543 28.59408,-0.48108 -23.8836,15.72979 z"
         id="path3902" />
      <path
         transform="matrix(0.69227518,0,0,0.79283157,161.94781,463.84971)"
         style="fill:#ffffff;fill-opacity:1;stroke:#000088;stroke-width:1.00020349;stroke-miterlimit:4;stroke-opacity:1"
         inkscape:transform-center-x="-0.064653035"
         inkscape:transform-center-y="-1.9851651"
         d="m 203.57143,627.36216 -22.34036,-17.85388 -22.85032,17.19638 10.07649,-26.76409 -23.41586,-16.41798 28.56798,1.31276 8.37852,-27.34325 7.57948,27.57543 28.59408,-0.48108 -23.8836,15.72979 z"
         id="path3902-7" />
      <path
         transform="matrix(0.69227518,0,0,0.79283157,161.94781,396.48929)"
         style="fill:#ffffff;fill-opacity:1;stroke:#000088;stroke-width:1.00020349;stroke-miterlimit:4;stroke-opacity:1"
         inkscape:transform-center-x="-0.064649201"
         inkscape:transform-center-y="-1.985164"
         d="m 203.57143,627.36216 -22.34036,-17.85388 -22.85032,17.19638 10.07649,-26.76409 -23.41586,-16.41798 28.56798,1.31276 8.37852,-27.34325 7.57948,27.57543 28.59408,-0.48108 -23.8836,15.72979 z"
         id="path3902-5" />
      <path
         transform="matrix(0.69227518,0,0,0.79283157,161.94781,329.12884)"
         style="fill:#ffffff;fill-opacity:1;stroke:#000088;stroke-width:1.00020349;stroke-miterlimit:4;stroke-opacity:1"
         inkscape:transform-center-x="-0.064648812"
         inkscape:transform-center-y="-1.9851694"
         d="m 203.57143,627.36216 -22.34036,-17.85388 -22.85032,17.19638 10.07649,-26.76409 -23.41586,-16.41798 28.56798,1.31276 8.37852,-27.34325 7.57948,27.57543 28.59408,-0.48108 -23.8836,15.72979 z"
         id="path3902-3" />
      <path
         transform="matrix(0.69227518,0,0,0.79283157,161.94781,261.76839)"
         style="fill:#ffffff;fill-opacity:1;stroke:#000088;stroke-width:1.00020349;stroke-miterlimit:4;stroke-opacity:1"
         inkscape:transform-center-x="-0.064650366"
         inkscape:transform-center-y="-1.9851679"
         d="m 203.57143,627.36216 -22.34036,-17.85388 -22.85032,17.19638 10.07649,-26.76409 -23.41586,-16.41798 28.56798,1.31276 8.37852,-27.34325 7.57948,27.57543 28.59408,-0.48108 -23.8836,15.72979 z"
         id="path3902-0" />
      <path
         transform="matrix(0.69227518,0,0,0.79283157,161.94781,194.40799)"
         style="fill:#ffffff;fill-opacity:1;stroke:#000088;stroke-width:1.00020349;stroke-miterlimit:4;stroke-opacity:1"
         inkscape:transform-center-x="-0.064648812"
         inkscape:transform-center-y="-1.9851725"
         d="m 203.57143,627.36216 -22.34036,-17.85388 -22.85032,17.19638 10.07649,-26.76409 -23.41586,-16.41798 28.56798,1.31276 8.37852,-27.34325 7.57948,27.57543 28.59408,-0.48108 -23.8836,15.72979 z"
         id="path3902-8" />
      <path
         transform="matrix(0.69227518,0,0,0.79283157,161.94781,127.04751)"
         style="fill:#ffffff;fill-opacity:1;stroke:#000088;stroke-width:1.00020349;stroke-miterlimit:4;stroke-opacity:1"
         inkscape:transform-center-x="-0.064651675"
         inkscape:transform-center-y="-1.9851719"
         d="m 203.57143,627.36216 -22.34036,-17.85388 -22.85032,17.19638 10.07649,-26.76409 -23.41586,-16.41798 28.56798,1.31276 8.37852,-27.34325 7.57948,27.57543 28.59408,-0.48108 -23.8836,15.72979 z"
         id="path3902-7-5" />
      <path
         transform="matrix(0.69227518,0,0,0.79283157,161.94781,59.687101)"
         style="fill:#ffffff;fill-opacity:1;stroke:#000088;stroke-width:1.00020349;stroke-miterlimit:4;stroke-opacity:1"
         inkscape:transform-center-x="-0.064651675"
         inkscape:transform-center-y="-1.9851687"
         d="m 203.57143,627.36216 -22.34036,-17.85388 -22.85032,17.19638 10.07649,-26.76409 -23.41586,-16.41798 28.56798,1.31276 8.37852,-27.34325 7.57948,27.57543 28.59408,-0.48108 -23.8836,15.72979 z"
         id="path3902-5-1" />
      <path
         transform="matrix(0.69227518,0,0,0.79283157,161.94781,-7.6733057)"
         style="fill:#ffffff;fill-opacity:1;stroke:#000088;stroke-width:1.00020349;stroke-miterlimit:4;stroke-opacity:1"
         inkscape:transform-center-x="-0.064651286"
         inkscape:transform-center-y="-1.9851692"
         d="m 203.57143,627.36216 -22.34036,-17.85388 -22.85032,17.19638 10.07649,-26.76409 -23.41586,-16.41798 28.56798,1.31276 8.37852,-27.34325 7.57948,27.57543 28.59408,-0.48108 -23.8836,15.72979 z"
         id="path3902-3-1" />
      <path
         transform="matrix(0.69227518,0,0,0.79283157,161.94781,-75.033806)"
         style="fill:#ffffff;fill-opacity:1;stroke:#000088;stroke-width:1.00020349;stroke-miterlimit:4;stroke-opacity:1"
         inkscape:transform-center-x="-0.064655173"
         inkscape:transform-center-y="-1.9851686"
         d="m 203.57143,627.36216 -22.34036,-17.85388 -22.85032,17.19638 10.07649,-26.76409 -23.41586,-16.41798 28.56798,1.31276 8.37852,-27.34325 7.57948,27.57543 28.59408,-0.48108 -23.8836,15.72979 z"
         id="path3902-0-8" />
      <path
         transform="matrix(0.69227518,0,0,0.79283157,161.94781,-142.3942)"
         style="fill:#ffffff;fill-opacity:1;stroke:#000088;stroke-width:1.00020349;stroke-miterlimit:4;stroke-opacity:1"
         inkscape:transform-center-x="-0.064651286"
         inkscape:transform-center-y="-1.9851692"
         d="m 203.57143,627.36216 -22.34036,-17.85388 -22.85032,17.19638 10.07649,-26.76409 -23.41586,-16.41798 28.56798,1.31276 8.37852,-27.34325 7.57948,27.57543 28.59408,-0.48108 -23.8836,15.72979 z"
         id="path3902-8-0" />
      <path
         transform="matrix(0.69227518,0,0,0.79283157,161.94781,-277.1151)"
         style="fill:#ffffff;fill-opacity:1;stroke:#000088;stroke-width:1.00020349;stroke-miterlimit:4;stroke-opacity:1"
         inkscape:transform-center-x="-0.064648424"
         inkscape:transform-center-y="-1.9851685"
         d="m 203.57143,627.36216 -22.34036,-17.85388 -22.85032,17.19638 10.07649,-26.76409 -23.41586,-16.41798 28.56798,1.31276 8.37852,-27.34325 7.57948,27.57543 28.59408,-0.48108 -23.8836,15.72979 z"
         id="path3902-38" />
      <path
         transform="matrix(0.69227518,0,0,0.79283157,161.94781,-209.75468)"
         style="fill:#ffffff;fill-opacity:1;stroke:#000088;stroke-width:1.00020349;stroke-miterlimit:4;stroke-opacity:1"
         inkscape:transform-center-x="-0.064654978"
         inkscape:transform-center-y="-1.9851652"
         d="m 203.57143,627.36216 -22.34036,-17.85388 -22.85032,17.19638 10.07649,-26.76409 -23.41586,-16.41798 28.56798,1.31276 8.37852,-27.34325 7.57948,27.57543 28.59408,-0.48108 -23.8836,15.72979 z"
         id="path3902-2" />
    </g>
  </g>
</svg>
