<?xml version="1.0" encoding="UTF-8" standalone="no"?>
<!-- Created with Inkscape (http://www.inkscape.org/) -->

<svg
   xmlns:dc="http://purl.org/dc/elements/1.1/"
   xmlns:cc="http://creativecommons.org/ns#"
   xmlns:rdf="http://www.w3.org/1999/02/22-rdf-syntax-ns#"
   xmlns:svg="http://www.w3.org/2000/svg"
   xmlns="http://www.w3.org/2000/svg"
   xmlns:xlink="http://www.w3.org/1999/xlink"
   xmlns:sodipodi="http://sodipodi.sourceforge.net/DTD/sodipodi-0.dtd"
   xmlns:inkscape="http://www.inkscape.org/namespaces/inkscape"
   width="744.09448"
   height="744.09003"
   id="svg3119"
   version="1.1"
   inkscape:version="0.48.4 r9939"
   sodipodi:docname="edit_formula.svg">
  <defs
     id="defs3121">
    <linearGradient
       id="linearGradient3766">
      <stop
         style="stop-color:#145bd5;stop-opacity:1;"
         offset="0"
         id="stop3768" />
      <stop
         style="stop-color:#6193cf;stop-opacity:1;"
         offset="1"
         id="stop3770" />
    </linearGradient>
    <linearGradient
       id="linearGradient3758">
      <stop
         style="stop-color:#110b02;stop-opacity:1;"
         offset="0"
         id="stop3760" />
      <stop
         style="stop-color:#3b3b3b;stop-opacity:1;"
         offset="1"
         id="stop3762" />
    </linearGradient>
    <linearGradient
       inkscape:collect="always"
       xlink:href="#linearGradient3758"
       id="linearGradient3764"
       x1="533.30109"
       y1="984.77081"
       x2="612.25269"
       y2="840.70459"
       gradientUnits="userSpaceOnUse" />
    <linearGradient
       inkscape:collect="always"
       xlink:href="#linearGradient3766"
       id="linearGradient3772"
       x1="331.50677"
       y1="874.33984"
       x2="398.21869"
       y2="939.88098"
       gradientUnits="userSpaceOnUse" />
    <linearGradient
       inkscape:collect="always"
       xlink:href="#linearGradient3766"
       id="linearGradient3780"
       x1="331.50677"
       y1="874.33984"
       x2="398.21869"
       y2="939.88098"
       gradientUnits="userSpaceOnUse" />
    <linearGradient
       inkscape:collect="always"
       xlink:href="#linearGradient3758"
       id="linearGradient3794"
       gradientUnits="userSpaceOnUse"
       x1="533.30109"
       y1="984.77081"
       x2="612.25269"
       y2="840.70459" />
    <linearGradient
       inkscape:collect="always"
       xlink:href="#linearGradient3758"
       id="linearGradient3796"
       gradientUnits="userSpaceOnUse"
       x1="533.30109"
       y1="984.77081"
       x2="612.25269"
       y2="840.70459" />
    <linearGradient
       inkscape:collect="always"
       xlink:href="#linearGradient3766"
       id="linearGradient3798"
       gradientUnits="userSpaceOnUse"
       x1="331.50677"
       y1="874.33984"
       x2="398.21869"
       y2="939.88098" />
    <linearGradient
       inkscape:collect="always"
       xlink:href="#linearGradient3766"
       id="linearGradient3800"
       gradientUnits="userSpaceOnUse"
       x1="331.50677"
       y1="874.33984"
       x2="398.21869"
       y2="939.88098" />
    <linearGradient
       inkscape:collect="always"
       xlink:href="#linearGradient3766"
       id="linearGradient3802"
       gradientUnits="userSpaceOnUse"
       x1="331.50677"
       y1="874.33984"
       x2="398.21869"
       y2="939.88098" />
    <linearGradient
       inkscape:collect="always"
       xlink:href="#linearGradient3766"
       id="linearGradient3804"
       gradientUnits="userSpaceOnUse"
       x1="331.50677"
       y1="874.33984"
       x2="398.21869"
       y2="939.88098" />
    <linearGradient
       inkscape:collect="always"
       xlink:href="#linearGradient3766"
       id="linearGradient3806"
       gradientUnits="userSpaceOnUse"
       x1="331.50677"
       y1="874.33984"
       x2="398.21869"
       y2="939.88098" />
    <linearGradient
       inkscape:collect="always"
       xlink:href="#linearGradient3766"
       id="linearGradient3808"
       gradientUnits="userSpaceOnUse"
       x1="331.50677"
       y1="874.33984"
       x2="398.21869"
       y2="939.88098" />
    <linearGradient
       inkscape:collect="always"
       xlink:href="#linearGradient3766"
       id="linearGradient3810"
       gradientUnits="userSpaceOnUse"
       x1="331.50677"
       y1="874.33984"
       x2="398.21869"
       y2="939.88098" />
    <linearGradient
       inkscape:collect="always"
       xlink:href="#linearGradient3766"
       id="linearGradient3812"
       gradientUnits="userSpaceOnUse"
       x1="331.50677"
       y1="874.33984"
       x2="398.21869"
       y2="939.88098" />
    <linearGradient
       inkscape:collect="always"
       xlink:href="#linearGradient3766"
       id="linearGradient3814"
       gradientUnits="userSpaceOnUse"
       x1="331.50677"
       y1="874.33984"
       x2="398.21869"
       y2="939.88098" />
    <linearGradient
       inkscape:collect="always"
       xlink:href="#linearGradient3766"
       id="linearGradient3816"
       gradientUnits="userSpaceOnUse"
       x1="331.50677"
       y1="874.33984"
       x2="398.21869"
       y2="939.88098" />
  </defs>
  <sodipodi:namedview
     id="base"
     pagecolor="#ffffff"
     bordercolor="#666666"
     borderopacity="1.0"
     inkscape:pageopacity="0.0"
     inkscape:pageshadow="2"
     inkscape:zoom="0.35"
     inkscape:cx="54.189492"
     inkscape:cy="520"
     inkscape:document-units="px"
     inkscape:current-layer="layer1"
     showgrid="false"
     inkscape:window-width="1440"
     inkscape:window-height="851"
     inkscape:window-x="0"
     inkscape:window-y="25"
     inkscape:window-maximized="1" />
  <metadata
     id="metadata3124">
    <rdf:RDF>
      <cc:Work
         rdf:about="">
        <dc:format>image/svg+xml</dc:format>
        <dc:type
           rdf:resource="http://purl.org/dc/dcmitype/StillImage" />
        <dc:title />
      </cc:Work>
    </rdf:RDF>
  </metadata>
  <g
     inkscape:label="Layer 1"
     inkscape:groupmode="layer"
     id="layer1"
     transform="translate(0,-308.27218)">
    <g
       transform="matrix(5.9464831,0,0,5.5199043,-2997.5045,-4390.6059)"
       style="font-size:12px;font-style:normal;font-variant:normal;font-weight:normal;font-stretch:normal;text-align:start;line-height:125%;letter-spacing:0px;word-spacing:0px;writing-mode:lr-tb;text-anchor:start;fill:url(#linearGradient3796);fill-opacity:1;stroke:#110b02;stroke-width:0.3144398;stroke-miterlimit:4;stroke-opacity:1;font-family:DejaVu Serif;-inkscape-font-specification:DejaVu Serif"
       id="flowRoot4241">
      <path
         d="m 515.28125,853.43032 81.70312,0 7.73438,25.66406 -5.48438,0 -5.13281,-15.96094 c -0.5157,-1.59365 -1.50008,-2.74209 -2.95312,-3.44531 -1.40633,-0.70303 -3.7032,-1.05459 -6.89063,-1.05469 l -48.51562,0 56.88281,58.5 0,2.60156 -58.00781,51.67969 62.22656,0 c 2.95304,-0.0469 4.85147,-0.37501 5.69531,-0.98437 0.84366,-0.56252 1.52335,-1.71095 2.03906,-3.44532 l 5.0625,-16.17187 5.48438,0 -10.40625,33.82031 -89.4375,0 0,-2.88281 64.6875,-57.30469 -64.6875,-67.21875 0,-3.79687"
         style="font-size:144px;line-height:125%;fill:url(#linearGradient3794);stroke:#110b02;font-family:DejaVu Serif;-inkscape-font-specification:DejaVu Serif"
         id="path3792"
         inkscape:connector-curvature="0" />
    </g>
    <g
       transform="matrix(4.98838,0,0,7.3820829,-1361.4238,-5897.7846)"
       style="font-size:12px;font-style:normal;font-variant:normal;font-weight:normal;font-stretch:normal;text-align:start;line-height:125%;letter-spacing:0px;word-spacing:0px;writing-mode:lr-tb;text-anchor:start;fill:url(#linearGradient3814);fill-opacity:1;stroke:url(#linearGradient3816);stroke-width:0.29686853;stroke-miterlimit:4;stroke-opacity:1;font-family:Sans;-inkscape-font-specification:Sans"
       id="flowRoot4223">
      <path
         d="m 291.41406,875.74954 22.32227,0 0,6.25195 -14.05078,0 0,5.97266 13.21289,0 0,6.25195 -13.21289,0 0,7.34766 14.52343,0 0,6.25195 -22.79492,0 0,-32.07617"
         style="font-size:44px;font-weight:bold;line-height:125%;fill:url(#linearGradient3798);stroke:url(#linearGradient3800);font-family:Sans;-inkscape-font-specification:Sans Bold"
         id="path3783"
         inkscape:connector-curvature="0" />
      <path
         d="m 337.51953,887.28665 0,-12.89062 7.73438,0 0,33.42968 -7.73438,0 0,-3.48047 c -1.05991,1.41798 -2.22723,2.45639 -3.50195,3.11524 -1.27476,0.65885 -2.75002,0.98828 -4.42578,0.98828 -2.96486,0 -5.39975,-1.17448 -7.30469,-3.52344 -1.90495,-2.36327 -2.85742,-5.39973 -2.85742,-9.10937 0,-3.70962 0.95247,-6.73892 2.85742,-9.08789 1.90494,-2.36326 4.33983,-3.5449 7.30469,-3.54493 1.66144,3e-5 3.12954,0.33662 4.40429,1.00977 1.28905,0.65888 2.46353,1.69013 3.52344,3.09375 m -5.07031,15.57617 c 1.64712,10e-6 2.90037,-0.60155 3.75976,-1.80469 0.87368,-1.20311 1.31053,-2.95051 1.31055,-5.24218 -2e-5,-2.29165 -0.43687,-4.03905 -1.31055,-5.24219 -0.85939,-1.20311 -2.11264,-1.80467 -3.75976,-1.80469 -1.63283,2e-5 -2.88608,0.60158 -3.75977,1.80469 -0.85938,1.20314 -1.28907,2.95054 -1.28906,5.24219 -1e-5,2.29167 0.42968,4.03907 1.28906,5.24218 0.87369,1.20314 2.12694,1.8047 3.75977,1.80469"
         style="font-size:44px;font-weight:bold;line-height:125%;fill:url(#linearGradient3802);stroke:url(#linearGradient3804);font-family:Sans;-inkscape-font-specification:Sans Bold"
         id="path3785"
         inkscape:connector-curvature="0" />
      <path
         d="m 352.6875,883.76321 7.69141,0 0,24.0625 -7.69141,0 0,-24.0625 m 0,-9.36718 7.69141,0 0,6.27343 -7.69141,0 0,-6.27343"
         style="font-size:44px;font-weight:bold;line-height:125%;fill:url(#linearGradient3806);stroke:url(#linearGradient3808);font-family:Sans;-inkscape-font-specification:Sans Bold"
         id="path3787"
         inkscape:connector-curvature="0" />
      <path
         d="m 376.21289,876.93118 0,6.83203 7.92773,0 0,5.5 -7.92773,0 0,10.20508 c -1e-5,1.1172 0.22199,1.87631 0.66602,2.27734 0.44399,0.38673 1.32485,0.58009 2.64257,0.58008 l 3.95313,0 0,5.5 -6.5957,0 c -3.03647,0 -5.19207,-0.6302 -6.4668,-1.89062 -1.26042,-1.27474 -1.89063,-3.43034 -1.89063,-6.4668 l 0,-10.20508 -3.82421,0 0,-5.5 3.82421,0 0,-6.83203 7.69141,0"
         style="font-size:44px;font-weight:bold;line-height:125%;fill:url(#linearGradient3810);stroke:url(#linearGradient3812);font-family:Sans;-inkscape-font-specification:Sans Bold"
         id="path3789"
         inkscape:connector-curvature="0" />
    </g>
  </g>
</svg>
