<?xml version="1.0" encoding="UTF-8" standalone="no"?>
<!-- Created with Inkscape (http://www.inkscape.org/) -->

<svg
   xmlns:dc="http://purl.org/dc/elements/1.1/"
   xmlns:cc="http://creativecommons.org/ns#"
   xmlns:rdf="http://www.w3.org/1999/02/22-rdf-syntax-ns#"
   xmlns:svg="http://www.w3.org/2000/svg"
   xmlns="http://www.w3.org/2000/svg"
   xmlns:sodipodi="http://sodipodi.sourceforge.net/DTD/sodipodi-0.dtd"
   xmlns:inkscape="http://www.inkscape.org/namespaces/inkscape"
   width="698.15625"
   height="697.40625"
   id="svg3137"
   version="1.1"
   inkscape:version="0.48.4 r9939"
   sodipodi:docname="inbox.svg">
  <defs
     id="defs3139" />
  <sodipodi:namedview
     id="base"
     pagecolor="#ffffff"
     bordercolor="#666666"
     borderopacity="1.0"
     inkscape:pageopacity="0.0"
     inkscape:pageshadow="2"
     inkscape:zoom="0.59105127"
     inkscape:cx="356.29724"
     inkscape:cy="221.44391"
     inkscape:document-units="px"
     inkscape:current-layer="layer1"
     showgrid="false"
     inkscape:window-width="1440"
     inkscape:window-height="824"
     inkscape:window-x="0"
     inkscape:window-y="24"
     inkscape:window-maximized="1"
     fit-margin-top="130"
     fit-margin-left="5"
     fit-margin-right="5"
     fit-margin-bottom="130" />
  <metadata
     id="metadata3142">
    <rdf:RDF>
      <cc:Work
         rdf:about="">
        <dc:format>image/svg+xml</dc:format>
        <dc:type
           rdf:resource="http://purl.org/dc/dcmitype/StillImage" />
        <dc:title />
      </cc:Work>
    </rdf:RDF>
  </metadata>
  <g
     inkscape:label="Layer 1"
     inkscape:groupmode="layer"
     id="layer1"
     transform="translate(-15.75,-50.21875)">
    <path
       inkscape:connector-curvature="0"
       id="path3773"
       style="fill:#6193cf;fill-opacity:1;stroke:#110b02;stroke-width:4;stroke-linecap:butt;stroke-linejoin:miter;stroke-miterlimit:4;stroke-opacity:1;stroke-dasharray:none"
       d="m 214.779,307.93419 397.89376,-1.42104 z m 2.25646,-122.0511 -0.24391,120.68103 z M 22.09773,485.32353 219.14612,307.78319 z m 8.038649,-2.00969 c 0,0 188.567371,-24.00306 283.363101,-24.11602 89.39937,-0.10664 267.28572,22.10638 267.28572,22.10638 0,0 -178.43465,-42.22194 -269.2954,-42.20304 -94.93536,0.0199 -281.353421,44.21268 -281.353421,44.21268 z M 576.76587,615.9519 703.37493,396.89819 701.3652,187.89277 703.37493,392.87883 z M 24.446855,353.42658 214.76611,182.20321 l 490.27902,0 -128.25865,181.92489 2.06873,251.48432 -554.408355,-2.67532 z" />
    <g
       transform="matrix(3.9789381,0,0,3.9789381,-68.009817,-96.51647)"
       style="font-size:12px;font-style:normal;font-variant:normal;font-weight:normal;font-stretch:normal;text-align:start;line-height:125%;letter-spacing:0px;word-spacing:0px;writing-mode:lr-tb;text-anchor:start;fill:#110b02;fill-opacity:1;stroke:#110b02;stroke-width:1.00529337;stroke-miterlimit:4;stroke-opacity:1;font-family:Sans;-inkscape-font-specification:Sans"
       id="flowRoot3801">
      <path
         d="m 57.5,170.45312 0,-1.375 1.90625,-0.125 c 0.229163,-0.0208 0.39583,-0.10416 0.5,-0.25 0.11458,-0.14583 0.171871,-0.29687 0.171875,-0.45312 l 0,-17.0625 c -4e-6,-0.15623 -0.0573,-0.30206 -0.171875,-0.4375 -0.10417,-0.1354 -0.270837,-0.21352 -0.5,-0.23438 l -1.90625,-0.125 0,-1.40625 8.4375,0 0,1.40625 -1.953125,0.125 c -0.218757,0.0209 -0.385424,0.099 -0.5,0.23438 -0.11459,0.13544 -0.171882,0.28127 -0.171875,0.4375 l 0,17.0625 c -7e-6,0.15625 0.05729,0.30729 0.171875,0.45312 0.114576,0.14584 0.281243,0.22917 0.5,0.25 l 1.953125,0.125 0,1.375 -8.4375,0"
         style="font-size:32px;font-weight:bold;fill:#110b02;stroke:#110b02;font-family:Abyssinica SIL;-inkscape-font-specification:Abyssinica SIL"
         id="path3758"
         inkscape:connector-curvature="0" />
      <path
         d="m 77.4375,170.45312 0,-1.25 1.34375,-0.0937 c 0.187488,-0.0208 0.343738,-0.0937 0.46875,-0.21875 0.135404,-0.12499 0.203113,-0.28645 0.203125,-0.48437 l 0,-8.32813 c -1.2e-5,-1.0104 -0.234387,-1.77602 -0.703125,-2.29687 -0.468761,-0.53124 -1.260427,-0.79686 -2.375,-0.79688 -0.614592,2e-5 -1.218758,0.0886 -1.8125,0.26563 -0.593757,0.16668 -1.161465,0.38543 -1.703125,0.65625 l 0,10.5 c -6e-6,0.19792 0.06249,0.35938 0.1875,0.48437 0.124994,0.12501 0.286452,0.19792 0.484375,0.21875 l 1.34375,0.0937 0,1.25 -7.234375,0 0,-1.25 1.5625,-0.0937 c 0.197914,-0.0208 0.359372,-0.0937 0.484375,-0.21875 0.124997,-0.12499 0.187497,-0.28645 0.1875,-0.48437 l 0,-11.10938 -2.234375,0 0,-1.04687 3.90625,-1.21875 1.3125,0 0,1.59375 c 0.44791,-0.24999 0.901035,-0.49478 1.359375,-0.73438 0.468742,-0.23956 0.932284,-0.4531 1.390625,-0.64062 0.458324,-0.18748 0.901032,-0.33332 1.328125,-0.4375 0.427073,-0.11457 0.828114,-0.17186 1.203125,-0.17188 1.395821,2e-5 2.45832,0.43231 3.1875,1.29688 0.729152,0.8646 1.093735,2.07814 1.09375,3.64062 l 0,8.82813 c -1.5e-5,0.19792 0.06248,0.35938 0.1875,0.48437 0.135401,0.12501 0.296859,0.19792 0.484375,0.21875 l 1.40625,0.0937 0,1.25 -7.0625,0"
         style="font-size:32px;font-weight:bold;fill:#110b02;stroke:#110b02;font-family:Abyssinica SIL;-inkscape-font-specification:Abyssinica SIL"
         id="path3760"
         inkscape:connector-curvature="0" />
      <path
         d="m 101.79688,162 c -2e-5,1.20834 -0.1771,2.32813 -0.53125,3.35937 -0.35419,1.02084 -0.90627,1.91147 -1.656255,2.67188 -0.739597,0.76042 -1.692721,1.35417 -2.859375,1.78125 -1.15626,0.42708 -2.536467,0.64062 -4.140625,0.64062 l -4.609375,0 0,-21.28125 -2.421875,0 0,-1.0625 4.125,-1.23437 1.28125,0 0,8.95312 c 0.187494,-0.0833 0.432285,-0.19269 0.734375,-0.32812 0.302076,-0.1354 0.645826,-0.26561 1.03125,-0.39063 0.395825,-0.12498 0.8177,-0.23435 1.265625,-0.32812 0.447907,-0.0937 0.90624,-0.14061 1.375,-0.14063 1.052072,2e-5 1.973946,0.19794 2.765625,0.59375 0.80207,0.39585 1.473944,0.93231 2.01563,1.60938 0.54165,0.6771 0.9479,1.46355 1.21875,2.35937 0.27081,0.88543 0.40623,1.81772 0.40625,2.79688 m -3.26563,0.64062 c -1.3e-5,-2.0104 -0.432305,-3.53123 -1.296875,-4.5625 -0.854178,-1.03123 -2.052093,-1.54686 -3.59375,-1.54687 -0.177092,1e-5 -0.385425,0.0156 -0.625,0.0469 -0.239591,0.0313 -0.484382,0.0729 -0.734375,0.125 -0.23959,0.0521 -0.479173,0.10939 -0.71875,0.17188 -0.229173,0.0625 -0.421881,0.11981 -0.578125,0.17187 l 0,11.875 c 0.177077,0.0104 0.359369,0.0156 0.546875,0.0156 0.156243,0.0104 0.32291,0.0156 0.5,0.0156 0.187493,1e-5 0.359368,1e-5 0.515625,0 0.947908,1e-5 1.791657,-0.10937 2.53125,-0.32812 0.739573,-0.21875 1.364572,-0.57812 1.875,-1.07813 0.510404,-0.49999 0.901029,-1.15103 1.171875,-1.95312 0.27082,-0.80208 0.406237,-1.78645 0.40625,-2.95313"
         style="font-size:32px;font-weight:bold;fill:#110b02;stroke:#110b02;font-family:Abyssinica SIL;-inkscape-font-specification:Abyssinica SIL"
         id="path3762"
         inkscape:connector-curvature="0" />
      <path
         d="m 119.25,162.76562 c -2e-5,1.13543 -0.18231,2.19793 -0.54687,3.1875 -0.35419,0.97918 -0.8646,1.83334 -1.53125,2.5625 -0.65627,0.71876 -1.45835,1.28646 -2.40625,1.70313 -0.93752,0.41667 -1.9896,0.625 -3.15625,0.625 -1.16668,0 -2.21876,-0.20313 -3.15625,-0.60938 -0.93751,-0.41666 -1.73438,-0.98437 -2.39063,-1.70312 -0.65625,-0.71875 -1.16146,-1.5677 -1.51562,-2.54688 -0.34376,-0.98957 -0.51563,-2.06249 -0.51563,-3.21875 0,-1.1354 0.17708,-2.1979 0.53125,-3.1875 0.35416,-0.98957 0.86458,-1.84894 1.53125,-2.57812 0.66666,-0.73957 1.46875,-1.31769 2.40625,-1.73438 0.94791,-0.41665 2.01562,-0.62498 3.20313,-0.625 1.18749,2e-5 2.24998,0.21356 3.1875,0.64063 0.93748,0.4271 1.72915,1.01043 2.375,1.75 0.64581,0.72918 1.1354,1.58855 1.46875,2.57812 0.34373,0.97918 0.5156,2.03126 0.51562,3.15625 m -3.32812,-0.0312 c -2e-5,-0.87499 -0.0886,-1.71353 -0.26563,-2.51562 -0.16668,-0.80207 -0.4271,-1.5104 -0.78125,-2.125 -0.35418,-0.61457 -0.79689,-1.10415 -1.32812,-1.46875 -0.53127,-0.36457 -1.15626,-0.54686 -1.875,-0.54688 -0.7396,2e-5 -1.38022,0.18231 -1.92188,0.54688 -0.54167,0.3646 -0.98959,0.85418 -1.34375,1.46875 -0.34376,0.6146 -0.59896,1.32293 -0.76562,2.125 -0.16668,0.80209 -0.25001,1.64063 -0.25,2.51562 -1e-5,0.8646 0.0833,1.69793 0.25,2.5 0.17707,0.80209 0.4427,1.51043 0.79687,2.125 0.35416,0.61459 0.79687,1.10938 1.32813,1.48438 0.53124,0.36458 1.15624,0.54688 1.875,0.54687 0.72915,1e-5 1.36457,-0.18229 1.90625,-0.54687 0.54165,-0.36458 0.98436,-0.85416 1.32812,-1.46875 0.35415,-0.61458 0.61457,-1.32291 0.78125,-2.125 0.17707,-0.80208 0.26561,-1.64062 0.26563,-2.51563"
         style="font-size:32px;font-weight:bold;fill:#110b02;stroke:#110b02;font-family:Abyssinica SIL;-inkscape-font-specification:Abyssinica SIL"
         id="path3764"
         inkscape:connector-curvature="0" />
      <path
         d="m 129.4375,170.45312 0,-1.25 1.07812,-0.125 c 0.14583,-0.0208 0.24479,-0.0937 0.29688,-0.21875 0.0625,-0.12499 0.0625,-0.24478 0,-0.35937 l -2.75,-4.09375 -3.14062,4.09375 c -0.0833,0.0937 -0.10938,0.20834 -0.0781,0.34375 0.0312,0.13542 0.11979,0.21354 0.26563,0.23437 l 1.60937,0.125 0,1.25 -6.09375,0 0,-1.25 1.82813,-0.25 4.57812,-5.95312 -4.34375,-6.4375 -1.89062,-0.28125 0,-1.25 7.03125,0 0,1.25 -1.10938,0.15625 c -0.14584,0.0208 -0.25521,0.0938 -0.32812,0.21875 -0.0625,0.12501 -0.0625,0.24481 0,0.35937 l 2.53124,3.57813 2.78125,-3.57813 c 0.0833,-0.0937 0.10416,-0.20831 0.0625,-0.34375 -0.0417,-0.1354 -0.13542,-0.21352 -0.28125,-0.23437 l -1.375,-0.15625 0,-1.25 5.75,0 0,1.25 -1.71875,0.28125 -4.29687,5.46875 4.73437,6.92187 1.73438,0.25 0,1.25 -6.875,0"
         style="font-size:32px;font-weight:bold;fill:#110b02;stroke:#110b02;font-family:Abyssinica SIL;-inkscape-font-specification:Abyssinica SIL"
         id="path3766"
         inkscape:connector-curvature="0" />
    </g>
    <path
       style="fill:#3b3b3b;fill-opacity:1;stroke:#000000;stroke-width:1px;stroke-linecap:butt;stroke-linejoin:miter;stroke-opacity:1"
       d="M 579.34464,611.26214 703.33722,393.20622 701.19942,188.68973 577.20684,366.12738 z"
       id="path3755"
       inkscape:connector-curvature="0" />
  </g>
</svg>
