<?xml version="1.0" encoding="UTF-8" standalone="no"?>
<!-- Created with Inkscape (http://www.inkscape.org/) -->

<svg
   xmlns:dc="http://purl.org/dc/elements/1.1/"
   xmlns:cc="http://creativecommons.org/ns#"
   xmlns:rdf="http://www.w3.org/1999/02/22-rdf-syntax-ns#"
   xmlns:svg="http://www.w3.org/2000/svg"
   xmlns="http://www.w3.org/2000/svg"
   xmlns:xlink="http://www.w3.org/1999/xlink"
   xmlns:sodipodi="http://sodipodi.sourceforge.net/DTD/sodipodi-0.dtd"
   xmlns:inkscape="http://www.inkscape.org/namespaces/inkscape"
   width="628.34375"
   height="628.03882"
   id="svg3674"
   version="1.1"
   inkscape:version="0.48.4 r9939"
   sodipodi:docname="not_spam.svg">
  <defs
     id="defs3676">
    <linearGradient
       id="linearGradient3769">
      <stop
         style="stop-color:#6193cf;stop-opacity:1;"
         offset="0"
         id="stop3771" />
      <stop
         style="stop-color:#e3dd00;stop-opacity:1;"
         offset="1"
         id="stop3773" />
    </linearGradient>
    <linearGradient
       id="linearGradient3753">
      <stop
         style="stop-color:#110b02;stop-opacity:1;"
         offset="0"
         id="stop3755" />
      <stop
         style="stop-color:#3b3b3b;stop-opacity:1;"
         offset="1"
         id="stop3757" />
    </linearGradient>
    <linearGradient
       inkscape:collect="always"
       xlink:href="#linearGradient3753"
       id="linearGradient3759"
       x1="48.463455"
       y1="664.45599"
       x2="648.66302"
       y2="418.68488"
       gradientUnits="userSpaceOnUse" />
    <linearGradient
       inkscape:collect="always"
       xlink:href="#linearGradient3753"
       id="linearGradient3767"
       x1="414.41071"
       y1="467.15067"
       x2="794.72095"
       y2="-28.833227"
       gradientUnits="userSpaceOnUse" />
    <linearGradient
       inkscape:collect="always"
       xlink:href="#linearGradient3769"
       id="linearGradient3775"
       x1="182.66866"
       y1="462.24094"
       x2="182.25426"
       y2="606.37366"
       gradientUnits="userSpaceOnUse" />
  </defs>
  <sodipodi:namedview
     id="base"
     pagecolor="#ffffff"
     bordercolor="#666666"
     borderopacity="1.0"
     inkscape:pageopacity="0.0"
     inkscape:pageshadow="2"
     inkscape:zoom="0.60625516"
     inkscape:cx="55.596419"
     inkscape:cy="317.03766"
     inkscape:document-units="px"
     inkscape:current-layer="layer1"
     showgrid="false"
     inkscape:window-width="1440"
     inkscape:window-height="824"
     inkscape:window-x="0"
     inkscape:window-y="24"
     inkscape:window-maximized="1"
     fit-margin-top="5"
     fit-margin-left="5"
     fit-margin-right="5"
     fit-margin-bottom="5" />
  <metadata
     id="metadata3679">
    <rdf:RDF>
      <cc:Work
         rdf:about="">
        <dc:format>image/svg+xml</dc:format>
        <dc:type
           rdf:resource="http://purl.org/dc/dcmitype/StillImage" />
        <dc:title />
      </cc:Work>
    </rdf:RDF>
  </metadata>
  <g
     inkscape:label="Layer 1"
     inkscape:groupmode="layer"
     id="layer1"
     transform="translate(-26.96875,-215.17995)">
    <rect
       style="fill:url(#linearGradient3775);fill-opacity:1;stroke:#110b02;stroke-width:3.00022984;stroke-linejoin:round;stroke-miterlimit:4;stroke-opacity:1;stroke-dasharray:none"
       id="rect3965-68"
       width="429.16489"
       height="265.39612"
       x="-127.12105"
       y="474.22681"
       ry="36.249237"
       transform="matrix(0.92293859,-0.38494721,0.40104646,0.91605771,0,0)" />
    <path
       style="fill:url(#linearGradient3759);fill-opacity:1;stroke:#110b02;stroke-width:2;stroke-miterlimit:4;stroke-opacity:1;stroke-dasharray:none"
       d="m 337.15625,221.1875 c -168.36208,2.13157 -304.1875,139.21166 -304.1875,308 0,170.11738 137.95852,308.03125 308.15625,308.03125 170.19773,0 308.1875,-137.91387 308.1875,-308.03125 0,-170.11738 -137.98977,-308 -308.1875,-308 -1.32967,0 -2.64306,-0.0168 -3.96875,0 z m -10.9375,50.09375 c 56.53331,-0.50663 114.23335,17.06399 163.71875,53.9375 L 184.1875,735.5625 C 66.88878,648.15861 40.2208,485.43999 124.65625,372.125 173.47049,306.61477 248.74717,271.97552 326.21875,271.28125 z m 165.96875,54.6875 c 117.26432,87.45003 143.85503,250.187 59.375,363.46875 C 467.08247,802.71925 303.51432,823.66878 186.25,736.21875 l 152.96875,-205.125 152.96875,-205.125 z"
       id="path3794"
       inkscape:connector-curvature="0" />
    <g
       transform="matrix(0.92522808,-0.37941139,0.37941139,0.92522808,-104.35475,302.1889)"
       style="font-size:40px;font-style:normal;font-weight:normal;line-height:125%;letter-spacing:0px;word-spacing:0px;fill:#ffffff;fill-opacity:1;stroke:#110b02;stroke-width:3;stroke-miterlimit:4;stroke-opacity:1;font-family:Sans"
       id="flowRoot3777">
      <path
         d="m 192.53125,318.68813 0,13.85156 c -5.3907,-2.57803 -10.47663,-4.49991 -15.25781,-5.76562 -4.78131,-1.26553 -9.39849,-1.89835 -13.85157,-1.89844 -7.73441,9e-5 -13.71097,1.50009 -17.92968,4.5 -4.1719,3.00009 -6.25784,7.26571 -6.25782,12.79687 -2e-5,4.6407 1.38279,8.15632 4.14844,10.54688 2.81247,2.34381 8.10934,4.24225 15.89063,5.69531 l 8.57812,1.75781 c 10.59369,2.01569 18.39837,5.57818 23.41406,10.6875 5.06242,5.06255 7.59367,11.85942 7.59375,20.39063 -8e-5,10.17189 -3.42195,17.88282 -10.26562,23.13281 -6.79694,5.25 -16.78131,7.875 -29.95313,7.875 -4.96878,0 -10.26565,-0.5625 -15.89062,-1.6875 -5.57815,-1.125 -11.3672,-2.78906 -17.36719,-4.99219 l 0,-14.625 c 5.76561,3.2344 11.41404,5.67189 16.94531,7.3125 5.53122,1.64064 10.96872,2.46095 16.3125,2.46094 8.10933,10e-6 14.36713,-1.59374 18.77344,-4.78125 4.40619,-3.18748 6.60931,-7.73435 6.60938,-13.64062 -7e-5,-5.15622 -1.59382,-9.18747 -4.78125,-12.09375 -3.14069,-2.90621 -8.32037,-5.0859 -15.53907,-6.53907 l -8.64843,-1.6875 c -10.59378,-2.10932 -18.25784,-5.414 -22.99219,-9.91406 -4.73439,-4.49994 -7.10157,-10.75774 -7.10156,-18.77344 -10e-6,-9.28116 3.2578,-16.59365 9.77343,-21.9375 6.56248,-5.34364 15.58591,-8.01551 27.07032,-8.01562 4.92182,1.1e-4 9.93744,0.44542 15.04687,1.33594 5.10931,0.89073 10.33587,2.22666 15.67969,4.00781"
         style="font-size:144px;fill:#ffffff;stroke:#110b02"
         id="path3786" />
      <path
         d="m 235.21094,326.91469 0,39.44531 17.85937,0 c 6.60932,6e-5 11.71869,-1.71088 15.32813,-5.13281 3.60931,-3.42181 5.41399,-8.29681 5.41406,-14.625 -7e-5,-6.28117 -1.80475,-11.13273 -5.41406,-14.55469 -3.60944,-3.42178 -8.71881,-5.13272 -15.32813,-5.13281 l -17.85937,0 m -14.20313,-11.67187 32.0625,0 c 11.76557,1e-4 20.64837,2.67197 26.64844,8.01562 6.0468,5.29697 9.07023,13.07821 9.07031,23.34375 -8e-5,10.35944 -3.02351,18.18756 -9.07031,23.48438 -6.00007,5.29692 -14.88287,7.94535 -26.64844,7.94531 l -17.85937,0 0,42.1875 -14.20313,0 0,-104.97656"
         style="font-size:144px;fill:#ffffff;stroke:#110b02"
         id="path3788" />
      <path
         d="m 333.71875,329.235 -19.26563,52.24219 38.60157,0 -19.33594,-52.24219 m -8.01563,-13.99218 16.10157,0 40.00781,104.97656 -14.76563,0 -9.5625,-26.92969 -47.32031,0 -9.5625,26.92969 -14.97656,0 40.07812,-104.97656"
         style="font-size:144px;fill:#ffffff;stroke:#110b02"
         id="path3790" />
      <path
         d="m 397.07031,315.24282 21.16406,0 26.78907,71.4375 26.92968,-71.4375 21.16407,0 0,104.97656 -13.85157,0 0,-92.17969 -27.07031,72 -14.27344,0 -27.07031,-72 0,92.17969 -13.78125,0 0,-104.97656"
         style="font-size:144px;fill:#ffffff;stroke:#110b02"
         id="path3792" />
    </g>
    <rect
       style="fill:url(#linearGradient3767);fill-opacity:1;stroke:none"
       id="rect3820"
       width="28.973652"
       height="513.69525"
       x="578.31909"
       y="-42.182037"
       ry="0"
       transform="matrix(0.79354409,0.60851276,-0.60851276,0.79354409,0,0)" />
  </g>
</svg>
