<?xml version="1.0" encoding="UTF-8" standalone="no"?>
<!-- Created with Inkscape (http://www.inkscape.org/) -->

<svg
   xmlns:dc="http://purl.org/dc/elements/1.1/"
   xmlns:cc="http://creativecommons.org/ns#"
   xmlns:rdf="http://www.w3.org/1999/02/22-rdf-syntax-ns#"
   xmlns:svg="http://www.w3.org/2000/svg"
   xmlns="http://www.w3.org/2000/svg"
   xmlns:sodipodi="http://sodipodi.sourceforge.net/DTD/sodipodi-0.dtd"
   xmlns:inkscape="http://www.inkscape.org/namespaces/inkscape"
   width="713.96783"
   height="708.55676"
   id="svg3194"
   version="1.1"
   inkscape:version="0.48.4 r9939"
   sodipodi:docname="outbox.svg">
  <defs
     id="defs3196" />
  <sodipodi:namedview
     id="base"
     pagecolor="#ffffff"
     bordercolor="#666666"
     borderopacity="1.0"
     inkscape:pageopacity="0.0"
     inkscape:pageshadow="2"
     inkscape:zoom="0.59105127"
     inkscape:cx="363.30341"
     inkscape:cy="264.061"
     inkscape:document-units="px"
     inkscape:current-layer="layer1"
     showgrid="false"
     inkscape:window-width="1440"
     inkscape:window-height="824"
     inkscape:window-x="0"
     inkscape:window-y="24"
     inkscape:window-maximized="1"
     fit-margin-top="130"
     fit-margin-left="5"
     fit-margin-right="5"
     fit-margin-bottom="130" />
  <metadata
     id="metadata3199">
    <rdf:RDF>
      <cc:Work
         rdf:about="">
        <dc:format>image/svg+xml</dc:format>
        <dc:type
           rdf:resource="http://purl.org/dc/dcmitype/StillImage" />
        <dc:title />
      </cc:Work>
    </rdf:RDF>
  </metadata>
  <g
     inkscape:label="Layer 1"
     inkscape:groupmode="layer"
     id="layer1"
     transform="translate(-8.7438315,-81.685302)">
    <path
       inkscape:connector-curvature="0"
       id="path3773-5"
       style="fill:#110b02;fill-opacity:1;stroke:#ffffff;stroke-width:4;stroke-linecap:round;stroke-linejoin:round;stroke-miterlimit:4;stroke-opacity:1;stroke-dasharray:none"
       d="m 213.20862,342.55018 407.82355,-1.4565 z m 2.31276,-125.097 -0.24999,123.6927 z M 15.718812,524.36639 217.68473,342.39541 z m 8.23926,-2.05984 c 0,0 193.273238,-24.60208 290.434638,-24.71786 91.63045,-0.1093 273.95611,22.65807 273.95611,22.65807 0,0 -182.88764,-43.27563 -276.0159,-43.25626 -97.30455,0.0204 -288.374848,45.31605 -288.374848,45.31605 z M 584.22919,658.25471 713.99788,433.73432 711.93801,219.51298 713.99788,429.61465 z M 18.126521,389.17784 213.1954,213.68143 l 502.51436,0 -131.45945,186.46499 2.12036,257.76034 -568.244149,-2.74209 z" />
    <g
       transform="matrix(4.0782361,0,0,4.0782361,-1063.5549,-75.208458)"
       style="font-size:12px;font-style:normal;font-variant:normal;font-weight:normal;font-stretch:normal;text-align:start;line-height:125%;letter-spacing:0px;word-spacing:0px;writing-mode:lr-tb;text-anchor:start;fill:#dbe1e4;fill-opacity:1;stroke:#dbe1e4;stroke-width:0.73561215;stroke-miterlimit:4;stroke-opacity:1;font-family:Sans;-inkscape-font-specification:Sans"
       id="flowRoot3809">
      <path
         d="m 310.54687,161.54687 c -2e-5,1.5521 -0.25002,3.01043 -0.75,4.375 -0.50002,1.36459 -1.20835,2.5573 -2.125,3.57813 -0.90626,1.01042 -2.00001,1.8125 -3.28125,2.40625 -1.28126,0.58333 -2.70313,0.875 -4.26562,0.875 -1.57293,0 -3.00522,-0.28125 -4.29688,-0.84375 -1.28125,-0.57292 -2.38021,-1.36458 -3.29687,-2.375 -0.91667,-1.01041 -1.625,-2.19791 -2.125,-3.5625 -0.5,-1.37499 -0.75,-2.86978 -0.75,-4.48438 0,-1.56248 0.24479,-3.02602 0.73437,-4.39062 0.48959,-1.36457 1.1875,-2.55207 2.09375,-3.5625 0.90625,-1.02081 2,-1.8229 3.28125,-2.40625 1.29166,-0.58331 2.73437,-0.87498 4.32813,-0.875 1.58332,2e-5 3.01561,0.2969 4.29687,0.89062 1.29165,0.59378 2.39061,1.40107 3.29688,2.42188 0.91665,1.02085 1.61977,2.21356 2.10937,3.57812 0.49998,1.3646 0.74998,2.82293 0.75,4.375 m -3.70312,0.0312 c -2e-5,-1.30207 -0.14064,-2.52602 -0.42188,-3.67187 -0.28126,-1.15623 -0.70314,-2.16144 -1.26562,-3.01563 -0.56252,-0.86456 -1.26564,-1.54164 -2.10938,-2.03125 -0.83334,-0.49998 -1.8073,-0.74997 -2.92187,-0.75 -1.15626,3e-5 -2.16147,0.25002 -3.01563,0.75 -0.85417,0.50002 -1.5625,1.18231 -2.125,2.04688 -0.5625,0.85418 -0.97917,1.85418 -1.25,3 -0.27083,1.13543 -0.40625,2.33855 -0.40625,3.60937 0,1.28126 0.13542,2.50001 0.40625,3.65625 0.28125,1.14584 0.69792,2.15105 1.25,3.01563 0.5625,0.86459 1.26041,1.55209 2.09375,2.0625 0.84375,0.51042 1.83333,0.76563 2.96875,0.76562 1.15624,1e-5 2.15624,-0.2552 3,-0.76562 0.85416,-0.51041 1.56249,-1.19271 2.125,-2.04688 0.56249,-0.86457 0.97915,-1.86457 1.25,-3 0.28124,-1.14582 0.42186,-2.35415 0.42188,-3.625"
         style="font-size:32px;font-weight:bold;fill:#dbe1e4;stroke:#dbe1e4;font-family:Abyssinica SIL;-inkscape-font-specification:Abyssinica SIL"
         id="path3758"
         inkscape:connector-curvature="0" />
      <path
         d="m 324.23437,172.26562 0,-1.82812 c -0.27084,0.20833 -0.60417,0.44271 -1,0.70312 -0.38542,0.26042 -0.8073,0.50521 -1.26562,0.73438 -0.44793,0.21875 -0.92188,0.40104 -1.42188,0.54687 -0.48959,0.15625 -0.96875,0.23438 -1.4375,0.23438 -0.6875,0 -1.30729,-0.10417 -1.85937,-0.3125 -0.54167,-0.19792 -1.00521,-0.50521 -1.39063,-0.92188 -0.375,-0.42708 -0.66667,-0.96353 -0.875,-1.60937 -0.19791,-0.65625 -0.29687,-1.4375 -0.29687,-2.34375 l 0,-8.67188 -2.23438,0 0,-1.09375 3.9375,-1.25 1.28125,0 0,10.40625 c 0,0.56251 0.0521,1.06772 0.15625,1.51563 0.11458,0.44792 0.29167,0.82813 0.53125,1.14062 0.25,0.31251 0.57291,0.55209 0.96875,0.71875 0.39583,0.15626 0.875,0.23438 1.4375,0.23438 0.32291,0 0.65104,-0.0312 0.98438,-0.0937 0.33332,-0.0625 0.65103,-0.14062 0.95312,-0.23438 0.30208,-0.10416 0.58333,-0.20833 0.84375,-0.3125 0.27083,-0.11458 0.49999,-0.21874 0.6875,-0.3125 l 0,-10.71875 -2.25,0 0,-1.09375 3.90625,-1.25 1.3125,0 0,13.76563 c -1e-5,0.19792 0.0677,0.35938 0.20313,0.48437 0.14582,0.12501 0.31248,0.19792 0.5,0.21875 l 1.40625,0.0937 0,1.25 -5.07813,0"
         style="font-size:32px;font-weight:bold;fill:#dbe1e4;stroke:#dbe1e4;font-family:Abyssinica SIL;-inkscape-font-specification:Abyssinica SIL"
         id="path3760"
         inkscape:connector-curvature="0" />
      <path
         d="m 340.5625,171.59375 c -0.39584,0.19792 -0.82813,0.375 -1.29688,0.53125 -0.39584,0.13542 -0.85417,0.25521 -1.375,0.35937 -0.52084,0.11459 -1.06771,0.17188 -1.64062,0.17188 -1.20834,0 -2.08334,-0.28125 -2.625,-0.84375 -0.54167,-0.5625 -0.8125,-1.47916 -0.8125,-2.75 l 0,-10.625 -2.04688,0 0,-1.04688 2.1875,-1.03125 1.4375,-3.39062 1.40625,0 0,3.875 4.51563,0 0,1.59375 -4.51563,0 0,8.9375 c 0,0.63542 0.0521,1.17709 0.15625,1.625 0.11458,0.4375 0.27604,0.79688 0.48438,1.07812 0.21874,0.27084 0.48437,0.46876 0.79687,0.59375 0.32291,0.12501 0.69791,0.18751 1.125,0.1875 0.3125,10e-6 0.59895,-0.026 0.85938,-0.0781 0.27082,-0.0521 0.5052,-0.11458 0.70312,-0.1875 0.22916,-0.0833 0.4427,-0.17708 0.64063,-0.28125 l 0,1.28125"
         style="font-size:32px;font-weight:bold;fill:#dbe1e4;stroke:#dbe1e4;font-family:Abyssinica SIL;-inkscape-font-specification:Abyssinica SIL"
         id="path3762"
         inkscape:connector-curvature="0" />
      <path
         d="m 357.51562,163.8125 c -1e-5,1.20834 -0.17709,2.32813 -0.53125,3.35937 -0.35418,1.02084 -0.90626,1.91147 -1.65625,2.67188 -0.73959,0.76042 -1.69272,1.35417 -2.85937,1.78125 -1.15626,0.42708 -2.53647,0.64062 -4.14063,0.64062 l -4.60937,0 0,-21.28125 -2.42188,0 0,-1.0625 4.125,-1.23437 1.28125,0 0,8.95312 c 0.1875,-0.0833 0.43229,-0.19269 0.73438,-0.32812 0.30208,-0.1354 0.64583,-0.26561 1.03125,-0.39063 0.39583,-0.12498 0.8177,-0.23435 1.26562,-0.32812 0.44791,-0.0937 0.90625,-0.14061 1.375,-0.14063 1.05208,2e-5 1.97395,0.19794 2.76563,0.59375 0.80207,0.39585 1.47394,0.93231 2.01562,1.60938 0.54166,0.6771 0.94791,1.46355 1.21875,2.35937 0.27082,0.88543 0.40624,1.81772 0.40625,2.79688 m -3.26562,0.64062 c -10e-6,-2.0104 -0.4323,-3.53123 -1.29688,-4.5625 -0.85417,-1.03123 -2.05209,-1.54686 -3.59375,-1.54687 -0.17709,1e-5 -0.38542,0.0156 -0.625,0.0469 -0.23959,0.0313 -0.48438,0.0729 -0.73437,0.125 -0.23959,0.0521 -0.47917,0.10939 -0.71875,0.17188 -0.22917,0.0625 -0.42188,0.11981 -0.57813,0.17187 l 0,11.875 c 0.17708,0.0104 0.35937,0.0156 0.54688,0.0156 0.15624,0.0104 0.32291,0.0156 0.5,0.0156 0.18749,1e-5 0.35937,1e-5 0.51562,0 0.94791,1e-5 1.79166,-0.10937 2.53125,-0.32812 0.73958,-0.21875 1.36458,-0.57812 1.875,-1.07813 0.51041,-0.49999 0.90103,-1.15103 1.17188,-1.95312 0.27082,-0.80208 0.40624,-1.78645 0.40625,-2.95313"
         style="font-size:32px;font-weight:bold;fill:#dbe1e4;stroke:#dbe1e4;font-family:Abyssinica SIL;-inkscape-font-specification:Abyssinica SIL"
         id="path3764"
         inkscape:connector-curvature="0" />
      <path
         d="m 374.96875,164.57812 c -2e-5,1.13543 -0.18231,2.19793 -0.54688,3.1875 -0.35418,0.97918 -0.86459,1.83334 -1.53125,2.5625 -0.65626,0.71876 -1.45834,1.28646 -2.40625,1.70313 -0.93751,0.41667 -1.98959,0.625 -3.15625,0.625 -1.16667,0 -2.21875,-0.20313 -3.15625,-0.60938 -0.9375,-0.41666 -1.73437,-0.98437 -2.39062,-1.70312 -0.65625,-0.71875 -1.16146,-1.5677 -1.51563,-2.54688 -0.34375,-0.98957 -0.51562,-2.06249 -0.51562,-3.21875 0,-1.1354 0.17708,-2.1979 0.53125,-3.1875 0.35416,-0.98957 0.86458,-1.84894 1.53125,-2.57812 0.66666,-0.73957 1.46875,-1.31769 2.40625,-1.73438 0.94791,-0.41665 2.01562,-0.62498 3.20312,-0.625 1.1875,2e-5 2.24999,0.21356 3.1875,0.64063 0.93749,0.4271 1.72916,1.01043 2.375,1.75 0.64582,0.72918 1.13541,1.58855 1.46875,2.57812 0.34374,0.97918 0.51561,2.03126 0.51563,3.15625 m -3.32813,-0.0312 c -1e-5,-0.87499 -0.0885,-1.71353 -0.26562,-2.51562 -0.16668,-0.80207 -0.4271,-1.5104 -0.78125,-2.125 -0.35418,-0.61457 -0.79689,-1.10415 -1.32813,-1.46875 -0.53126,-0.36457 -1.15625,-0.54686 -1.875,-0.54688 -0.73959,2e-5 -1.38021,0.18231 -1.92187,0.54688 -0.54167,0.3646 -0.98959,0.85418 -1.34375,1.46875 -0.34376,0.6146 -0.59896,1.32293 -0.76563,2.125 -0.16667,0.80209 -0.25,1.64063 -0.25,2.51562 0,0.8646 0.0833,1.69793 0.25,2.5 0.17708,0.80209 0.44271,1.51043 0.79688,2.125 0.35416,0.61459 0.79687,1.10938 1.32812,1.48438 0.53125,0.36458 1.15625,0.54688 1.875,0.54687 0.72916,1e-5 1.36458,-0.18229 1.90625,-0.54687 0.54166,-0.36458 0.98437,-0.85416 1.32813,-1.46875 0.35415,-0.61458 0.61457,-1.32291 0.78125,-2.125 0.17707,-0.80208 0.26561,-1.64062 0.26562,-2.51563"
         style="font-size:32px;font-weight:bold;fill:#dbe1e4;stroke:#dbe1e4;font-family:Abyssinica SIL;-inkscape-font-specification:Abyssinica SIL"
         id="path3766"
         inkscape:connector-curvature="0" />
      <path
         d="m 385.15625,172.26562 0,-1.25 1.07812,-0.125 c 0.14583,-0.0208 0.24479,-0.0937 0.29688,-0.21875 0.0625,-0.12499 0.0625,-0.24478 0,-0.35937 l -2.75,-4.09375 -3.14063,4.09375 c -0.0833,0.0937 -0.10937,0.20834 -0.0781,0.34375 0.0312,0.13542 0.11979,0.21354 0.26562,0.23437 l 1.60938,0.125 0,1.25 -6.09375,0 0,-1.25 1.82812,-0.25 4.57813,-5.95312 -4.34375,-6.4375 -1.89063,-0.28125 0,-1.25 7.03125,0 0,1.25 -1.10937,0.15625 c -0.14584,0.0208 -0.25521,0.0938 -0.32813,0.21875 -0.0625,0.12501 -0.0625,0.24481 0,0.35937 l 2.53125,3.57813 2.78125,-3.57813 c 0.0833,-0.0937 0.10416,-0.20831 0.0625,-0.34375 -0.0417,-0.1354 -0.13542,-0.21352 -0.28125,-0.23437 l -1.375,-0.15625 0,-1.25 5.75,0 0,1.25 -1.71875,0.28125 -4.29687,5.46875 4.73437,6.92187 1.73438,0.25 0,1.25 -6.875,0"
         style="font-size:32px;font-weight:bold;fill:#dbe1e4;stroke:#dbe1e4;font-family:Abyssinica SIL;-inkscape-font-specification:Abyssinica SIL"
         id="path3768"
         inkscape:connector-curvature="0" />
    </g>
    <path
       style="fill:#3b3b3b;fill-opacity:1;stroke:#3b3b3b;stroke-width:1px;stroke-linecap:butt;stroke-linejoin:miter;stroke-opacity:1"
       d="M 586.4157,652.89844 714.94516,417.74794 713.4846,216.92064 584.95513,400.22119 z"
       id="path3755"
       inkscape:connector-curvature="0"
       sodipodi:nodetypes="ccccc" />
  </g>
</svg>
