<?xml version="1.0" encoding="UTF-8" standalone="no"?>
<!-- Created with Inkscape (http://www.inkscape.org/) -->

<svg
   xmlns:dc="http://purl.org/dc/elements/1.1/"
   xmlns:cc="http://creativecommons.org/ns#"
   xmlns:rdf="http://www.w3.org/1999/02/22-rdf-syntax-ns#"
   xmlns:svg="http://www.w3.org/2000/svg"
   xmlns="http://www.w3.org/2000/svg"
   xmlns:xlink="http://www.w3.org/1999/xlink"
   xmlns:sodipodi="http://sodipodi.sourceforge.net/DTD/sodipodi-0.dtd"
   xmlns:inkscape="http://www.inkscape.org/namespaces/inkscape"
   width="707.42969"
   height="684.38361"
   id="svg3414"
   version="1.1"
   inkscape:version="0.48.4 r9939"
   sodipodi:docname="reply_all.svg">
  <defs
     id="defs3416">
    <linearGradient
       id="linearGradient3761">
      <stop
         style="stop-color:#000080;stop-opacity:1;"
         offset="0"
         id="stop3763" />
      <stop
         id="stop3769"
         offset="0.5"
         style="stop-color:#146bd5;stop-opacity:1;" />
      <stop
         style="stop-color:#6193cf;stop-opacity:1;"
         offset="1"
         id="stop3765" />
    </linearGradient>
    <linearGradient
       inkscape:collect="always"
       xlink:href="#linearGradient3761"
       id="linearGradient3767"
       x1="10.855862"
       y1="445.79999"
       x2="706.28699"
       y2="445.79999"
       gradientUnits="userSpaceOnUse" />
    <linearGradient
       inkscape:collect="always"
       xlink:href="#linearGradient3761"
       id="linearGradient3777"
       x1="337.35803"
       y1="679.42206"
       x2="403.73572"
       y2="679.42206"
       gradientUnits="userSpaceOnUse" />
    <linearGradient
       inkscape:collect="always"
       xlink:href="#linearGradient3761"
       id="linearGradient3786"
       gradientUnits="userSpaceOnUse"
       x1="337.35803"
       y1="679.42206"
       x2="403.73572"
       y2="679.42206" />
    <linearGradient
       inkscape:collect="always"
       xlink:href="#linearGradient3761"
       id="linearGradient3788"
       gradientUnits="userSpaceOnUse"
       x1="337.35803"
       y1="679.42206"
       x2="403.73572"
       y2="679.42206" />
    <linearGradient
       inkscape:collect="always"
       xlink:href="#linearGradient3761"
       id="linearGradient3790"
       gradientUnits="userSpaceOnUse"
       x1="337.35803"
       y1="679.42206"
       x2="403.73572"
       y2="679.42206" />
    <linearGradient
       inkscape:collect="always"
       xlink:href="#linearGradient3761"
       id="linearGradient3792"
       gradientUnits="userSpaceOnUse"
       x1="337.35803"
       y1="679.42206"
       x2="403.73572"
       y2="679.42206" />
  </defs>
  <sodipodi:namedview
     id="base"
     pagecolor="#ffffff"
     bordercolor="#666666"
     borderopacity="1.0"
     inkscape:pageopacity="0.0"
     inkscape:pageshadow="2"
     inkscape:zoom="0.35"
     inkscape:cx="-615.57197"
     inkscape:cy="255.64513"
     inkscape:document-units="px"
     inkscape:current-layer="layer1"
     showgrid="false"
     inkscape:window-width="1440"
     inkscape:window-height="824"
     inkscape:window-x="0"
     inkscape:window-y="24"
     inkscape:window-maximized="1"
     fit-margin-top="140"
     fit-margin-left="5"
     fit-margin-bottom="140"
     fit-margin-right="5" />
  <metadata
     id="metadata3419">
    <rdf:RDF>
      <cc:Work
         rdf:about="">
        <dc:format>image/svg+xml</dc:format>
        <dc:type
           rdf:resource="http://purl.org/dc/dcmitype/StillImage" />
        <dc:title />
      </cc:Work>
    </rdf:RDF>
  </metadata>
  <g
     inkscape:label="Layer 1"
     inkscape:groupmode="layer"
     id="layer1"
     transform="translate(-4.8576824,-103.62373)">
    <path
       style="fill:url(#linearGradient3767);fill-opacity:1;stroke:#110b02;stroke-width:4;stroke-linecap:round;stroke-linejoin:round;stroke-miterlimit:4;stroke-opacity:1;stroke-dasharray:none"
       d="M 664.18156,572.69074 C 646.17535,548.80622 623.69762,528.18413 599.84254,510.13893 575.15055,491.46065 549.15003,472.31081 519.41884,463.6719 450.71081,443.70758 376.45563,457.40405 304.95562,454.73594 250.75235,452.71328 142.321,449.37435 142.321,449.37435 L 199.5112,549.45719 11.855862,420.77926 145.89538,245.6343 135.17225,367.16344 c 0,0 97.04655,-38.58216 148.33706,-42.89264 83.65039,-7.03004 174.42785,-7.52019 250.20711,28.5951 39.1694,18.66754 64.28803,58.5566 92.93405,91.14687 22.18216,25.23639 46.67069,49.92311 60.76457,80.4237 11.51936,24.92908 17.87196,80.42374 17.87196,80.42374 l -1.78721,41.10544 c 0,0 -22.63179,-51.14101 -39.31823,-73.27491 z"
       id="path3851-6"
       inkscape:connector-curvature="0"
       sodipodi:nodetypes="sssscccccssssccs" />
    <g
       transform="matrix(3.9787912,-0.02401357,0.02175047,3.6038232,-122.58676,-1789.6047)"
       style="font-size:12px;font-style:normal;font-variant:normal;font-weight:normal;font-stretch:normal;text-align:start;line-height:125%;letter-spacing:0px;word-spacing:0px;writing-mode:lr-tb;text-anchor:start;fill:#ffffff;fill-opacity:1;stroke:#ffffff;stroke-width:0.52815908;stroke-miterlimit:4;stroke-opacity:1;stroke-dasharray:none;font-family:Sans;-inkscape-font-specification:Sans"
       id="flowRoot3853-9">
      <path
         d="m 75.705078,605.7664 c 1.102854,10e-6 1.891264,-0.20507 2.365234,-0.61524 0.483061,-0.41014 1.834304,-0.72656 1.834317,-1.66537 -1.3e-5,-0.92968 -0.07412,-3.17192 -0.557181,-3.57298 -0.47397,-0.40102 -2.424298,-2.20019 -3.471107,-1.66093 l -2.380356,1.22623 -0.0058,6.28829 2.214844,0 m -2.214844,3.63672 0.768139,12.46371 -5.739124,-0.1785 -0.292687,-24.97271 7.73775,-2.98267 c 2.538514,-0.97851 5.129155,1.331 6.377868,2.23332 1.257795,0.90236 2.040711,3.20649 2.04073,5.15699 -1.9e-5,1.34897 -0.171257,2.8081 -0.827489,3.67398 -0.647152,0.86589 -2.108171,2.37737 -3.420655,2.78752 0.720037,0.16407 2.467528,1.77246 3.032648,2.35578 0.574202,0.57423 0.991299,1.97415 1.57465,3.14992 l 2.362801,9.12491 -4.810494,-0.17004 -2.317018,-7.35045 c -0.501314,-1.02083 -0.532445,-2.2409 -1.998075,-3.84824 -0.510428,-0.37369 -2.142049,-1.44352 -2.998809,-1.44352 l -1.490235,0"
         style="font-size:28px;font-weight:bold;line-height:125%;letter-spacing:3px;fill:#ffffff;fill-opacity:1;stroke:#ffffff;stroke-width:0.52815908;stroke-miterlimit:4;stroke-opacity:1;stroke-dasharray:none;font-family:Sans;-inkscape-font-specification:Sans Bold"
         id="path3862-7"
         inkscape:connector-curvature="0"
         sodipodi:nodetypes="ccccscccccccsccccccccccsc" />
      <path
         d="m 110.40543,604.94536 -0.006,2.94623 -14.873661,0.0622 c 0.148898,2.42568 0.684099,4.24316 1.605606,5.45248 0.921488,1.20929 2.211511,1.81051 3.870075,1.80356 1.33868,-0.006 2.70765,-0.32899 4.10693,-0.97029 1.41113,-0.66058 2.8585,-1.64868 4.34212,-2.9643 l -0.0171,7.97216 c -1.50651,0.93059 -3.0125,1.63007 -4.518,2.09849 -1.50558,0.48772 -3.01062,0.73469 -4.51516,0.74095 -3.601434,0.0143 -6.400083,-1.45605 -8.39595,-4.41322 -1.983988,-2.97644 -2.970328,-7.15093 -2.959025,-12.52349 0.01114,-5.27625 0.997187,-9.43008 2.958272,-12.46151 1.972924,-3.03143 4.677174,-4.55433 8.112763,-4.56866 3.12754,-0.0129 5.62399,1.50746 7.48936,4.56139 1.87719,3.05395 2.8104,7.14201 2.79965,12.26421 m -6.53221,-3.41001 c 0.004,-1.96414 -0.34797,-3.54167 -1.05625,-4.73264 -0.69642,-1.21023 -1.61328,-1.81297 -2.75055,-1.80826 -1.232082,0.005 -2.234335,0.57738 -3.006757,1.71671 -0.772401,1.12011 -1.255599,2.73964 -1.449596,4.85862 l 8.263143,-0.0336"
         style="font-size:28px;font-weight:bold;line-height:125%;letter-spacing:3px;fill:#ffffff;fill-opacity:1;stroke:#ffffff;stroke-width:0.52815908;stroke-miterlimit:4;stroke-opacity:1;stroke-dasharray:none;font-family:Sans;-inkscape-font-specification:Sans Bold"
         id="path3864-0"
         inkscape:connector-curvature="0" />
      <path
         d="m 119.79128,609.17812 -0.0202,13.6355 -6.0578,0.0149 0.053,-35.85116 6.05779,-0.0149 -0.006,3.80308 c 0.83702,-1.51707 1.76368,-2.63246 2.78002,-3.34616 1.01633,-0.72907 2.18443,-1.09526 3.5043,-1.09853 2.33511,-0.006 4.25097,1.26494 5.74756,3.81208 1.49658,2.53171 2.24192,5.79959 2.23602,9.80366 -0.005,4.00407 -0.76094,7.28339 -2.26505,9.83794 -1.50411,2.53912 -3.42372,3.81154 -5.75882,3.8173 -1.31988,0.004 -2.48691,-0.34943 -3.50112,-1.05808 -1.01422,-0.72409 -1.93759,-1.84264 -2.77012,-3.35564 m 4.05211,-16.82242 c -1.29731,0.004 -2.29664,0.66272 -2.99797,1.97852 -0.69006,1.30034 -1.03692,3.17954 -1.04053,5.63763 -0.005,2.4581 0.33764,4.34334 1.02384,5.65572 0.69747,1.29688 1.69486,1.94374 2.99217,1.94053 1.29727,-0.004 2.28531,-0.65494 2.96409,-1.95524 0.69003,-1.3003 1.03689,-3.18724 1.04056,-5.6608 0.005,-2.47357 -0.33765,-4.35879 -1.02383,-5.65573 -0.67495,-1.29693 -1.66106,-1.94379 -2.95833,-1.94063"
         style="font-size:28px;font-weight:bold;line-height:125%;letter-spacing:3px;fill:#ffffff;fill-opacity:1;stroke:#ffffff;stroke-width:0.52815908;stroke-miterlimit:4;stroke-opacity:1;stroke-dasharray:none;font-family:Sans;-inkscape-font-specification:Sans Bold"
         id="path3866-3"
         inkscape:connector-curvature="0" />
      <path
         d="m 138.31237,587.8386 4.18871,1.5635 0.24852,33.64378 -5.15113,0.18341 0.0777,-35.21961"
         style="font-size:28px;font-weight:bold;line-height:125%;letter-spacing:3px;fill:#ffffff;fill-opacity:1;stroke:#ffffff;stroke-width:0.52815908;stroke-miterlimit:4;stroke-opacity:1;stroke-dasharray:none;font-family:Sans;-inkscape-font-specification:Sans Bold"
         id="path3868-8"
         inkscape:connector-curvature="0"
         sodipodi:nodetypes="ccccc" />
      <path
         d="m 146.05777,590.05355 5.36135,1.75644 5.50996,16.71189 4.30744,-12.8399 5.19392,3.33332 -7.05741,13.60161 c -0.64715,1.70442 0.16329,6.76163 -1.66403,9.0077 -0.85678,0.68359 -3.54595,3.21419 -4.84215,2.59382 l -3.93788,-0.70872 -0.154,-4.09059 4.70444,0.54668 c 2.79205,0.32445 1.77735,-5.38984 1.97883,-3.20065 0.17033,-0.73256 0.24767,-0.94415 0.24096,-3.60425 l -9.64047,-23.28315"
         style="font-size:28px;font-weight:bold;line-height:125%;letter-spacing:3px;fill:#ffffff;fill-opacity:1;stroke:#ffffff;stroke-width:0.52815908;stroke-miterlimit:4;stroke-opacity:1;stroke-dasharray:none;font-family:Sans;-inkscape-font-specification:Sans Bold"
         id="path3870-3"
         inkscape:connector-curvature="0"
         sodipodi:nodetypes="cccccccsccsccc" />
    </g>
    <g
       transform="matrix(3.5384628,0,0,3.5384628,-955.01587,-1853.5512)"
       style="font-size:12px;font-style:normal;font-variant:normal;font-weight:normal;font-stretch:normal;text-align:start;line-height:125%;letter-spacing:0px;word-spacing:0px;writing-mode:lr-tb;text-anchor:start;fill:url(#linearGradient3792);fill-opacity:1;stroke:#110b02;stroke-width:1.13043439;stroke-linecap:round;stroke-linejoin:round;stroke-miterlimit:4;stroke-opacity:1;font-family:Sans;-inkscape-font-specification:Sans"
       id="flowRoot3908">
      <path
         d="m 363.04687,691.28146 -14.10937,0 -2.22656,6.375 -9.07032,0 12.96094,-34.99219 10.75781,0 12.96094,34.99219 -9.07031,0 -2.20313,-6.375 m -11.85937,-6.49219 9.58594,0 -4.78125,-13.92187 -4.80469,13.92187"
         style="font-size:48px;font-weight:bold;fill:url(#linearGradient3786);stroke:#110b02;font-family:Sans;-inkscape-font-specification:Sans Bold"
         id="path3780"
         inkscape:connector-curvature="0" />
      <path
         d="m 378.5625,661.18771 8.39062,0 0,36.46875 -8.39062,0 0,-36.46875"
         style="font-size:48px;font-weight:bold;fill:url(#linearGradient3788);stroke:#110b02;font-family:Sans;-inkscape-font-specification:Sans Bold"
         id="path3782"
         inkscape:connector-curvature="0" />
      <path
         d="m 395.0625,661.18771 8.39062,0 0,36.46875 -8.39062,0 0,-36.46875"
         style="font-size:48px;font-weight:bold;fill:url(#linearGradient3790);stroke:#110b02;font-family:Sans;-inkscape-font-specification:Sans Bold"
         id="path3784"
         inkscape:connector-curvature="0" />
    </g>
  </g>
</svg>
