<?xml version="1.0" encoding="UTF-8" standalone="no"?>
<!-- Created with Inkscape (http://www.inkscape.org/) -->

<svg
   xmlns:dc="http://purl.org/dc/elements/1.1/"
   xmlns:cc="http://creativecommons.org/ns#"
   xmlns:rdf="http://www.w3.org/1999/02/22-rdf-syntax-ns#"
   xmlns:svg="http://www.w3.org/2000/svg"
   xmlns="http://www.w3.org/2000/svg"
   xmlns:sodipodi="http://sodipodi.sourceforge.net/DTD/sodipodi-0.dtd"
   xmlns:inkscape="http://www.inkscape.org/namespaces/inkscape"
   width="682.18488"
   height="700.7879"
   id="svg3314"
   version="1.1"
   inkscape:version="0.48.4 r9939"
   sodipodi:docname="sent_mail.svg">
  <defs
     id="defs3316" />
  <sodipodi:namedview
     id="base"
     pagecolor="#ffffff"
     bordercolor="#666666"
     borderopacity="1.0"
     inkscape:pageopacity="0.0"
     inkscape:pageshadow="2"
     inkscape:zoom="0.35"
     inkscape:cx="-628.477"
     inkscape:cy="331.8547"
     inkscape:document-units="px"
     inkscape:current-layer="layer1"
     showgrid="false"
     inkscape:window-width="1440"
     inkscape:window-height="824"
     inkscape:window-x="0"
     inkscape:window-y="24"
     inkscape:window-maximized="1"
     fit-margin-top="35"
     fit-margin-left="5"
     fit-margin-right="5"
     fit-margin-bottom="35" />
  <metadata
     id="metadata3319">
    <rdf:RDF>
      <cc:Work
         rdf:about="">
        <dc:format>image/svg+xml</dc:format>
        <dc:type
           rdf:resource="http://purl.org/dc/dcmitype/StillImage" />
        <dc:title />
      </cc:Work>
    </rdf:RDF>
  </metadata>
  <g
     inkscape:label="Layer 1"
     inkscape:groupmode="layer"
     id="layer1"
     transform="translate(-17.762721,-163.42898)">
    <path
       inkscape:connector-curvature="0"
       id="path3756"
       style="font-size:56px;font-style:normal;font-variant:normal;font-weight:bold;font-stretch:normal;text-align:start;line-height:111.00000143%;letter-spacing:0px;word-spacing:0px;writing-mode:lr-tb;text-anchor:start;fill:#110b02;fill-opacity:1;stroke:#110b02;stroke-width:4;stroke-linecap:round;stroke-linejoin:round;stroke-miterlimit:4;stroke-opacity:1;font-family:Abyssinica SIL;-inkscape-font-specification:Abyssinica SIL"
       d="m 181.74389,373.31124 c -1.7e-4,8.79639 -1.74816,17.42358 -5.24398,25.88157 -3.38338,8.45805 -8.79652,16.01393 -16.23944,22.66752 -7.4432,6.65371 -16.97258,12.01044 -28.58816,16.0703 -11.61581,4.05985 -25.54336,6.08975 -41.782703,6.08981 -9.473069,-6e-5 -17.98748,-0.67667 -25.54327,-2.02996 -7.443116,-1.35328 -13.871221,-2.81935 -19.284328,-4.39819 -6.202584,-1.91712 -11.784883,-4.05986 -16.746911,-6.42809 l 0,-61.40534 21.821737,0 4.567338,39.24529 c 0.225496,1.35328 0.902152,2.81935 2.029929,4.39819 1.24047,1.57885 2.480977,2.65021 3.721533,3.21405 0.225496,0.11259 1.184081,0.62025 2.875734,1.52242 1.691561,0.78945 4.003419,1.69162 6.935592,2.70657 2.932062,0.90224 6.484433,1.74805 10.657125,2.53744 4.285336,0.78939 9.134609,1.18415 14.547827,1.18408 7.330207,7e-5 14.096627,-0.90217 20.299287,-2.70657 6.31523,-1.91712 11.72837,-4.62369 16.23943,-8.11971 4.51083,-3.49597 8.00682,-7.78132 10.48797,-12.85619 2.59366,-5.07481 3.89056,-10.82622 3.89069,-17.25438 -1.3e-4,-6.99192 -2.03005,-13.08174 -6.08979,-18.26939 -3.9472,-5.3003 -8.96563,-9.98041 -15.0553,-14.04033 -5.97712,-4.17252 -12.51799,-7.8941 -19.62264,-11.16463 -7.104837,-3.27034 -13.814877,-6.42797 -20.130135,-9.473 -7.10481,-3.38306 -13.927623,-6.87908 -20.468445,-10.48795 -6.428155,-3.60862 -12.123227,-7.78125 -17.085236,-12.51791 -4.849305,-4.73635 -8.739994,-10.26227 -11.672093,-16.57771 -2.819363,-6.42796 -4.229032,-14.04021 -4.22902,-22.83672 -1.2e-5,-10.26227 2.02991,-19.56607 6.089787,-27.91153 4.059833,-8.34502 9.642132,-15.44979 16.746917,-21.31424 7.217478,-5.97679 15.675506,-10.54412 25.374108,-13.70205 9.811252,-3.27016 20.411977,-4.90543 31.802217,-4.90561 6.54078,1.8e-4 12.68695,0.39469 18.43852,1.18408 5.86412,0.78964 11.27726,1.80465 16.23944,3.04491 5.07468,1.12798 9.75479,2.36849 14.04034,3.72152 4.39802,1.35354 8.51426,2.6504 12.34873,3.89072 l 0,53.96224 -19.79181,0 -5.24398,-33.15547 c -0.22568,-1.12754 -0.90232,-2.25527 -2.02993,-3.38325 -1.01509,-1.12748 -2.03006,-1.97329 -3.04489,-2.53737 -0.22569,-0.11259 -0.95871,-0.62007 -2.19909,-1.52249 -1.24064,-0.90192 -3.1014,-1.80415 -5.5823,-2.70657 -2.36838,-0.90192 -5.46965,-1.74773 -9.30384,-2.53737 -3.72165,-0.78921 -8.17621,-1.1839 -13.36371,-1.18415 -6.99207,2.5e-4 -13.251002,1.0152 -18.776838,3.04491 -5.52599,2.03015 -10.206095,4.90586 -14.040339,8.62719 -3.834374,3.60899 -6.822875,7.89434 -8.965521,12.85625 -2.029978,4.96221 -3.044946,10.37535 -3.04489,16.23943 -5.6e-5,5.30049 1.014912,10.1498 3.04489,14.54781 2.142646,4.28554 5.243926,8.28904 9.303839,12.01037 4.172562,3.60893 9.247382,6.99217 15.22447,10.14968 5.976929,3.15781 12.856119,6.20272 20.637609,9.13466 10.48786,3.9472 19.79169,8.06348 27.91152,12.34877 8.23235,4.28548 15.11155,9.07837 20.63761,14.37861 5.63854,5.30049 9.92394,11.27753 12.85622,17.93106 2.93195,6.54099 4.39801,14.15317 4.39818,22.83672" />
    <path
       inkscape:connector-curvature="0"
       id="path3758"
       style="font-size:56px;font-style:normal;font-variant:normal;font-weight:bold;font-stretch:normal;text-align:start;line-height:111.00000143%;letter-spacing:0px;word-spacing:0px;writing-mode:lr-tb;text-anchor:start;fill:#e3dd00;fill-opacity:1;stroke:#110b02;stroke-width:4;stroke-linecap:round;stroke-linejoin:round;stroke-miterlimit:4;stroke-opacity:1;font-family:Abyssinica SIL;-inkscape-font-specification:Abyssinica SIL"
       d="m 352.76539,421.18372 c -4.84942,3.04491 -9.92424,5.86426 -15.22446,8.45805 -5.18773,2.5938 -10.60087,4.84925 -16.23943,6.76643 -5.52604,1.91712 -11.16472,3.43961 -16.91608,4.56733 -5.75156,1.12773 -11.55941,1.69157 -17.42355,1.69163 -10.48805,-6e-5 -20.5813,-1.74805 -30.27978,-5.24401 -9.69859,-3.60874 -18.2694,-8.96553 -25.71243,-16.07029 -7.33032,-7.10471 -13.25094,-16.01381 -17.76187,-26.72738 -4.3982,-10.82623 -6.59728,-23.45692 -6.59728,-37.89201 0,-13.53273 2.02992,-25.76873 6.08979,-36.70786 4.05984,-11.05172 9.69852,-20.4683 16.91607,-28.24986 7.21749,-7.89404 15.78829,-13.92743 25.71244,-18.10019 9.92403,-4.28523 20.80669,-6.42797 32.64802,-6.4281 10.71341,1.3e-4 20.13002,1.80453 28.24984,5.41315 8.1196,3.49614 14.88601,8.40181 20.29929,14.71694 5.413,6.20272 9.47285,13.70218 12.17958,22.49839 2.70641,8.68373 4.0597,18.15673 4.05985,28.419 -1.5e-4,1.24063 -1.5e-4,2.76306 0,4.56733 -1.5e-4,1.80447 -0.1129,3.49609 -0.33833,5.07487 l -112.32273,0 c -5e-5,8.79639 0.90214,17.59278 2.70657,26.38905 1.9171,8.79639 5.07477,16.69054 9.473,23.68253 4.39811,6.99199 10.31874,12.68705 17.76188,17.08518 7.44298,4.28548 16.74682,6.42816 27.91151,6.42816 4.96195,0 9.8676,-0.62026 14.71699,-1.86076 4.84915,-1.35329 9.58565,-3.04491 14.20951,-5.07487 4.73636,-2.0299 9.24731,-4.28536 13.53286,-6.76643 4.28525,-2.59373 8.40149,-5.18753 12.34872,-7.78138 l 0,21.1451 m -34.67794,-96.42164 c -1.3e-4,-5.75135 -0.67677,-11.05172 -2.02993,-15.90109 -1.35341,-4.9619 -3.43972,-9.24732 -6.25895,-12.85625 -2.70668,-3.60862 -6.20267,-6.42791 -10.48797,-8.45799 -4.17273,-2.14255 -9.13477,-3.21392 -14.88614,-3.21404 -5.75155,1.2e-4 -11.1083,1.12785 -16.07027,3.38318 -4.96212,2.14286 -9.36029,5.30049 -13.19454,9.473 -3.72159,4.17276 -6.76648,9.24757 -9.13468,15.22448 -2.25552,5.86432 -3.60881,12.51797 -4.05986,19.96095 l 76.12234,0 0,-7.61224" />
    <path
       inkscape:connector-curvature="0"
       id="path3760"
       style="font-size:56px;font-style:normal;font-variant:normal;font-weight:bold;font-stretch:normal;text-align:start;line-height:111.00000143%;letter-spacing:0px;word-spacing:0px;writing-mode:lr-tb;text-anchor:start;fill:#110b02;fill-opacity:1;stroke:#110b02;stroke-width:4;stroke-linecap:round;stroke-linejoin:round;stroke-miterlimit:4;stroke-opacity:1;font-family:Abyssinica SIL;-inkscape-font-specification:Abyssinica SIL"
       d="m 477.60602,438.4381 0,-13.53286 14.54781,-1.01495 c 2.02984,-0.2258 3.7214,-1.01495 5.07487,-2.36823 1.46588,-1.35329 2.19891,-3.10127 2.19903,-5.24401 l 0,-90.16268 c -1.2e-4,-10.93894 -2.53749,-19.2278 -7.61218,-24.86662 -5.07499,-5.7513 -13.64576,-8.62707 -25.71243,-8.62719 -6.65377,1.2e-4 -13.19464,0.95871 -19.62267,2.87571 -6.42816,1.80452 -12.57433,4.17276 -18.43853,7.10476 l 0,113.67602 c -6e-5,2.14274 0.67661,3.89072 2.02996,5.24401 1.35322,1.35328 3.1012,2.14267 5.24394,2.36823 l 14.54787,1.01495 0,13.53286 -78.32145,0 0,-13.53286 16.91607,-1.01495 c 2.14268,-0.2258 3.89067,-1.01495 5.24399,-2.36823 1.35325,-1.35329 2.02989,-3.10127 2.02992,-5.24401 l 0,-120.27331 -24.18998,0 0,-11.33376 42.29018,-13.19452 14.2095,0 0,17.25438 c 4.84918,-2.70639 9.75485,-5.3566 14.717,-7.95052 5.07475,-2.59367 10.09314,-4.90554 15.05529,-6.93563 4.96196,-2.02977 9.75485,-3.60855 14.37867,-4.73647 4.62363,-1.24038 8.9654,-1.86063 13.02538,-1.86076 15.11158,1.3e-4 26.61448,4.68024 34.50876,14.04034 7.89404,9.36034 11.84112,22.49851 11.8413,39.41443 l 0,95.57582 c -1.8e-4,2.14274 0.67643,3.89072 2.0299,5.24401 1.46588,1.35328 3.21386,2.14267 5.244,2.36823 l 15.22449,1.01495 0,13.53286 -76.46069,0" />
    <path
       inkscape:connector-curvature="0"
       id="path3762"
       style="font-size:56px;font-style:normal;font-variant:normal;font-weight:bold;font-stretch:normal;text-align:start;line-height:111.00000143%;letter-spacing:0px;word-spacing:0px;writing-mode:lr-tb;text-anchor:start;fill:#110b02;fill-opacity:1;stroke:#110b02;stroke-width:4;stroke-linecap:round;stroke-linejoin:round;stroke-miterlimit:4;stroke-opacity:1;font-family:Abyssinica SIL;-inkscape-font-specification:Abyssinica SIL"
       d="m 676.20071,431.1642 c -4.28547,2.14273 -8.96558,4.05985 -14.04033,5.75148 -4.28548,1.46606 -9.24757,2.76293 -14.88614,3.89065 -5.63877,1.24051 -11.55939,1.86077 -17.76186,1.86083 -13.0818,-6e-5 -22.55481,-3.04491 -28.419,-9.13473 -5.86426,-6.08975 -8.79639,-16.01387 -8.79639,-29.77229 l 0,-115.0293 -22.16005,0 0,-11.33376 23.68253,-11.16463 15.56276,-36.70786 15.22448,0 0,41.95187 48.88743,0 0,17.25438 -48.88743,0 0,96.75997 c -6e-5,6.87921 0.56359,12.74347 1.69162,17.59272 1.24045,4.73653 2.98843,8.62719 5.24395,11.6721 2.36817,2.93213 5.24394,5.0748 8.62719,6.42809 3.4959,1.35329 7.55576,2.02996 12.17957,2.0299 3.38312,6e-5 6.48439,-0.2821 9.30387,-0.84575 2.932,-0.56421 5.46944,-1.24051 7.61224,-2.02996 2.48089,-0.90217 4.79276,-1.91712 6.93556,-3.04491 l 0,13.8712" />
    <path
       inkscape:connector-curvature="0"
       id="path3764"
       style="font-size:56px;font-style:normal;font-variant:normal;font-weight:bold;font-stretch:normal;text-align:start;line-height:111.00000143%;letter-spacing:0px;word-spacing:0px;writing-mode:lr-tb;text-anchor:start;fill:#110b02;fill-opacity:1;stroke:#110b02;stroke-width:4;stroke-linecap:round;stroke-linejoin:round;stroke-miterlimit:4;stroke-opacity:1;font-family:Abyssinica SIL;-inkscape-font-specification:Abyssinica SIL"
       d="m 220.14337,822.98789 0,-14.88615 18.43853,-1.35328 c 2.48079,-0.22581 4.34156,-1.12773 5.5823,-2.70658 1.35306,-1.57884 2.0297,-3.21404 2.02993,-4.90566 l 0,-190.98252 -79.67471,214.83419 -17.2544,0 -76.96813,-211.62014 0,187.76847 c -5.6e-5,1.69162 0.620198,3.32682 1.860767,4.90566 1.353224,1.57885 3.27038,2.48102 5.751468,2.70658 l 19.791802,1.35328 0,14.88615 -74.938206,0 0,-14.88615 19.791808,-1.35328 c 2.480989,-0.22581 4.285372,-1.12773 5.413143,-2.70658 1.240476,-1.57884 1.86073,-3.21404 1.860767,-4.90566 l 0,-184.72356 c -3.7e-5,-1.69138 -0.620291,-3.32658 -1.860767,-4.90567 -1.127771,-1.5786 -2.932154,-2.48077 -5.413143,-2.70657 l -19.791808,-1.35329 0,-14.88614 77.644779,0 0,9.30386 62.75864,170.17569 62.75863,-169.16074 0,-10.31881 79.67471,0 0,14.88614 -18.77684,1.35329 c -2.4813,0.2258 -4.39845,1.12797 -5.75147,2.70657 -1.24078,1.57909 -1.86103,3.21429 -1.86077,4.90567 l 0,184.72356 c -2.6e-4,1.69162 0.61999,3.32682 1.86077,4.90566 1.35302,1.57885 3.27017,2.48102 5.75147,2.70658 l 18.77684,1.35328 0,14.88615 -87.45611,0" />
    <path
       inkscape:connector-curvature="0"
       id="path3766"
       style="font-size:56px;font-style:normal;font-variant:normal;font-weight:bold;font-stretch:normal;text-align:start;line-height:111.00000143%;letter-spacing:0px;word-spacing:0px;writing-mode:lr-tb;text-anchor:start;fill:#110b02;fill-opacity:1;stroke:#110b02;stroke-width:4;stroke-linecap:round;stroke-linejoin:round;stroke-miterlimit:4;stroke-opacity:1;font-family:Abyssinica SIL;-inkscape-font-specification:Abyssinica SIL"
       d="m 437.85326,822.98789 -4.56734,-20.46849 c -6.08994,4.62375 -12.34883,8.73997 -18.77686,12.34877 -2.81943,1.57878 -5.80793,3.10127 -8.96552,4.56733 -3.15775,1.46607 -6.42818,2.76293 -9.81132,3.89066 -3.27051,1.24051 -6.65372,2.1991 -10.14964,2.87577 -3.38328,0.67662 -6.76649,1.01495 -10.14964,1.01495 -6.31539,0 -12.23601,-1.07137 -17.76188,-3.21404 -5.41318,-2.14274 -10.14967,-5.24401 -14.20951,-9.30387 -4.05987,-4.05985 -7.27392,-8.96546 -9.64216,-14.71694 -2.25549,-5.75148 -3.38322,-12.29236 -3.38321,-19.62268 -10e-6,-4.28535 0.39469,-8.34521 1.18413,-12.17957 0.90217,-3.83424 2.65017,-7.55576 5.24398,-11.16463 2.59377,-3.60868 6.20253,-7.04828 10.82628,-10.31881 4.73647,-3.38312 10.88264,-6.70995 18.43853,-9.98048 7.66856,-3.27034 16.97239,-6.48439 27.91151,-9.64213 11.05176,-3.27035 24.13349,-6.54081 39.24531,-9.81134 l 0,-14.88615 c -1.2e-4,-11.61555 -2.59391,-20.18638 -7.78138,-25.71243 -5.1877,-5.63852 -13.36382,-8.45787 -24.52833,-8.45805 -6.08987,1.8e-4 -11.27746,0.5642 -15.56279,1.69162 -4.28547,1.12791 -7.27397,2.03008 -8.96552,2.70657 l 0,30.11063 -25.20495,0 c -1.57887,1.2e-4 -3.1577,-0.11259 -4.7365,-0.3384 -1.46609,-0.22519 -2.81937,-0.67649 -4.05986,-1.35329 -1.24054,-0.78926 -2.2555,-1.80421 -3.04489,-3.0449 -0.67667,-1.35317 -1.01498,-3.10115 -1.01497,-5.24395 -10e-6,-7.10464 2.14268,-13.1944 6.42811,-18.26939 4.28538,-5.1874 9.86767,-9.47282 16.74691,-12.85619 6.87916,-3.38306 14.60416,-5.86407 23.17502,-7.4431 8.57074,-1.57866 17.14154,-2.36805 25.71244,-2.36823 10.71344,1.8e-4 19.56612,1.29705 26.55823,3.89072 7.10465,2.59391 12.68693,6.20272 16.74691,10.82628 4.17251,4.62388 7.10464,10.09338 8.79639,16.40857 1.69144,6.3155 2.53725,13.25107 2.53737,20.80677 l 0,97.09824 c -1.2e-4,2.14274 0.67649,3.89073 2.02996,5.24401 1.46588,1.35329 3.21386,2.14274 5.24395,2.36824 l 16.74696,1.01501 0,13.53286 -51.25572,0 m -4.56734,-92.53098 c -15.56288,3.9472 -27.91162,7.83786 -37.04622,11.6721 -9.13474,3.83442 -16.07033,7.72508 -20.80676,11.67209 -4.62378,3.83437 -7.61229,7.78145 -8.96553,11.84124 -1.24055,3.94714 -1.86081,8.06342 -1.86076,12.34877 -5e-5,3.60881 0.56383,7.16119 1.6916,10.65709 1.24047,3.38325 2.93208,6.42816 5.07483,9.13473 2.25542,2.70657 4.96199,4.90567 8.11971,6.59723 3.27038,1.57884 6.99191,2.36829 11.16461,2.36829 4.62365,0 9.41654,-0.84581 14.37866,-2.53743 5.07474,-1.69156 9.69846,-3.55238 13.87119,-5.58228 4.84919,-2.36824 9.64202,-5.13123 14.37867,-8.28892 l 0,-59.88291" />
    <path
       inkscape:connector-curvature="0"
       id="path3768"
       style="font-size:56px;font-style:normal;font-variant:normal;font-weight:bold;font-stretch:normal;text-align:start;line-height:111.00000143%;letter-spacing:0px;word-spacing:0px;writing-mode:lr-tb;text-anchor:start;fill:#e3dd00;fill-opacity:1;stroke:#110b02;stroke-width:4;stroke-linecap:round;stroke-linejoin:round;stroke-miterlimit:4;stroke-opacity:1;font-family:Abyssinica SIL;-inkscape-font-specification:Abyssinica SIL"
       d="m 569.9678,598.8499 c -6e-5,2.93232 -0.5642,5.75167 -1.69162,8.45799 -1.01501,2.59404 -2.48108,4.8495 -4.3982,6.76643 -1.91718,1.91737 -4.1727,3.43985 -6.76643,4.56739 -2.48107,1.12792 -5.18764,1.69181 -8.11971,1.69157 -2.93213,2.4e-4 -5.75148,-0.56359 -8.45799,-1.69157 -2.59386,-1.12754 -4.84937,-2.65002 -6.76643,-4.56739 -1.91724,-1.91693 -3.43967,-4.17239 -4.5674,-6.76643 -1.12772,-2.70632 -1.69162,-5.52567 -1.69156,-8.45799 -6e-5,-2.93188 0.56359,-5.69487 1.69156,-8.28891 1.12773,-2.59355 2.65016,-4.84901 4.5674,-6.76643 1.91706,-1.91688 4.17257,-3.38294 6.76643,-4.39814 2.70651,-1.12754 5.52586,-1.69137 8.45799,-1.69162 2.93207,2.5e-4 5.63864,0.5642 8.11971,1.69162 2.59373,1.0152 4.84925,2.48126 6.76643,4.39814 1.91712,1.91742 3.38319,4.17288 4.3982,6.76643 1.12766,2.59404 1.69156,5.35703 1.69162,8.28891 m -63.60444,224.13799 0,-13.53286 16.91605,-1.01501 c 2.14267,-0.22581 3.89065,-1.01495 5.244,-2.36824 1.35323,-1.35328 2.0299,-3.10126 2.0299,-5.244 l 0,-123.6565 -23.85161,0 0,-12.17957 42.29014,-13.19452 13.70206,0 0,149.03059 c -6e-5,2.14274 0.67655,3.89072 2.02989,5.244 1.46601,1.35329 3.21399,2.14274 5.24401,2.36824 l 17.76186,1.01501 0,13.53286 -81.3663,0" />
    <path
       inkscape:connector-curvature="0"
       id="path3770"
       style="font-size:56px;font-style:normal;font-variant:normal;font-weight:bold;font-stretch:normal;text-align:start;line-height:111.00000143%;letter-spacing:0px;word-spacing:0px;writing-mode:lr-tb;text-anchor:start;fill:#110b02;fill-opacity:1;stroke:#110b02;stroke-width:4;stroke-linecap:round;stroke-linejoin:round;stroke-miterlimit:4;stroke-opacity:1;font-family:Abyssinica SIL;-inkscape-font-specification:Abyssinica SIL"
       d="m 608.70562,822.98789 0,-13.53286 18.43846,-1.01501 c 1.57885,6e-5 3.21405,-0.78939 4.90567,-2.36824 1.80434,-1.69156 2.70658,-3.32682 2.70658,-4.90567 l 0,-208.57516 -26.38905,0 0,-11.50297 44.3201,-13.36366 14.20953,0 0,233.44179 c -6e-5,1.57885 0.78933,3.21411 2.36824,4.90567 1.6915,1.57885 3.32676,2.3683 4.90567,2.36824 l 18.7768,1.01501 0,13.53286 -84.242,0" />
  </g>
</svg>
