<?xml version="1.0" encoding="UTF-8" standalone="no"?>
<!-- Created with Inkscape (http://www.inkscape.org/) -->

<svg
   xmlns:dc="http://purl.org/dc/elements/1.1/"
   xmlns:cc="http://creativecommons.org/ns#"
   xmlns:rdf="http://www.w3.org/1999/02/22-rdf-syntax-ns#"
   xmlns:svg="http://www.w3.org/2000/svg"
   xmlns="http://www.w3.org/2000/svg"
   xmlns:sodipodi="http://sodipodi.sourceforge.net/DTD/sodipodi-0.dtd"
   xmlns:inkscape="http://www.inkscape.org/namespaces/inkscape"
   width="744.09448819"
   height="1052.3622047"
   id="svg3542"
   version="1.1"
   inkscape:version="0.48.4 r9939"
   sodipodi:docname="New document 24">
  <defs
     id="defs3544" />
  <sodipodi:namedview
     id="base"
     pagecolor="#ffffff"
     bordercolor="#666666"
     borderopacity="1.0"
     inkscape:pageopacity="0.0"
     inkscape:pageshadow="2"
     inkscape:zoom="0.35"
     inkscape:cx="375"
     inkscape:cy="520"
     inkscape:document-units="px"
     inkscape:current-layer="layer1"
     showgrid="false"
     inkscape:window-width="1440"
     inkscape:window-height="845"
     inkscape:window-x="-4"
     inkscape:window-y="-3"
     inkscape:window-maximized="1" />
  <metadata
     id="metadata3547">
    <rdf:RDF>
      <cc:Work
         rdf:about="">
        <dc:format>image/svg+xml</dc:format>
        <dc:type
           rdf:resource="http://purl.org/dc/dcmitype/StillImage" />
        <dc:title></dc:title>
      </cc:Work>
    </rdf:RDF>
  </metadata>
  <g
     inkscape:label="Layer 1"
     inkscape:groupmode="layer"
     id="layer1">
    <path
       sodipodi:type="arc"
       style="fill:none;stroke:#585858;stroke-width:1.2032007;stroke-linejoin:round;stroke-miterlimit:4;stroke-opacity:1;stroke-dasharray:none"
       id="path3777-1"
       sodipodi:cx="376.7869"
       sodipodi:cy="91.959648"
       sodipodi:rx="80.307129"
       sodipodi:ry="11.364216"
       d="m 299.09113,89.085221 a 80.307129,11.364216 0 1 1 -1.17791,0.736844"
       sodipodi:start="3.3973071"
       sodipodi:end="9.6140029"
       sodipodi:open="true"
       transform="matrix(4.2307073,0,0,5.5079393,-1228.2526,-104.97255)" />
    <rect
       style="fill:#fefefe;fill-opacity:1;stroke:#5d5d5d;stroke-width:1.71091676;stroke-linejoin:round;stroke-miterlimit:4;stroke-opacity:1;stroke-dasharray:none"
       id="rect3965-6"
       width="480.90445"
       height="285.60556"
       x="33.917538"
       y="276.42746"
       ry="39.009544"
       transform="matrix(0.93059583,-0.36604836,0.42106149,0.9070321,0,0)" />
    <rect
       style="fill:#fefefe;fill-opacity:1;stroke:#5d5d5d;stroke-width:1.71091676;stroke-linejoin:round;stroke-miterlimit:4;stroke-opacity:1;stroke-dasharray:none"
       id="rect3965-6-3"
       width="480.90445"
       height="285.60556"
       x="45.49033"
       y="263.4227"
       ry="39.009544"
       transform="matrix(0.93059583,-0.36604836,0.42106149,0.9070321,0,0)" />
    <path
       style="fill:#fefefe;fill-opacity:1;stroke:#000000;stroke-width:3.77153754px;stroke-linecap:butt;stroke-linejoin:miter;stroke-opacity:1"
       d="m 25.797192,401.5356 c 0,0 73.219717,193.71987 144.141408,265.14766 35.70744,35.96231 132.00376,75.43082 132.00376,75.43082 l 9.5246,231.05929 c 0,0 21.47623,28.06763 45.78528,28.19083 25.33327,0.1286 48.31169,-30.09573 48.31169,-30.09573 l 9.52455,-229.15439 c 0,0 95.51864,-40.25784 132.00386,-75.43082 72.2122,-69.61505 158.75919,-255.62311 158.75919,-255.62311 0,0 -24.80883,32.52951 -158.75919,48.18857 -58.53356,6.84269 -94.18311,7.07932 -178.4106,5.14904 -85.45839,-1.95845 -160.62692,0.34382 -255.31622,-24.00674 C 41.799485,421.98679 25.797192,401.5356 25.797192,401.5356 z"
       id="path3779-7"
       inkscape:connector-curvature="0"
       sodipodi:nodetypes="csccsccscsssc" />
  </g>
</svg>
