<?xml version="1.0" encoding="UTF-8" standalone="no"?>
<!-- Created with Inkscape (http://www.inkscape.org/) -->

<svg
   xmlns:dc="http://purl.org/dc/elements/1.1/"
   xmlns:cc="http://creativecommons.org/ns#"
   xmlns:rdf="http://www.w3.org/1999/02/22-rdf-syntax-ns#"
   xmlns:svg="http://www.w3.org/2000/svg"
   xmlns="http://www.w3.org/2000/svg"
   xmlns:sodipodi="http://sodipodi.sourceforge.net/DTD/sodipodi-0.dtd"
   xmlns:inkscape="http://www.inkscape.org/namespaces/inkscape"
   width="744.09448819"
   height="1052.3622047"
   id="svg3671"
   version="1.1"
   inkscape:version="0.48.4 r9939"
   sodipodi:docname="add_goalseek.svg">
  <defs
     id="defs3673" />
  <sodipodi:namedview
     id="base"
     pagecolor="#ffffff"
     bordercolor="#666666"
     borderopacity="1.0"
     inkscape:pageopacity="0.0"
     inkscape:pageshadow="2"
     inkscape:zoom="1.3531691"
     inkscape:cx="329.07769"
     inkscape:cy="585.55895"
     inkscape:document-units="px"
     inkscape:current-layer="layer1"
     showgrid="false"
     inkscape:window-width="1440"
     inkscape:window-height="845"
     inkscape:window-x="-2"
     inkscape:window-y="-3"
     inkscape:window-maximized="1" />
  <metadata
     id="metadata3676">
    <rdf:RDF>
      <cc:Work
         rdf:about="">
        <dc:format>image/svg+xml</dc:format>
        <dc:type
           rdf:resource="http://purl.org/dc/dcmitype/StillImage" />
        <dc:title />
      </cc:Work>
    </rdf:RDF>
  </metadata>
  <g
     inkscape:label="Layer 1"
     inkscape:groupmode="layer"
     id="layer1">
    <g
       id="g3825"
       style="stroke:#110b02;stroke-opacity:1;stroke-width:2;stroke-miterlimit:4;stroke-dasharray:none;fill:none">
      <path
         sodipodi:nodetypes="ccccccc"
         inkscape:connector-curvature="0"
         id="path4042"
         d="m 19.219705,576.48791 39.912197,-345.90559 555.978078,0.73856 23.8257,354.62655 -34.3373,-62.67578 -497.57187,0 z"
         style="fill:none;stroke:#110b02;stroke-width:2;stroke-linecap:butt;stroke-linejoin:miter;stroke-opacity:1;stroke-miterlimit:4;stroke-dasharray:none" />
      <rect
         y="269.48526"
         x="105.60712"
         height="253.3381"
         width="500.7547"
         id="rect2984"
         style="fill:none;stroke:#110b02;stroke-width:2;stroke-miterlimit:4;stroke-opacity:1;stroke-dasharray:none" />
      <path
         inkscape:connector-curvature="0"
         id="path2986"
         d="M 105.61365,270.23036 60.561671,231.08684 z"
         style="fill:none;stroke:#110b02;stroke-width:2;stroke-linecap:butt;stroke-linejoin:miter;stroke-opacity:1;stroke-miterlimit:4;stroke-dasharray:none" />
      <path
         inkscape:connector-curvature="0"
         id="path2988"
         d="m 606.35527,268.01469 2.95423,-11.07836 4.43134,-25.84949 z"
         style="fill:none;stroke:#110b02;stroke-width:2;stroke-linecap:butt;stroke-linejoin:miter;stroke-opacity:1;stroke-miterlimit:4;stroke-dasharray:none" />
    </g>
    <g
       id="g3046"
       style="fill:none;stroke:#110b02;stroke-opacity:1;stroke-width:0.7;stroke-miterlimit:4;stroke-dasharray:none">
      <path
         inkscape:connector-curvature="0"
         id="path2990"
         d="m 168.39099,358.85719 c 4.183,-0.0577 -0.34839,4.51157 3.29204,5.93425 2.85791,2.7197 5.22564,5.88019 6.2731,9.22847 1.75644,1.76221 1.9935,6.18765 2.96614,9.21968 1.20104,2.49394 1.74102,5.62696 1.5013,8.65148 0.92733,2.95184 1.3107,6.31824 1.86349,10.16462 0.52801,4.2067 0.84526,8.31391 1.87891,12.31924 -0.1575,5.35378 1.65468,9.5922 1.76514,14.78731 1.5502,4.86621 3.25348,9.85478 3.37596,15.11209 0.6193,3.08905 0.87209,6.25714 0.71774,9.52876 -0.002,10.44843 0.003,20.90363 0,31.34734 -1.84929,1.43244 0.29191,7.19677 -1.77364,5.79547 -0.89784,2.49459 -2.35881,5.09894 -3.44424,6.72541 -1.19068,3.1513 -3.71764,5.64383 -4.01408,9.26655 -1.12345,1.84198 -0.9005,0.63501 -0.36928,1.8464"
         style="fill:none;stroke:#110b02;stroke-width:0.7;stroke-linecap:butt;stroke-linejoin:miter;stroke-opacity:1;stroke-miterlimit:4;stroke-dasharray:none" />
      <path
         inkscape:connector-curvature="0"
         id="path2992"
         d="m 201.62605,348.51739 c 0.20212,4.69069 -0.57495,9.51751 0.8087,14.02822 -0.55484,4.09351 0.71788,7.73128 0.66842,11.71378 1.16979,3.7922 1.23007,8.04463 2.21567,11.92441 0.29486,1.37084 3.51374,6.52543 1.22833,4.63915 1.86258,4.60225 2.51663,8.98854 5.41868,13.08622 2.3695,3.6961 3.02558,7.87886 4.43134,11.81691 2.07383,4.42452 2.76304,10.09628 4.46647,14.08104 0.99092,3.48971 2.22667,9.45875 2.97595,14.066 -0.41755,4.43334 2.11858,8.13176 1.42026,12.75329 0.18595,3.11664 -0.56686,6.37211 0.79477,9.17783 -0.12977,14.57028 -0.0185,29.15212 -0.0562,43.71857 -1.58172,1.94058 -0.27849,6.06133 -0.81794,7.98425 0.28424,-2.46634 -1.90695,5.95135 -1.39773,3.09411"
         style="fill:none;stroke:#110b02;stroke-width:0.7;stroke-linecap:butt;stroke-linejoin:miter;stroke-opacity:1;stroke-miterlimit:4;stroke-dasharray:none" />
      <path
         inkscape:connector-curvature="0"
         id="path2994"
         d="m 236.33823,351.47162 c 1.82348,7.97378 4.04101,15.87858 6.51016,23.68736 -0.67343,6.20725 2.0941,11.4309 4.56819,16.93328 0.86256,6.71006 5.13084,12.63902 5.6962,19.5772 1.18294,5.97006 4.67878,11.25252 5.38216,17.35064 2.55918,4.5344 3.27705,8.46624 4.43134,12.55547 3.01344,4.43905 3.77741,8.67516 4.0207,14.02458 1.78539,2.34107 1.02967,6.57733 1.1492,9.85176 0.21372,3.84645 -0.45521,7.87208 0.36928,11.57439 0.78558,3.93042 0.17502,8.19236 0.36928,12.26574 -0.003,3.78566 0.004,7.60148 0,11.36809 -1.99546,3.40901 -2.93214,9.12463 -2.95423,14.03258 -1.15148,0.91026 -1.08578,6.37792 -1.47712,7.34935 0,0.25826 0,0.51652 0,0.77478"
         style="fill:none;stroke:#110b02;stroke-width:0.7;stroke-linecap:butt;stroke-linejoin:miter;stroke-opacity:1;stroke-miterlimit:4;stroke-dasharray:none" />
      <path
         inkscape:connector-curvature="0"
         id="path2996"
         d="m 274.74319,348.51739 c 0.0652,5.64458 0.22641,10.9152 2.21567,16.24826 1.07957,5.18507 2.99972,10.01565 5.06444,15.29992 1.23403,5.42109 3.10689,10.14816 4.12991,15.36236 1.73431,4.81748 2.75556,9.82695 4.09968,14.38969 2.33915,3.04616 1.24995,6.87523 1.47711,10.42293 -0.33962,3.01304 0.51033,5.80585 0.81549,8.64107 0.17101,3.21893 0.96559,6.5176 0.66163,9.86688 0.58671,2.55592 0.92574,5.17031 0.73855,7.90893 0.18786,3.95553 -0.40023,8.08535 0.35407,11.90938 0.92465,3.99239 0.14288,8.35021 0.38449,12.5021 -4.7e-4,10.10991 6.6e-4,20.22001 0,30.32978 -0.97811,2.79451 -2.67386,7.26046 -2.95423,11.07835 -1.2519,1.68665 -1.49006,5.10631 -2.21567,7.38557"
         style="fill:none;stroke:#110b02;stroke-width:0.7;stroke-linecap:butt;stroke-linejoin:miter;stroke-opacity:1;stroke-miterlimit:4;stroke-dasharray:none" />
      <path
         inkscape:connector-curvature="0"
         id="path2998"
         d="m 325.11156,502.28374 c -4.87029,-0.39473 -9.58528,-1.08037 -14.30024,-1.76844 -5.98129,0.31924 -11.45458,-1.28565 -17.45726,-0.81128 -16.5415,0 -33.08301,0 -49.6245,0 -4.58505,-1.11412 -10.24006,-1.8157 -15.5309,-2.13345 -6.17818,-0.50608 -12.56643,-0.57743 -18.50158,-1.55185 -4.23097,-0.0261 -8.4877,0.13435 -12.5735,-0.39459 -9.61695,0.0569 -19.24114,0.013 -28.85734,0.026 -2.51664,-0.82651 -6.20106,-0.17152 -9.2296,-0.36853 -1.11588,0 -2.23175,0 -3.34762,0"
         style="fill:none;stroke:#110b02;stroke-width:0.7;stroke-linecap:butt;stroke-linejoin:miter;stroke-opacity:1;stroke-miterlimit:4;stroke-dasharray:none" />
      <path
         inkscape:connector-curvature="0"
         id="path2998-5"
         d="m 317.35671,482.03539 c -4.87029,-0.39473 -9.58528,-1.08037 -14.30024,-1.76844 -5.98129,0.31924 -11.45458,-1.28565 -17.45726,-0.81128 -16.5415,0 -33.08301,0 -49.6245,0 -4.58505,-1.11412 -10.24006,-1.8157 -15.5309,-2.13345 -6.17818,-0.50608 -12.56643,-0.57743 -18.50158,-1.55185 -4.23097,-0.0261 -8.4877,0.13435 -12.5735,-0.39459 -9.61695,0.0569 -19.24114,0.013 -28.85734,0.026 -2.51664,-0.82651 -6.20106,-0.17152 -9.2296,-0.36853 -1.11588,0 -2.23175,0 -3.34762,0"
         style="fill:none;stroke:#110b02;stroke-width:0.7;stroke-linecap:butt;stroke-linejoin:miter;stroke-opacity:1;stroke-miterlimit:4;stroke-dasharray:none" />
      <path
         inkscape:connector-curvature="0"
         id="path2998-50"
         d="m 318.83383,462.09435 c -4.87029,-0.39473 -9.58528,-1.08037 -14.30024,-1.76844 -5.98129,0.31924 -11.45458,-1.28565 -17.45726,-0.81128 -16.5415,0 -33.08301,0 -49.6245,0 -4.58505,-1.11412 -10.24006,-1.8157 -15.5309,-2.13345 -6.17818,-0.50608 -12.56643,-0.57743 -18.50158,-1.55185 -4.23097,-0.0261 -8.4877,0.13435 -12.5735,-0.39459 -9.61695,0.0569 -19.24114,0.013 -28.85734,0.026 -2.51664,-0.82651 -6.20106,-0.17152 -9.2296,-0.36853 -1.11588,0 -2.23175,0 -3.34762,0"
         style="fill:none;stroke:#110b02;stroke-width:0.7;stroke-linecap:butt;stroke-linejoin:miter;stroke-opacity:1;stroke-miterlimit:4;stroke-dasharray:none" />
      <path
         inkscape:connector-curvature="0"
         id="path2998-57"
         d="m 324.77392,441.4464 c -4.00164,-0.39827 -7.87569,-1.09005 -11.7497,-1.78428 -4.91449,0.3221 -9.41159,-1.29717 -14.34365,-0.81855 -13.59123,0 -27.18245,0 -40.77367,0 -3.76728,-1.1241 -8.41368,-1.83196 -12.76087,-2.15256 -5.07626,-0.51061 -10.32513,-0.5826 -15.20171,-1.56575 -3.47635,-0.0263 -6.97386,0.13555 -10.33093,-0.39813 -7.90171,0.0574 -15.80937,0.0131 -23.71046,0.0262 -2.06778,-0.83392 -5.09506,-0.17306 -7.58344,-0.37184 -0.91686,0 -1.83371,0 -2.75055,0"
         style="fill:none;stroke:#110b02;stroke-width:0.7;stroke-linecap:butt;stroke-linejoin:miter;stroke-opacity:1;stroke-miterlimit:4;stroke-dasharray:none" />
      <path
         inkscape:connector-curvature="0"
         id="path2998-4"
         d="m 301.13766,421.50293 c -4.06519,-0.39799 -8.00076,-1.0893 -11.9363,-1.78306 -4.99254,0.32188 -9.56106,-1.29628 -14.57145,-0.81799 -13.80708,0 -27.61416,0 -41.42122,0 -3.82711,-1.12333 -8.5473,-1.83071 -12.96353,-2.15109 -5.15688,-0.51026 -10.48911,-0.5822 -15.44314,-1.56468 -3.53156,-0.0263 -7.08462,0.13546 -10.49501,-0.39785 -8.0272,0.0574 -16.06044,0.0131 -24.08701,0.0262 -2.10063,-0.83334 -5.17598,-0.17293 -7.70389,-0.37157 -0.93141,0 -1.86282,0 -2.79423,0"
         style="fill:none;stroke:#110b02;stroke-width:0.7;stroke-linecap:butt;stroke-linejoin:miter;stroke-opacity:1;stroke-miterlimit:4;stroke-dasharray:none" />
    </g>
    <g
       id="g3872"
       style="fill:#ffffff;fill-opacity:1;stroke:#110b02;stroke-opacity:1;stroke-width:2;stroke-miterlimit:4;stroke-dasharray:none">
      <path
         transform="matrix(3.7251369,0,0,3.7251369,-1941.7988,-1992.0127)"
         d="m 594.28572,697.36218 a 26.071428,25.714285 0 1 1 -52.14285,0 26.071428,25.714285 0 1 1 52.14285,0 z"
         sodipodi:ry="25.714285"
         sodipodi:rx="26.071428"
         sodipodi:cy="697.36218"
         sodipodi:cx="568.21429"
         id="path4046"
         style="fill:#ffffff;fill-opacity:1;stroke:#110b02;stroke-width:0.53689302;stroke-linejoin:round;stroke-miterlimit:4;stroke-opacity:1;stroke-dasharray:none"
         sodipodi:type="arc" />
      <path
         transform="matrix(0.72649442,0.68717237,-0.68717237,0.72649442,451.07852,135.45408)"
         sodipodi:open="true"
         sodipodi:end="3.090176"
         sodipodi:start="1.7493554"
         d="M 36.552057,619.47786 A 20.259354,27.62639 0 0 1 19.917776,593.71054"
         sodipodi:ry="27.62639"
         sodipodi:rx="20.259354"
         sodipodi:cy="592.29071"
         sodipodi:cx="40.150356"
         id="path3831"
         style="fill:#ffffff;stroke:#110b02;stroke-width:1.99999999;stroke-miterlimit:4;stroke-opacity:1;stroke-dasharray:none;fill-opacity:1"
         sodipodi:type="arc" />
      <path
         transform="matrix(0.72649442,0.68717237,-0.68717237,0.72649442,461.77855,134.04289)"
         sodipodi:open="true"
         sodipodi:end="3.090176"
         sodipodi:start="1.7493554"
         d="M 36.552057,619.47786 A 20.259354,27.62639 0 0 1 19.917776,593.71054"
         sodipodi:ry="27.62639"
         sodipodi:rx="20.259354"
         sodipodi:cy="592.29071"
         sodipodi:cx="40.150356"
         id="path3831-0"
         style="fill:#ffffff;stroke:#110b02;stroke-width:1.99999999;stroke-miterlimit:4;stroke-opacity:1;stroke-dasharray:none;fill-opacity:1"
         sodipodi:type="arc" />
      <path
         transform="matrix(-0.60924653,-0.79298088,0.79298088,-0.60924653,-181.26033,1037.0466)"
         sodipodi:open="true"
         sodipodi:end="3.090176"
         sodipodi:start="1.7493554"
         d="M 36.552057,619.47786 A 20.259354,27.62639 0 0 1 19.917776,593.71054"
         sodipodi:ry="27.62639"
         sodipodi:rx="20.259354"
         sodipodi:cy="592.29071"
         sodipodi:cx="40.150356"
         id="path3831-3"
         style="fill:#ffffff;stroke:#110b02;stroke-width:1.99999999;stroke-miterlimit:4;stroke-opacity:1;stroke-dasharray:none;fill-opacity:1"
         sodipodi:type="arc" />
      <path
         transform="matrix(-0.60924653,-0.79298088,0.79298088,-0.60924653,-170.47157,1037.3376)"
         sodipodi:open="true"
         sodipodi:end="3.090176"
         sodipodi:start="1.7493554"
         d="M 36.552057,619.47786 A 20.259354,27.62639 0 0 1 19.917776,593.71054"
         sodipodi:ry="27.62639"
         sodipodi:rx="20.259354"
         sodipodi:cy="592.29071"
         sodipodi:cx="40.150356"
         id="path3831-0-8"
         style="fill:#ffffff;stroke:#110b02;stroke-width:1.99999999;stroke-miterlimit:4;stroke-opacity:1;stroke-dasharray:none;fill-opacity:1"
         sodipodi:type="arc" />
    </g>
    <path
       transform="matrix(0.5575921,0,0,0.54522882,11.905928,331.90185)"
       style="fill:#ffffff;fill-opacity:1;stroke:#110b02;stroke-width:2;stroke-miterlimit:4;stroke-opacity:1"
       inkscape:transform-center-x="-2.0489524"
       inkscape:transform-center-y="-0.77384435"
       d="m 162.07482,590.44892 -27.89623,-11.7173 -14.6479,-71.02951 33.80782,-17.33668 40.72561,46.8681 z"
       id="path3879-2"
       inkscape:connector-curvature="0"
       sodipodi:nodetypes="cccccc" />
    <path
       sodipodi:type="star"
       style="fill:#ffffff;fill-opacity:1;stroke:#110b02;stroke-width:2;stroke-miterlimit:4;stroke-opacity:1;stroke-dasharray:none"
       id="path3879"
       sodipodi:sides="5"
       sodipodi:cx="141.44711"
       sodipodi:cy="541.82648"
       sodipodi:r1="52.817085"
       sodipodi:r2="26.408543"
       sodipodi:arg1="1.1695675"
       sodipodi:arg2="1.7978861"
       inkscape:flatsided="true"
       inkscape:rounded="0"
       inkscape:randomized="0"
       d="m 162.07482,590.44892 -60.49609,-13.97917 -5.399338,-61.855 57.159118,-24.24932 40.72561,46.8681 z"
       inkscape:transform-center-x="-2.0489524"
       inkscape:transform-center-y="-0.77384435"
       transform="matrix(0.5575921,0,0,0.54522882,57.572678,254.2337)" />
    <path
       sodipodi:type="star"
       style="fill:#ffffff;fill-opacity:1;stroke:#110b02;stroke-width:2;stroke-miterlimit:4;stroke-opacity:1;stroke-dasharray:none"
       id="path3879-9"
       sodipodi:sides="5"
       sodipodi:cx="141.44711"
       sodipodi:cy="541.82648"
       sodipodi:r1="52.817085"
       sodipodi:r2="26.408543"
       sodipodi:arg1="1.1695675"
       sodipodi:arg2="1.7978861"
       inkscape:flatsided="true"
       inkscape:rounded="0"
       inkscape:randomized="0"
       d="m 162.07482,590.44892 -60.49609,-13.97917 -5.399338,-61.855 57.159118,-24.24932 40.72561,46.8681 z"
       inkscape:transform-center-x="1.8954143"
       inkscape:transform-center-y="0.7300096"
       transform="matrix(0.45276239,0.32544611,-0.31823012,0.44272346,234.52107,310.46698)" />
    <path
       transform="matrix(0.44041421,-0.34197115,0.33438876,0.43064907,-71.662872,333.32286)"
       style="fill:#ffffff;fill-opacity:1;stroke:#110b02;stroke-width:2;stroke-miterlimit:4;stroke-opacity:1"
       inkscape:transform-center-x="1.8461526"
       inkscape:transform-center-y="1.1623781"
       d="m 162.07482,590.44892 -60.49609,-13.97917 -5.399338,-61.855 28.209138,0.66109 50.68254,35.95723 z"
       id="path3879-4"
       inkscape:connector-curvature="0"
       sodipodi:nodetypes="cccccc" />
    <path
       sodipodi:type="star"
       style="fill:#ffffff;fill-opacity:1;stroke:#110b02;stroke-width:2;stroke-miterlimit:4;stroke-opacity:1;stroke-dasharray:none"
       id="path3879-93"
       sodipodi:sides="5"
       sodipodi:cx="141.44711"
       sodipodi:cy="541.82648"
       sodipodi:r1="52.817085"
       sodipodi:r2="26.408543"
       sodipodi:arg1="1.1695675"
       sodipodi:arg2="1.7978861"
       inkscape:flatsided="true"
       inkscape:rounded="0"
       inkscape:randomized="0"
       d="m 162.07482,590.44892 -60.49609,-13.97917 -5.399338,-61.855 57.159118,-24.24932 40.72561,46.8681 z"
       transform="matrix(0.44767595,0.33240818,-0.32503781,0.4377498,290.14173,290.1911)" />
  </g>
</svg>
