<?xml version="1.0" encoding="UTF-8" standalone="no"?>
<!-- Created with Inkscape (http://www.inkscape.org/) -->

<svg
   xmlns:dc="http://purl.org/dc/elements/1.1/"
   xmlns:cc="http://creativecommons.org/ns#"
   xmlns:rdf="http://www.w3.org/1999/02/22-rdf-syntax-ns#"
   xmlns:svg="http://www.w3.org/2000/svg"
   xmlns="http://www.w3.org/2000/svg"
   xmlns:sodipodi="http://sodipodi.sourceforge.net/DTD/sodipodi-0.dtd"
   xmlns:inkscape="http://www.inkscape.org/namespaces/inkscape"
   width="744.09448819"
   height="1052.3622047"
   id="svg2"
   version="1.1"
   inkscape:version="0.48.4 r9939"
   sodipodi:docname="4_icons.svg">
  <defs
     id="defs4">
    <inkscape:perspective
       sodipodi:type="inkscape:persp3d"
       inkscape:vp_x="0 : 526.18109 : 1"
       inkscape:vp_y="0 : 1000 : 0"
       inkscape:vp_z="744.09448 : 526.18109 : 1"
       inkscape:persp3d-origin="372.04724 : 350.78739 : 1"
       id="perspective3929" />
  </defs>
  <sodipodi:namedview
     id="base"
     pagecolor="#ffffff"
     bordercolor="#666666"
     borderopacity="1.0"
     inkscape:pageopacity="0.0"
     inkscape:pageshadow="2"
     inkscape:zoom="2.8"
     inkscape:cx="539.76345"
     inkscape:cy="156.1621"
     inkscape:document-units="px"
     inkscape:current-layer="layer1"
     showgrid="false"
     showguides="false"
     inkscape:window-width="1440"
     inkscape:window-height="844"
     inkscape:window-x="-6"
     inkscape:window-y="0"
     inkscape:window-maximized="1" />
  <metadata
     id="metadata7">
    <rdf:RDF>
      <cc:Work
         rdf:about="">
        <dc:format>image/svg+xml</dc:format>
        <dc:type
           rdf:resource="http://purl.org/dc/dcmitype/StillImage" />
        <dc:title />
      </cc:Work>
    </rdf:RDF>
  </metadata>
  <g
     inkscape:label="Layer 1"
     inkscape:groupmode="layer"
     id="layer1">
    <rect
       style="fill:#a2a2a2;stroke:#373737;stroke-width:0.69999999000000002;stroke-miterlimit:4;stroke-opacity:1;stroke-dasharray:none;fill-opacity:1"
       id="rect3801"
       width="745.71429"
       height="1051.4286"
       x="-2.8571429"
       y="0.93361121" />
    <rect
       style="fill:#ffffff;fill-opacity:1;stroke:#373737;stroke-width:0.69999999;stroke-miterlimit:4;stroke-opacity:1;stroke-dasharray:none"
       id="rect2985"
       width="222.85715"
       height="222.85715"
       x="17.142857"
       y="798.07648" />
    <rect
       style="fill:#ffffff;fill-opacity:1;stroke:#373737;stroke-width:0.69999999;stroke-miterlimit:4;stroke-opacity:1;stroke-dasharray:none"
       id="rect2985-5"
       width="222.85715"
       height="222.85715"
       x="262.85712"
       y="795.2193" />
    <rect
       style="fill:#ffffff;fill-opacity:1;stroke:#373737;stroke-width:0.69999999;stroke-miterlimit:4;stroke-opacity:1;stroke-dasharray:none"
       id="rect2985-6"
       width="222.85715"
       height="222.85715"
       x="502.85715"
       y="798.07648" />
    <rect
       style="fill:#ffffff;fill-opacity:1;stroke:#373737;stroke-width:0.69999999;stroke-miterlimit:4;stroke-opacity:1;stroke-dasharray:none"
       id="rect2985-0"
       width="222.85715"
       height="222.85715"
       x="502.85715"
       y="543.79077" />
    <rect
       style="fill:#ffffff;fill-opacity:1;stroke:#373737;stroke-width:0.69999999;stroke-miterlimit:4;stroke-opacity:1;stroke-dasharray:none"
       id="rect2985-1"
       width="222.85715"
       height="222.85715"
       x="502.85715"
       y="289.505" />
    <rect
       style="fill:#ffffff;fill-opacity:1;stroke:#373737;stroke-width:0.69999999;stroke-miterlimit:4;stroke-opacity:1;stroke-dasharray:none"
       id="rect2985-3"
       width="222.85715"
       height="222.85715"
       x="502.85715"
       y="35.219326" />
    <rect
       style="fill:#ffffff;fill-opacity:1;stroke:#373737;stroke-width:0.69999999;stroke-miterlimit:4;stroke-opacity:1;stroke-dasharray:none"
       id="rect2985-3-5"
       width="222.85715"
       height="222.85715"
       x="262.85712"
       y="542.83838" />
    <rect
       style="fill:#ffffff;fill-opacity:1;stroke:#373737;stroke-width:0.69999999;stroke-miterlimit:4;stroke-opacity:1;stroke-dasharray:none"
       id="rect2985-3-8"
       width="222.85715"
       height="222.85715"
       x="262.85712"
       y="290.45743" />
    <rect
       style="fill:#ffffff;fill-opacity:1;stroke:#373737;stroke-width:0.69999999;stroke-miterlimit:4;stroke-opacity:1;stroke-dasharray:none"
       id="rect2985-3-9"
       width="222.85715"
       height="222.85715"
       x="262.85712"
       y="38.076469" />
    <rect
       style="fill:#ffffff;fill-opacity:1;stroke:#373737;stroke-width:0.69999999;stroke-miterlimit:4;stroke-opacity:1;stroke-dasharray:none"
       id="rect2985-3-1"
       width="222.85715"
       height="222.85715"
       x="17.142857"
       y="40.933609" />
    <rect
       style="fill:#ffffff;fill-opacity:1;stroke:#373737;stroke-width:0.69999999;stroke-miterlimit:4;stroke-opacity:1;stroke-dasharray:none"
       id="rect2985-3-2"
       width="222.85715"
       height="222.85715"
       x="17.142857"
       y="293.31451" />
    <rect
       style="fill:#ffffff;fill-opacity:1;stroke:#373737;stroke-width:0.69999999;stroke-miterlimit:4;stroke-opacity:1;stroke-dasharray:none"
       id="rect2985-3-4"
       width="222.85715"
       height="222.85715"
       x="17.142857"
       y="545.6955" />
    <flowRoot
       xml:space="preserve"
       id="flowRoot4241"
       style="font-size:12px;font-style:normal;font-variant:normal;font-weight:normal;font-stretch:normal;text-align:start;line-height:125%;letter-spacing:0px;word-spacing:0px;writing-mode:lr-tb;text-anchor:start;fill:none;stroke:#585858;stroke-width:0.5048089;stroke-miterlimit:4;stroke-opacity:1;stroke-dasharray:none;font-family:Sans;-inkscape-font-specification:Sans"
       transform="matrix(1.53128,0,0,1.4214316,-750.15072,-1158.7667)"><flowRegion
         id="flowRegion4243"><rect
           id="rect4245"
           width="196.47467"
           height="193.44421"
           x="514.16766"
           y="813.46112"
           style="fill:none;stroke:#585858;stroke-width:0.5048089;stroke-miterlimit:4;stroke-opacity:1;stroke-dasharray:none" /></flowRegion><flowPara
         id="flowPara4249"
         style="font-size:144px;font-style:normal;font-variant:normal;font-weight:normal;font-stretch:normal;text-align:start;line-height:125%;writing-mode:lr-tb;text-anchor:start;fill:none;stroke:#585858;stroke-width:0.5048089;stroke-miterlimit:4;stroke-opacity:1;stroke-dasharray:none;font-family:Georgia;-inkscape-font-specification:Georgia">∑</flowPara></flowRoot>    <flowRoot
       xml:space="preserve"
       id="flowRoot4223"
       style="font-size:12px;font-style:normal;font-variant:normal;font-weight:normal;font-stretch:normal;text-align:start;line-height:125%;letter-spacing:0px;word-spacing:0px;writing-mode:lr-tb;text-anchor:start;fill:#ffffff;fill-opacity:1;stroke:#585858;stroke-width:0.31996787;stroke-miterlimit:4;stroke-opacity:1;stroke-dasharray:none;font-family:Sans;-inkscape-font-specification:Sans"
       transform="matrix(1.2845587,0,0,1.9009616,-328.18054,-1533.6262)"><flowRegion
         id="flowRegion4225"><rect
           id="rect4227"
           width="165.66502"
           height="80.307129"
           x="287.3884"
           y="863.96875"
           style="fill:#ffffff;fill-opacity:1;stroke:#585858;stroke-width:0.31996787;stroke-miterlimit:4;stroke-opacity:1;stroke-dasharray:none" /></flowRegion><flowPara
         id="flowPara4229"
         style="font-size:44px;font-style:normal;font-variant:normal;font-weight:bold;font-stretch:normal;text-align:start;line-height:125%;writing-mode:lr-tb;text-anchor:start;fill:#ffffff;fill-opacity:1;stroke:#585858;stroke-width:0.31996787;stroke-miterlimit:4;stroke-opacity:1;stroke-dasharray:none;font-family:Sans;-inkscape-font-specification:Sans Bold">Edit</flowPara></flowRoot>    <rect
       style="fill:#fefefe;fill-opacity:1;stroke:#000000;stroke-width:1.02121818;stroke-linejoin:round;stroke-miterlimit:4;stroke-opacity:1;stroke-dasharray:none"
       id="rect3793"
       width="177.66832"
       height="72.292"
       x="237.64746"
       y="163.32426"
       transform="matrix(0.97598698,-0.21782886,0.23598731,0.97175614,0,0)" />
    <rect
       style="fill:#fefefe;fill-opacity:1;stroke:#000000;stroke-width:0.98895925;stroke-linejoin:round;stroke-miterlimit:4;stroke-opacity:1;stroke-dasharray:none"
       id="rect3791"
       width="178.96361"
       height="73.521301"
       x="249.09454"
       y="183.01675"
       transform="matrix(0.98116269,-0.19318329,0.18499931,0.98273865,0,0)" />
    <rect
       style="fill:#fefefe;fill-opacity:1;stroke:#000000;stroke-opacity:1"
       id="rect3021"
       width="185.71428"
       height="70"
       x="284.28571"
       y="156.64789" />
    <flowRoot
       xml:space="preserve"
       id="flowRoot3795"
       style="font-size:12px;font-style:normal;font-variant:normal;font-weight:normal;font-stretch:normal;text-align:start;line-height:125%;letter-spacing:0px;word-spacing:0px;writing-mode:lr-tb;text-anchor:start;fill:none;fill-opacity:1;stroke:#545454;font-family:Sans;-inkscape-font-specification:Sans;stroke-opacity:1;stroke-width:0.38867619;stroke-miterlimit:4;stroke-dasharray:none"
       transform="matrix(1.4243603,0,0,1.6730417,-158.83235,-115.32646)"><flowRegion
         id="flowRegion3797"><rect
           id="rect3799"
           width="157.85715"
           height="56.42857"
           x="297.85715"
           y="164.50504"
           style="stroke:#545454;stroke-opacity:1;fill:none;stroke-width:0.38867619;stroke-miterlimit:4;stroke-dasharray:none" /></flowRegion><flowPara
         id="flowPara3801"
         style="font-size:36px;font-style:normal;font-variant:normal;font-weight:bold;font-stretch:normal;text-align:center;line-height:125%;writing-mode:lr-tb;text-anchor:middle;font-family:Century Schoolbook L;-inkscape-font-specification:Century Schoolbook L Bold;stroke:#545454;stroke-opacity:1;fill:none;stroke-width:0.38867619;stroke-miterlimit:4;stroke-dasharray:none">Tax</flowPara></flowRoot>    <path
       style="fill:none;stroke:#686868;stroke-width:0.72018129px;stroke-linecap:butt;stroke-linejoin:miter;stroke-opacity:1"
       d="m 530.52842,207.39497 c 0,0 21.08765,11.12434 32.43063,11.30929 10.73057,0.17497 30.95651,-9.69367 30.95651,-9.69367 0,0 -2.22924,-20.52272 -5.4051,-30.15812 -2.09181,-6.34646 -4.17601,-13.37269 -8.84472,-17.77174 -2.90747,-2.73954 -10.81021,-4.3083 -10.81021,-4.3083 l -0.49137,-3.23123 c 0,0 5.81209,-3.25908 7.86197,-5.92391 1.5116,-1.96506 2.17836,-4.57321 2.94824,-7.00099 1.95331,-6.15968 0.98274,-12.38637 0.98274,-12.38637 0,0 -1.84811,-9.26115 -8.35334,-13.46344 -3.93578,-2.54245 -8.69851,-3.77354 -13.26708,-3.76976 -3.89327,0.003 -7.85244,3.14928 -10.81021,5.92391 -3.12079,2.92757 -4.77729,5.9699 -5.40511,9.69368 -0.81722,4.84719 0.72897,9.98957 2.45687,14.54052 0.99496,2.62051 2.64263,4.93906 4.42236,7.00099 1.28338,1.48687 4.42236,3.76976 4.42236,3.76976 l 0,4.3083 c 0,0 -8.21762,1.03492 -11.79296,4.3083 -4.69326,4.29689 -6.60795,11.01615 -8.35334,17.23321 -2.66498,9.49258 -2.94824,29.61957 -2.94824,29.61957 z"
       id="path3037-9"
       inkscape:connector-curvature="0"
       sodipodi:nodetypes="cscssccsscssssssccssc" />
    <path
       style="fill:#ffffff;fill-opacity:1;stroke:#686868;stroke-width:0.72018129px;stroke-linecap:butt;stroke-linejoin:miter;stroke-opacity:1"
       d="m 576.71751,213.31889 c 0,0 21.08765,11.12434 32.43063,11.30929 10.73056,0.17497 30.95651,-9.69367 30.95651,-9.69367 0,0 -2.22925,-20.52272 -5.4051,-30.15811 -2.09182,-6.34647 -4.17602,-13.3727 -8.84472,-17.77175 -2.90748,-2.73954 -10.81021,-4.3083 -10.81021,-4.3083 l -0.49137,-3.23123 c 0,0 5.81208,-3.25908 7.86197,-5.92391 1.5116,-1.96506 2.17836,-4.57321 2.94823,-7.00099 1.95331,-6.15968 0.98275,-12.38637 0.98275,-12.38637 0,0 -1.84811,-9.26116 -8.35334,-13.46344 -3.93578,-2.54246 -8.69851,-3.77354 -13.26708,-3.76976 -3.89327,0.003 -7.85244,3.14928 -10.81021,5.92391 -3.12079,2.92756 -4.77729,5.96989 -5.40511,9.69367 -0.81722,4.8472 0.72896,9.98958 2.45687,14.54053 0.99495,2.62051 2.64263,4.93906 4.42236,7.00098 1.28338,1.48688 4.42236,3.76977 4.42236,3.76977 l 0,4.3083 c 0,0 -8.21762,1.03491 -11.79296,4.3083 -4.69326,4.29689 -6.60795,11.01615 -8.35335,17.23321 -2.66497,9.49258 -2.94823,29.61957 -2.94823,29.61957 z"
       id="path3037-8"
       inkscape:connector-curvature="0"
       sodipodi:nodetypes="cscssccsscssssssccssc" />
    <path
       style="fill:#ffffff;fill-opacity:1;stroke:#686868;stroke-width:0.72018129px;stroke-linecap:butt;stroke-linejoin:miter;stroke-opacity:1"
       d="m 511.61055,221.3981 c 0,0 21.08765,11.12434 32.43063,11.30929 10.73057,0.17497 30.95651,-9.69368 30.95651,-9.69368 0,0 -2.22924,-20.52271 -5.4051,-30.15811 -2.09181,-6.34646 -4.17601,-13.37269 -8.84472,-17.77174 -2.90747,-2.73954 -10.81021,-4.30831 -10.81021,-4.30831 l -0.49137,-3.23122 c 0,0 5.81209,-3.25908 7.86197,-5.92391 1.5116,-1.96507 2.17836,-4.57321 2.94824,-7.001 1.95331,-6.15968 0.98274,-12.38636 0.98274,-12.38636 0,0 -1.84811,-9.26116 -8.35334,-13.46344 -3.93578,-2.54246 -8.69851,-3.77354 -13.26708,-3.76977 -3.89327,0.003 -7.85244,3.14929 -10.81021,5.92392 -3.12079,2.92756 -4.77729,5.96989 -5.40511,9.69367 -0.81722,4.8472 0.72897,9.98958 2.45687,14.54053 0.99496,2.62051 2.64263,4.93906 4.42236,7.00098 1.28338,1.48688 4.42236,3.76976 4.42236,3.76976 l 0,4.30831 c 0,0 -8.21762,1.03491 -11.79296,4.3083 -4.69326,4.29689 -6.60795,11.01615 -8.35334,17.23321 -2.66498,9.49257 -2.94824,29.61957 -2.94824,29.61957 z"
       id="path3037"
       inkscape:connector-curvature="0"
       sodipodi:nodetypes="cscssccsscssssssccssc" />
    <flowRoot
       xml:space="preserve"
       id="flowRoot3814"
       style="font-size:12px;font-style:normal;font-variant:normal;font-weight:normal;font-stretch:normal;text-align:start;line-height:125%;letter-spacing:0px;word-spacing:0px;writing-mode:lr-tb;text-anchor:start;fill:none;fill-opacity:1;stroke:#545454;font-family:Sans;-inkscape-font-specification:Sans;stroke-opacity:1;stroke-width:0.23973174;stroke-miterlimit:4;stroke-dasharray:none"
       transform="matrix(2.4485421,0,0,2.5582552,-883.7272,-98.736887)"><flowRegion
         id="flowRegion3816"><rect
           id="rect3818"
           width="92.85714"
           height="123.57143"
           x="617.14288"
           y="53.790752"
           style="fill:none;stroke:#545454;stroke-opacity:1;stroke-width:0.23973174;stroke-miterlimit:4;stroke-dasharray:none" /></flowRegion><flowPara
         id="flowPara3820"
         style="font-size:48px;font-style:normal;font-variant:normal;font-weight:bold;font-stretch:normal;text-align:start;line-height:125%;writing-mode:lr-tb;text-anchor:start;font-family:Serif;-inkscape-font-specification:Serif Bold;fill:none;stroke:#545454;stroke-opacity:1;stroke-width:0.23973174;stroke-miterlimit:4;stroke-dasharray:none">$</flowPara></flowRoot>    <rect
       style="fill:none;stroke:#282828;stroke-width:0.80000000000000004;stroke-linejoin:round;stroke-miterlimit:4;stroke-opacity:1;stroke-dasharray:none"
       id="rect3822"
       width="192.14285"
       height="129.28572"
       x="32.857143"
       y="333.79074"
       ry="15" />
    <path
       style="fill:none;stroke:#6f6f6f;stroke-width:0.5;stroke-linecap:butt;stroke-linejoin:miter;stroke-miterlimit:4;stroke-opacity:1;stroke-dasharray:none"
       d="m 61.428571,437.36218 c 0,0 3.109074,-34.12561 12.893038,-45.8876 11.960107,-14.37808 51.392681,-26.25526 51.392681,-26.25526 0,0 -0.44403,-5.64598 -3.98985,-9.23495 -3.91727,-3.96494 -10.66352,-5.20921 -10.66352,-5.20921 0,0 -41.550538,12.15371 -51.739311,26.58702 C 48.074713,393.29442 45,433.07647 45,433.07647 c 0,0 2.995847,5.5175 5.714286,6.42857 3.453373,1.15738 10.714285,-2.14286 10.714285,-2.14286 z"
       id="path3824"
       inkscape:connector-curvature="0"
       sodipodi:nodetypes="cscscscsc" />
    <path
       style="fill:none;stroke:#6f6f6f;stroke-width:0.5;stroke-linecap:butt;stroke-linejoin:miter;stroke-miterlimit:4;stroke-opacity:1;stroke-dasharray:none"
       d="m 62.561276,437.06632 c 0,0 5.737741,5.75395 10.627629,6.55112 4.906799,0.79993 10.245103,-3.27557 10.245103,-3.27557 0,0 0.786821,-26.88979 7.683833,-37.2295 5.63345,-8.44544 33.167869,-15.75019 33.167869,-15.75019 0,0 3.3948,-7.48937 3.57143,-10.80094 0.19686,-3.69099 -3.36222,-10.20921 -3.36222,-10.20921 0,0 -40.028237,13.16972 -50.93836,25.92349 -10.405535,12.16391 -10.995284,44.7908 -10.995284,44.7908 z"
       id="path3826"
       inkscape:connector-curvature="0"
       sodipodi:nodetypes="cscscscsc" />
    <rect
       style="fill:none;stroke:#6f6f6f;stroke-width:0.5;stroke-linejoin:round;stroke-miterlimit:4;stroke-opacity:1;stroke-dasharray:none"
       id="rect3828"
       width="30.809652"
       height="29.7995"
       x="179.80716"
       y="348.79092"
       ry="5.0507627" />
    <flowRoot
       xml:space="preserve"
       id="flowRoot3830"
       style="font-size:12px;font-style:normal;font-variant:normal;font-weight:normal;font-stretch:normal;text-align:start;line-height:125%;letter-spacing:0px;word-spacing:0px;writing-mode:lr-tb;text-anchor:start;fill:#000000;fill-opacity:1;stroke:none;font-family:Sans;-inkscape-font-specification:Sans;stroke-opacity:1;stroke-width:0.26299530999999998;stroke-miterlimit:4;stroke-dasharray:none"
       transform="matrix(1,0,0,1.3012073,1.0101525,-129.60595)"><flowRegion
         id="flowRegion3832"><rect
           id="rect3834"
           width="175.76654"
           height="30.304577"
           x="41.921329"
           y="420.51178"
           style="stroke:none;stroke-opacity:1;fill:#000000;stroke-width:0.26299530999999998;stroke-miterlimit:4;stroke-dasharray:none;fill-opacity:1" /></flowRegion><flowPara
         id="flowPara3836"
         style="font-size:13px;font-style:normal;font-variant:normal;font-weight:bold;font-stretch:normal;text-align:start;line-height:125%;writing-mode:lr-tb;text-anchor:start;font-family:Sans;-inkscape-font-specification:Sans Bold;stroke:none;stroke-opacity:1;fill:#000000;stroke-width:0.26299530999999998;stroke-miterlimit:4;stroke-dasharray:none;fill-opacity:1">Loans and Credit Cards</flowPara></flowRoot>    <flowRoot
       xml:space="preserve"
       id="flowRoot3838"
       style="font-size:12px;font-style:normal;font-variant:normal;font-weight:normal;font-stretch:normal;text-align:start;line-height:125%;letter-spacing:0px;word-spacing:0px;writing-mode:lr-tb;text-anchor:start;fill:none;stroke:#6f6f6f;stroke-width:0.39493051;stroke-miterlimit:4;stroke-opacity:1;stroke-dasharray:none;font-family:Sans;-inkscape-font-specification:Sans"
       transform="matrix(1.6342491,0,0,1.4123518,-212.7352,-200.41186)"><flowRegion
         id="flowRegion3840"><rect
           id="rect3842"
           width="103.65759"
           height="161.75336"
           x="290.92392"
           y="317.98129"
           style="fill:none;stroke:#6f6f6f;stroke-width:0.39493051;stroke-miterlimit:4;stroke-opacity:1;stroke-dasharray:none" /></flowRegion><flowPara
         id="flowPara3844"
         style="font-size:144px;font-style:normal;font-variant:normal;font-weight:normal;font-stretch:normal;text-align:start;line-height:125%;writing-mode:lr-tb;text-anchor:start;fill:none;stroke:#6f6f6f;stroke-width:0.39493051;stroke-miterlimit:4;stroke-opacity:1;stroke-dasharray:none;font-family:Ubuntu;-inkscape-font-specification:Ubuntu">£</flowPara></flowRoot>    <flowRoot
       xml:space="preserve"
       id="flowRoot3846"
       style="font-size:12px;font-style:normal;font-variant:normal;font-weight:normal;font-stretch:normal;text-align:start;line-height:125%;letter-spacing:0px;word-spacing:0px;writing-mode:lr-tb;text-anchor:start;fill:none;fill-opacity:1;stroke:#6f6f6f;font-family:Sans;-inkscape-font-specification:Sans;stroke-opacity:1;stroke-width:0.19172379;stroke-miterlimit:4;stroke-dasharray:none"
       transform="matrix(3.9786234,0,0,3.3505123,-787.19738,-749.69603)"><flowRegion
         id="flowRegion3848"><rect
           id="rect3850"
           width="192.43407"
           height="187.88837"
           x="279.81226"
           y="307.37469"
           style="fill:none;stroke:#6f6f6f;stroke-opacity:1;stroke-width:0.19172379;stroke-miterlimit:4;stroke-dasharray:none" /></flowRegion><flowPara
         id="flowPara3854"
         style="font-size:64px;font-style:normal;font-variant:normal;font-weight:bold;font-stretch:normal;text-align:start;line-height:125%;writing-mode:lr-tb;text-anchor:start;font-family:Nimbus Roman No9 L;-inkscape-font-specification:Nimbus Roman No9 L Bold;fill:none;stroke:#6f6f6f;stroke-opacity:1;stroke-width:0.19172379;stroke-miterlimit:4;stroke-dasharray:none">€</flowPara></flowRoot>    <rect
       style="fill:none;stroke:#6f6f6f;stroke-width:0.69999999;stroke-linejoin:round;stroke-miterlimit:4;stroke-opacity:1;stroke-dasharray:none"
       id="rect3856"
       width="199.00005"
       height="194.45436"
       x="511.64227"
       y="300.80869"
       ry="3.5355339" />
    <rect
       style="fill:none;stroke:#6f6f6f;stroke-width:0.61586565;stroke-linejoin:round;stroke-miterlimit:4;stroke-opacity:1;stroke-dasharray:none"
       id="rect3858"
       width="116.25168"
       height="15.236423"
       x="518.1662"
       y="349.75903"
       ry="0" />
    <flowRoot
       xml:space="preserve"
       id="flowRoot3860"
       style="font-size:12px;font-style:normal;font-variant:normal;font-weight:normal;font-stretch:normal;text-align:start;line-height:125%;letter-spacing:0px;word-spacing:0px;writing-mode:lr-tb;text-anchor:start;fill:#000000;fill-opacity:1;stroke:none;font-family:Sans;-inkscape-font-specification:Sans"><flowRegion
         id="flowRegion3862"><rect
           id="rect3864"
           width="115.15739"
           height="12.626906"
           x="552.55347"
           y="274.54471" /></flowRegion><flowPara
         id="flowPara3866">amouamoa</flowPara></flowRoot>    <text
       xml:space="preserve"
       style="font-size:12px;font-style:normal;font-variant:normal;font-weight:normal;font-stretch:normal;text-align:start;line-height:125%;letter-spacing:0px;word-spacing:0px;writing-mode:lr-tb;text-anchor:start;fill:#000000;fill-opacity:1;stroke:none;font-family:Sans;-inkscape-font-specification:Sans"
       x="544.97729"
       y="285.6564"
       id="text3868"
       sodipodi:linespacing="125%"><tspan
         sodipodi:role="line"
         id="tspan3870"
         x="544.97729"
         y="285.6564">amounts to the right</tspan></text>
    <rect
       style="fill:none;stroke:#6f6f6f;stroke-width:0.61586565;stroke-linejoin:round;stroke-miterlimit:4;stroke-opacity:1;stroke-dasharray:none"
       id="rect3858-0"
       width="116.25168"
       height="15.236423"
       x="518.67126"
       y="370.46716"
       ry="0" />
    <rect
       style="fill:none;stroke:#6f6f6f;stroke-width:0.61586565;stroke-linejoin:round;stroke-miterlimit:4;stroke-opacity:1;stroke-dasharray:none"
       id="rect3858-9"
       width="116.25168"
       height="15.236423"
       x="518.1662"
       y="390.6702"
       ry="0" />
    <rect
       style="fill:none;stroke:#6f6f6f;stroke-width:0.61586565;stroke-linejoin:round;stroke-miterlimit:4;stroke-opacity:1;stroke-dasharray:none"
       id="rect3858-9-7"
       width="116.25168"
       height="15.236423"
       x="517.66113"
       y="411.88339"
       ry="0" />
    <rect
       style="fill:#232323;stroke:none;stroke-width:0.69999999000000002;stroke-linejoin:round;stroke-miterlimit:4;stroke-opacity:1;stroke-dasharray:none;fill-opacity:1"
       id="rect3915"
       width="184.85791"
       height="2.0203052"
       x="516.18793"
       y="437.17929" />
    <flowRoot
       xml:space="preserve"
       id="flowRoot3917"
       style="font-size:12px;font-style:normal;font-variant:normal;font-weight:normal;font-stretch:normal;text-align:start;line-height:125%;letter-spacing:0px;word-spacing:0px;writing-mode:lr-tb;text-anchor:start;fill:none;fill-opacity:1;stroke:#6f6f6f;font-family:Sans;-inkscape-font-specification:Sans;stroke-opacity:1;stroke-width:0.22455495;stroke-miterlimit:4;stroke-dasharray:none"
       transform="matrix(1.6353303,0,0,1.9403016,-385.52486,-296.61654)"><flowRegion
         id="flowRegion3919"><rect
           id="rect3921"
           width="161.6244"
           height="27.779196"
           x="529.82501"
           y="306.36453"
           style="fill:none;stroke:#6f6f6f;stroke-opacity:1;stroke-width:0.22455495;stroke-miterlimit:4;stroke-dasharray:none" /></flowRegion><flowPara
         id="flowPara3923"
         style="font-size:16px;font-style:normal;font-variant:normal;font-weight:bold;font-stretch:normal;text-align:center;line-height:125%;writing-mode:lr-tb;text-anchor:middle;font-family:Nimbus Roman No9 L;-inkscape-font-specification:Nimbus Roman No9 L Bold;fill:none;stroke:#6f6f6f;stroke-opacity:1;stroke-width:0.22455495;stroke-miterlimit:4;stroke-dasharray:none">Invoices </flowPara></flowRoot>    <rect
       style="fill:none;stroke:#585858;stroke-width:0.69999999;stroke-linejoin:round;stroke-miterlimit:4;stroke-opacity:1;stroke-dasharray:none"
       id="rect3049"
       width="169.70563"
       height="191.4239"
       x="30.809652"
       y="555.87219" />
    <flowRoot
       xml:space="preserve"
       id="flowRoot3051"
       style="font-size:12px;font-style:normal;font-variant:normal;font-weight:normal;font-stretch:normal;text-align:start;line-height:125%;letter-spacing:0px;word-spacing:0px;writing-mode:lr-tb;text-anchor:start;fill:#000000;fill-opacity:1;stroke:none;font-family:Sans;-inkscape-font-specification:Sans"
       transform="matrix(1.0667924,0,0,1.2910457,-4.1076896,-165.99538)"><flowRegion
         id="flowRegion3053"><rect
           id="rect3055"
           width="142.4315"
           height="49.497475"
           x="39.39595"
           y="562.9433" /></flowRegion><flowPara
         id="flowPara3057"
         style="font-size:32px;font-style:normal;font-variant:normal;font-weight:bold;font-stretch:normal;text-align:center;line-height:125%;writing-mode:lr-tb;text-anchor:middle;fill:none;stroke:#353535;stroke-width:0.60000002;stroke-miterlimit:4;stroke-opacity:1;stroke-dasharray:none;font-family:Nimbus Roman No9 L;-inkscape-font-specification:Nimbus Roman No9 L Bold">Invoice</flowPara></flowRoot>    <path
       sodipodi:type="arc"
       style="fill:none;stroke:#353535;stroke-width:0.60000002;stroke-linejoin:round;stroke-miterlimit:4;stroke-opacity:1;stroke-dasharray:none"
       id="path3827"
       sodipodi:cx="132.58252"
       sodipodi:cy="681.88873"
       sodipodi:rx="51.770317"
       sodipodi:ry="53.285545"
       d="m 82.495627,668.41086 a 51.770317,53.285545 0 1 1 -0.759341,3.45498"
       sodipodi:start="3.3973071"
       sodipodi:end="9.6140029"
       sodipodi:open="true"
       transform="matrix(1.0582892,0,0,1.0234616,-28.436386,-23.321836)" />
    <flowRoot
       xml:space="preserve"
       id="flowRoot3829"
       style="font-size:12px;font-style:normal;font-variant:normal;font-weight:normal;font-stretch:normal;text-align:start;line-height:125%;letter-spacing:0px;word-spacing:0px;writing-mode:lr-tb;text-anchor:start;fill:none;fill-opacity:1;stroke:#353535;font-family:Sans;-inkscape-font-specification:Sans;stroke-opacity:1;stroke-width:0.12355956;stroke-miterlimit:3.9;stroke-dasharray:none"
       transform="matrix(4.1770164,0,0,3.9203164,-262.03767,-1905.5583)"><flowRegion
         id="flowRegion3831"><rect
           id="rect3833"
           width="76.266518"
           height="78.791901"
           x="75.761444"
           y="636.17932"
           style="stroke:#353535;stroke-opacity:1;fill:none;stroke-width:0.12355956;stroke-miterlimit:3.9;stroke-dasharray:none" /></flowRegion><flowPara
         id="flowPara3835"
         style="font-size:32px;font-style:normal;font-variant:normal;font-weight:bold;font-stretch:normal;text-align:start;line-height:125%;writing-mode:lr-tb;text-anchor:start;font-family:Sans;-inkscape-font-specification:Sans Bold;stroke:#353535;stroke-opacity:1;fill:none;stroke-width:0.12355956;stroke-miterlimit:3.9;stroke-dasharray:none">+</flowPara></flowRoot>    <rect
       style="fill:none;stroke:#585858;stroke-width:0.69999999;stroke-linejoin:round;stroke-miterlimit:4;stroke-opacity:1;stroke-dasharray:none"
       id="rect3049-0"
       width="169.70563"
       height="191.4239"
       x="277.2869"
       y="555.11462" />
    <flowRoot
       xml:space="preserve"
       id="flowRoot3051-7"
       style="font-size:12px;font-style:normal;font-variant:normal;font-weight:normal;font-stretch:normal;text-align:start;line-height:125%;letter-spacing:0px;word-spacing:0px;writing-mode:lr-tb;text-anchor:start;fill:#000000;fill-opacity:1;stroke:none;font-family:Sans;-inkscape-font-specification:Sans"
       transform="matrix(1.0667924,0,0,1.2910457,242.36953,-166.75297)"><flowRegion
         id="flowRegion3053-9"><rect
           id="rect3055-3"
           width="142.4315"
           height="49.497475"
           x="39.39595"
           y="562.9433" /></flowRegion><flowPara
         id="flowPara3057-9"
         style="font-size:32px;font-style:normal;font-variant:normal;font-weight:bold;font-stretch:normal;text-align:center;line-height:125%;writing-mode:lr-tb;text-anchor:middle;fill:none;stroke:#353535;stroke-width:0.60000002;stroke-miterlimit:4;stroke-opacity:1;stroke-dasharray:none;font-family:Nimbus Roman No9 L;-inkscape-font-specification:Nimbus Roman No9 L Bold">Invoice</flowPara></flowRoot>    <path
       sodipodi:type="arc"
       style="fill:none;stroke:#353535;stroke-width:0.60000002;stroke-linejoin:round;stroke-miterlimit:4;stroke-opacity:1;stroke-dasharray:none"
       id="path3827-5"
       sodipodi:cx="132.58252"
       sodipodi:cy="681.88873"
       sodipodi:rx="51.770317"
       sodipodi:ry="53.285545"
       d="m 82.495627,668.41086 a 51.770317,53.285545 0 1 1 -0.759341,3.45498"
       sodipodi:start="3.3973071"
       sodipodi:end="9.6140029"
       sodipodi:open="true"
       transform="matrix(1.0582892,0,0,1.0234616,218.04083,-24.079434)" />
    <flowRoot
       xml:space="preserve"
       id="flowRoot4223-4"
       style="font-size:12px;font-style:normal;font-variant:normal;font-weight:normal;font-stretch:normal;text-align:start;line-height:125%;letter-spacing:0px;word-spacing:0px;writing-mode:lr-tb;text-anchor:start;fill:#ffffff;fill-opacity:1;stroke:#585858;stroke-width:0.31996787;stroke-miterlimit:4;stroke-opacity:1;stroke-dasharray:none;font-family:Sans;-inkscape-font-specification:Sans"
       transform="matrix(0.88360634,0,0,1.0168075,57.111482,-233.35512)"><flowRegion
         id="flowRegion4225-0"><rect
           id="rect4227-8"
           width="165.66502"
           height="80.307129"
           x="287.3884"
           y="863.96875"
           style="fill:#ffffff;fill-opacity:1;stroke:#585858;stroke-width:0.31996787;stroke-miterlimit:4;stroke-opacity:1;stroke-dasharray:none" /></flowRegion><flowPara
         id="flowPara4229-6"
         style="font-size:44px;font-style:normal;font-variant:normal;font-weight:bold;font-stretch:normal;text-align:start;line-height:125%;writing-mode:lr-tb;text-anchor:start;fill:#ffffff;fill-opacity:1;stroke:#585858;stroke-width:0.31996787;stroke-miterlimit:4;stroke-opacity:1;stroke-dasharray:none;font-family:Sans;-inkscape-font-specification:Sans Bold">Edit</flowPara></flowRoot>    <path
       style="fill:none;stroke:#000000;stroke-width:0.6;stroke-linecap:butt;stroke-linejoin:miter;stroke-opacity:1;stroke-miterlimit:4;stroke-dasharray:none"
       d="m 694.98494,738.20474 -177.78684,0 18.18275,-126.26906 c 0,0 2.76254,-5.02043 5.05076,-6.566 3.62202,-2.44648 12.6269,-3.53553 12.6269,-3.53553 l 127.27922,-1.51523 30.80966,125.25892 -11.61676,3.03045 -28.78934,-123.23861 8.58629,-5.05076 c 0,0 -6.46573,2.01484 -9.09137,4.04061 -2.56055,1.97555 -6.06092,7.57615 -6.06092,7.57615 z"
       id="path3897"
       inkscape:connector-curvature="0"
       sodipodi:nodetypes="cccsccccccscc" />
    <path
       style="fill:none;stroke:#000000;stroke-width:0.6;stroke-linecap:butt;stroke-linejoin:miter;stroke-opacity:1;stroke-miterlimit:4;stroke-dasharray:none"
       d="m 699.02556,728.60829 c -1.50585,0.48632 0.37646,1.77246 0,2.52539 -0.10648,0.21295 -0.29212,0.39859 -0.50508,0.50507 -0.15058,0.0753 -0.38603,-0.11905 -0.50508,0 -0.23809,0.2381 0.33672,1.01015 0,1.01015 -0.62199,0 1.5414,-2.55154 -1.01015,0 -0.33684,0.33685 0.33684,0.67331 0,1.01016 -0.11905,0.11904 -0.38603,-0.11905 -0.50507,0 -0.0163,0.0162 0,1.39273 0,1.51523 0,0.16835 0,0.67343 0,0.50507 0,-0.33672 0.33671,-1.01015 0,-1.01015 -0.98559,0 -0.32386,1.15279 -0.50508,1.51523 -0.10648,0.21296 -0.3986,0.29212 -0.50508,0.50507 -0.0753,0.15059 0,0.33672 0,0.50508 0,0.16836 0,0.33672 0,0.50508"
       id="path3899"
       inkscape:connector-curvature="0" />
    <path
       style="fill:none;stroke:#000000;stroke-width:0.5;stroke-linecap:butt;stroke-linejoin:miter;stroke-miterlimit:4;stroke-opacity:1;stroke-dasharray:none"
       d="m 535.88592,611.4306 28.78935,0 c 0,0 15.58244,-27.80096 21.71828,-39.90102 5.06222,-9.98285 20.1223,-12.23586 31.31472,-12.12183 10.19179,0.10383 21.98359,3.60522 28.28428,11.61675 8.94935,11.37935 1.51523,40.91118 1.51523,40.91118 l 16.16244,0 z"
       id="path3901"
       inkscape:connector-curvature="0"
       sodipodi:nodetypes="ccsssccc" />
    <flowRoot
       xml:space="preserve"
       id="flowRoot3903"
       style="font-size:32px;font-style:normal;font-variant:normal;font-weight:bold;font-stretch:normal;text-align:center;line-height:100%;letter-spacing:0px;word-spacing:0px;writing-mode:lr-tb;text-anchor:middle;fill:none;fill-opacity:1;stroke:#353535;font-family:Nimbus Roman No9 L;-inkscape-font-specification:Nimbus Roman No9 L Bold;stroke-opacity:1;stroke-width:0.51393637;stroke-miterlimit:4;stroke-dasharray:none"
       transform="matrix(1.060551,0,0,1.2851453,-41.450145,-169.48712)"><flowRegion
         id="flowRegion3905"><rect
           id="rect3907"
           width="128.79445"
           height="107.07613"
           x="540.93671"
           y="626.07782"
           style="font-size:32px;font-style:normal;font-variant:normal;font-weight:bold;font-stretch:normal;text-align:center;line-height:100%;writing-mode:lr-tb;text-anchor:middle;font-family:Nimbus Roman No9 L;-inkscape-font-specification:Nimbus Roman No9 L Bold;fill:none;stroke:#353535;stroke-opacity:1;stroke-width:0.51393637;stroke-miterlimit:4;stroke-dasharray:none" /></flowRegion><flowPara
         id="flowPara3909"
         style="font-size:32px;font-style:normal;font-variant:normal;font-weight:bold;font-stretch:normal;text-align:center;line-height:100%;writing-mode:lr-tb;text-anchor:middle;font-family:Nimbus Roman No9 L;-inkscape-font-specification:Nimbus Roman No9 L Bold;fill:none;stroke:#353535;stroke-opacity:1;stroke-width:0.51393637;stroke-miterlimit:4;stroke-dasharray:none">Purchase</flowPara><flowPara
         id="flowPara3911"
         style="font-size:32px;font-style:normal;font-variant:normal;font-weight:bold;font-stretch:normal;text-align:center;line-height:100%;writing-mode:lr-tb;text-anchor:middle;font-family:Nimbus Roman No9 L;-inkscape-font-specification:Nimbus Roman No9 L Bold;fill:none;stroke:#353535;stroke-opacity:1;stroke-width:0.51393637;stroke-miterlimit:4;stroke-dasharray:none">Ledger</flowPara></flowRoot>    <path
       sodipodi:type="spiral"
       style="fill:none;stroke:#000000;stroke-width:1px;stroke-linecap:butt;stroke-linejoin:miter;stroke-opacity:1"
       id="path3913"
       sodipodi:cx="147.98735"
       sodipodi:cy="969.52966"
       sodipodi:expansion="0.87"
       sodipodi:revolution="5.6100001"
       sodipodi:radius="35.774948"
       sodipodi:argument="-13.794262"
       sodipodi:t0="0"
       d="m 147.98735,969.52966 c 0.5085,-1.42433 2.09608,-0.13199 2.24978,0.80319 0.34084,2.07386 -1.89483,3.44149 -3.71774,3.30865 -3.03905,-0.22147 -4.83948,-3.37885 -4.3831,-6.20072 0.63802,-3.94502 4.78092,-6.20774 8.534,-5.42616 4.82158,1.00409 7.54278,6.1268 6.44228,10.77283 -1.34449,5.67609 -7.43105,8.84845 -12.94299,7.43599 -6.51262,-1.66889 -10.12873,-8.70259 -8.41077,-15.05947 1.982,-7.33393 9.94735,-11.38699 17.13205,-9.36928 8.14208,2.28658 12.62592,11.16953 10.31354,19.16759 -2.58433,8.93869 -12.37222,13.84772 -21.17118,11.24521 -9.72502,-2.87641 -15.05416,-13.55783 -12.16557,-23.14672 3.16368,-10.5021 14.72824,-16.24673 25.0973,-13.07572 11.27079,3.44677 17.42668,15.885 13.97656,27.02543 -3.72618,12.03181 -17.02938,18.59504 -28.93318,14.86884 -12.78577,-4.00228 -19.75273,-18.16242 -15.75323,-30.82228 4.27542,-13.5332 19.28504,-20.90052 32.6942,-16.63027 14.27456,4.54583 22.0391,20.398 17.5005,34.55022 -4.81376,15.01024 -21.502,23.16901 -36.39145,18.36431 -15.7406,-5.0794 -24.2909,-22.59762 -19.22211,-38.21884 5.3429,-16.46596 23.68537,-25.40515 40.03325,-20.07424 17.1866,5.60441 26.51221,24.76573 20.92102,41.83545 -5.86406,17.90277 -25.83911,27.61243 -43.62612,21.76273 -7.79812,-2.5647 -14.55291,-7.87785 -18.92132,-14.82367"
       transform="matrix(0.99936559,-0.08419514,-0.11016698,1.0099162,120.19181,-9.7566897)" />
    <path
       style="fill:none;stroke:#000000;stroke-width:0.91212255px;stroke-linecap:butt;stroke-linejoin:miter;stroke-opacity:1"
       d="m 128.12105,978.15349 c -3.60553,-8.5624 -2.9797,-18.54547 -2.08926,-27.79326 1.32223,-13.73221 7.89257,-26.4611 10.92004,-39.92053 2.81557,-12.51738 5.32832,-25.1448 6.72003,-37.89923 2.17617,-19.9437 2.52001,-60.13346 2.52001,-60.13346 l -91.560387,0.50533 c 0,0 0.53319,41.21147 -1.680008,61.64942 -1.126134,10.39938 -3.383449,20.66684 -5.880025,30.82471 -3.233897,13.15782 -11.76839,22.91915 -13.275279,36.3845 -0.882655,7.88728 0.354127,25.58711 3.195236,26.27557 45.10671,10.93027 115.080493,24.25551 115.080493,24.25551 0,0 -11.58619,-2.36006 -16.38544,-5.5588 -3.17488,-2.11609 -6.08469,-5.07335 -7.56541,-8.58976 z"
       id="path3915"
       inkscape:connector-curvature="0"
       sodipodi:nodetypes="ssssccsssscss" />
    <path
       style="fill:none;stroke:#000000;stroke-width:1.12169623px;stroke-linecap:butt;stroke-linejoin:miter;stroke-opacity:1"
       d="m 171.66508,924.51703 -36.74887,-5.93921 z"
       id="path3917"
       inkscape:connector-curvature="0" />
    <flowRoot
       xml:space="preserve"
       id="flowRoot3919"
       style="font-size:12px;font-style:normal;font-variant:normal;font-weight:normal;font-stretch:normal;text-align:start;line-height:125%;letter-spacing:0px;word-spacing:0px;writing-mode:lr-tb;text-anchor:start;fill:#000000;fill-opacity:1;stroke:none;font-family:Sans;-inkscape-font-specification:Sans"
       transform="matrix(0.99998364,0.04464769,-0.00572058,0.99976095,4.8648059,-4.1105392)"><flowRegion
         id="flowRegion3921"><rect
           id="rect3923"
           width="82.832512"
           height="65.659912"
           x="57.07362"
           y="819.01697" /></flowRegion><flowPara
         id="flowPara3925"
         style="font-size:22px;font-style:normal;font-variant:normal;font-weight:bold;font-stretch:normal;text-align:start;line-height:125%;writing-mode:lr-tb;text-anchor:start;fill:none;stroke:#353535;stroke-width:0.5;stroke-miterlimit:3.9000001;stroke-opacity:1;stroke-dasharray:none;font-family:FreeMono;-inkscape-font-specification:FreeMono Bold">Sales </flowPara><flowPara
         id="flowPara3927"
         style="font-size:22px;font-style:normal;font-variant:normal;font-weight:bold;font-stretch:normal;text-align:start;line-height:125%;writing-mode:lr-tb;text-anchor:start;fill:none;stroke:#353535;stroke-width:0.5;stroke-miterlimit:3.9000001;stroke-opacity:1;stroke-dasharray:none;font-family:FreeMono;-inkscape-font-specification:FreeMono Bold">Ledger</flowPara></flowRoot>    <rect
       style="fill:none;stroke:#353535;stroke-width:0.5;stroke-linejoin:round;stroke-miterlimit:3.9000001;stroke-opacity:1;stroke-dasharray:none"
       id="rect3945"
       width="128.28937"
       height="64.144684"
       x="299.51022"
       y="910.43573"
       ry="8.0812206" />
    <path
       style="fill:none;stroke:#000000;stroke-width:0.5;stroke-linecap:butt;stroke-linejoin:miter;stroke-miterlimit:4;stroke-opacity:1;stroke-dasharray:none"
       d="m 426.28437,971.04491 15.15229,-17.1726 -0.50508,-41.92133 c 0,0 -4.12713,-4.04854 -6.56599,-5.55584 -4.36276,-2.69633 -9.01929,-6.30647 -14.14213,-6.06091 -12.43093,0.59586 -28.78935,0 -28.78935,0 0,0 -9.10422,-10.29914 -11.11168,-16.66752 -2.22765,-7.06691 -0.50508,-22.22336 -0.50508,-22.22336 0,0 6.95559,-5.74229 9.09138,-9.59645 2.27616,-4.10746 4.76936,-9.10607 3.53553,-13.63706 -1.37626,-5.05406 -11.11168,-11.11167 -11.11168,-11.11167 l -25.75889,1.01015 c 0,0 -7.27319,4.73988 -8.08122,8.5863 -1.13853,5.41966 2.82844,10.83759 5.55584,15.65736 1.82602,3.22689 7.07107,8.5863 7.07107,8.5863 0,0 2.69917,14.81729 0.50508,21.71828 -2.22412,6.99546 -13.13199,17.67767 -13.13199,17.67767 0,0 -16.97489,-1.52353 -25.25381,0 -3.72091,0.68474 -7.36429,2.09088 -10.6066,4.04061 -4.60119,2.76688 -12.12183,10.6066 -12.12183,10.6066 0,0 1.61712,-4.47842 3.53553,-4.54569 34.84816,-1.22198 118.18785,-0.50508 118.18785,-0.50508 0,0 3.79136,1.12646 5.05076,2.52539 0.96243,1.06906 1.51523,4.04061 1.51523,4.04061 l 0.50508,50.00255 z"
       id="path3947"
       inkscape:connector-curvature="0"
       sodipodi:nodetypes="cccsscscssccsscscsscscsccc" />
    <rect
       style="fill:none;stroke:#353535;stroke-width:0.5;stroke-linejoin:round;stroke-miterlimit:4;stroke-opacity:1;stroke-dasharray:none"
       id="rect3949"
       width="117.68277"
       height="53.033009"
       x="304.05591"
       y="916.49664" />
    <flowRoot
       xml:space="preserve"
       id="flowRoot3951"
       style="font-size:28px;font-style:normal;font-variant:normal;font-weight:bold;font-stretch:normal;text-align:center;line-height:100%;letter-spacing:0px;word-spacing:0px;writing-mode:lr-tb;text-anchor:middle;fill:none;fill-opacity:1;stroke:#353535;font-family:Nimbus Roman No9 L;-inkscape-font-specification:Nimbus Roman No9 L Bold;stroke-opacity:1;stroke-width:0.69356676;stroke-miterlimit:4;stroke-dasharray:none"
       transform="matrix(0.95561476,0,0,1,0.62262922,7.576144)"><flowRegion
         id="flowRegion3953"><rect
           id="rect3955"
           width="140.91626"
           height="56.06348"
           x="307.59146"
           y="922.05249"
           style="font-size:28px;font-style:normal;font-variant:normal;font-weight:bold;font-stretch:normal;text-align:center;line-height:100%;writing-mode:lr-tb;text-anchor:middle;font-family:Nimbus Roman No9 L;-inkscape-font-specification:Nimbus Roman No9 L Bold;fill:none;stroke:#353535;stroke-opacity:1;stroke-width:0.69356676;stroke-miterlimit:4;stroke-dasharray:none" /></flowRegion><flowPara
         id="flowPara3957"
         style="font-size:28px;font-style:normal;font-variant:normal;font-weight:bold;font-stretch:normal;text-align:center;line-height:100%;writing-mode:lr-tb;text-anchor:middle;font-family:Nimbus Roman No9 L;-inkscape-font-specification:Nimbus Roman No9 L Bold;fill:none;stroke:#353535;stroke-opacity:1;stroke-width:0.69356676;stroke-miterlimit:4;stroke-dasharray:none">Reconcile</flowPara></flowRoot>    <path
       style="fill:none;stroke:#000000;stroke-width:0.6;stroke-linecap:butt;stroke-linejoin:miter;stroke-opacity:1;stroke-miterlimit:4;stroke-dasharray:none"
       d="m 529.82501,904.37484 c 0,0 40.92716,-7.88411 61.6193,-7.57615 23.33196,0.34725 69.19545,10.6066 69.19545,10.6066 l 0,16.16244 -58.50219,48.81908 0.41842,24.92206 c 0,0 -6.94253,4.75933 -10.87708,4.60693 -4.06695,-0.1574 -10.8412,-5.61708 -10.8412,-5.61708 l 0.12255,-23.76397 -48.60987,-49.08957 z"
       id="path3959"
       inkscape:connector-curvature="0"
       sodipodi:nodetypes="csccccscccc" />
    <path
       style="fill:none;stroke:#000000;stroke-width:0.5;stroke-linecap:butt;stroke-linejoin:miter;stroke-opacity:1;stroke-miterlimit:3.9;stroke-dasharray:none"
       d="m 532.14285,923.07647 c 0,0 39.5229,-9.1447 59.64286,-9.28572 C 614.74931,913.6298 660,923.43361 660,923.43361 l -58.21429,48.57143 c 0,0 -7.15627,4.00596 -11.07142,3.92857 -3.20484,-0.0634 -8.92858,-3.57143 -8.92858,-3.57143 z"
       id="path3961"
       inkscape:connector-curvature="0"
       sodipodi:nodetypes="csccscc" />
    <path
       style="fill:none;stroke:#000000;stroke-width:0.5;stroke-linecap:butt;stroke-linejoin:miter;stroke-miterlimit:4;stroke-opacity:1;stroke-dasharray:none"
       d="m 666.07142,865.21933 c 0,0 -8.84508,13.71898 -16.07142,15.35714 -7.45316,1.68958 -14.33885,-5.4258 -21.78572,-7.14286 -5.97166,-1.37691 -12.33203,-4.21923 -18.21428,-2.5 -7.05223,2.06119 -16.78572,14.28572 -16.78572,14.28572 l -17.85714,-37.5 c 0,0 8.72815,-10.76073 15,-12.5 8.24217,-2.28566 17.09647,1.7107 25.35714,3.92857 6.66165,1.78855 12.54464,8.96097 19.28572,7.5 6.66433,-1.44434 14.28571,-14.64286 14.28571,-14.64286 z"
       id="path3963"
       inkscape:connector-curvature="0"
       sodipodi:nodetypes="csssccssscc" />
    <path
       style="fill:none;stroke:#000000;stroke-width:0.5;stroke-linecap:butt;stroke-linejoin:miter;stroke-miterlimit:4;stroke-opacity:1;stroke-dasharray:none"
       d="m 658.57142,858.61219 c 0,0 -8.84508,13.71898 -16.07142,15.35714 -7.45316,1.68958 -14.33885,-5.4258 -21.78572,-7.14286 -5.97166,-1.37691 -12.33203,-4.21923 -18.21428,-2.5 -7.05223,2.06119 -16.78572,14.28572 -16.78572,14.28572 l -17.85714,-37.5 c 0,0 8.72815,-10.76073 15,-12.5 8.24217,-2.28566 17.09647,1.7107 25.35714,3.92857 6.66165,1.78855 12.54464,8.96097 19.28572,7.5 6.66433,-1.44434 14.28571,-14.64286 14.28571,-14.64286 z"
       id="path3963-4"
       inkscape:connector-curvature="0"
       sodipodi:nodetypes="csssccssscc" />
    <path
       style="fill:#ffffff;stroke:#000000;stroke-width:0.50000000000000000;stroke-linecap:butt;stroke-linejoin:miter;stroke-miterlimit:4;stroke-opacity:1;stroke-dasharray:none;fill-opacity:1"
       d="m 605.53572,897.00504 c 0,0 13.71898,-8.84508 15.35714,-16.07142 1.68958,-7.45316 -5.4258,-14.33885 -7.14286,-21.78572 -1.37691,-5.97166 -4.21923,-12.33203 -2.5,-18.21428 2.06119,-7.05223 14.28572,-16.78572 14.28572,-16.78572 l -37.5,-17.85714 c 0,0 -10.76073,8.72815 -12.5,15 -2.28566,8.24217 1.7107,17.09647 3.92857,25.35714 1.78855,6.66165 8.96097,12.54464 7.5,19.28572 -1.44434,6.66433 -14.64286,14.28571 -14.64286,14.28571 z"
       id="path3963-2"
       inkscape:connector-curvature="0"
       sodipodi:nodetypes="csssccssscc" />
    <path
       sodipodi:type="arc"
       style="fill:#ffffff;fill-opacity:1;stroke:#353535;stroke-width:0.5;stroke-linejoin:round;stroke-miterlimit:4;stroke-opacity:1;stroke-dasharray:none"
       id="path3990"
       sodipodi:cx="548.39288"
       sodipodi:cy="866.64789"
       sodipodi:rx="11.607142"
       sodipodi:ry="11.785714"
       d="m 537.16317,863.66685 a 11.607142,11.785714 0 1 1 -0.17025,0.76417"
       sodipodi:start="3.3973071"
       sodipodi:end="9.6140029"
       sodipodi:open="true" />
    <path
       sodipodi:type="arc"
       style="fill:#ffffff;fill-opacity:1;stroke:#353535;stroke-width:0.5;stroke-linejoin:round;stroke-miterlimit:4;stroke-opacity:1;stroke-dasharray:none"
       id="path3992"
       sodipodi:cx="538.92859"
       sodipodi:cy="875.93359"
       sodipodi:rx="12.5"
       sodipodi:ry="13.214286"
       d="m 526.83505,872.59122 a 12.5,13.214286 0 1 1 -0.18334,0.8568"
       sodipodi:start="3.3973071"
       sodipodi:end="9.6140029"
       sodipodi:open="true" />
    <path
       sodipodi:type="arc"
       style="fill:#ffffff;fill-opacity:1;stroke:#353535;stroke-width:0.5;stroke-linejoin:round;stroke-miterlimit:4;stroke-opacity:1;stroke-dasharray:none"
       id="path3994"
       sodipodi:cx="548.03571"
       sodipodi:cy="849.14789"
       sodipodi:rx="11.607142"
       sodipodi:ry="11.785714"
       d="m 536.80599,846.16685 a 11.607142,11.785714 0 1 1 -0.17024,0.76417"
       sodipodi:start="3.3973071"
       sodipodi:end="9.6140029"
       sodipodi:open="true" />
  </g>
</svg>
