<?xml version="1.0" encoding="UTF-8" standalone="no"?>
<!-- Created with Inkscape (http://www.inkscape.org/) -->

<svg
   xmlns:dc="http://purl.org/dc/elements/1.1/"
   xmlns:cc="http://creativecommons.org/ns#"
   xmlns:rdf="http://www.w3.org/1999/02/22-rdf-syntax-ns#"
   xmlns:svg="http://www.w3.org/2000/svg"
   xmlns="http://www.w3.org/2000/svg"
   xmlns:sodipodi="http://sodipodi.sourceforge.net/DTD/sodipodi-0.dtd"
   xmlns:inkscape="http://www.inkscape.org/namespaces/inkscape"
   width="744.09448819"
   height="1052.3622047"
   id="svg2"
   version="1.1"
   inkscape:version="0.48.4 r9939"
   sodipodi:docname="8_email_pm_icons_outlines.svg">
  <defs
     id="defs4" />
  <sodipodi:namedview
     id="base"
     pagecolor="#ffffff"
     bordercolor="#666666"
     borderopacity="1.0"
     inkscape:pageopacity="0.0"
     inkscape:pageshadow="2"
     inkscape:zoom="1.979899"
     inkscape:cx="580.20566"
     inkscape:cy="119.42262"
     inkscape:document-units="px"
     inkscape:current-layer="layer1"
     showgrid="false"
     showguides="false"
     inkscape:window-width="1440"
     inkscape:window-height="844"
     inkscape:window-x="-6"
     inkscape:window-y="0"
     inkscape:window-maximized="1" />
  <metadata
     id="metadata7">
    <rdf:RDF>
      <cc:Work
         rdf:about="">
        <dc:format>image/svg+xml</dc:format>
        <dc:type
           rdf:resource="http://purl.org/dc/dcmitype/StillImage" />
        <dc:title />
      </cc:Work>
    </rdf:RDF>
  </metadata>
  <g
     inkscape:label="Layer 1"
     inkscape:groupmode="layer"
     id="layer1">
    <rect
       style="fill:#a2a2a2;stroke:#373737;stroke-width:0.69999999000000002;stroke-miterlimit:4;stroke-opacity:1;stroke-dasharray:none;fill-opacity:1"
       id="rect3801"
       width="745.71429"
       height="1051.4286"
       x="-2.8571429"
       y="0.93361121" />
    <rect
       style="fill:#ffffff;fill-opacity:1;stroke:#373737;stroke-width:0.69999999;stroke-miterlimit:4;stroke-opacity:1;stroke-dasharray:none"
       id="rect2985"
       width="222.85715"
       height="222.85715"
       x="17.142857"
       y="798.07648" />
    <rect
       style="fill:#ffffff;fill-opacity:1;stroke:#373737;stroke-width:0.69999999;stroke-miterlimit:4;stroke-opacity:1;stroke-dasharray:none"
       id="rect2985-5"
       width="222.85715"
       height="222.85715"
       x="262.85712"
       y="795.2193" />
    <rect
       style="fill:#ffffff;fill-opacity:1;stroke:#373737;stroke-width:0.69999999;stroke-miterlimit:4;stroke-opacity:1;stroke-dasharray:none"
       id="rect2985-6"
       width="222.85715"
       height="222.85715"
       x="502.85715"
       y="798.07648" />
    <rect
       style="fill:#ffffff;fill-opacity:1;stroke:#373737;stroke-width:0.69999999;stroke-miterlimit:4;stroke-opacity:1;stroke-dasharray:none"
       id="rect2985-0"
       width="222.85715"
       height="222.85715"
       x="502.85715"
       y="543.79077" />
    <rect
       style="fill:#ffffff;fill-opacity:1;stroke:#373737;stroke-width:0.69999999;stroke-miterlimit:4;stroke-opacity:1;stroke-dasharray:none"
       id="rect2985-1"
       width="222.85715"
       height="222.85715"
       x="502.85715"
       y="289.505" />
    <rect
       style="fill:#ffffff;fill-opacity:1;stroke:#373737;stroke-width:0.69999999;stroke-miterlimit:4;stroke-opacity:1;stroke-dasharray:none"
       id="rect2985-3"
       width="222.85715"
       height="222.85715"
       x="502.85715"
       y="35.219326" />
    <rect
       style="fill:#ffffff;fill-opacity:1;stroke:#373737;stroke-width:0.69999999;stroke-miterlimit:4;stroke-opacity:1;stroke-dasharray:none"
       id="rect2985-3-5"
       width="222.85715"
       height="222.85715"
       x="262.85712"
       y="542.83838" />
    <rect
       style="fill:#ffffff;fill-opacity:1;stroke:#373737;stroke-width:0.69999999;stroke-miterlimit:4;stroke-opacity:1;stroke-dasharray:none"
       id="rect2985-3-8"
       width="222.85715"
       height="222.85715"
       x="262.85712"
       y="290.45743" />
    <rect
       style="fill:#ffffff;fill-opacity:1;stroke:#373737;stroke-width:0.69999999;stroke-miterlimit:4;stroke-opacity:1;stroke-dasharray:none"
       id="rect2985-3-9"
       width="222.85715"
       height="222.85715"
       x="262.85712"
       y="38.076469" />
    <rect
       style="fill:#ffffff;fill-opacity:1;stroke:#373737;stroke-width:0.69999999;stroke-miterlimit:4;stroke-opacity:1;stroke-dasharray:none"
       id="rect2985-3-1"
       width="222.85715"
       height="222.85715"
       x="17.142857"
       y="40.933609" />
    <rect
       style="fill:#ffffff;fill-opacity:1;stroke:#373737;stroke-width:0.69999999;stroke-miterlimit:4;stroke-opacity:1;stroke-dasharray:none"
       id="rect2985-3-2"
       width="222.85715"
       height="222.85715"
       x="17.142857"
       y="293.31451" />
    <rect
       style="fill:#ffffff;fill-opacity:1;stroke:#373737;stroke-width:0.69999999;stroke-miterlimit:4;stroke-opacity:1;stroke-dasharray:none"
       id="rect2985-3-4"
       width="222.85715"
       height="222.85715"
       x="17.142857"
       y="545.6955" />
    <path
       style="fill:none;stroke:#000000;stroke-width:1.19432259;stroke-linecap:butt;stroke-linejoin:miter;stroke-miterlimit:4;stroke-opacity:1;stroke-dasharray:none"
       d="m 40.101137,232.93467 182.942463,0 L 222.31184,79.095153 40.832907,78.318185 z"
       id="path2995"
       inkscape:connector-curvature="0"
       sodipodi:nodetypes="ccccc" />
    <path
       style="fill:none;stroke:#000000;stroke-width:1.49290323px;stroke-linecap:butt;stroke-linejoin:miter;stroke-opacity:1"
       d="M 41.564677,78.318184 132.30414,153.68401 z"
       id="path3765"
       inkscape:connector-curvature="0" />
    <path
       style="fill:none;stroke:#000000;stroke-width:1.49290323px;stroke-linecap:butt;stroke-linejoin:miter;stroke-opacity:1"
       d="M 220.84829,79.095153 132.30414,153.68401 z"
       id="path3767"
       inkscape:connector-curvature="0" />
    <path
       style="fill:#ffffff;fill-opacity:1;stroke:#000000;stroke-width:0.69999999;stroke-linecap:butt;stroke-linejoin:miter;stroke-miterlimit:4;stroke-opacity:1;stroke-dasharray:none"
       d="m 26.769042,165.95332 52.022857,0 -0.505077,34.34519 61.619308,-67.68022 -62.124384,-60.104077 0,29.294427 -51.012703,-0.50508 z"
       id="path3769"
       inkscape:connector-curvature="0"
       sodipodi:nodetypes="cccccccc" />
    <path
       style="fill:none;stroke:#000000;stroke-width:1px;stroke-linecap:butt;stroke-linejoin:miter;stroke-opacity:1"
       d="m 282.84271,221.25916 163.13964,0.50508 4.04061,-7.57614 2.02031,-119.197986 -11.61675,-30.80966 -151.01782,-1.51523 -10.10152,35.86042 0,112.126916 z"
       id="path2995-5"
       inkscape:connector-curvature="0"
       sodipodi:nodetypes="ccccccccc" />
    <path
       style="fill:none;stroke:#434343;stroke-width:0.60000002;stroke-linecap:butt;stroke-linejoin:miter;stroke-miterlimit:3.9000001;stroke-opacity:1;stroke-dasharray:none"
       d="m 430.83007,183.37844 -134.3503,-1.51522 c 0,0 -8.99306,-1.57361 -12.12183,-4.54569 -3.06138,-2.90806 -5.05076,-11.61676 -5.05076,-11.61676 0,0 4.63686,5.8464 7.57614,8.08122 3.17714,2.41567 6.61576,5.50214 10.6066,5.55584 50.53762,0.68007 134.3503,0.50508 134.3503,0.50508 0,0 7.63491,-1.69901 10.6066,-4.04061 3.04436,-2.39886 7.57614,-8.08122 7.57614,-8.08122 0,0 -2.05433,8.85094 -5.55583,12.12183 -3.43163,3.20563 -13.63706,3.53553 -13.63706,3.53553 z"
       id="path2997"
       inkscape:connector-curvature="0"
       sodipodi:nodetypes="ccscsscscsc" />
    <path
       id="path3796"
       style="fill:none;stroke:#000000;stroke-width:1px;stroke-linecap:butt;stroke-linejoin:miter;stroke-opacity:1"
       d="m 381.33259,101.30356 -0.50508,7.07107 z m -32.32489,20.70813 0,12.6269 z m -46.97209,17.17259 14.14214,0 z m 67.68021,-52.022857 45.45686,0 0,14.142137 -45.45686,0 z m -27.27411,21.718287 46.46702,0 0,14.14213 -46.46702,0 z m -25.75888,25.75889 37.37565,0 0,11.61675 -37.37565,0 z m -17.67768,23.73858 123.23861,0.50508 z m 3.03046,-74.246213 0,79.802053 z m -6.56601,-6.565987 132.83506,0 0,92.42895 -132.83506,0 z" />
    <path
       inkscape:connector-curvature="0"
       id="path3796-0"
       style="fill:none;stroke:#000000;stroke-width:0.6;stroke-linecap:butt;stroke-linejoin:miter;stroke-opacity:1;stroke-miterlimit:4;stroke-dasharray:none"
       d="m 639.97128,100.17575 -0.71601,12.59015 z m -45.82445,36.87114 0,22.4824 z m -66.58863,30.57607 20.0482,0 z m 95.9449,-92.627497 64.4406,0 0,25.180287 -64.4406,0 z m -38.66435,38.669737 65.87262,0 0,25.18028 -65.87262,0 z m -36.51634,45.8641 52.98451,0 0,20.68381 -52.98451,0 z m -25.06025,42.26692 174.70566,0.8993 z m 4.29604,-132.196539 0,142.088799 z m -9.30811,-11.690848 188.30979,0 0,164.571187 -188.30979,0 z" />
    <path
       style="fill:none;stroke:#000000;stroke-width:1.07379687px;stroke-linecap:butt;stroke-linejoin:miter;stroke-opacity:1"
       d="m 31.640312,484.33432 176.424948,0.53852 4.36966,-8.07777 2.18483,-127.09038 -12.56276,-32.84963 -163.315985,-1.61556 -10.924151,38.23482 0,119.55111 z"
       id="path2995-2"
       inkscape:connector-curvature="0"
       sodipodi:nodetypes="ccccccccc" />
    <path
       style="fill:none;stroke:#434343;stroke-width:0.64427811;stroke-linecap:butt;stroke-linejoin:miter;stroke-miterlimit:3.9000001;stroke-opacity:1;stroke-dasharray:none"
       d="M 191.67905,443.94543 46.387899,442.32988 c 0,0 -9.725402,-1.6778 -13.108975,-4.84667 -3.310673,-3.10061 -5.46207,-12.38593 -5.46207,-12.38593 0,0 5.014475,6.2335 8.193116,8.61629 3.435871,2.57562 7.154516,5.86645 11.470352,5.92371 54.653168,0.7251 145.291138,0.53852 145.291138,0.53852 0,0 8.25666,-1.8115 11.47035,-4.30815 3.29228,-2.55769 8.19311,-8.61629 8.19311,-8.61629 0,0 -2.22163,9.43698 -6.00827,12.92444 -3.71109,3.41788 -14.7476,3.76963 -14.7476,3.76963 z"
       id="path2997-2"
       inkscape:connector-curvature="0"
       sodipodi:nodetypes="ccscsscscsc" />
    <path
       inkscape:connector-curvature="0"
       id="path3796-0-1"
       style="fill:none;stroke:#000000;stroke-width:0.60000002;stroke-linecap:butt;stroke-linejoin:miter;stroke-miterlimit:4;stroke-opacity:1;stroke-dasharray:none"
       d="m 396.77705,353.72405 -0.71601,12.59015 z m -45.82445,36.87114 0,22.4824 z m -66.58863,30.57607 20.0482,0 z m 95.9449,-92.6275 64.4406,0 0,25.18029 -64.4406,0 z m -38.66435,38.66974 65.87262,0 0,25.18028 -65.87262,0 z m -36.51634,45.8641 52.98451,0 0,20.68381 -52.98451,0 z m -25.06025,42.26692 174.70566,0.8993 z m 4.29604,-132.19654 0,142.0888 z m -9.30811,-11.69085 188.30979,0 0,164.57119 -188.30979,0 z" />
    <path
       id="path3837"
       style="fill:#ffffff;fill-opacity:1;stroke:#000000;stroke-width:0.40000001;stroke-linecap:butt;stroke-linejoin:miter;stroke-miterlimit:4;stroke-opacity:1;stroke-dasharray:none"
       d="m 342.65131,448.39917 119.198,-117.68277 z m -5.55584,-7.57614 119.19801,-118.69292 z m -8.08122,-2.02031 118.69293,-119.70308 z m -17.17259,38.3858 c 0,0 -0.35714,-7.14916 -3.03046,-8.5863 -2.44565,-1.31475 -8.08122,2.02031 -8.08122,2.02031 0,0 4.5112,-2.42252 6.56599,-1.51523 2.82731,1.24839 4.54569,8.08122 4.54569,8.08122 z m 9.09137,-38.3858 c 0,0 14.14471,-0.42907 18.68782,4.04061 3.69712,3.63736 3.53554,15.15229 3.53554,15.15229 0,0 -0.11568,-11.45794 -4.04061,-15.15229 -4.49605,-4.23192 -18.18275,-4.04061 -18.18275,-4.04061 z M 343.66146,459.00577 464.37469,341.323 c 0,0 1.50463,-11.69272 -8.08121,-19.1929 -6.5259,-5.10601 -16.66752,-1.51523 -16.66752,-1.51523 l -117.68278,116.67262 -33.84011,54.04316 z"
       inkscape:connector-curvature="0" />
    <rect
       style="fill:#ffffff;fill-opacity:1;stroke:#000000;stroke-width:0.60000002;stroke-linejoin:round;stroke-miterlimit:4;stroke-opacity:1;stroke-dasharray:none"
       id="rect3866"
       width="190.41376"
       height="178.797"
       x="513.6626"
       y="303.33408" />
    <rect
       style="fill:#ffffff;fill-opacity:1;stroke:#000000;stroke-width:0.56653994;stroke-linejoin:round;stroke-miterlimit:4;stroke-opacity:1;stroke-dasharray:none"
       id="rect3868"
       width="115.69593"
       height="32.863419"
       x="582.33624"
       y="336.65237" />
    <rect
       style="fill:#ffffff;fill-opacity:1;stroke:#000000;stroke-width:0.58799446;stroke-linejoin:round;stroke-miterlimit:4;stroke-opacity:1;stroke-dasharray:none"
       id="rect3870"
       width="177.79886"
       height="36.377499"
       x="519.71753"
       y="369.99814" />
    <rect
       style="fill:#ffffff;fill-opacity:1;stroke:#000000;stroke-width:0.61354548;stroke-linejoin:round;stroke-miterlimit:4;stroke-opacity:1;stroke-dasharray:none"
       id="rect3872"
       width="176.76314"
       height="34.331627"
       x="520.23535"
       y="406.3764" />
    <rect
       style="fill:#ffffff;fill-opacity:1;stroke:#000000;stroke-width:0.53062499;stroke-linejoin:round;stroke-miterlimit:4;stroke-opacity:1;stroke-dasharray:none"
       id="rect3872-6"
       width="131.89427"
       height="34.414547"
       x="520.19391"
       y="440.17505" />
    <flowRoot
       xml:space="preserve"
       id="flowRoot3892"
       style="font-size:12px;font-style:normal;font-variant:normal;font-weight:normal;font-stretch:normal;text-align:start;line-height:125%;letter-spacing:0px;word-spacing:0px;writing-mode:lr-tb;text-anchor:start;fill:#000000;fill-opacity:1;stroke:none;font-family:Sans;-inkscape-font-specification:Sans"><flowRegion
         id="flowRegion3894"><rect
           id="rect3896"
           width="181.32239"
           height="26.263966"
           x="516.18793"
           y="306.36453" /></flowRegion><flowPara
         id="flowPara3898"
         style="-inkscape-font-specification:Phetsarath OT;font-family:Phetsarath OT;font-weight:normal;font-style:normal;font-stretch:normal;font-variant:normal;font-size:18px;text-anchor:middle;text-align:center;writing-mode:lr;line-height:125%">August</flowPara></flowRoot>    <path
       style="fill:none;stroke:#000000;stroke-width:1.2;stroke-linecap:butt;stroke-linejoin:miter;stroke-opacity:1;stroke-miterlimit:4;stroke-dasharray:none"
       d="m 518.71333,327.57773 179.30208,0 z"
       id="path3900"
       inkscape:connector-curvature="0" />
    <path
       sodipodi:type="arc"
       style="fill:#ffffff;fill-opacity:1;stroke:#000000;stroke-width:0.5;stroke-linejoin:round;stroke-miterlimit:4;stroke-opacity:1;stroke-dasharray:none"
       id="path3902"
       sodipodi:cx="610.63721"
       sodipodi:cy="404.60187"
       sodipodi:rx="47.477173"
       sodipodi:ry="48.739861"
       d="m 658.11438,404.60187 a 47.477173,48.739861 0 1 1 -94.95435,0 47.477173,48.739861 0 1 1 94.95435,0 z" />
    <flowRoot
       xml:space="preserve"
       id="flowRoot3904"
       style="font-size:12px;font-style:normal;font-variant:normal;font-weight:normal;font-stretch:normal;text-align:start;line-height:125%;letter-spacing:0px;word-spacing:0px;writing-mode:lr-tb;text-anchor:start;fill:none;fill-opacity:1;stroke:#000000;font-family:Sans;-inkscape-font-specification:Sans;stroke-opacity:1;stroke-width:0.18381975;stroke-miterlimit:4;stroke-dasharray:none"
       transform="matrix(3.420584,0,0,3.1147119,-1434.4229,-832.91677)"><flowRegion
         id="flowRegion3906"><rect
           id="rect3908"
           width="63.63961"
           height="70.710678"
           x="580.83771"
           y="370.00415"
           style="fill:none;stroke:#000000;stroke-opacity:1;stroke-width:0.18381975;stroke-miterlimit:4;stroke-dasharray:none" /></flowRegion><flowPara
         id="flowPara3910"
         style="font-size:40px;font-style:normal;font-variant:normal;font-weight:bold;font-stretch:normal;text-align:start;line-height:125%;writing-mode:lr-tb;text-anchor:start;font-family:Sans;-inkscape-font-specification:Sans Bold;fill:none;stroke:#000000;stroke-opacity:1;stroke-width:0.18381975;stroke-miterlimit:4;stroke-dasharray:none">+</flowPara></flowRoot>    <path
       style="fill:none;stroke:#000000;stroke-width:0.6;stroke-linecap:butt;stroke-linejoin:miter;stroke-opacity:1;stroke-miterlimit:4;stroke-dasharray:none"
       d="m 164.65486,686.68696 c 12.09121,8.2961 30.28259,2.17835 42.93149,9.59645 3.70256,2.17141 9.45689,5.39335 8.58629,9.59645 -1.46677,7.08128 -12.77826,6.99053 -19.69797,9.09137 -16.47378,5.00149 -33.88999,6.28872 -51.0127,8.08122 -16.26361,1.70256 -32.74681,4.39202 -48.992402,2.52538 -11.487369,-1.31991 -21.773887,-9.39225 -33.335034,-9.59645 -7.63458,-0.13484 -14.359,0.87386 -20.203051,-4.04061 -7.105669,-5.97542 -4.779202,-10.22313 0,-18.18274 2.765166,-4.60529 8.513524,-6.97253 13.63706,-8.5863 9.967709,-3.13955 20.918705,-0.45 31.314728,-1.51523 11.867599,-1.21602 23.425619,-5.53664 35.355339,-5.55584 4.42882,-0.007 8.73446,2.546 13.13198,2.02031 3.07336,-0.3674 8.5863,-3.53553 8.5863,-3.53553 0,0 2.80323,-20.49272 3.03046,-30.80966 0.27474,-12.47371 -2.02031,-37.37564 -2.02031,-37.37564 0,0 -9.39238,14.12162 -11.11168,22.22335 -0.76969,3.62695 0.50508,11.11168 0.50508,11.11168 0,0 -8.66368,-13.58525 -8.5863,-21.2132 0.078,-7.6927 9.09138,-21.2132 9.09138,-21.2132 0,0 -15.17449,-3.17762 -21.21321,0.50507 -3.60207,2.19671 -6.06091,11.11168 -6.06091,11.11168 0,0 -3.26676,-15.97988 1.51523,-21.2132 4.94769,-5.41466 21.71828,-3.53554 21.71828,-3.53554 0,0 -8.17151,-4.56975 -11.11168,-8.08122 -4.20552,-5.02269 -8.5863,-17.67767 -8.5863,-17.67767 0,0 14.93407,4.32181 20.20305,9.59645 2.50149,2.50418 4.54569,9.59645 4.54569,9.59645 0,0 9.62897,-6.4011 15.15229,-7.57614 7.41762,-1.57803 22.72843,1.01015 22.72843,1.01015 0,0 -11.88896,5.70518 -18.18275,7.57614 -4.43132,1.3173 -13.63705,2.52539 -13.63705,2.52539 0,0 15.20956,-3.16838 22.72843,-2.02031 8.28312,1.26477 23.23351,9.59645 23.23351,9.59645 0,0 -13.4687,0 -20.20305,0 -7.07107,0 -21.21321,0 -21.21321,0 0,0 18.66827,0.38345 26.26397,5.05076 5.62362,3.45553 12.12183,15.65737 12.12183,15.65737 0,0 -11.86486,-8.4269 -18.68782,-10.60661 -6.28739,-2.00861 -19.69798,-2.0203 -19.69798,-2.0203 0,0 12.57292,4.48077 17.67767,8.5863 6.35171,5.10839 15.15229,19.19289 15.15229,19.19289 0,0 -13.31431,-1.04923 -18.68782,-4.54568 -4.62893,-3.01196 -10.10153,-13.13199 -10.10153,-13.13199 l 5.55584,8.5863 c 0,0 2.35101,16.45816 2.52538,24.74874 0.23761,11.29762 -2.0203,33.84011 -2.0203,33.84011 0,0 3.56731,8.20258 7.07106,10.6066 z"
       id="path3912"
       inkscape:connector-curvature="0"
       sodipodi:nodetypes="ssssssssssssscscscscscscscscscscscscscscscsccscs" />
    <path
       style="fill:none;stroke:#686868;stroke-width:1.41793001px;stroke-linecap:butt;stroke-linejoin:miter;stroke-opacity:1"
       d="m 290.59883,726.6738 c 0,0 45.24806,20.09687 69.58684,20.431 23.02472,0.3161 66.4238,-17.51228 66.4238,-17.51228 0,0 -4.78332,-37.07568 -11.5978,-54.48267 -4.48843,-11.46532 -8.96052,-24.15868 -18.97822,-32.10586 -6.23862,-4.94917 -23.19562,-7.78325 -23.19562,-7.78325 l -1.05434,-5.83742 c 0,0 12.47107,-5.88775 16.86953,-10.70195 3.24346,-3.55002 4.67414,-8.26182 6.32607,-12.64777 4.19124,-11.12787 2.10869,-22.3768 2.10869,-22.3768 0,0 -3.96551,-16.7309 -17.92387,-24.32261 -8.44506,-4.59312 -18.66451,-6.81716 -28.46735,-6.81034 -8.35384,0.005 -16.8491,5.6894 -23.19562,10.70195 -6.69633,5.28885 -10.25069,10.78502 -11.59781,17.51228 -1.75353,8.75679 1.56414,18.04684 5.27173,26.26843 2.13489,4.73413 5.67033,8.92275 9.48911,12.64776 2.75377,2.68614 9.48914,6.81033 9.48914,6.81033 l 0,7.78324 c 0,0 -17.63267,1.86965 -25.30432,7.78324 -10.07039,7.76262 -14.17876,19.90142 -17.92389,31.13296 -5.71827,17.14898 -6.32607,53.50976 -6.32607,53.50976 z"
       id="path3037-9-3"
       inkscape:connector-curvature="0"
       sodipodi:nodetypes="cscssccsscssssssccssc" />
    <path
       style="fill:none;stroke:#686868;stroke-width:1px;stroke-linecap:butt;stroke-linejoin:miter;stroke-opacity:1"
       d="m 538.68344,692.41128 c 0,0 30.65411,14.75469 47.14285,15 15.59851,0.23207 45,-12.85714 45,-12.85714 0,0 -3.24055,-27.22016 -7.85714,-40 -3.04077,-8.41759 -6.07047,-17.73678 -12.85714,-23.57143 -4.22646,-3.63357 -15.71429,-5.71429 -15.71429,-5.71429 l -0.71428,-4.28571 c 0,0 8.44875,-4.32266 11.42857,-7.85714 2.19734,-2.60635 3.16658,-6.06565 4.28571,-9.28572 2.83943,-8.16985 1.42857,-16.42857 1.42857,-16.42857 0,0 -2.68651,-12.28347 -12.14285,-17.85714 -5.72126,-3.37217 -12.64461,-5.00501 -19.28572,-5 -5.65946,0.004 -11.41472,4.17703 -15.71428,7.85714 -4.53655,3.88296 -6.94452,7.91813 -7.85715,12.85714 -1.18796,6.42904 1.05966,13.2496 3.57143,19.28572 1.44632,3.4757 3.84147,6.55089 6.42857,9.28571 1.86559,1.97211 6.42858,5 6.42858,5 l 0,5.71429 c 0,0 -11.94556,1.37265 -17.14286,5.71428 -6.82237,5.69915 -9.60566,14.6112 -12.14286,22.85715 -3.87395,12.59041 -4.28571,39.28571 -4.28571,39.28571 z"
       id="path3037-9"
       inkscape:connector-curvature="0"
       sodipodi:nodetypes="cscssccsscssssssccssc" />
    <path
       style="fill:#ffffff;fill-opacity:1;stroke:#686868;stroke-width:1px;stroke-linecap:butt;stroke-linejoin:miter;stroke-opacity:1"
       d="m 605.8263,700.26843 c 0,0 30.65411,14.75469 47.14285,15 15.59851,0.23207 45,-12.85714 45,-12.85714 0,0 -3.24055,-27.22016 -7.85714,-40 -3.04077,-8.41759 -6.07047,-17.73678 -12.85714,-23.57143 -4.22646,-3.63357 -15.71429,-5.71429 -15.71429,-5.71429 l -0.71428,-4.28571 c 0,0 8.44875,-4.32266 11.42857,-7.85714 2.19734,-2.60635 3.16658,-6.06565 4.28571,-9.28572 2.83943,-8.16985 1.42857,-16.42857 1.42857,-16.42857 0,0 -2.68651,-12.28347 -12.14285,-17.85714 -5.72126,-3.37217 -12.64461,-5.00501 -19.28572,-5 -5.65946,0.004 -11.41472,4.17703 -15.71428,7.85714 -4.53655,3.88296 -6.94452,7.91813 -7.85715,12.85714 -1.18796,6.42904 1.05966,13.2496 3.57143,19.28572 1.44632,3.4757 3.84147,6.55089 6.42857,9.28571 1.86559,1.97211 6.42858,5 6.42858,5 l 0,5.71429 c 0,0 -11.94556,1.37265 -17.14286,5.71428 -6.82237,5.69915 -9.60566,14.6112 -12.14286,22.85715 -3.87395,12.59041 -4.28571,39.28571 -4.28571,39.28571 z"
       id="path3037-8"
       inkscape:connector-curvature="0"
       sodipodi:nodetypes="cscssccsscssssssccssc" />
    <path
       style="fill:#ffffff;fill-opacity:1;stroke:#686868;stroke-width:1px;stroke-linecap:butt;stroke-linejoin:miter;stroke-opacity:1"
       d="m 511.18344,710.98423 c 0,0 30.65411,14.75469 47.14285,15 15.59851,0.23207 45,-12.85714 45,-12.85714 0,0 -3.24055,-27.22016 -7.85714,-40 -3.04077,-8.41759 -6.07047,-17.73678 -12.85714,-23.57143 -4.22646,-3.63357 -15.71429,-5.71429 -15.71429,-5.71429 l -0.71428,-4.28571 c 0,0 8.44875,-4.32266 11.42857,-7.85714 2.19734,-2.60635 3.16658,-6.06565 4.28571,-9.28572 2.83943,-8.16985 1.42857,-16.42857 1.42857,-16.42857 0,0 -2.68651,-12.28347 -12.14285,-17.85714 -5.72126,-3.37217 -12.64461,-5.00501 -19.28572,-5 -5.65946,0.004 -11.41472,4.17703 -15.71428,7.85714 -4.53655,3.88296 -6.94452,7.91813 -7.85715,12.85714 -1.18796,6.42904 1.05966,13.2496 3.57143,19.28572 1.44632,3.4757 3.84147,6.55089 6.42857,9.28571 1.86559,1.97211 6.42858,5 6.42858,5 l 0,5.71429 c 0,0 -11.94556,1.37265 -17.14286,5.71428 -6.82237,5.69915 -9.60566,14.6112 -12.14286,22.85715 -3.87395,12.59041 -4.28571,39.28571 -4.28571,39.28571 z"
       id="path3037"
       inkscape:connector-curvature="0"
       sodipodi:nodetypes="cscssccsscssssssccssc" />
    <flowRoot
       xml:space="preserve"
       id="flowRoot3932"
       style="font-size:12px;font-style:normal;font-variant:normal;font-weight:normal;font-stretch:normal;text-align:start;line-height:125%;letter-spacing:0px;word-spacing:0px;writing-mode:lr-tb;text-anchor:start;fill:none;fill-opacity:1;stroke:#000000;font-family:Sans;-inkscape-font-specification:Sans;stroke-opacity:1;stroke-width:0.21610258;stroke-miterlimit:4;stroke-dasharray:none"
       transform="matrix(2.7764592,0,0,2.7764592,-44.923495,-1480.7951)"><flowRegion
         id="flowRegion3934"><rect
           id="rect3936"
           width="168.1904"
           height="177.28177"
           x="39.39595"
           y="815.48138"
           style="fill:none;stroke:#000000;stroke-opacity:1;stroke-width:0.21610258;stroke-miterlimit:4;stroke-dasharray:none" /></flowRegion><flowPara
         id="flowPara3938"
         style="font-size:72px;font-style:normal;font-variant:normal;font-weight:bold;font-stretch:normal;text-align:start;line-height:125%;writing-mode:lr-tb;text-anchor:start;font-family:Nimbus Roman No9 L;-inkscape-font-specification:Nimbus Roman No9 L Bold;fill:none;stroke:#000000;stroke-opacity:1;stroke-width:0.21610258;stroke-miterlimit:4;stroke-dasharray:none">$</flowPara></flowRoot>    <flowRoot
       xml:space="preserve"
       id="flowRoot3940"
       style="font-size:12px;font-style:normal;font-variant:normal;font-weight:normal;font-stretch:normal;text-align:start;line-height:125%;letter-spacing:0px;word-spacing:0px;writing-mode:lr-tb;text-anchor:start;fill:#000000;fill-opacity:1;stroke:none;font-family:Sans;-inkscape-font-specification:Sans"><flowRegion
         id="flowRegion3942"><rect
           id="rect3944"
           width="99.500023"
           height="12.121831"
           x="75.761444"
           y="785.17682" /></flowRegion><flowPara
         id="flowPara3946">resourcesr</flowPara></flowRoot>    <flowRoot
       xml:space="preserve"
       id="flowRoot3948"
       style="font-size:12px;font-style:normal;font-variant:normal;font-weight:normal;font-stretch:normal;text-align:start;line-height:125%;letter-spacing:0px;word-spacing:0px;writing-mode:lr-tb;text-anchor:start;fill:#000000;fill-opacity:1;stroke:none;font-family:Sans;-inkscape-font-specification:Sans"><flowRegion
         id="flowRegion3950"><rect
           id="rect3952"
           width="124.24876"
           height="15.657365"
           x="57.07362"
           y="784.67175" /></flowRegion><flowPara
         id="flowPara3954">resources</flowPara></flowRoot>    <flowRoot
       xml:space="preserve"
       id="flowRoot3956"
       style="font-size:12px;font-style:normal;font-variant:normal;font-weight:normal;font-stretch:normal;text-align:start;line-height:125%;letter-spacing:0px;word-spacing:0px;writing-mode:lr-tb;text-anchor:start;fill:none;fill-opacity:1;stroke:#000000;font-family:Sans;-inkscape-font-specification:Sans;stroke-opacity:1;stroke-width:0.64101684;stroke-miterlimit:4;stroke-dasharray:none"
       transform="matrix(1.3915391,0,0,1.3915391,-110.12606,-324.63472)"><flowRegion
         id="flowRegion3958"><rect
           id="rect3960"
           width="161.6244"
           height="64.649765"
           x="280.31732"
           y="815.98651"
           style="fill:none;stroke:#000000;stroke-opacity:1;stroke-width:0.64101684;stroke-miterlimit:4;stroke-dasharray:none" /></flowRegion><flowPara
         id="flowPara3962"
         style="font-size:56px;font-style:normal;font-variant:normal;font-weight:bold;font-stretch:normal;text-align:start;line-height:125%;writing-mode:lr-tb;text-anchor:start;font-family:Nimbus Roman No9 L;-inkscape-font-specification:Nimbus Roman No9 L Bold;fill:none;stroke:#000000;stroke-opacity:1;stroke-width:0.64101684;stroke-miterlimit:4;stroke-dasharray:none">2014</flowPara></flowRoot>    <flowRoot
       xml:space="preserve"
       id="flowRoot3964"
       style="font-size:12px;font-style:normal;font-variant:normal;font-weight:normal;font-stretch:normal;text-align:start;line-height:125%;letter-spacing:0px;word-spacing:0px;writing-mode:lr-tb;text-anchor:start;fill:#000000;fill-opacity:1;stroke:none;font-family:Sans;-inkscape-font-specification:Sans"
       transform="matrix(1,0,0,1.2548611,0,-230.15754)"><flowRegion
         id="flowRegion3966"><rect
           id="rect3968"
           width="168.69548"
           height="87.378197"
           x="279.30719"
           y="890.23273" /></flowRegion><flowPara
         id="flowPara3970"
         style="font-size:48px;font-style:normal;font-variant:normal;font-weight:bold;font-stretch:normal;text-align:center;line-height:125%;writing-mode:lr-tb;text-anchor:middle;fill:none;stroke:#000000;stroke-opacity:1;font-family:Sans;-inkscape-font-specification:Sans Bold">To Do</flowPara></flowRoot>    <rect
       style="fill:none;stroke:#545454;stroke-width:0.69199999999999995;stroke-linejoin:round;stroke-miterlimit:4;stroke-opacity:1;stroke-dasharray:none"
       id="rect3972"
       width="184.35284"
       height="41.416256"
       x="519.72351"
       y="830.1286" />
    <rect
       style="fill:none;stroke:#545454;stroke-width:0.69199997;stroke-linejoin:round;stroke-miterlimit:4;stroke-opacity:1;stroke-dasharray:none"
       id="rect3974"
       width="130.81476"
       height="38.385796"
       x="519.72351"
       y="871.54486" />
    <path
       style="fill:none;stroke:#444444;stroke-width:0.7;stroke-linecap:butt;stroke-linejoin:miter;stroke-opacity:1;stroke-miterlimit:4;stroke-dasharray:none"
       d="m 562.14989,830.6337 0.50508,78.7919 z"
       id="path3976"
       inkscape:connector-curvature="0" />
    <path
       style="fill:none;stroke:#4c4c4c;stroke-width:0.69999999999999996;stroke-linecap:butt;stroke-linejoin:miter;stroke-opacity:1;stroke-miterlimit:4;stroke-dasharray:none"
       d="m 609.62706,829.62355 1.01015,80.30712 z"
       id="path3978"
       inkscape:connector-curvature="0" />
    <path
       style="fill:none;stroke:#555555;stroke-width:1px;stroke-linecap:butt;stroke-linejoin:miter;stroke-opacity:1"
       d="m 652.55854,829.11847 0.50508,41.92133 z"
       id="path3980"
       inkscape:connector-curvature="0" />
    <flowRoot
       xml:space="preserve"
       id="flowRoot3964-8"
       style="font-size:12px;font-style:normal;font-variant:normal;font-weight:normal;font-stretch:normal;text-align:start;line-height:125%;letter-spacing:0px;word-spacing:0px;writing-mode:lr-tb;text-anchor:start;fill:#ffffff;fill-opacity:1;stroke:none;font-family:Sans;-inkscape-font-specification:Sans"
       transform="matrix(1,0,0,1.2548611,234.26969,-227.49627)"><flowRegion
         id="flowRegion3966-1"><rect
           id="rect3968-2"
           width="168.69548"
           height="87.378197"
           x="279.30719"
           y="890.23273"
           style="fill:#ffffff;fill-opacity:1" /></flowRegion><flowPara
         id="flowPara3970-7"
         style="font-size:48px;font-style:normal;font-variant:normal;font-weight:bold;font-stretch:normal;text-align:center;line-height:125%;writing-mode:lr-tb;text-anchor:middle;fill:#ffffff;stroke:#000000;stroke-opacity:1;font-family:Sans;-inkscape-font-specification:Sans Bold;fill-opacity:1">To Do</flowPara></flowRoot>  </g>
</svg>
