<?xml version="1.0" encoding="UTF-8" standalone="no"?>
<!-- Created with Inkscape (http://www.inkscape.org/) -->

<svg
   xmlns:dc="http://purl.org/dc/elements/1.1/"
   xmlns:cc="http://creativecommons.org/ns#"
   xmlns:rdf="http://www.w3.org/1999/02/22-rdf-syntax-ns#"
   xmlns:svg="http://www.w3.org/2000/svg"
   xmlns="http://www.w3.org/2000/svg"
   xmlns:sodipodi="http://sodipodi.sourceforge.net/DTD/sodipodi-0.dtd"
   xmlns:inkscape="http://www.inkscape.org/namespaces/inkscape"
   width="744.09448819"
   height="1052.3622047"
   id="svg2"
   version="1.1"
   inkscape:version="0.48.4 r9939"
   sodipodi:docname="3_icons.svg">
  <defs
     id="defs4" />
  <sodipodi:namedview
     id="base"
     pagecolor="#ffffff"
     bordercolor="#666666"
     borderopacity="1.0"
     inkscape:pageopacity="0.0"
     inkscape:pageshadow="2"
     inkscape:zoom="1.979899"
     inkscape:cx="126.04824"
     inkscape:cy="444.8294"
     inkscape:document-units="px"
     inkscape:current-layer="layer1"
     showgrid="false"
     showguides="false"
     inkscape:window-width="1440"
     inkscape:window-height="844"
     inkscape:window-x="-6"
     inkscape:window-y="0"
     inkscape:window-maximized="1" />
  <metadata
     id="metadata7">
    <rdf:RDF>
      <cc:Work
         rdf:about="">
        <dc:format>image/svg+xml</dc:format>
        <dc:type
           rdf:resource="http://purl.org/dc/dcmitype/StillImage" />
        <dc:title></dc:title>
      </cc:Work>
    </rdf:RDF>
  </metadata>
  <g
     inkscape:label="Layer 1"
     inkscape:groupmode="layer"
     id="layer1">
    <rect
       style="fill:#a2a2a2;stroke:#373737;stroke-width:0.69999999000000002;stroke-miterlimit:4;stroke-opacity:1;stroke-dasharray:none;fill-opacity:1"
       id="rect3801"
       width="745.71429"
       height="1051.4286"
       x="-2.8571429"
       y="0.93361121" />
    <rect
       style="fill:#ffffff;fill-opacity:1;stroke:#373737;stroke-width:0.69999999;stroke-miterlimit:4;stroke-opacity:1;stroke-dasharray:none"
       id="rect2985"
       width="222.85715"
       height="222.85715"
       x="17.142857"
       y="798.07648" />
    <rect
       style="fill:#ffffff;fill-opacity:1;stroke:#373737;stroke-width:0.69999999;stroke-miterlimit:4;stroke-opacity:1;stroke-dasharray:none"
       id="rect2985-5"
       width="222.85715"
       height="222.85715"
       x="262.85712"
       y="795.2193" />
    <rect
       style="fill:#ffffff;fill-opacity:1;stroke:#373737;stroke-width:0.69999999;stroke-miterlimit:4;stroke-opacity:1;stroke-dasharray:none"
       id="rect2985-6"
       width="222.85715"
       height="222.85715"
       x="502.85715"
       y="798.07648" />
    <rect
       style="fill:#ffffff;fill-opacity:1;stroke:#373737;stroke-width:0.69999999;stroke-miterlimit:4;stroke-opacity:1;stroke-dasharray:none"
       id="rect2985-0"
       width="222.85715"
       height="222.85715"
       x="502.85715"
       y="543.79077" />
    <rect
       style="fill:#ffffff;fill-opacity:1;stroke:#373737;stroke-width:0.69999999;stroke-miterlimit:4;stroke-opacity:1;stroke-dasharray:none"
       id="rect2985-1"
       width="222.85715"
       height="222.85715"
       x="502.85715"
       y="289.505" />
    <rect
       style="fill:#ffffff;fill-opacity:1;stroke:#373737;stroke-width:0.69999999;stroke-miterlimit:4;stroke-opacity:1;stroke-dasharray:none"
       id="rect2985-3"
       width="222.85715"
       height="222.85715"
       x="502.85715"
       y="35.219326" />
    <rect
       style="fill:#ffffff;fill-opacity:1;stroke:#373737;stroke-width:0.69999999;stroke-miterlimit:4;stroke-opacity:1;stroke-dasharray:none"
       id="rect2985-3-5"
       width="222.85715"
       height="222.85715"
       x="262.85712"
       y="542.83838" />
    <rect
       style="fill:#ffffff;fill-opacity:1;stroke:#373737;stroke-width:0.69999999;stroke-miterlimit:4;stroke-opacity:1;stroke-dasharray:none"
       id="rect2985-3-8"
       width="222.85715"
       height="222.85715"
       x="262.85712"
       y="290.45743" />
    <rect
       style="fill:#ffffff;fill-opacity:1;stroke:#373737;stroke-width:0.69999999;stroke-miterlimit:4;stroke-opacity:1;stroke-dasharray:none"
       id="rect2985-3-9"
       width="222.85715"
       height="222.85715"
       x="262.85712"
       y="38.076469" />
    <rect
       style="fill:#ffffff;fill-opacity:1;stroke:#373737;stroke-width:0.69999999;stroke-miterlimit:4;stroke-opacity:1;stroke-dasharray:none"
       id="rect2985-3-1"
       width="222.85715"
       height="222.85715"
       x="17.142857"
       y="40.933609" />
    <rect
       style="fill:#ffffff;fill-opacity:1;stroke:#373737;stroke-width:0.69999999;stroke-miterlimit:4;stroke-opacity:1;stroke-dasharray:none"
       id="rect2985-3-2"
       width="222.85715"
       height="222.85715"
       x="17.142857"
       y="293.31451" />
    <rect
       style="fill:#ffffff;fill-opacity:1;stroke:#373737;stroke-width:0.69999999;stroke-miterlimit:4;stroke-opacity:1;stroke-dasharray:none"
       id="rect2985-3-4"
       width="222.85715"
       height="222.85715"
       x="17.142857"
       y="545.6955" />
    <path
       style="fill:none;stroke:#000000;stroke-width:1.16954374px;stroke-linecap:butt;stroke-linejoin:miter;stroke-opacity:1"
       d="m 228.48665,240.84883 -51.08376,0 c 3.80191,-38.20986 15.8465,-81.84207 4.64987,-119.88505 -4.04863,-12.46763 -25.05955,-24.618172 -25.05955,-24.618172 0,0 -14.6797,-7.953561 -22.47991,-8.521675 -7.09746,-0.516929 -21.0058,4.734264 -21.0058,4.734264 0,0 -19.447398,10.646863 -25.796594,20.830753 -5.051979,8.1032 -5.512187,19.52053 -8.107504,29.35245 -2.819499,10.68119 -8.107503,32.19299 -8.107503,32.19299 l 21.374327,-0.94686 -37.589337,61.54544 -29.48183,-67.22655 19.900235,8.52168 c 0,0 -4.287893,-51.25143 4.422275,-72.90767 7.927364,-19.709947 23.663477,-34.706501 39.800476,-42.608375 13.667125,-6.692446 29.286635,-3.57631 43.854215,-1.893705 13.89438,1.60485 28.4478,3.297841 40.90604,11.362233 11.97104,7.749017 26.1855,17.66403 30.21889,34.086697 11.90488,48.47282 23.58546,135.98155 23.58546,135.98155 z"
       id="path2995"
       inkscape:connector-curvature="0"
       sodipodi:nodetypes="ccccscsscccccsssssc" />
    <path
       style="fill:none;stroke:#000000;stroke-width:1.16954374px;stroke-linecap:butt;stroke-linejoin:miter;stroke-opacity:1"
       d="m 272.22763,240.611 51.08376,0 c -3.80191,-38.20986 -15.8465,-81.84207 -4.64987,-119.88505 4.04863,-12.46763 25.05955,-24.618174 25.05955,-24.618174 0,0 14.6797,-7.953561 22.47991,-8.521675 7.09746,-0.516929 21.0058,4.734264 21.0058,4.734264 0,0 19.4474,10.646865 25.79659,20.830755 5.05198,8.1032 5.51219,19.52053 8.10751,29.35245 2.8195,10.68119 8.1075,32.19299 8.1075,32.19299 l -21.37433,-0.94686 37.58934,61.54544 29.48183,-67.22655 -19.90024,8.52168 c 0,0 4.2879,-51.25143 -4.42227,-72.90767 -7.92736,-19.709949 -23.66348,-34.706503 -39.80048,-42.608377 -13.66712,-6.692446 -29.28663,-3.57631 -43.85421,-1.893705 -13.89438,1.60485 -28.4478,3.297841 -40.90604,11.362233 -11.97104,7.749017 -26.1855,17.66403 -30.21889,34.086699 C 283.90821,153.10227 272.22763,240.611 272.22763,240.611 z"
       id="path2995-4"
       inkscape:connector-curvature="0"
       sodipodi:nodetypes="ccccscsscccccsssssc" />
    <flowRoot
       xml:space="preserve"
       id="flowRoot3015"
       style="fill:black;stroke:none;stroke-opacity:1;stroke-width:1px;stroke-linejoin:miter;stroke-linecap:butt;fill-opacity:1;font-family:Sans;font-style:normal;font-weight:normal;font-size:12px;line-height:125%;letter-spacing:0px;word-spacing:0px;-inkscape-font-specification:Sans;font-stretch:normal;font-variant:normal;text-anchor:start;text-align:start;writing-mode:lr"><flowRegion
         id="flowRegion3017"><rect
           id="rect3019"
           width="186.42857"
           height="165.71428"
           x="523.57141"
           y="62.362183" /></flowRegion><flowPara
         id="flowPara3021" /></flowRoot>    <flowRoot
       xml:space="preserve"
       id="flowRoot3023"
       style="font-size:12px;font-style:normal;font-variant:normal;font-weight:normal;font-stretch:normal;text-align:start;line-height:125%;letter-spacing:0px;word-spacing:0px;writing-mode:lr-tb;text-anchor:start;fill:#000000;fill-opacity:1;stroke:none;font-family:Sans;-inkscape-font-specification:Sans"><flowRegion
         id="flowRegion3025"><rect
           id="rect3027"
           width="198.57143"
           height="175"
           x="515.71429"
           y="61.647896" /></flowRegion><flowPara
         id="flowPara3035" /></flowRoot>    <path
       style="fill:none;stroke:#686868;stroke-width:1px;stroke-linecap:butt;stroke-linejoin:miter;stroke-opacity:1"
       d="m 544.64286,193.78923 c 0,0 30.65411,14.75469 47.14285,15 15.59851,0.23207 45,-12.85714 45,-12.85714 0,0 -3.24055,-27.22016 -7.85714,-40 -3.04077,-8.41759 -6.07047,-17.73678 -12.85714,-23.57143 -4.22646,-3.63357 -15.71429,-5.71429 -15.71429,-5.71429 l -0.71428,-4.28571 c 0,0 8.44875,-4.32266 11.42857,-7.85714 2.19734,-2.60635 3.16658,-6.06565 4.28571,-9.28572 2.83943,-8.169849 1.42857,-16.428569 1.42857,-16.428569 0,0 -2.68651,-12.28347 -12.14285,-17.85714 -5.72126,-3.37217 -12.64461,-5.00501 -19.28572,-5 -5.65946,0.004 -11.41472,4.17703 -15.71428,7.85714 -4.53655,3.88296 -6.94452,7.91813 -7.85715,12.85714 -1.18796,6.42904 1.05966,13.2496 3.57143,19.285719 1.44632,3.4757 3.84147,6.55089 6.42857,9.28571 1.86559,1.97211 6.42858,5 6.42858,5 l 0,5.71429 c 0,0 -11.94556,1.37265 -17.14286,5.71428 -6.82237,5.69915 -9.60566,14.6112 -12.14286,22.85715 -3.87395,12.59041 -4.28571,39.28571 -4.28571,39.28571 z"
       id="path3037-9"
       inkscape:connector-curvature="0"
       sodipodi:nodetypes="cscssccsscssssssccssc" />
    <path
       style="fill:#ffffff;stroke:#686868;stroke-width:1px;stroke-linecap:butt;stroke-linejoin:miter;stroke-opacity:1;fill-opacity:1"
       d="m 611.78572,201.64638 c 0,0 30.65411,14.75469 47.14285,15 15.59851,0.23207 45,-12.85714 45,-12.85714 0,0 -3.24055,-27.22016 -7.85714,-40 -3.04077,-8.41759 -6.07047,-17.73678 -12.85714,-23.57143 C 678.98783,136.58424 667.5,134.50352 667.5,134.50352 l -0.71428,-4.28571 c 0,0 8.44875,-4.32266 11.42857,-7.85714 2.19734,-2.60635 3.16658,-6.06565 4.28571,-9.28572 2.83943,-8.16985 1.42857,-16.428573 1.42857,-16.428573 0,0 -2.68651,-12.283468 -12.14285,-17.85714 -5.72126,-3.372173 -12.64461,-5.005009 -19.28572,-5 -5.65946,0.0043 -11.41472,4.177027 -15.71428,7.857143 -4.53655,3.882955 -6.94452,7.918127 -7.85715,12.857137 -1.18796,6.429043 1.05966,13.249603 3.57143,19.285723 1.44632,3.4757 3.84147,6.55089 6.42857,9.28571 1.86559,1.97211 6.42858,5 6.42858,5 l 0,5.71429 c 0,0 -11.94556,1.37265 -17.14286,5.71428 -6.82237,5.69915 -9.60566,14.6112 -12.14286,22.85715 -3.87395,12.59041 -4.28571,39.28571 -4.28571,39.28571 z"
       id="path3037-8"
       inkscape:connector-curvature="0"
       sodipodi:nodetypes="cscssccsscssssssccssc" />
    <path
       style="fill:#ffffff;stroke:#686868;stroke-width:1px;stroke-linecap:butt;stroke-linejoin:miter;stroke-opacity:1;fill-opacity:1"
       d="m 517.14286,212.36218 c 0,0 30.65411,14.75469 47.14285,15 15.59851,0.23207 45,-12.85714 45,-12.85714 0,0 -3.24055,-27.22016 -7.85714,-40 -3.04077,-8.41759 -6.07047,-17.73678 -12.85714,-23.57143 -4.22646,-3.63357 -15.71429,-5.71429 -15.71429,-5.71429 l -0.71428,-4.28571 c 0,0 8.44875,-4.32266 11.42857,-7.85714 2.19734,-2.60635 3.16658,-6.06565 4.28571,-9.28572 2.83943,-8.16985 1.42857,-16.42857 1.42857,-16.42857 0,0 -2.68651,-12.283468 -12.14285,-17.857141 -5.72126,-3.372173 -12.64461,-5.005009 -19.28572,-5 -5.65946,0.0043 -11.41472,4.177027 -15.71428,7.857143 -4.53655,3.882956 -6.94452,7.918128 -7.85715,12.857138 -1.18796,6.42904 1.05966,13.2496 3.57143,19.28572 1.44632,3.4757 3.84147,6.55089 6.42857,9.28571 1.86559,1.97211 6.42858,5 6.42858,5 l 0,5.71429 c 0,0 -11.94556,1.37265 -17.14286,5.71428 -6.82237,5.69915 -9.60566,14.6112 -12.14286,22.85715 -3.87395,12.59041 -4.28571,39.28571 -4.28571,39.28571 z"
       id="path3037"
       inkscape:connector-curvature="0"
       sodipodi:nodetypes="cscssccsscssssssccssc" />
    <path
       style="fill:none;stroke:#686868;stroke-width:1.41793001px;stroke-linecap:butt;stroke-linejoin:miter;stroke-opacity:1"
       d="m 52.708967,477.43387 c 0,0 45.248059,20.09687 69.586833,20.431 23.02472,0.3161 66.4238,-17.51228 66.4238,-17.51228 0,0 -4.78332,-37.07568 -11.5978,-54.48267 -4.48843,-11.46532 -8.96052,-24.15868 -18.97822,-32.10586 -6.23862,-4.94917 -23.19562,-7.78325 -23.19562,-7.78325 l -1.05434,-5.83742 c 0,0 12.47107,-5.88775 16.86953,-10.70195 3.24346,-3.55002 4.67414,-8.26182 6.32607,-12.64777 4.19124,-11.12787 2.10869,-22.3768 2.10869,-22.3768 0,0 -3.96551,-16.7309 -17.92387,-24.32261 -8.44506,-4.59312 -18.66451,-6.81716 -28.46735,-6.81034 -8.35384,0.005 -16.849094,5.6894 -23.195614,10.70195 -6.69633,5.28885 -10.25069,10.78502 -11.59781,17.51228 -1.75353,8.75679 1.56414,18.04684 5.27173,26.26843 2.13489,4.73413 5.67033,8.92275 9.48911,12.64776 2.75377,2.68614 9.489134,6.81033 9.489134,6.81033 l 0,7.78324 c 0,0 -17.632664,1.86965 -25.304314,7.78324 -10.070396,7.76262 -14.178767,19.90142 -17.923889,31.13296 -5.718278,17.14898 -6.32607,53.50976 -6.32607,53.50976 z"
       id="path3037-9-3"
       inkscape:connector-curvature="0"
       sodipodi:nodetypes="cscssccsscssssssccssc" />
    <flowRoot
       xml:space="preserve"
       id="flowRoot3850"
       style="font-size:180px;font-style:normal;font-variant:normal;font-weight:normal;font-stretch:normal;text-align:start;line-height:125%;letter-spacing:0px;word-spacing:0px;writing-mode:lr;text-anchor:start;fill:#000000;fill-opacity:1;stroke:none;font-family:Sans;-inkscape-font-specification:Sans"><flowRegion
         id="flowRegion3852"><rect
           id="rect3854"
           width="199.28572"
           height="199.28572"
           x="277.14285"
           y="302.36218"
           style="-inkscape-font-specification:Sans;font-family:Sans;font-weight:normal;font-style:normal;font-stretch:normal;font-variant:normal;font-size:180px;text-anchor:start;text-align:start;writing-mode:lr;line-height:125%" /></flowRegion><flowPara
         id="flowPara3856"
         style="-inkscape-font-specification:Sans;font-family:Sans;font-weight:normal;font-style:normal;font-stretch:normal;font-variant:normal;font-size:180px;text-anchor:start;text-align:start;writing-mode:lr;line-height:125%">£</flowPara></flowRoot>    <flowRoot
       xml:space="preserve"
       id="flowRoot3858"
       style="fill:black;stroke:none;stroke-opacity:1;stroke-width:1px;stroke-linejoin:miter;stroke-linecap:butt;fill-opacity:1;font-family:Sans;font-style:normal;font-weight:normal;font-size:12px;line-height:125%;letter-spacing:0px;word-spacing:0px;-inkscape-font-specification:Sans;font-stretch:normal;font-variant:normal;text-anchor:start;text-align:start;writing-mode:lr"><flowRegion
         id="flowRegion3860"><rect
           id="rect3862"
           width="70.714287"
           height="202.85715"
           x="290"
           y="243.07646" /></flowRegion><flowPara
         id="flowPara3864" /></flowRoot>    <flowRoot
       xml:space="preserve"
       id="flowRoot3866"
       style="font-size:12px;font-style:normal;font-variant:normal;font-weight:normal;font-stretch:normal;text-align:start;line-height:125%;letter-spacing:0px;word-spacing:0px;writing-mode:lr-tb;text-anchor:start;fill:none;fill-opacity:1;stroke:#686868;font-family:Sans;-inkscape-font-specification:Sans;stroke-opacity:1"
       transform="matrix(2.0294215,0,0,1.5279402,-284.57458,-228.87071)"><flowRegion
         id="flowRegion3868"><rect
           id="rect3870"
           width="202.14285"
           height="205.71428"
           x="274.28571"
           y="298.79074"
           style="fill:none;stroke:#686868;stroke-opacity:1" /></flowRegion><flowPara
         id="flowPara3872"
         style="font-size:180px;font-style:normal;font-variant:normal;font-weight:normal;font-stretch:normal;text-align:start;line-height:125%;writing-mode:lr-tb;text-anchor:start;font-family:Nimbus Roman No9 L;-inkscape-font-specification:Nimbus Roman No9 L;fill:none;stroke:#686868;stroke-opacity:1">£</flowPara></flowRoot>    <flowRoot
       xml:space="preserve"
       id="flowRoot3874"
       style="font-size:12px;font-style:normal;font-variant:normal;font-weight:normal;font-stretch:normal;text-align:start;line-height:125%;letter-spacing:0px;word-spacing:0px;writing-mode:lr-tb;text-anchor:start;fill:none;stroke:#686868;stroke-opacity:1;font-family:Sans;-inkscape-font-specification:Sans"
       transform="matrix(1.6189252,0,0,1.5666328,-302.08042,-225.66654)"><flowRegion
         id="flowRegion3876"><rect
           id="rect3878"
           width="196.42857"
           height="197.85715"
           x="510"
           y="294.50504"
           style="fill:none;stroke:#686868;stroke-opacity:1" /></flowRegion><flowPara
         id="flowPara3882"
         style="font-size:160px;font-style:normal;font-variant:normal;font-weight:normal;font-stretch:normal;text-align:start;line-height:125%;writing-mode:lr-tb;text-anchor:start;fill:none;stroke:#686868;stroke-opacity:1;font-family:Sans;-inkscape-font-specification:Sans">€</flowPara></flowRoot>    <flowRoot
       xml:space="preserve"
       id="flowRoot3884"
       style="font-size:12px;font-style:normal;font-variant:normal;font-weight:normal;font-stretch:normal;text-align:start;line-height:125%;letter-spacing:0px;word-spacing:0px;writing-mode:lr-tb;text-anchor:start;fill:none;fill-opacity:1;stroke:#686868;font-family:Sans;-inkscape-font-specification:Sans;stroke-opacity:1"
       transform="matrix(1.7350398,0,0,1.4881099,-4.740682,-328.3204)"
       inkscape:export-filename="/home/hazel/Documents/new_linux_paradise/sandbox/sandbox/appearence/themes/default_pro_theme/icons/dollar.png"
       inkscape:export-xdpi="90"
       inkscape:export-ydpi="90"><flowRegion
         id="flowRegion3886"><rect
           id="rect3888"
           width="179.28572"
           height="180.71428"
           x="28.571428"
           y="559.50507"
           style="fill:none;stroke:#686868;stroke-opacity:1" /></flowRegion><flowPara
         id="flowPara3890"
         style="font-size:160px;font-style:normal;font-variant:normal;font-weight:normal;font-stretch:normal;text-align:start;line-height:125%;writing-mode:lr-tb;text-anchor:start;font-family:Nimbus Roman No9 L;-inkscape-font-specification:Nimbus Roman No9 L;fill:none;stroke:#686868;stroke-opacity:1">$</flowPara></flowRoot>    <rect
       style="fill:#1805ab;stroke:#1805ab;stroke-width:1;stroke-linejoin:round;stroke-miterlimit:4;stroke-opacity:1;stroke-dasharray:none;fill-opacity:1"
       id="rect3892"
       width="8.5714235"
       height="192.85715"
       x="109.28571"
       y="560.93359"
       inkscape:export-filename="/home/hazel/Documents/new_linux_paradise/sandbox/sandbox/appearence/themes/default_pro_theme/icons/dollar.png"
       inkscape:export-xdpi="90"
       inkscape:export-ydpi="90" />
    <flowRoot
       xml:space="preserve"
       id="flowRoot3894"
       style="fill:black;stroke:none;stroke-opacity:1;stroke-width:1px;stroke-linejoin:miter;stroke-linecap:butt;fill-opacity:1;font-family:Sans;font-style:normal;font-weight:normal;font-size:12px;line-height:125%;letter-spacing:0px;word-spacing:0px;-inkscape-font-specification:Sans;font-stretch:normal;font-variant:normal;text-anchor:start;text-align:start;writing-mode:lr"><flowRegion
         id="flowRegion3896"><rect
           id="rect3898"
           width="9.2857141"
           height="18.571428"
           x="108.57143"
           y="563.79077" /></flowRegion><flowPara
         id="flowPara3900" /></flowRoot>    <path
       sodipodi:type="star"
       style="fill:#ffffff;fill-opacity:1;stroke:none"
       id="path3902"
       sodipodi:sides="5"
       sodipodi:cx="181.42857"
       sodipodi:cy="595.93359"
       sodipodi:r1="38.44556"
       sodipodi:r2="13.576127"
       sodipodi:arg1="0.95702624"
       sodipodi:arg2="1.5853448"
       inkscape:flatsided="false"
       inkscape:rounded="0"
       inkscape:randomized="0"
       d="m 203.57143,627.36216 -22.34036,-17.85388 -22.85032,17.19638 10.07649,-26.76409 -23.41586,-16.41798 28.56798,1.31276 8.37852,-27.34325 7.57948,27.57543 28.59408,-0.48108 -23.8836,15.72979 z"
       inkscape:transform-center-x="-0.014020539"
       inkscape:transform-center-y="-0.43050082"
       transform="matrix(0.15012577,0,0,0.17193228,86.838361,467.35549)"
       inkscape:export-filename="/home/hazel/Documents/new_linux_paradise/sandbox/sandbox/appearence/themes/default_pro_theme/icons/dollar.png"
       inkscape:export-xdpi="90"
       inkscape:export-ydpi="90" />
    <path
       sodipodi:type="star"
       style="fill:#ffffff;fill-opacity:1;stroke:none"
       id="path3902-7"
       sodipodi:sides="5"
       sodipodi:cx="181.42857"
       sodipodi:cy="595.93359"
       sodipodi:r1="38.44556"
       sodipodi:r2="13.576127"
       sodipodi:arg1="0.95702624"
       sodipodi:arg2="1.5853448"
       inkscape:flatsided="false"
       inkscape:rounded="0"
       inkscape:randomized="0"
       d="m 203.57143,627.36216 -22.34036,-17.85388 -22.85032,17.19638 10.07649,-26.76409 -23.41586,-16.41798 28.56798,1.31276 8.37852,-27.34325 7.57948,27.57543 28.59408,-0.48108 -23.8836,15.72979 z"
       inkscape:transform-center-x="-0.014020539"
       inkscape:transform-center-y="-0.43050082"
       transform="matrix(0.15012577,0,0,0.17193228,86.308377,642.6477)"
       inkscape:export-filename="/home/hazel/Documents/new_linux_paradise/sandbox/sandbox/appearence/themes/default_pro_theme/icons/dollar.png"
       inkscape:export-xdpi="90"
       inkscape:export-ydpi="90" />
    <path
       sodipodi:type="star"
       style="fill:#ffffff;fill-opacity:1;stroke:none"
       id="path3902-5"
       sodipodi:sides="5"
       sodipodi:cx="181.42857"
       sodipodi:cy="595.93359"
       sodipodi:r1="38.44556"
       sodipodi:r2="13.576127"
       sodipodi:arg1="0.95702624"
       sodipodi:arg2="1.5853448"
       inkscape:flatsided="false"
       inkscape:rounded="0"
       inkscape:randomized="0"
       d="m 203.57143,627.36216 -22.34036,-17.85388 -22.85032,17.19638 10.07649,-26.76409 -23.41586,-16.41798 28.56798,1.31276 8.37852,-27.34325 7.57948,27.57543 28.59408,-0.48108 -23.8836,15.72979 z"
       inkscape:transform-center-x="-0.014020539"
       inkscape:transform-center-y="-0.43050082"
       transform="matrix(0.15012577,0,0,0.17193228,86.30838,628.36198)"
       inkscape:export-filename="/home/hazel/Documents/new_linux_paradise/sandbox/sandbox/appearence/themes/default_pro_theme/icons/dollar.png"
       inkscape:export-xdpi="90"
       inkscape:export-ydpi="90" />
    <path
       sodipodi:type="star"
       style="fill:#ffffff;fill-opacity:1;stroke:none"
       id="path3902-3"
       sodipodi:sides="5"
       sodipodi:cx="181.42857"
       sodipodi:cy="595.93359"
       sodipodi:r1="38.44556"
       sodipodi:r2="13.576127"
       sodipodi:arg1="0.95702624"
       sodipodi:arg2="1.5853448"
       inkscape:flatsided="false"
       inkscape:rounded="0"
       inkscape:randomized="0"
       d="m 203.57143,627.36216 -22.34036,-17.85388 -22.85032,17.19638 10.07649,-26.76409 -23.41586,-16.41798 28.56798,1.31276 8.37852,-27.34325 7.57948,27.57543 28.59408,-0.48108 -23.8836,15.72979 z"
       inkscape:transform-center-x="-0.014020539"
       inkscape:transform-center-y="-0.43050082"
       transform="matrix(0.15012577,0,0,0.17193228,87.02266,611.9334)"
       inkscape:export-filename="/home/hazel/Documents/new_linux_paradise/sandbox/sandbox/appearence/themes/default_pro_theme/icons/dollar.png"
       inkscape:export-xdpi="90"
       inkscape:export-ydpi="90" />
    <path
       sodipodi:type="star"
       style="fill:#ffffff;fill-opacity:1;stroke:none"
       id="path3902-0"
       sodipodi:sides="5"
       sodipodi:cx="181.42857"
       sodipodi:cy="595.93359"
       sodipodi:r1="38.44556"
       sodipodi:r2="13.576127"
       sodipodi:arg1="0.95702624"
       sodipodi:arg2="1.5853448"
       inkscape:flatsided="false"
       inkscape:rounded="0"
       inkscape:randomized="0"
       d="m 203.57143,627.36216 -22.34036,-17.85388 -22.85032,17.19638 10.07649,-26.76409 -23.41586,-16.41798 28.56798,1.31276 8.37852,-27.34325 7.57948,27.57543 28.59408,-0.48108 -23.8836,15.72979 z"
       inkscape:transform-center-x="-0.014020539"
       inkscape:transform-center-y="-0.43050082"
       transform="matrix(0.15012577,0,0,0.17193228,87.022664,596.9334)"
       inkscape:export-filename="/home/hazel/Documents/new_linux_paradise/sandbox/sandbox/appearence/themes/default_pro_theme/icons/dollar.png"
       inkscape:export-xdpi="90"
       inkscape:export-ydpi="90" />
    <path
       sodipodi:type="star"
       style="fill:#ffffff;fill-opacity:1;stroke:none"
       id="path3902-8"
       sodipodi:sides="5"
       sodipodi:cx="181.42857"
       sodipodi:cy="595.93359"
       sodipodi:r1="38.44556"
       sodipodi:r2="13.576127"
       sodipodi:arg1="0.95702624"
       sodipodi:arg2="1.5853448"
       inkscape:flatsided="false"
       inkscape:rounded="0"
       inkscape:randomized="0"
       d="m 203.57143,627.36216 -22.34036,-17.85388 -22.85032,17.19638 10.07649,-26.76409 -23.41586,-16.41798 28.56798,1.31276 8.37852,-27.34325 7.57948,27.57543 28.59408,-0.48108 -23.8836,15.72979 z"
       inkscape:transform-center-x="-0.014020539"
       inkscape:transform-center-y="-0.43050082"
       transform="matrix(0.15012577,0,0,0.17193228,87.02266,581.93341)"
       inkscape:export-filename="/home/hazel/Documents/new_linux_paradise/sandbox/sandbox/appearence/themes/default_pro_theme/icons/dollar.png"
       inkscape:export-xdpi="90"
       inkscape:export-ydpi="90" />
    <path
       sodipodi:type="star"
       style="fill:#ffffff;fill-opacity:1;stroke:none"
       id="path3902-7-5"
       sodipodi:sides="5"
       sodipodi:cx="181.42857"
       sodipodi:cy="595.93359"
       sodipodi:r1="38.44556"
       sodipodi:r2="13.576127"
       sodipodi:arg1="0.95702624"
       sodipodi:arg2="1.5853448"
       inkscape:flatsided="false"
       inkscape:rounded="0"
       inkscape:randomized="0"
       d="m 203.57143,627.36216 -22.34036,-17.85388 -22.85032,17.19638 10.07649,-26.76409 -23.41586,-16.41798 28.56798,1.31276 8.37852,-27.34325 7.57948,27.57543 28.59408,-0.48108 -23.8836,15.72979 z"
       inkscape:transform-center-x="-0.014020539"
       inkscape:transform-center-y="-0.43050082"
       transform="matrix(0.15012577,0,0,0.17193228,85.951233,567.29056)"
       inkscape:export-filename="/home/hazel/Documents/new_linux_paradise/sandbox/sandbox/appearence/themes/default_pro_theme/icons/dollar.png"
       inkscape:export-xdpi="90"
       inkscape:export-ydpi="90" />
    <path
       sodipodi:type="star"
       style="fill:#ffffff;fill-opacity:1;stroke:none"
       id="path3902-5-1"
       sodipodi:sides="5"
       sodipodi:cx="181.42857"
       sodipodi:cy="595.93359"
       sodipodi:r1="38.44556"
       sodipodi:r2="13.576127"
       sodipodi:arg1="0.95702624"
       sodipodi:arg2="1.5853448"
       inkscape:flatsided="false"
       inkscape:rounded="0"
       inkscape:randomized="0"
       d="m 203.57143,627.36216 -22.34036,-17.85388 -22.85032,17.19638 10.07649,-26.76409 -23.41586,-16.41798 28.56798,1.31276 8.37852,-27.34325 7.57948,27.57543 28.59408,-0.48108 -23.8836,15.72979 z"
       inkscape:transform-center-x="-0.014020539"
       inkscape:transform-center-y="-0.43050082"
       transform="matrix(0.15012577,0,0,0.17193228,85.951233,553.00484)"
       inkscape:export-filename="/home/hazel/Documents/new_linux_paradise/sandbox/sandbox/appearence/themes/default_pro_theme/icons/dollar.png"
       inkscape:export-xdpi="90"
       inkscape:export-ydpi="90" />
    <path
       sodipodi:type="star"
       style="fill:#ffffff;fill-opacity:1;stroke:none"
       id="path3902-3-1"
       sodipodi:sides="5"
       sodipodi:cx="181.42857"
       sodipodi:cy="595.93359"
       sodipodi:r1="38.44556"
       sodipodi:r2="13.576127"
       sodipodi:arg1="0.95702624"
       sodipodi:arg2="1.5853448"
       inkscape:flatsided="false"
       inkscape:rounded="0"
       inkscape:randomized="0"
       d="m 203.57143,627.36216 -22.34036,-17.85388 -22.85032,17.19638 10.07649,-26.76409 -23.41586,-16.41798 28.56798,1.31276 8.37852,-27.34325 7.57948,27.57543 28.59408,-0.48108 -23.8836,15.72979 z"
       inkscape:transform-center-x="-0.014020539"
       inkscape:transform-center-y="-0.43050082"
       transform="matrix(0.15012577,0,0,0.17193228,86.665513,536.57626)"
       inkscape:export-filename="/home/hazel/Documents/new_linux_paradise/sandbox/sandbox/appearence/themes/default_pro_theme/icons/dollar.png"
       inkscape:export-xdpi="90"
       inkscape:export-ydpi="90" />
    <path
       sodipodi:type="star"
       style="fill:#ffffff;fill-opacity:1;stroke:none"
       id="path3902-0-8"
       sodipodi:sides="5"
       sodipodi:cx="181.42857"
       sodipodi:cy="595.93359"
       sodipodi:r1="38.44556"
       sodipodi:r2="13.576127"
       sodipodi:arg1="0.95702624"
       sodipodi:arg2="1.5853448"
       inkscape:flatsided="false"
       inkscape:rounded="0"
       inkscape:randomized="0"
       d="m 203.57143,627.36216 -22.34036,-17.85388 -22.85032,17.19638 10.07649,-26.76409 -23.41586,-16.41798 28.56798,1.31276 8.37852,-27.34325 7.57948,27.57543 28.59408,-0.48108 -23.8836,15.72979 z"
       inkscape:transform-center-x="-0.014020539"
       inkscape:transform-center-y="-0.43050082"
       transform="matrix(0.15012577,0,0,0.17193228,86.665523,521.57626)"
       inkscape:export-filename="/home/hazel/Documents/new_linux_paradise/sandbox/sandbox/appearence/themes/default_pro_theme/icons/dollar.png"
       inkscape:export-xdpi="90"
       inkscape:export-ydpi="90" />
    <path
       sodipodi:type="star"
       style="fill:#ffffff;fill-opacity:1;stroke:none"
       id="path3902-8-0"
       sodipodi:sides="5"
       sodipodi:cx="181.42857"
       sodipodi:cy="595.93359"
       sodipodi:r1="38.44556"
       sodipodi:r2="13.576127"
       sodipodi:arg1="0.95702624"
       sodipodi:arg2="1.5853448"
       inkscape:flatsided="false"
       inkscape:rounded="0"
       inkscape:randomized="0"
       d="m 203.57143,627.36216 -22.34036,-17.85388 -22.85032,17.19638 10.07649,-26.76409 -23.41586,-16.41798 28.56798,1.31276 8.37852,-27.34325 7.57948,27.57543 28.59408,-0.48108 -23.8836,15.72979 z"
       inkscape:transform-center-x="-0.014020539"
       inkscape:transform-center-y="-0.43050082"
       transform="matrix(0.15012577,0,0,0.17193228,86.665513,506.57627)"
       inkscape:export-filename="/home/hazel/Documents/new_linux_paradise/sandbox/sandbox/appearence/themes/default_pro_theme/icons/dollar.png"
       inkscape:export-xdpi="90"
       inkscape:export-ydpi="90" />
    <path
       sodipodi:type="star"
       style="fill:#ffffff;fill-opacity:1;stroke:none"
       id="path3902-38"
       sodipodi:sides="5"
       sodipodi:cx="181.42857"
       sodipodi:cy="595.93359"
       sodipodi:r1="38.44556"
       sodipodi:r2="13.576127"
       sodipodi:arg1="0.95702624"
       sodipodi:arg2="1.5853448"
       inkscape:flatsided="false"
       inkscape:rounded="0"
       inkscape:randomized="0"
       d="m 203.57143,627.36216 -22.34036,-17.85388 -22.85032,17.19638 10.07649,-26.76409 -23.41586,-16.41798 28.56798,1.31276 8.37852,-27.34325 7.57948,27.57543 28.59408,-0.48108 -23.8836,15.72979 z"
       inkscape:transform-center-x="-0.014020539"
       inkscape:transform-center-y="-0.43050082"
       transform="matrix(0.15012577,0,0,0.17193228,86.308378,480.50484)"
       inkscape:export-filename="/home/hazel/Documents/new_linux_paradise/sandbox/sandbox/appearence/themes/default_pro_theme/icons/dollar.png"
       inkscape:export-xdpi="90"
       inkscape:export-ydpi="90" />
    <path
       sodipodi:type="star"
       style="fill:#ffffff;fill-opacity:1;stroke:none"
       id="path3902-2"
       sodipodi:sides="5"
       sodipodi:cx="181.42857"
       sodipodi:cy="595.93359"
       sodipodi:r1="38.44556"
       sodipodi:r2="13.576127"
       sodipodi:arg1="0.95702624"
       sodipodi:arg2="1.5853448"
       inkscape:flatsided="false"
       inkscape:rounded="0"
       inkscape:randomized="0"
       d="m 203.57143,627.36216 -22.34036,-17.85388 -22.85032,17.19638 10.07649,-26.76409 -23.41586,-16.41798 28.56798,1.31276 8.37852,-27.34325 7.57948,27.57543 28.59408,-0.48108 -23.8836,15.72979 z"
       inkscape:transform-center-x="-0.014020539"
       inkscape:transform-center-y="-0.43050082"
       transform="matrix(0.15012577,0,0,0.17193228,87.022663,494.07626)"
       inkscape:export-filename="/home/hazel/Documents/new_linux_paradise/sandbox/sandbox/appearence/themes/default_pro_theme/icons/dollar.png"
       inkscape:export-xdpi="90"
       inkscape:export-ydpi="90" />
    <rect
       style="fill:#ffffff;fill-opacity:1;stroke:#585858;stroke-width:0.93744552;stroke-opacity:1"
       id="rect4020"
       width="45.062553"
       height="112.20541"
       x="279.25443"
       y="627.33087" />
    <rect
       style="fill:#ffffff;fill-opacity:1;stroke:#585858;stroke-opacity:1"
       id="rect4020-1"
       width="45"
       height="127.85714"
       x="326.07141"
       y="612.005" />
    <rect
       style="fill:#ffffff;fill-opacity:1;stroke:#585858;stroke-width:1.02714026;stroke-opacity:1"
       id="rect4020-3"
       width="44.972858"
       height="134.97285"
       x="371.79929"
       y="604.87567" />
    <rect
       style="fill:#ffffff;fill-opacity:1;stroke:#585858;stroke-width:1.0444926;stroke-opacity:1"
       id="rect4020-7"
       width="39.955509"
       height="157.09836"
       x="417.52222"
       y="582.74158" />
    <flowRoot
       xml:space="preserve"
       id="flowRoot4054"
       style="font-size:12px;font-style:normal;font-variant:normal;font-weight:normal;font-stretch:normal;text-align:start;line-height:125%;letter-spacing:0px;word-spacing:0px;writing-mode:lr-tb;text-anchor:start;fill:#000000;fill-opacity:1;stroke:none;font-family:Sans;-inkscape-font-specification:Sans"><flowRegion
         id="flowRegion4056"><rect
           id="rect4058"
           width="128.57143"
           height="15"
           x="309.28571"
           y="528.07648" /></flowRegion><flowPara
         id="flowPara4060">conditional format</flowPara></flowRoot>    <rect
       style="fill:#ffffff;fill-opacity:1;stroke:#585858;stroke-width:1;stroke-linejoin:round;stroke-miterlimit:4;stroke-opacity:1;stroke-dasharray:none"
       id="rect4062"
       width="193.57143"
       height="165.71428"
       x="512.85712"
       y="573.07648" />
    <rect
       style="fill:#ffffff;fill-opacity:1;stroke:#585858;stroke-width:1;stroke-linejoin:round;stroke-miterlimit:4;stroke-opacity:1;stroke-dasharray:none"
       id="rect4064"
       width="50.714287"
       height="17.142857"
       x="517.14288"
       y="582.36218" />
    <rect
       style="fill:#ffffff;fill-opacity:1;stroke:#585858;stroke-width:0.95840317;stroke-linejoin:round;stroke-miterlimit:4;stroke-opacity:1;stroke-dasharray:none"
       id="rect4064-3"
       width="46.470169"
       height="17.184454"
       x="571.76489"
       y="582.34137" />
    <rect
       style="fill:#ffffff;fill-opacity:1;stroke:#585858;stroke-width:1;stroke-linejoin:round;stroke-miterlimit:4;stroke-opacity:1;stroke-dasharray:none"
       id="rect4064-6"
       width="50.714287"
       height="17.142857"
       x="620.35712"
       y="582.36218" />
    <rect
       style="fill:#ffffff;fill-opacity:1;stroke:#585858;stroke-width:1;stroke-linejoin:round;stroke-miterlimit:4;stroke-opacity:1;stroke-dasharray:none"
       id="rect4064-8"
       width="50.714287"
       height="17.142857"
       x="516.60718"
       y="605.93365" />
    <rect
       style="fill:#ffffff;fill-opacity:1;stroke:#585858;stroke-width:0.95840317;stroke-linejoin:round;stroke-miterlimit:4;stroke-opacity:1;stroke-dasharray:none"
       id="rect4064-3-5"
       width="46.470169"
       height="17.184454"
       x="571.22919"
       y="605.91284" />
    <rect
       style="fill:#ffffff;fill-opacity:1;stroke:#585858;stroke-width:1;stroke-linejoin:round;stroke-miterlimit:4;stroke-opacity:1;stroke-dasharray:none"
       id="rect4064-6-0"
       width="50.714287"
       height="17.142857"
       x="619.82141"
       y="605.93365" />
    <rect
       style="fill:#ffffff;fill-opacity:1;stroke:#585858;stroke-width:1;stroke-linejoin:round;stroke-miterlimit:4;stroke-opacity:1;stroke-dasharray:none"
       id="rect4064-4"
       width="50.714287"
       height="17.142857"
       x="517.32147"
       y="627.36218" />
    <rect
       style="fill:#ffffff;fill-opacity:1;stroke:#585858;stroke-width:0.95840317;stroke-linejoin:round;stroke-miterlimit:4;stroke-opacity:1;stroke-dasharray:none"
       id="rect4064-3-50"
       width="46.470169"
       height="17.184454"
       x="571.94348"
       y="627.34137" />
    <rect
       style="fill:#ffffff;fill-opacity:1;stroke:#585858;stroke-width:1;stroke-linejoin:round;stroke-miterlimit:4;stroke-opacity:1;stroke-dasharray:none"
       id="rect4064-6-9"
       width="50.714287"
       height="17.142857"
       x="620.53571"
       y="627.36218" />
    <rect
       style="fill:#ffffff;fill-opacity:1;stroke:#585858;stroke-width:1;stroke-linejoin:round;stroke-miterlimit:4;stroke-opacity:1;stroke-dasharray:none"
       id="rect4064-47"
       width="50.714287"
       height="17.142857"
       x="517.32147"
       y="650.2193" />
    <rect
       style="fill:#ffffff;fill-opacity:1;stroke:#585858;stroke-width:0.95840317;stroke-linejoin:round;stroke-miterlimit:4;stroke-opacity:1;stroke-dasharray:none"
       id="rect4064-3-4"
       width="46.470169"
       height="17.184454"
       x="571.94342"
       y="650.19849" />
    <rect
       style="fill:#ffffff;fill-opacity:1;stroke:#585858;stroke-width:1;stroke-linejoin:round;stroke-miterlimit:4;stroke-opacity:1;stroke-dasharray:none"
       id="rect4064-6-4"
       width="50.714287"
       height="17.142857"
       x="620.53564"
       y="650.2193" />
    <path
       sodipodi:type="arc"
       style="fill:#ffffff;fill-opacity:1;stroke:#585858;stroke-width:0.27126012;stroke-linejoin:round;stroke-miterlimit:4;stroke-opacity:1;stroke-dasharray:none"
       id="path4139"
       sodipodi:cx="548.57141"
       sodipodi:cy="698.43359"
       sodipodi:rx="18.571428"
       sodipodi:ry="13.214286"
       d="m 530.60387,695.09122 a 18.571428,13.214286 0 1 1 -0.27239,0.8568"
       sodipodi:start="3.3973071"
       sodipodi:end="9.6140029"
       sodipodi:open="true"
       transform="matrix(1.8721666,0,0,1.8147785,-457.53856,-577.37531)" />
    <path
       sodipodi:type="arc"
       style="fill:#ffffff;fill-opacity:1;stroke:#585858;stroke-width:0.27126012;stroke-linejoin:round;stroke-miterlimit:4;stroke-opacity:1;stroke-dasharray:none"
       id="path4152"
       sodipodi:cx="564.64288"
       sodipodi:cy="708.43359"
       sodipodi:rx="15.357142"
       sodipodi:ry="11.071428"
       d="m 549.78511,705.63322 a 15.357142,11.071428 0 1 1 -0.22525,0.71786"
       sodipodi:start="3.3973071"
       sodipodi:end="9.6140029"
       sodipodi:open="true"
       transform="matrix(1.8721666,0,0,1.8147785,-457.53856,-577.37531)" />
    <path
       sodipodi:type="arc"
       style="fill:#ffffff;fill-opacity:1;stroke:#585858;stroke-width:0.27126012;stroke-linejoin:round;stroke-miterlimit:4;stroke-opacity:1;stroke-dasharray:none"
       id="path4154"
       sodipodi:cx="590.71429"
       sodipodi:cy="693.79077"
       sodipodi:rx="18.571428"
       sodipodi:ry="12.857142"
       d="m 572.74676,690.53873 a 18.571428,12.857142 0 1 1 -0.2724,0.83364"
       sodipodi:start="3.3973071"
       sodipodi:end="9.6140029"
       sodipodi:open="true"
       transform="matrix(1.8721666,0,0,1.8147785,-457.53856,-577.37531)" />
    <path
       sodipodi:type="arc"
       style="fill:#ffffff;fill-opacity:1;stroke:#585858;stroke-width:0.27126012;stroke-linejoin:round;stroke-miterlimit:4;stroke-opacity:1;stroke-dasharray:none"
       id="path4156"
       sodipodi:cx="570.35712"
       sodipodi:cy="693.07648"
       sodipodi:rx="14.642858"
       sodipodi:ry="12.857142"
       d="m 556.1904,689.82443 a 14.642858,12.857142 0 1 1 -0.21477,0.83365"
       sodipodi:start="3.3973071"
       sodipodi:end="9.6140029"
       sodipodi:open="true"
       transform="matrix(1.8721666,0,0,1.8147785,-457.53856,-577.37531)" />
    <path
       style="fill:none;stroke:#000000;stroke-width:1px;stroke-linecap:butt;stroke-linejoin:miter;stroke-opacity:1"
       d="m 187.85714,893.07647 -140.714283,0.71428 c 0,0 -6.241505,-2.34917 -7.857143,-5 -1.368671,-2.24563 -2.895092,-6.38739 -0.714285,-7.85714 25.739827,-17.34735 74.285711,-48.57143 74.285711,-48.57143 L 120,828.07647 l 64.28571,52.14286 c 0,0 3.64625,3.42081 4.28572,5.71428 0.64266,2.30491 -0.71429,7.14286 -0.71429,7.14286 z"
       id="path4158"
       inkscape:connector-curvature="0"
       sodipodi:nodetypes="ccsscccsc" />
    <path
       style="fill:none;stroke:#000000;stroke-width:1px;stroke-linecap:butt;stroke-linejoin:miter;stroke-opacity:1"
       d="M 185.15954,940.23901 44.445267,939.52473 c 0,0 -6.24151,2.34917 -7.85714,5 -1.36868,2.24563 -2.8951,6.38739 -0.71429,7.85714 25.73983,17.34735 74.285703,48.57143 74.285703,48.57143 l 7.14286,4.2857 64.28571,-52.14285 c 0,0 3.64625,-3.42081 4.28572,-5.71428 0.64266,-2.30491 -0.71429,-7.14286 -0.71429,-7.14286 z"
       id="path4158-8"
       inkscape:connector-curvature="0"
       sodipodi:nodetypes="ccsscccsc" />
    <flowRoot
       xml:space="preserve"
       id="flowRoot4186"
       style="font-size:12px;font-style:normal;font-variant:normal;font-weight:normal;font-stretch:normal;text-align:start;line-height:125%;letter-spacing:0px;word-spacing:0px;writing-mode:lr-tb;text-anchor:start;fill:#000000;fill-opacity:1;stroke:none;font-family:Sans;-inkscape-font-specification:Sans"><flowRegion
         id="flowRegion4188"><rect
           id="rect4190"
           width="68.690376"
           height="45.456863"
           x="80.307129"
           y="893.76825" /></flowRegion><flowPara
         id="flowPara4192"
         style="font-size:44px;font-style:normal;font-variant:normal;font-weight:normal;font-stretch:normal;text-align:start;line-height:125%;writing-mode:lr-tb;text-anchor:start;font-family:Sans;-inkscape-font-specification:Sans">++</flowPara></flowRoot>    <flowRoot
       xml:space="preserve"
       id="flowRoot4194"
       style="font-size:12px;font-style:normal;font-variant:normal;font-weight:normal;font-stretch:normal;text-align:start;line-height:125%;letter-spacing:0px;word-spacing:0px;writing-mode:lr-tb;text-anchor:start;fill:#ffffff;fill-opacity:1;stroke:#585858;font-family:Sans;-inkscape-font-specification:Sans;stroke-opacity:1;stroke-width:0.20556181;stroke-miterlimit:4;stroke-dasharray:none"
       transform="matrix(3.532648,0,0,3.2825462,-226.96446,-2093.3837)"><flowRegion
         id="flowRegion4196"><rect
           id="rect4198"
           width="63.63961"
           height="46.467018"
           x="81.822357"
           y="892.75806"
           style="fill:#ffffff;fill-opacity:1;stroke:#585858;stroke-opacity:1;stroke-width:0.20556181;stroke-miterlimit:4;stroke-dasharray:none" /></flowRegion><flowPara
         id="flowPara4200"
         style="font-size:36px;font-style:normal;font-variant:normal;font-weight:normal;font-stretch:normal;text-align:start;line-height:125%;writing-mode:lr-tb;text-anchor:start;font-family:Sans;-inkscape-font-specification:Sans;fill:#ffffff;fill-opacity:1;stroke:#585858;stroke-opacity:1;stroke-width:0.20556181;stroke-miterlimit:4;stroke-dasharray:none">+</flowPara></flowRoot>    <path
       style="fill:none;stroke:#000000;stroke-width:1px;stroke-linecap:butt;stroke-linejoin:miter;stroke-opacity:1"
       d="m 444.29586,884.32911 -140.71428,0.71428 c 0,0 -6.24151,-2.34917 -7.85715,-5 -1.36867,-2.24563 -2.89509,-6.38739 -0.71428,-7.85714 25.73982,-17.34735 74.28571,-48.57143 74.28571,-48.57143 l 7.14286,-4.28571 64.28571,52.14286 c 0,0 3.64625,3.42081 4.28572,5.71428 0.64266,2.30491 -0.71429,7.14286 -0.71429,7.14286 z"
       id="path4158-0"
       inkscape:connector-curvature="0"
       sodipodi:nodetypes="ccsscccsc" />
    <path
       style="fill:none;stroke:#000000;stroke-width:1px;stroke-linecap:butt;stroke-linejoin:miter;stroke-opacity:1"
       d="m 441.59826,931.49165 -140.71427,-0.71428 c 0,0 -6.24151,2.34917 -7.85714,5 -1.36868,2.24563 -2.8951,6.38739 -0.71429,7.85714 25.73983,17.34735 74.2857,48.57144 74.2857,48.57144 l 7.14286,4.2857 64.28571,-52.14286 c 0,0 3.64625,-3.42081 4.28572,-5.71428 0.64266,-2.30491 -0.71429,-7.14286 -0.71429,-7.14286 z"
       id="path4158-8-9"
       inkscape:connector-curvature="0"
       sodipodi:nodetypes="ccsscccsc" />
    <flowRoot
       xml:space="preserve"
       id="flowRoot4223"
       style="font-size:12px;font-style:normal;font-variant:normal;font-weight:normal;font-stretch:normal;text-align:start;line-height:125%;letter-spacing:0px;word-spacing:0px;writing-mode:lr-tb;text-anchor:start;fill:#ffffff;fill-opacity:1;stroke:#585858;font-family:Sans;-inkscape-font-specification:Sans;stroke-opacity:1;stroke-width:0.31996786;stroke-miterlimit:4;stroke-dasharray:none"
       transform="matrix(1.2845587,0,0,1.9009616,-64.87977,-789.18298)"><flowRegion
         id="flowRegion4225"><rect
           id="rect4227"
           width="165.66502"
           height="80.307129"
           x="287.3884"
           y="863.96875"
           style="stroke:#585858;stroke-opacity:1;fill:#ffffff;fill-opacity:1;stroke-width:0.31996786;stroke-miterlimit:4;stroke-dasharray:none" /></flowRegion><flowPara
         id="flowPara4229"
         style="font-size:44px;font-style:normal;font-variant:normal;font-weight:bold;font-stretch:normal;text-align:start;line-height:125%;writing-mode:lr-tb;text-anchor:start;font-family:Sans;-inkscape-font-specification:Sans Bold;stroke:#585858;stroke-opacity:1;fill:#ffffff;fill-opacity:1;stroke-width:0.31996786;stroke-miterlimit:4;stroke-dasharray:none">Edit</flowPara></flowRoot>    <flowRoot
       xml:space="preserve"
       id="flowRoot4231"
       style="fill:black;stroke:none;stroke-opacity:1;stroke-width:1px;stroke-linejoin:miter;stroke-linecap:butt;fill-opacity:1;font-family:Sans;font-style:normal;font-weight:normal;font-size:12px;line-height:125%;letter-spacing:0px;word-spacing:0px;-inkscape-font-specification:Sans;font-stretch:normal;font-variant:normal;text-anchor:start;text-align:start;writing-mode:lr"><flowRegion
         id="flowRegion4233"><rect
           id="rect4235"
           width="188.89853"
           height="188.89856"
           x="525.78442"
           y="819.01697" /></flowRegion><flowPara
         id="flowPara4239"
         style="-inkscape-font-specification:Sans;font-family:Sans;font-weight:normal;font-style:normal;font-stretch:normal;font-variant:normal;font-size:180px;text-anchor:start;text-align:start;writing-mode:lr;line-height:125%">∑</flowPara></flowRoot>    <flowRoot
       xml:space="preserve"
       id="flowRoot4241"
       style="font-size:12px;font-style:normal;font-variant:normal;font-weight:normal;font-stretch:normal;text-align:start;line-height:125%;letter-spacing:0px;word-spacing:0px;writing-mode:lr-tb;text-anchor:start;fill:none;fill-opacity:1;stroke:#585858;font-family:Sans;-inkscape-font-specification:Sans;stroke-opacity:1;stroke-width:0.50480889;stroke-miterlimit:4;stroke-dasharray:none"
       transform="matrix(1.4423737,0,0,1.3331048,-219.51613,-326.5311)"><flowRegion
         id="flowRegion4243"><rect
           id="rect4245"
           width="196.47467"
           height="193.44421"
           x="514.16766"
           y="813.46112"
           style="stroke:#585858;stroke-opacity:1;fill:none;stroke-width:0.50480889;stroke-miterlimit:4;stroke-dasharray:none" /></flowRegion><flowPara
         id="flowPara4249"
         style="font-size:144px;font-style:normal;font-variant:normal;font-weight:normal;font-stretch:normal;text-align:start;line-height:125%;writing-mode:lr-tb;text-anchor:start;font-family:Georgia;-inkscape-font-specification:Georgia;stroke:#585858;stroke-opacity:1;fill:none;stroke-width:0.50480889;stroke-miterlimit:4;stroke-dasharray:none">∑</flowPara></flowRoot>  </g>
</svg>
