<?xml version="1.0" encoding="UTF-8" standalone="no"?>
<!-- Created with Inkscape (http://www.inkscape.org/) -->

<svg
   xmlns:dc="http://purl.org/dc/elements/1.1/"
   xmlns:cc="http://creativecommons.org/ns#"
   xmlns:rdf="http://www.w3.org/1999/02/22-rdf-syntax-ns#"
   xmlns:svg="http://www.w3.org/2000/svg"
   xmlns="http://www.w3.org/2000/svg"
   xmlns:sodipodi="http://sodipodi.sourceforge.net/DTD/sodipodi-0.dtd"
   xmlns:inkscape="http://www.inkscape.org/namespaces/inkscape"
   width="744.09448819"
   height="1052.3622047"
   id="svg2"
   version="1.1"
   inkscape:version="0.48.4 r9939"
   sodipodi:docname="6_email_icons_outlines_1.svg">
  <defs
     id="defs4" />
  <sodipodi:namedview
     id="base"
     pagecolor="#ffffff"
     bordercolor="#666666"
     borderopacity="1.0"
     inkscape:pageopacity="0.0"
     inkscape:pageshadow="2"
     inkscape:zoom="0.49497475"
     inkscape:cx="520.17071"
     inkscape:cy="479.16361"
     inkscape:document-units="px"
     inkscape:current-layer="layer1"
     showgrid="false"
     showguides="false"
     inkscape:window-width="1440"
     inkscape:window-height="844"
     inkscape:window-x="-6"
     inkscape:window-y="0"
     inkscape:window-maximized="1"
     inkscape:guide-bbox="true">
    <inkscape:grid
       type="xygrid"
       id="grid3781" />
    <sodipodi:guide
       orientation="-0.70710678,0.70710678"
       position="341.93664,630.84026"
       id="guide3825" />
    <sodipodi:guide
       orientation="0.70710678,0.70710678"
       position="319.2082,627.30473"
       id="guide3827" />
  </sodipodi:namedview>
  <metadata
     id="metadata7">
    <rdf:RDF>
      <cc:Work
         rdf:about="">
        <dc:format>image/svg+xml</dc:format>
        <dc:type
           rdf:resource="http://purl.org/dc/dcmitype/StillImage" />
        <dc:title />
      </cc:Work>
    </rdf:RDF>
  </metadata>
  <g
     inkscape:label="Layer 1"
     inkscape:groupmode="layer"
     id="layer1">
    <rect
       style="fill:#a2a2a2;stroke:#373737;stroke-width:0.69999999000000002;stroke-miterlimit:4;stroke-opacity:1;stroke-dasharray:none;fill-opacity:1"
       id="rect3801"
       width="745.71429"
       height="1051.4286"
       x="-2.8571429"
       y="0.93361121" />
    <rect
       style="fill:#ffffff;fill-opacity:1;stroke:#373737;stroke-width:0.69999999;stroke-miterlimit:4;stroke-opacity:1;stroke-dasharray:none"
       id="rect2985"
       width="222.85715"
       height="222.85715"
       x="17.142857"
       y="798.07648" />
    <rect
       style="fill:#ffffff;fill-opacity:1;stroke:#373737;stroke-width:0.69999999;stroke-miterlimit:4;stroke-opacity:1;stroke-dasharray:none"
       id="rect2985-5"
       width="222.85715"
       height="222.85715"
       x="262.85712"
       y="795.2193" />
    <rect
       style="fill:#ffffff;fill-opacity:1;stroke:#373737;stroke-width:0.69999999;stroke-miterlimit:4;stroke-opacity:1;stroke-dasharray:none"
       id="rect2985-6"
       width="222.85715"
       height="222.85715"
       x="502.85715"
       y="798.07648" />
    <rect
       style="fill:#ffffff;fill-opacity:1;stroke:#373737;stroke-width:0.69999999;stroke-miterlimit:4;stroke-opacity:1;stroke-dasharray:none"
       id="rect2985-0"
       width="222.85715"
       height="222.85715"
       x="502.85715"
       y="543.79077" />
    <rect
       style="fill:#ffffff;fill-opacity:1;stroke:#373737;stroke-width:0.69999999;stroke-miterlimit:4;stroke-opacity:1;stroke-dasharray:none"
       id="rect2985-1"
       width="222.85715"
       height="222.85715"
       x="502.85715"
       y="289.505" />
    <rect
       style="fill:#ffffff;fill-opacity:1;stroke:#373737;stroke-width:0.69999999;stroke-miterlimit:4;stroke-opacity:1;stroke-dasharray:none"
       id="rect2985-3"
       width="222.85715"
       height="222.85715"
       x="502.85715"
       y="35.219326" />
    <rect
       style="fill:#ffffff;fill-opacity:1;stroke:#373737;stroke-width:0.69999999;stroke-miterlimit:4;stroke-opacity:1;stroke-dasharray:none"
       id="rect2985-3-5"
       width="222.85715"
       height="222.85715"
       x="262.85712"
       y="542.83838" />
    <rect
       style="fill:#ffffff;fill-opacity:1;stroke:#373737;stroke-width:0.69999999;stroke-miterlimit:4;stroke-opacity:1;stroke-dasharray:none"
       id="rect2985-3-8"
       width="222.85715"
       height="222.85715"
       x="262.85712"
       y="290.45743" />
    <rect
       style="fill:#ffffff;fill-opacity:1;stroke:#373737;stroke-width:0.69999999;stroke-miterlimit:4;stroke-opacity:1;stroke-dasharray:none"
       id="rect2985-3-9"
       width="222.85715"
       height="222.85715"
       x="262.85712"
       y="38.076469" />
    <rect
       style="fill:#ffffff;fill-opacity:1;stroke:#373737;stroke-width:0.69999999;stroke-miterlimit:4;stroke-opacity:1;stroke-dasharray:none"
       id="rect2985-3-1"
       width="222.85715"
       height="222.85715"
       x="17.142857"
       y="40.933609" />
    <rect
       style="fill:#ffffff;fill-opacity:1;stroke:#373737;stroke-width:0.69999999;stroke-miterlimit:4;stroke-opacity:1;stroke-dasharray:none"
       id="rect2985-3-2"
       width="222.85715"
       height="222.85715"
       x="17.142857"
       y="293.31451" />
    <rect
       style="fill:#ffffff;fill-opacity:1;stroke:#373737;stroke-width:0.69999999;stroke-miterlimit:4;stroke-opacity:1;stroke-dasharray:none"
       id="rect2985-3-4"
       width="222.85715"
       height="222.85715"
       x="17.142857"
       y="545.6955" />
    <path
       style="fill:none;stroke:#000000;stroke-width:1px;stroke-linecap:butt;stroke-linejoin:miter;stroke-opacity:1"
       d="m 40.911178,215.95587 163.139632,0.50508 4.04061,-7.57614 L 210.11173,89.686806 198.49498,58.877154 47.47717,57.361925 37.375644,93.22234 l 0,112.12693 z"
       id="path2995"
       inkscape:connector-curvature="0"
       sodipodi:nodetypes="ccccccccc" />
    <path
       style="fill:none;stroke:#434343;stroke-width:0.60000002;stroke-linecap:butt;stroke-linejoin:miter;stroke-miterlimit:3.9000001;stroke-opacity:1;stroke-dasharray:none"
       d="M 188.89853,178.07515 54.548237,176.55993 c 0,0 -8.993059,-1.57361 -12.12183,-4.54569 -3.061375,-2.90806 -5.050763,-11.61676 -5.050763,-11.61676 0,0 4.636865,5.8464 7.576144,8.08122 3.177141,2.41567 6.61576,5.50214 10.606602,5.55584 50.53762,0.68007 134.35029,0.50508 134.35029,0.50508 0,0 7.63491,-1.69901 10.6066,-4.04061 3.04436,-2.39886 7.57614,-8.08122 7.57614,-8.08122 0,0 -2.05433,8.85094 -5.55583,12.12183 -3.43163,3.20563 -13.63706,3.53553 -13.63706,3.53553 z"
       id="path2997"
       inkscape:connector-curvature="0"
       sodipodi:nodetypes="ccscsscscsc" />
    <path
       sodipodi:type="arc"
       style="fill:#ffffff;fill-opacity:1;stroke:#434343;stroke-width:0.60000002;stroke-linejoin:round;stroke-miterlimit:3.9000001;stroke-opacity:1;stroke-dasharray:none"
       id="path3767"
       sodipodi:cx="176.27162"
       sodipodi:cy="105.34417"
       sodipodi:rx="27.779196"
       sodipodi:ry="29.7995"
       d="m 149.39573,97.806783 a 27.779196,29.7995 0 1 1 -0.40745,1.932169"
       sodipodi:start="3.3973071"
       sodipodi:end="9.6140029"
       sodipodi:open="true"
       transform="matrix(1.3244375,0,0,1.1922848,-66.280923,-14.447703)" />
    <flowRoot
       xml:space="preserve"
       id="flowRoot3769"
       style="font-size:12px;font-style:normal;font-variant:normal;font-weight:normal;font-stretch:normal;text-align:start;line-height:125%;letter-spacing:0px;word-spacing:0px;writing-mode:lr-tb;text-anchor:start;fill:none;fill-opacity:1;stroke:#585858;font-family:Sans;-inkscape-font-specification:Sans;stroke-opacity:1;stroke-width:0.25144812;stroke-miterlimit:4;stroke-dasharray:none"
       transform="matrix(2.0926247,0,0,1.8895216,-174.36097,-115.03485)"><flowRegion
         id="flowRegion3771"><rect
           id="rect3773"
           width="61.114227"
           height="59.093925"
           x="142.93658"
           y="87.161423"
           style="fill:none;stroke:#585858;stroke-opacity:1;stroke-width:0.25144812;stroke-miterlimit:4;stroke-dasharray:none" /></flowRegion><flowPara
         id="flowPara3775"
         style="font-size:48px;font-style:normal;font-variant:normal;font-weight:normal;font-stretch:normal;text-align:start;line-height:125%;writing-mode:lr-tb;text-anchor:start;font-family:Sans;-inkscape-font-specification:Sans;fill:none;stroke:#585858;stroke-opacity:1;stroke-width:0.25144812;stroke-miterlimit:4;stroke-dasharray:none">+</flowPara></flowRoot>    <path
       sodipodi:type="arc"
       style="fill:none;stroke:#585858;stroke-width:1.2032007;stroke-linejoin:round;stroke-miterlimit:4;stroke-opacity:1;stroke-dasharray:none"
       id="path3777"
       sodipodi:cx="376.7869"
       sodipodi:cy="91.959648"
       sodipodi:rx="80.307129"
       sodipodi:ry="11.364216"
       d="m 299.09113,89.085221 a 80.307129,11.364216 0 1 1 -1.17791,0.736844"
       sodipodi:start="3.3973071"
       sodipodi:end="9.6140029"
       sodipodi:open="true"
       transform="matrix(1.1217461,0,0,1.4603963,-55.721807,-57.237633)" />
    <path
       style="fill:none;stroke:#000000;stroke-width:1px;stroke-linecap:butt;stroke-linejoin:miter;stroke-opacity:1"
       d="m 276.7818,77.059903 c 0,0 19.41376,51.363637 38.2182,70.302277 9.46762,9.53519 35,20 35,20 l 2.52538,61.26397 c 0,0 5.6943,7.44194 12.13969,7.47461 6.71696,0.0341 12.80955,-7.97969 12.80955,-7.97969 L 380,167.36218 c 0,0 25.32617,-10.67409 35,-20 19.14662,-18.458 42.09403,-67.776899 42.09403,-67.776899 0,0 -6.57791,8.624991 -42.09403,12.776902 -15.5198,1.814298 -24.97206,1.877027 -47.30447,1.365234 C 345.03677,93.208145 325.10629,93.818616 300,87.362183 281.0247,82.482419 276.7818,77.059903 276.7818,77.059903 z"
       id="path3779"
       inkscape:connector-curvature="0"
       sodipodi:nodetypes="csccsccscsssc" />
    <path
       sodipodi:type="arc"
       style="fill:none;stroke:#585858;stroke-width:1.2032007;stroke-linejoin:round;stroke-miterlimit:4;stroke-opacity:1;stroke-dasharray:none"
       id="path3777-1"
       sodipodi:cx="376.7869"
       sodipodi:cy="91.959648"
       sodipodi:rx="80.307129"
       sodipodi:ry="11.364216"
       d="m 299.09113,89.085221 a 80.307129,11.364216 0 1 1 -1.17791,0.736844"
       sodipodi:start="3.3973071"
       sodipodi:end="9.6140029"
       sodipodi:open="true"
       transform="matrix(1.1217461,0,0,1.4603963,180.45635,-58.095464)" />
    <path
       style="fill:none;stroke:#000000;stroke-width:1px;stroke-linecap:butt;stroke-linejoin:miter;stroke-opacity:1"
       d="m 512.95996,76.202074 c 0,0 19.41376,51.363636 38.2182,70.302276 9.46762,9.53519 35,20.00001 35,20.00001 l 2.52538,61.26397 c 0,0 5.6943,7.44194 12.13969,7.47461 6.71696,0.0341 12.80955,-7.97969 12.80955,-7.97969 l 2.52538,-60.75889 c 0,0 25.32617,-10.6741 35,-20.00001 19.14662,-18.458 42.09403,-67.776898 42.09403,-67.776898 0,0 -6.57791,8.624991 -42.09403,12.776902 -15.5198,1.814298 -24.97206,1.877027 -47.30447,1.365234 -22.65876,-0.519272 -42.58924,0.0912 -67.69553,-6.365234 -18.9753,-4.879764 -23.2182,-10.30228 -23.2182,-10.30228 z"
       id="path3779-7"
       inkscape:connector-curvature="0"
       sodipodi:nodetypes="csccsccscsssc" />
    <path
       sodipodi:type="arc"
       style="fill:none;stroke:#585858;stroke-width:1.2032007;stroke-linejoin:round;stroke-miterlimit:4;stroke-opacity:1;stroke-dasharray:none"
       id="path3777-8"
       sodipodi:cx="376.7869"
       sodipodi:cy="91.959648"
       sodipodi:rx="80.307129"
       sodipodi:ry="11.364216"
       d="m 299.09113,89.085221 a 80.307129,11.364216 0 1 1 -1.17791,0.736844"
       sodipodi:start="3.3973071"
       sodipodi:end="9.6140029"
       sodipodi:open="true"
       transform="matrix(1.1217461,0,0,1.4603963,-305.48581,187.85478)" />
    <path
       style="fill:none;stroke:#000000;stroke-width:1px;stroke-linecap:butt;stroke-linejoin:miter;stroke-opacity:1"
       d="m 27.017791,322.15232 c 0,0 19.413756,51.36364 38.218196,70.30228 9.46762,9.53519 35.000003,20 35.000003,20 l 2.52538,61.26397 c 0,0 5.6943,7.44194 12.13969,7.47461 6.71696,0.0341 12.80956,-7.97969 12.80956,-7.97969 L 130.236,412.4546 c 0,0 25.32617,-10.67409 35,-20 19.14662,-18.458 42.09403,-67.7769 42.09403,-67.7769 0,0 -6.57791,8.62499 -42.09403,12.7769 -15.5198,1.8143 -24.97206,1.87703 -47.30448,1.36523 -22.658763,-0.51927 -42.589243,0.0912 -67.695533,-6.36523 -18.975296,-4.87976 -23.218196,-10.30228 -23.218196,-10.30228 z"
       id="path3779-6"
       inkscape:connector-curvature="0"
       sodipodi:nodetypes="csccsccscsssc" />
    <path
       style="fill:none;stroke:#000000;stroke-width:1px;stroke-linecap:butt;stroke-linejoin:miter;stroke-opacity:1"
       d="M 340.92648,446.77573 461.63971,329.09296 c 0,0 1.50463,-11.69272 -8.08121,-19.1929 -6.5259,-5.10601 -16.66752,-1.51523 -16.66752,-1.51523 L 319.2082,425.05745 285.36809,479.10061 z"
       id="path3823"
       inkscape:connector-curvature="0"
       sodipodi:nodetypes="ccscccc" />
    <path
       style="fill:none;stroke:#000000;stroke-width:0.5;stroke-linecap:butt;stroke-linejoin:miter;stroke-miterlimit:4;stroke-opacity:1;stroke-dasharray:none"
       d="m 318.19805,426.57268 c 0,0 14.14471,-0.42907 18.68782,4.04061 3.69712,3.63736 3.53554,15.15229 3.53554,15.15229 0,0 -0.11568,-11.45794 -4.04061,-15.15229 -4.49605,-4.23192 -18.18275,-4.04061 -18.18275,-4.04061 z"
       id="path3829"
       inkscape:connector-curvature="0"
       sodipodi:nodetypes="cscsc" />
    <path
       style="fill:none;stroke:#000000;stroke-width:1px;stroke-linecap:butt;stroke-linejoin:miter;stroke-opacity:1"
       d="m 309.10668,464.95848 c 0,0 -0.35714,-7.14916 -3.03046,-8.5863 -2.44565,-1.31475 -8.08122,2.02031 -8.08122,2.02031 0,0 4.5112,-2.42252 6.56599,-1.51523 2.82731,1.24839 4.54569,8.08122 4.54569,8.08122 z"
       id="path3831"
       inkscape:connector-curvature="0"
       sodipodi:nodetypes="cscsc" />
    <path
       style="fill:none;stroke:#000000;stroke-width:0.40000001;stroke-linecap:butt;stroke-linejoin:miter;stroke-miterlimit:4;stroke-opacity:1;stroke-dasharray:none"
       d="M 326.27927,426.57268 444.9722,306.8696 z"
       id="path3833"
       inkscape:connector-curvature="0"
       sodipodi:nodetypes="ccc" />
    <path
       style="fill:none;stroke:#000000;stroke-width:0.40000001;stroke-linecap:butt;stroke-linejoin:miter;stroke-miterlimit:4;stroke-opacity:1;stroke-dasharray:none"
       d="M 334.36049,428.59299 453.5585,309.90007 z"
       id="path3835"
       inkscape:connector-curvature="0"
       sodipodi:nodetypes="ccc" />
    <path
       style="fill:none;stroke:#000000;stroke-width:0.40000001;stroke-linecap:butt;stroke-linejoin:miter;stroke-miterlimit:4;stroke-opacity:1;stroke-dasharray:none"
       d="m 339.91633,436.16913 119.198,-117.68277 z"
       id="path3837"
       inkscape:connector-curvature="0"
       sodipodi:nodetypes="ccc" />
    <rect
       style="fill:none;stroke:#000000;stroke-width:0.69999999;stroke-linejoin:round;stroke-miterlimit:4;stroke-opacity:1;stroke-dasharray:none"
       id="rect3841"
       width="181.82745"
       height="140.41121"
       x="516.69305"
       y="344.24524" />
    <path
       style="fill:#ffffff;stroke:#000000;stroke-width:1px;stroke-linecap:butt;stroke-linejoin:miter;stroke-opacity:1;fill-opacity:1"
       d="m 584.87833,350.30617 -1.01015,66.16499 c 0,0 -0.75179,26.03354 -25.75889,26.76904 -25.34688,0.74549 -29.29443,-22.22336 -29.29443,-22.22336 l 0.50508,-98.99495 c 0,0 7.56489,-17.27559 31.8198,-17.67767 25.37403,-0.42063 33.84011,23.73859 33.84011,23.73859 l -0.50507,16.66751 c 0.45271,-1.24153 0.93311,-0.37164 -7.07107,-0.50507 l 0,-13.63706 c 0,0 -7.62436,-19.68396 -25.75889,-18.68783 -22.34363,1.22734 -26.76904,14.64722 -26.76904,14.64722 l -0.50508,87.3782 c 0,0 3.84264,16.52449 22.72843,16.16244 18.89113,-0.36215 18.68782,-18.68782 18.68782,-18.68782 l 1.51523,-61.61931 c 0,0 1.74587,-4.03362 3.53554,-4.04061 2.02729,-0.008 4.04061,4.54569 4.04061,4.54569 z"
       id="path3839"
       inkscape:connector-curvature="0"
       sodipodi:nodetypes="ccsccsccccsccsccsc" />
    <flowRoot
       xml:space="preserve"
       id="flowRoot3843"
       style="font-size:12px;font-style:normal;font-variant:normal;font-weight:normal;font-stretch:normal;text-align:start;line-height:125%;letter-spacing:0px;word-spacing:0px;writing-mode:lr-tb;text-anchor:start;fill:none;fill-opacity:1;stroke:#606060;font-family:Sans;-inkscape-font-specification:Sans;stroke-opacity:1;stroke-width:0.5;stroke-miterlimit:4;stroke-dasharray:none"
       transform="translate(-4.0406102,13.131983)"><flowRegion
         id="flowRegion3845"><rect
           id="rect3847"
           width="109.60159"
           height="68.185295"
           x="589.92908"
           y="379.09552"
           style="fill:none;stroke:#606060;stroke-opacity:1;stroke-width:0.5;stroke-miterlimit:4;stroke-dasharray:none" /></flowRegion><flowPara
         id="flowPara3849"
         style="font-size:48px;font-style:normal;font-variant:normal;font-weight:bold;font-stretch:normal;text-align:start;line-height:125%;writing-mode:lr-tb;text-anchor:start;font-family:Nimbus Roman No9 L;-inkscape-font-specification:Nimbus Roman No9 L Bold;fill:none;stroke:#606060;stroke-opacity:1;stroke-width:0.5;stroke-miterlimit:4;stroke-dasharray:none">DOC</flowPara></flowRoot>    <path
       style="fill:none;stroke:#000000;stroke-width:1px;stroke-linecap:butt;stroke-linejoin:miter;stroke-opacity:1"
       d="m 209.60666,678.10067 c -5.08871,-6.74997 -11.44111,-12.57795 -18.18276,-17.67768 -6.97817,-5.27864 -14.32614,-10.69055 -22.72843,-13.13198 -19.41748,-5.64209 -40.40263,-1.77135 -60.60915,-2.52538 -15.318308,-0.57162 -45.961939,-1.51523 -45.961939,-1.51523 l 16.162441,28.28427 -53.033008,-36.36549 37.88072,-49.49747 -3.030457,34.34518 c 0,0 27.426195,-10.90365 41.921333,-12.12183 23.64032,-1.98675 49.29481,-2.12527 70.71068,8.08122 11.06961,5.27561 18.16835,16.5486 26.26396,25.75889 6.26887,7.13202 13.18954,14.1087 17.17259,22.72843 3.25547,7.04517 5.05077,22.72844 5.05077,22.72844 l -0.50508,11.61675 c 0,0 -6.39594,-14.45289 -11.11167,-20.70812 z"
       id="path3851"
       inkscape:connector-curvature="0"
       sodipodi:nodetypes="sssscccccssssccs" />
    <g
       transform="matrix(1.1244406,-0.00678644,0.00614687,1.0184714,-12.740831,10.495672)"
       style="font-size:12px;font-style:normal;font-variant:normal;font-weight:normal;font-stretch:normal;text-align:start;line-height:125%;letter-spacing:0px;word-spacing:0px;writing-mode:lr-tb;text-anchor:start;fill:none;fill-opacity:1;stroke:#606060;font-family:Sans;-inkscape-font-specification:Sans;stroke-opacity:1;stroke-width:0.56066141;stroke-miterlimit:4;stroke-dasharray:none"
       id="flowRoot3853">
      <path
         d="m 75.705078,605.7664 c 1.102854,10e-6 1.891264,-0.20507 2.365234,-0.61524 0.483061,-0.41014 1.834304,-0.72656 1.834317,-1.66537 -1.3e-5,-0.92968 -0.07412,-3.17192 -0.557181,-3.57298 -0.47397,-0.40102 -2.424298,-2.20019 -3.471107,-1.66093 l -2.380356,1.22623 -0.0058,6.28829 2.214844,0 m -2.214844,3.63672 0.768139,12.46371 -5.739124,-0.1785 -0.292687,-24.97271 7.73775,-2.98267 c 2.538514,-0.97851 5.129155,1.331 6.377868,2.23332 1.257795,0.90236 2.040711,3.20649 2.04073,5.15699 -1.9e-5,1.34897 -0.171257,2.8081 -0.827489,3.67398 -0.647152,0.86589 -2.108171,2.37737 -3.420655,2.78752 0.720037,0.16407 2.467528,1.77246 3.032648,2.35578 0.574202,0.57423 0.991299,1.97415 1.57465,3.14992 l 2.362801,9.12491 -4.810494,-0.17004 -2.317018,-7.35045 c -0.501314,-1.02083 -0.532445,-2.2409 -1.998075,-3.84824 -0.510428,-0.37369 -2.142049,-1.44352 -2.998809,-1.44352 l -1.490235,0"
         style="font-size:28px;font-weight:bold;line-height:125%;letter-spacing:3px;stroke:#606060;stroke-width:0.56066141;stroke-miterlimit:4;stroke-opacity:1;font-family:Sans;-inkscape-font-specification:Sans Bold;fill:none;stroke-dasharray:none"
         id="path3862"
         inkscape:connector-curvature="0"
         sodipodi:nodetypes="ccccscccccccsccccccccccsc" />
      <path
         d="m 110.40543,604.94536 -0.006,2.94623 -14.873661,0.0622 c 0.148898,2.42568 0.684099,4.24316 1.605606,5.45248 0.921488,1.20929 2.211511,1.81051 3.870075,1.80356 1.33868,-0.006 2.70765,-0.32899 4.10693,-0.97029 1.41113,-0.66058 2.8585,-1.64868 4.34212,-2.9643 l -0.0171,7.97216 c -1.50651,0.93059 -3.0125,1.63007 -4.518,2.09849 -1.50558,0.48772 -3.01062,0.73469 -4.51516,0.74095 -3.601434,0.0143 -6.400083,-1.45605 -8.39595,-4.41322 -1.983988,-2.97644 -2.970328,-7.15093 -2.959025,-12.52349 0.01114,-5.27625 0.997187,-9.43008 2.958272,-12.46151 1.972924,-3.03143 4.677174,-4.55433 8.112763,-4.56866 3.12754,-0.0129 5.62399,1.50746 7.48936,4.56139 1.87719,3.05395 2.8104,7.14201 2.79965,12.26421 m -6.53221,-3.41001 c 0.004,-1.96414 -0.34797,-3.54167 -1.05625,-4.73264 -0.69642,-1.21023 -1.61328,-1.81297 -2.75055,-1.80826 -1.232082,0.005 -2.234335,0.57738 -3.006757,1.71671 -0.772401,1.12011 -1.255599,2.73964 -1.449596,4.85862 l 8.263143,-0.0336"
         style="font-size:28px;font-weight:bold;line-height:125%;letter-spacing:3px;stroke:#606060;stroke-width:0.56066141;stroke-miterlimit:4;stroke-opacity:1;font-family:Sans;-inkscape-font-specification:Sans Bold;fill:none;stroke-dasharray:none"
         id="path3864"
         inkscape:connector-curvature="0" />
      <path
         d="m 119.79128,609.17812 -0.0202,13.6355 -6.0578,0.0149 0.053,-35.85116 6.05779,-0.0149 -0.006,3.80308 c 0.83702,-1.51707 1.76368,-2.63246 2.78002,-3.34616 1.01633,-0.72907 2.18443,-1.09526 3.5043,-1.09853 2.33511,-0.006 4.25097,1.26494 5.74756,3.81208 1.49658,2.53171 2.24192,5.79959 2.23602,9.80366 -0.005,4.00407 -0.76094,7.28339 -2.26505,9.83794 -1.50411,2.53912 -3.42372,3.81154 -5.75882,3.8173 -1.31988,0.004 -2.48691,-0.34943 -3.50112,-1.05808 -1.01422,-0.72409 -1.93759,-1.84264 -2.77012,-3.35564 m 4.05211,-16.82242 c -1.29731,0.004 -2.29664,0.66272 -2.99797,1.97852 -0.69006,1.30034 -1.03692,3.17954 -1.04053,5.63763 -0.005,2.4581 0.33764,4.34334 1.02384,5.65572 0.69747,1.29688 1.69486,1.94374 2.99217,1.94053 1.29727,-0.004 2.28531,-0.65494 2.96409,-1.95524 0.69003,-1.3003 1.03689,-3.18724 1.04056,-5.6608 0.005,-2.47357 -0.33765,-4.35879 -1.02383,-5.65573 -0.67495,-1.29693 -1.66106,-1.94379 -2.95833,-1.94063"
         style="font-size:28px;font-weight:bold;line-height:125%;letter-spacing:3px;stroke:#606060;stroke-width:0.56066141;stroke-miterlimit:4;stroke-opacity:1;font-family:Sans;-inkscape-font-specification:Sans Bold;fill:none;stroke-dasharray:none"
         id="path3866"
         inkscape:connector-curvature="0" />
      <path
         d="m 138.31237,587.8386 4.18871,1.5635 0.24852,33.64378 -5.15113,0.18341 0.0777,-35.21961"
         style="font-size:28px;font-weight:bold;line-height:125%;letter-spacing:3px;fill:none;stroke:#606060;stroke-width:0.56066141;stroke-miterlimit:4;stroke-opacity:1;font-family:Sans;-inkscape-font-specification:Sans Bold;stroke-dasharray:none"
         id="path3868"
         inkscape:connector-curvature="0"
         sodipodi:nodetypes="ccccc" />
      <path
         d="m 146.05777,590.05355 5.36135,1.75644 5.50996,16.71189 4.30744,-12.8399 5.19392,3.33332 -7.05741,13.60161 c -0.64715,1.70442 0.16329,6.76163 -1.66403,9.0077 -0.85678,0.68359 -3.54595,3.21419 -4.84215,2.59382 l -3.93788,-0.70872 -0.154,-4.09059 4.70444,0.54668 c 2.79205,0.32445 1.77735,-5.38984 1.97883,-3.20065 0.17033,-0.73256 0.24767,-0.94415 0.24096,-3.60425 l -9.64047,-23.28315"
         style="font-size:28px;font-weight:bold;line-height:125%;letter-spacing:3px;fill:none;stroke:#606060;stroke-width:0.56066141;stroke-miterlimit:4;stroke-opacity:1;font-family:Sans;-inkscape-font-specification:Sans Bold;stroke-dasharray:none"
         id="path3870"
         inkscape:connector-curvature="0"
         sodipodi:nodetypes="cccccccsccsccc" />
    </g>
    <path
       style="fill:none;stroke:#000000;stroke-width:1px;stroke-linecap:butt;stroke-linejoin:miter;stroke-opacity:1"
       d="m 455.07373,671.53468 c -5.08871,-6.74997 -11.44111,-12.57795 -18.18276,-17.67768 -6.97817,-5.27864 -14.32614,-10.69055 -22.72843,-13.13198 -19.41748,-5.64209 -40.40263,-1.77135 -60.60915,-2.52538 -15.31831,-0.57162 -45.96194,-1.51523 -45.96194,-1.51523 l 16.16244,28.28427 -53.03301,-36.36549 37.88072,-49.49747 -3.03045,34.34518 c 0,0 27.42619,-10.90365 41.92133,-12.12183 23.64032,-1.98675 49.29481,-2.12527 70.71068,8.08122 11.06961,5.27561 18.16835,16.5486 26.26396,25.75889 6.26887,7.13202 13.18954,14.1087 17.17259,22.72843 3.25547,7.04517 5.05077,22.72844 5.05077,22.72844 l -0.50508,11.61675 c 0,0 -6.39594,-14.45289 -11.11167,-20.70812 z"
       id="path3851-6"
       inkscape:connector-curvature="0"
       sodipodi:nodetypes="sssscccccssssccs" />
    <g
       transform="matrix(1.1244406,-0.00678644,0.00614687,1.0184714,232.72624,3.9296774)"
       style="font-size:12px;font-style:normal;font-variant:normal;font-weight:normal;font-stretch:normal;text-align:start;line-height:125%;letter-spacing:0px;word-spacing:0px;writing-mode:lr-tb;text-anchor:start;fill:none;stroke:#606060;stroke-width:0.56066144;stroke-miterlimit:4;stroke-opacity:1;stroke-dasharray:none;font-family:Sans;-inkscape-font-specification:Sans"
       id="flowRoot3853-9">
      <path
         d="m 75.705078,605.7664 c 1.102854,10e-6 1.891264,-0.20507 2.365234,-0.61524 0.483061,-0.41014 1.834304,-0.72656 1.834317,-1.66537 -1.3e-5,-0.92968 -0.07412,-3.17192 -0.557181,-3.57298 -0.47397,-0.40102 -2.424298,-2.20019 -3.471107,-1.66093 l -2.380356,1.22623 -0.0058,6.28829 2.214844,0 m -2.214844,3.63672 0.768139,12.46371 -5.739124,-0.1785 -0.292687,-24.97271 7.73775,-2.98267 c 2.538514,-0.97851 5.129155,1.331 6.377868,2.23332 1.257795,0.90236 2.040711,3.20649 2.04073,5.15699 -1.9e-5,1.34897 -0.171257,2.8081 -0.827489,3.67398 -0.647152,0.86589 -2.108171,2.37737 -3.420655,2.78752 0.720037,0.16407 2.467528,1.77246 3.032648,2.35578 0.574202,0.57423 0.991299,1.97415 1.57465,3.14992 l 2.362801,9.12491 -4.810494,-0.17004 -2.317018,-7.35045 c -0.501314,-1.02083 -0.532445,-2.2409 -1.998075,-3.84824 -0.510428,-0.37369 -2.142049,-1.44352 -2.998809,-1.44352 l -1.490235,0"
         style="font-size:28px;font-weight:bold;line-height:125%;letter-spacing:3px;fill:none;stroke:#606060;stroke-width:0.56066144;stroke-miterlimit:4;stroke-opacity:1;stroke-dasharray:none;font-family:Sans;-inkscape-font-specification:Sans Bold"
         id="path3862-7"
         inkscape:connector-curvature="0"
         sodipodi:nodetypes="ccccscccccccsccccccccccsc" />
      <path
         d="m 110.40543,604.94536 -0.006,2.94623 -14.873661,0.0622 c 0.148898,2.42568 0.684099,4.24316 1.605606,5.45248 0.921488,1.20929 2.211511,1.81051 3.870075,1.80356 1.33868,-0.006 2.70765,-0.32899 4.10693,-0.97029 1.41113,-0.66058 2.8585,-1.64868 4.34212,-2.9643 l -0.0171,7.97216 c -1.50651,0.93059 -3.0125,1.63007 -4.518,2.09849 -1.50558,0.48772 -3.01062,0.73469 -4.51516,0.74095 -3.601434,0.0143 -6.400083,-1.45605 -8.39595,-4.41322 -1.983988,-2.97644 -2.970328,-7.15093 -2.959025,-12.52349 0.01114,-5.27625 0.997187,-9.43008 2.958272,-12.46151 1.972924,-3.03143 4.677174,-4.55433 8.112763,-4.56866 3.12754,-0.0129 5.62399,1.50746 7.48936,4.56139 1.87719,3.05395 2.8104,7.14201 2.79965,12.26421 m -6.53221,-3.41001 c 0.004,-1.96414 -0.34797,-3.54167 -1.05625,-4.73264 -0.69642,-1.21023 -1.61328,-1.81297 -2.75055,-1.80826 -1.232082,0.005 -2.234335,0.57738 -3.006757,1.71671 -0.772401,1.12011 -1.255599,2.73964 -1.449596,4.85862 l 8.263143,-0.0336"
         style="font-size:28px;font-weight:bold;line-height:125%;letter-spacing:3px;fill:none;stroke:#606060;stroke-width:0.56066144;stroke-miterlimit:4;stroke-opacity:1;stroke-dasharray:none;font-family:Sans;-inkscape-font-specification:Sans Bold"
         id="path3864-0"
         inkscape:connector-curvature="0" />
      <path
         d="m 119.79128,609.17812 -0.0202,13.6355 -6.0578,0.0149 0.053,-35.85116 6.05779,-0.0149 -0.006,3.80308 c 0.83702,-1.51707 1.76368,-2.63246 2.78002,-3.34616 1.01633,-0.72907 2.18443,-1.09526 3.5043,-1.09853 2.33511,-0.006 4.25097,1.26494 5.74756,3.81208 1.49658,2.53171 2.24192,5.79959 2.23602,9.80366 -0.005,4.00407 -0.76094,7.28339 -2.26505,9.83794 -1.50411,2.53912 -3.42372,3.81154 -5.75882,3.8173 -1.31988,0.004 -2.48691,-0.34943 -3.50112,-1.05808 -1.01422,-0.72409 -1.93759,-1.84264 -2.77012,-3.35564 m 4.05211,-16.82242 c -1.29731,0.004 -2.29664,0.66272 -2.99797,1.97852 -0.69006,1.30034 -1.03692,3.17954 -1.04053,5.63763 -0.005,2.4581 0.33764,4.34334 1.02384,5.65572 0.69747,1.29688 1.69486,1.94374 2.99217,1.94053 1.29727,-0.004 2.28531,-0.65494 2.96409,-1.95524 0.69003,-1.3003 1.03689,-3.18724 1.04056,-5.6608 0.005,-2.47357 -0.33765,-4.35879 -1.02383,-5.65573 -0.67495,-1.29693 -1.66106,-1.94379 -2.95833,-1.94063"
         style="font-size:28px;font-weight:bold;line-height:125%;letter-spacing:3px;fill:none;stroke:#606060;stroke-width:0.56066144;stroke-miterlimit:4;stroke-opacity:1;stroke-dasharray:none;font-family:Sans;-inkscape-font-specification:Sans Bold"
         id="path3866-3"
         inkscape:connector-curvature="0" />
      <path
         d="m 138.31237,587.8386 4.18871,1.5635 0.24852,33.64378 -5.15113,0.18341 0.0777,-35.21961"
         style="font-size:28px;font-weight:bold;line-height:125%;letter-spacing:3px;fill:none;stroke:#606060;stroke-width:0.56066144;stroke-miterlimit:4;stroke-opacity:1;stroke-dasharray:none;font-family:Sans;-inkscape-font-specification:Sans Bold"
         id="path3868-8"
         inkscape:connector-curvature="0"
         sodipodi:nodetypes="ccccc" />
      <path
         d="m 146.05777,590.05355 5.36135,1.75644 5.50996,16.71189 4.30744,-12.8399 5.19392,3.33332 -7.05741,13.60161 c -0.64715,1.70442 0.16329,6.76163 -1.66403,9.0077 -0.85678,0.68359 -3.54595,3.21419 -4.84215,2.59382 l -3.93788,-0.70872 -0.154,-4.09059 4.70444,0.54668 c 2.79205,0.32445 1.77735,-5.38984 1.97883,-3.20065 0.17033,-0.73256 0.24767,-0.94415 0.24096,-3.60425 l -9.64047,-23.28315"
         style="font-size:28px;font-weight:bold;line-height:125%;letter-spacing:3px;fill:none;stroke:#606060;stroke-width:0.56066144;stroke-miterlimit:4;stroke-opacity:1;stroke-dasharray:none;font-family:Sans;-inkscape-font-specification:Sans Bold"
         id="path3870-3"
         inkscape:connector-curvature="0"
         sodipodi:nodetypes="cccccccsccsccc" />
    </g>
    <flowRoot
       xml:space="preserve"
       id="flowRoot3908"
       style="font-size:12px;font-style:normal;font-variant:normal;font-weight:normal;font-stretch:normal;text-align:start;line-height:125%;letter-spacing:0px;word-spacing:0px;writing-mode:lr-tb;text-anchor:start;fill:none;fill-opacity:1;stroke:#606060;font-family:Sans;-inkscape-font-specification:Sans;stroke-opacity:1;stroke-width:0.6;stroke-miterlimit:4;stroke-dasharray:none"
       transform="translate(-2.5253814,-14.142136)"><flowRegion
         id="flowRegion3910"><rect
           id="rect3912"
           width="109.60154"
           height="61.619312"
           x="337.39096"
           y="649.81641"
           style="fill:none;stroke:#606060;stroke-opacity:1;stroke-width:0.6;stroke-miterlimit:4;stroke-dasharray:none" /></flowRegion><flowPara
         id="flowPara3914"
         style="font-size:48px;font-style:normal;font-variant:normal;font-weight:bold;font-stretch:normal;text-align:start;line-height:125%;writing-mode:lr-tb;text-anchor:start;font-family:Sans;-inkscape-font-specification:Sans Bold;fill:none;stroke:#606060;stroke-opacity:1;stroke-width:0.6;stroke-miterlimit:4;stroke-dasharray:none">All</flowPara></flowRoot>    <flowRoot
       xml:space="preserve"
       id="flowRoot3916"
       style="font-size:12px;font-style:normal;font-variant:normal;font-weight:normal;font-stretch:normal;text-align:start;line-height:125%;letter-spacing:0px;word-spacing:0px;writing-mode:lr-tb;text-anchor:start;fill:none;fill-opacity:1;stroke:#606060;font-family:Sans;-inkscape-font-specification:Sans;stroke-opacity:1;stroke-width:0.89853245;stroke-miterlimit:4;stroke-dasharray:none"
       transform="matrix(0.93156686,0,0,1.0413698,20.68636,-31.030446)"><flowRegion
         id="flowRegion3918"><rect
           id="rect3920"
           width="213.64731"
           height="171.72588"
           x="520.22858"
           y="573.0448"
           style="fill:none;stroke:#606060;stroke-opacity:1;stroke-width:0.89853245;stroke-miterlimit:4;stroke-dasharray:none" /></flowRegion><flowPara
         id="flowPara3922"
         style="font-size:64px;font-style:normal;font-variant:normal;font-weight:bold;font-stretch:normal;text-align:center;line-height:100%;writing-mode:lr-tb;text-anchor:middle;font-family:Georgia;-inkscape-font-specification:Georgia Bold;fill:none;stroke:#606060;stroke-opacity:1;stroke-width:0.89853245;stroke-miterlimit:4;stroke-dasharray:none">Group</flowPara><flowPara
         id="flowPara3924"
         style="font-size:64px;font-style:normal;font-variant:normal;font-weight:bold;font-stretch:normal;text-align:center;line-height:100%;writing-mode:lr-tb;text-anchor:middle;font-family:Georgia;-inkscape-font-specification:Georgia Bold;fill:none;stroke:#606060;stroke-opacity:1;stroke-width:0.89853245;stroke-miterlimit:4;stroke-dasharray:none">List</flowPara></flowRoot>    <flowRoot
       xml:space="preserve"
       id="flowRoot3926"
       style="font-size:12px;font-style:normal;font-variant:normal;font-weight:normal;font-stretch:normal;text-align:start;line-height:125%;letter-spacing:0px;word-spacing:0px;writing-mode:lr-tb;text-anchor:start;fill:none;fill-opacity:1;stroke:#606060;font-family:Sans;-inkscape-font-specification:Sans;stroke-opacity:1;stroke-width:0.77741159;stroke-miterlimit:4;stroke-dasharray:none"
       transform="matrix(0.90042393,0,0,0.90042393,2.461396,82.611689)"><flowRegion
         id="flowRegion3928"><rect
           id="rect3930"
           width="229.30463"
           height="191.42387"
           x="26.263966"
           y="815.48138"
           style="fill:none;stroke:#606060;stroke-opacity:1;stroke-width:0.77741159;stroke-miterlimit:4;stroke-dasharray:none" /></flowRegion><flowPara
         id="flowPara3932"
         style="font-size:56px;font-style:normal;font-variant:normal;font-weight:bold;font-stretch:normal;text-align:start;line-height:125%;writing-mode:lr-tb;text-anchor:start;font-family:Georgia;-inkscape-font-specification:Georgia Bold;fill:none;stroke:#606060;stroke-opacity:1;stroke-width:0.77741159;stroke-miterlimit:4;stroke-dasharray:none">Add</flowPara><flowPara
         id="flowPara3934"
         style="font-size:56px;font-style:normal;font-variant:normal;font-weight:bold;font-stretch:normal;text-align:start;line-height:125%;writing-mode:lr-tb;text-anchor:start;font-family:Georgia;-inkscape-font-specification:Georgia Bold;fill:none;stroke:#606060;stroke-opacity:1;stroke-width:0.77741159;stroke-miterlimit:4;stroke-dasharray:none">Contact</flowPara></flowRoot>    <flowRoot
       xml:space="preserve"
       id="flowRoot3936"
       style="font-size:12px;font-style:normal;font-variant:normal;font-weight:normal;font-stretch:normal;text-align:start;line-height:125%;letter-spacing:0px;word-spacing:0px;writing-mode:lr-tb;text-anchor:start;fill:none;fill-opacity:1;stroke:#606060;font-family:Sans;-inkscape-font-specification:Sans;stroke-opacity:1;stroke-width:0.56657786;stroke-miterlimit:4;stroke-dasharray:none"
       transform="matrix(1.0589895,0,0,1.0589895,-15.500883,-59.102487)"><flowRegion
         id="flowRegion3938"><rect
           id="rect3940"
           width="206.07112"
           height="139.90613"
           x="269.71072"
           y="827.09814"
           style="fill:none;stroke:#606060;stroke-opacity:1;stroke-width:0.56657786;stroke-miterlimit:4;stroke-dasharray:none" /></flowRegion><flowPara
         id="flowPara3942"
         style="font-size:48px;font-style:normal;font-variant:normal;font-weight:bold;font-stretch:normal;text-align:start;line-height:125%;writing-mode:lr-tb;text-anchor:start;font-family:Georgia;-inkscape-font-specification:Georgia Bold;fill:none;stroke:#606060;stroke-opacity:1;stroke-width:0.56657786;stroke-miterlimit:4;stroke-dasharray:none">Edit</flowPara><flowPara
         id="flowPara3944"
         style="font-size:48px;font-style:normal;font-variant:normal;font-weight:bold;font-stretch:normal;text-align:start;line-height:125%;writing-mode:lr-tb;text-anchor:start;font-family:Georgia;-inkscape-font-specification:Georgia Bold;fill:none;stroke:#606060;stroke-opacity:1;stroke-width:0.56657786;stroke-miterlimit:4;stroke-dasharray:none">Contact</flowPara></flowRoot>    <flowRoot
       xml:space="preserve"
       id="flowRoot3946"
       style="font-size:12px;font-style:normal;font-variant:normal;font-weight:normal;font-stretch:normal;text-align:start;line-height:125%;letter-spacing:0px;word-spacing:0px;writing-mode:lr-tb;text-anchor:start;fill:none;fill-opacity:1;stroke:#606060;font-family:Sans;-inkscape-font-specification:Sans;stroke-opacity:1;stroke-width:0.57355208;stroke-miterlimit:4;stroke-dasharray:none"
       transform="matrix(1.0461125,0,0,1.0461125,-25.183564,-47.930055)"><flowRegion
         id="flowRegion3948"><rect
           id="rect3950"
           width="208.09143"
           height="135.86552"
           x="511.64227"
           y="827.09814"
           style="fill:none;stroke:#606060;stroke-opacity:1;stroke-width:0.57355208;stroke-miterlimit:4;stroke-dasharray:none" /></flowRegion><flowPara
         id="flowPara3952"
         style="font-size:48px;font-style:normal;font-variant:normal;font-weight:bold;font-stretch:normal;text-align:start;line-height:125%;writing-mode:lr-tb;text-anchor:start;font-family:Georgia;-inkscape-font-specification:Georgia Bold;fill:none;stroke:#606060;stroke-opacity:1;stroke-width:0.57355208;stroke-miterlimit:4;stroke-dasharray:none">Remove</flowPara><flowPara
         id="flowPara3954"
         style="font-size:48px;font-style:normal;font-variant:normal;font-weight:bold;font-stretch:normal;text-align:start;line-height:125%;writing-mode:lr-tb;text-anchor:start;font-family:Georgia;-inkscape-font-specification:Georgia Bold;fill:none;stroke:#606060;stroke-opacity:1;stroke-width:0.57355208;stroke-miterlimit:4;stroke-dasharray:none">Contact</flowPara></flowRoot>  </g>
</svg>
