<?xml version="1.0" encoding="UTF-8" standalone="no"?>
<!-- Created with Inkscape (http://www.inkscape.org/) -->

<svg
   xmlns:dc="http://purl.org/dc/elements/1.1/"
   xmlns:cc="http://creativecommons.org/ns#"
   xmlns:rdf="http://www.w3.org/1999/02/22-rdf-syntax-ns#"
   xmlns:svg="http://www.w3.org/2000/svg"
   xmlns="http://www.w3.org/2000/svg"
   xmlns:sodipodi="http://sodipodi.sourceforge.net/DTD/sodipodi-0.dtd"
   xmlns:inkscape="http://www.inkscape.org/namespaces/inkscape"
   width="744.09448819"
   height="1052.3622047"
   id="svg2"
   version="1.1"
   inkscape:version="0.48.4 r9939"
   sodipodi:docname="7_email_icons_outlines_2.svg">
  <defs
     id="defs4" />
  <sodipodi:namedview
     id="base"
     pagecolor="#ffffff"
     bordercolor="#666666"
     borderopacity="1.0"
     inkscape:pageopacity="0.0"
     inkscape:pageshadow="2"
     inkscape:zoom="1.979899"
     inkscape:cx="600.74988"
     inkscape:cy="135.16811"
     inkscape:document-units="px"
     inkscape:current-layer="layer1"
     showgrid="false"
     showguides="false"
     inkscape:window-width="1440"
     inkscape:window-height="844"
     inkscape:window-x="-6"
     inkscape:window-y="0"
     inkscape:window-maximized="1"
     inkscape:guide-bbox="true">
    <sodipodi:guide
       orientation="1,0"
       position="517.70318,736.90628"
       id="guide3817" />
    <sodipodi:guide
       orientation="1,0"
       position="684.37834,661.14484"
       id="guide3821" />
    <sodipodi:guide
       orientation="1,0"
       position="608.11183,610.63721"
       id="guide3823" />
    <sodipodi:guide
       orientation="0,1"
       position="411.13208,572.25141"
       id="guide3825" />
    <sodipodi:guide
       orientation="0,1"
       position="412.64731,736.90628"
       id="guide3827" />
    <sodipodi:guide
       orientation="0,1"
       position="432.34529,726.80475"
       id="guide3829" />
    <sodipodi:guide
       orientation="0,1"
       position="479.82246,601.04076"
       id="guide3831" />
  </sodipodi:namedview>
  <metadata
     id="metadata7">
    <rdf:RDF>
      <cc:Work
         rdf:about="">
        <dc:format>image/svg+xml</dc:format>
        <dc:type
           rdf:resource="http://purl.org/dc/dcmitype/StillImage" />
        <dc:title />
      </cc:Work>
    </rdf:RDF>
  </metadata>
  <g
     inkscape:label="Layer 1"
     inkscape:groupmode="layer"
     id="layer1">
    <rect
       style="fill:#a2a2a2;stroke:#373737;stroke-width:0.69999999000000002;stroke-miterlimit:4;stroke-opacity:1;stroke-dasharray:none;fill-opacity:1"
       id="rect3801"
       width="745.71429"
       height="1051.4286"
       x="-2.8571429"
       y="0.93361121" />
    <rect
       style="fill:#ffffff;fill-opacity:1;stroke:#373737;stroke-width:0.69999999;stroke-miterlimit:4;stroke-opacity:1;stroke-dasharray:none"
       id="rect2985"
       width="222.85715"
       height="222.85715"
       x="17.142857"
       y="798.07648" />
    <rect
       style="fill:#ffffff;fill-opacity:1;stroke:#373737;stroke-width:0.69999999;stroke-miterlimit:4;stroke-opacity:1;stroke-dasharray:none"
       id="rect2985-5"
       width="222.85715"
       height="222.85715"
       x="262.85712"
       y="795.2193" />
    <rect
       style="fill:#ffffff;fill-opacity:1;stroke:#373737;stroke-width:0.69999999;stroke-miterlimit:4;stroke-opacity:1;stroke-dasharray:none"
       id="rect2985-6"
       width="222.85715"
       height="222.85715"
       x="502.85715"
       y="798.07648" />
    <rect
       style="fill:#ffffff;fill-opacity:1;stroke:#373737;stroke-width:0.69999999;stroke-miterlimit:4;stroke-opacity:1;stroke-dasharray:none"
       id="rect2985-0"
       width="222.85715"
       height="222.85715"
       x="502.85715"
       y="543.79077" />
    <rect
       style="fill:#ffffff;fill-opacity:1;stroke:#ffffff;stroke-width:0.69999999000000002;stroke-miterlimit:4;stroke-opacity:1;stroke-dasharray:none"
       id="rect2985-1"
       width="222.85715"
       height="222.85715"
       x="502.85715"
       y="289.505" />
    <rect
       style="fill:#ffffff;fill-opacity:1;stroke:#373737;stroke-width:0.69999999;stroke-miterlimit:4;stroke-opacity:1;stroke-dasharray:none"
       id="rect2985-3"
       width="222.85715"
       height="222.85715"
       x="502.85715"
       y="35.219326" />
    <rect
       style="fill:#ffffff;fill-opacity:1;stroke:#373737;stroke-width:0.69999999;stroke-miterlimit:4;stroke-opacity:1;stroke-dasharray:none"
       id="rect2985-3-5"
       width="222.85715"
       height="222.85715"
       x="262.85712"
       y="542.83838" />
    <rect
       style="fill:#ffffff;fill-opacity:1;stroke:#373737;stroke-width:0.69999999;stroke-miterlimit:4;stroke-opacity:1;stroke-dasharray:none"
       id="rect2985-3-8"
       width="222.85715"
       height="222.85715"
       x="262.85712"
       y="290.45743" />
    <rect
       style="fill:#ffffff;fill-opacity:1;stroke:#373737;stroke-width:0.69999999;stroke-miterlimit:4;stroke-opacity:1;stroke-dasharray:none"
       id="rect2985-3-9"
       width="222.85715"
       height="222.85715"
       x="262.85712"
       y="38.076469" />
    <rect
       style="fill:#ffffff;fill-opacity:1;stroke:#373737;stroke-width:0.69999999;stroke-miterlimit:4;stroke-opacity:1;stroke-dasharray:none"
       id="rect2985-3-1"
       width="222.85715"
       height="222.85715"
       x="17.142857"
       y="40.933609" />
    <rect
       style="fill:#ffffff;fill-opacity:1;stroke:#373737;stroke-width:0.69999999;stroke-miterlimit:4;stroke-opacity:1;stroke-dasharray:none"
       id="rect2985-3-2"
       width="222.85715"
       height="222.85715"
       x="17.142857"
       y="293.31451" />
    <rect
       style="fill:#ffffff;fill-opacity:1;stroke:#373737;stroke-width:0.69999999;stroke-miterlimit:4;stroke-opacity:1;stroke-dasharray:none"
       id="rect2985-3-4"
       width="222.85715"
       height="222.85715"
       x="17.142857"
       y="545.6955" />
    <path
       id="path3773"
       style="fill:none;stroke:#000000;stroke-width:1px;stroke-linecap:butt;stroke-linejoin:miter;stroke-opacity:1"
       d="m 84.285714,99.147895 99.999996,-0.357142 z m 0.5671,-30.674292 -0.06128,30.329957 z M 35.860415,143.72997 85.383271,99.109941 z m 2.020305,-0.50508 c 0,0 47.391371,-6.03253 71.21575,-6.06092 22.46816,-0.0268 67.17515,5.55585 67.17515,5.55585 0,0 -44.84479,-10.61136 -67.68022,-10.60661 -23.859472,0.005 -70.71068,11.11168 -70.71068,11.11168 z m 137.38075,33.33504 31.8198,-55.05331 -0.50508,-52.527941 0.50508,51.517781 z M 36.4508,110.58119 84.282478,67.54876 l 123.218562,0 -32.23439,45.72197 0.51991,63.20388 -139.33576,-0.67237 z" />
    <path
       inkscape:connector-curvature="0"
       id="path3773-5"
       style="fill:none;stroke:#000000;stroke-width:1px;stroke-linecap:butt;stroke-linejoin:miter;stroke-opacity:1"
       d="m 326.19956,98.395497 99.99999,-0.35714 z m 0.5671,-30.67429 -0.0613,30.32995 z m -48.9924,75.256363 49.52286,-44.620023 z m 2.0203,-0.50508 c 0,0 47.39138,-6.03253 71.21575,-6.06092 22.46816,-0.0268 67.17515,5.55585 67.17515,5.55585 0,0 -44.84479,-10.61136 -67.68022,-10.60661 -23.85947,0.005 -70.71068,11.11168 -70.71068,11.11168 z m 137.38075,33.33504 31.81981,-55.05331 -0.50509,-52.527943 0.50509,51.517783 z m -138.81067,-65.97874 47.83168,-43.032433 123.21856,0 -32.23439,45.721973 0.51992,63.20388 -139.33577,-0.67237 z" />
    <path
       inkscape:connector-curvature="0"
       id="path3773-3"
       style="fill:none;stroke:#000000;stroke-width:1px;stroke-linecap:butt;stroke-linejoin:miter;stroke-opacity:1"
       d="m 566.53357,99.812873 99.99999,-0.35714 z m 0.5671,-30.67429 -0.0613,30.32996 z m -48.9924,75.256367 49.52285,-44.620027 z m 2.0203,-0.50508 c 0,0 47.39137,-6.03253 71.21575,-6.06092 22.46816,-0.0268 67.17515,5.55585 67.17515,5.55585 0,0 -44.84479,-10.61136 -67.68022,-10.60661 -23.85947,0.005 -70.71068,11.11168 -70.71068,11.11168 z m 137.38075,33.33504 31.81981,-55.05331 -0.50509,-52.527937 0.50509,51.517777 z m -138.81067,-65.97874 47.83168,-43.032427 123.21856,0 -32.23439,45.721967 0.51992,63.20388 -139.33577,-0.67237 z" />
    <flowRoot
       xml:space="preserve"
       id="flowRoot3801"
       style="font-size:12px;font-style:normal;font-variant:normal;font-weight:normal;font-stretch:normal;text-align:start;line-height:125%;letter-spacing:0px;word-spacing:0px;writing-mode:lr-tb;text-anchor:start;fill:none;fill-opacity:1;stroke:#000000;font-family:Sans;-inkscape-font-specification:Sans;stroke-opacity:1;stroke-width:0.5;stroke-miterlimit:4;stroke-dasharray:none"
       transform="translate(13.214286,-2.5)"><flowRegion
         id="flowRegion3803"><rect
           id="rect3805"
           width="186.42857"
           height="102.85714"
           x="56.42857"
           y="143.43361"
           style="fill:none;stroke:#000000;stroke-opacity:1;stroke-width:0.5;stroke-miterlimit:4;stroke-dasharray:none" /></flowRegion><flowPara
         id="flowPara3807"
         style="font-size:24px;font-style:normal;font-variant:normal;font-weight:bold;font-stretch:normal;text-align:start;line-height:125%;writing-mode:lr-tb;text-anchor:start;font-family:Georgia;-inkscape-font-specification:Georgia Bold;fill:none;stroke:#000000;stroke-opacity:1;stroke-width:0.5;stroke-miterlimit:4;stroke-dasharray:none">Inbox</flowPara></flowRoot>    <flowRoot
       xml:space="preserve"
       id="flowRoot3809"
       style="font-size:12px;font-style:normal;font-variant:normal;font-weight:normal;font-stretch:normal;text-align:start;line-height:125%;letter-spacing:0px;word-spacing:0px;writing-mode:lr-tb;text-anchor:start;fill:none;fill-opacity:1;stroke:#000000;font-family:Sans;-inkscape-font-specification:Sans;stroke-opacity:1;stroke-width:0.6;stroke-miterlimit:4;stroke-dasharray:none"
       transform="translate(13.131983,-4.0406102)"><flowRegion
         id="flowRegion3811"><rect
           id="rect3813"
           width="120.20815"
           height="32.324879"
           x="288.39856"
           y="145.24519"
           style="fill:none;stroke:#000000;stroke-opacity:1;stroke-width:0.6;stroke-miterlimit:4;stroke-dasharray:none" /></flowRegion><flowPara
         id="flowPara3815"
         style="font-size:24px;font-style:normal;font-variant:normal;font-weight:bold;font-stretch:normal;text-align:start;line-height:125%;writing-mode:lr-tb;text-anchor:start;font-family:Georgia;-inkscape-font-specification:Georgia Bold;fill:none;stroke:#000000;stroke-opacity:1;stroke-width:0.6;stroke-miterlimit:4;stroke-dasharray:none">Outbox</flowPara></flowRoot>    <flowRoot
       xml:space="preserve"
       id="flowRoot3817"
       style="font-size:12px;font-style:normal;font-variant:normal;font-weight:normal;font-stretch:normal;text-align:start;line-height:125%;letter-spacing:0px;word-spacing:0px;writing-mode:lr-tb;text-anchor:start;fill:none;fill-opacity:1;stroke:#000000;font-family:Sans;-inkscape-font-specification:Sans;stroke-opacity:1;stroke-width:0.6;stroke-miterlimit:4;stroke-dasharray:none"
       transform="translate(-36.365492,-5.0507627)"><flowRegion
         id="flowRegion3819"><rect
           id="rect3821"
           width="128.28938"
           height="70.710678"
           x="559.11945"
           y="108.37463"
           style="stroke:#000000;stroke-opacity:1;fill:none;stroke-width:0.6;stroke-miterlimit:4;stroke-dasharray:none" /></flowRegion><flowPara
         id="flowPara3823"
         style="font-size:24px;font-style:normal;font-variant:normal;font-weight:bold;font-stretch:normal;text-align:center;line-height:139.99999761999995940%;writing-mode:lr-tb;text-anchor:middle;font-family:Georgia;-inkscape-font-specification:Georgia Bold;stroke:#000000;stroke-opacity:1;fill:none;stroke-width:0.6;stroke-miterlimit:4;stroke-dasharray:none">All</flowPara><flowPara
         id="flowPara3825"
         style="font-size:24px;font-style:normal;font-variant:normal;font-weight:bold;font-stretch:normal;text-align:start;line-height:125%;writing-mode:lr-tb;text-anchor:start;font-family:Georgia;-inkscape-font-specification:Georgia Bold;stroke:#000000;stroke-opacity:1;fill:none;stroke-width:0.6;stroke-miterlimit:4;stroke-dasharray:none"><flowSpan
   style="font-size:24px;font-style:normal;font-variant:normal;font-weight:bold;font-stretch:normal;text-align:center;line-height:139.99999761999995940%;writing-mode:lr-tb;text-anchor:middle;font-family:Georgia;-inkscape-font-specification:Georgia Bold;stroke:#000000;stroke-opacity:1;fill:none;stroke-width:0.6;stroke-miterlimit:4;stroke-dasharray:none"
   id="flowSpan3827">Sent </flowSpan>Mail</flowPara></flowRoot>    <flowRoot
       xml:space="preserve"
       id="flowRoot3833"
       style="font-size:12px;font-style:normal;font-variant:normal;font-weight:normal;font-stretch:normal;text-align:start;line-height:125%;letter-spacing:0px;word-spacing:0px;writing-mode:lr-tb;text-anchor:start;fill:none;fill-opacity:1;stroke:#000000;font-family:Sans;-inkscape-font-specification:Sans;stroke-opacity:1;stroke-width:0.42536225;stroke-miterlimit:4;stroke-dasharray:none"
       transform="matrix(1.4105624,0,0,1.4105624,-25.005261,-198.27047)"><flowRegion
         id="flowRegion3835"><rect
           id="rect3837"
           width="192.43407"
           height="155.56351"
           x="35.355339"
           y="343.23511"
           style="fill:none;stroke:#000000;stroke-opacity:1;stroke-width:0.42536225;stroke-miterlimit:4;stroke-dasharray:none" /></flowRegion><flowPara
         id="flowPara3839"
         style="font-size:56px;font-style:normal;font-variant:normal;font-weight:bold;font-stretch:normal;text-align:start;line-height:125%;writing-mode:lr-tb;text-anchor:start;font-family:Georgia;-inkscape-font-specification:Georgia Bold;fill:none;stroke:#000000;stroke-opacity:1;stroke-width:0.42536225;stroke-miterlimit:4;stroke-dasharray:none">Sent</flowPara><flowPara
         id="flowPara3841"
         style="font-size:56px;font-style:normal;font-variant:normal;font-weight:bold;font-stretch:normal;text-align:start;line-height:125%;writing-mode:lr-tb;text-anchor:start;font-family:Georgia;-inkscape-font-specification:Georgia Bold;fill:none;stroke:#000000;stroke-opacity:1;stroke-width:0.42536225;stroke-miterlimit:4;stroke-dasharray:none">Mail</flowPara></flowRoot>    <flowRoot
       xml:space="preserve"
       id="flowRoot3843"
       style="font-size:12px;font-style:normal;font-variant:normal;font-weight:normal;font-stretch:normal;text-align:start;line-height:125%;letter-spacing:0px;word-spacing:0px;writing-mode:lr-tb;text-anchor:start;fill:none;fill-opacity:1;stroke:#717171;font-family:Sans;-inkscape-font-specification:Sans;stroke-opacity:1;stroke-width:0.69999999999999996;stroke-miterlimit:4;stroke-dasharray:none"><flowRegion
         id="flowRegion3845"><rect
           id="rect3847"
           width="189.90868"
           height="72.73098"
           x="279.30719"
           y="334.6488"
           style="fill:none;stroke:#717171;stroke-opacity:1;stroke-width:0.69999999999999996;stroke-miterlimit:4;stroke-dasharray:none" /></flowRegion><flowPara
         id="flowPara3849"
         style="-inkscape-font-specification:WoodenNickelBlack;font-family:WoodenNickelBlack;font-weight:normal;font-style:normal;font-stretch:normal;font-variant:normal;font-size:56px;text-anchor:start;text-align:start;writing-mode:lr;line-height:125%;fill:none;stroke:#717171;stroke-opacity:1;stroke-width:0.69999999999999996;stroke-miterlimit:4;stroke-dasharray:none">@ Send</flowPara></flowRoot>    <path
       id="path3812"
       style="fill:none;stroke:#000000;stroke-width:1px;stroke-linecap:butt;stroke-linejoin:miter;stroke-opacity:1"
       d="m 680.84281,335.65896 -72.22591,52.52793 z m -151.52288,1.51523 79.80205,51.0127 z m 0.50508,100.51017 152.02795,0 0,-102.0254 -152.02795,1.01015 z" />
    <path
       style="fill:none;stroke:#585858;stroke-width:0.69999999;stroke-linecap:butt;stroke-linejoin:miter;stroke-miterlimit:4;stroke-opacity:1;stroke-dasharray:none"
       d="m 510.12703,480.11077 0.50508,-18.18275 7.07107,-10.6066 0.50507,-126.26906 -5.05076,-10.10153 0,-13.13198 185.86807,1.01015 0,12.6269 -7.57615,9.59646 0,126.77414 7.57615,10.10152 0,18.18275 z"
       id="path3815"
       inkscape:connector-curvature="0"
       sodipodi:nodetypes="ccccccccccccc" />
    <path
       style="fill:#ffffff;fill-opacity:1;stroke:#ffffff;stroke-width:0.69999999;stroke-linejoin:round;stroke-miterlimit:4;stroke-opacity:1;stroke-dasharray:none"
       id="path3875"
       d="m 553.34857,436.37544 c 0.0775,0.38522 0.10646,0.77746 0.16151,1.16585 0.0289,0.2041 0.0494,0.11891 0.0227,0.20909 -0.50161,1.11519 -1.00323,2.23038 -1.50484,3.34556 0.0146,-0.08 0.0474,-0.15879 0.0437,-0.24003 -0.0254,-0.55307 -0.31525,-1.23734 -0.50159,-1.75679 -0.36952,-0.87265 -0.70528,-1.75647 -0.98159,-2.66296 0,0 1.46845,-3.3581 1.46845,-3.3581 l 0,0 c 0.23818,0.90994 0.54488,1.79513 0.95197,2.64483 0.18593,0.44714 0.31191,0.89851 0.47045,1.3551 0.0167,0.0481 0.24243,0.64856 0.24038,0.65388 -0.46093,1.19927 -1.03566,2.35165 -1.55349,3.52747 -0.3848,-0.34959 -0.1898,-0.99672 -0.34746,-1.4589 0,0 1.52985,-3.425 1.52985,-3.425 z"
       inkscape:connector-curvature="0" />
    <path
       style="fill:#ffffff;fill-opacity:1;stroke:#ffffff;stroke-width:0.69999999;stroke-linejoin:round;stroke-miterlimit:4;stroke-opacity:1;stroke-dasharray:none"
       id="path3877"
       d="m 548.54815,435.2903 c 0.51528,0.45299 0.92608,0.99182 1.28385,1.5731 0,0 -1.40249,3.43645 -1.40249,3.43645 l 0,0 c -0.30282,-0.56319 -0.66319,-1.08898 -1.16515,-1.49499 0,0 1.28379,-3.51456 1.28379,-3.51456 z"
       inkscape:connector-curvature="0" />
    <path
       style="fill:#ffffff;fill-opacity:1;stroke:#ffffff;stroke-width:0.69999999;stroke-linejoin:round;stroke-miterlimit:4;stroke-opacity:1;stroke-dasharray:none"
       id="path3879"
       d="m 548.30187,435.40122 c 0.0735,0.59086 0.24082,1.16535 0.3835,1.74242 0,0 -1.49071,3.40646 -1.49071,3.40646 l 0,0 c -0.17688,-0.56708 -0.28701,-1.16018 -0.43076,-1.73533 0,0 1.53797,-3.41355 1.53797,-3.41355 z"
       inkscape:connector-curvature="0" />
    <path
       style="fill:#ffffff;fill-opacity:1;stroke:#ffffff;stroke-width:0.69999999;stroke-linejoin:round;stroke-miterlimit:4;stroke-opacity:1;stroke-dasharray:none"
       id="path3881"
       d="m 550.06581,436.10013 c 0.30458,0.60663 0.80362,1.03161 1.36541,1.38969 0.55282,0.33907 1.15113,0.59668 1.73617,0.87476 0,0 -1.198,3.52127 -1.198,3.52127 l 0,0 c -0.59366,-0.29407 -1.20029,-0.56499 -1.76949,-0.90409 -0.6019,-0.37583 -1.15595,-0.80461 -1.54358,-1.41109 0,0 1.40949,-3.47054 1.40949,-3.47054 z"
       inkscape:connector-curvature="0" />
    <path
       style="fill:#ffffff;fill-opacity:1;stroke:#ffffff;stroke-width:0.69999999;stroke-linejoin:round;stroke-miterlimit:4;stroke-opacity:1;stroke-dasharray:none"
       id="path3883"
       d="m 558.90441,434.86021 c 0.10505,0.58455 0.18968,1.17075 0.16238,1.76525 -0.0568,0.559 -0.11433,1.11728 -0.14186,1.67862 -0.0152,0.42669 -0.0149,0.2196 -0.003,0.62127 0,0 -1.55406,3.37458 -1.55406,3.37458 l 0,0 c -0.0561,-0.42127 -0.0431,-0.20824 -0.0378,-0.63918 0.0156,-0.56353 0.0435,-1.12643 0.12655,-1.68485 0.069,-0.57056 0.0518,-1.12737 -0.0816,-1.69069 0,0 1.52985,-3.425 1.52985,-3.425 z"
       inkscape:connector-curvature="0" />
    <path
       style="fill:#ffffff;fill-opacity:1;stroke:#ffffff;stroke-width:0.69999999;stroke-linejoin:round;stroke-miterlimit:4;stroke-opacity:1;stroke-dasharray:none"
       id="path3885"
       d="m 559.16353,436.6595 c -0.0961,0.58555 -0.23625,1.16167 -0.3557,1.74254 -0.0161,0.0935 -0.0322,0.18693 -0.0483,0.2804 0,0 -1.63377,3.34102 -1.63377,3.34102 l 0,0 c 0.0125,-0.0962 0.0251,-0.19241 0.0376,-0.28861 0.098,-0.57569 0.2741,-1.13236 0.33638,-1.7134 0,0 1.66384,-3.36195 1.66384,-3.36195 z"
       inkscape:connector-curvature="0" />
    <path
       style="fill:#ffffff;fill-opacity:1;stroke:#ffffff;stroke-width:0.69999999;stroke-linejoin:round;stroke-miterlimit:4;stroke-opacity:1;stroke-dasharray:none"
       id="path3887"
       d="m 556.60955,440.41301 c -0.54114,-0.27261 -1.09771,-0.52597 -1.67139,-0.72288 -0.38979,-0.14712 -0.20036,-0.0648 -0.56865,-0.24608 0,0 1.20715,-3.5185 1.20715,-3.5185 l 0,0 c 0.32028,0.17541 0.14925,0.0956 0.51541,0.23458 0.57928,0.20048 1.13003,0.46879 1.69963,0.69506 0,0 -1.18215,3.55782 -1.18215,3.55782 z"
       inkscape:connector-curvature="0" />
    <path
       style="fill:#ffffff;fill-opacity:1;stroke:#ffffff;stroke-width:0.69999999;stroke-linejoin:round;stroke-miterlimit:4;stroke-opacity:1;stroke-dasharray:none"
       id="path3889"
       d="m 552.86467,434.15591 c 0.4571,1.25625 1.00004,2.48055 1.56018,3.69389 0.32134,0.80497 0.87154,1.37683 1.5921,1.82625 0.35456,0.16961 0.70194,0.35245 1.0653,0.50277 0,0 -1.17535,3.53478 -1.17535,3.53478 l 0,0 c -0.38845,-0.15234 -0.75826,-0.33575 -1.12694,-0.53016 -0.7738,-0.49388 -1.40901,-1.1176 -1.75752,-1.98764 -0.54362,-1.19715 -1.04932,-2.41107 -1.60914,-3.60068 0,0 1.45137,-3.43921 1.45137,-3.43921 z"
       inkscape:connector-curvature="0" />
    <path
       style="fill:#ffffff;fill-opacity:1;stroke:#ffffff;stroke-width:0.69999999;stroke-linejoin:round;stroke-miterlimit:4;stroke-opacity:1;stroke-dasharray:none"
       id="path3891"
       d="m 554.61332,434.9088 c -0.022,0.54183 0.13411,1.01393 0.4369,1.4536 0.23518,0.31621 0.51352,0.59482 0.76293,0.90031 0,0 -1.35015,3.48387 -1.35015,3.48387 l 0,0 c -0.26597,-0.30573 -0.50785,-0.6292 -0.79064,-0.92096 -0.3542,-0.49628 -0.5977,-0.90179 -0.65342,-1.52859 0,0 1.59438,-3.38823 1.59438,-3.38823 z"
       inkscape:connector-curvature="0" />
    <path
       style="fill:#ffffff;fill-opacity:1;stroke:#ffffff;stroke-width:0.69999999;stroke-linejoin:round;stroke-miterlimit:4;stroke-opacity:1;stroke-dasharray:none"
       id="path3893"
       d="m 558.32598,439.76366 c -0.0289,-0.084 -0.0578,-0.16793 -0.0868,-0.2519 0,0 1.47283,-3.42412 1.47283,-3.42412 l 0,0 c 0.0267,0.0752 0.0534,0.15033 0.08,0.2255 0,0 -1.46607,3.45052 -1.46607,3.45052 z"
       inkscape:connector-curvature="0" />
    <path
       style="fill:#ffffff;fill-opacity:1;stroke:#ffffff;stroke-width:0.69999999;stroke-linejoin:round;stroke-miterlimit:4;stroke-opacity:1;stroke-dasharray:none"
       id="path3895"
       d="m 587.69376,435.11275 c 0.0582,0.60967 0.21081,1.20059 0.3401,1.79715 0.0512,0.5595 0.20986,1.06889 0.42821,1.58283 0.17612,0.48563 0.53758,0.73119 0.96879,0.96627 0.25463,0.1229 0.5363,0.15827 0.80677,0.23121 0,0 -1.13208,3.55586 -1.13208,3.55586 l 0,0 c -0.30057,-0.0753 -0.61154,-0.11754 -0.89309,-0.25487 -0.492,-0.2623 -0.9577,-0.54814 -1.1937,-1.08073 -0.22479,-0.52715 -0.50575,-1.01276 -0.50288,-1.60464 -0.10523,-0.59307 -0.28912,-1.16777 -0.35197,-1.76808 0,0 1.52985,-3.425 1.52985,-3.425 z"
       inkscape:connector-curvature="0" />
    <path
       style="fill:#ffffff;fill-opacity:1;stroke:#ffffff;stroke-width:0.69999999;stroke-linejoin:round;stroke-miterlimit:4;stroke-opacity:1;stroke-dasharray:none"
       id="path3897"
       d="m 597.77326,439.65539 c -0.5502,-0.20769 -1.12212,-0.34382 -1.67475,-0.54769 -0.59115,-0.21383 -1.18053,-0.41674 -1.79964,-0.53107 -0.58538,-0.0706 -1.1853,-0.15775 -1.77353,-0.0812 -0.49622,0.0759 -0.97181,0.27818 -1.39603,0.54196 -0.37613,0.22112 -0.76424,0.50631 -0.997,0.88177 -0.39564,0.46407 -1.07204,0.46111 -1.63451,0.4412 -0.49569,-0.0791 -0.24959,-0.0364 -0.73834,-0.12792 0,0 1.09643,-3.53479 1.09643,-3.53479 l 0,0 c 0.45993,0.0814 0.23242,0.0485 0.68233,0.10005 0.52648,-0.005 1.00032,-0.0744 1.31184,-0.54489 0.33512,-0.33489 0.71163,-0.63235 1.13817,-0.84262 0.48946,-0.23843 0.99202,-0.45696 1.54263,-0.49884 0.62426,-0.0378 1.24994,0.0327 1.8668,0.12811 0.6392,0.1204 1.25438,0.30737 1.8615,0.54102 0.55689,0.20295 1.12668,0.35489 1.69626,0.51713 0,0 -1.18216,3.55781 -1.18216,3.55781 z"
       inkscape:connector-curvature="0" />
    <path
       style="fill:#ffffff;fill-opacity:1;stroke:#ffffff;stroke-width:0.69999999;stroke-linejoin:round;stroke-miterlimit:4;stroke-opacity:1;stroke-dasharray:none"
       id="path3899"
       d="m 633.88621,439.90793 c -0.5305,-0.23332 -1.10463,-0.32546 -1.67639,-0.38817 -0.51295,-0.0503 -0.99317,-0.18395 -1.51093,-0.15811 -0.52444,0.0445 -1.04942,0.0779 -1.57539,0.0966 -0.5806,-9.1e-4 -1.15276,-0.1315 -1.73184,-0.1848 -0.71695,-0.006 -1.41368,0.13295 -2.11317,0.26894 -0.56845,0.11466 -1.14655,0.15636 -1.72485,0.17707 -0.34019,0.01 -0.68054,0.01 -1.02084,0.0102 0,0 1.0393,-3.57987 1.0393,-3.57987 l 0,0 c 0.33586,-8.3e-4 0.67179,-0.001 1.00752,-0.0121 0.55875,-0.0221 1.11667,-0.0664 1.66661,-0.17262 0.72864,-0.13171 1.46164,-0.26412 2.20594,-0.23436 0.56733,0.0403 1.13012,0.14329 1.6975,0.14583 0.52604,-0.0205 1.05072,-0.0587 1.57561,-0.0984 0.53353,-0.0146 1.03635,0.12892 1.56355,0.18445 0.60394,0.0764 1.20119,0.19344 1.77954,0.38751 0,0 -1.18216,3.55781 -1.18216,3.55781 z"
       inkscape:connector-curvature="0" />
    <path
       style="fill:#ffffff;fill-opacity:1;stroke:#ffffff;stroke-width:0.69999999;stroke-linejoin:round;stroke-miterlimit:4;stroke-opacity:1;stroke-dasharray:none"
       id="path3901"
       d="m 635.42179,435.60506 c 0.0872,0.27438 0.24611,0.51455 0.39457,0.75803 0,0 -1.39505,3.44271 -1.39505,3.44271 l 0,0 c -0.1539,-0.2516 -0.32878,-0.48863 -0.4656,-0.75021 0,0 1.46608,-3.45053 1.46608,-3.45053 z"
       inkscape:connector-curvature="0" />
    <path
       style="fill:#ffffff;fill-opacity:1;stroke:#ffffff;stroke-width:0.69999999;stroke-linejoin:round;stroke-miterlimit:4;stroke-opacity:1;stroke-dasharray:none"
       id="path3903"
       d="m 623.06142,435.38112 c 0.31472,0.6681 0.61025,1.3637 1.12714,1.90217 0,0 -1.31193,3.47376 -1.31193,3.47376 l 0,0 c -0.56441,-0.54181 -0.87159,-1.24688 -1.24887,-1.92218 0,0 1.43366,-3.45375 1.43366,-3.45375 z"
       inkscape:connector-curvature="0" />
    <path
       style="fill:#ffffff;fill-opacity:1;stroke:#ffffff;stroke-width:0.69999999;stroke-linejoin:round;stroke-miterlimit:4;stroke-opacity:1;stroke-dasharray:none"
       id="path3905"
       d="m 662.69759,434.86021 c 0.0481,0.57715 0.26525,1.05044 0.64341,1.47974 0.34815,0.32397 0.80431,0.50889 1.2478,0.66702 0.44635,0.12774 0.89236,0.25483 1.32595,0.42147 0.28521,0.18013 0.59765,0.29777 0.90248,0.43674 0,0 -1.2023,3.54344 -1.2023,3.54344 l 0,0 c -0.29148,-0.14546 -0.61182,-0.23174 -0.87487,-0.43401 -0.42931,-0.16942 -0.8708,-0.29662 -1.3159,-0.41936 -0.49808,-0.17923 -0.99848,-0.40442 -1.4088,-0.7419 -0.42453,-0.42975 -0.77381,-0.90944 -0.84763,-1.52814 0,0 1.52986,-3.425 1.52986,-3.425 z"
       inkscape:connector-curvature="0" />
    <path
       style="fill:#ffffff;fill-opacity:1;stroke:#ffffff;stroke-width:0.69999999;stroke-linejoin:round;stroke-miterlimit:4;stroke-opacity:1;stroke-dasharray:none"
       id="path3907"
       d="m 587.66858,371.8626 c 0.55315,0.31108 1.07171,0.67044 1.51507,1.12489 0.40682,0.46809 0.76149,0.9706 1.19116,1.41943 0.38549,0.39215 0.83044,0.6855 1.30858,0.94856 0.46199,0.22082 0.93999,0.40615 1.40979,0.60964 0.43754,0.17404 0.85113,0.40969 1.24768,0.66253 0.44254,0.29778 0.70143,0.7501 0.91409,1.22549 0.12294,0.49054 0.31008,0.89103 0.67373,1.24273 0.36019,0.27785 0.80325,0.43849 1.23149,0.58456 0.37054,0.1288 0.67385,0.38139 1.03789,0.52108 0.35612,0.16599 0.72161,0.3027 1.05528,0.51251 0.0497,0.0328 0.0993,0.0657 0.14899,0.0985 0,0 -1.25098,3.52923 -1.25098,3.52923 l 0,0 c -0.052,-0.0336 -0.10403,-0.0672 -0.15604,-0.10085 -0.2925,-0.22172 -0.6471,-0.31578 -0.96858,-0.48654 -0.36795,-0.13421 -0.67123,-0.36312 -1.02641,-0.52344 -0.47607,-0.16366 -0.95648,-0.35849 -1.37225,-0.64337 -0.41341,-0.35598 -0.75261,-0.74292 -0.83336,-1.30479 -0.14151,-0.42626 -0.34166,-0.85824 -0.70583,-1.13714 -0.36329,-0.25912 -0.77354,-0.46675 -1.18177,-0.6436 -0.48102,-0.2076 -0.96263,-0.41135 -1.43712,-0.6334 -0.51442,-0.27659 -1.0003,-0.56562 -1.41247,-0.98731 -0.44308,-0.44375 -0.8156,-0.93044 -1.19574,-1.42644 -0.40324,-0.44375 -0.87897,-0.81268 -1.43103,-1.05692 0,0 1.23783,-3.5354 1.23783,-3.5354 z"
       inkscape:connector-curvature="0" />
    <path
       style="fill:#ffffff;fill-opacity:1;stroke:#ffffff;stroke-width:0.69999999;stroke-linejoin:round;stroke-miterlimit:4;stroke-opacity:1;stroke-dasharray:none"
       id="path3909"
       d="m 587.3882,372.07372 c 0.33482,0.19401 0.65214,0.41165 0.9937,0.59444 0,0 -1.20859,3.5131 -1.20859,3.5131 l 0,0 c -0.32987,-0.17213 -0.64023,-0.37364 -0.96726,-0.54972 0,0 1.18215,-3.55782 1.18215,-3.55782 z"
       inkscape:connector-curvature="0" />
    <path
       style="fill:#ffffff;fill-opacity:1;stroke:#ffffff;stroke-width:0.69999999;stroke-linejoin:round;stroke-miterlimit:4;stroke-opacity:1;stroke-dasharray:none"
       id="path3911"
       d="m 587.66858,372.62021 c 0.59201,0.36552 1.24577,0.61121 1.86511,0.92379 0.089,0.0452 0.17802,0.0904 0.26702,0.13554 0,0 -1.20742,3.51431 -1.20742,3.51431 l 0,0 c -0.0887,-0.0478 -0.17742,-0.0956 -0.26612,-0.14335 -0.6115,-0.33966 -1.26876,-0.58688 -1.89642,-0.89488 0,0 1.23783,-3.53541 1.23783,-3.53541 z"
       inkscape:connector-curvature="0" />
    <path
       style="fill:#ffffff;fill-opacity:1;stroke:#ffffff;stroke-width:0.69999999;stroke-linejoin:round;stroke-miterlimit:4;stroke-opacity:1;stroke-dasharray:none"
       id="path3913"
       d="m 548.04551,346.95417 c 0.29227,0.46299 0.61854,0.90962 1.01465,1.28887 0.43061,0.38293 0.96014,0.61993 1.44603,0.92319 0.41979,0.26971 0.7651,0.61077 1.05851,1.01145 0.33242,0.64137 0.71912,1.24948 1.11175,1.85502 0.32314,0.57401 0.75775,1.03259 1.30742,1.3891 0.59069,0.30455 1.21251,0.53907 1.81146,0.82636 0.6005,0.32071 1.19653,0.64801 1.77997,0.9986 0.0704,0.0364 0.14079,0.0728 0.21119,0.10914 0,0 -1.21019,3.5259 -1.21019,3.5259 l 0,0 c -0.0783,-0.0408 -0.15668,-0.0817 -0.23502,-0.12251 -0.56701,-0.35613 -1.14038,-0.69945 -1.73379,-1.01163 -0.61293,-0.29033 -1.25789,-0.50678 -1.85728,-0.82709 -0.6011,-0.36925 -1.10943,-0.82462 -1.44573,-1.45687 -0.41182,-0.58557 -0.7968,-1.19401 -1.1255,-1.83061 -0.22565,-0.38848 -0.55967,-0.68079 -0.9122,-0.95347 -0.49937,-0.31995 -1.035,-0.57815 -1.49949,-0.94944 -0.45152,-0.37101 -0.76242,-0.85742 -1.13128,-1.30547 0,0 1.4095,-3.47054 1.4095,-3.47054 z"
       inkscape:connector-curvature="0" />
    <path
       style="fill:#ffffff;fill-opacity:1;stroke:#ffffff;stroke-width:0.69999999;stroke-linejoin:round;stroke-miterlimit:4;stroke-opacity:1;stroke-dasharray:none"
       id="path3915"
       d="m 558.60201,359.30685 c -0.57451,-0.36698 -1.12294,-0.77329 -1.69087,-1.15024 -0.53244,-0.38743 -1.05123,-0.79119 -1.61394,-1.13459 -0.53348,-0.22745 -0.99882,-0.52556 -1.36478,-0.97743 -0.33878,-0.49594 -0.44986,-1.09359 -0.73521,-1.61567 -0.23385,-0.431 -0.57191,-0.77951 -0.91212,-1.12571 -0.28406,-0.33471 -0.64202,-0.52629 -1.03728,-0.69992 -0.30922,-0.10686 -0.15486,-0.048 -0.46287,-0.17704 0,0 1.18712,-3.53703 1.18712,-3.53703 l 0,0 c 0.28588,0.12994 0.13311,0.0685 0.46002,0.18012 0.44172,0.18617 0.86417,0.37718 1.18529,0.74325 0.33721,0.37995 0.73351,0.71298 0.97661,1.16916 0.33375,0.49841 0.45716,1.06358 0.71501,1.59791 0.28055,0.46956 0.72521,0.72275 1.21759,0.93862 0.56736,0.34502 1.09997,0.74207 1.62372,1.14959 0.56112,0.37163 1.09482,0.78504 1.68954,1.10358 0,0 -1.23783,3.5354 -1.23783,3.5354 z"
       inkscape:connector-curvature="0" />
    <path
       style="fill:#ffffff;fill-opacity:1;stroke:#ffffff;stroke-width:0.69999999;stroke-linejoin:round;stroke-miterlimit:4;stroke-opacity:1;stroke-dasharray:none"
       id="path3917"
       d="m 547.23464,347.07245 c 0.34014,0.1618 0.67862,0.32637 1.01529,0.49529 0,0 -1.18814,3.48783 -1.18814,3.48783 l 0,0 c -0.32978,-0.15778 -0.65998,-0.3142 -1.00931,-0.42531 0,0 1.18216,-3.55781 1.18216,-3.55781 z"
       inkscape:connector-curvature="0" />
    <path
       style="fill:#ffffff;fill-opacity:1;stroke:#ffffff;stroke-width:0.69999999;stroke-linejoin:round;stroke-miterlimit:4;stroke-opacity:1;stroke-dasharray:none"
       id="path3919"
       d="m 547.7304,334.87462 c 0.69173,-0.0667 1.38221,-0.14402 2.07526,-0.19602 0.65413,-0.0144 1.26667,0.19853 1.87748,0.40332 0.54047,0.19748 1.09524,0.3456 1.64431,0.51482 0.46747,0.10648 0.9037,0.3079 1.36585,0.43069 0.4438,0.0839 0.90417,-0.0298 1.3501,-0.0742 0.43103,-0.0282 0.8673,-0.17378 1.22479,-0.41687 0.3783,-0.33174 0.80263,-0.58393 1.27824,-0.74539 0.46951,-0.14586 0.93227,-0.14935 1.37223,0.0772 1.51844,0.92864 -0.0549,3.81523 -1.59172,3.62907 -0.0902,-0.0109 -0.35404,-0.0761 -0.44007,-0.0965 -0.58827,-0.16787 -1.15338,-0.40162 -1.74615,-0.55383 -0.52698,-0.0801 -1.04181,-0.21876 -1.56733,-0.30742 -0.60114,0.0451 -1.2048,0.0627 -1.80345,0.13444 -0.67306,0.0396 -1.30408,0.27079 -1.95688,0.41257 -0.24099,0.0865 -0.48755,0.15334 -0.73545,0.21623 0,0 0.94699,-3.60489 0.94699,-3.60489 l 0,0 c 0.25022,-0.069 0.49821,-0.1453 0.74968,-0.20976 0.65674,-0.14727 1.30773,-0.31716 1.9821,-0.36851 0.63418,-0.0773 1.27946,-0.16165 1.91801,-0.1397 0.53448,0.0957 1.06071,0.23094 1.59543,0.32496 0.58487,0.15873 1.14331,0.39634 1.73456,0.53276 1.7715,0.34063 1.06297,-1.21145 -0.35478,3.60267 -0.003,0.0112 0.0103,-0.021 0.0155,-0.0315 -0.26759,-0.25933 -0.72266,-0.0965 -1.02645,-0.002 -0.44721,0.19659 -0.82057,0.501 -1.22869,0.76473 -0.43521,0.2017 -0.88402,0.3589 -1.36939,0.3724 -0.49115,0.0539 -0.99425,0.16235 -1.48302,0.0412 -0.46665,-0.12659 -0.90329,-0.33538 -1.37507,-0.44616 -0.55249,-0.16992 -1.10708,-0.32876 -1.65018,-0.52852 -0.56309,-0.19074 -1.13285,-0.38107 -1.73579,-0.36463 -0.70576,0.047 -1.40754,0.12629 -2.10881,0.21752 0,0 1.04269,-3.58898 1.04269,-3.58898 z"
       inkscape:connector-curvature="0" />
    <path
       style="fill:#ffffff;fill-opacity:1;stroke:#ffffff;stroke-width:0.69999999;stroke-linejoin:round;stroke-miterlimit:4;stroke-opacity:1;stroke-dasharray:none"
       id="path3921"
       d="m 587.64074,334.95062 c 0.59982,0.22446 1.18906,0.47575 1.78878,0.7002 0.61212,0.19185 1.19888,0.43979 1.82364,0.59098 0.68127,0.14496 1.38055,0.15727 2.07418,0.16764 0.57425,0.0106 1.14496,0.039 1.68728,-0.17327 0.53601,-0.15482 1.05719,-0.34821 1.57889,-0.5467 0.25905,-0.22829 0.56452,-0.38695 0.82591,-0.61004 0,0 -0.80631,3.64232 -0.80631,3.64232 l 0,0 c -0.30044,0.20331 -0.59565,0.41992 -0.92584,0.57311 -0.52804,0.20251 -1.06393,0.37988 -1.60191,0.55399 -0.59011,0.15485 -1.19046,0.1308 -1.79652,0.11036 -0.7209,-0.0161 -1.45044,-0.0198 -2.15656,-0.18311 -0.63621,-0.16217 -1.24521,-0.39638 -1.86925,-0.59746 -0.598,-0.23429 -1.17847,-0.51228 -1.80444,-0.67021 0,0 1.18215,-3.55781 1.18215,-3.55781 z"
       inkscape:connector-curvature="0" />
    <path
       style="fill:#ffffff;fill-opacity:1;stroke:#ffffff;stroke-width:0.69999999;stroke-linejoin:round;stroke-miterlimit:4;stroke-opacity:1;stroke-dasharray:none"
       id="path3923"
       d="m 597.30055,338.42932 c -0.5648,-0.20789 -1.12523,-0.42505 -1.70908,-0.57405 -0.52606,-0.17556 -1.06731,-0.28848 -1.59762,-0.4482 -0.62002,-0.25138 -1.27153,-0.36183 -1.93317,-0.42655 -0.65663,0.034 -1.34495,0.15683 -1.96253,0.39196 -0.42558,0.15637 -0.87304,0.27746 -1.27945,0.47968 0,0 0.89281,-3.61912 0.89281,-3.61912 l 0,0 c 0.43466,-0.16383 0.87175,-0.32337 1.31399,-0.46539 0.68284,-0.1818 1.38826,-0.34328 2.09808,-0.32369 0.68825,0.0601 1.36124,0.17393 2.0119,0.41585 0.52807,0.15191 1.05985,0.28743 1.58317,0.45711 0.57426,0.15451 1.12649,0.37272 1.69933,0.53156 0,0 -1.11743,3.58084 -1.11743,3.58084 z"
       inkscape:connector-curvature="0" />
    <path
       style="fill:#ffffff;fill-opacity:1;stroke:#ffffff;stroke-width:0.69999999;stroke-linejoin:round;stroke-miterlimit:4;stroke-opacity:1;stroke-dasharray:none"
       id="path3925"
       d="m 597.26818,337.88252 c -0.26548,-0.11095 -0.54129,-0.19244 -0.81212,-0.28943 0,0 1.15435,-3.527 1.15435,-3.527 l 0,0 c 0.27794,0.0942 0.55824,0.17641 0.83993,0.25862 0,0 -1.18216,3.55781 -1.18216,3.55781 z"
       inkscape:connector-curvature="0" />
    <path
       style="fill:#ffffff;fill-opacity:1;stroke:#ffffff;stroke-width:0.69999999;stroke-linejoin:round;stroke-miterlimit:4;stroke-opacity:1;stroke-dasharray:none"
       id="path3927"
       d="m 598.46752,334.65636 c 0.0767,0.0291 0.15339,0.0581 0.23008,0.0872 0,0 -1.16061,3.55031 -1.16061,3.55031 l 0,0 c -0.0623,-0.0189 -0.1246,-0.0378 -0.1869,-0.0566 0,0 1.11743,-3.58084 1.11743,-3.58084 z"
       inkscape:connector-curvature="0" />
    <path
       style="fill:#ffffff;fill-opacity:1;stroke:#ffffff;stroke-width:0.69999999;stroke-linejoin:round;stroke-miterlimit:4;stroke-opacity:1;stroke-dasharray:none"
       id="path3929"
       d="m 586.89543,338.13527 c -0.37591,-0.1292 -0.18209,-0.0579 -0.5807,-0.21581 0,0 1.16686,-3.52365 1.16686,-3.52365 l 0,0 c 0.37624,0.14295 0.18521,0.0827 0.57296,0.18123 0,0 -1.15912,3.55823 -1.15912,3.55823 z"
       inkscape:connector-curvature="0" />
    <path
       style="fill:#ffffff;fill-opacity:1;stroke:#ffffff;stroke-width:0.69999999;stroke-linejoin:round;stroke-miterlimit:4;stroke-opacity:1;stroke-dasharray:none"
       id="path3931"
       d="m 633.85522,366.77042 c 0.58261,0.25167 0.99432,0.66908 1.31777,1.20222 0.18103,0.33015 0.33491,0.67408 0.49286,1.01557 0,0 -1.4311,3.43392 -1.4311,3.43392 l 0,0 c -0.16565,-0.32983 -0.31186,-0.66852 -0.46631,-1.00369 -0.268,-0.48007 -0.53476,-0.91521 -1.09538,-1.0902 0,0 1.18216,-3.55782 1.18216,-3.55782 z"
       inkscape:connector-curvature="0" />
    <path
       style="fill:#ffffff;fill-opacity:1;stroke:#ffffff;stroke-width:0.69999999;stroke-linejoin:round;stroke-miterlimit:4;stroke-opacity:1;stroke-dasharray:none"
       id="path3933"
       d="m 632.11845,373.23786 c -0.52098,-0.28357 -1.07597,-0.52394 -1.67255,-0.56348 -0.54507,-0.0504 -0.75285,0.28756 -1.01821,0.68991 -0.17069,0.16896 -0.31344,0.35968 -0.40578,0.58259 -0.0289,0.0696 -0.0955,0.28604 -0.0718,0.21448 1.11809,-3.37649 1.41251,-4.3879 1.02266,-3.06103 -0.34768,1.51701 -0.88264,2.98841 -1.38002,4.45872 -0.0512,0.15129 -0.16736,0.27232 -0.24208,0.41347 -0.31318,0.40431 -0.65426,0.81533 -1.03617,1.16033 -0.33784,0.37606 -0.77415,0.66448 -1.25266,0.8305 -0.41327,0.23339 -0.76071,0.52071 -1.21571,0.66843 -0.70427,0.13094 -1.37569,0.36522 -2.0867,0.45151 0,0 0.9881,-3.57501 0.9881,-3.57501 l 0,0 c 0.67941,-0.0969 1.34257,-0.29518 1.99999,-0.48785 0.41655,-0.20621 0.77802,-0.51302 1.21655,-0.67893 0.42615,-0.20444 0.78645,-0.51124 1.10731,-0.85648 0.33758,-0.37061 0.70182,-0.73278 0.92361,-1.18793 0.5598,-1.1002 1.17051,-3.31429 -0.86327,2.86875 -0.20745,0.63068 0.30929,-1.39672 0.18127,-0.72319 0.23742,-1.70106 0.71086,-3.42898 1.8168,-4.74077 0.36702,-0.44627 0.79808,-0.65026 1.3874,-0.58714 0.62703,0.076 1.21028,0.30555 1.78337,0.56531 0,0 -1.18215,3.55781 -1.18215,3.55781 z"
       inkscape:connector-curvature="0" />
    <path
       style="fill:#ffffff;fill-opacity:1;stroke:#ffffff;stroke-width:0.69999999;stroke-linejoin:round;stroke-miterlimit:4;stroke-opacity:1;stroke-dasharray:none"
       id="path3935"
       d="m 623.30369,375.81488 c -0.0537,0.56533 0.0582,1.03667 0.42036,1.47067 0.0605,0.0531 0.1211,0.10621 0.18165,0.15931 0,0 -1.28165,3.49651 -1.28165,3.49651 l 0,0 c -0.0773,-0.0598 -0.15459,-0.11949 -0.23189,-0.17923 -0.4308,-0.43746 -0.72239,-0.92022 -0.68285,-1.55903 0,0 1.59438,-3.38823 1.59438,-3.38823 z"
       inkscape:connector-curvature="0" />
    <path
       style="fill:#ffffff;fill-opacity:1;stroke:#ffffff;stroke-width:0.69999999;stroke-linejoin:round;stroke-miterlimit:4;stroke-opacity:1;stroke-dasharray:none"
       id="path3937"
       d="m 624.03407,333.98188 c 0.60145,0.3546 1.2148,0.68659 1.87193,0.92514 0.50894,0.21891 1.03157,0.40167 1.54751,0.60271 0.50774,0.21278 1.04577,0.30613 1.5905,0.35455 0.51084,0.0642 0.98299,-0.14408 1.46325,-0.28056 0.49022,-0.17752 0.97046,-0.3574 1.38486,-0.67841 0.41928,-0.26544 0.76462,-0.64063 0.99119,-1.08089 0.26243,-0.44648 0.64974,-0.57047 1.13805,-0.55696 0.45073,0.0774 0.81421,0.3574 1.14804,0.65285 0.1728,0.15729 0.25122,0.34606 0.31189,0.56421 0,0 -1.61171,3.38331 -1.61171,3.38331 l 0,0 c 0.0848,-0.17304 0.11178,-0.28032 -0.0164,-0.44553 -0.23182,-0.24883 -0.52673,-0.50271 -0.871,-0.55642 -0.39054,0.0289 -0.58385,0.29714 -0.77284,0.62323 -0.31417,0.41851 -0.69009,0.779 -1.13981,1.05107 -0.4666,0.28619 -0.9812,0.47794 -1.50002,0.64853 -0.5224,0.15498 -1.04621,0.3214 -1.5994,0.24225 -0.5763,-0.0609 -1.14445,-0.17101 -1.68326,-0.39226 -0.51751,-0.1942 -1.045,-0.36395 -1.54058,-0.61279 -0.67281,-0.25606 -1.29637,-0.60943 -1.95002,-0.90863 0,0 1.23783,-3.5354 1.23783,-3.5354 z"
       inkscape:connector-curvature="0" />
    <path
       style="fill:#ffffff;fill-opacity:1;stroke:#ffffff;stroke-width:0.69999999;stroke-linejoin:round;stroke-miterlimit:4;stroke-opacity:1;stroke-dasharray:none"
       id="path3939"
       d="m 630.5872,337.16287 c -0.78403,-0.15533 -1.57593,-0.19294 -2.37071,-0.13307 -0.66945,0.16039 -1.35971,0.22657 -2.02743,0.38982 -0.50882,0.19218 -1.01852,0.38172 -1.53425,0.55011 -0.70705,0.17471 -1.43297,0.19428 -2.15486,0.13675 0,0 1.0617,-3.54856 1.0617,-3.54856 l 0,0 c 0.67843,0.0543 1.36181,0.0212 2.01211,-0.19956 0.5186,-0.19319 1.04922,-0.35463 1.57474,-0.52721 0.68873,-0.13363 1.38428,-0.23947 2.07643,-0.35255 0.82233,-0.0382 1.6377,0.0221 2.45563,0.11095 0,0 -1.09336,3.57332 -1.09336,3.57332 z"
       inkscape:connector-curvature="0" />
    <path
       style="fill:#ffffff;fill-opacity:1;stroke:#ffffff;stroke-width:0.69999999;stroke-linejoin:round;stroke-miterlimit:4;stroke-opacity:1;stroke-dasharray:none"
       id="path3941"
       d="m 622.96372,334.40382 c 0.57337,0.16004 1.15913,0.27423 1.73391,0.42784 0.0952,0.0256 0.19047,0.0512 0.2857,0.0768 0,0 -1.13171,3.54091 -1.13171,3.54091 l 0,0 c -0.0944,-0.0261 -0.18888,-0.0522 -0.28331,-0.0783 -0.56725,-0.15161 -1.14427,-0.28591 -1.72202,-0.38643 0,0 1.11743,-3.58084 1.11743,-3.58084 z"
       inkscape:connector-curvature="0" />
    <path
       style="fill:#ffffff;fill-opacity:1;stroke:#ffffff;stroke-width:0.69999999;stroke-linejoin:round;stroke-miterlimit:4;stroke-opacity:1;stroke-dasharray:none"
       id="path3943"
       d="m 663.3932,334.40543 c 0.62296,0.21419 1.27161,0.3317 1.90886,0.49417 0.53255,0.14297 1.08032,0.19603 1.62911,0.22232 0.31938,0.009 0.16946,0.0224 0.45059,-0.0291 0,0 -1.00139,3.59732 -1.00139,3.59732 l 0,0 c -0.33533,0.0191 -0.1659,0.0174 -0.50831,0.004 -0.57215,-0.0353 -1.14194,-0.10321 -1.69525,-0.26008 -0.62566,-0.16637 -1.25913,-0.29477 -1.88739,-0.45103 0,0 1.10378,-3.57762 1.10378,-3.57762 z"
       inkscape:connector-curvature="0" />
    <path
       style="fill:#ffffff;fill-opacity:1;stroke:#ffffff;stroke-width:0.69999999;stroke-linejoin:round;stroke-miterlimit:4;stroke-opacity:1;stroke-dasharray:none"
       id="path3945"
       d="m 662.45137,333.56227 c 0.0631,0.0836 0.1262,0.16709 0.1893,0.25063 0,0 -1.34585,3.46144 -1.34585,3.46144 l 0,0 c -0.0682,-0.0756 -0.13646,-0.15118 -0.2047,-0.22677 0,0 1.36125,-3.4853 1.36125,-3.4853 z"
       inkscape:connector-curvature="0" />
    <path
       style="fill:#ffffff;fill-opacity:1;stroke:#ffffff;stroke-width:0.69999999;stroke-linejoin:round;stroke-miterlimit:4;stroke-opacity:1;stroke-dasharray:none"
       id="path3947"
       d="m 662.89711,334.193 c 0.3495,0.15462 0.7248,0.22994 1.08707,0.347 0,0 -1.15153,3.53543 -1.15153,3.53543 l 0,0 c -0.36766,-0.12634 -0.74786,-0.20409 -1.1177,-0.32461 0,0 1.18216,-3.55782 1.18216,-3.55782 z"
       inkscape:connector-curvature="0" />
    <path
       style="fill:#ffffff;fill-opacity:1;stroke:#ffffff;stroke-width:0.69999999;stroke-linejoin:round;stroke-miterlimit:4;stroke-opacity:1;stroke-dasharray:none"
       id="path3949"
       d="m 663.20266,346.47187 c 0.0928,0.5893 0.24915,1.16758 0.42437,1.73722 0.15717,0.47495 0.214,0.97335 0.38718,1.44298 0.13218,0.24874 0.33015,0.41268 0.58594,0.51771 0,0 -1.17747,3.5513 -1.17747,3.5513 l 0,0 c -0.34957,-0.13268 -0.61295,-0.32434 -0.84769,-0.61796 -0.26418,-0.45966 -0.29624,-0.9822 -0.42889,-1.48755 -0.17348,-0.56842 -0.34663,-1.13836 -0.47329,-1.71871 0,0 1.52985,-3.42499 1.52985,-3.42499 z"
       inkscape:connector-curvature="0" />
    <path
       style="fill:#ffffff;fill-opacity:1;stroke:#ffffff;stroke-width:0.69999999;stroke-linejoin:round;stroke-miterlimit:4;stroke-opacity:1;stroke-dasharray:none"
       id="path3951"
       d="m 664.69271,344.84102 c 0.49606,0.37036 1.06739,0.61619 1.58886,0.94647 0.29525,0.19957 0.45682,0.47784 0.58411,0.80006 0,0 -1.49227,3.42345 -1.49227,3.42345 l 0,0 c -0.0512,-0.27618 -0.11601,-0.5247 -0.3406,-0.71486 -0.49645,-0.35616 -1.05965,-0.59815 -1.57793,-0.91972 0,0 1.23783,-3.5354 1.23783,-3.5354 z"
       inkscape:connector-curvature="0" />
    <rect
       style="fill:none;stroke:#585858;stroke-width:0.69999999;stroke-linejoin:round;stroke-miterlimit:4;stroke-opacity:1;stroke-dasharray:none"
       id="rect3833"
       width="22.728344"
       height="124.24876"
       x="523.7641"
       y="326.06253" />
    <rect
       style="fill:none;stroke:#585858;stroke-width:0.69722831;stroke-linejoin:round;stroke-miterlimit:4;stroke-opacity:1;stroke-dasharray:none"
       id="rect3835"
       width="25.761662"
       height="124.75661"
       x="560.12817"
       y="326.06113" />
    <rect
       style="fill:none;stroke:#585858;stroke-width:0.69999999;stroke-linejoin:round;stroke-miterlimit:4;stroke-opacity:1;stroke-dasharray:none"
       id="rect3833-7"
       width="22.728344"
       height="124.24876"
       x="599.27301"
       y="326.31509" />
    <rect
       style="fill:none;stroke:#585858;stroke-width:0.69722831;stroke-linejoin:round;stroke-miterlimit:4;stroke-opacity:1;stroke-dasharray:none"
       id="rect3835-9"
       width="25.761662"
       height="124.75661"
       x="635.63708"
       y="326.31369" />
    <rect
       style="fill:none;stroke:#585858;stroke-width:0.69587171;stroke-linejoin:round;stroke-miterlimit:4;stroke-opacity:1;stroke-dasharray:none"
       id="rect3858"
       width="19.702103"
       height="124.75797"
       x="666.69861"
       y="326.56552" />
    <path
       sodipodi:type="arc"
       style="fill:none;stroke:#1d1d1d;stroke-width:0.69999999;stroke-linejoin:round;stroke-miterlimit:4;stroke-opacity:1;stroke-dasharray:none"
       id="path3959"
       sodipodi:cx="112.37947"
       sodipodi:cy="595.01562"
       sodipodi:rx="58.336308"
       sodipodi:ry="13.889597"
       d="m 55.940095,591.50244 a 58.336308,13.889597 0 1 1 -0.855647,0.90058"
       sodipodi:start="3.3973071"
       sodipodi:end="9.6140029"
       sodipodi:open="true"
       transform="matrix(1.3359638,0,0,1.2112739,-34.22083,-128.7417)" />
    <path
       style="fill:none;stroke:#000000;stroke-width:1px;stroke-linecap:butt;stroke-linejoin:miter;stroke-opacity:1"
       d="m 37.375644,592.74278 15.152288,135.36044 c 0,0 10.995271,9.83707 17.677669,12.6269 9.143986,3.81752 19.403352,4.45693 29.294424,5.05077 9.928125,0.59606 19.920415,-0.36347 29.799495,-1.51523 10.20079,-1.18927 20.54317,-2.36439 30.30458,-5.55584 5.51093,-1.80177 15.65736,-7.57614 15.65736,-7.57614 L 193.94929,592.2377 c 0,0 -2.41478,-15.87463 -78.7919,-17.17259 -77.08718,-1.31002 -77.781746,17.67767 -77.781746,17.67767 z"
       id="path3961"
       inkscape:connector-curvature="0"
       sodipodi:nodetypes="ccssssccsc" />
    <path
       style="fill:#fefefe;stroke:#5d5d5d;stroke-width:0.6;stroke-linecap:butt;stroke-linejoin:miter;stroke-opacity:1;fill-opacity:1;stroke-miterlimit:4;stroke-dasharray:none"
       d="m 56.063466,601.32907 54.548234,-47.47716 54.04316,50.00255 c 0,0 -32.07877,4.77698 -53.53808,5.05076 -30.641722,0.39094 -55.053314,-7.57615 -55.053314,-7.57615 z"
       id="path3963"
       inkscape:connector-curvature="0"
       sodipodi:nodetypes="cccsc" />
    <rect
       style="fill:none;stroke:#5d5d5d;stroke-width:0.60000318;stroke-linejoin:round;stroke-miterlimit:4;stroke-opacity:1;stroke-dasharray:none"
       id="rect3965-5"
       width="163.53549"
       height="103.29108"
       x="225.75803"
       y="773.69238"
       ry="14.108051"
       transform="matrix(0.91865498,-0.39506079,0.39083542,0.92046058,0,0)" />
    <rect
       style="fill:#fefefe;fill-opacity:1;stroke:#5d5d5d;stroke-width:0.59096897;stroke-linejoin:round;stroke-miterlimit:4;stroke-opacity:1;stroke-dasharray:none"
       id="rect3965"
       width="162.78461"
       height="100.66621"
       x="218.64465"
       y="768.57001"
       ry="13.749533"
       transform="matrix(0.92293859,-0.38494721,0.40104646,0.91605771,0,0)" />
    <path
       sodipodi:type="arc"
       style="fill:none;stroke:#585858;stroke-width:1.2032007;stroke-linejoin:round;stroke-miterlimit:4;stroke-opacity:1;stroke-dasharray:none"
       id="path3777-1"
       sodipodi:cx="376.7869"
       sodipodi:cy="91.959648"
       sodipodi:rx="80.307129"
       sodipodi:ry="11.364216"
       d="m 299.09113,89.085221 a 80.307129,11.364216 0 1 1 -1.17791,0.736844"
       sodipodi:start="3.3973071"
       sodipodi:end="9.6140029"
       sodipodi:open="true"
       transform="matrix(0.87858932,0,0,1.1438316,18.468483,520.75474)" />
    <rect
       style="fill:none;stroke:#5d5d5d;stroke-width:0.36056808;stroke-linejoin:round;stroke-miterlimit:4;stroke-opacity:1;stroke-dasharray:none"
       id="rect3965-5-0"
       width="100.28541"
       height="60.828136"
       x="32.860348"
       y="665.35168"
       ry="8.3082342"
       transform="matrix(0.92668776,-0.37583213,0.41054325,0.91184113,0,0)" />
    <rect
       style="fill:#fefefe;fill-opacity:1;stroke:#5d5d5d;stroke-width:0.3553054;stroke-linejoin:round;stroke-miterlimit:4;stroke-opacity:1;stroke-dasharray:none"
       id="rect3965-6"
       width="99.86924"
       height="59.311592"
       x="26.739014"
       y="663.51843"
       ry="8.1010971"
       transform="matrix(0.93059583,-0.36604836,0.42106149,0.9070321,0,0)" />
    <path
       style="fill:#fefefe;fill-opacity:1;stroke:#000000;stroke-width:0.7832337px;stroke-linecap:butt;stroke-linejoin:miter;stroke-opacity:1"
       d="m 278.89651,625.94109 c 0,0 15.20551,40.22973 29.93379,55.06311 7.41535,7.46828 27.41317,15.66469 27.41317,15.66469 l 1.97797,47.984 c 0,0 4.45996,5.82878 9.50821,5.85437 5.26095,0.0267 10.03287,-6.24997 10.03287,-6.24997 l 1.97796,-47.5884 c 0,0 19.83631,-8.36033 27.41318,-15.66469 14.99628,-14.45693 32.96946,-53.08515 32.96946,-53.08515 0,0 -5.15204,6.75539 -32.96946,10.0073 -12.15563,1.42102 -19.55896,1.47016 -37.05045,1.0693 -17.74711,-0.40671 -33.35733,0.0714 -53.02142,-4.98547 -14.86209,-3.822 -18.18528,-8.06909 -18.18528,-8.06909 z"
       id="path3779-7"
       inkscape:connector-curvature="0"
       sodipodi:nodetypes="csccsccscsssc" />
    <rect
       style="fill:#fefefe;fill-opacity:1;stroke:#5d5d5d;stroke-width:0.50755167;stroke-linejoin:round;stroke-miterlimit:4;stroke-opacity:1;stroke-dasharray:none"
       id="rect3965-68"
       width="139.80699"
       height="86.456825"
       x="-314.57227"
       y="840.35034"
       ry="11.808739"
       transform="matrix(0.92293859,-0.38494721,0.40104646,0.91605771,0,0)" />
    <path
       style="fill:none;stroke:#353535;stroke-width:0.59999999999999998;stroke-linecap:butt;stroke-linejoin:miter;stroke-opacity:1;stroke-miterlimit:4;stroke-dasharray:none;fill-opacity:1"
       d="m 35.885568,882.29941 c 12.794935,-45.56709 62.841494,-72.84915 111.782122,-60.93618 48.94063,11.91296 78.2425,58.50976 65.44757,104.07683 -12.79494,45.5671 -62.84151,72.84916 -111.78213,60.9362 C 54.677934,975.0196 25.471436,931.92661 34.542127,887.82885"
       id="path4083" />
    <path
       style="fill:none;stroke:#353535;stroke-width:0.59999999999999998;stroke-linecap:butt;stroke-linejoin:miter;stroke-opacity:1;stroke-miterlimit:4;stroke-dasharray:none;fill-opacity:1"
       d="m 24.598836,878.82862 c 14.570593,-52.89912 71.562525,-84.57103 127.295044,-70.7412 55.73253,13.82984 89.10086,67.92435 74.53027,120.82347 -14.5706,52.89912 -71.56252,84.57101 -127.295047,70.74117 C 45.999172,986.46808 12.739449,936.44115 23.068953,885.24778"
       id="path4057" />
    <path
       style="fill:#fefefe;fill-opacity:1;stroke:none"
       id="path4065"
       d="m 68.822089,966.40676 c 0.123385,1.0989 0.571696,2.02329 1.358025,2.88898 1.000542,1.05323 2.245901,1.94108 3.602681,2.65127 1.22509,0.61728 2.153929,1.55097 3.122393,2.41826 0.396897,0.41809 0.858513,0.78428 1.319764,1.14984 0,0 -3.078892,6.97672 -3.078892,6.97672 l 0,0 c -0.490508,-0.37087 -0.997107,-0.73207 -1.396242,-1.17871 -0.871014,-0.85371 -1.775744,-1.71703 -2.886688,-2.35099 -1.431983,-0.7471 -2.736764,-1.7044 -3.870691,-2.75116 -0.003,-0.003 -0.968948,-0.94504 -0.987314,-0.96792 -0.459441,-0.57235 -0.612329,-1.33079 -0.804494,-1.9863 0,0 3.621458,-6.84999 3.621458,-6.84999 z"
       inkscape:connector-curvature="0" />
    <path
       style="fill:#fefefe;fill-opacity:1;stroke:none"
       id="path4069"
       d="m 75.339647,955.26955 c 0.523011,0.99819 1.165592,1.98711 2.079864,2.77749 0.708305,0.66586 1.421948,1.22074 2.336936,1.67604 1.022979,0.45982 2.14683,0.74574 3.226929,1.10016 1.178989,0.30099 2.289282,0.75451 3.477867,1.02916 0.186829,0.031 0.373657,0.062 0.560484,0.093 0,0 -3.004555,7.95163 -3.004555,7.95163 l 0,0 c -0.210102,-0.0363 -0.420204,-0.0726 -0.630306,-0.10888 -1.222701,-0.28604 -2.354308,-0.75825 -3.569142,-1.06518 -1.140839,-0.36545 -2.317735,-0.67215 -3.412168,-1.12198 -1.066937,-0.56853 -1.73886,-0.87629 -2.521152,-1.75696 -1.092345,-0.79998 -1.736756,-1.86317 -2.498664,-2.87598 0,0 3.953907,-7.69852 3.953907,-7.69852 z"
       inkscape:connector-curvature="0" />
    <path
       style="fill:none;stroke:#353535;stroke-width:0.59999999999999998;stroke-linecap:butt;stroke-linejoin:miter;stroke-opacity:1;stroke-miterlimit:4;stroke-dasharray:none;fill-opacity:1"
       d="M 66.164991,969.52967 171.72593,830.12862 z"
       id="path4085" />
    <path
       style="fill:#fefefe;stroke:none;stroke-width:0.60000001999999997;stroke-linejoin:round;stroke-miterlimit:4;stroke-opacity:1;stroke-dasharray:none;fill-opacity:1"
       id="path4073"
       d="m 166.07438,837.71988 c 1.12852,0.48269 2.29803,0.85162 3.44755,1.27689 0.91847,0.30056 1.8012,0.59189 2.65199,1.05405 0.8408,0.40402 1.76345,0.57184 2.62423,0.92935 0.78308,0.3186 1.57144,0.63004 2.36968,0.9106 0.72456,0.21425 1.49415,0.36126 2.1764,-0.0336 0.10491,-0.0516 0.20982,-0.10323 0.31473,-0.15484 0,0 -1.78604,7.27178 -1.78604,7.27178 l 0,0 c -0.11921,0.0482 -0.23841,0.0964 -0.35762,0.14459 -0.90056,0.22412 -1.7884,0.16631 -2.67381,-0.12088 -0.8168,-0.28349 -1.61655,-0.61719 -2.41749,-0.94064 -0.86837,-0.39636 -1.83236,-0.51231 -2.6868,-0.94625 -0.82378,-0.44393 -1.66704,-0.75027 -2.55422,-1.05065 -1.09048,-0.44536 -2.22703,-0.81143 -3.34347,-1.17872 0,0 2.23487,-7.16168 2.23487,-7.16168 z"
       inkscape:connector-curvature="0" />
    <path
       style="fill:none;stroke:#353535;stroke-width:0.59999999999999998;stroke-linecap:butt;stroke-linejoin:miter;stroke-opacity:1;stroke-miterlimit:4;stroke-dasharray:none;fill-opacity:1"
       d="M 78.286822,977.61089 184.85791,838.20984 z"
       id="path4087" />
    <path
       style="fill:none;stroke:none;stroke-width:0.60000001999999997;stroke-linejoin:round;stroke-miterlimit:4;stroke-opacity:1;stroke-dasharray:none"
       id="path4075"
       d="m 180.79262,840.55385 c -1.05043,-0.64685 -2.22152,-1.05078 -3.34688,-1.54016 -1.04036,-0.56842 -2.13033,-1.03105 -3.19928,-1.53817 -0.99837,-0.38912 -2.00004,-0.7605 -2.9868,-1.18024 -0.17952,-0.0575 -0.35905,-0.11509 -0.53858,-0.17263 0,0 2.28503,-7.07198 2.28503,-7.07198 l 0,0 c 0.2037,0.0601 0.40741,0.12014 0.61111,0.18022 1.00811,0.40908 2.00978,0.82745 3.03629,1.19274 1.03949,0.5449 2.14044,0.97502 3.17064,1.54325 1.13009,0.54123 2.32115,0.95522 3.44413,1.51616 0,0 -2.47566,7.07081 -2.47566,7.07081 z"
       inkscape:connector-curvature="0" />
    <path
       style="fill:#fefefe;fill-opacity:1;stroke:none"
       id="path4077"
       d="m 178.52244,844.59446 c -4.65798,-1.34052 -9.87616,-2.1614 -14.85691,-3.19164 0,0 11.80251,-16.31438 11.80251,-16.31438 l 0,0 c 5.04082,1.11749 10.36786,1.91918 15.37639,3.07548 0,0 -12.32199,16.43054 -12.32199,16.43054 z"
       inkscape:connector-curvature="0" />
    <path
       style="fill:none;stroke:none;stroke-width:0.60000001999999997;stroke-linejoin:round;stroke-miterlimit:4;stroke-opacity:1;stroke-dasharray:none"
       id="path4079"
       d="m 180.72159,833.17419 c 0.99742,0.40618 2.04089,0.67117 3.06885,0.98584 0.51233,0.13628 1.0248,0.24455 1.53178,0.39999 0,0 -2.30254,7.09559 -2.30254,7.09559 l 0,0 c -0.49964,-0.16853 -1.00954,-0.27206 -1.51703,-0.4152 -1.00369,-0.30895 -2.01745,-0.57849 -3.01593,-0.90454 0,0 2.23487,-7.16168 2.23487,-7.16168 z"
       inkscape:connector-curvature="0" />
    <path
       style="fill:none;stroke:#000000;stroke-width:1px;stroke-linecap:butt;stroke-linejoin:miter;stroke-opacity:1"
       d="m 273.75134,945.28601 45.96194,0 c 0,0 -1.5557,-19.36617 0.50507,-29.29442 0.90398,-4.35516 2.99805,-8.96075 6.566,-11.61675 3.04684,-2.26808 7.31477,-2.42068 11.11167,-2.52539 37.14886,-1.02453 109.09648,0 109.09648,0 l 0.50507,16.16245 26.76905,-42.42641 -27.7792,-37.37565 0.50508,18.68783 c 0,0 -88.38207,0.24731 -128.28937,0.50507 -4.85903,0.0314 -9.71808,1.52587 -14.14214,3.53554 -4.29471,1.95091 -8.23995,4.78763 -11.61675,8.08122 -4.48372,4.37324 -7.93859,9.75224 -11.11168,15.15229 -2.25181,3.83218 -4.32623,7.85049 -5.55584,12.12183 -1.78509,6.20094 -2.52538,19.19289 -2.52538,19.19289 z"
       id="path4089"
       inkscape:connector-curvature="0"
       sodipodi:nodetypes="ccssscccccssssscc" />
    <g
       transform="matrix(1.1537426,0,0,1.885693,-20.724872,-757.38087)"
       style="font-size:12px;font-style:normal;font-variant:normal;font-weight:normal;font-stretch:normal;text-align:start;line-height:125%;letter-spacing:0px;word-spacing:0px;writing-mode:lr-tb;text-anchor:start;fill:none;stroke:#353535;stroke-width:0.33898466;stroke-miterlimit:4;stroke-opacity:1;font-family:Sans;-inkscape-font-specification:Sans;stroke-dasharray:none"
       id="flowRoot4091">
      <path
         d="m 279.35156,858.84062 13.76731,-2.41062 0.43777,6.38913 -8.94141,0 0,3.80078 8.40821,0 0,3.97852 -8.40821,0 0,8.6543 -5.26367,0 0,-20.41211"
         style="font-size:28px;font-weight:bold;line-height:125%;stroke:#353535;font-family:Sans;-inkscape-font-specification:Sans Bold;stroke-width:0.33898466;stroke-miterlimit:4;stroke-dasharray:none"
         id="path4100"
         inkscape:connector-curvature="0"
         sodipodi:nodetypes="ccccccccccc" />
      <path
         d="m 303.66139,861.74943 c -1.17532,1e-5 -2.0741,0.55657 -2.69632,1.66966 -0.61236,1.10018 -0.91853,2.69218 -0.91853,4.77602 0,2.08384 0.30617,3.68232 0.91853,4.79543 0.62222,1.10016 1.521,1.65024 2.69632,1.65024 1.15557,0 2.03952,-0.55008 2.65189,-1.65024 0.61233,-1.11311 0.91851,-2.71159 0.91852,-4.79543 -1e-5,-2.08384 -0.30619,-3.67584 -0.91852,-4.77602 -0.61237,-1.11309 -1.49632,-1.66965 -2.65189,-1.66966 m 0,-4.97017 c 2.85434,2e-5 5.08152,1.00958 6.68156,3.0287 1.60986,2.01915 2.41482,4.81484 2.41484,8.38715 -2e-5,3.57232 -0.80498,6.36803 -2.41484,8.38716 -1.60004,2.01911 -3.82722,3.02868 -6.68156,3.02868 -2.86423,0 -5.10622,-1.00957 -6.72599,-3.02868 -1.60989,-2.01913 -2.41485,-4.81484 -2.41485,-8.38716 0,-3.57231 0.80496,-6.368 2.41485,-8.38715 1.61977,-2.01912 3.86176,-3.02868 6.72599,-3.0287"
         style="font-size:28px;font-weight:bold;line-height:125%;stroke:#353535;stroke-width:0.33898466;font-family:Sans;-inkscape-font-specification:Sans Bold;stroke-miterlimit:4;stroke-dasharray:none"
         id="path4102"
         inkscape:connector-curvature="0" />
      <path
         d="m 327.68035,862.70755 c -0.50456,-0.29681 -1.00909,-0.51269 -1.51362,-0.64763 -0.49382,-0.1484 -0.99299,-0.22261 -1.49753,-0.22262 -1.48144,10e-6 -2.62471,0.60042 -3.42982,1.8012 -0.79439,1.18734 -1.19158,2.89409 -1.19158,5.12029 l 0,10.44296 -5.76468,0 0,-22.66687 5.76468,0 0,3.72383 c 0.7407,-1.48412 1.58876,-2.56349 2.54419,-3.23812 0.96613,-0.68808 2.12014,-1.03214 3.46201,-1.03215 0.19322,10e-6 0.40256,0.0134 0.62801,0.0403 0.22542,0.0134 0.55283,0.0541 0.98225,0.12141 l 0.0161,6.55721"
         style="font-size:28px;font-weight:bold;line-height:125%;stroke:#353535;stroke-width:0.33898466;font-family:Sans;-inkscape-font-specification:Sans Bold;stroke-miterlimit:4;stroke-dasharray:none"
         id="path4104"
         inkscape:connector-curvature="0" />
      <path
         d="m 328.91355,856.47487 4.73547,0 2.55826,15.67677 2.57185,-15.67677 4.06869,0 2.55825,15.51432 2.57186,-15.51432 4.73547,0 -4.01426,22.74352 -5.32062,0 -2.57185,-15.63618 -2.55824,15.63618 -5.32062,0 -4.01426,-22.74352"
         style="font-size:28px;font-weight:bold;line-height:125%;stroke:#353535;stroke-width:0.33898466;font-family:Sans;-inkscape-font-specification:Sans Bold;stroke-miterlimit:4;stroke-dasharray:none"
         id="path4106"
         inkscape:connector-curvature="0" />
      <path
         d="m 362.95333,869.14219 c -1.01415,2e-5 -1.77929,0.24898 -2.29541,0.74688 -0.50708,0.49793 -0.76062,1.23171 -0.76061,2.20133 -1e-5,0.89103 0.20373,1.59205 0.6112,2.10306 0.41651,0.49793 0.9915,0.74689 1.72496,0.74688 0.91453,10e-6 1.6842,-0.47171 2.309,-1.41514 0.62477,-0.95652 0.93717,-2.14891 0.93718,-3.57716 l 0,-0.80585 -2.52632,0 m 7.42954,-2.65339 0,12.55939 -4.90322,0 0,-3.26268 c -0.65196,1.33651 -1.38541,2.3127 -2.20034,2.92854 -0.81495,0.60276 -1.80646,0.90413 -2.97454,0.90413 -1.57555,0 -2.85681,-0.66172 -3.8438,-1.98514 -0.97792,-1.33651 -1.46689,-3.06613 -1.46689,-5.18884 0,-2.58132 0.6112,-4.47474 1.83362,-5.68024 1.23146,-1.20547 3.16015,-1.80822 5.78607,-1.80823 l 2.86588,0 0,-0.55033 c -10e-6,-1.11376 -0.30335,-1.92615 -0.91002,-2.43719 -0.60669,-0.52411 -1.55292,-0.78618 -2.83871,-0.7862 -1.04131,2e-5 -2.01019,0.15071 -2.90662,0.45207 -0.89644,0.30138 -1.72949,0.75345 -2.49915,1.35617 l 0,-5.36575 c 1.04131,-0.36686 2.08715,-0.64203 3.13752,-0.8255 1.05036,-0.19652 2.10073,-0.29479 3.1511,-0.29481 2.74363,2e-5 4.72211,0.78621 5.93548,2.35857 1.2224,1.55929 1.83361,4.10131 1.83362,7.62604"
         style="font-size:28px;font-weight:bold;line-height:125%;stroke:#353535;stroke-width:0.33898466;font-family:Sans;-inkscape-font-specification:Sans Bold;stroke-miterlimit:4;stroke-dasharray:none"
         id="path4108"
         inkscape:connector-curvature="0" />
      <path
         d="m 386.30459,862.89806 c -0.51276,-0.29337 -1.02548,-0.50674 -1.53818,-0.64013 -0.50184,-0.14667 -1.00911,-0.22002 -1.52183,-0.22003 -1.50548,10e-6 -2.66729,0.59346 -3.48547,1.78033 -0.80728,1.1736 -1.21091,2.86058 -1.21091,5.06101 l 0,10.32205 -5.8582,0 0,-22.40444 5.8582,0 0,3.68073 c 0.75272,-1.46694 1.61453,-2.53381 2.58546,-3.20064 0.98181,-0.68011 2.15454,-1.02017 3.51818,-1.02019 0.19636,2e-5 0.40909,0.0132 0.6382,0.0399 0.22908,0.0132 0.56179,0.0534 0.99819,0.11999 l 0.0164,6.48128"
         style="font-size:28px;font-weight:bold;line-height:125%;stroke:#353535;stroke-width:0.33898466;font-family:Sans;-inkscape-font-specification:Sans Bold;stroke-miterlimit:4;stroke-dasharray:none"
         id="path4110"
         inkscape:connector-curvature="0" />
      <path
         d="m 398.79985,865.10374 0,-8.85196 5.36755,0 0,22.9561 -5.36755,0 0,-2.39004 c -0.73557,0.97372 -1.54568,1.68679 -2.43033,2.13922 -0.88466,0.45244 -1.90848,0.67866 -3.07143,0.67866 -2.05757,0 -3.74736,-0.80651 -5.06937,-2.41954 -1.322,-1.62285 -1.98301,-3.70799 -1.98301,-6.25538 0,-2.5474 0.66101,-4.6276 1.98301,-6.24064 1.32201,-1.62285 3.0118,-2.43427 5.06937,-2.43428 1.15302,10e-6 2.17186,0.23113 3.05653,0.69339 0.89458,0.45245 1.70966,1.16061 2.44523,2.12447 m -3.51874,10.69612 c 1.14307,2e-5 2.01282,-0.41308 2.60922,-1.23926 0.60633,-0.82618 0.9095,-2.02611 0.90952,-3.5998 -2e-5,-1.57368 -0.30319,-2.7736 -0.90952,-3.5998 -0.5964,-0.82617 -1.46615,-1.23926 -2.60922,-1.23928 -1.13317,2e-5 -2.00291,0.41311 -2.60923,1.23928 -0.5964,0.8262 -0.89461,2.02612 -0.89461,3.5998 0,1.57369 0.29821,2.77362 0.89461,3.5998 0.60632,0.82618 1.47606,1.23928 2.60923,1.23926"
         style="font-size:28px;font-weight:bold;line-height:125%;stroke:#353535;stroke-width:0.33898466;font-family:Sans;-inkscape-font-specification:Sans Bold;stroke-miterlimit:4;stroke-dasharray:none"
         id="path4112"
         inkscape:connector-curvature="0" />
    </g>
    <path
       style="fill:none;stroke:#000000;stroke-width:1.05068743px;stroke-linecap:butt;stroke-linejoin:miter;stroke-opacity:1"
       d="m 534.39586,972.06851 c 0,0 18.85212,8.73342 28.77946,11.15536 13.53994,3.3033 27.53637,4.32524 41.40201,4.46214 14.85667,0.14669 29.78711,-1.13563 44.43145,-3.90437 10.98505,-2.0769 32.31377,-9.48205 32.31377,-9.48205 l -1.00982,-91.47389 c 0,0 -10.32333,-9.01548 -16.15688,-12.27089 -4.13314,-2.30651 -8.68375,-3.58145 -13.12747,-5.01991 -4.8183,-1.55971 -9.67521,-3.09363 -14.64218,-3.90438 -8.83827,-1.44265 -17.82711,-1.8535 -26.75984,-1.6733 -12.67532,0.25572 -25.38304,1.47145 -37.8677,3.90438 -7.19594,1.4023 -14.51541,2.89013 -21.20591,6.13545 -5.12947,2.48811 -10.69982,5.15306 -14.13727,10.03981 -1.63282,2.32124 -2.52452,8.36651 -2.52452,8.36651 z"
       id="path4114"
       inkscape:connector-curvature="0"
       sodipodi:nodetypes="csssccssssssscc" />
    <path
       style="fill:#ffffff;stroke:#000000;stroke-width:0.69999999000000002;stroke-linecap:butt;stroke-linejoin:miter;stroke-miterlimit:4;stroke-opacity:1;stroke-dasharray:none;fill-opacity:1"
       d="m 585.88847,875.58549 2.02031,-35.86042 c 0,0 3.41964,-12.61865 8.08122,-16.66751 3.73835,-3.24698 9.19079,-4.49731 14.14213,-4.54569 7.03053,-0.0687 15.06699,1.25946 20.20305,6.06092 4.20318,3.92936 6.06092,16.16244 6.06092,16.16244 l 0,35.35533 c 0,0 4.08763,3.34352 6.56599,3.53554 3.02606,0.23446 8.5863,-3.03046 8.5863,-3.03046 0,0 -0.94407,-23.76485 0,-33.84011 0.69127,-7.37738 -3.01016,-15.30554 -8.08122,-20.70813 -5.46423,-5.82146 -13.97652,-8.149 -21.71828,-10.10152 -5.55999,-1.40227 -11.52268,-1.98906 -17.1726,-1.01015 -7.2099,1.24919 -14.92249,3.52085 -20.20305,8.5863 -5.38025,5.16108 -9.78461,12.74996 -9.59645,20.20304 0.31944,12.65335 -0.50507,35.86042 -0.50507,35.86042 0,0 4.15898,3.16057 6.56599,3.03045 1.96052,-0.10598 5.05076,-3.03045 5.05076,-3.03045 z"
       id="path4118"
       inkscape:connector-curvature="0"
       sodipodi:nodetypes="ccsssccscsssssscsc" />
    <path
       sodipodi:type="arc"
       style="fill:#ffffff;fill-opacity:1;stroke:#353535;stroke-width:0.69999999;stroke-linejoin:round;stroke-miterlimit:4;stroke-opacity:1;stroke-dasharray:none"
       id="path4120"
       sodipodi:cx="604.32373"
       sodipodi:cy="878.61597"
       sodipodi:rx="76.519058"
       sodipodi:ry="17.67767"
       d="m 530.29286,874.14464 a 76.519058,17.67767 0 0 1 149.99857,2.35302"
       sodipodi:start="3.3973071"
       sodipodi:end="6.1630672"
       sodipodi:open="true"
       transform="matrix(0.95632714,0,0,-1.0009717,28.707687,1757.4686)" />
    <path
       sodipodi:type="arc"
       style="fill:#ffffff;fill-opacity:1;stroke:#353535;stroke-width:0.69999999;stroke-linejoin:round;stroke-miterlimit:4;stroke-opacity:1;stroke-dasharray:none"
       id="path4120-9"
       sodipodi:cx="604.32373"
       sodipodi:cy="878.61597"
       sodipodi:rx="76.519058"
       sodipodi:ry="17.67767"
       d="m 530.29286,874.14464 a 76.519058,17.67767 0 0 1 149.99857,2.35302"
       sodipodi:start="3.3973071"
       sodipodi:end="6.1630672"
       sodipodi:open="true"
       transform="matrix(0.97312412,0,0,-1.0005953,18.329832,1824.1154)" />
  </g>
</svg>
