<?xml version="1.0" encoding="UTF-8" standalone="no"?>
<!-- Created with Inkscape (http://www.inkscape.org/) -->

<svg
   xmlns:dc="http://purl.org/dc/elements/1.1/"
   xmlns:cc="http://creativecommons.org/ns#"
   xmlns:rdf="http://www.w3.org/1999/02/22-rdf-syntax-ns#"
   xmlns:svg="http://www.w3.org/2000/svg"
   xmlns="http://www.w3.org/2000/svg"
   xmlns:sodipodi="http://sodipodi.sourceforge.net/DTD/sodipodi-0.dtd"
   xmlns:inkscape="http://www.inkscape.org/namespaces/inkscape"
   width="744.09448819"
   height="1052.3622047"
   id="svg2"
   version="1.1"
   inkscape:version="0.48.4 r9939"
   sodipodi:docname="9_pm_outlines.svg">
  <defs
     id="defs4" />
  <sodipodi:namedview
     id="base"
     pagecolor="#ffffff"
     bordercolor="#666666"
     borderopacity="1.0"
     inkscape:pageopacity="0.0"
     inkscape:pageshadow="2"
     inkscape:zoom="1.979899"
     inkscape:cx="584.96356"
     inkscape:cy="161.41059"
     inkscape:document-units="px"
     inkscape:current-layer="layer1"
     showgrid="false"
     showguides="false"
     inkscape:window-width="1440"
     inkscape:window-height="844"
     inkscape:window-x="-6"
     inkscape:window-y="0"
     inkscape:window-maximized="1" />
  <metadata
     id="metadata7">
    <rdf:RDF>
      <cc:Work
         rdf:about="">
        <dc:format>image/svg+xml</dc:format>
        <dc:type
           rdf:resource="http://purl.org/dc/dcmitype/StillImage" />
        <dc:title />
      </cc:Work>
    </rdf:RDF>
  </metadata>
  <g
     inkscape:label="Layer 1"
     inkscape:groupmode="layer"
     id="layer1">
    <rect
       style="fill:#a2a2a2;stroke:#373737;stroke-width:0.69999999000000002;stroke-miterlimit:4;stroke-opacity:1;stroke-dasharray:none;fill-opacity:1"
       id="rect3801"
       width="745.71429"
       height="1051.4286"
       x="-2.8571429"
       y="0.93361121" />
    <rect
       style="fill:#ffffff;fill-opacity:1;stroke:#373737;stroke-width:0.69999999;stroke-miterlimit:4;stroke-opacity:1;stroke-dasharray:none"
       id="rect2985"
       width="222.85715"
       height="222.85715"
       x="17.142857"
       y="798.07648" />
    <rect
       style="fill:#ffffff;fill-opacity:1;stroke:#373737;stroke-width:0.69999999;stroke-miterlimit:4;stroke-opacity:1;stroke-dasharray:none"
       id="rect2985-5"
       width="222.85715"
       height="222.85715"
       x="262.85712"
       y="795.2193" />
    <rect
       style="fill:#ffffff;fill-opacity:1;stroke:#373737;stroke-width:0.69999999;stroke-miterlimit:4;stroke-opacity:1;stroke-dasharray:none"
       id="rect2985-6"
       width="222.85715"
       height="222.85715"
       x="502.85715"
       y="798.07648" />
    <rect
       style="fill:#ffffff;fill-opacity:1;stroke:#373737;stroke-width:0.69999999;stroke-miterlimit:4;stroke-opacity:1;stroke-dasharray:none"
       id="rect2985-0"
       width="222.85715"
       height="222.85715"
       x="502.85715"
       y="543.79077" />
    <rect
       style="fill:#ffffff;fill-opacity:1;stroke:#373737;stroke-width:0.69999999;stroke-miterlimit:4;stroke-opacity:1;stroke-dasharray:none"
       id="rect2985-1"
       width="222.85715"
       height="222.85715"
       x="502.85715"
       y="289.505" />
    <rect
       style="fill:#ffffff;fill-opacity:1;stroke:#373737;stroke-width:0.69999999;stroke-miterlimit:4;stroke-opacity:1;stroke-dasharray:none"
       id="rect2985-3"
       width="222.85715"
       height="222.85715"
       x="502.85715"
       y="35.219326" />
    <rect
       style="fill:#ffffff;fill-opacity:1;stroke:#373737;stroke-width:0.69999999;stroke-miterlimit:4;stroke-opacity:1;stroke-dasharray:none"
       id="rect2985-3-5"
       width="222.85715"
       height="222.85715"
       x="262.85712"
       y="542.83838" />
    <rect
       style="fill:#ffffff;fill-opacity:1;stroke:#373737;stroke-width:0.69999999;stroke-miterlimit:4;stroke-opacity:1;stroke-dasharray:none"
       id="rect2985-3-8"
       width="222.85715"
       height="222.85715"
       x="262.85712"
       y="290.45743" />
    <rect
       style="fill:#ffffff;fill-opacity:1;stroke:#373737;stroke-width:0.69999999;stroke-miterlimit:4;stroke-opacity:1;stroke-dasharray:none"
       id="rect2985-3-9"
       width="222.85715"
       height="222.85715"
       x="262.85712"
       y="38.076469" />
    <rect
       style="fill:#ffffff;fill-opacity:1;stroke:#373737;stroke-width:0.69999999;stroke-miterlimit:4;stroke-opacity:1;stroke-dasharray:none"
       id="rect2985-3-1"
       width="222.85715"
       height="222.85715"
       x="17.142857"
       y="40.933609" />
    <rect
       style="fill:#ffffff;fill-opacity:1;stroke:#373737;stroke-width:0.69999999;stroke-miterlimit:4;stroke-opacity:1;stroke-dasharray:none"
       id="rect2985-3-2"
       width="222.85715"
       height="222.85715"
       x="17.142857"
       y="293.31451" />
    <rect
       style="fill:#ffffff;fill-opacity:1;stroke:#373737;stroke-width:0.69999999;stroke-miterlimit:4;stroke-opacity:1;stroke-dasharray:none"
       id="rect2985-3-4"
       width="222.85715"
       height="222.85715"
       x="17.142857"
       y="545.6955" />
    <flowRoot
       xml:space="preserve"
       id="flowRoot2995"
       style="font-size:40px;font-style:normal;font-variant:normal;font-weight:bold;font-stretch:normal;text-align:start;line-height:125%;letter-spacing:0px;word-spacing:0px;writing-mode:lr-tb;text-anchor:start;fill:none;fill-opacity:1;stroke:#3c3c3c;font-family:Nimbus Roman No9 L;-inkscape-font-specification:Nimbus Roman No9 L Bold;stroke-opacity:1;stroke-width:0.65872995;stroke-miterlimit:4;stroke-dasharray:none"
       transform="matrix(1,0,0,1.3734719,0,-25.817999)"><flowRegion
         id="flowRegion2997"><rect
           id="rect2999"
           width="186.87823"
           height="69.195435"
           x="32.324883"
           y="59.887306"
           style="font-size:40px;font-style:normal;font-variant:normal;font-weight:bold;font-stretch:normal;text-align:start;line-height:125%;writing-mode:lr-tb;text-anchor:start;font-family:Nimbus Roman No9 L;-inkscape-font-specification:Nimbus Roman No9 L Bold;fill:none;stroke:#3c3c3c;stroke-opacity:1;stroke-width:0.65872995;stroke-miterlimit:4;stroke-dasharray:none" /></flowRegion><flowPara
         id="flowPara3001"
         style="font-size:40px;font-style:normal;font-variant:normal;font-weight:bold;font-stretch:normal;text-align:start;line-height:125%;writing-mode:lr-tb;text-anchor:start;font-family:Nimbus Roman No9 L;-inkscape-font-specification:Nimbus Roman No9 L Bold;fill:none;stroke:#3c3c3c;stroke-opacity:1;stroke-width:0.65872995;stroke-miterlimit:4;stroke-dasharray:none">27/09/2013</flowPara></flowRoot>    <flowRoot
       xml:space="preserve"
       id="flowRoot3964-8"
       style="font-size:12px;font-style:normal;font-variant:normal;font-weight:normal;font-stretch:normal;text-align:start;line-height:125%;letter-spacing:0px;word-spacing:0px;writing-mode:lr-tb;text-anchor:start;fill:#ffffff;fill-opacity:1;stroke:none;font-family:Sans;-inkscape-font-specification:Sans"
       transform="matrix(1.1929947,0,0,1.4970426,-312.02228,-1229.5766)"><flowRegion
         id="flowRegion3966-1"><rect
           id="rect3968-2"
           width="168.69548"
           height="87.378197"
           x="279.30719"
           y="890.23273"
           style="fill:#ffffff;fill-opacity:1" /></flowRegion><flowPara
         id="flowPara3970-7"
         style="font-size:48px;font-style:normal;font-variant:normal;font-weight:bold;font-stretch:normal;text-align:center;line-height:125%;writing-mode:lr-tb;text-anchor:middle;fill:#ffffff;fill-opacity:1;stroke:#000000;stroke-opacity:1;font-family:Sans;-inkscape-font-specification:Sans Bold">To Do</flowPara></flowRoot>    <path
       style="fill:none;stroke:#000000;stroke-width:1px;stroke-linecap:butt;stroke-linejoin:miter;stroke-opacity:1"
       d="m 283.34779,189.18683 76.26652,0 0,11.11168 20.70812,-19.69797 -20.70812,-19.69798 0,12.62691 -76.26652,1.01015 z"
       id="path3784"
       inkscape:connector-curvature="0"
       sodipodi:nodetypes="cccccccc" />
    <path
       style="fill:none;stroke:#000000;stroke-width:1px;stroke-linecap:butt;stroke-linejoin:miter;stroke-opacity:1"
       d="m 387.3935,165.44824 0.50508,-62.62945 59.09392,0 0,8.08122 13.13198,-17.172593 -12.6269,-17.172594 -0.50508,9.091373 c 0,0 -46.89951,0.283032 -69.70052,0.505076 -3.69222,0.03596 -7.47683,4.39016 -7.57615,8.081221 -0.64837,24.095507 0,71.215757 0,71.215757 z"
       id="path3786"
       inkscape:connector-curvature="0"
       sodipodi:nodetypes="cccccccsscc" />
    <path
       inkscape:connector-curvature="0"
       id="path3796-0"
       style="fill:none;stroke:#000000;stroke-width:0.60000002;stroke-linecap:butt;stroke-linejoin:miter;stroke-miterlimit:4;stroke-opacity:1;stroke-dasharray:none"
       d="m 637.69843,96.135141 -0.71601,12.590149 z m -45.82445,36.871139 0,22.48241 z m -66.58863,30.57608 20.0482,0 z m 95.9449,-92.627499 64.4406,0 0,25.18028 -64.4406,0 z m -38.66435,38.669729 65.87262,0 0,25.18028 -65.87262,0 z m -36.51634,45.86411 52.98451,0 0,20.68381 -52.98451,0 z m -25.06025,42.26692 174.70566,0.8993 z m 4.29604,-132.196539 0,142.088799 z m -9.30811,-11.69085 c 64.0424,-0.63623 126.95946,-0.7098 188.30979,0 l 0,164.571189 -188.30979,0 z"
       sodipodi:nodetypes="ccccccccccccccccccccccccccccccccccc" />
    <flowRoot
       xml:space="preserve"
       id="flowRoot3795"
       style="font-size:12px;font-style:normal;font-variant:normal;font-weight:normal;font-stretch:normal;text-align:start;line-height:125%;letter-spacing:0px;word-spacing:0px;writing-mode:lr-tb;text-anchor:start;fill:#000000;fill-opacity:1;stroke:none;font-family:Sans;-inkscape-font-specification:Sans"
       transform="matrix(1.4244682,0,0,1.4607475,-255.22245,-68.389313)"><flowRegion
         id="flowRegion3797"><rect
           id="rect3799"
           width="154.55334"
           height="71.720833"
           x="537.90625"
           y="160.39749" /></flowRegion><flowPara
         id="flowPara3801"
         style="font-size:48px;font-style:normal;font-variant:normal;font-weight:bold;font-stretch:normal;text-align:start;line-height:125%;writing-mode:lr-tb;text-anchor:start;fill:#ffffff;fill-opacity:1;stroke:#3c3c3c;stroke-width:0.69999999;stroke-miterlimit:4;stroke-opacity:1;stroke-dasharray:none;font-family:Georgia;-inkscape-font-specification:Georgia Bold">Tasks</flowPara></flowRoot>    <path
       inkscape:connector-curvature="0"
       id="path3796-0-8"
       style="fill:none;stroke:#000000;stroke-width:0.60000002;stroke-linecap:butt;stroke-linejoin:miter;stroke-miterlimit:4;stroke-opacity:1;stroke-dasharray:none"
       d="m 148.7846,351.19867 -0.71601,12.59015 z m -45.82445,36.87114 0,22.4824 z m -66.588633,30.57607 20.0482,0 z m 95.944903,-92.6275 64.4406,0 0,25.18029 -64.4406,0 z m -38.664353,38.66974 65.872623,0 0,25.18028 -65.872623,0 z m -36.51634,45.8641 52.984513,0 0,20.68381 -52.984513,0 z m -25.06025,42.26692 174.705663,0.8993 z m 4.29604,-132.19654 0,142.0888 z m -9.30811,-11.69085 188.309793,0 0,164.57119 -188.309793,0 z" />
    <flowRoot
       xml:space="preserve"
       id="flowRoot3932"
       style="font-size:12px;font-style:normal;font-variant:normal;font-weight:normal;font-stretch:normal;text-align:start;line-height:125%;letter-spacing:0px;word-spacing:0px;writing-mode:lr-tb;text-anchor:start;fill:#ffffff;stroke:#000000;stroke-width:0.21610259000000001;stroke-miterlimit:4;stroke-opacity:1;stroke-dasharray:none;font-family:Sans;-inkscape-font-specification:Sans;fill-opacity:1"
       transform="matrix(2.7764592,0,0,2.7764592,-33.216995,-1967.9716)"><flowRegion
         id="flowRegion3934"><rect
           id="rect3936"
           width="168.1904"
           height="177.28177"
           x="39.39595"
           y="815.48138"
           style="fill:#ffffff;stroke:#000000;stroke-width:0.21610259000000001;stroke-miterlimit:4;stroke-opacity:1;stroke-dasharray:none;fill-opacity:1" /></flowRegion><flowPara
         id="flowPara3938"
         style="font-size:72px;font-style:normal;font-variant:normal;font-weight:bold;font-stretch:normal;text-align:start;line-height:125%;writing-mode:lr-tb;text-anchor:start;fill:#ffffff;stroke:#000000;stroke-width:0.21610259000000001;stroke-miterlimit:4;stroke-opacity:1;stroke-dasharray:none;font-family:Nimbus Roman No9 L;-inkscape-font-specification:Nimbus Roman No9 L Bold;fill-opacity:1">$</flowPara></flowRoot>    <flowRoot
       xml:space="preserve"
       id="flowRoot3830"
       style="font-size:12px;font-style:normal;font-variant:normal;font-weight:normal;font-stretch:normal;text-align:start;line-height:125%;letter-spacing:0px;word-spacing:0px;writing-mode:lr-tb;text-anchor:start;fill:none;fill-opacity:1;stroke:#3c3c3c;font-family:Sans;-inkscape-font-specification:Sans;stroke-opacity:1;stroke-width:0.40180935;stroke-miterlimit:4;stroke-dasharray:none"
       transform="matrix(1.8391807,0,0,1.8391807,-243.16325,-330.87898)"><flowRegion
         id="flowRegion3832"><rect
           id="rect3834"
           width="155.05841"
           height="168.6955"
           x="278.29703"
           y="309.39499"
           style="fill:none;stroke:#3c3c3c;stroke-opacity:1;stroke-width:0.40180935;stroke-miterlimit:4;stroke-dasharray:none" /></flowRegion><flowPara
         id="flowPara3836"
         style="font-size:144px;font-style:normal;font-variant:normal;font-weight:bold;font-stretch:normal;text-align:start;line-height:125%;writing-mode:lr-tb;text-anchor:start;font-family:Nimbus Roman No9 L;-inkscape-font-specification:Nimbus Roman No9 L Bold;fill:none;stroke:#3c3c3c;stroke-opacity:1;stroke-width:0.40180935;stroke-miterlimit:4;stroke-dasharray:none">£</flowPara></flowRoot>    <path
       id="path3837"
       style="fill:#ffffff;fill-opacity:1;stroke:#000000;stroke-width:0.40000001;stroke-linecap:butt;stroke-linejoin:miter;stroke-miterlimit:4;stroke-opacity:1;stroke-dasharray:none"
       d="m 337.09547,427.33031 119.198,-117.68277 z m -5.55584,-7.57614 119.19801,-118.69292 z m -8.08122,-2.02031 118.69293,-119.70308 z m -17.17259,38.3858 c 0,0 -0.35714,-7.14916 -3.03046,-8.5863 -2.44565,-1.31475 -8.08122,2.02031 -8.08122,2.02031 0,0 4.5112,-2.42252 6.56599,-1.51523 2.82731,1.24839 4.54569,8.08122 4.54569,8.08122 z m 9.09137,-38.3858 c 0,0 14.14471,-0.42907 18.68782,4.04061 3.69712,3.63736 3.53554,15.15229 3.53554,15.15229 0,0 -0.11568,-11.45794 -4.04061,-15.15229 -4.49605,-4.23192 -18.18275,-4.04061 -18.18275,-4.04061 z m 22.72843,20.20305 120.71323,-117.68277 c 0,0 1.50463,-11.69272 -8.08121,-19.1929 -6.5259,-5.10601 -16.66752,-1.51523 -16.66752,-1.51523 l -117.68278,116.67262 -33.84011,54.04316 z"
       inkscape:connector-curvature="0" />
    <flowRoot
       xml:space="preserve"
       id="flowRoot3838"
       style="font-size:12px;font-style:normal;font-variant:normal;font-weight:normal;font-stretch:normal;text-align:start;line-height:125%;letter-spacing:0px;word-spacing:0px;writing-mode:lr-tb;text-anchor:start;fill:none;fill-opacity:1;stroke:#3c3c3c;font-family:Sans;-inkscape-font-specification:Sans;stroke-opacity:1;stroke-width:0.64849327;stroke-miterlimit:4;stroke-dasharray:none"
       transform="matrix(1.1380226,0,0,1.1380226,-70.837109,-43.32185)"><flowRegion
         id="flowRegion3840"><rect
           id="rect3842"
           width="201.02042"
           height="188.89854"
           x="512.14734"
           y="305.35437"
           style="fill:none;stroke:#3c3c3c;stroke-opacity:1;stroke-width:0.64849327;stroke-miterlimit:4;stroke-dasharray:none" /></flowRegion><flowPara
         id="flowPara3844"
         style="font-size:36px;font-style:normal;font-variant:normal;font-weight:bold;font-stretch:normal;text-align:start;line-height:125%;writing-mode:lr-tb;text-anchor:start;font-family:Sans;-inkscape-font-specification:Sans Bold;fill:none;stroke:#3c3c3c;stroke-opacity:1;stroke-width:0.64849327;stroke-miterlimit:4;stroke-dasharray:none">Working</flowPara><flowPara
         id="flowPara3846"
         style="font-size:36px;font-style:normal;font-variant:normal;font-weight:bold;font-stretch:normal;text-align:start;line-height:125%;writing-mode:lr-tb;text-anchor:start;font-family:Sans;-inkscape-font-specification:Sans Bold;fill:none;stroke:#3c3c3c;stroke-opacity:1;stroke-width:0.64849327;stroke-miterlimit:4;stroke-dasharray:none">Hours</flowPara></flowRoot>    <rect
       style="fill:none;stroke:#3c3c3c;stroke-width:0.73799998;stroke-linejoin:round;stroke-miterlimit:4;stroke-opacity:1;stroke-dasharray:none"
       id="rect3848"
       width="198.49498"
       height="81.822334"
       x="24.748737"
       y="572.53973" />
    <flowRoot
       xml:space="preserve"
       id="flowRoot3850"
       style="font-size:12px;font-style:normal;font-variant:normal;font-weight:normal;font-stretch:normal;text-align:start;line-height:125%;letter-spacing:0px;word-spacing:0px;writing-mode:lr-tb;text-anchor:start;fill:none;fill-opacity:1;stroke:#3c3c3c;font-family:Sans;-inkscape-font-specification:Sans;stroke-opacity:1;stroke-width:0.48545017;stroke-miterlimit:4;stroke-dasharray:none"
       transform="matrix(1.2359662,0,0,1.2359662,-29.349664,-136.75204)"><flowRegion
         id="flowRegion3852"><rect
           id="rect3854"
           width="190.91884"
           height="65.659912"
           x="27.274118"
           y="580.11584"
           style="fill:none;stroke:#3c3c3c;stroke-opacity:1;stroke-width:0.48545017;stroke-miterlimit:4;stroke-dasharray:none" /></flowRegion><flowPara
         id="flowPara3856"
         style="font-size:40px;font-style:normal;font-variant:normal;font-weight:bold;font-stretch:normal;text-align:center;line-height:125%;writing-mode:lr-tb;text-anchor:middle;font-family:Georgia;-inkscape-font-specification:Georgia Bold;fill:none;stroke:#3c3c3c;stroke-opacity:1;stroke-width:0.48545017;stroke-miterlimit:4;stroke-dasharray:none">Header</flowPara></flowRoot>    <rect
       style="fill:none;stroke:#3c3c3c;stroke-width:0.73799998;stroke-linejoin:round;stroke-miterlimit:4;stroke-opacity:1;stroke-dasharray:none"
       id="rect3848-5"
       width="198.49498"
       height="81.822334"
       x="271.98358"
       y="573.0448" />
    <flowRoot
       xml:space="preserve"
       id="flowRoot3876"
       style="font-size:12px;font-style:normal;font-variant:normal;font-weight:normal;font-stretch:normal;text-align:start;line-height:125%;letter-spacing:0px;word-spacing:0px;writing-mode:lr-tb;text-anchor:start;fill:#000000;fill-opacity:1;stroke:none;font-family:Sans;-inkscape-font-specification:Sans;stroke-width:0.7;stroke-miterlimit:4;stroke-dasharray:none"><flowRegion
         id="flowRegion3878"><rect
           id="rect3880"
           width="188.39345"
           height="69.19545"
           x="276.27673"
           y="580.11584"
           style="stroke-width:0.7;stroke-miterlimit:4;stroke-dasharray:none" /></flowRegion><flowPara
         id="flowPara3882"
         style="-inkscape-font-specification:Georgia Bold;font-family:Georgia;font-weight:bold;font-style:normal;font-stretch:normal;font-variant:normal;font-size:48px;text-anchor:middle;text-align:center;writing-mode:lr;line-height:125%;fill:none;stroke:#3c3c3c;stroke-opacity:1;stroke-width:0.7;stroke-miterlimit:4;stroke-dasharray:none">Footer</flowPara></flowRoot>    <path
       style="fill:none;stroke:#000000;stroke-width:1.07090771px;stroke-linecap:butt;stroke-linejoin:miter;stroke-opacity:1"
       d="m 519.99059,733.73638 c 14.06098,6.60077 28.96167,8.42096 43.8121,10.81781 11.42628,1.84419 23.0451,2.93457 34.61697,2.70445 16.88114,-0.33569 34.00029,-1.55497 50.30277,-5.94979 5.69172,-1.53438 16.22671,-7.03157 16.22671,-7.03157 0,0 4.81779,-7.2397 4.86801,-11.35869 0.0473,-3.88343 -2.63122,-7.32394 -4.32712,-10.81781 -4.72642,-9.73735 -9.70522,-19.4877 -16.2267,-28.12628 -4.99349,-6.61455 -10.55982,-13.03872 -17.30848,-17.84939 -22.8564,-16.29278 -64.28529,-22.58004 -76.2655,-35.69874 -11.75559,-12.87273 -16.06424,-30.75805 -22.1765,-47.05743 0,0 -4.17415,-11.45431 -1.08178,-15.68581 4.92808,-6.74343 13.42955,-6.92311 23.25828,-8.65425 9.82872,-1.73115 24.0977,-1.47802 35.69874,-1.08178 12.26494,0.41891 24.84956,-0.16893 36.78053,2.70446 8.42828,2.02981 19.83743,3.95042 24.34005,11.35869 2.57133,4.23066 -1.15483,9.90202 -2.70445,14.60403 -5.02259,15.2401 -9.50288,32.17543 -21.09472,43.27121 -20.59113,19.70996 -53.05667,21.08688 -78.42906,34.07607 -6.90846,3.53673 -11.66524,11.4603 -16.76759,17.30848 -3.25594,3.73187 -13.64749,18.94116 -15.14493,31.91253 -0.78815,6.82725 -4.59853,17.63334 1.62267,20.55381 z"
       id="path3884"
       inkscape:connector-curvature="0"
       sodipodi:nodetypes="sssscssssscsssssssssss" />
    <path
       style="fill:none;stroke:#000000;stroke-width:1px;stroke-linecap:butt;stroke-linejoin:miter;stroke-opacity:1"
       d="m 633.87072,669.00929 -89.3985,-1.51523 z"
       id="path3886"
       inkscape:connector-curvature="0" />
    <path
       style="fill:none;stroke:#000000;stroke-width:1px;stroke-linecap:butt;stroke-linejoin:miter;stroke-opacity:1"
       d="m 617.70828,637.69456 -54.04316,-1.01015 z"
       id="path3888"
       inkscape:connector-curvature="0" />
    <flowRoot
       xml:space="preserve"
       id="flowRoot3890"
       style="font-size:12px;font-style:normal;font-variant:normal;font-weight:normal;font-stretch:normal;text-align:start;line-height:125%;letter-spacing:0px;word-spacing:0px;writing-mode:lr-tb;text-anchor:start;fill:#000000;fill-opacity:1;stroke:none;font-family:Sans;-inkscape-font-specification:Sans"><flowRegion
         id="flowRegion3892"><rect
           id="rect3894"
           width="152.02795"
           height="22.728432"
           x="534.37067"
           y="522.53717" /></flowRegion><flowPara
         id="flowPara3896">red hourglass - no sand</flowPara></flowRoot>    <path
       style="fill:none;stroke:#000000;stroke-width:1.07090771px;stroke-linecap:butt;stroke-linejoin:miter;stroke-opacity:1"
       d="m 33.911939,982.10214 c 14.06098,6.60077 28.96167,8.42096 43.8121,10.81781 11.42628,1.84419 23.045101,2.93457 34.616971,2.70445 16.88114,-0.33569 34.00028,-1.55497 50.30276,-5.94979 5.69172,-1.53438 16.22671,-7.03157 16.22671,-7.03157 0,0 4.81779,-7.2397 4.86801,-11.35869 0.0473,-3.88343 -2.63122,-7.32394 -4.32712,-10.81781 -4.72642,-9.73735 -9.70522,-19.4877 -16.2267,-28.12628 -4.99349,-6.61455 -10.55982,-13.03872 -17.30848,-17.84939 -22.85639,-16.29279 -64.285281,-22.58005 -76.265491,-35.69875 -11.75559,-12.87273 -16.06424,-30.75805 -22.1765,-47.05743 0,0 -4.17415,-11.45431 -1.08178,-15.68581 4.92808,-6.74343 13.42955,-6.92311 23.25828,-8.65425 9.82872,-1.73115 24.0977,-1.47802 35.698741,-1.08178 12.26494,0.41891 24.84955,-0.16893 36.78052,2.70446 8.42828,2.02981 19.83743,3.95042 24.34005,11.35869 2.57133,4.23066 -1.15483,9.90202 -2.70445,14.60403 -5.02259,15.2401 -9.50288,32.17543 -21.09472,43.27121 -20.59112,19.70996 -53.056661,21.08688 -78.429051,34.07608 -6.90846,3.53673 -11.66524,11.4603 -16.76759,17.30848 -3.25594,3.73187 -13.64749,18.94116 -15.14493,31.91253 -0.78815,6.82725 -4.59853,17.63334 1.62267,20.55381 z"
       id="path3884-8"
       inkscape:connector-curvature="0"
       sodipodi:nodetypes="sssscssssscsssssssssss" />
    <path
       style="fill:none;stroke:#000000;stroke-width:1px;stroke-linecap:butt;stroke-linejoin:miter;stroke-opacity:1"
       d="m 174.75639,952.86216 -139.906127,0 z"
       id="path3916"
       inkscape:connector-curvature="0"
       sodipodi:nodetypes="ccc" />
    <path
       style="fill:none;stroke:#000000;stroke-width:1px;stroke-linecap:butt;stroke-linejoin:miter;stroke-opacity:1"
       d="M 158.59395,848.31137 54.548238,847.80629 z"
       id="path3918"
       inkscape:connector-curvature="0"
       sodipodi:nodetypes="ccc" />
    <flowRoot
       xml:space="preserve"
       id="flowRoot3920"
       style="font-size:12px;font-style:normal;font-variant:normal;font-weight:normal;font-stretch:normal;text-align:start;line-height:125%;letter-spacing:0px;word-spacing:0px;writing-mode:lr-tb;text-anchor:start;fill:#000000;fill-opacity:1;stroke:none;font-family:Sans;-inkscape-font-specification:Sans"><flowRegion
         id="flowRegion3922"><rect
           id="rect3924"
           width="189.40361"
           height="14.14213"
           x="37.880722"
           y="781.6413" /></flowRegion><flowPara
         id="flowPara3926">green hourglass - lots of sand</flowPara></flowRoot>    <path
       style="fill:none;stroke:#000000;stroke-width:1px;stroke-linecap:butt;stroke-linejoin:miter;stroke-opacity:1"
       d="m 358.09908,915.48651 c 0,0 6.48812,12.39717 5.05076,18.68782 -4.41347,19.31567 -20.9415,36.56169 -38.89087,44.95179 -8.99992,4.20684 -21.55535,6.04856 -29.7995,0.50508 -7.34249,-4.93719 -10.98009,-16.00954 -9.59645,-24.74874 3.12501,-19.73784 20.65273,-36.3406 37.88072,-46.46702 6.63382,-3.89929 22.72843,-4.04061 22.72843,-4.04061 0,0 -4.85655,-17.83329 -1.51523,-25.75889 9.08749,-21.55551 31.41532,-37.02339 53.03301,-45.96194 8.89006,-3.67589 19.01095,-3.90421 26.26397,1.01016 6.86358,4.65049 12.14745,14.01544 10.10152,22.72843 -5.71904,24.35569 -28.98935,43.18406 -51.0127,55.05331 -7.21199,3.88683 -24.24366,4.04061 -24.24366,4.04061 z"
       id="path3928"
       inkscape:connector-curvature="0"
       sodipodi:nodetypes="cssssscsssssc" />
    <path
       sodipodi:type="arc"
       style="fill:none;stroke:#3c3c3c;stroke-width:0.69999999;stroke-linejoin:round;stroke-miterlimit:4;stroke-opacity:1;stroke-dasharray:none"
       id="path3930"
       sodipodi:cx="382.09021"
       sodipodi:cy="880.38373"
       sodipodi:rx="18.940361"
       sodipodi:ry="39.648487"
       d="m 401.03057,880.38373 a 18.940361,39.648487 0 1 1 -37.88072,0 18.940361,39.648487 0 1 1 37.88072,0 z"
       transform="matrix(0.61885495,0.78550528,-0.78550528,0.61885495,842.7337,26.328646)" />
    <path
       sodipodi:type="arc"
       style="fill:none;stroke:#3c3c3c;stroke-width:0.69999999;stroke-linejoin:round;stroke-miterlimit:4;stroke-opacity:1;stroke-dasharray:none"
       id="path3930-5"
       sodipodi:cx="382.09021"
       sodipodi:cy="880.38373"
       sodipodi:rx="18.940361"
       sodipodi:ry="39.648487"
       d="m 401.03057,880.38373 a 18.940361,39.648487 0 1 1 -37.88072,0 18.940361,39.648487 0 1 1 37.88072,0 z"
       transform="matrix(0.54435059,0.73112046,-0.69093778,0.57600824,724.55831,156.80346)" />
    <flowRoot
       xml:space="preserve"
       id="flowRoot3950"
       style="font-size:12px;font-style:normal;font-variant:normal;font-weight:normal;font-stretch:normal;text-align:start;line-height:125%;letter-spacing:0px;word-spacing:0px;writing-mode:lr-tb;text-anchor:start;fill:none;fill-opacity:1;stroke:#3c3c3c;font-family:Sans;-inkscape-font-specification:Sans;stroke-opacity:1;stroke-width:0.18548712;stroke-miterlimit:4;stroke-dasharray:none"
       transform="matrix(3.1767597,0,0,3.2937498,-1138.0032,-1934.6058)"><flowRegion
         id="flowRegion3952"><rect
           id="rect3954"
           width="168.69548"
           height="172.231"
           x="516.18793"
           y="815.98651"
           style="fill:none;stroke:#3c3c3c;stroke-opacity:1;stroke-width:0.18548712;stroke-miterlimit:4;stroke-dasharray:none" /></flowRegion><flowPara
         id="flowPara3956"
         style="font-size:72px;font-style:normal;font-variant:normal;font-weight:bold;font-stretch:normal;text-align:start;line-height:125%;writing-mode:lr-tb;text-anchor:start;font-family:Sans;-inkscape-font-specification:Sans Bold;fill:none;stroke:#3c3c3c;stroke-opacity:1;stroke-width:0.18548712;stroke-miterlimit:4;stroke-dasharray:none">U</flowPara></flowRoot>  </g>
</svg>
