<?xml version="1.0" encoding="UTF-8" standalone="no"?>
<!-- Created with Inkscape (http://www.inkscape.org/) -->

<svg
   xmlns:dc="http://purl.org/dc/elements/1.1/"
   xmlns:cc="http://creativecommons.org/ns#"
   xmlns:rdf="http://www.w3.org/1999/02/22-rdf-syntax-ns#"
   xmlns:svg="http://www.w3.org/2000/svg"
   xmlns="http://www.w3.org/2000/svg"
   xmlns:sodipodi="http://sodipodi.sourceforge.net/DTD/sodipodi-0.dtd"
   xmlns:inkscape="http://www.inkscape.org/namespaces/inkscape"
   width="744.09448819"
   height="1052.3622047"
   id="svg2"
   version="1.1"
   inkscape:version="0.48.4 r9939"
   sodipodi:docname="icon_outlines_general2.svg">
  <defs
     id="defs4" />
  <sodipodi:namedview
     id="base"
     pagecolor="#ffffff"
     bordercolor="#666666"
     borderopacity="1.0"
     inkscape:pageopacity="0.0"
     inkscape:pageshadow="2"
     inkscape:zoom="1.9787248"
     inkscape:cx="502.49827"
     inkscape:cy="161.43044"
     inkscape:document-units="px"
     inkscape:current-layer="layer1"
     showgrid="false"
     showguides="false"
     inkscape:window-width="1440"
     inkscape:window-height="844"
     inkscape:window-x="-6"
     inkscape:window-y="0"
     inkscape:window-maximized="1" />
  <metadata
     id="metadata7">
    <rdf:RDF>
      <cc:Work
         rdf:about="">
        <dc:format>image/svg+xml</dc:format>
        <dc:type
           rdf:resource="http://purl.org/dc/dcmitype/StillImage" />
        <dc:title />
      </cc:Work>
    </rdf:RDF>
  </metadata>
  <g
     inkscape:label="Layer 1"
     inkscape:groupmode="layer"
     id="layer1">
    <rect
       style="fill:#a2a2a2;stroke:#373737;stroke-width:0.69999999000000002;stroke-miterlimit:4;stroke-opacity:1;stroke-dasharray:none;fill-opacity:1"
       id="rect3801"
       width="745.71429"
       height="1051.4286"
       x="-2.8571429"
       y="0.93361121" />
    <rect
       style="fill:#ffffff;fill-opacity:1;stroke:#373737;stroke-width:0.69999999;stroke-miterlimit:4;stroke-opacity:1;stroke-dasharray:none"
       id="rect2985"
       width="222.85715"
       height="222.85715"
       x="17.142857"
       y="798.07648" />
    <rect
       style="fill:#ffffff;fill-opacity:1;stroke:#373737;stroke-width:0.69999999;stroke-miterlimit:4;stroke-opacity:1;stroke-dasharray:none"
       id="rect2985-5"
       width="222.85715"
       height="222.85715"
       x="262.85712"
       y="795.2193" />
    <rect
       style="fill:#ffffff;fill-opacity:1;stroke:#373737;stroke-width:0.69999999;stroke-miterlimit:4;stroke-opacity:1;stroke-dasharray:none"
       id="rect2985-6"
       width="222.85715"
       height="222.85715"
       x="502.85715"
       y="798.07648" />
    <rect
       style="fill:#ffffff;fill-opacity:1;stroke:#373737;stroke-width:0.69999999;stroke-miterlimit:4;stroke-opacity:1;stroke-dasharray:none"
       id="rect2985-0"
       width="222.85715"
       height="222.85715"
       x="502.85715"
       y="543.79077" />
    <rect
       style="fill:#ffffff;fill-opacity:1;stroke:#373737;stroke-width:0.69999999;stroke-miterlimit:4;stroke-opacity:1;stroke-dasharray:none"
       id="rect2985-1"
       width="222.85715"
       height="222.85715"
       x="502.85715"
       y="289.505" />
    <rect
       style="fill:#ffffff;fill-opacity:1;stroke:#373737;stroke-width:0.69999999;stroke-miterlimit:4;stroke-opacity:1;stroke-dasharray:none"
       id="rect2985-3"
       width="222.85715"
       height="222.85715"
       x="502.85715"
       y="35.219326" />
    <rect
       style="fill:#ffffff;fill-opacity:1;stroke:#373737;stroke-width:0.69999999;stroke-miterlimit:4;stroke-opacity:1;stroke-dasharray:none"
       id="rect2985-3-5"
       width="222.85715"
       height="222.85715"
       x="262.85712"
       y="542.83838" />
    <rect
       style="fill:#ffffff;fill-opacity:1;stroke:#373737;stroke-width:0.69999999;stroke-miterlimit:4;stroke-opacity:1;stroke-dasharray:none"
       id="rect2985-3-8"
       width="222.85715"
       height="222.85715"
       x="262.85712"
       y="290.45743" />
    <rect
       style="fill:#ffffff;fill-opacity:1;stroke:#373737;stroke-width:0.69999999;stroke-miterlimit:4;stroke-opacity:1;stroke-dasharray:none"
       id="rect2985-3-9"
       width="222.85715"
       height="222.85715"
       x="262.85712"
       y="38.076469" />
    <rect
       style="fill:#ffffff;fill-opacity:1;stroke:#373737;stroke-width:0.69999999;stroke-miterlimit:4;stroke-opacity:1;stroke-dasharray:none"
       id="rect2985-3-1"
       width="222.85715"
       height="222.85715"
       x="17.142857"
       y="40.933609" />
    <rect
       style="fill:#ffffff;fill-opacity:1;stroke:#373737;stroke-width:0.69999999;stroke-miterlimit:4;stroke-opacity:1;stroke-dasharray:none"
       id="rect2985-3-2"
       width="222.85715"
       height="222.85715"
       x="17.142857"
       y="293.31451" />
    <rect
       style="fill:#ffffff;fill-opacity:1;stroke:#373737;stroke-width:0.69999999;stroke-miterlimit:4;stroke-opacity:1;stroke-dasharray:none"
       id="rect2985-3-4"
       width="222.85715"
       height="222.85715"
       x="17.142857"
       y="545.6955" />
    <path
       style="fill:none;stroke:#000000;stroke-width:1px;stroke-linecap:butt;stroke-linejoin:miter;stroke-opacity:1"
       d="m 27.031986,65.694702 1.762955,103.426728 c 0,0 6.422622,23.18538 9.990082,34.67146 2.204803,7.09876 1.767521,15.92769 7.051822,21.15547 4.095569,4.05177 10.762645,4.39662 16.454253,5.28886 8.127861,1.27416 24.681378,0 24.681378,0 0,0 -0.728681,-9.01525 1.762956,-12.34068 2.838476,-3.78833 12.928338,-5.87652 12.928338,-5.87652 l 98.72552,-5.28887 c 0,0 5.38701,-1.85487 7.63947,-3.52591 1.89437,-1.40538 4.70121,-5.28887 4.70121,-5.28887 l 0.58766,-96.3749 -19.98017,-21.155471 c 0,0 5.41322,-0.749764 4.70122,-2.350608 -3.44824,-7.752922 -11.75304,-14.103644 -11.75304,-14.103644 0,0 -7.30273,-2.966407 -11.16538,-3.525912 -10.66411,-1.544697 -32.32086,0.587652 -32.32086,0.587652 z"
       id="path4278"
       inkscape:connector-curvature="0"
       sodipodi:nodetypes="ccssscsccscccscscc" />
    <path
       style="fill:none;stroke:#000000;stroke-width:1px;stroke-linecap:butt;stroke-linejoin:miter;stroke-opacity:1"
       d="m 198.62633,81.561302 20.56782,22.330768 c 0,0 2.34487,4.97644 2.93825,7.63948 0.59795,2.68355 0.58766,8.22712 0.58766,8.22712 l -2.93826,98.72552 -131.046368,9.40243 c 0,0 -1.044068,-6.71939 0.587651,-9.40243 1.186993,-1.95178 3.752766,-2.68445 5.876519,-3.52591 4.286367,-1.69833 13.515988,-2.93826 13.515988,-2.93826 l 91.6737,-4.70122 c 0,0 5.90565,-2.11067 8.22712,-4.11356 1.81039,-1.56195 4.11356,-5.87652 4.11356,-5.87652 l 1.76296,-95.1996 -20.56781,-21.155469 z"
       id="path4280"
       inkscape:connector-curvature="0"
       sodipodi:nodetypes="ccscccssccscccc" />
    <path
       style="fill:none;stroke:#000000;stroke-width:1px;stroke-linecap:butt;stroke-linejoin:miter;stroke-opacity:1"
       d="m 27.619638,78.623043 c 0,0 7.932211,22.607947 11.753037,31.145547 1.145659,2.55997 4.956431,4.3712 7.639474,5.18804 4.744384,1.44441 14.691297,0.68848 14.691297,0.68848 0,0 106.818834,-4.68917 147.500614,-7.63947 1.57513,-0.11423 2.19499,-2.54199 2.35061,-4.11357 0.12208,-1.23285 -1.1753,-3.52591 -1.1753,-3.52591 L 188.63625,78.623043 c 0,0 1.04946,-5.693502 0,-8.227126 -0.95411,-2.303413 -5.28887,-5.288867 -5.28887,-5.288867 L 27.619638,71.571221 z"
       id="path4282"
       inkscape:connector-curvature="0"
       sodipodi:nodetypes="csscssccsccc" />
    <path
       style="fill:none;stroke:#000000;stroke-width:1px;stroke-linecap:butt;stroke-linejoin:miter;stroke-opacity:1"
       d="m 54.063972,79.210695 16.454252,27.619635 c 0,0 4.031628,3.33528 6.46417,4.11357 3.549687,1.13571 11.165386,0.58765 11.165386,0.58765 l 89.32308,-5.87652 c 0,0 4.79216,-0.54087 5.87652,-2.35061 0.9117,-1.52157 -0.58765,-5.288865 -0.58765,-5.288865 l -27.61964,-31.733201 0.58765,8.227126 z"
       id="path4284"
       inkscape:connector-curvature="0"
       sodipodi:nodetypes="ccsccscccc" />
    <path
       style="fill:none;stroke:#000000;stroke-width:1px;stroke-linecap:butt;stroke-linejoin:miter;stroke-opacity:1"
       d="m 155.14009,75.097132 0,11.165385 -81.095955,4.113563 -6.464171,5.876519 -2.350607,0 -9.40243,-17.629556 z"
       id="path4286"
       inkscape:connector-curvature="0" />
    <path
       style="fill:#fcfcfc;stroke:#696969;stroke-width:0.69999999000000002;stroke-linecap:butt;stroke-linejoin:miter;stroke-miterlimit:4;stroke-opacity:1;stroke-dasharray:none;fill-opacity:1"
       d="m 82.858913,102.12912 c 0,0 -3.083823,-5.464525 -5.288867,-7.639477 -1.030901,-1.016832 -2.158381,-2.365861 -3.60524,-2.423342 -2.540717,-0.100938 -6.648522,3.739794 -6.648522,3.739794 0,0 2.770866,-2.762027 4.570859,-2.908728 28.272967,-2.304278 85.184187,-6.23299 85.184187,-6.23299 l 7.47959,0 c 0,0 4.01626,0.06117 5.81745,0.831066 2.26765,0.969277 5.81746,4.570858 5.81746,4.570858 l 3.73979,3.739794 z"
       id="path4288"
       inkscape:connector-curvature="0"
       sodipodi:nodetypes="csscsccsccc" />
    <path
       style="fill:none;stroke:#4c4c4c;stroke-width:0.40000001;stroke-linecap:butt;stroke-linejoin:miter;stroke-miterlimit:4;stroke-opacity:1;stroke-dasharray:none"
       d="m 56.512436,116.16719 2.077663,70.64055 c 0,0 9.153304,0.76903 13.712577,0.41553 47.229894,-3.66198 138.787894,-11.21938 138.787894,-11.21938 l 0,13.71258 c 0,0 -93.68688,7.00735 -138.787894,9.14171 -4.736548,0.22415 -14.128109,-0.41553 -14.128109,-0.41553 l 0.415532,27.84069 z"
       id="path4798"
       inkscape:connector-curvature="0"
       sodipodi:nodetypes="ccsccsccc" />
    <path
       sodipodi:type="arc"
       style="fill:#fcfcfc;fill-opacity:1;stroke:#4c4c4c;stroke-width:0.40000001;stroke-miterlimit:4;stroke-opacity:1;stroke-dasharray:none"
       id="path4800"
       sodipodi:cx="135.46364"
       sodipodi:cy="148.7865"
       sodipodi:rx="15.374707"
       sodipodi:ry="8.9339514"
       d="m 120.58887,146.52677 a 15.374707,8.9339514 0 1 1 -0.46896,2.82661"
       sodipodi:start="3.3973071"
       sodipodi:end="9.3612828"
       sodipodi:open="true"
       transform="matrix(0.99713249,-0.07567561,0.07567561,0.99713249,-10.871016,10.679255)" />
    <rect
       style="fill:#fcfcfc;fill-opacity:1;stroke:#000000;stroke-width:1;stroke-miterlimit:4;stroke-opacity:1;stroke-dasharray:none"
       id="rect4802"
       width="159.56453"
       height="183.24988"
       x="279.65344"
       y="46.773247" />
    <flowRoot
       xml:space="preserve"
       id="flowRoot4804"
       style="font-size:12px;font-style:normal;font-variant:normal;font-weight:normal;font-stretch:normal;text-align:start;line-height:125%;letter-spacing:0px;word-spacing:0px;writing-mode:lr-tb;text-anchor:start;fill:#000000;fill-opacity:1;stroke:none;font-family:Sans;-inkscape-font-specification:Sans"
       transform="translate(2.0776631,27.425153)"><flowRegion
         id="flowRegion4806"><rect
           id="rect4808"
           width="104.71422"
           height="89.755043"
           x="288.37964"
           y="132.7885" /></flowRegion><flowPara
         id="flowPara4810">. Bullet one</flowPara><flowPara
         id="flowPara4812">. Bullet two</flowPara><flowPara
         id="flowPara4814">. And three</flowPara><flowPara
         id="flowPara4816">. Finally four</flowPara></flowRoot>    <rect
       style="fill:#fcfcfc;fill-opacity:1;stroke:#000000;stroke-width:1;stroke-miterlimit:4;stroke-opacity:1;stroke-dasharray:none"
       id="rect4834"
       width="72.302643"
       height="64.823097"
       x="359.02017"
       y="80.846916" />
    <flowRoot
       xml:space="preserve"
       id="flowRoot4836"
       style="font-size:12px;font-style:normal;font-variant:normal;font-weight:normal;font-stretch:normal;text-align:start;line-height:125%;letter-spacing:0px;word-spacing:0px;writing-mode:lr-tb;text-anchor:start;fill:none;fill-opacity:1;stroke:#626262;font-family:Sans;-inkscape-font-specification:Sans;stroke-opacity:1;stroke-width:0.5;stroke-miterlimit:4;stroke-dasharray:none"><flowRegion
         id="flowRegion4838"><rect
           id="rect4840"
           width="147.09857"
           height="30.333881"
           x="285.05539"
           y="50.097507"
           style="fill:none;stroke:#626262;stroke-opacity:1;stroke-width:0.5;stroke-miterlimit:4;stroke-dasharray:none" /></flowRegion><flowPara
         id="flowPara4842"
         style="-inkscape-font-specification:URW Chancery L Bold Italic;font-family:URW Chancery L;font-weight:bold;font-style:italic;font-stretch:normal;font-variant:normal;font-size:26px;text-anchor:middle;text-align:center;writing-mode:lr;line-height:100%;fill:none;stroke:#626262;stroke-opacity:1;stroke-width:0.5;stroke-miterlimit:4;stroke-dasharray:none">Heading</flowPara></flowRoot>    <flowRoot
       transform="matrix(1.0221881,0,0,1.0237658,-8.1533985,-1.34092)"
       xml:space="preserve"
       id="flowRoot4836-3"
       style="font-size:12px;font-style:normal;font-variant:normal;font-weight:normal;font-stretch:normal;text-align:start;line-height:125%;letter-spacing:0px;word-spacing:0px;writing-mode:lr-tb;text-anchor:start;fill:none;stroke:#000000;stroke-width:0.69999999;stroke-miterlimit:4;stroke-opacity:1;stroke-dasharray:none;font-family:Sans;-inkscape-font-specification:Sans"><flowRegion
         id="flowRegion4838-5"><rect
           id="rect4840-0"
           width="147.09857"
           height="30.333881"
           x="285.05539"
           y="50.097507"
           style="fill:none;stroke:#000000;stroke-width:0.69999999;stroke-miterlimit:4;stroke-opacity:1;stroke-dasharray:none" /></flowRegion><flowPara
         id="flowPara4842-1"
         style="font-size:26px;font-style:italic;font-variant:normal;font-weight:bold;font-stretch:normal;text-align:center;line-height:100%;writing-mode:lr-tb;text-anchor:middle;fill:none;stroke:#000000;stroke-width:0.69999999;stroke-miterlimit:4;stroke-opacity:1;stroke-dasharray:none;font-family:URW Chancery L;-inkscape-font-specification:URW Chancery L Bold Italic">Heading</flowPara></flowRoot>    <path
       sodipodi:type="arc"
       style="fill:#fcfcfc;stroke:#626262;stroke-width:0.69999999000000002;stroke-miterlimit:4;stroke-opacity:1;stroke-dasharray:none;fill-opacity:1"
       id="path4871"
       sodipodi:cx="357.14542"
       sodipodi:cy="140.76723"
       sodipodi:rx="58.030621"
       sodipodi:ry="55.973843"
       d="m 301.00179,126.60939 a 58.030621,55.973843 0 1 1 -0.85117,3.62928"
       sodipodi:start="3.3973071"
       sodipodi:end="9.6140029"
       sodipodi:open="true"
       transform="matrix(0.89685634,0,0,0.89307137,30.814139,9.0286156)" />
    <path
       sodipodi:type="arc"
       style="fill:none;stroke:#626262;stroke-width:0.69999999;stroke-miterlimit:4;stroke-opacity:1;stroke-dasharray:none"
       id="path4871-0"
       sodipodi:cx="357.14542"
       sodipodi:cy="140.76723"
       sodipodi:rx="58.030621"
       sodipodi:ry="55.973843"
       d="m 301.00179,126.60939 a 58.030621,55.973843 0 1 1 -0.85117,3.62928"
       sodipodi:start="3.3973071"
       sodipodi:end="9.6140029"
       sodipodi:open="true"
       transform="matrix(0.8062912,0,0,0.79918284,62.568911,22.245043)" />
    <path
       style="fill:none;stroke:#545454;stroke-width:0.60000002;stroke-linecap:butt;stroke-linejoin:miter;stroke-miterlimit:4;stroke-opacity:1;stroke-dasharray:none"
       d="m 384.61815,172.94117 c 0,0 19.16045,21.87384 31.14554,27.61963 1.5424,0.73944 3.73199,-0.0219 4.99505,-1.1753 1.14352,-1.04428 2.09754,-2.99203 1.46912,-4.40739 -4.98728,-11.2327 -32.32085,-27.32581 -32.32085,-27.32581 z"
       id="path4891"
       inkscape:connector-curvature="0"
       sodipodi:nodetypes="cssscc" />
    <path
       style="fill:none;stroke:#000000;stroke-width:1px;stroke-linecap:butt;stroke-linejoin:miter;stroke-opacity:1"
       d="m 550.16519,128.63317 c 1.98303,-1.43965 5.40192,-4.98639 5.40192,-4.98639 l 8.31065,1.2466 c 0,0 6.3078,1.96336 9.55725,2.49319 6.02901,0.98304 18.28344,1.2466 18.28344,1.2466 0,0 7.01524,2.76953 9.55725,5.40193 2.71119,2.80759 4.47509,6.597 5.40192,10.38831 0.29603,1.21094 0,3.73979 0,3.73979 0,0 22.89339,36.04173 36.56687,52.35711 3.523,4.20369 11.63492,11.63492 11.63492,11.63492 0,0 8.42191,7.67889 12.88151,11.21938 2.40866,1.91225 7.47959,5.40192 7.47959,5.40192 l -36.15134,-68.14735 -25.76303,-17.45237 87.67739,58.17457 2.90873,0.83107 c 0,0 -8.19685,-13.54086 -13.71258,-19.11451 -5.43686,-5.49395 -18.69897,-13.71257 -18.69897,-13.71257 L 641.9979,145.25448 c 0,0 -15.65315,-14.0363 -22.43877,-22.02323 -4.82699,-5.68154 -12.88151,-18.28344 -12.88151,-18.28344 0,0 -6.18927,-3.73681 -9.14171,-5.817454 -1.29092,-0.909735 -3.7398,-2.908728 -3.7398,-2.908728 0,0 1.81505,-10.062991 0.83107,-14.959175 -1.06189,-5.283832 -4.20023,-9.978012 -7.06406,-14.543641 -3.56339,-5.680891 -7.37617,-11.423996 -12.46598,-15.79024 -3.62505,-3.10971 -7.88222,-5.722244 -12.46597,-7.064054 -4.92568,-1.441902 -10.34961,-1.874962 -15.37471,-0.831066 -3.03246,0.629951 -6.09529,1.990887 -8.31065,4.155327 -1.90573,1.861922 -3.70882,4.399923 -3.7398,7.064054 -0.054,4.645482 3.69973,8.571624 6.23299,12.465979 3.91651,6.020807 8.70331,11.473837 13.71258,16.621304 4.99808,5.135968 10.55487,9.720583 16.20577,14.128109 3.06005,2.386743 6.20738,4.689235 9.55725,6.648525 4.11751,2.40828 12.88151,6.23299 12.88151,6.23299 0,0 -12.32213,6.99864 -19.1145,7.06405 -6.74561,0.065 -19.1145,-6.64852 -19.1145,-6.64852 l -5.40192,-5.40192 -3.7398,-8.310657 -12.05044,1.66213 c 0,0 -5.34409,-4.887736 -8.72619,-5.401924 -4.38413,-0.666528 -9.48207,0.476685 -12.88151,3.324261 -4.08623,3.42287 -6.59354,3.39605 -6.64852,14.54364 -0.0275,5.58348 2.87661,11.25783 6.64852,15.37471 3.93549,4.29542 9.70233,6.98294 15.37471,8.31065 3.77865,0.88445 7.89795,0.63116 11.63491,-0.41553 3.82169,-1.07042 7.17667,-3.48585 10.38832,-5.81746 z"
       id="path4958"
       inkscape:connector-curvature="0"
       sodipodi:nodetypes="sccscsscscscccccsccscscssssssssssscsccccsssssss" />
    <path
       style="fill:none;stroke:#000000;stroke-width:1px;stroke-linecap:butt;stroke-linejoin:miter;stroke-opacity:1"
       d="m 521.49344,104.11675 c 5.60083,-0.36451 11.42634,1.6282 16.20577,4.57086 3.8401,2.36432 8.07921,5.59015 9.14172,9.97278 0.74419,3.06961 -0.19032,6.97999 -2.4932,9.14172 -3.5056,3.29074 -9.3799,3.66549 -14.12811,2.90872 -5.51396,-0.87881 -10.70654,-4.25446 -14.54364,-8.31065 -1.70275,-1.79998 -3.18202,-4.17485 -3.32426,-6.64852 -0.18614,-3.23711 1.09673,-6.78553 3.32426,-9.14172 1.44937,-1.53308 3.71218,-2.35617 5.81746,-2.49319 z"
       id="path4960"
       inkscape:connector-curvature="0"
       sodipodi:nodetypes="sssssssss" />
    <path
       style="fill:none;stroke:#000000;stroke-width:1px;stroke-linecap:butt;stroke-linejoin:miter;stroke-opacity:1"
       d="m 563.0467,73.782866 c -4.46278,-5.724188 -14.54364,-16.205772 -14.54364,-16.205772 0,0 -2.36813,-3.209331 -2.07767,-4.986391 0.47503,-2.906216 3.04462,-5.657018 5.81746,-6.648522 2.38001,-0.851035 5.15161,0.262105 7.47959,1.246598 6.02163,2.546525 11.42368,6.76892 15.79024,11.634913 5.88648,6.559757 11.98991,14.138072 13.29704,22.854294 0.63282,4.219758 -0.26507,9.116665 -2.90873,12.465978 -1.15135,1.458676 -3.13558,2.660083 -4.98639,2.493196 -2.06927,-0.186586 -3.55482,-2.234041 -4.98639,-3.739793 -5.29402,-5.568342 -8.15741,-13.055132 -12.88151,-19.114501 z"
       id="path4962"
       inkscape:connector-curvature="0"
       sodipodi:nodetypes="scsssssssss" />
    <path
       style="fill:none;stroke:#000000;stroke-width:1px;stroke-linecap:butt;stroke-linejoin:miter;stroke-opacity:1"
       d="m 42.384327,488.89995 137.125763,-0.41553 0,-154.99367 -17.03684,-15.79024 -120.919988,1.2466 z"
       id="path4964"
       inkscape:connector-curvature="0"
       sodipodi:nodetypes="cccccc" />
    <path
       style="fill:none;stroke:#000000;stroke-width:1px;stroke-linecap:butt;stroke-linejoin:miter;stroke-opacity:1"
       d="m 57.759034,318.11605 -0.415533,-18.28344 158.317929,0.41553 0.41553,180.34116 -36.56687,-0.83107 0,-147.09854 -16.6213,-15.37471 z"
       id="path4966"
       inkscape:connector-curvature="0" />
    <path
       style="fill:none;stroke:#000000;stroke-width:1px;stroke-linecap:butt;stroke-linejoin:miter;stroke-opacity:1"
       d="m 309.69254,477.051 115.76742,0 c 0,0 3.23208,0.0979 4.40738,-0.88148 1.1753,-0.97942 2.64444,-4.99504 2.64444,-4.99504 l -0.58765,-162.77957 c 0,0 -1.25373,-2.6359 -2.35061,-3.52591 -0.81914,-0.66465 -2.93826,-1.17531 -2.93826,-1.17531 l -49.95041,0.58766 -1.76295,-9.99009 -12.92834,0 -2.35061,9.40243 -51.71337,0 c 0,0 -3.44121,0.16457 -4.70121,1.17531 -1.025,0.82222 -1.76296,3.52591 -1.76296,3.52591 l 1.1753,162.77957 c 0,0 1.10884,4.06514 2.64445,4.70121 1.26681,0.52473 4.40738,1.17531 4.40738,1.17531 z"
       id="path3117"
       inkscape:connector-curvature="0"
       sodipodi:nodetypes="ccsccsccccccsccsc" />
    <rect
       style="fill:none;fill-opacity:1;stroke:#9a9a9a;stroke-width:0.6;stroke-miterlimit:4;stroke-opacity:1;stroke-dasharray:none"
       id="rect3119"
       width="116.35509"
       height="150.43887"
       x="306.75427"
       y="318.38498" />
    <path
       style="fill:none;stroke:#000000;stroke-width:0.69999999999999996;stroke-linecap:butt;stroke-linejoin:round;stroke-opacity:1;stroke-miterlimit:4;stroke-dasharray:none"
       d="m 394.90206,321.32325 -54.65163,0.29383 9.40244,-5.5827 c 0,0 2.01091,-4.16679 3.52591,-5.87652 1.4812,-1.67158 5.28886,-4.11356 5.28886,-4.11356 l 3.52592,-11.75304 13.51599,0 0.58765,11.16539 c 0,0 4.4557,3.36094 6.46417,5.28887 1.70166,1.63343 4.70122,5.28886 4.70122,5.28886 z"
       id="path3889"
       inkscape:connector-curvature="0"
       sodipodi:nodetypes="cccsccccscc" />
    <path
       sodipodi:type="arc"
       style="fill:none;stroke:#9a9a9a;stroke-width:0.69999999;stroke-linejoin:round;stroke-miterlimit:4;stroke-opacity:1;stroke-dasharray:none"
       id="path3891"
       sodipodi:cx="609.17084"
       sodipodi:cy="378.99155"
       sodipodi:rx="51.110512"
       sodipodi:ry="55.058071"
       d="m 559.72229,365.06534 a 51.110512,55.058071 0 1 1 -0.74966,3.56991"
       sodipodi:start="3.3973071"
       sodipodi:end="9.6140029"
       sodipodi:open="true"
       transform="matrix(1.1982661,0,0,1.0633169,-147.58029,-14.231538)" />
    <path
       sodipodi:type="arc"
       style="fill:none;stroke:#0d0d0d;stroke-width:0.69999999000000002;stroke-linejoin:round;stroke-miterlimit:4;stroke-opacity:1;stroke-dasharray:none"
       id="path3893"
       sodipodi:cx="610.41742"
       sodipodi:cy="383.56241"
       sodipodi:rx="69.393951"
       sodipodi:ry="69.18618"
       d="m 543.27996,366.06269 a 69.393951,69.18618 0 1 1 -1.01783,4.48596"
       sodipodi:start="3.3973071"
       sodipodi:end="9.6140029"
       sodipodi:open="true"
       transform="matrix(0.99408104,0,0,0.9790522,-24.643162,11.98235)" />
    <path
       style="fill:none;stroke:#000000;stroke-width:0.60000002;stroke-linecap:butt;stroke-linejoin:miter;stroke-miterlimit:4;stroke-opacity:1;stroke-dasharray:none"
       d="m 627.45427,439.45156 c 0,0 27.92618,30.3605 41.13773,38.229 7.68288,4.57575 25.76302,9.55725 25.76302,9.55725 0,0 4.40351,-0.58077 5.81746,-2.07766 1.6854,-1.78426 2.07766,-7.06405 2.07766,-7.06405 0,0 -6.67952,-9.74029 -12.46598,-15.37472 -11.50891,-11.20654 -50.69498,-36.56686 -50.69498,-36.56686 0,0 -3.80625,4.77061 -5.81746,7.06405 -1.87382,2.13677 -5.81745,6.23299 -5.81745,6.23299 z"
       id="path3895"
       inkscape:connector-curvature="0"
       sodipodi:nodetypes="cscscscsc" />
    <path
       style="fill:none;stroke:#8c8c8c;stroke-width:0.50000000000000000;stroke-linecap:butt;stroke-linejoin:miter;stroke-opacity:1;stroke-miterlimit:4;stroke-dasharray:none"
       d="m 599.61358,438.20496 c 0,0 -36.04732,3.63026 -50.27945,-5.40192 -19.09345,-12.11733 -24.93196,-41.9688 -24.93196,-41.9688 0,0 18.37705,27.15273 32.82708,32.41155 17.27132,6.28557 42.38433,14.95917 42.38433,14.95917 z"
       id="path3897"
       inkscape:connector-curvature="0"
       sodipodi:nodetypes="cscsc" />
    <path
       sodipodi:type="arc"
       style="fill:none;stroke:#9a9a9a;stroke-width:0.69999999;stroke-linejoin:round;stroke-miterlimit:4;stroke-opacity:1;stroke-dasharray:none"
       id="path3891-8"
       sodipodi:cx="609.17084"
       sodipodi:cy="378.99155"
       sodipodi:rx="51.110512"
       sodipodi:ry="55.058071"
       d="m 559.72229,365.06534 a 51.110512,55.058071 0 1 1 -0.74966,3.56991"
       sodipodi:start="3.3973071"
       sodipodi:end="9.6140029"
       sodipodi:open="true"
       transform="matrix(1.1982661,0,0,1.0633169,-632.26892,229.51181)" />
    <path
       sodipodi:type="arc"
       style="fill:none;stroke:#0d0d0d;stroke-width:0.69999999;stroke-linejoin:round;stroke-miterlimit:4;stroke-opacity:1;stroke-dasharray:none"
       id="path3893-9"
       sodipodi:cx="610.41742"
       sodipodi:cy="383.56241"
       sodipodi:rx="69.393951"
       sodipodi:ry="69.18618"
       d="m 543.27996,366.06269 a 69.393951,69.18618 0 1 1 -1.01783,4.48596"
       sodipodi:start="3.3973071"
       sodipodi:end="9.6140029"
       sodipodi:open="true"
       transform="matrix(0.99408104,0,0,0.9790522,-509.33179,255.72569)" />
    <path
       style="fill:none;stroke:#000000;stroke-width:0.60000002;stroke-linecap:butt;stroke-linejoin:miter;stroke-miterlimit:4;stroke-opacity:1;stroke-dasharray:none"
       d="m 142.76564,683.1949 c 0,0 27.92618,30.3605 41.13773,38.229 7.68288,4.57575 25.76302,9.55725 25.76302,9.55725 0,0 4.40351,-0.58077 5.81746,-2.07766 1.6854,-1.78426 2.07766,-7.06405 2.07766,-7.06405 0,0 -6.67952,-9.74029 -12.46598,-15.37472 -11.50891,-11.20654 -50.69498,-36.56686 -50.69498,-36.56686 0,0 -3.80625,4.77061 -5.81746,7.06405 -1.87382,2.13677 -5.81745,6.23299 -5.81745,6.23299 z"
       id="path3895-1"
       inkscape:connector-curvature="0"
       sodipodi:nodetypes="cscscscsc" />
    <path
       style="fill:none;stroke:#8c8c8c;stroke-width:0.5;stroke-linecap:butt;stroke-linejoin:miter;stroke-miterlimit:4;stroke-opacity:1;stroke-dasharray:none"
       d="m 114.92495,681.9483 c 0,0 -36.047316,3.63026 -50.279446,-5.40192 -19.09345,-12.11733 -24.93196,-41.9688 -24.93196,-41.9688 0,0 18.37705,27.15273 32.82708,32.41155 17.27132,6.28557 42.384326,14.95917 42.384326,14.95917 z"
       id="path3897-3"
       inkscape:connector-curvature="0"
       sodipodi:nodetypes="cscsc" />
    <path
       sodipodi:type="arc"
       style="fill:none;stroke:#9a9a9a;stroke-width:0.69999999;stroke-linejoin:round;stroke-miterlimit:4;stroke-opacity:1;stroke-dasharray:none"
       id="path3891-4"
       sodipodi:cx="609.17084"
       sodipodi:cy="378.99155"
       sodipodi:rx="51.110512"
       sodipodi:ry="55.058071"
       d="m 559.72229,365.06534 a 51.110512,55.058071 0 1 1 -0.74966,3.56991"
       sodipodi:start="3.3973071"
       sodipodi:end="9.6140029"
       sodipodi:open="true"
       transform="matrix(1.1982661,0,0,1.0633169,-380.45614,232.00501)" />
    <path
       sodipodi:type="arc"
       style="fill:none;stroke:#0d0d0d;stroke-width:0.69999999;stroke-linejoin:round;stroke-miterlimit:4;stroke-opacity:1;stroke-dasharray:none"
       id="path3893-4"
       sodipodi:cx="610.41742"
       sodipodi:cy="383.56241"
       sodipodi:rx="69.393951"
       sodipodi:ry="69.18618"
       d="m 543.27996,366.06269 a 69.393951,69.18618 0 1 1 -1.01783,4.48596"
       sodipodi:start="3.3973071"
       sodipodi:end="9.6140029"
       sodipodi:open="true"
       transform="matrix(0.99408104,0,0,0.9790522,-257.51901,258.21889)" />
    <path
       style="fill:none;stroke:#000000;stroke-width:0.60000002;stroke-linecap:butt;stroke-linejoin:miter;stroke-miterlimit:4;stroke-opacity:1;stroke-dasharray:none"
       d="m 394.57842,685.6881 c 0,0 27.92618,30.3605 41.13773,38.229 7.68288,4.57575 25.76302,9.55725 25.76302,9.55725 0,0 4.40351,-0.58077 5.81746,-2.07766 1.6854,-1.78426 2.07766,-7.06405 2.07766,-7.06405 0,0 -6.67952,-9.74029 -12.46598,-15.37472 -11.50891,-11.20654 -50.69498,-36.56686 -50.69498,-36.56686 0,0 -3.80625,4.77061 -5.81746,7.06405 -1.87382,2.13677 -5.81745,6.23299 -5.81745,6.23299 z"
       id="path3895-4"
       inkscape:connector-curvature="0"
       sodipodi:nodetypes="cscscscsc" />
    <path
       style="fill:none;stroke:#8c8c8c;stroke-width:0.5;stroke-linecap:butt;stroke-linejoin:miter;stroke-miterlimit:4;stroke-opacity:1;stroke-dasharray:none"
       d="m 366.73773,684.4415 c 0,0 -36.04732,3.63026 -50.27945,-5.40192 -19.09345,-12.11733 -24.93196,-41.9688 -24.93196,-41.9688 0,0 18.37705,27.15273 32.82708,32.41155 17.27132,6.28557 42.38433,14.95917 42.38433,14.95917 z"
       id="path3897-5"
       inkscape:connector-curvature="0"
       sodipodi:nodetypes="cscsc" />
    <flowRoot
       xml:space="preserve"
       id="flowRoot3952"
       style="font-size:60px;font-style:normal;font-variant:normal;font-weight:normal;font-stretch:normal;text-align:start;line-height:125%;letter-spacing:0px;word-spacing:0px;writing-mode:lr-tb;text-anchor:start;fill:none;fill-opacity:1;stroke:#787878;font-family:Sans;-inkscape-font-specification:Sans;stroke-opacity:1;stroke-width:0.33355554999999998;stroke-miterlimit:4;stroke-dasharray:none"
       transform="matrix(2.4161386,0,0,2.3807938,-833.63836,-540.20183)"><flowRegion
         id="flowRegion3954"><rect
           id="rect3956"
           width="67.731819"
           height="76.042473"
           x="559.72247"
           y="348.86545"
           style="font-size:60px;font-style:normal;font-variant:normal;font-weight:normal;font-stretch:normal;text-align:start;line-height:125%;writing-mode:lr-tb;text-anchor:start;font-family:Sans;-inkscape-font-specification:Sans;stroke:#787878;stroke-opacity:1;stroke-width:0.33355554999999998;stroke-miterlimit:4;stroke-dasharray:none;fill:none" /></flowRegion><flowPara
         id="flowPara3958"
         style="font-size:60px;font-style:normal;font-variant:normal;font-weight:normal;font-stretch:normal;text-align:start;line-height:125%;writing-mode:lr-tb;text-anchor:start;font-family:Sans;-inkscape-font-specification:Sans;stroke:#787878;stroke-opacity:1;stroke-width:0.33355554999999998;stroke-miterlimit:4;stroke-dasharray:none;fill:none">+</flowPara></flowRoot>    <flowRoot
       xml:space="preserve"
       id="flowRoot3960"
       style="font-size:40px;font-style:normal;font-variant:normal;font-weight:normal;font-stretch:normal;text-align:start;line-height:125%;letter-spacing:0px;word-spacing:0px;writing-mode:lr-tb;text-anchor:start;fill:none;fill-opacity:1;stroke:#787878;font-family:Sans;-inkscape-font-specification:Sans;stroke-opacity:1;stroke-width:0.0855143;stroke-miterlimit:4;stroke-dasharray:none"
       transform="matrix(8.3022728,0,0,5.9296358,-412.13744,-3175.14)"><flowRegion
         id="flowRegion3962"><rect
           id="rect3964"
           width="86.846329"
           height="51.941566"
           x="54.019241"
           y="613.14423"
           style="font-size:40px;font-style:normal;font-variant:normal;font-weight:normal;font-stretch:normal;text-align:start;line-height:125%;writing-mode:lr-tb;text-anchor:start;font-family:Sans;-inkscape-font-specification:Sans;fill:none;stroke:#787878;stroke-opacity:1;stroke-width:0.0855143;stroke-miterlimit:4;stroke-dasharray:none" /></flowRegion><flowPara
         id="flowPara3966"
         style="font-size:40px;font-style:normal;font-variant:normal;font-weight:normal;font-stretch:normal;text-align:start;line-height:125%;writing-mode:lr-tb;text-anchor:start;font-family:Sans;-inkscape-font-specification:Sans;fill:none;stroke:#787878;stroke-opacity:1;stroke-width:0.0855143;stroke-miterlimit:4;stroke-dasharray:none">-</flowPara></flowRoot>    <flowRoot
       xml:space="preserve"
       id="flowRoot3968"
       style="font-size:12px;font-style:normal;font-variant:normal;font-weight:normal;font-stretch:normal;text-align:start;line-height:125%;letter-spacing:0px;word-spacing:0px;writing-mode:lr-tb;text-anchor:start;fill:none;fill-opacity:1;stroke:#787878;font-family:Sans;-inkscape-font-specification:Sans;stroke-opacity:1;stroke-width:0.33852351;stroke-miterlimit:4;stroke-dasharray:none"
       transform="matrix(1.6394812,0,0,1.916101,-201.28578,-562.79097)"><flowRegion
         id="flowRegion3970"><rect
           id="rect3972"
           width="93.079308"
           height="61.083298"
           x="305.41647"
           y="599.01611"
           style="fill:none;stroke:#787878;stroke-opacity:1;stroke-width:0.33852351;stroke-miterlimit:4;stroke-dasharray:none" /></flowRegion><flowPara
         id="flowPara3974"
         style="font-size:44px;font-style:normal;font-variant:normal;font-weight:bold;font-stretch:normal;text-align:start;line-height:125%;writing-mode:lr-tb;text-anchor:start;font-family:Nimbus Roman No9 L;-inkscape-font-specification:Nimbus Roman No9 L Bold;fill:none;stroke:#787878;stroke-opacity:1;stroke-width:0.33852351;stroke-miterlimit:4;stroke-dasharray:none">1:1</flowPara></flowRoot>    <path
       style="fill:none;stroke:#1f031d;stroke-width:1px;stroke-linecap:butt;stroke-linejoin:miter;stroke-opacity:1"
       d="m 573.40563,667.03468 18.94745,21.571 9.99008,14.10364 c 0,0 2.81109,16.3858 -20.56781,28.79494 -20.86278,11.07362 -32.32086,0.58766 -32.32086,0.58766 l -5.87652,-8.22713 -11.75303,-47.5998 c 0,0 -4.43117,-6.00083 -5.87652,-9.40243 -1.57922,-3.71666 -1.17082,-8.12211 -2.93826,-11.75304 -0.97751,-2.00814 -3.38873,-3.17633 -4.11356,-5.28886 -1.20786,-3.52035 0.62356,-7.4962 0,-11.16539 -0.69543,-4.09204 -4.11357,-11.75304 -4.11357,-11.75304 0,0 3.31849,-5.62977 5.28887,-8.22712 2.85118,-3.75842 9.40243,-10.57774 9.40243,-10.57774 l -7.98089,-20.71619 c 0,0 7.2594,-10.75253 12.88151,-13.29704 5.17988,-2.34436 17.03683,-0.83107 17.03683,-0.83107 l 8.31066,7.89512 c 0,0 2.74271,-4.16228 4.57086,-5.81745 1.33877,-1.2121 4.57085,-2.90873 4.57085,-2.90873 l 4.9864,-1.2466 -2.4932,-2.90873 c 0,0 6.99654,-9.6625 12.05045,-12.46598 8.29729,-4.60264 16.20577,0 16.20577,0 l 11.63491,14.54365 2.4932,4.15532 c 0,0 3.73552,-2.1518 5.81745,-2.49319 3.42805,-0.56212 10.38832,0.83106 10.38832,0.83106 0,0 6.7144,3.09768 9.55725,5.40192 2.43954,1.97734 6.23299,7.06406 6.23299,7.06406 0,0 5.11182,2.04144 6.64852,4.15533 1.34322,1.84774 0.28787,4.82375 1.66213,6.64852 1.8294,2.42912 5.81159,2.35587 7.89512,4.57086 3.81974,4.06075 7.47959,14.95917 7.47959,14.95917 l 2.49319,4.98639 29.50282,31.58048 4.98639,8.31065 c 0,0 5.46146,13.97631 -17.8679,27.42516 -25.09303,14.46557 -31.16495,2.49319 -31.16495,2.49319 l -7.06405,-10.38831 -12.05045,-38.229 -9.14172,4.98639 c 0,0 -8.33381,4.97867 -11.63491,1.66213 -1.65825,-1.666 -3.58989,-3.09559 -4.98639,-4.98639 -1.58287,-2.14315 -3.73979,-7.06406 -3.73979,-7.06406 0,0 -4.31606,1.95682 -6.23299,3.32426 -4.48401,3.19867 -8.72619,0 -8.72619,0 0,0 -3.29757,2.03321 -3.73979,3.7398 -0.50588,1.95227 1.66213,5.81745 1.66213,5.81745 0,0 1.26625,7.72523 -4.15533,12.05045 -3.97571,3.17174 -14.15749,5.68869 -14.15749,5.68869 z"
       id="path4022"
       inkscape:connector-curvature="0"
       sodipodi:nodetypes="cccscccsssscsccsccscccscccscscsssccccsccccsscscscsc" />
    <path
       style="fill:none;stroke:#494949;stroke-width:0.69999999;stroke-linecap:butt;stroke-linejoin:miter;stroke-miterlimit:4;stroke-opacity:1;stroke-dasharray:none"
       d="m 531.46622,673.39643 c 0,0 2.43957,-7.51304 4.98639,-10.38831 3.92343,-4.42942 10.10644,-6.17138 14.95917,-9.55725 3.56692,-2.48873 6.30078,-6.40895 10.38832,-7.89512 5.47349,-1.99009 11.66889,-1.51732 17.45237,-0.83107 3.43865,0.40802 9.97278,2.90873 9.97278,2.90873 l 2.90873,2.4932 -2.90873,-6.64852 c 0,0 -7.37579,-2.66041 -11.21938,-3.32426 -5.0575,-0.87351 -10.40903,-2.12854 -15.3747,-0.83107 -6.50613,1.69997 -11.5033,6.98291 -17.03684,10.80385 -3.98925,2.7546 -8.50137,5.02715 -11.63492,8.72618 -2.72295,3.21433 -5.81745,11.21938 -5.81745,11.21938 z"
       id="path4024"
       inkscape:connector-curvature="0"
       sodipodi:nodetypes="csssscccsssscc" />
    <path
       style="fill:none;stroke:#444444;stroke-width:0.69999999;stroke-linecap:butt;stroke-linejoin:miter;stroke-miterlimit:4;stroke-opacity:1;stroke-dasharray:none"
       d="m 669.42305,616.884 c 0,0 -3.6351,-2.84942 -5.81746,-3.32426 -2.98985,-0.65054 -6.0879,0.63975 -9.14172,0.83106 -4.01134,0.2513 -8.31726,-1.07353 -12.05044,0.41554 -10.48115,4.18068 -25.34749,22.43876 -25.34749,22.43876 0,0 -1.96613,2.62843 -2.4932,4.15532 -0.36438,1.05559 -0.41553,3.32426 -0.41553,3.32426 l -4.15533,-7.06405 c 0,0 10.75485,-12.55183 17.03684,-17.8679 3.95899,-3.35025 8.01787,-6.92542 12.88151,-8.72619 4.57586,-1.69422 9.68313,-1.23278 14.54364,-1.66213 2.21189,-0.19538 4.45862,-0.78285 6.64853,-0.41553 1.77583,0.29787 4.98639,2.07766 4.98639,2.07766 z"
       id="path4026"
       inkscape:connector-curvature="0"
       sodipodi:nodetypes="cssscsccsssscc" />
    <path
       style="fill:none;stroke:#606060;stroke-width:0.5;stroke-linecap:butt;stroke-linejoin:miter;stroke-opacity:1;stroke-miterlimit:4;stroke-dasharray:none"
       d="m 555.15158,729.90887 c -4.27555,-7.77658 7.35073,-17.45518 14.95917,-22.02323 7.76348,-4.66113 22.35706,-8.28102 27.00962,-2.90873 5.43575,6.27663 -7.09144,19.39011 -15.3747,24.1009 -7.70947,4.38447 -22.32115,8.6029 -26.59409,0.83106 z"
       id="path4032"
       inkscape:connector-curvature="0"
       sodipodi:nodetypes="sssss" />
    <path
       style="fill:none;stroke:#4f4f4f;stroke-width:0.50000000000000000;stroke-linecap:butt;stroke-linejoin:miter;stroke-opacity:1;stroke-miterlimit:4;stroke-dasharray:none"
       d="m 662.35899,688.77114 c -4.84164,-7.3452 7.17993,-17.20982 14.54365,-22.02323 6.82368,-4.4604 19.53195,-10.9068 24.10089,-4.15532 4.73985,7.00403 -6.31126,16.841 -13.29705,21.60769 -7.0918,4.83903 -20.62248,11.73913 -25.34749,4.57086 z"
       id="path4034"
       inkscape:connector-curvature="0"
       sodipodi:nodetypes="sssss" />
    <path
       style="fill:none;stroke:#494949;stroke-width:0.7;stroke-linecap:butt;stroke-linejoin:miter;stroke-opacity:1;stroke-miterlimit:4;stroke-dasharray:none"
       d="m 592.13398,639.32276 -3.73979,4.15533 -17.03684,-4.9864 25.76302,-13.71257 2.07767,1.2466 c 0,0 -5.80371,4.59634 -7.06406,7.89512 -0.64265,1.68205 0,5.40192 0,5.40192 z"
       id="path4036"
       inkscape:connector-curvature="0"
       sodipodi:nodetypes="cccccsc" />
    <path
       style="fill:none;stroke:#4d4d4d;stroke-width:0.59999999999999998;stroke-linecap:butt;stroke-linejoin:miter;stroke-opacity:1;stroke-miterlimit:4;stroke-dasharray:none"
       d="m 629.11638,617.29953 -13.71257,12.88151 -4.98639,-4.98639 -7.47959,-2.90873 z"
       id="path4038"
       inkscape:connector-curvature="0" />
    <path
       style="fill:none;stroke:#000000;stroke-width:1px;stroke-linecap:butt;stroke-linejoin:miter;stroke-opacity:1"
       d="m 610.00189,613.1442 c 0,0 -11.87392,-1.64245 -16.20578,0.83107 -7.2724,4.1526 -13.29704,12.05045 -13.29704,12.05045 l -7.89512,-11.63492 c 0,0 -2.40152,-11.73133 12.88151,-19.1145 4.51754,-2.1824 14.95917,1.66213 14.95917,1.66213 z"
       id="path4040"
       inkscape:connector-curvature="0"
       sodipodi:nodetypes="csccscc" />
    <path
       style="fill:none;stroke:#000000;stroke-width:1px;stroke-linecap:butt;stroke-linejoin:miter;stroke-opacity:1"
       d="m 42.79986,947.23243 69.39395,-0.41553 -0.41554,39.06006 92.24825,-92.66377 -93.49484,-81.02886 0.41553,42.79986 -68.14735,0 z"
       id="path4042"
       inkscape:connector-curvature="0" />
    <flowRoot
       xml:space="preserve"
       id="flowRoot4044"
       style="font-size:12px;font-style:normal;font-variant:normal;font-weight:normal;font-stretch:normal;text-align:start;line-height:125%;letter-spacing:0px;word-spacing:0px;writing-mode:lr-tb;text-anchor:start;fill:none;stroke:#1f031d;stroke-width:0.50476593;stroke-miterlimit:4;stroke-opacity:1;stroke-dasharray:none;font-family:Sans;-inkscape-font-specification:Sans"
       transform="matrix(2.0029703,0,0,1.9595009,-297.7584,-863.19864)"><flowRegion
         id="flowRegion4046"><rect
           id="rect4048"
           width="176.18584"
           height="175.35477"
           x="285.05539"
           y="825.06586"
           style="fill:none;stroke:#1f031d;stroke-width:0.50476593;stroke-miterlimit:4;stroke-opacity:1;stroke-dasharray:none" /></flowRegion><flowPara
         id="flowPara4050"
         style="font-size:120px;font-style:normal;font-variant:normal;font-weight:bold;font-stretch:normal;text-align:start;line-height:125%;writing-mode:lr-tb;text-anchor:start;fill:none;stroke:#1f031d;stroke-width:0.50476593;stroke-miterlimit:4;stroke-opacity:1;stroke-dasharray:none;font-family:Sans;-inkscape-font-specification:Sans Bold">X</flowPara></flowRoot>    <path
       sodipodi:type="arc"
       style="fill:none;stroke:#1f031d;stroke-width:1;stroke-linejoin:round;stroke-miterlimit:4;stroke-opacity:1;stroke-dasharray:none"
       id="path4114"
       sodipodi:cx="601.65015"
       sodipodi:cy="908.5827"
       sodipodi:rx="42.704269"
       sodipodi:ry="39.672016"
       d="m 560.3345,898.54819 a 42.704269,39.672016 0 1 1 -0.62637,2.5723"
       sodipodi:start="3.3973071"
       sodipodi:end="9.6140029"
       sodipodi:open="true"
       transform="matrix(1.0474795,0,0,0.93011652,-22.501634,59.199223)" />
    <path
       style="fill:none;stroke:#000000;stroke-width:1px;stroke-linecap:butt;stroke-linejoin:miter;stroke-opacity:1"
       d="m 559.45122,902.77088 c -4.99871,-21.82733 27.6591,-43.9357 48.5161,-43.46233 22.03152,0.50003 50.49173,19.45273 46.49459,48.01072 -2.71363,19.38776 -28.94933,33.98008 -48.51609,33.35481 -10.20046,-0.32596 -20.45144,-4.7778 -29.69861,-11.59351 -11.71284,-8.63306 -14.86035,-17.85753 -16.79599,-26.30969 z"
       id="path4116"
       inkscape:connector-curvature="0"
       sodipodi:nodetypes="ssssss" />
    <path
       style="fill:none;stroke:#000000;stroke-width:1px;stroke-linecap:butt;stroke-linejoin:miter;stroke-opacity:1"
       d="m 579.16088,967.45901 c -7.49394,-2.29162 -21.22579,10.10752 -21.22579,10.10752 l -6.06451,-3.53763 c 0,0 5.61399,-17.39675 0,-22.23654 -6.06291,-5.2268 -23.75267,3.53763 -23.75267,3.53763 l -3.53763,-6.56989 c 0,0 12.74093,-11.42877 10.10752,-17.68816 -3.1056,-7.38175 -23.2473,-6.06451 -23.2473,-6.06451 l 0,-5.05376 c 0,0 16.69971,-8.17983 16.17203,-15.66665 -0.48328,-6.85685 -16.67741,-12.12903 -16.67741,-12.12903 l 1.01076,-6.56989 c 0,0 19.94563,-0.98261 22.23654,-8.59139 1.84619,-6.13174 -11.11827,-15.66665 -11.11827,-15.66665 l 3.03225,-4.04301 c 0,0 18.19233,4.37889 23.2473,-1.51613 3.74285,-4.36484 -1.51613,-17.18278 -1.51613,-17.18278 l 4.04301,-4.54839 c 0,0 15.62142,10.58622 22.74192,7.07527 6.11868,-3.01698 7.07526,-19.20429 7.07526,-19.20429 l 5.05376,-2.0215 c 0,0 10.80301,15.26487 18.69891,14.6559 7.12989,-0.54989 14.65591,-15.66666 14.65591,-15.66666 l 3.03225,1.01076 c 0,0 5.01165,16.56847 12.12903,18.69891 7.22632,2.16305 20.72041,-9.09677 20.72041,-9.09677 l 3.53764,1.51613 c 0,0 -3.63205,15.83816 1.51612,20.21504 5.9261,5.03825 23.2473,-2.02151 23.2473,-2.02151 l 4.04301,4.04301 c 0,0 -10.29456,14.50538 -6.56989,20.72042 3.78756,6.31998 21.73117,4.043 21.73117,4.043 l 2.0215,5.55914 c 0,0 -18.48635,7.83098 -17.68816,15.66666 0.78772,7.73285 20.21504,11.62364 20.21504,11.62364 l -1.01075,6.06452 c 0,0 -21.28611,0.98514 -23.75267,9.09676 -2.03961,6.70755 12.12902,17.18279 12.12902,17.18279 l -3.03225,4.54838 c 0,0 -18.68502,-5.58025 -23.75268,0.50538 -4.04064,4.8523 3.03226,18.69891 3.03226,18.69891 l -6.06451,5.55913 c 0,0 -16.09438,-10.87611 -23.2473,-7.07526 -6.07011,3.22548 -6.06451,19.70966 -6.06451,19.70966 l -5.55914,1.01076 c 0,0 -11.45342,-15.89506 -19.70966,-15.16128 -7.48346,0.6651 -15.16128,16.6774 -15.16128,16.6774 l -5.05376,-0.50537 c 0,0 -4.32977,-17.47922 -11.62365,-19.70967 z"
       id="path4118"
       inkscape:connector-curvature="0"
       sodipodi:nodetypes="sccsccsccsccsccsccsccsccsccsccsccsccsccsccsccsccs" />
  </g>
</svg>
