<?xml version="1.0" encoding="UTF-8" standalone="no"?>
<!-- Created with Inkscape (http://www.inkscape.org/) -->

<svg
   xmlns:dc="http://purl.org/dc/elements/1.1/"
   xmlns:cc="http://creativecommons.org/ns#"
   xmlns:rdf="http://www.w3.org/1999/02/22-rdf-syntax-ns#"
   xmlns:svg="http://www.w3.org/2000/svg"
   xmlns="http://www.w3.org/2000/svg"
   xmlns:sodipodi="http://sodipodi.sourceforge.net/DTD/sodipodi-0.dtd"
   xmlns:inkscape="http://www.inkscape.org/namespaces/inkscape"
   width="744.09448819"
   height="1052.3622047"
   id="svg3191"
   version="1.1"
   inkscape:version="0.48.4 r9939"
   sodipodi:docname="New document 5">
  <defs
     id="defs3193" />
  <sodipodi:namedview
     id="base"
     pagecolor="#ffffff"
     bordercolor="#666666"
     borderopacity="1.0"
     inkscape:pageopacity="0.0"
     inkscape:pageshadow="2"
     inkscape:zoom="0.35"
     inkscape:cx="375"
     inkscape:cy="520"
     inkscape:document-units="px"
     inkscape:current-layer="layer1"
     showgrid="false"
     inkscape:window-width="1440"
     inkscape:window-height="845"
     inkscape:window-x="-4"
     inkscape:window-y="-3"
     inkscape:window-maximized="1" />
  <metadata
     id="metadata3196">
    <rdf:RDF>
      <cc:Work
         rdf:about="">
        <dc:format>image/svg+xml</dc:format>
        <dc:type
           rdf:resource="http://purl.org/dc/dcmitype/StillImage" />
        <dc:title></dc:title>
      </cc:Work>
    </rdf:RDF>
  </metadata>
  <g
     inkscape:label="Layer 1"
     inkscape:groupmode="layer"
     id="layer1">
    <path
       style="fill:none;stroke:#000000;stroke-width:2.1596489;stroke-linecap:butt;stroke-linejoin:miter;stroke-miterlimit:4;stroke-opacity:1;stroke-dasharray:none"
       d="m 655.16248,792.87987 -639.928756,0 65.447436,-454.4947 c 0,0 9.943382,-18.07061 18.179563,-23.63375 13.037437,-8.8059 45.449447,-12.72584 45.449447,-12.72584 l 458.13097,-5.45394 110.89652,450.85878 -41.81332,10.90785 -103.62498,-443.58685 30.90565,-18.17978 c 0,0 -23.27274,7.25224 -32.72372,14.54383 -9.2163,7.11082 -21.81569,27.2697 -21.81569,27.2697 z"
       id="path3897"
       inkscape:connector-curvature="0"
       sodipodi:nodetypes="cccsccccccscc" />
    <path
       style="fill:none;stroke:#000000;stroke-width:2.1596489;stroke-linecap:butt;stroke-linejoin:miter;stroke-miterlimit:4;stroke-opacity:1;stroke-dasharray:none"
       d="m 669.70628,758.33827 c -5.42036,1.75046 1.35482,6.37981 0,9.08992 -0.38334,0.7665 -1.05139,1.43469 -1.81807,1.81796 -0.54207,0.27103 -1.38937,-0.42851 -1.81806,0 -0.85702,0.85702 1.21192,3.63595 0,3.63595 -2.23884,0 5.54814,-9.18405 -3.63577,0 -1.21264,1.21246 1.21228,2.42352 0,3.63598 -0.42869,0.42847 -1.38973,-0.42851 -1.81806,0 -0.0576,0.0583 0,5.01301 0,5.45394 0,0.60596 0,2.42396 0,1.81796 0,-1.212 1.21192,-3.63595 0,-3.63595 -3.54759,0 -1.16585,4.14937 -1.81807,5.45394 -0.38334,0.76653 -1.43472,1.05146 -1.81806,1.81796 -0.26996,0.54203 0,1.21199 0,1.81799 0,0.606 0,1.21199 0,1.81799"
       id="path3899"
       inkscape:connector-curvature="0" />
    <path
       style="fill:none;stroke:#000000;stroke-width:1.79970729;stroke-linecap:butt;stroke-linejoin:miter;stroke-miterlimit:4;stroke-opacity:1;stroke-dasharray:none"
       d="m 82.498864,336.56718 103.624986,0 c 0,0 56.08752,-100.06718 78.17317,-143.62031 18.22095,-35.93242 72.4285,-44.04194 112.71458,-43.63149 36.68452,0.37372 79.12809,12.97668 101.80692,41.8135 32.21225,40.95899 5.45384,147.25629 5.45384,147.25629 l 58.17518,0 z"
       id="path3901"
       inkscape:connector-curvature="0"
       sodipodi:nodetypes="ccsssccc" />
    <flowRoot
       xml:space="preserve"
       id="flowRoot3903"
       style="font-size:32px;font-style:normal;font-variant:normal;font-weight:bold;font-stretch:normal;text-align:center;line-height:100%;letter-spacing:0px;word-spacing:0px;writing-mode:lr-tb;text-anchor:middle;fill:none;stroke:#353535;stroke-width:0.51393634;stroke-miterlimit:4;stroke-opacity:1;stroke-dasharray:none;font-family:Nimbus Roman No9 L;-inkscape-font-specification:Nimbus Roman No9 L Bold"
       transform="matrix(3.8173627,0,0,4.6257707,-1995.5727,-2474.2794)"><flowRegion
         id="flowRegion3905"><rect
           id="rect3907"
           width="128.79445"
           height="107.07613"
           x="540.93671"
           y="626.07782"
           style="font-size:32px;font-style:normal;font-variant:normal;font-weight:bold;font-stretch:normal;text-align:center;line-height:100%;writing-mode:lr-tb;text-anchor:middle;fill:none;stroke:#353535;stroke-width:0.51393634;stroke-miterlimit:4;stroke-opacity:1;stroke-dasharray:none;font-family:Nimbus Roman No9 L;-inkscape-font-specification:Nimbus Roman No9 L Bold" /></flowRegion><flowPara
         id="flowPara3909"
         style="font-size:32px;font-style:normal;font-variant:normal;font-weight:bold;font-stretch:normal;text-align:center;line-height:100%;writing-mode:lr-tb;text-anchor:middle;fill:none;stroke:#353535;stroke-width:0.51393634;stroke-miterlimit:4;stroke-opacity:1;stroke-dasharray:none;font-family:Nimbus Roman No9 L;-inkscape-font-specification:Nimbus Roman No9 L Bold">Purchase</flowPara><flowPara
         id="flowPara3911"
         style="font-size:32px;font-style:normal;font-variant:normal;font-weight:bold;font-stretch:normal;text-align:center;line-height:100%;writing-mode:lr-tb;text-anchor:middle;fill:none;stroke:#353535;stroke-width:0.51393634;stroke-miterlimit:4;stroke-opacity:1;stroke-dasharray:none;font-family:Nimbus Roman No9 L;-inkscape-font-specification:Nimbus Roman No9 L Bold">Ledger</flowPara></flowRoot>  </g>
</svg>
