<?xml version="1.0" encoding="UTF-8" standalone="no"?>
<!-- Created with Inkscape (http://www.inkscape.org/) -->

<svg
   xmlns:dc="http://purl.org/dc/elements/1.1/"
   xmlns:cc="http://creativecommons.org/ns#"
   xmlns:rdf="http://www.w3.org/1999/02/22-rdf-syntax-ns#"
   xmlns:svg="http://www.w3.org/2000/svg"
   xmlns="http://www.w3.org/2000/svg"
   xmlns:sodipodi="http://sodipodi.sourceforge.net/DTD/sodipodi-0.dtd"
   xmlns:inkscape="http://www.inkscape.org/namespaces/inkscape"
   width="744.09448819"
   height="1052.3622047"
   id="svg3321"
   version="1.1"
   inkscape:version="0.48.4 r9939"
   sodipodi:docname="New document 11">
  <defs
     id="defs3323" />
  <sodipodi:namedview
     id="base"
     pagecolor="#ffffff"
     bordercolor="#666666"
     borderopacity="1.0"
     inkscape:pageopacity="0.0"
     inkscape:pageshadow="2"
     inkscape:zoom="0.35"
     inkscape:cx="375"
     inkscape:cy="520"
     inkscape:document-units="px"
     inkscape:current-layer="layer1"
     showgrid="false"
     inkscape:window-width="1440"
     inkscape:window-height="845"
     inkscape:window-x="-4"
     inkscape:window-y="-3"
     inkscape:window-maximized="1" />
  <metadata
     id="metadata3326">
    <rdf:RDF>
      <cc:Work
         rdf:about="">
        <dc:format>image/svg+xml</dc:format>
        <dc:type
           rdf:resource="http://purl.org/dc/dcmitype/StillImage" />
        <dc:title></dc:title>
      </cc:Work>
    </rdf:RDF>
  </metadata>
  <g
     inkscape:label="Layer 1"
     inkscape:groupmode="layer"
     id="layer1">
    <path
       style="fill:none;stroke:#000000;stroke-width:2.4659276;stroke-linecap:butt;stroke-linejoin:miter;stroke-miterlimit:4;stroke-opacity:1;stroke-dasharray:none"
       d="m 646.68032,919.86771 74.72846,-84.69278 -2.49059,-206.74994 c 0,0 -20.35475,-19.96681 -32.38256,-27.4006 -21.5167,-13.29791 -44.48189,-31.10259 -69.74729,-29.89153 -61.3074,2.9387 -141.98466,0 -141.98466,0 0,0 -44.9006,-50.79387 -54.8013,-82.2018 -10.98619,-34.85297 -2.49108,-109.60239 -2.49108,-109.60239 0,0 34.30401,-28.32015 44.83747,-47.32831 11.22589,-20.2574 23.52199,-44.90982 17.43657,-67.25601 -6.78722,-24.92589 -54.8008,-54.80115 -54.8008,-54.80115 l -127.03916,4.98192 c 0,0 -35.87037,23.3764 -39.85531,42.34639 -5.61541,26.72898 13.94926,53.44942 27.40041,77.21983 9.00556,15.91456 34.87364,42.34639 34.87364,42.34639 0,0 13.31157,73.07674 2.49058,107.11142 -10.96893,34.5006 -64.76463,87.18371 -64.76463,87.18371 0,0 -83.71775,-7.51383 -124.54858,0 -18.35094,3.37704 -36.31917,10.31192 -52.310218,19.92771 -22.69196,13.64585 -59.782965,52.31021 -59.782965,52.31021 0,0 7.975303,-22.08692 17.436575,-22.41868 171.866288,-6.02663 582.885618,-2.49098 582.885618,-2.49098 0,0 18.69864,5.55554 24.90982,12.45486 4.74641,5.27245 7.47274,19.9277 7.47274,19.9277 l 2.49108,246.60535 z"
       id="path3947"
       inkscape:connector-curvature="0"
       sodipodi:nodetypes="cccsscscssccsscscsscscsccc" />
    <rect
       style="fill:none;stroke:#353535;stroke-width:2.4659276;stroke-linejoin:round;stroke-miterlimit:4;stroke-opacity:1;stroke-dasharray:none"
       id="rect3949"
       width="580.39441"
       height="261.55112"
       x="43.867195"
       y="650.84351" />
    <flowRoot
       xml:space="preserve"
       id="flowRoot3951"
       style="font-size:28px;font-style:normal;font-variant:normal;font-weight:bold;font-stretch:normal;text-align:center;line-height:100%;letter-spacing:0px;word-spacing:0px;writing-mode:lr-tb;text-anchor:middle;fill:none;stroke:#353535;stroke-width:0.69356674;stroke-miterlimit:4;stroke-opacity:1;stroke-dasharray:none;font-family:Nimbus Roman No9 L;-inkscape-font-specification:Nimbus Roman No9 L Bold"
       transform="matrix(4.7129538,0,0,4.9318554,-1452.6221,-3831.821)"><flowRegion
         id="flowRegion3953"><rect
           id="rect3955"
           width="140.91626"
           height="56.06348"
           x="307.59146"
           y="922.05249"
           style="font-size:28px;font-style:normal;font-variant:normal;font-weight:bold;font-stretch:normal;text-align:center;line-height:100%;writing-mode:lr-tb;text-anchor:middle;fill:none;stroke:#353535;stroke-width:0.69356674;stroke-miterlimit:4;stroke-opacity:1;stroke-dasharray:none;font-family:Nimbus Roman No9 L;-inkscape-font-specification:Nimbus Roman No9 L Bold" /></flowRegion><flowPara
         id="flowPara3957"
         style="font-size:28px;font-style:normal;font-variant:normal;font-weight:bold;font-stretch:normal;text-align:center;line-height:100%;writing-mode:lr-tb;text-anchor:middle;fill:none;stroke:#353535;stroke-width:0.69356674;stroke-miterlimit:4;stroke-opacity:1;stroke-dasharray:none;font-family:Nimbus Roman No9 L;-inkscape-font-specification:Nimbus Roman No9 L Bold">Reconcile</flowPara></flowRoot>  </g>
</svg>
