<?xml version="1.0" encoding="UTF-8" standalone="no"?>
<!-- Created with Inkscape (http://www.inkscape.org/) -->

<svg
   xmlns:dc="http://purl.org/dc/elements/1.1/"
   xmlns:cc="http://creativecommons.org/ns#"
   xmlns:rdf="http://www.w3.org/1999/02/22-rdf-syntax-ns#"
   xmlns:svg="http://www.w3.org/2000/svg"
   xmlns="http://www.w3.org/2000/svg"
   xmlns:xlink="http://www.w3.org/1999/xlink"
   xmlns:sodipodi="http://sodipodi.sourceforge.net/DTD/sodipodi-0.dtd"
   xmlns:inkscape="http://www.inkscape.org/namespaces/inkscape"
   width="683.60443"
   height="677.02887"
   id="svg3136"
   version="1.1"
   inkscape:version="0.48.3.1 r9886"
   sodipodi:docname="add_filter.svg">
  <defs
     id="defs3138">
    <linearGradient
       id="linearGradient3768">
      <stop
         style="stop-color:#000000;stop-opacity:1;"
         offset="0"
         id="stop3770" />
      <stop
         style="stop-color:#dddddd;stop-opacity:1;"
         offset="1"
         id="stop3772" />
    </linearGradient>
    <linearGradient
       inkscape:collect="always"
       xlink:href="#linearGradient3768"
       id="linearGradient3774"
       x1="19.348015"
       y1="570.02393"
       x2="692.05237"
       y2="570.02393"
       gradientUnits="userSpaceOnUse" />
  </defs>
  <sodipodi:namedview
     id="base"
     pagecolor="#ffffff"
     bordercolor="#666666"
     borderopacity="1.0"
     inkscape:pageopacity="0.0"
     inkscape:pageshadow="2"
     inkscape:zoom="0.35"
     inkscape:cx="-337.53008"
     inkscape:cy="344.95075"
     inkscape:document-units="px"
     inkscape:current-layer="layer1"
     showgrid="false"
     inkscape:window-width="1440"
     inkscape:window-height="851"
     inkscape:window-x="0"
     inkscape:window-y="25"
     inkscape:window-maximized="1"
     fit-margin-top="10"
     fit-margin-left="5"
     fit-margin-right="5"
     fit-margin-bottom="10" />
  <metadata
     id="metadata3141">
    <rdf:RDF>
      <cc:Work
         rdf:about="">
        <dc:format>image/svg+xml</dc:format>
        <dc:type
           rdf:resource="http://purl.org/dc/dcmitype/StillImage" />
        <dc:title />
      </cc:Work>
    </rdf:RDF>
  </metadata>
  <g
     inkscape:label="Layer 1"
     inkscape:groupmode="layer"
     id="layer1"
     transform="translate(-13.872653,-200.28408)">
    <path
       sodipodi:type="arc"
       style="fill:#dddddd;fill-opacity:1;stroke:#110b02;stroke-width:0.84017819;stroke-linejoin:round;stroke-miterlimit:4;stroke-opacity:1;stroke-dasharray:none"
       id="path3777"
       sodipodi:cx="376.7869"
       sodipodi:cy="91.959648"
       sodipodi:rx="80.307129"
       sodipodi:ry="11.364216"
       d="m 457.09402,91.959648 c 0,6.276283 -35.95472,11.364212 -80.30712,11.364212 -44.35241,0 -80.30713,-5.087929 -80.30713,-11.364212 0,-6.276283 35.95472,-11.364216 80.30713,-11.364216 44.3524,0 80.30712,5.087933 80.30712,11.364216 z"
       transform="matrix(4.1725401,0,0,5.4322115,-1216.46,-225.31138)" />
    <path
       style="fill:url(#linearGradient3774);fill-opacity:1;stroke:#110b02;stroke-width:3;stroke-linecap:butt;stroke-linejoin:miter;stroke-miterlimit:4;stroke-opacity:1;stroke-dasharray:none"
       d="m 20.348014,274.23293 c 0,0 72.213035,191.05643 142.159596,261.50217 35.21654,35.46789 130.18891,74.3937 130.18891,74.3937 l 9.39361,227.88252 c 0,0 21.18099,27.68166 45.15581,27.80318 24.98497,0.12684 47.64747,-29.68192 47.64747,-29.68192 l 9.39361,-226.00378 c 0,0 94.20533,-39.70427 130.18891,-74.3937 71.21936,-68.65791 156.57646,-252.10855 156.57646,-252.10855 0,0 -24.46774,32.08223 -156.57646,47.52602 -57.72873,6.74862 -92.88815,6.98192 -175.95764,5.07822 -84.28341,-1.93152 -158.41849,0.33923 -251.80593,-23.67664 -70.582103,-18.1512 -86.364346,-38.32122 -86.364346,-38.32122 z"
       id="path3779"
       inkscape:connector-curvature="0"
       sodipodi:nodetypes="csccsccscsssc" />
    <g
       transform="matrix(2.6165218,0,0,2.6165218,-751.50211,-723.22069)"
       style="font-size:40px;font-style:normal;font-weight:normal;line-height:125%;letter-spacing:0px;word-spacing:0px;fill:#000000;fill-opacity:1;stroke:#ffffff;stroke-opacity:1;font-family:Sans"
       id="flowRoot2984">
      <path
         d="m 482.97656,445.62563 0,36.84375 36.70313,0 0,16.59375 -36.70313,0 0,36.84375 -16.73437,0 0,-36.84375 -36.70313,0 0,-16.59375 36.70313,0 0,-36.84375 16.73437,0"
         style="font-size:144px;font-weight:bold;fill:#000000;stroke:#ffffff;-inkscape-font-specification:Sans Bold"
         id="path3780"
         inkscape:connector-curvature="0" />
    </g>
  </g>
</svg>
