<?xml version="1.0" encoding="UTF-8" standalone="no"?>
<!-- Created with Inkscape (http://www.inkscape.org/) -->

<svg
   xmlns:dc="http://purl.org/dc/elements/1.1/"
   xmlns:cc="http://creativecommons.org/ns#"
   xmlns:rdf="http://www.w3.org/1999/02/22-rdf-syntax-ns#"
   xmlns:svg="http://www.w3.org/2000/svg"
   xmlns="http://www.w3.org/2000/svg"
   xmlns:xlink="http://www.w3.org/1999/xlink"
   xmlns:sodipodi="http://sodipodi.sourceforge.net/DTD/sodipodi-0.dtd"
   xmlns:inkscape="http://www.inkscape.org/namespaces/inkscape"
   width="684.73779"
   height="680.20789"
   id="svg3136"
   version="1.1"
   inkscape:version="0.48.4 r9939"
   sodipodi:docname="enable_filter.svg">
  <defs
     id="defs3138">
    <linearGradient
       id="linearGradient3762">
      <stop
         style="stop-color:#e3dd00;stop-opacity:1;"
         offset="0"
         id="stop3764" />
      <stop
         style="stop-color:#e3f700;stop-opacity:1;"
         offset="1"
         id="stop3766" />
    </linearGradient>
    <linearGradient
       inkscape:collect="always"
       xlink:href="#linearGradient3762"
       id="linearGradient3768"
       x1="19.348015"
       y1="570.02393"
       x2="692.05237"
       y2="570.02393"
       gradientUnits="userSpaceOnUse" />
  </defs>
  <sodipodi:namedview
     id="base"
     pagecolor="#ffffff"
     bordercolor="#666666"
     borderopacity="1.0"
     inkscape:pageopacity="0.0"
     inkscape:pageshadow="2"
     inkscape:zoom="0.59105127"
     inkscape:cx="358.71217"
     inkscape:cy="352.63185"
     inkscape:document-units="px"
     inkscape:current-layer="layer1"
     showgrid="false"
     inkscape:window-width="1440"
     inkscape:window-height="824"
     inkscape:window-x="0"
     inkscape:window-y="24"
     inkscape:window-maximized="1"
     fit-margin-top="11"
     fit-margin-left="5"
     fit-margin-right="5"
     fit-margin-bottom="11" />
  <metadata
     id="metadata3141">
    <rdf:RDF>
      <cc:Work
         rdf:about="">
        <dc:format>image/svg+xml</dc:format>
        <dc:type
           rdf:resource="http://purl.org/dc/dcmitype/StillImage" />
        <dc:title />
      </cc:Work>
    </rdf:RDF>
  </metadata>
  <g
     inkscape:label="Layer 1"
     inkscape:groupmode="layer"
     id="layer1"
     transform="translate(-13.335076,-198.60505)">
    <path
       sodipodi:type="arc"
       style="fill:#dddddd;fill-opacity:1;stroke:#110b02;stroke-width:1.05022275;stroke-linecap:round;stroke-linejoin:round;stroke-miterlimit:4;stroke-opacity:1;stroke-dasharray:none"
       id="path3777"
       sodipodi:cx="376.7869"
       sodipodi:cy="91.959648"
       sodipodi:rx="80.307129"
       sodipodi:ry="11.364216"
       d="m 457.09402,91.959648 c 0,6.276283 -35.95472,11.364212 -80.30712,11.364212 -44.35241,0 -80.30713,-5.087929 -80.30713,-11.364212 0,-6.276283 35.95472,-11.364216 80.30713,-11.364216 44.3524,0 80.30712,5.087933 80.30712,11.364216 z"
       transform="matrix(4.1725401,0,0,5.4322115,-1216.46,-225.31138)" />
    <path
       style="fill:url(#linearGradient3768);fill-opacity:1;stroke:#110b02;stroke-width:4;stroke-linecap:round;stroke-linejoin:round;stroke-miterlimit:4;stroke-opacity:1;stroke-dasharray:none"
       d="m 20.348014,274.23293 c 0,0 72.213035,191.05643 142.159596,261.50217 35.21654,35.46789 130.18891,74.3937 130.18891,74.3937 l 9.39361,227.88252 c 0,0 21.18099,27.68166 45.15581,27.80318 24.98497,0.12684 47.64747,-29.68192 47.64747,-29.68192 l 9.39361,-226.00378 c 0,0 94.20533,-39.70427 130.18891,-74.3937 71.21936,-68.65791 156.57646,-252.10855 156.57646,-252.10855 0,0 -24.46774,32.08223 -156.57646,47.52602 -57.72873,6.74862 -92.88815,6.98192 -175.95764,5.07822 -84.28341,-1.93152 -158.41849,0.33923 -251.80593,-23.67664 -70.582103,-18.1512 -86.364346,-38.32122 -86.364346,-38.32122 z"
       id="path3779"
       inkscape:connector-curvature="0"
       sodipodi:nodetypes="csccsccscsssc" />
    <g
       transform="matrix(2.5346492,0,0,2.5346492,-680.38913,-725.74617)"
       style="font-size:40px;font-style:normal;font-weight:normal;line-height:125%;letter-spacing:0px;word-spacing:0px;fill:#110b02;fill-opacity:1;stroke:none;font-family:Sans"
       id="flowRoot2984">
      <path
         d="m 458.53906,507.9225 c 1.82809,6e-5 3.2109,1.50006 4.14844,4.5 1.87496,5.62505 3.2109,8.43755 4.00781,8.4375 0.60934,5e-5 1.24215,-0.4687 1.89844,-1.40625 13.17182,-19.35931 25.35931,-33.14054 36.5625,-41.34375 4.73429,-3.46866 9.35147,-5.20303 13.85156,-5.20312 5.95303,9e-5 9.53896,0.18759 10.75781,0.5625 0.51553,0.14071 0.77334,0.72665 0.77344,1.75781 -10e-5,0.84384 -0.53916,1.89853 -1.61719,3.16406 -30.14069,34.5938 -48.0938,57.09378 -53.85937,67.5 -1.9688,3.56252 -6.51567,5.34377 -13.64063,5.34375 -2.34378,2e-5 -4.80471,-0.60936 -7.38281,-1.82812 -1.07815,-0.56249 -2.95315,-4.14842 -5.625,-10.75781 -3.37502,-8.34372 -5.06251,-15.65621 -5.0625,-21.9375 -1e-5,-2.29683 1.64061,-4.19526 4.92188,-5.69532 4.49997,-2.06244 7.87497,-3.09369 10.125,-3.09375 l 0.14062,0"
         style="font-size:144px;fill:#110b02"
         id="path3771" />
    </g>
  </g>
</svg>
