<?xml version="1.0" encoding="UTF-8" standalone="no"?>
<!-- Created with Inkscape (http://www.inkscape.org/) -->

<svg
   xmlns:dc="http://purl.org/dc/elements/1.1/"
   xmlns:cc="http://creativecommons.org/ns#"
   xmlns:rdf="http://www.w3.org/1999/02/22-rdf-syntax-ns#"
   xmlns:svg="http://www.w3.org/2000/svg"
   xmlns="http://www.w3.org/2000/svg"
   xmlns:xlink="http://www.w3.org/1999/xlink"
   xmlns:sodipodi="http://sodipodi.sourceforge.net/DTD/sodipodi-0.dtd"
   xmlns:inkscape="http://www.inkscape.org/namespaces/inkscape"
   width="676.41901"
   height="654.67328"
   id="svg3313"
   version="1.1"
   inkscape:version="0.48.4 r9939"
   sodipodi:docname="group_list.svg">
  <defs
     id="defs3315">
    <linearGradient
       id="linearGradient3755">
      <stop
         style="stop-color:#3b3b3b;stop-opacity:1;"
         offset="0"
         id="stop3757" />
      <stop
         style="stop-color:#110b02;stop-opacity:1;"
         offset="1"
         id="stop3759" />
    </linearGradient>
    <radialGradient
       inkscape:collect="always"
       xlink:href="#linearGradient3755"
       id="radialGradient3763"
       cx="252.55754"
       cy="350.24954"
       fx="252.55754"
       fy="350.24954"
       r="193.76511"
       gradientTransform="matrix(1.2828276,-0.02613864,0.01986892,0.97512433,-78.38932,5.799634)"
       gradientUnits="userSpaceOnUse" />
    <radialGradient
       inkscape:collect="always"
       xlink:href="#linearGradient3755"
       id="radialGradient3771"
       cx="252.55754"
       cy="350.24954"
       fx="252.55754"
       fy="350.24954"
       r="193.76511"
       gradientTransform="matrix(1.2828276,-0.02613857,0.01986889,0.97512434,-78.389315,5.7996153)"
       gradientUnits="userSpaceOnUse" />
    <radialGradient
       inkscape:collect="always"
       xlink:href="#linearGradient3755"
       id="radialGradient3832"
       gradientUnits="userSpaceOnUse"
       gradientTransform="matrix(1.2828276,-0.02613864,0.01986892,0.97512433,-78.38932,5.799634)"
       cx="252.55754"
       cy="350.24954"
       fx="252.55754"
       fy="350.24954"
       r="193.76511" />
    <radialGradient
       inkscape:collect="always"
       xlink:href="#linearGradient3755"
       id="radialGradient3834"
       gradientUnits="userSpaceOnUse"
       gradientTransform="matrix(1.2828276,-0.02613857,0.01986889,0.97512434,-78.389315,5.7996153)"
       cx="252.55754"
       cy="350.24954"
       fx="252.55754"
       fy="350.24954"
       r="193.76511" />
    <radialGradient
       inkscape:collect="always"
       xlink:href="#linearGradient3755"
       id="radialGradient3836"
       gradientUnits="userSpaceOnUse"
       gradientTransform="matrix(1.2828276,-0.02613864,0.01986892,0.97512433,-78.38932,5.799634)"
       cx="252.55754"
       cy="350.24954"
       fx="252.55754"
       fy="350.24954"
       r="193.76511" />
    <radialGradient
       inkscape:collect="always"
       xlink:href="#linearGradient3755"
       id="radialGradient3838"
       gradientUnits="userSpaceOnUse"
       gradientTransform="matrix(1.2828276,-0.02613857,0.01986889,0.97512434,-78.389315,5.7996153)"
       cx="252.55754"
       cy="350.24954"
       fx="252.55754"
       fy="350.24954"
       r="193.76511" />
    <radialGradient
       inkscape:collect="always"
       xlink:href="#linearGradient3755"
       id="radialGradient3840"
       gradientUnits="userSpaceOnUse"
       gradientTransform="matrix(1.2828276,-0.02613864,0.01986892,0.97512433,-78.38932,5.799634)"
       cx="252.55754"
       cy="350.24954"
       fx="252.55754"
       fy="350.24954"
       r="193.76511" />
    <radialGradient
       inkscape:collect="always"
       xlink:href="#linearGradient3755"
       id="radialGradient3842"
       gradientUnits="userSpaceOnUse"
       gradientTransform="matrix(1.2828276,-0.02613857,0.01986889,0.97512434,-78.389315,5.7996153)"
       cx="252.55754"
       cy="350.24954"
       fx="252.55754"
       fy="350.24954"
       r="193.76511" />
    <radialGradient
       inkscape:collect="always"
       xlink:href="#linearGradient3755"
       id="radialGradient3844"
       gradientUnits="userSpaceOnUse"
       gradientTransform="matrix(1.2828276,-0.02613864,0.01986892,0.97512433,-78.38932,5.799634)"
       cx="252.55754"
       cy="350.24954"
       fx="252.55754"
       fy="350.24954"
       r="193.76511" />
    <radialGradient
       inkscape:collect="always"
       xlink:href="#linearGradient3755"
       id="radialGradient3846"
       gradientUnits="userSpaceOnUse"
       gradientTransform="matrix(1.2828276,-0.02613857,0.01986889,0.97512434,-78.389315,5.7996153)"
       cx="252.55754"
       cy="350.24954"
       fx="252.55754"
       fy="350.24954"
       r="193.76511" />
    <radialGradient
       inkscape:collect="always"
       xlink:href="#linearGradient3755"
       id="radialGradient3848"
       gradientUnits="userSpaceOnUse"
       gradientTransform="matrix(1.2828276,-0.02613864,0.01986892,0.97512433,-78.38932,5.799634)"
       cx="252.55754"
       cy="350.24954"
       fx="252.55754"
       fy="350.24954"
       r="193.76511" />
    <radialGradient
       inkscape:collect="always"
       xlink:href="#linearGradient3755"
       id="radialGradient3850"
       gradientUnits="userSpaceOnUse"
       gradientTransform="matrix(1.2828276,-0.02613857,0.01986889,0.97512434,-78.389315,5.7996153)"
       cx="252.55754"
       cy="350.24954"
       fx="252.55754"
       fy="350.24954"
       r="193.76511" />
    <radialGradient
       inkscape:collect="always"
       xlink:href="#linearGradient3755"
       id="radialGradient3852"
       gradientUnits="userSpaceOnUse"
       gradientTransform="matrix(1.2828276,-0.02613864,0.01986892,0.97512433,-78.38932,5.799634)"
       cx="252.55754"
       cy="350.24954"
       fx="252.55754"
       fy="350.24954"
       r="193.76511" />
    <radialGradient
       inkscape:collect="always"
       xlink:href="#linearGradient3755"
       id="radialGradient3854"
       gradientUnits="userSpaceOnUse"
       gradientTransform="matrix(1.2828276,-0.02613857,0.01986889,0.97512434,-78.389315,5.7996153)"
       cx="252.55754"
       cy="350.24954"
       fx="252.55754"
       fy="350.24954"
       r="193.76511" />
    <radialGradient
       inkscape:collect="always"
       xlink:href="#linearGradient3755"
       id="radialGradient3856"
       gradientUnits="userSpaceOnUse"
       gradientTransform="matrix(1.2828276,-0.02613864,0.01986892,0.97512433,-78.38932,5.799634)"
       cx="252.55754"
       cy="350.24954"
       fx="252.55754"
       fy="350.24954"
       r="193.76511" />
    <radialGradient
       inkscape:collect="always"
       xlink:href="#linearGradient3755"
       id="radialGradient3858"
       gradientUnits="userSpaceOnUse"
       gradientTransform="matrix(1.2828276,-0.02613857,0.01986889,0.97512434,-78.389315,5.7996153)"
       cx="252.55754"
       cy="350.24954"
       fx="252.55754"
       fy="350.24954"
       r="193.76511" />
    <radialGradient
       inkscape:collect="always"
       xlink:href="#linearGradient3755"
       id="radialGradient3860"
       gradientUnits="userSpaceOnUse"
       gradientTransform="matrix(1.2828276,-0.02613864,0.01986892,0.97512433,-78.38932,5.799634)"
       cx="252.55754"
       cy="350.24954"
       fx="252.55754"
       fy="350.24954"
       r="193.76511" />
    <radialGradient
       inkscape:collect="always"
       xlink:href="#linearGradient3755"
       id="radialGradient3862"
       gradientUnits="userSpaceOnUse"
       gradientTransform="matrix(1.2828276,-0.02613857,0.01986889,0.97512434,-78.389315,5.7996153)"
       cx="252.55754"
       cy="350.24954"
       fx="252.55754"
       fy="350.24954"
       r="193.76511" />
    <radialGradient
       inkscape:collect="always"
       xlink:href="#linearGradient3755"
       id="radialGradient3864"
       gradientUnits="userSpaceOnUse"
       gradientTransform="matrix(1.2828276,-0.02613864,0.01986892,0.97512433,-78.38932,5.799634)"
       cx="252.55754"
       cy="350.24954"
       fx="252.55754"
       fy="350.24954"
       r="193.76511" />
    <radialGradient
       inkscape:collect="always"
       xlink:href="#linearGradient3755"
       id="radialGradient3866"
       gradientUnits="userSpaceOnUse"
       gradientTransform="matrix(1.2828276,-0.02613857,0.01986889,0.97512434,-78.389315,5.7996153)"
       cx="252.55754"
       cy="350.24954"
       fx="252.55754"
       fy="350.24954"
       r="193.76511" />
    <radialGradient
       inkscape:collect="always"
       xlink:href="#linearGradient3755"
       id="radialGradient3868"
       gradientUnits="userSpaceOnUse"
       gradientTransform="matrix(1.2828276,-0.02613864,0.01986892,0.97512433,-78.38932,5.799634)"
       cx="252.55754"
       cy="350.24954"
       fx="252.55754"
       fy="350.24954"
       r="193.76511" />
    <radialGradient
       inkscape:collect="always"
       xlink:href="#linearGradient3755"
       id="radialGradient3870"
       gradientUnits="userSpaceOnUse"
       gradientTransform="matrix(1.2828276,-0.02613857,0.01986889,0.97512434,-78.389315,5.7996153)"
       cx="252.55754"
       cy="350.24954"
       fx="252.55754"
       fy="350.24954"
       r="193.76511" />
  </defs>
  <sodipodi:namedview
     id="base"
     pagecolor="#ffffff"
     bordercolor="#666666"
     borderopacity="1.0"
     inkscape:pageopacity="0.0"
     inkscape:pageshadow="2"
     inkscape:zoom="0.59105127"
     inkscape:cx="333.59283"
     inkscape:cy="264.86231"
     inkscape:document-units="px"
     inkscape:current-layer="layer1"
     showgrid="false"
     inkscape:window-width="1440"
     inkscape:window-height="824"
     inkscape:window-x="0"
     inkscape:window-y="24"
     inkscape:window-maximized="1"
     fit-margin-top="85"
     fit-margin-left="5"
     fit-margin-right="5"
     fit-margin-bottom="85" />
  <metadata
     id="metadata3318">
    <rdf:RDF>
      <cc:Work
         rdf:about="">
        <dc:format>image/svg+xml</dc:format>
        <dc:type
           rdf:resource="http://purl.org/dc/dcmitype/StillImage" />
        <dc:title />
      </cc:Work>
    </rdf:RDF>
  </metadata>
  <g
     inkscape:label="Layer 1"
     inkscape:groupmode="layer"
     id="layer1"
     transform="translate(-19.227207,-136.67749)">
    <g
       transform="matrix(1.7196523,0,0,1.7196523,-151.66098,-78.294358)"
       style="font-size:40px;font-style:normal;font-variant:normal;font-weight:normal;font-stretch:normal;line-height:125%;letter-spacing:0px;word-spacing:0px;fill:url(#radialGradient3868);fill-opacity:1;stroke:url(#radialGradient3870);stroke-width:1.16302586;stroke-miterlimit:4;stroke-opacity:1;font-family:Abyssinica SIL;-inkscape-font-specification:Abyssinica SIL"
       id="flowRoot3321">
      <path
         d="m 186.40625,234.21875 c -1.03134,0.0938 -1.80477,0.44535 -2.32031,1.05469 -0.46884,0.56254 -0.70321,1.21878 -0.70313,1.96875 l 0,33.25781 c -2.90633,1.07813 -6.00008,2.03906 -9.28125,2.88281 -2.81257,0.75 -6.04694,1.40625 -9.70312,1.96875 -3.60944,0.60938 -7.35944,0.91406 -11.25,0.91406 -5.3438,0 -10.31255,-0.63281 -14.90625,-1.89843 -4.54691,-1.26563 -8.69535,-3.04687 -12.44531,-5.34375 -3.70315,-2.29687 -6.9844,-5.01562 -9.84375,-8.15625 -2.8594,-3.18749 -5.27346,-6.65623 -7.24219,-10.40625 -1.92189,-3.74998 -3.37501,-7.73435 -4.35938,-11.95313 -0.98438,-4.26558 -1.47657,-8.62495 -1.47656,-13.07812 -1e-5,-7.54682 1.19531,-14.414 3.58594,-20.60157 2.39061,-6.23429 5.83592,-11.5546 10.33594,-15.96093 4.49997,-4.40616 9.9609,-7.8046 16.38281,-10.19532 6.46871,-2.4374 13.73432,-3.65615 21.79687,-3.65625 2.71869,10e-5 5.29681,0.16417 7.73438,0.49219 2.4843,0.28135 4.87493,0.65635 7.17187,1.125 2.2968,0.46885 4.5468,1.00791 6.75,1.61719 2.20305,0.5626 4.40617,1.12509 6.60938,1.6875 l 0,23.27344 -8.64844,0 -2.32031,-12.9375 c -0.1407,-0.84367 -0.49226,-1.54679 -1.05469,-2.10938 -0.56257,-0.60929 -1.17195,-1.0546 -1.82813,-1.33594 -0.70319,-0.28116 -1.57038,-0.63272 -2.60156,-1.05468 -0.98444,-0.42179 -2.10944,-0.82023 -3.375,-1.19532 -1.26569,-0.42178 -2.67194,-0.77334 -4.21875,-1.05468 -1.50006,-0.28116 -3.09381,-0.42179 -4.78125,-0.42188 -5.20317,9e-5 -9.96098,0.91415 -14.27344,2.74219 -4.31253,1.82821 -8.01565,4.50008 -11.10937,8.01562 -3.09378,3.51571 -5.50784,7.87508 -7.24219,13.07813 -1.68752,5.15631 -2.53127,11.08599 -2.53125,17.78906 -2e-5,6.89067 0.86717,13.03129 2.60157,18.42188 1.73434,5.39065 4.19528,9.93752 7.38281,13.64062 3.23434,3.70314 7.12496,6.53908 11.67187,8.50781 4.54683,1.92189 9.63276,2.88282 15.25781,2.88282 1.59369,0 3.11713,-0.11718 4.57032,-0.35157 1.45306,-0.23436 2.74212,-0.46874 3.86718,-0.70312 1.12494,-0.28124 2.06244,-0.53906 2.8125,-0.77344 0.74993,-0.23436 1.21868,-0.35155 1.40625,-0.35156 l 0,-28.75781 c -7e-5,-0.74997 -0.25788,-1.40621 -0.77343,-1.96875 -0.46882,-0.60934 -1.21882,-0.9609 -2.25,-1.05469 l -9.63282,-0.70313 0,-6.25781 37.54688,0 0,6.25781 -7.3125,0.70313"
         style="font-size:144px;font-weight:bold;text-align:center;text-anchor:middle;fill:url(#radialGradient3832);stroke:url(#radialGradient3834);-inkscape-font-specification:Abyssinica SIL Bold"
         id="path3774"
         inkscape:connector-curvature="0" />
      <path
         d="m 246.59375,219.24219 c -0.93755,-1.07807 -2.01567,-1.99213 -3.23438,-2.74219 -1.21879,-0.79682 -2.71879,-1.19525 -4.5,-1.19531 -2.34378,6e-5 -4.71097,0.79693 -7.10156,2.39062 -2.39065,1.54693 -4.82815,3.72662 -7.3125,6.53906 l 0,40.5 c -2e-5,0.89064 0.28123,1.6172 0.84375,2.17969 0.56247,0.56251 1.28904,0.89063 2.17969,0.98438 l 9.49219,0.42187 0,5.625 -36,0 0,-5.48437 7.10156,-0.5625 c 0.84374,-0.0937 1.54686,-0.42187 2.10937,-0.98438 0.60937,-0.56249 0.91405,-1.28905 0.91407,-2.17969 l 0,-49.99218 -10.40625,0 0,-4.71094 17.85937,-5.48438 5.90625,0 0,12.79688 c 1.03122,-1.12494 2.27341,-2.50775 3.72656,-4.14844 1.49997,-1.68744 3.09372,-3.30462 4.78125,-4.85156 1.68747,-1.54681 3.42184,-2.85931 5.20313,-3.9375 1.82808,-1.07805 3.58589,-1.61712 5.27344,-1.61719 0.74995,7e-5 1.54682,0.0704 2.39062,0.21094 0.8437,0.1407 1.66401,0.3282 2.46094,0.5625 0.79682,0.18757 1.52339,0.42194 2.17969,0.70312 0.70307,0.23445 1.28901,0.46882 1.75781,0.70313 l 0,14.27344 -5.625,0"
         style="font-size:144px;font-weight:bold;text-align:center;text-anchor:middle;fill:url(#radialGradient3836);stroke:url(#radialGradient3838);-inkscape-font-specification:Abyssinica SIL Bold"
         id="path3776"
         inkscape:connector-curvature="0" />
      <path
         d="m 327.3125,239.35156 c -7e-5,5.10941 -0.82039,9.89065 -2.46094,14.34375 -1.59382,4.40627 -3.89069,8.25001 -6.89062,11.53125 -2.95319,3.23438 -6.56256,5.78907 -10.82813,7.66406 -4.2188,1.875 -8.95317,2.8125 -14.20312,2.8125 -5.25004,0 -9.98441,-0.91406 -14.20313,-2.74218 -4.21877,-1.875 -7.8047,-4.42968 -10.75781,-7.66407 -2.95314,-3.23436 -5.22657,-7.05467 -6.82031,-11.46093 -1.54688,-4.4531 -2.32032,-9.28122 -2.32032,-14.48438 0,-5.10933 0.79687,-9.89058 2.39063,-14.34375 1.59374,-4.45307 3.89061,-8.32025 6.89062,-11.60156 2.99999,-3.32806 6.60936,-5.92962 10.82813,-7.80469 4.2656,-1.87493 9.07028,-2.81243 14.41406,-2.8125 5.34371,7e-5 10.12495,0.96101 14.34375,2.88281 4.21869,1.92195 7.78119,4.54694 10.6875,7.875 2.90619,3.28131 5.10931,7.1485 6.60938,11.60157 1.5468,4.40629 2.32024,9.14066 2.32031,14.20312 m -14.97656,-0.14062 c -6e-5,-3.93746 -0.3985,-7.7109 -1.19532,-11.32032 -0.75005,-3.60932 -1.92193,-6.79682 -3.51562,-9.5625 -1.5938,-2.76556 -3.58599,-4.96868 -5.97656,-6.60937 -2.39067,-1.64056 -5.20317,-2.46087 -8.4375,-2.46094 -3.32816,7e-5 -6.21097,0.82038 -8.64844,2.46094 -2.43753,1.64069 -4.45315,3.84381 -6.04688,6.60937 -1.54689,2.76568 -2.69533,5.95318 -3.44531,9.5625 -0.75002,3.60942 -1.12502,7.38286 -1.125,11.32032 -2e-5,3.89065 0.37498,7.64065 1.125,11.25 0.79686,3.60939 1.99217,6.79689 3.58594,9.5625 1.59372,2.76563 3.58591,4.99219 5.97656,6.67968 2.39059,1.64064 5.20309,2.46095 8.4375,2.46094 3.28121,10e-6 6.14058,-0.8203 8.57813,-2.46094 2.43745,-1.64061 4.42963,-3.84373 5.97656,-6.60937 1.59369,-2.76561 2.76557,-5.95311 3.51562,-9.5625 0.79682,-3.60935 1.19526,-7.38278 1.19532,-11.32031"
         style="font-size:144px;font-weight:bold;text-align:center;text-anchor:middle;fill:url(#radialGradient3840);stroke:url(#radialGradient3842);-inkscape-font-specification:Abyssinica SIL Bold"
         id="path3778"
         inkscape:connector-curvature="0" />
      <path
         d="m 388.13281,273.94531 0,-8.22656 c -1.2188,0.93751 -2.7188,1.99219 -4.5,3.16406 -1.73442,1.17188 -3.63286,2.27344 -5.69531,3.30469 -2.01567,0.98438 -4.14848,1.80469 -6.39844,2.46094 -2.20316,0.70312 -4.35941,1.05468 -6.46875,1.05468 -3.09378,0 -5.88284,-0.46875 -8.36719,-1.40625 -2.43752,-0.89062 -4.52345,-2.27343 -6.25781,-4.14843 -1.68751,-1.92187 -3.00001,-4.33593 -3.9375,-7.24219 -0.89064,-2.95311 -1.33595,-6.46873 -1.33594,-10.54688 l 0,-39.02343 -10.05468,0 0,-4.92188 17.71875,-5.625 5.76562,0 0,46.82813 c -2e-5,2.53127 0.23435,4.8047 0.70313,6.82031 0.51559,2.01564 1.31247,3.72658 2.39062,5.13281 1.12497,1.40626 2.5781,2.48439 4.35938,3.23438 1.78121,0.70313 3.93746,1.05469 6.46875,1.05468 1.45308,10e-6 2.92964,-0.14061 4.42968,-0.42187 1.49996,-0.28124 2.92964,-0.6328 4.28907,-1.05469 1.35932,-0.46874 2.62495,-0.93749 3.79687,-1.40625 1.2187,-0.51561 2.24995,-0.98436 3.09375,-1.40625 l 0,-48.23437 -10.125,0 0,-4.92188 17.57813,-5.625 5.90625,0 0,61.94531 c -7e-5,0.89064 0.30462,1.6172 0.91406,2.17969 0.65618,0.56251 1.40618,0.89063 2.25,0.98438 l 6.32812,0.42187 0,5.625 -22.85156,0"
         style="font-size:144px;font-weight:bold;text-align:center;text-anchor:middle;fill:url(#radialGradient3844);stroke:url(#radialGradient3846);-inkscape-font-specification:Abyssinica SIL Bold"
         id="path3780"
         inkscape:connector-curvature="0" />
      <path
         d="m 489.24219,238.22656 c -8e-5,5.67191 -0.84383,10.82815 -2.53125,15.46875 -1.6407,4.59377 -4.03132,8.53126 -7.17188,11.8125 -3.09381,3.23438 -6.91412,5.74219 -11.46094,7.52344 -4.50004,1.78125 -9.58598,2.67187 -15.25781,2.67187 -1.31254,0 -2.71878,-0.0703 -4.21875,-0.21093 -1.50003,-0.0937 -2.88284,-0.23438 -4.14844,-0.42188 -1.50002,-0.1875 -2.97659,-0.42187 -4.42968,-0.70312 l 0,21.44531 c -3e-5,0.8906 0.30466,1.59373 0.91406,2.10937 0.60935,0.51561 1.35935,0.82029 2.25,0.91407 l 8.50781,0.91406 0,5.55469 -35.01562,0 0,-5.55469 6.89062,-0.91406 c 0.89062,-0.0938 1.61718,-0.39846 2.17969,-0.91407 0.56249,-0.51564 0.84374,-1.21877 0.84375,-2.10937 l 0,-81.07031 -9.91406,0 0,-4.71094 17.71875,-5.48438 5.625,0 0,7.17188 c 2.06247,-1.64056 4.26559,-3.11712 6.60937,-4.42969 2.01559,-1.12493 4.3359,-2.15618 6.96094,-3.09375 2.62496,-0.93743 5.3437,-1.40618 8.15625,-1.40625 3.70307,7e-5 7.21869,0.84382 10.54687,2.53125 3.32807,1.68757 6.23432,4.07819 8.71875,7.17188 2.53119,3.09381 4.52337,6.82036 5.97657,11.17968 1.49992,4.35943 2.24992,9.21098 2.25,14.55469 m -14.41407,2.03906 c -6e-5,-3.70308 -0.44537,-7.19527 -1.33593,-10.47656 -0.84381,-3.32808 -2.10944,-6.23432 -3.79688,-8.71875 -1.68755,-2.53119 -3.79692,-4.52338 -6.32812,-5.97656 -2.48442,-1.45306 -5.36723,-2.17963 -8.64844,-2.17969 -1.82816,6e-5 -3.63285,0.23444 -5.41406,0.70313 -1.73441,0.46881 -3.28128,0.96099 -4.64063,1.47656 -1.59378,0.60943 -3.14065,1.31256 -4.64062,2.10937 l 0,49.57032 c 1.12497,0.42188 2.32028,0.79688 3.58593,1.125 1.0781,0.28125 2.32029,0.53907 3.72657,0.77343 1.40621,0.23439 2.85934,0.35157 4.35937,0.35157 3.93746,0 7.35933,-0.79687 10.26563,-2.39063 2.9062,-1.59374 5.29682,-3.70311 7.17187,-6.32812 1.92182,-2.67186 3.35151,-5.74217 4.28906,-9.21094 0.93744,-3.46872 1.40619,-7.0781 1.40625,-10.82813"
         style="font-size:144px;font-weight:bold;text-align:center;text-anchor:middle;fill:url(#radialGradient3848);stroke:url(#radialGradient3850);-inkscape-font-specification:Abyssinica SIL Bold"
         id="path3782"
         inkscape:connector-curvature="0" />
      <path
         d="m 186.33594,453.94531 0,-6.1875 8.36718,-0.5625 c 1.03124,-0.0937 1.78124,-0.46874 2.25,-1.125 0.51561,-0.65624 0.77343,-1.33593 0.77344,-2.03906 l 0,-76.78125 c -1e-5,-0.70304 -0.25783,-1.38272 -0.77344,-2.03906 -0.46876,-0.65616 -1.21876,-1.03116 -2.25,-1.125 l -8.36718,-0.5625 0,-6.1875 36.77343,0 0,6.1875 -7.66406,0.5625 c -1.03128,0.0938 -1.82815,0.46884 -2.39062,1.125 -0.51566,0.65634 -0.77347,1.33602 -0.77344,2.03906 l 0,79.66406 30.23437,0 c 0.65619,10e-6 1.31244,-0.23437 1.96875,-0.70312 0.70307,-0.51562 1.1015,-1.10156 1.19532,-1.75782 L 248,427.15625 l 8.36719,0 0,26.78906 -70.03125,0"
         style="font-size:144px;font-weight:bold;text-align:center;text-anchor:middle;fill:url(#radialGradient3852);stroke:url(#radialGradient3854);-inkscape-font-specification:Abyssinica SIL Bold"
         id="path3784"
         inkscape:connector-curvature="0" />
      <path
         d="m 290.32812,360.78125 c -3e-5,1.21884 -0.2344,2.39072 -0.70312,3.51562 -0.42191,1.07822 -1.03128,2.01572 -1.82813,2.8125 -0.7969,0.79697 -1.7344,1.42978 -2.8125,1.89844 -1.03127,0.46884 -2.15627,0.70321 -3.375,0.70313 -1.21877,8e-5 -2.39064,-0.23429 -3.51562,-0.70313 -1.07814,-0.46866 -2.01564,-1.10147 -2.8125,-1.89844 -0.79689,-0.79678 -1.4297,-1.73428 -1.89844,-2.8125 -0.46876,-1.1249 -0.70314,-2.29678 -0.70312,-3.51562 -2e-5,-1.21866 0.23436,-2.36709 0.70312,-3.44531 0.46874,-1.07803 1.10155,-2.01553 1.89844,-2.8125 0.79686,-0.79678 1.73436,-1.40615 2.8125,-1.82813 1.12498,-0.46865 2.29685,-0.70302 3.51562,-0.70312 1.21873,1e-4 2.34373,0.23447 3.375,0.70312 1.0781,0.42198 2.0156,1.03135 2.8125,1.82813 0.79685,0.79697 1.40622,1.73447 1.82813,2.8125 0.46872,1.07822 0.70309,2.22665 0.70312,3.44531 m -26.4375,93.16406 0,-5.625 7.03125,-0.42187 c 0.89062,-0.0937 1.61718,-0.42187 2.17969,-0.98438 0.56249,-0.56249 0.84374,-1.28905 0.84375,-2.17969 l 0,-51.39843 -9.91406,0 0,-5.0625 17.57812,-5.48438 5.69532,0 0,61.94531 c -3e-5,0.89064 0.28122,1.6172 0.84375,2.17969 0.60934,0.56251 1.3359,0.89063 2.17968,0.98438 l 7.38282,0.42187 0,5.625 -33.82032,0"
         style="font-size:144px;font-weight:bold;text-align:center;text-anchor:middle;fill:url(#radialGradient3856);stroke:url(#radialGradient3858);-inkscape-font-specification:Abyssinica SIL Bold"
         id="path3786"
         inkscape:connector-curvature="0" />
      <path
         d="m 354.94531,433.0625 c -5e-5,3.51564 -0.63286,6.6797 -1.89844,9.49219 -1.26567,2.81251 -3.07035,5.20313 -5.41406,7.17187 -2.34379,1.92188 -5.2266,3.39844 -8.64844,4.42969 -3.4219,1.03125 -7.26565,1.54687 -11.53125,1.54687 -2.20314,0 -4.35939,-0.14062 -6.46875,-0.42187 -2.06251,-0.23438 -3.98438,-0.5625 -5.76562,-0.98438 -1.73439,-0.37499 -3.28126,-0.77343 -4.64063,-1.19531 -1.35938,-0.42187 -2.39063,-0.77343 -3.09375,-1.05469 l 0,-19.125 7.3125,0 1.75782,12.23438 c 1.45311,0.93751 3.23436,1.85157 5.34375,2.74219 2.15623,0.84375 4.6406,1.26563 7.45312,1.26562 2.06247,10e-6 3.8906,-0.30468 5.48438,-0.91406 1.59371,-0.65624 2.92965,-1.49999 4.00781,-2.53125 1.12496,-1.03124 1.96871,-2.20311 2.53125,-3.51563 0.60934,-1.35936 0.91402,-2.76561 0.91406,-4.21875 -4e-5,-2.0156 -0.39847,-3.72654 -1.19531,-5.13281 -0.79691,-1.4531 -1.94535,-2.74216 -3.44531,-3.86719 -1.50004,-1.17184 -3.3516,-2.29684 -5.55469,-3.375 -2.15628,-1.07809 -4.61721,-2.29684 -7.38281,-3.65625 -2.62502,-1.26559 -4.94533,-2.50777 -6.96094,-3.72656 -2.01564,-1.26559 -3.72657,-2.60152 -5.13281,-4.00781 -1.35939,-1.45308 -2.39064,-3.02339 -3.09375,-4.71094 -0.70313,-1.73433 -1.0547,-3.67964 -1.05469,-5.83594 -10e-6,-3.18744 0.56249,-6.07025 1.6875,-8.64843 1.17187,-2.57807 2.85936,-4.75775 5.0625,-6.53907 2.20311,-1.82805 4.89842,-3.2343 8.08594,-4.21875 3.23435,-0.9843 6.93747,-1.47649 11.10937,-1.47656 2.10934,7e-5 4.12497,0.11726 6.04688,0.35156 1.92183,0.23445 3.67964,0.5157 5.27343,0.84375 1.59371,0.3282 2.99996,0.67976 4.21875,1.05469 1.21871,0.37507 2.17964,0.72663 2.88282,1.05469 l 0,17.01562 -7.52344,0 -1.125,-10.05468 c -1.03129,-0.79682 -2.55473,-1.54682 -4.57031,-2.25 -2.01566,-0.70306 -4.14847,-1.05463 -6.39844,-1.05469 -3.9844,6e-5 -6.93752,0.91413 -8.85938,2.74219 -1.87501,1.78131 -2.81251,4.07818 -2.8125,6.89062 -1e-5,1.64068 0.2578,3.07037 0.77344,4.28906 0.56248,1.2188 1.45311,2.36724 2.67188,3.44532 1.2656,1.07817 2.90622,2.17973 4.92187,3.30468 2.06247,1.12505 4.61716,2.39067 7.66406,3.79688 2.53122,1.12504 4.85153,2.29691 6.96094,3.51562 2.10933,1.21879 3.93746,2.57816 5.48438,4.07813 1.54682,1.50003 2.74213,3.16409 3.58593,4.99219 0.89058,1.82815 1.33589,3.91408 1.33594,6.25781"
         style="font-size:144px;font-weight:bold;text-align:center;text-anchor:middle;fill:url(#radialGradient3860);stroke:url(#radialGradient3862);-inkscape-font-specification:Abyssinica SIL Bold"
         id="path3788"
         inkscape:connector-curvature="0" />
      <path
         d="m 407.89062,450.92187 c -1.78129,0.89063 -3.7266,1.68751 -5.83593,2.39063 -1.78129,0.60938 -3.84379,1.14844 -6.1875,1.61719 -2.34379,0.51562 -4.80472,0.77343 -7.38282,0.77343 -5.43752,0 -9.37501,-1.26562 -11.8125,-3.79687 -2.43751,-2.53125 -3.65626,-6.65624 -3.65625,-12.375 l 0,-47.8125 -9.21093,0 0,-4.71094 9.84375,-4.64062 6.46875,-15.25782 6.32812,0 0,17.4375 20.32031,0 0,7.17188 -20.32031,0 0,40.21875 c -2e-5,2.85939 0.23435,5.29689 0.70313,7.3125 0.51559,1.96876 1.24216,3.58595 2.17968,4.85156 0.98435,1.21876 2.17966,2.10939 3.58594,2.67188 1.45309,0.5625 3.14059,0.84375 5.0625,0.84375 1.40621,0 2.69527,-0.11718 3.86719,-0.35157 1.21871,-0.23436 2.27339,-0.51561 3.16406,-0.84375 1.03121,-0.37499 1.99214,-0.79686 2.88281,-1.26562 l 0,5.76562"
         style="font-size:144px;font-weight:bold;text-align:center;text-anchor:middle;fill:url(#radialGradient3864);stroke:url(#radialGradient3866);-inkscape-font-specification:Abyssinica SIL Bold"
         id="path3790"
         inkscape:connector-curvature="0" />
    </g>
  </g>
</svg>
