<?xml version="1.0" encoding="UTF-8" standalone="no"?>
<!-- Created with Inkscape (http://www.inkscape.org/) -->

<svg
   xmlns:dc="http://purl.org/dc/elements/1.1/"
   xmlns:cc="http://creativecommons.org/ns#"
   xmlns:rdf="http://www.w3.org/1999/02/22-rdf-syntax-ns#"
   xmlns:svg="http://www.w3.org/2000/svg"
   xmlns="http://www.w3.org/2000/svg"
   xmlns:xlink="http://www.w3.org/1999/xlink"
   xmlns:sodipodi="http://sodipodi.sourceforge.net/DTD/sodipodi-0.dtd"
   xmlns:inkscape="http://www.inkscape.org/namespaces/inkscape"
   width="705.46503"
   height="703.15131"
   id="svg3253"
   version="1.1"
   inkscape:version="0.48.4 r9939"
   sodipodi:docname="sent_mail_all.svg">
  <defs
     id="defs3255">
    <linearGradient
       id="linearGradient3780">
      <stop
         style="stop-color:#e3dd00;stop-opacity:1;"
         offset="0"
         id="stop3782" />
      <stop
         style="stop-color:#e3f700;stop-opacity:1;"
         offset="1"
         id="stop3784" />
    </linearGradient>
    <linearGradient
       inkscape:collect="always"
       xlink:href="#linearGradient3780"
       id="linearGradient3786"
       x1="179.40826"
       y1="656.09424"
       x2="646.30597"
       y2="96.094254"
       gradientUnits="userSpaceOnUse" />
  </defs>
  <sodipodi:namedview
     id="base"
     pagecolor="#ffffff"
     bordercolor="#666666"
     borderopacity="1.0"
     inkscape:pageopacity="0.0"
     inkscape:pageshadow="2"
     inkscape:zoom="0.59105127"
     inkscape:cx="354.76936"
     inkscape:cy="212.90475"
     inkscape:document-units="px"
     inkscape:current-layer="layer1"
     showgrid="false"
     inkscape:window-width="1440"
     inkscape:window-height="824"
     inkscape:window-x="0"
     inkscape:window-y="24"
     inkscape:window-maximized="1"
     fit-margin-top="130"
     fit-margin-left="5"
     fit-margin-right="5"
     fit-margin-bottom="130" />
  <metadata
     id="metadata3258">
    <rdf:RDF>
      <cc:Work
         rdf:about="">
        <dc:format>image/svg+xml</dc:format>
        <dc:type
           rdf:resource="http://purl.org/dc/dcmitype/StillImage" />
        <dc:title />
      </cc:Work>
    </rdf:RDF>
  </metadata>
  <g
     inkscape:label="Layer 1"
     inkscape:groupmode="layer"
     id="layer1"
     transform="translate(-17.277881,-35.934507)">
    <path
       inkscape:connector-curvature="0"
       id="path3773-3"
       style="fill:url(#linearGradient3786);fill-opacity:1;stroke:#110b02;stroke-width:4;stroke-linecap:round;stroke-linejoin:round;stroke-miterlimit:4;stroke-opacity:1;stroke-dasharray:none"
       d="M 219.35095,295.24217 622.2096,293.8034 z m 2.28461,-123.57405 -0.24695,122.18689 z M 24.265408,474.84492 223.77252,295.08929 z m 8.138954,-2.03476 c 0,0 190.920258,-24.30257 286.898848,-24.41694 90.51493,-0.10797 270.62093,22.38223 270.62093,22.38223 0,0 -180.66114,-42.74879 -272.65564,-42.72966 -96.11996,0.0202 -284.864138,44.76437 -284.864138,44.76437 z m 553.450298,134.29316 128.18888,-221.7871 -2.0348,-211.61334 2.0348,207.54382 z M 26.643805,341.30218 219.33789,167.94232 l 496.39669,0 -129.85905,184.1949 2.09454,254.62238 -561.326265,-2.7087 z" />
    <g
       transform="matrix(4.0285871,0,0,4.0285871,-2209.4804,-127.21012)"
       style="font-size:12px;font-style:normal;font-variant:normal;font-weight:normal;font-stretch:normal;text-align:start;line-height:125%;letter-spacing:0px;word-spacing:0px;writing-mode:lr-tb;text-anchor:start;fill:#110b02;fill-opacity:1;stroke:#110b02;stroke-width:0.74467796;stroke-miterlimit:4;stroke-opacity:1;stroke-dasharray:none;font-family:Sans;-inkscape-font-specification:Sans"
       id="flowRoot3817">
      <path
         d="m 624.77734,135.4918 -9.05859,0 0,-0.91406 c 0.42186,-0.0312 0.91796,-0.10547 1.48828,-0.22266 0.5703,-0.125 0.85546,-0.27734 0.85547,-0.45703 -10e-6,-0.0625 -0.008,-0.13281 -0.0234,-0.21094 -0.008,-0.0781 -0.0391,-0.18359 -0.0937,-0.3164 l -1.41797,-3.44531 -5.74218,0 c -0.13282,0.32031 -0.28126,0.69531 -0.44532,1.125 -0.15625,0.42969 -0.29297,0.8125 -0.41015,1.14843 -0.14844,0.43751 -0.23829,0.75391 -0.26953,0.94922 -0.0234,0.19532 -0.0352,0.33204 -0.0352,0.41016 0,0.25 0.1875,0.46484 0.5625,0.64453 0.38281,0.17188 1.01562,0.29688 1.89844,0.375 l 0,0.91406 -6.82032,0 0,-0.91406 c 0.25782,-0.0156 0.54688,-0.0547 0.86719,-0.11719 0.32813,-0.0703 0.58594,-0.16406 0.77344,-0.28125 0.32031,-0.1875 0.58984,-0.41796 0.80859,-0.6914 0.22656,-0.27344 0.41406,-0.59766 0.5625,-0.97266 0.90625,-2.19531 1.8125,-4.39452 2.71875,-6.59766 0.91406,-2.20311 1.92187,-4.63279 3.02344,-7.28906 l 2.34375,0 c 1.53124,3.76564 2.73046,6.7422 3.59766,8.92969 0.86717,2.1875 1.60545,4 2.21484,5.4375 0.10155,0.23438 0.23045,0.44922 0.38672,0.64453 0.15623,0.1875 0.37889,0.36719 0.66797,0.53906 0.21873,0.125 0.47264,0.21875 0.76172,0.28125 0.28904,0.0625 0.55076,0.10157 0.78515,0.11719 l 0,0.91406 m -8.73047,-6.72656 -2.41406,-6.02344 -2.3789,6.02344 4.79296,0"
         style="font-size:24px;font-weight:bold;text-align:center;text-anchor:middle;fill:#110b02;fill-opacity:1;stroke:#110b02;stroke-width:0.74467796;stroke-miterlimit:4;stroke-dasharray:none;font-family:Georgia;-inkscape-font-specification:Georgia Bold"
         id="path2990"
         inkscape:connector-curvature="0" />
      <path
         d="m 631.92578,135.4918 -7.34766,0 0,-0.85547 c 0.20313,-0.0156 0.39844,-0.0351 0.58594,-0.0586 0.19531,-0.0234 0.36719,-0.0625 0.51563,-0.11719 0.25,-0.0937 0.41796,-0.22656 0.5039,-0.39844 0.0937,-0.17968 0.14063,-0.41406 0.14063,-0.70312 l 0,-12.98438 c 0,-0.29685 -0.0625,-0.57029 -0.1875,-0.82031 -0.11719,-0.25779 -0.27735,-0.45311 -0.48047,-0.58594 -0.15625,-0.10154 -0.39453,-0.1992 -0.71484,-0.29296 -0.3125,-0.0937 -0.58985,-0.14842 -0.83204,-0.16407 l 0,-0.85547 5.89454,-0.30468 0.17578,0.1875 0,15.66797 c -1e-5,0.28906 0.0508,0.52344 0.15234,0.70312 0.10156,0.17969 0.26562,0.32031 0.49219,0.42188 0.15624,0.0703 0.3203,0.13281 0.49219,0.1875 0.17186,0.0547 0.37499,0.0937 0.60937,0.11718 l 0,0.85547"
         style="font-size:24px;font-weight:bold;text-align:center;text-anchor:middle;fill:#110b02;fill-opacity:1;stroke:#110b02;stroke-width:0.74467796;stroke-miterlimit:4;stroke-dasharray:none;font-family:Georgia;-inkscape-font-specification:Georgia Bold"
         id="path2992"
         inkscape:connector-curvature="0" />
      <path
         d="m 640.17578,135.4918 -7.34766,0 0,-0.85547 c 0.20313,-0.0156 0.39844,-0.0351 0.58594,-0.0586 0.19531,-0.0234 0.36719,-0.0625 0.51563,-0.11719 0.25,-0.0937 0.41796,-0.22656 0.5039,-0.39844 0.0937,-0.17968 0.14063,-0.41406 0.14063,-0.70312 l 0,-12.98438 c 0,-0.29685 -0.0625,-0.57029 -0.1875,-0.82031 -0.11719,-0.25779 -0.27735,-0.45311 -0.48047,-0.58594 -0.15625,-0.10154 -0.39453,-0.1992 -0.71484,-0.29296 -0.3125,-0.0937 -0.58985,-0.14842 -0.83204,-0.16407 l 0,-0.85547 5.89454,-0.30468 0.17578,0.1875 0,15.66797 c -1e-5,0.28906 0.0508,0.52344 0.15234,0.70312 0.10156,0.17969 0.26562,0.32031 0.49219,0.42188 0.15624,0.0703 0.3203,0.13281 0.49219,0.1875 0.17186,0.0547 0.37499,0.0937 0.60937,0.11718 l 0,0.85547"
         style="font-size:24px;font-weight:bold;text-align:center;text-anchor:middle;fill:#110b02;fill-opacity:1;stroke:#110b02;stroke-width:0.74467796;stroke-miterlimit:4;stroke-dasharray:none;font-family:Georgia;-inkscape-font-specification:Georgia Bold"
         id="path2994"
         inkscape:connector-curvature="0" />
      <path
         d="m 572.5,169.53712 c -1.01563,0 -1.96485,-0.125 -2.84766,-0.375 -0.875,-0.25 -1.61719,-0.54687 -2.22656,-0.89062 l -0.80859,0.82031 -0.9961,0 -0.15234,-6.01172 1.00781,0 c 0.22656,0.57032 0.51563,1.17188 0.86719,1.80469 0.35156,0.63281 0.75781,1.19922 1.21875,1.69922 0.47656,0.52344 1.00781,0.94922 1.59375,1.27734 0.59374,0.32813 1.28515,0.49219 2.07422,0.49219 1.06249,0 1.87499,-0.25781 2.4375,-0.77344 0.5703,-0.52344 0.85546,-1.17969 0.85547,-1.96875 -1e-5,-0.64843 -0.2422,-1.1914 -0.72657,-1.62891 -0.47657,-0.4453 -1.21875,-0.82812 -2.22656,-1.14843 -0.65625,-0.21094 -1.26172,-0.40625 -1.8164,-0.58594 -0.54688,-0.17968 -1.06251,-0.36328 -1.54688,-0.55078 -1.11719,-0.44531 -1.94922,-1.08203 -2.49609,-1.91016 -0.53907,-0.82811 -0.8086,-1.75389 -0.8086,-2.77734 0,-0.64843 0.14063,-1.26952 0.42188,-1.86328 0.28125,-0.60155 0.6914,-1.14061 1.23047,-1.61719 0.51562,-0.4453 1.17577,-0.80858 1.98047,-1.08985 0.80468,-0.28123 1.67968,-0.42185 2.625,-0.42187 0.92186,2e-5 1.78514,0.12892 2.58984,0.38672 0.80468,0.25001 1.43749,0.50392 1.89844,0.76172 l 0.71484,-0.70313 1.01953,0 0.0937,5.67188 -1.00781,0 c -0.23439,-0.60937 -0.51173,-1.23046 -0.83203,-1.86328 -0.31251,-0.64062 -0.64454,-1.17187 -0.9961,-1.59375 -0.38282,-0.45311 -0.82422,-0.81249 -1.32421,-1.07813 -0.50001,-0.27342 -1.08595,-0.41014 -1.75782,-0.41016 -0.84375,2e-5 -1.53516,0.2383 -2.07422,0.71485 -0.53125,0.47658 -0.79687,1.06642 -0.79687,1.76953 0,0.66407 0.23046,1.20704 0.69141,1.62891 0.46874,0.42188 1.1953,0.79298 2.17968,1.11328 0.57812,0.19532 1.16796,0.39063 1.76953,0.58593 0.60156,0.19533 1.13671,0.38283 1.60547,0.5625 1.1328,0.43751 1.99218,1.04298 2.57813,1.81641 0.59373,0.76563 0.89061,1.71876 0.89062,2.85938 -10e-6,0.71875 -0.16798,1.41406 -0.5039,2.08593 -0.33595,0.67188 -0.78908,1.23047 -1.35938,1.67578 -0.62501,0.49219 -1.34767,0.8711 -2.16797,1.13672 -0.82032,0.26563 -1.77735,0.39844 -2.87109,0.39844"
         style="text-align:center;text-anchor:middle;fill:#110b02;fill-opacity:1;stroke:#110b02;stroke-width:0.74467796;stroke-miterlimit:4;stroke-dasharray:none;font-family:Georgia;-inkscape-font-specification:Georgia Bold"
         id="path2996"
         inkscape:connector-curvature="0" />
      <path
         d="m 593.55859,166.29103 c -0.27345,0.44531 -0.60548,0.86719 -0.99609,1.26562 -0.38282,0.39063 -0.82032,0.72657 -1.3125,1.00781 -0.52345,0.29688 -1.0547,0.51954 -1.59375,0.66797 -0.53126,0.15625 -1.14454,0.23438 -1.83984,0.23438 -1.15626,0 -2.15626,-0.16406 -3,-0.49219 -0.83594,-0.32812 -1.52735,-0.76953 -2.07422,-1.32422 -0.54688,-0.55468 -0.95704,-1.20703 -1.23047,-1.95703 -0.26563,-0.75781 -0.39844,-1.57812 -0.39844,-2.46094 0,-0.79686 0.14453,-1.55858 0.43359,-2.28515 0.29688,-0.73437 0.71485,-1.38671 1.25391,-1.95703 0.53125,-0.55468 1.19922,-1.0039 2.00391,-1.34766 0.81249,-0.34374 1.71874,-0.51561 2.71875,-0.51563 1.09374,2e-5 1.99218,0.13283 2.69531,0.39844 0.70311,0.26564 1.28515,0.63283 1.74609,1.10156 0.4453,0.44533 0.76952,0.97267 0.97266,1.58204 0.20311,0.60157 0.30467,1.23438 0.30469,1.89843 l 0,0.76172 -7.92188,0 c 0,1.60157 0.30859,2.82032 0.92578,3.65625 0.61718,0.83594 1.59765,1.25391 2.94141,1.25391 0.73437,0 1.39452,-0.19922 1.98047,-0.59766 0.58592,-0.40625 1.08592,-0.91796 1.5,-1.53515 l 0.89062,0.64453 m -4.47656,-4.45313 c -10e-6,-0.46874 -0.0235,-0.94921 -0.0703,-1.4414 -0.0469,-0.49218 -0.12892,-0.89453 -0.2461,-1.20704 -0.13282,-0.36717 -0.31641,-0.64452 -0.55078,-0.83203 -0.22657,-0.18749 -0.51563,-0.28124 -0.86718,-0.28125 -0.60157,1e-5 -1.08204,0.3047 -1.44141,0.91407 -0.35938,0.60938 -0.55469,1.57422 -0.58594,2.89453 l 3.76172,-0.0469"
         style="text-align:center;text-anchor:middle;fill:#110b02;fill-opacity:1;stroke:#110b02;stroke-width:0.74467796;stroke-miterlimit:4;stroke-dasharray:none;font-family:Georgia;-inkscape-font-specification:Georgia Bold"
         id="path2998"
         inkscape:connector-curvature="0" />
      <path
         d="m 610.16406,169.09181 -7.05469,0 0,-0.85547 c 0.14843,-0.0156 0.32812,-0.0352 0.53907,-0.0586 0.21093,-0.0234 0.37108,-0.0625 0.48047,-0.11719 0.16405,-0.0859 0.28124,-0.21094 0.35156,-0.375 0.0703,-0.16406 0.10546,-0.40625 0.10547,-0.72656 l 0,-5.48438 c -1e-5,-0.79687 -0.14845,-1.39452 -0.44532,-1.79297 -0.28907,-0.40624 -0.71875,-0.60936 -1.28906,-0.60937 -0.31251,1e-5 -0.60547,0.0469 -0.8789,0.14062 -0.26564,0.0938 -0.52735,0.23048 -0.78516,0.41016 -0.22657,0.15626 -0.41016,0.31641 -0.55078,0.48047 -0.13282,0.16407 -0.2461,0.3086 -0.33985,0.43359 l 0,6.29297 c 0,0.27344 0.0391,0.50391 0.11719,0.69141 0.0781,0.17968 0.20703,0.3164 0.38672,0.41015 0.12499,0.0703 0.28124,0.13282 0.46875,0.1875 0.18749,0.0547 0.37109,0.0937 0.55078,0.11719 l 0,0.85547 -7.125,0 0,-0.85547 c 0.19531,-0.0156 0.39063,-0.0352 0.58594,-0.0586 0.20312,-0.0312 0.375,-0.0703 0.51562,-0.11719 0.25,-0.0859 0.42188,-0.21875 0.51563,-0.39844 0.0937,-0.17968 0.14062,-0.41406 0.14062,-0.70312 l 0,-6.82032 c 0,-0.24217 -0.0625,-0.48046 -0.1875,-0.71484 -0.125,-0.23437 -0.28906,-0.42577 -0.49218,-0.57422 -0.14063,-0.0937 -0.32032,-0.17186 -0.53907,-0.23437 -0.21093,-0.0625 -0.44531,-0.10546 -0.70312,-0.12891 l 0,-0.85547 5.58984,-0.30469 0.17578,0.17578 0,1.69922 0.0469,0 c 0.21874,-0.1953 0.48437,-0.42967 0.79687,-0.70312 0.3125,-0.27343 0.60156,-0.49608 0.86719,-0.66797 0.28906,-0.18749 0.66796,-0.34764 1.13672,-0.48047 0.46874,-0.1328 0.96874,-0.19921 1.5,-0.19922 1.27343,10e-6 2.22655,0.36329 2.85938,1.08985 0.64061,0.71876 0.96092,1.67579 0.96093,2.87109 l 0,5.74219 c -1e-5,0.28906 0.043,0.51953 0.12891,0.6914 0.0859,0.17188 0.24608,0.3086 0.48047,0.41016 0.12498,0.0547 0.27733,0.10938 0.45703,0.16406 0.18748,0.0547 0.39842,0.0937 0.63281,0.11719 l 0,0.85547"
         style="text-align:center;text-anchor:middle;fill:#110b02;fill-opacity:1;stroke:#110b02;stroke-width:0.74467796;stroke-miterlimit:4;stroke-dasharray:none;font-family:Georgia;-inkscape-font-specification:Georgia Bold"
         id="path3000"
         inkscape:connector-curvature="0" />
      <path
         d="m 619.96094,168.55275 c -0.50001,0.21875 -1.03517,0.41406 -1.60547,0.58593 -0.57032,0.17969 -1.26563,0.26953 -2.08594,0.26953 -1.21875,0 -2.125,-0.29687 -2.71875,-0.89062 -0.58594,-0.59375 -0.87891,-1.4414 -0.87891,-2.54297 l 0,-7.19531 -2.10937,0 0,-1.26563 2.15625,0 0,-3.55078 3.80859,0 0,3.55078 3.28125,0 0,1.26563 -3.25781,0 0,6.42187 c 0,0.91407 0.125,1.56251 0.375,1.94532 0.25781,0.38281 0.71484,0.57422 1.37109,0.57421 0.21093,1e-5 0.5039,-0.0156 0.87891,-0.0469 0.37499,-0.0312 0.63671,-0.0664 0.78516,-0.10547 l 0,0.98438"
         style="text-align:center;text-anchor:middle;fill:#110b02;fill-opacity:1;stroke:#110b02;stroke-width:0.74467796;stroke-miterlimit:4;stroke-dasharray:none;font-family:Georgia;-inkscape-font-specification:Georgia Bold"
         id="path3002"
         inkscape:connector-curvature="0" />
      <path
         d="m 649.87891,169.09181 -9.01172,0 0,-0.91406 c 0.26561,-0.0234 0.58983,-0.0625 0.97265,-0.11719 0.39061,-0.0547 0.65624,-0.11328 0.79688,-0.17578 0.28904,-0.11719 0.49608,-0.27735 0.62109,-0.48047 0.12499,-0.20312 0.18749,-0.46094 0.1875,-0.77344 l 0,-12.42187 -5.71875,14.61328 -1.47656,0 c -0.0703,-0.25781 -0.2461,-0.76953 -0.52734,-1.53516 -0.27345,-0.76562 -0.49611,-1.3789 -0.66797,-1.83984 l -4.20703,-11.42578 0,10.11328 c -10e-6,0.96875 0.0625,1.70703 0.1875,2.21484 0.1328,0.5 0.34374,0.86719 0.63281,1.10156 0.19531,0.16407 0.54296,0.32032 1.04297,0.46875 0.5078,0.14844 0.86327,0.23438 1.0664,0.25782 l 0,0.91406 -7.14843,0 0,-0.91406 c 0.19531,-0.0234 0.51171,-0.0742 0.94921,-0.15235 0.44532,-0.0859 0.8086,-0.23047 1.08985,-0.43359 0.3125,-0.21875 0.52343,-0.58594 0.63281,-1.10156 0.10937,-0.52344 0.16406,-1.26563 0.16406,-2.22657 l 0,-8.23828 c 0,-0.49998 -0.0625,-0.91405 -0.1875,-1.24219 -0.125,-0.33592 -0.3125,-0.60154 -0.5625,-0.79687 -0.3125,-0.24217 -0.63281,-0.39842 -0.96093,-0.46875 -0.32813,-0.0703 -0.66016,-0.11717 -0.9961,-0.14063 l 0,-0.91406 7.65235,0 4.10156,10.98047 3.45703,-8.91797 c 0.11717,-0.32811 0.23045,-0.71873 0.33984,-1.17187 0.10936,-0.45311 0.16796,-0.74999 0.17578,-0.89063 l 7.3711,0 0,0.91406 c -0.25002,0.0156 -0.51174,0.0469 -0.78516,0.0937 -0.27346,0.0469 -0.53518,0.1094 -0.78515,0.1875 -0.30471,0.10158 -0.50784,0.26174 -0.60938,0.48047 -0.0938,0.21877 -0.14065,0.46096 -0.14062,0.72657 l 0,11.77734 c -3e-5,0.28125 0.0468,0.51953 0.14062,0.71484 0.10154,0.1875 0.30467,0.35157 0.60938,0.49219 0.15622,0.0703 0.41013,0.13672 0.76171,0.19922 0.35936,0.0625 0.6367,0.10547 0.83204,0.12891 l 0,0.91406"
         style="font-size:24px;font-weight:bold;fill:#110b02;fill-opacity:1;stroke:#110b02;stroke-width:0.74467796;stroke-miterlimit:4;stroke-dasharray:none;font-family:Georgia;-inkscape-font-specification:Georgia Bold"
         id="path3004"
         inkscape:connector-curvature="0" />
      <path
         d="m 664.85547,168.84571 c -0.34376,0.14844 -0.75001,0.28516 -1.21875,0.41016 -0.46876,0.125 -0.96486,0.1875 -1.48828,0.1875 -0.96095,0 -1.66798,-0.14062 -2.1211,-0.42187 -0.45313,-0.28907 -0.76172,-0.69922 -0.92578,-1.23047 l -0.0703,0 c -0.26563,0.26562 -0.52345,0.49219 -0.77344,0.67968 -0.24219,0.18751 -0.50391,0.34766 -0.78515,0.48047 -0.3672,0.17188 -0.72267,0.29688 -1.06641,0.375 -0.33594,0.0859 -0.8086,0.12891 -1.41797,0.12891 -0.90625,0 -1.67969,-0.26563 -2.32031,-0.79688 -0.64063,-0.53906 -0.96094,-1.24999 -0.96094,-2.13281 0,-0.50781 0.0703,-0.93749 0.21094,-1.28906 0.14062,-0.35937 0.33984,-0.67578 0.59765,-0.94922 0.23438,-0.24999 0.50391,-0.45703 0.8086,-0.62109 0.3125,-0.16406 0.65234,-0.3164 1.01953,-0.45703 0.70312,-0.25781 1.54687,-0.52344 2.53125,-0.79688 0.98437,-0.28124 1.70312,-0.53124 2.15625,-0.75 l 0,-1.125 c -10e-6,-0.1953 -0.0156,-0.45312 -0.0469,-0.77344 -0.0312,-0.3203 -0.0977,-0.58983 -0.19921,-0.80859 -0.10939,-0.24999 -0.28126,-0.46093 -0.51563,-0.63281 -0.23438,-0.17187 -0.54297,-0.2578 -0.92578,-0.25782 -0.34376,2e-5 -0.63282,0.0508 -0.86719,0.15235 -0.22657,0.0938 -0.41016,0.19142 -0.55078,0.29297 0.0234,0.15626 0.0898,0.39454 0.19922,0.71484 0.10937,0.32032 0.16406,0.62892 0.16406,0.92578 0,0.13282 -0.0352,0.30079 -0.10547,0.50391 -0.0703,0.19532 -0.17188,0.35157 -0.30468,0.46875 -0.1797,0.15626 -0.38282,0.27735 -0.60938,0.36328 -0.21875,0.0859 -0.5586,0.12891 -1.01953,0.12891 -0.65625,0 -1.15235,-0.15625 -1.48828,-0.46875 -0.33594,-0.32031 -0.50391,-0.73437 -0.50391,-1.24219 0,-0.43749 0.17188,-0.82812 0.51563,-1.17188 0.35156,-0.35155 0.77734,-0.64061 1.27734,-0.86718 0.49218,-0.23437 1.05859,-0.41405 1.69922,-0.53907 0.64062,-0.1328 1.23437,-0.1992 1.78125,-0.19922 0.7578,2e-5 1.45312,0.0469 2.08594,0.14063 0.6328,0.0859 1.20311,0.26954 1.71093,0.55078 0.48437,0.27345 0.86718,0.67189 1.14844,1.19531 0.28905,0.51564 0.43358,1.19142 0.4336,2.02735 -2e-5,0.88282 -0.0195,1.92969 -0.0586,3.14062 -0.0313,1.21094 -0.0469,2.00782 -0.0469,2.39063 -1e-5,0.35156 0.0508,0.62891 0.15234,0.83203 0.10936,0.20312 0.27343,0.35547 0.49219,0.45703 0.1328,0.0625 0.33983,0.10156 0.62109,0.11719 0.28905,0.008 0.55077,0.0117 0.78516,0.0117 l 0,0.85546 m -5.82422,-6.10546 c -0.43751,0.14844 -0.8711,0.32031 -1.30078,0.51562 -0.4297,0.18751 -0.78126,0.38673 -1.05469,0.59766 -0.28907,0.21875 -0.51563,0.5 -0.67969,0.84375 -0.16406,0.33594 -0.24609,0.73438 -0.24609,1.19531 0,0.60938 0.13671,1.05078 0.41016,1.32422 0.28124,0.27344 0.62499,0.41016 1.03125,0.41015 0.42968,1e-5 0.78124,-0.0859 1.05468,-0.25781 0.28125,-0.17968 0.52734,-0.39843 0.73828,-0.65625 l 0.0469,-3.97265"
         style="font-size:24px;font-weight:bold;fill:#110b02;fill-opacity:1;stroke:#110b02;stroke-width:0.74467796;stroke-miterlimit:4;stroke-dasharray:none;font-family:Georgia;-inkscape-font-specification:Georgia Bold"
         id="path3006"
         inkscape:connector-curvature="0" />
      <path
         d="m 673.16406,169.09181 -7.40625,0 0,-0.85547 c 0.20313,-0.0156 0.40235,-0.0352 0.59766,-0.0586 0.19531,-0.0234 0.36328,-0.0625 0.5039,-0.11719 0.25,-0.0937 0.42578,-0.22656 0.52735,-0.39844 0.10156,-0.17968 0.15234,-0.41406 0.15234,-0.70312 l 0,-6.82032 c 0,-0.27342 -0.0625,-0.51171 -0.1875,-0.71484 -0.125,-0.21093 -0.28125,-0.3789 -0.46875,-0.50391 -0.14062,-0.0937 -0.35547,-0.18358 -0.64453,-0.26953 -0.28125,-0.0859 -0.53906,-0.14061 -0.77344,-0.16406 l 0,-0.85547 5.74219,-0.30469 0.17578,0.17578 0,9.30469 c 0,0.27344 0.0586,0.50782 0.17578,0.70313 0.11718,0.1875 0.28515,0.32812 0.50391,0.42187 0.15624,0.0703 0.32812,0.13282 0.51562,0.1875 0.1875,0.0547 0.38281,0.0937 0.58594,0.11719 l 0,0.85547 m -1.71094,-15.98438 c 0,0.59377 -0.23047,1.10158 -0.6914,1.52344 -0.45313,0.41408 -0.99219,0.62111 -1.61719,0.62109 -0.63281,2e-5 -1.17969,-0.20701 -1.64062,-0.62109 -0.45313,-0.42186 -0.67969,-0.92967 -0.67969,-1.52344 0,-0.59373 0.22656,-1.10154 0.67969,-1.52343 0.46093,-0.42186 1.00781,-0.6328 1.64062,-0.63282 0.63281,2e-5 1.17578,0.21096 1.62891,0.63282 0.45312,0.42189 0.67968,0.9297 0.67968,1.52343"
         style="font-size:24px;font-weight:bold;fill:#110b02;fill-opacity:1;stroke:#110b02;stroke-width:0.74467796;stroke-miterlimit:4;stroke-dasharray:none;font-family:Georgia;-inkscape-font-specification:Georgia Bold"
         id="path3008"
         inkscape:connector-curvature="0" />
      <path
         d="m 681.37891,169.09181 -7.34766,0 0,-0.85547 c 0.20312,-0.0156 0.39844,-0.0352 0.58594,-0.0586 0.19531,-0.0234 0.36718,-0.0625 0.51562,-0.11719 0.25,-0.0937 0.41797,-0.22656 0.50391,-0.39844 0.0937,-0.17968 0.14062,-0.41406 0.14062,-0.70312 l 0,-12.98438 c 0,-0.29686 -0.0625,-0.5703 -0.1875,-0.82031 -0.11719,-0.2578 -0.27734,-0.45311 -0.48047,-0.58594 -0.15625,-0.10154 -0.39453,-0.1992 -0.71484,-0.29297 -0.3125,-0.0937 -0.58984,-0.14842 -0.83203,-0.16406 l 0,-0.85547 5.89453,-0.30469 0.17578,0.1875 0,15.66797 c 0,0.28907 0.0508,0.52344 0.15235,0.70313 0.10155,0.17969 0.26561,0.32031 0.49218,0.42187 0.15625,0.0703 0.32031,0.13282 0.49219,0.1875 0.17187,0.0547 0.37499,0.0937 0.60938,0.11719 l 0,0.85547"
         style="font-size:24px;font-weight:bold;fill:#110b02;fill-opacity:1;stroke:#110b02;stroke-width:0.74467796;stroke-miterlimit:4;stroke-dasharray:none;font-family:Georgia;-inkscape-font-specification:Georgia Bold"
         id="path3010"
         inkscape:connector-curvature="0" />
    </g>
    <path
       style="fill:#3b3b3b;fill-opacity:1;stroke:#000000;stroke-width:1px;stroke-linecap:butt;stroke-linejoin:miter;stroke-opacity:1"
       d="m 590.86022,594.96856 -2.16432,-242.4042 121.92353,-175.31017 2.16433,203.44638 z"
       id="path3788"
       inkscape:connector-curvature="0"
       sodipodi:nodetypes="ccccc" />
  </g>
</svg>
