<?xml version="1.0" encoding="UTF-8" standalone="no"?>
<!-- Created with Inkscape (http://www.inkscape.org/) -->

<svg
   xmlns:dc="http://purl.org/dc/elements/1.1/"
   xmlns:cc="http://creativecommons.org/ns#"
   xmlns:rdf="http://www.w3.org/1999/02/22-rdf-syntax-ns#"
   xmlns:svg="http://www.w3.org/2000/svg"
   xmlns="http://www.w3.org/2000/svg"
   xmlns:xlink="http://www.w3.org/1999/xlink"
   xmlns:sodipodi="http://sodipodi.sourceforge.net/DTD/sodipodi-0.dtd"
   xmlns:inkscape="http://www.inkscape.org/namespaces/inkscape"
   width="781.34998"
   height="781.34998"
   id="svg3121"
   version="1.1"
   inkscape:version="0.48.3.1 r9886"
   sodipodi:docname="edit_invoice.svg">
  <defs
     id="defs3123">
    <linearGradient
       id="linearGradient3760">
      <stop
         style="stop-color:#110b02;stop-opacity:1;"
         offset="0"
         id="stop3762" />
      <stop
         style="stop-color:#3b3b3b;stop-opacity:1;"
         offset="1"
         id="stop3764" />
    </linearGradient>
    <linearGradient
       inkscape:collect="always"
       xlink:href="#linearGradient3760"
       id="linearGradient3766"
       x1="80.574059"
       y1="681.88873"
       x2="184.59097"
       y2="681.88873"
       gradientUnits="userSpaceOnUse" />
    <linearGradient
       inkscape:collect="always"
       xlink:href="#linearGradient3760"
       id="linearGradient3774"
       x1="80.574059"
       y1="681.88873"
       x2="184.59097"
       y2="681.88873"
       gradientUnits="userSpaceOnUse" />
  </defs>
  <sodipodi:namedview
     id="base"
     pagecolor="#ffffff"
     bordercolor="#666666"
     borderopacity="1.0"
     inkscape:pageopacity="0.0"
     inkscape:pageshadow="2"
     inkscape:zoom="0.8380932"
     inkscape:cx="182.45249"
     inkscape:cy="387.29107"
     inkscape:document-units="px"
     inkscape:current-layer="layer1"
     showgrid="false"
     inkscape:window-width="1440"
     inkscape:window-height="851"
     inkscape:window-x="0"
     inkscape:window-y="25"
     inkscape:window-maximized="1"
     fit-margin-top="2"
     fit-margin-left="2"
     fit-margin-right="2"
     fit-margin-bottom="2" />
  <metadata
     id="metadata3126">
    <rdf:RDF>
      <cc:Work
         rdf:about="">
        <dc:format>image/svg+xml</dc:format>
        <dc:type
           rdf:resource="http://purl.org/dc/dcmitype/StillImage" />
        <dc:title />
      </cc:Work>
    </rdf:RDF>
  </metadata>
  <g
     inkscape:label="Layer 1"
     inkscape:groupmode="layer"
     id="layer1"
     transform="translate(-17.43747,-147.49371)">
    <rect
       style="fill:#ffffff;stroke:#110b02;stroke-width:4.89643908000000039;stroke-linecap:round;stroke-linejoin:round;stroke-miterlimit:4;stroke-opacity:1;stroke-dasharray:none;fill-opacity:1"
       id="rect3049-0"
       width="670.54199"
       height="756.35541"
       x="70.443321"
       y="163.37491" />
    <g
       transform="matrix(4.2151172,0,0,5.1011882,-67.522601,-2688.873)"
       style="font-size:12px;font-style:normal;font-variant:normal;font-weight:normal;font-stretch:normal;text-align:start;line-height:125%;letter-spacing:0px;word-spacing:0px;writing-mode:lr-tb;text-anchor:start;fill:#145bd5;fill-opacity:1;stroke:#145bd5;stroke-width:0.42237657;stroke-miterlimit:4;stroke-opacity:1;font-family:Sans;-inkscape-font-specification:Sans"
       id="flowRoot3051-7">
      <path
         d="m 64.475375,589.38126 c 0,1.6 -0.576002,2.048 -2.976,2.272 l 0,0.8 11.2,0 0,-0.8 c -2.431998,-0.16 -3.04,-0.608 -3.04,-2.272 l 0,-15.488 c 0,-1.664 0.672002,-2.176 3.04,-2.272 l 0,-0.8 -11.2,0 0,0.8 c 2.303998,0.16 2.976,0.64 2.976,2.272 l 0,15.488"
         style="font-size:32px;font-weight:bold;text-align:center;text-anchor:middle;fill:#145bd5;stroke:#145bd5;font-family:Nimbus Roman No9 L;-inkscape-font-specification:Nimbus Roman No9 L Bold"
         id="path3007" />
      <path
         d="m 80.080875,577.70126 -6.112,0 0,0.768 c 1.407999,0.224 1.696,0.544 1.696,1.888 l 0,9.408 c 0,1.344 -0.256001,1.632 -1.696,1.92 l 0,0.768 7.712,0 0,-0.768 c -1.183999,-0.16 -1.568,-0.64 -1.568,-1.824 l 0,-8.544 c 0,-0.128 0.224,-0.448 0.544,-0.736 0.703999,-0.736 1.472001,-1.12 2.208,-1.12 1.119999,0 1.664,0.864 1.664,2.656 l 0,7.744 c 0,1.184 -0.416001,1.696 -1.504,1.824 l 0,0.768 7.52,0 0,-0.768 c -1.247999,-0.096 -1.568,-0.48 -1.568,-1.824 l 0,-8.032 c 0,-2.752 -1.696003,-4.512 -4.32,-4.512 -1.919998,0 -3.392001,0.896 -4.576,2.784 l 0,-2.4"
         style="font-size:32px;font-weight:bold;text-align:center;text-anchor:middle;fill:#145bd5;stroke:#145bd5;font-family:Nimbus Roman No9 L;-inkscape-font-specification:Nimbus Roman No9 L Bold"
         id="path3009" />
      <path
         d="m 106.62937,577.70126 -4.83199,0 0,0.768 c 1.37599,0.064 1.76,0.288 1.76,1.056 0,0.352 -0.12801,0.864 -0.352,1.44 l -2.304,5.824 -2.528005,-6.496 c -0.224,-0.608 -0.288,-0.8 -0.288,-0.992 0,-0.48 0.320001,-0.704 1.12,-0.768 0.064,0 0.32,-0.032 0.576,-0.064 l 0,-0.768 -8,0 0,0.768 c 0.735999,0.096 0.928,0.192 1.12,0.48 0.064,-0.032 1.568001,3.168 2.08,4.48 l 3.84,9.472 0.832,0 5.120005,-12.672 c 0.60799,-1.408 0.864,-1.664 1.85599,-1.76 l 0,-0.768"
         style="font-size:32px;font-weight:bold;text-align:center;text-anchor:middle;fill:#145bd5;stroke:#145bd5;font-family:Nimbus Roman No9 L;-inkscape-font-specification:Nimbus Roman No9 L Bold"
         id="path3011" />
      <path
         d="m 115.14137,577.31726 c -4.06399,0 -7.232,3.36 -7.232,7.712 0,4.57599 3.04001,7.872 7.232,7.872 4.128,0 7.20001,-3.32801 7.20001,-7.776 0,-4.48 -3.07201,-7.808 -7.20001,-7.808 m 0.032,0.992 c 1.856,0 2.46401,1.76 2.46401,7.008 0,4.92799 -0.64001,6.592 -2.49601,6.592 -1.88799,0 -2.52799,-1.63201 -2.52799,-6.304 0,-5.632 0.576,-7.296 2.55999,-7.296"
         style="font-size:32px;font-weight:bold;text-align:center;text-anchor:middle;fill:#145bd5;stroke:#145bd5;font-family:Nimbus Roman No9 L;-inkscape-font-specification:Nimbus Roman No9 L Bold"
         id="path3013" />
      <path
         d="m 129.76537,577.70126 -6.14399,0 0,0.768 c 1.40799,0.288 1.69599,0.576 1.69599,1.888 l 0,9.408 c 0,1.312 -0.224,1.568 -1.69599,1.92 l 0,0.768 7.64799,0 0,-0.768 c -1.11999,-0.16 -1.504,-0.608 -1.504,-1.824 l 0,-12.16 m -2.24,-7.36 c -1.37599,0 -2.49599,1.12 -2.49599,2.464 0,1.44 1.056,2.496 2.464,2.496 1.40799,0 2.49599,-1.056 2.49599,-2.464 0,-1.376 -1.088,-2.496 -2.464,-2.496"
         style="font-size:32px;font-weight:bold;text-align:center;text-anchor:middle;fill:#145bd5;stroke:#145bd5;font-family:Nimbus Roman No9 L;-inkscape-font-specification:Nimbus Roman No9 L Bold"
         id="path3015" />
      <path
         d="m 145.16837,588.96526 c -1.18399,1.344 -2.016,1.792 -3.328,1.792 -2.78399,0 -4.544,-2.78401 -4.544,-7.136 0,-3.296 1.02401,-5.312 2.688,-5.312 0.512,0 0.99201,0.256 1.184,0.608 0.16,0.288 0.16,0.288 0.16,1.632 0.032,1.568 0.60801,2.304 1.792,2.304 1.344,0 2.176,-0.768 2.176,-2.016 0,-1.984 -2.144,-3.52 -4.96,-3.52 -4.35199,0 -7.552,3.392 -7.552,8 0,4.41599 2.88001,7.584 6.848,7.584 2.464,0 4.25601,-0.99201 6.112,-3.36 l -0.576,-0.576"
         style="font-size:32px;font-weight:bold;text-align:center;text-anchor:middle;fill:#145bd5;stroke:#145bd5;font-family:Nimbus Roman No9 L;-inkscape-font-specification:Nimbus Roman No9 L Bold"
         id="path3017" />
      <path
         d="m 159.03587,588.45326 c -1.27999,1.568 -2.272,2.144 -3.648,2.144 -1.24799,0 -2.176,-0.576 -2.848,-1.696 -0.57599,-1.024 -0.832,-2.08001 -0.96,-4.288 l 8.064,0 c -0.19199,-2.688 -0.672,-4.192 -1.696,-5.408 -1.05599,-1.248 -2.528,-1.888 -4.288,-1.888 -3.99999,0 -6.688,3.168 -6.688,7.84 0,4.67199 2.62401,7.744 6.592,7.744 2.592,0 4.16001,-1.02401 6.24,-4 l -0.768,-0.448 m -7.616,-5.024 c 0.096,-3.84 0.67201,-5.12 2.24,-5.12 0.896,0 1.50401,0.512 1.76,1.504 0.16,0.608 0.22401,1.504 0.288,3.136 l 0,0.48 -4.288,0"
         style="font-size:32px;font-weight:bold;text-align:center;text-anchor:middle;fill:#145bd5;stroke:#145bd5;font-family:Nimbus Roman No9 L;-inkscape-font-specification:Nimbus Roman No9 L Bold"
         id="path3019" />
    </g>
    <path
       sodipodi:type="arc"
       style="fill:url(#linearGradient3774);fill-opacity:1;stroke:url(#linearGradient3766);stroke-width:0.4762913;stroke-linejoin:round;stroke-miterlimit:4;stroke-opacity:1;stroke-dasharray:none"
       id="path3827-5"
       sodipodi:cx="132.58252"
       sodipodi:cy="681.88873"
       sodipodi:rx="51.770317"
       sodipodi:ry="53.285545"
       d="m 184.35284,681.88873 c 0,29.4288 -23.17836,53.28555 -51.77032,53.28555 -28.59196,0 -51.770318,-23.85675 -51.770318,-53.28555 0,-29.42879 23.178358,-53.28554 51.770318,-53.28554 28.59196,0 51.77032,23.85675 51.77032,53.28554 z"
       transform="matrix(4.1815192,0,0,4.0439082,-163.65031,-2125.1404)" />
    <g
       transform="matrix(3.4913112,0,0,4.0176165,-799.51521,-2952.0318)"
       style="font-size:12px;font-style:normal;font-variant:normal;font-weight:normal;font-stretch:normal;text-align:start;line-height:125%;letter-spacing:0px;word-spacing:0px;writing-mode:lr-tb;text-anchor:start;fill:#145bd5;fill-opacity:1;stroke:#145bd5;stroke-width:0.52295196;stroke-miterlimit:4;stroke-opacity:1;font-family:Sans;-inkscape-font-specification:Sans"
       id="flowRoot4223-4">
      <path
         d="m 291.41406,875.74954 22.32227,0 0,6.25195 -14.05078,0 0,5.97266 13.21289,0 0,6.25195 -13.21289,0 0,7.34766 14.52343,0 0,6.25195 -22.79492,0 0,-32.07617"
         style="font-size:44px;font-weight:bold;fill:#145bd5;stroke:#145bd5;font-family:Sans;-inkscape-font-specification:Sans Bold"
         id="path2998" />
      <path
         d="m 337.51953,887.28665 0,-12.89062 7.73438,0 0,33.42968 -7.73438,0 0,-3.48047 c -1.05991,1.41798 -2.22723,2.45639 -3.50195,3.11524 -1.27476,0.65885 -2.75002,0.98828 -4.42578,0.98828 -2.96486,0 -5.39975,-1.17448 -7.30469,-3.52344 -1.90495,-2.36327 -2.85742,-5.39973 -2.85742,-9.10937 0,-3.70962 0.95247,-6.73892 2.85742,-9.08789 1.90494,-2.36326 4.33983,-3.5449 7.30469,-3.54493 1.66144,3e-5 3.12954,0.33662 4.40429,1.00977 1.28905,0.65888 2.46353,1.69013 3.52344,3.09375 m -5.07031,15.57617 c 1.64712,10e-6 2.90037,-0.60155 3.75976,-1.80469 0.87368,-1.20311 1.31053,-2.95051 1.31055,-5.24218 -2e-5,-2.29165 -0.43687,-4.03905 -1.31055,-5.24219 -0.85939,-1.20311 -2.11264,-1.80467 -3.75976,-1.80469 -1.63283,2e-5 -2.88608,0.60158 -3.75977,1.80469 -0.85938,1.20314 -1.28907,2.95054 -1.28906,5.24219 -1e-5,2.29167 0.42968,4.03907 1.28906,5.24218 0.87369,1.20314 2.12694,1.8047 3.75977,1.80469"
         style="font-size:44px;font-weight:bold;fill:#145bd5;stroke:#145bd5;font-family:Sans;-inkscape-font-specification:Sans Bold"
         id="path3000" />
      <path
         d="m 352.6875,883.76321 7.69141,0 0,24.0625 -7.69141,0 0,-24.0625 m 0,-9.36718 7.69141,0 0,6.27343 -7.69141,0 0,-6.27343"
         style="font-size:44px;font-weight:bold;fill:#145bd5;stroke:#145bd5;font-family:Sans;-inkscape-font-specification:Sans Bold"
         id="path3002" />
      <path
         d="m 376.21289,876.93118 0,6.83203 7.92773,0 0,5.5 -7.92773,0 0,10.20508 c -1e-5,1.1172 0.22199,1.87631 0.66602,2.27734 0.44399,0.38673 1.32485,0.58009 2.64257,0.58008 l 3.95313,0 0,5.5 -6.5957,0 c -3.03647,0 -5.19207,-0.6302 -6.4668,-1.89062 -1.26042,-1.27474 -1.89063,-3.43034 -1.89063,-6.4668 l 0,-10.20508 -3.82421,0 0,-5.5 3.82421,0 0,-6.83203 7.69141,0"
         style="font-size:44px;font-weight:bold;fill:#145bd5;stroke:#145bd5;font-family:Sans;-inkscape-font-specification:Sans Bold"
         id="path3004" />
    </g>
  </g>
</svg>
