<?xml version="1.0" encoding="UTF-8" standalone="no"?>
<!-- Created with Inkscape (http://www.inkscape.org/) -->

<svg
   xmlns:dc="http://purl.org/dc/elements/1.1/"
   xmlns:cc="http://creativecommons.org/ns#"
   xmlns:rdf="http://www.w3.org/1999/02/22-rdf-syntax-ns#"
   xmlns:svg="http://www.w3.org/2000/svg"
   xmlns="http://www.w3.org/2000/svg"
   xmlns:xlink="http://www.w3.org/1999/xlink"
   xmlns:sodipodi="http://sodipodi.sourceforge.net/DTD/sodipodi-0.dtd"
   xmlns:inkscape="http://www.inkscape.org/namespaces/inkscape"
   width="715.46875"
   height="695.96875"
   id="svg3334"
   version="1.1"
   inkscape:version="0.48.3.1 r9886"
   sodipodi:docname="loans_cc.svg">
  <defs
     id="defs3336">
    <linearGradient
       id="linearGradientBlue">
      <stop
         style="stop-color:#146bd5;stop-opacity:1;"
         offset="0"
         id="stopDarkBlue" />
      <stop
         style="stop-color:#000080;stop-opacity:1;"
         offset="1"
         id="stopMedBlue" />
    </linearGradient>
    <radialGradient
       inkscape:collect="always"
       href="#linearGradientBlue"
       id="radialGradientBlue"
       cx="250.17847"
       cy="380.18292"
       fx="602.17847"
       fy="384.18292"
       r="840.90308"
       gradientTransform="matrix(1.1043576,0.14326663,-0.14756996,1.1377058,-6.1480366,-139.39274)"
       gradientUnits="userSpaceOnUse" />
    <linearGradient
       id="linearGradientYellow">
      <stop
         style="stop-color:#e3f700;stop-opacity:1;"
         offset="0"
         id="stopDarkYellow" />
      <stop
         style="stop-color:#d2cc00;stop-opacity:1;"
         offset="1"
         id="stopLightYellow" />
    </linearGradient>
    <radialGradient
       inkscape:collect="always"
       href="#linearGradientYellow"
       id="radialGradientYellow"
       gradientUnits="userSpaceOnUse"
       gradientTransform="matrix(1.1043576,0.14326663,-0.14756996,1.1377058,-6.1480366,-139.39274)"
       cx="602.17847"
       cy="384.18292"
       fx="602.17847"
       fy="384.18292"
       r="84.903091" />
    <radialGradient
       inkscape:collect="always"
       xlink:href="#linearGradientBlue"
       id="radialGradient3772"
       cx="339.64966"
       cy="515.63495"
       fx="339.64966"
       fy="515.63495"
       r="352.72543"
       gradientTransform="matrix(2.8735735,-0.4345196,0.22843275,1.5106756,-803.79621,-106.60311)"
       gradientUnits="userSpaceOnUse" />
    <radialGradient
       inkscape:collect="always"
       xlink:href="#linearGradientYellow"
       id="radialGradient3782"
       cx="609.12219"
       cy="369.36307"
       fx="609.12219"
       fy="369.36307"
       r="58.737995"
       gradientTransform="matrix(1,0,0,0.96860859,0,11.594826)"
       gradientUnits="userSpaceOnUse" />
  </defs>
  <sodipodi:namedview
     id="base"
     pagecolor="#ffffff"
     bordercolor="#666666"
     borderopacity="1.0"
     inkscape:pageopacity="0.0"
     inkscape:pageshadow="2"
     inkscape:zoom="0.35"
     inkscape:cx="229.57908"
     inkscape:cy="311.82532"
     inkscape:document-units="px"
     inkscape:current-layer="layer1"
     showgrid="false"
     inkscape:window-width="1440"
     inkscape:window-height="851"
     inkscape:window-x="0"
     inkscape:window-y="25"
     inkscape:window-maximized="1"
     fit-margin-top="110"
     fit-margin-left="5"
     fit-margin-right="5"
     fit-margin-bottom="110" />
  <metadata
     id="metadata3339">
    <rdf:RDF>
      <cc:Work
         rdf:about="">
        <dc:format>image/svg+xml</dc:format>
        <dc:type
           rdf:resource="http://purl.org/dc/dcmitype/StillImage" />
        <dc:title />
      </cc:Work>
    </rdf:RDF>
  </metadata>
  <g
     inkscape:label="Layer 1"
     inkscape:groupmode="layer"
     id="layer1"
     transform="translate(-9.40625,-148.21875)">
    <rect
       style="fill:url(#radialGradient3772);fill-opacity:1;stroke:#000080;stroke-width:4;stroke-linejoin:round;stroke-miterlimit:4;stroke-opacity:1;stroke-dasharray:none"
       id="rect3822"
       width="701.45087"
       height="471.98001"
       x="16.417395"
       y="260.20816"
       ry="54.760109" />
    <path
       style="fill:#dddddd;stroke:#dddddd;stroke-width:2;stroke-linecap:butt;stroke-linejoin:miter;stroke-miterlimit:4;stroke-opacity:1;stroke-dasharray:none"
       d="m 123.57972,615.45661 c 0,0 11.34995,-124.58147 47.06814,-167.52066 43.66242,-52.48968 187.61797,-95.84939 187.61797,-95.84939 0,0 -1.62126,-20.61164 -14.56582,-33.71379 -14.30042,-14.47471 -38.92895,-19.01713 -38.92895,-19.01713 0,0 -151.68732,44.36923 -188.88331,97.06054 -41.058759,58.16341 -52.283486,203.3947 -52.283486,203.3947 0,0 10.936689,20.14259 20.861045,23.46861 12.606872,4.22522 39.114411,-7.82288 39.114411,-7.82288 z"
       id="path3824"
       inkscape:connector-curvature="0"
       sodipodi:nodetypes="cscscscsc" />
    <path
       style="fill:#3b3b3b;stroke:#3b3b3b;stroke-width:2;stroke-linecap:butt;stroke-linejoin:miter;stroke-miterlimit:4;stroke-opacity:1;stroke-dasharray:none"
       d="m 127.71484,614.37652 c 0,0 20.94647,21.00579 38.7979,23.916 17.91313,2.92028 37.40152,-11.95804 37.40152,-11.95804 0,0 2.87235,-98.16585 28.05105,-135.91276 20.56607,-30.83155 121.08517,-57.4988 121.08517,-57.4988 0,0 12.3933,-27.34125 13.03801,-39.43071 0.71882,-13.4746 -12.27429,-37.2705 -12.27429,-37.2705 0,0 -146.12989,48.07835 -185.95947,94.63821 -37.98709,44.40646 -40.13989,163.5166 -40.13989,163.5166 z"
       id="path3826"
       inkscape:connector-curvature="0"
       sodipodi:nodetypes="cscscscsc" />
    <rect
       style="fill:url(#radialGradient3782);fill-opacity:1;stroke:#e3dd00;stroke-width:5;stroke-linejoin:round;stroke-miterlimit:4;stroke-opacity:1;stroke-dasharray:none"
       id="rect3828"
       width="112.47599"
       height="108.78825"
       x="552.88422"
       y="314.96893"
       ry="18.438686" />
    <g
       transform="matrix(3.6506738,0,0,4.7502834,-99.845656,-1371.502)"
       style="font-size:12px;font-style:normal;font-variant:normal;font-weight:normal;font-stretch:normal;text-align:start;line-height:125%;letter-spacing:0px;word-spacing:0px;writing-mode:lr-tb;text-anchor:start;fill:#ffffff;fill-opacity:1;stroke:#110b02;stroke-width:0.48026809;stroke-miterlimit:4;stroke-opacity:1;font-family:Sans;-inkscape-font-specification:Sans"
       id="flowRoot3830">
      <path
         d="m 43.099609,423.98069 2.443848,0 0,7.62988 4.291016,0 0,1.84717 -6.734864,0 0,-9.47705"
         style="font-size:13px;font-weight:bold;fill:#ffffff;stroke:#110b02;stroke-linejoin:round;font-family:Sans;-inkscape-font-specification:Sans Bold"
         id="path3785" />
      <path
         d="m 54.658691,427.80198 c -0.503584,0 -0.888675,0.18197 -1.155273,0.5459 -0.262373,0.3597 -0.393558,0.88021 -0.393555,1.56152 -3e-6,0.68132 0.131182,1.20394 0.393555,1.56787 0.266598,0.3597 0.651689,0.53955 1.155273,0.53955 0.495113,0 0.873856,-0.17985 1.136231,-0.53955 0.262364,-0.36393 0.393549,-0.88655 0.393555,-1.56787 -6e-6,-0.68131 -0.131191,-1.20182 -0.393555,-1.56152 -0.262375,-0.36393 -0.641118,-0.5459 -1.136231,-0.5459 m 0,-1.625 c 1.222976,0 2.17724,0.33008 2.862793,0.99023 0.689771,0.66016 1.03466,1.57423 1.034668,2.74219 -8e-6,1.16797 -0.344897,2.08203 -1.034668,2.74219 -0.685553,0.66015 -1.639817,0.99023 -2.862793,0.99023 -1.227216,0 -2.187827,-0.33008 -2.881836,-0.99023 -0.689779,-0.66016 -1.034668,-1.57422 -1.034668,-2.74219 0,-1.16796 0.344889,-2.08203 1.034668,-2.74219 0.694009,-0.66015 1.65462,-0.99023 2.881836,-0.99023"
         style="font-size:13px;font-weight:bold;fill:#ffffff;stroke:#110b02;stroke-linejoin:round;font-family:Sans;-inkscape-font-specification:Sans Bold"
         id="path3787" />
      <path
         d="m 63.399414,430.25852 c -0.473962,0 -0.831546,0.0804 -1.072754,0.24121 -0.236982,0.16081 -0.355471,0.39779 -0.355469,0.71094 -2e-6,0.28776 0.09521,0.51416 0.285645,0.6792 0.194658,0.16081 0.463375,0.24121 0.806152,0.24121 0.427405,0 0.787105,-0.15234 1.079102,-0.45703 0.291987,-0.30892 0.437983,-0.69401 0.437988,-1.15528 l 0,-0.26025 -1.180664,0 m 3.472168,-0.85693 0,4.05615 -2.291504,0 0,-1.05371 c -0.304693,0.43164 -0.647466,0.74691 -1.02832,0.9458 -0.380864,0.19466 -0.844242,0.29199 -1.390137,0.29199 -0.73633,0 -1.335125,-0.2137 -1.796387,-0.64111 -0.457032,-0.43164 -0.685547,-0.99024 -0.685547,-1.67578 0,-0.83366 0.285644,-1.44515 0.856934,-1.83448 0.575519,-0.38931 1.476885,-0.58398 2.704102,-0.58398 l 1.339355,0 0,-0.17773 c -5e-6,-0.3597 -0.14177,-0.62207 -0.425293,-0.78711 -0.283533,-0.16927 -0.725753,-0.2539 -1.32666,-0.25391 -0.486657,10e-6 -0.939456,0.0487 -1.358398,0.146 -0.418948,0.0973 -0.80827,0.24333 -1.167969,0.43798 l 0,-1.73291 c 0.486652,-0.11848 0.975421,-0.20735 1.466308,-0.2666 0.490883,-0.0635 0.981768,-0.0952 1.472657,-0.0952 1.282221,0 2.206862,0.25391 2.773925,0.76172 0.571282,0.50358 0.856926,1.32455 0.856934,2.46289"
         style="font-size:13px;font-weight:bold;fill:#ffffff;stroke:#110b02;stroke-linejoin:round;font-family:Sans;-inkscape-font-specification:Sans Bold"
         id="path3789" />
      <path
         d="m 76.145508,429.12864 0,4.3291 -2.285156,0 0,-0.70459 0,-2.60889 c -6e-6,-0.6136 -0.01482,-1.03678 -0.04443,-1.26953 -0.0254,-0.23274 -0.07195,-0.40413 -0.139648,-0.51416 -0.08887,-0.14811 -0.209479,-0.26236 -0.361817,-0.34277 -0.152349,-0.0846 -0.325851,-0.12695 -0.520508,-0.12696 -0.473962,10e-6 -0.846358,0.18409 -1.117187,0.55225 -0.270837,0.36394 -0.406254,0.86963 -0.40625,1.51709 l 0,3.49756 -2.272461,0 0,-7.10938 2.272461,0 0,1.04102 c 0.34277,-0.41471 0.706701,-0.71939 1.091797,-0.91406 0.385086,-0.19889 0.810379,-0.29834 1.275879,-0.29834 0.820957,0 1.443026,0.25179 1.866211,0.75537 0.4274,0.50359 0.641105,1.23568 0.641113,2.19629"
         style="font-size:13px;font-weight:bold;fill:#ffffff;stroke:#110b02;stroke-linejoin:round;font-family:Sans;-inkscape-font-specification:Sans Bold"
         id="path3791" />
      <path
         d="m 83.819824,426.57053 0,1.72656 c -0.48666,-0.20312 -0.956386,-0.35546 -1.409179,-0.45703 -0.452805,-0.10155 -0.880213,-0.15233 -1.282227,-0.15234 -0.431644,10e-6 -0.753258,0.055 -0.964844,0.16504 -0.207359,0.1058 -0.311038,0.27084 -0.311035,0.49512 -3e-6,0.18197 0.07829,0.32162 0.234863,0.41894 0.160805,0.0973 0.446449,0.16928 0.856934,0.21582 l 0.399902,0.0571 c 1.163732,0.14812 1.946609,0.39144 2.348633,0.72998 0.402011,0.33855 0.60302,0.86963 0.603027,1.59326 -7e-6,0.75749 -0.279303,1.32666 -0.83789,1.70752 -0.5586,0.38086 -1.392258,0.57129 -2.500977,0.57129 -0.46973,0 -0.956383,-0.0381 -1.459961,-0.11426 -0.49935,-0.0719 -1.01351,-0.18196 -1.54248,-0.33007 l 0,-1.72657 c 0.452798,0.22006 0.916177,0.3851 1.390137,0.49512 0.478187,0.11003 0.962724,0.16504 1.453613,0.16504 0.444332,0 0.778641,-0.0614 1.00293,-0.18408 0.224279,-0.12272 0.33642,-0.30469 0.336425,-0.5459 -5e-6,-0.20312 -0.07829,-0.35335 -0.234863,-0.45069 -0.152348,-0.10156 -0.459151,-0.17984 -0.92041,-0.23486 l -0.399902,-0.0508 c -1.011396,-0.12695 -1.720217,-0.36181 -2.126465,-0.70459 -0.406251,-0.34277 -0.609376,-0.86328 -0.609375,-1.56152 -1e-6,-0.75325 0.258137,-1.31185 0.774414,-1.67578 0.516274,-0.36393 1.307614,-0.5459 2.374023,-0.5459 0.418941,0 0.859045,0.0317 1.320313,0.0952 0.461257,0.0635 0.962721,0.16293 1.504394,0.29834"
         style="font-size:13px;font-weight:bold;fill:#ffffff;stroke:#110b02;stroke-linejoin:round;font-family:Sans;-inkscape-font-specification:Sans Bold"
         id="path3793" />
      <path
         d="m 93.71582,430.25852 c -0.473962,0 -0.831546,0.0804 -1.072754,0.24121 -0.236982,0.16081 -0.355471,0.39779 -0.355468,0.71094 -3e-6,0.28776 0.09521,0.51416 0.285644,0.6792 0.194658,0.16081 0.463375,0.24121 0.806153,0.24121 0.427404,0 0.787104,-0.15234 1.079101,-0.45703 0.291987,-0.30892 0.437983,-0.69401 0.437988,-1.15528 l 0,-0.26025 -1.180664,0 m 3.472168,-0.85693 0,4.05615 -2.291504,0 0,-1.05371 c -0.304692,0.43164 -0.647465,0.74691 -1.02832,0.9458 -0.380863,0.19466 -0.844242,0.29199 -1.390137,0.29199 -0.73633,0 -1.335125,-0.2137 -1.796386,-0.64111 -0.457032,-0.43164 -0.685548,-0.99024 -0.685547,-1.67578 -10e-7,-0.83366 0.285643,-1.44515 0.856933,-1.83448 0.575519,-0.38931 1.476885,-0.58398 2.704102,-0.58398 l 1.339355,0 0,-0.17773 c -5e-6,-0.3597 -0.141769,-0.62207 -0.425293,-0.78711 -0.283533,-0.16927 -0.725753,-0.2539 -1.32666,-0.25391 -0.486657,10e-6 -0.939456,0.0487 -1.358398,0.146 -0.418947,0.0973 -0.80827,0.24333 -1.167969,0.43798 l 0,-1.73291 c 0.486652,-0.11848 0.975421,-0.20735 1.466309,-0.2666 0.490882,-0.0635 0.981767,-0.0952 1.472656,-0.0952 1.282221,0 2.206862,0.25391 2.773926,0.76172 0.571281,0.50358 0.856926,1.32455 0.856933,2.46289"
         style="font-size:13px;font-weight:bold;fill:#ffffff;stroke:#110b02;stroke-linejoin:round;font-family:Sans;-inkscape-font-specification:Sans Bold"
         id="path3795" />
      <path
         d="m 106.46191,429.12864 0,4.3291 -2.28515,0 0,-0.70459 0,-2.60889 c -1e-5,-0.6136 -0.0148,-1.03678 -0.0444,-1.26953 -0.0254,-0.23274 -0.0719,-0.40413 -0.13964,-0.51416 -0.0889,-0.14811 -0.20948,-0.26236 -0.36182,-0.34277 -0.15235,-0.0846 -0.32585,-0.12695 -0.52051,-0.12696 -0.47396,10e-6 -0.84636,0.18409 -1.11719,0.55225 -0.27083,0.36394 -0.40625,0.86963 -0.40625,1.51709 l 0,3.49756 -2.272457,0 0,-7.10938 2.272457,0 0,1.04102 c 0.34277,-0.41471 0.70671,-0.71939 1.0918,-0.91406 0.38509,-0.19889 0.81038,-0.29834 1.27588,-0.29834 0.82096,0 1.44303,0.25179 1.86621,0.75537 0.4274,0.50359 0.64111,1.23568 0.64111,2.19629"
         style="font-size:13px;font-weight:bold;fill:#ffffff;stroke:#110b02;stroke-linejoin:round;font-family:Sans;-inkscape-font-specification:Sans Bold"
         id="path3797" />
      <path
         d="m 113.41895,427.38938 0,-3.80859 2.28515,0 0,9.87695 -2.28515,0 0,-1.02832 c -0.31316,0.41894 -0.65805,0.72575 -1.03467,0.92041 -0.37663,0.19466 -0.81251,0.29199 -1.30762,0.29199 -0.87598,0 -1.59538,-0.347 -2.1582,-1.04101 -0.56283,-0.69825 -0.84424,-1.59538 -0.84424,-2.69141 0,-1.09602 0.28141,-1.99104 0.84424,-2.68506 0.56282,-0.69823 1.28222,-1.04736 2.1582,-1.04736 0.49088,0 0.92464,0.0994 1.30127,0.29834 0.38085,0.19467 0.72786,0.49935 1.04102,0.91406 m -1.49805,4.60205 c 0.48665,0 0.85693,-0.17773 1.11084,-0.5332 0.25813,-0.35547 0.3872,-0.87174 0.38721,-1.54883 -10e-6,-0.67708 -0.12908,-1.19336 -0.38721,-1.54883 -0.25391,-0.35546 -0.62419,-0.5332 -1.11084,-0.5332 -0.48243,0 -0.85271,0.17774 -1.11084,0.5332 -0.25391,0.35547 -0.38086,0.87175 -0.38086,1.54883 0,0.67709 0.12695,1.19336 0.38086,1.54883 0.25813,0.35547 0.62841,0.5332 1.11084,0.5332"
         style="font-size:13px;font-weight:bold;fill:#ffffff;stroke:#110b02;stroke-linejoin:round;font-family:Sans;-inkscape-font-specification:Sans Bold"
         id="path3799" />
      <path
         d="m 130.03711,432.93723 c -0.44858,0.23275 -0.91619,0.40837 -1.40283,0.52686 -0.48666,0.11849 -0.99448,0.17773 -1.52344,0.17773 -1.57845,0 -2.82894,-0.4401 -3.75146,-1.32031 -0.92253,-0.88444 -1.38379,-2.08203 -1.38379,-3.59277 0,-1.51497 0.46126,-2.71256 1.38379,-3.59278 0.92252,-0.88443 2.17301,-1.32665 3.75146,-1.32666 0.52896,10e-6 1.03678,0.0593 1.52344,0.17774 0.48664,0.11849 0.95425,0.29411 1.40283,0.52685 l 0,1.96143 c -0.45281,-0.30891 -0.89926,-0.53531 -1.33936,-0.6792 -0.44011,-0.14387 -0.90349,-0.21581 -1.39013,-0.21582 -0.87175,10e-6 -1.5573,0.2793 -2.05664,0.83789 -0.49936,0.5586 -0.74903,1.32878 -0.74903,2.31055 0,0.97754 0.24967,1.7456 0.74903,2.30419 0.49934,0.5586 1.18489,0.8379 2.05664,0.8379 0.48664,0 0.95002,-0.0719 1.39013,-0.21583 0.4401,-0.14387 0.88655,-0.37027 1.33936,-0.67919 l 0,1.96142"
         style="font-size:13px;font-weight:bold;fill:#ffffff;stroke:#110b02;stroke-linejoin:round;font-family:Sans;-inkscape-font-specification:Sans Bold"
         id="path3801" />
      <path
         d="m 137.24805,428.2844 c -0.1989,-0.0931 -0.3978,-0.1608 -0.59668,-0.20313 -0.19467,-0.0465 -0.39145,-0.0698 -0.59033,-0.0698 -0.58399,10e-6 -1.03468,0.18832 -1.35206,0.56494 -0.31315,0.3724 -0.46973,0.90772 -0.46972,1.60596 l 0,3.27539 -2.27246,0 0,-7.10938 2.27246,0 0,1.16797 c 0.29199,-0.46549 0.6263,-0.80403 1.00293,-1.01562 0.38085,-0.21582 0.83577,-0.32373 1.36474,-0.32373 0.0762,0 0.15869,0.004 0.24756,0.0127 0.0889,0.004 0.21793,0.0169 0.38721,0.0381 l 0.006,2.05664"
         style="font-size:13px;font-weight:bold;fill:#ffffff;stroke:#110b02;stroke-linejoin:round;font-family:Sans;-inkscape-font-specification:Sans Bold"
         id="path3803" />
      <path
         d="m 145.4873,429.88401 0,0.64746 -5.31298,0 c 0.055,0.53321 0.24755,0.93311 0.57763,1.19971 0.33008,0.2666 0.79134,0.3999 1.38379,0.3999 0.47819,0 0.96696,-0.0698 1.46631,-0.20947 0.50357,-0.14388 1.01985,-0.3597 1.54883,-0.64746 l 0,1.75195 c -0.53744,0.20312 -1.07488,0.35547 -1.61231,0.45703 -0.53744,0.10579 -1.07487,0.15869 -1.6123,0.15869 -1.28646,0 -2.28727,-0.32585 -3.00244,-0.97754 -0.71094,-0.65592 -1.06641,-1.57421 -1.06641,-2.75488 0,-1.1595 0.34912,-2.07145 1.04737,-2.73584 0.70247,-0.66438 1.66731,-0.99658 2.89453,-0.99658 1.11718,0 2.01008,0.33643 2.67871,1.00927 0.67284,0.67286 1.00927,1.57211 1.00927,2.69776 m -2.33593,-0.75537 c -10e-6,-0.43164 -0.12696,-0.77864 -0.38086,-1.04102 -0.24968,-0.26659 -0.57764,-0.39989 -0.98389,-0.3999 -0.44011,10e-6 -0.79769,0.12484 -1.07275,0.37451 -0.27507,0.24545 -0.44646,0.60092 -0.51416,1.06641 l 2.95166,0"
         style="font-size:13px;font-weight:bold;fill:#ffffff;stroke:#110b02;stroke-linejoin:round;font-family:Sans;-inkscape-font-specification:Sans Bold"
         id="path3805" />
      <path
         d="m 152.03809,427.38938 0,-3.80859 2.28515,0 0,9.87695 -2.28515,0 0,-1.02832 c -0.31316,0.41894 -0.65805,0.72575 -1.03467,0.92041 -0.37663,0.19466 -0.81251,0.29199 -1.30762,0.29199 -0.87598,0 -1.59538,-0.347 -2.1582,-1.04101 -0.56283,-0.69825 -0.84424,-1.59538 -0.84424,-2.69141 0,-1.09602 0.28141,-1.99104 0.84424,-2.68506 0.56282,-0.69823 1.28222,-1.04736 2.1582,-1.04736 0.49088,0 0.92464,0.0994 1.30127,0.29834 0.38085,0.19467 0.72786,0.49935 1.04102,0.91406 m -1.49805,4.60205 c 0.48665,0 0.85693,-0.17773 1.11084,-0.5332 0.25813,-0.35547 0.3872,-0.87174 0.38721,-1.54883 -1e-5,-0.67708 -0.12908,-1.19336 -0.38721,-1.54883 -0.25391,-0.35546 -0.62419,-0.5332 -1.11084,-0.5332 -0.48243,0 -0.85271,0.17774 -1.11084,0.5332 -0.25391,0.35547 -0.38086,0.87175 -0.38086,1.54883 0,0.67709 0.12695,1.19336 0.38086,1.54883 0.25813,0.35547 0.62841,0.5332 1.11084,0.5332"
         style="font-size:13px;font-weight:bold;fill:#ffffff;stroke:#110b02;stroke-linejoin:round;font-family:Sans;-inkscape-font-specification:Sans Bold"
         id="path3807" />
      <path
         d="m 156.51953,426.34836 2.27246,0 0,7.10938 -2.27246,0 0,-7.10938 m 0,-2.76757 2.27246,0 0,1.85351 -2.27246,0 0,-1.85351"
         style="font-size:13px;font-weight:bold;fill:#ffffff;stroke:#110b02;stroke-linejoin:round;font-family:Sans;-inkscape-font-specification:Sans Bold"
         id="path3809" />
      <path
         d="m 163.47021,424.32981 0,2.01855 2.34229,0 0,1.625 -2.34229,0 0,3.01514 c 0,0.33008 0.0656,0.55436 0.19678,0.67285 0.13118,0.11426 0.39144,0.17139 0.78076,0.17139 l 1.16797,0 0,1.625 -1.94873,0 c -0.89714,0 -1.53402,-0.1862 -1.91064,-0.55859 -0.3724,-0.37663 -0.5586,-1.01351 -0.5586,-1.91065 l 0,-3.01514 -1.12988,0 0,-1.625 1.12988,0 0,-2.01855 2.27246,0"
         style="font-size:13px;font-weight:bold;fill:#ffffff;stroke:#110b02;stroke-linejoin:round;font-family:Sans;-inkscape-font-specification:Sans Bold"
         id="path3811" />
      <path
         d="m 179.3457,432.93723 c -0.44857,0.23275 -0.91618,0.40837 -1.40283,0.52686 -0.48666,0.11849 -0.99447,0.17773 -1.52344,0.17773 -1.57845,0 -2.82894,-0.4401 -3.75146,-1.32031 -0.92253,-0.88444 -1.38379,-2.08203 -1.38379,-3.59277 0,-1.51497 0.46126,-2.71256 1.38379,-3.59278 0.92252,-0.88443 2.17301,-1.32665 3.75146,-1.32666 0.52897,10e-6 1.03678,0.0593 1.52344,0.17774 0.48665,0.11849 0.95426,0.29411 1.40283,0.52685 l 0,1.96143 c -0.4528,-0.30891 -0.89926,-0.53531 -1.33935,-0.6792 -0.44011,-0.14387 -0.90349,-0.21581 -1.39014,-0.21582 -0.87175,10e-6 -1.5573,0.2793 -2.05664,0.83789 -0.49935,0.5586 -0.74903,1.32878 -0.74902,2.31055 -1e-5,0.97754 0.24967,1.7456 0.74902,2.30419 0.49934,0.5586 1.18489,0.8379 2.05664,0.8379 0.48665,0 0.95003,-0.0719 1.39014,-0.21583 0.44009,-0.14387 0.88655,-0.37027 1.33935,-0.67919 l 0,1.96142"
         style="font-size:13px;font-weight:bold;fill:#ffffff;stroke:#110b02;stroke-linejoin:round;font-family:Sans;-inkscape-font-specification:Sans Bold"
         id="path3813" />
      <path
         d="m 184.46191,430.25852 c -0.47396,0 -0.83154,0.0804 -1.07275,0.24121 -0.23698,0.16081 -0.35547,0.39779 -0.35547,0.71094 0,0.28776 0.0952,0.51416 0.28565,0.6792 0.19465,0.16081 0.46337,0.24121 0.80615,0.24121 0.4274,0 0.7871,-0.15234 1.0791,-0.45703 0.29199,-0.30892 0.43798,-0.69401 0.43799,-1.15528 l 0,-0.26025 -1.18067,0 m 3.47217,-0.85693 0,4.05615 -2.2915,0 0,-1.05371 c -0.30469,0.43164 -0.64747,0.74691 -1.02832,0.9458 -0.38087,0.19466 -0.84424,0.29199 -1.39014,0.29199 -0.73633,0 -1.33512,-0.2137 -1.79639,-0.64111 -0.45703,-0.43164 -0.68554,-0.99024 -0.68554,-1.67578 0,-0.83366 0.28564,-1.44515 0.85693,-1.83448 0.57552,-0.38931 1.47689,-0.58398 2.7041,-0.58398 l 1.33936,0 0,-0.17773 c -1e-5,-0.3597 -0.14177,-0.62207 -0.42529,-0.78711 -0.28354,-0.16927 -0.72576,-0.2539 -1.32667,-0.25391 -0.48665,10e-6 -0.93945,0.0487 -1.35839,0.146 -0.41895,0.0973 -0.80827,0.24333 -1.16797,0.43798 l 0,-1.73291 c 0.48665,-0.11848 0.97542,-0.20735 1.46631,-0.2666 0.49088,-0.0635 0.98176,-0.0952 1.47265,-0.0952 1.28222,0 2.20686,0.25391 2.77393,0.76172 0.57128,0.50358 0.85692,1.32455 0.85693,2.46289"
         style="font-size:13px;font-weight:bold;fill:#ffffff;stroke:#110b02;stroke-linejoin:round;font-family:Sans;-inkscape-font-specification:Sans Bold"
         id="path3815" />
      <path
         d="m 195.3418,428.2844 c -0.1989,-0.0931 -0.3978,-0.1608 -0.59668,-0.20313 -0.19467,-0.0465 -0.39145,-0.0698 -0.59033,-0.0698 -0.58399,10e-6 -1.03468,0.18832 -1.35206,0.56494 -0.31315,0.3724 -0.46973,0.90772 -0.46972,1.60596 l 0,3.27539 -2.27246,0 0,-7.10938 2.27246,0 0,1.16797 c 0.29199,-0.46549 0.6263,-0.80403 1.00293,-1.01562 0.38085,-0.21582 0.83577,-0.32373 1.36474,-0.32373 0.0762,0 0.15869,0.004 0.24756,0.0127 0.0889,0.004 0.21793,0.0169 0.38721,0.0381 l 0.006,2.05664"
         style="font-size:13px;font-weight:bold;fill:#ffffff;stroke:#110b02;stroke-linejoin:round;font-family:Sans;-inkscape-font-specification:Sans Bold"
         id="path3817" />
      <path
         d="m 201.32129,427.38938 0,-3.80859 2.28516,0 0,9.87695 -2.28516,0 0,-1.02832 c -0.31316,0.41894 -0.65805,0.72575 -1.03467,0.92041 -0.37663,0.19466 -0.8125,0.29199 -1.30762,0.29199 -0.87598,0 -1.59538,-0.347 -2.1582,-1.04101 -0.56283,-0.69825 -0.84424,-1.59538 -0.84424,-2.69141 0,-1.09602 0.28141,-1.99104 0.84424,-2.68506 0.56282,-0.69823 1.28222,-1.04736 2.1582,-1.04736 0.49089,0 0.92464,0.0994 1.30127,0.29834 0.38086,0.19467 0.72786,0.49935 1.04102,0.91406 m -1.49805,4.60205 c 0.48665,0 0.85693,-0.17773 1.11084,-0.5332 0.25813,-0.35547 0.3872,-0.87174 0.38721,-1.54883 -1e-5,-0.67708 -0.12908,-1.19336 -0.38721,-1.54883 -0.25391,-0.35546 -0.62419,-0.5332 -1.11084,-0.5332 -0.48242,0 -0.8527,0.17774 -1.11084,0.5332 -0.25391,0.35547 -0.38086,0.87175 -0.38086,1.54883 0,0.67709 0.12695,1.19336 0.38086,1.54883 0.25814,0.35547 0.62842,0.5332 1.11084,0.5332"
         style="font-size:13px;font-weight:bold;fill:#ffffff;stroke:#110b02;stroke-linejoin:round;font-family:Sans;-inkscape-font-specification:Sans Bold"
         id="path3819" />
      <path
         d="m 211.35693,426.57053 0,1.72656 c -0.48666,-0.20312 -0.95638,-0.35546 -1.40918,-0.45703 -0.4528,-0.10155 -0.88021,-0.15233 -1.28222,-0.15234 -0.43165,10e-6 -0.75326,0.055 -0.96485,0.16504 -0.20736,0.1058 -0.31103,0.27084 -0.31103,0.49512 0,0.18197 0.0783,0.32162 0.23486,0.41894 0.16081,0.0973 0.44645,0.16928 0.85694,0.21582 l 0.3999,0.0571 c 1.16373,0.14812 1.94661,0.39144 2.34863,0.72998 0.40201,0.33855 0.60302,0.86963 0.60303,1.59326 -1e-5,0.75749 -0.27931,1.32666 -0.83789,1.70752 -0.5586,0.38086 -1.39226,0.57129 -2.50098,0.57129 -0.46973,0 -0.95638,-0.0381 -1.45996,-0.11426 -0.49935,-0.0719 -1.01351,-0.18196 -1.54248,-0.33007 l 0,-1.72657 c 0.4528,0.22006 0.91618,0.3851 1.39014,0.49512 0.47818,0.11003 0.96272,0.16504 1.45361,0.16504 0.44433,0 0.77864,-0.0614 1.00293,-0.18408 0.22428,-0.12272 0.33642,-0.30469 0.33642,-0.5459 0,-0.20312 -0.0783,-0.35335 -0.23486,-0.45069 -0.15235,-0.10156 -0.45915,-0.17984 -0.92041,-0.23486 l -0.3999,-0.0508 c -1.0114,-0.12695 -1.72022,-0.36181 -2.12647,-0.70459 -0.40625,-0.34277 -0.60937,-0.86328 -0.60937,-1.56152 0,-0.75325 0.25814,-1.31185 0.77441,-1.67578 0.51628,-0.36393 1.30762,-0.5459 2.37403,-0.5459 0.41894,0 0.85904,0.0317 1.32031,0.0952 0.46126,0.0635 0.96272,0.16293 1.50439,0.29834"
         style="font-size:13px;font-weight:bold;fill:#ffffff;stroke:#110b02;stroke-linejoin:round;font-family:Sans;-inkscape-font-specification:Sans Bold"
         id="path3821" />
    </g>
  </g>
</svg>
