<?xml version="1.0" encoding="UTF-8" standalone="no"?>
<!-- Created with Inkscape (http://www.inkscape.org/) -->

<svg
   xmlns:dc="http://purl.org/dc/elements/1.1/"
   xmlns:cc="http://creativecommons.org/ns#"
   xmlns:rdf="http://www.w3.org/1999/02/22-rdf-syntax-ns#"
   xmlns:svg="http://www.w3.org/2000/svg"
   xmlns="http://www.w3.org/2000/svg"
   xmlns:sodipodi="http://sodipodi.sourceforge.net/DTD/sodipodi-0.dtd"
   xmlns:inkscape="http://www.inkscape.org/namespaces/inkscape"
   width="744.09448819"
   height="1052.3622047"
   id="svg3271"
   version="1.1"
   inkscape:version="0.48.4 r9939"
   sodipodi:docname="payroll.svg">
  <defs
     id="defs3273" />
  <sodipodi:namedview
     id="base"
     pagecolor="#ffffff"
     bordercolor="#666666"
     borderopacity="1.0"
     inkscape:pageopacity="0.0"
     inkscape:pageshadow="2"
     inkscape:zoom="0.35"
     inkscape:cx="-125"
     inkscape:cy="520"
     inkscape:document-units="px"
     inkscape:current-layer="layer1"
     showgrid="false"
     inkscape:window-width="1440"
     inkscape:window-height="845"
     inkscape:window-x="-2"
     inkscape:window-y="-3"
     inkscape:window-maximized="1" />
  <metadata
     id="metadata3276">
    <rdf:RDF>
      <cc:Work
         rdf:about="">
        <dc:format>image/svg+xml</dc:format>
        <dc:type
           rdf:resource="http://purl.org/dc/dcmitype/StillImage" />
        <dc:title />
      </cc:Work>
    </rdf:RDF>
  </metadata>
  <g
     inkscape:label="Layer 1"
     inkscape:groupmode="layer"
     id="layer1">
    <path
       style="fill:none;stroke:#110b02;stroke-width:2;stroke-linecap:butt;stroke-linejoin:miter;stroke-opacity:1;stroke-miterlimit:4;stroke-dasharray:none"
       d="m 92.512314,781.36643 c 0,0 79.267616,41.81594 121.905406,42.51116 40.33578,0.6577 116.36426,-36.43811 116.36426,-36.43811 0,0 -8.37962,-77.14406 -20.31755,-113.36314 -7.86303,-23.85608 -15.69745,-50.26739 -33.24694,-66.80324 -10.92906,-10.29782 -40.63514,-16.19473 -40.63514,-16.19473 l -1.84704,-12.14606 c 0,0 21.84741,-12.25075 29.55283,-22.26773 5.68204,-7.38658 8.18836,-17.19051 11.08231,-26.31644 7.34241,-23.15398 3.69408,-46.55985 3.69408,-46.55985 0,0 -6.94697,-34.81229 -31.39986,-50.60852 -14.79444,-9.55697 -32.69735,-14.18459 -49.87042,-14.17038 -14.63464,0.0113 -29.517,11.83802 -40.63513,22.26774 -11.73092,11.00461 -17.95764,22.44061 -20.31759,36.43814 -3.0719,18.22039 2.74017,37.55039 9.23527,54.65722 3.74002,9.85039 9.93354,18.56573 16.62347,26.31644 4.82418,5.58908 16.62347,14.17037 16.62347,14.17037 l 0,16.19472 c 0,0 -30.88969,3.89023 -44.32925,16.19473 -17.64177,16.15183 -24.83901,41.40925 -31.39986,64.77893 C 93.577077,705.7099 92.512314,781.36643 92.512314,781.36643 z"
       id="path3037-9"
       inkscape:connector-curvature="0"
       sodipodi:nodetypes="cscssccsscssssssccssc" />
    <path
       style="fill:#ffffff;fill-opacity:1;stroke:#110b02;stroke-width:2;stroke-linecap:butt;stroke-linejoin:miter;stroke-opacity:1;stroke-miterlimit:4;stroke-dasharray:none"
       d="m 266.13521,803.6342 c 0,0 79.26762,41.81594 121.90541,42.51116 40.33574,0.65771 116.36426,-36.43811 116.36426,-36.43811 0,0 -8.37966,-77.14406 -20.31755,-113.3631 -7.86307,-23.85612 -15.69749,-50.26743 -33.24694,-66.80328 -10.9291,-10.29782 -40.63514,-16.19472 -40.63514,-16.19472 l -1.84704,-12.14606 c 0,0 21.84737,-12.25075 29.55282,-22.26774 5.68205,-7.38658 8.18837,-17.19051 11.08228,-26.31643 7.34241,-23.15399 3.69412,-46.55986 3.69412,-46.55986 0,0 -6.94697,-34.81232 -31.39987,-50.60852 -14.79443,-9.557 -32.69734,-14.18458 -49.87041,-14.17038 -14.63464,0.0113 -29.517,11.83802 -40.63513,22.26774 -11.73093,11.00458 -17.95764,22.44057 -20.31759,36.43811 -3.0719,18.22043 2.74013,37.55042 9.23527,54.65726 3.73998,9.85039 9.93354,18.56572 16.62347,26.31639 4.82418,5.58912 16.62347,14.17041 16.62347,14.17041 l 0,16.19473 c 0,0 -30.88969,3.89018 -44.32925,16.19472 -17.64177,16.15183 -24.83901,41.40926 -31.3999,64.77893 -10.01751,35.68222 -11.08228,111.33875 -11.08228,111.33875 z"
       id="path3037-8"
       inkscape:connector-curvature="0"
       sodipodi:nodetypes="cscssccsscssssssccssc" />
    <path
       style="fill:#ffffff;fill-opacity:1;stroke:#110b02;stroke-width:2;stroke-linecap:butt;stroke-linejoin:miter;stroke-opacity:1;stroke-miterlimit:4;stroke-dasharray:none"
       d="m 21.400815,834.00362 c 0,0 79.267615,41.81594 121.905415,42.51116 40.33577,0.65771 116.36425,-36.43815 116.36425,-36.43815 0,0 -8.37962,-77.14402 -20.31755,-113.3631 -7.86303,-23.85608 -15.69745,-50.26739 -33.24694,-66.80324 -10.92906,-10.29782 -40.63514,-16.19476 -40.63514,-16.19476 l -1.84704,-12.14602 c 0,0 21.84741,-12.25075 29.55283,-22.26774 5.68204,-7.38662 8.18836,-17.19051 11.08231,-26.31647 7.34241,-23.15399 3.69408,-46.55982 3.69408,-46.55982 0,0 -6.94697,-34.81232 -31.39986,-50.60852 -14.79444,-9.557 -32.69735,-14.18458 -49.87041,-14.17041 -14.63465,0.0113 -29.517005,11.83805 -40.635141,22.26777 -11.730922,11.00458 -17.957638,22.44057 -20.317587,36.43811 -3.071897,18.22042 2.740168,37.55042 9.235273,54.65726 3.740014,9.85039 9.933538,18.56572 16.623471,26.31639 4.824172,5.58912 16.623474,14.17038 16.623474,14.17038 l 0,16.19476 c 0,0 -30.889701,3.89018 -44.329258,16.19472 C 46.24122,674.03777 39.043978,699.2952 32.483129,722.66487 22.465578,758.34705 21.400815,834.00362 21.400815,834.00362 z"
       id="path3037"
       inkscape:connector-curvature="0"
       sodipodi:nodetypes="cscssccsscssssssccssc" />
    <flowRoot
       xml:space="preserve"
       id="flowRoot3814"
       style="font-size:12px;font-style:normal;font-variant:normal;font-weight:normal;font-stretch:normal;text-align:start;line-height:125%;letter-spacing:0px;word-spacing:0px;writing-mode:lr-tb;text-anchor:start;fill:none;stroke:#110b02;stroke-width:0.21258699;stroke-miterlimit:4;stroke-opacity:1;stroke-dasharray:none;font-family:Sans;-inkscape-font-specification:Sans"
       transform="matrix(9.2039695,0,0,9.6163766,-5223.617,-369.37066)"><flowRegion
         id="flowRegion3816"><rect
           id="rect3818"
           width="92.85714"
           height="123.57143"
           x="617.14288"
           y="53.790752"
           style="fill:none;stroke:#110b02;stroke-width:0.21258699;stroke-miterlimit:4;stroke-opacity:1;stroke-dasharray:none" /></flowRegion><flowPara
         id="flowPara3820"
         style="font-size:48px;font-style:normal;font-variant:normal;font-weight:bold;font-stretch:normal;text-align:start;line-height:125%;writing-mode:lr-tb;text-anchor:start;fill:none;stroke:#110b02;stroke-width:0.21258699;stroke-miterlimit:4;stroke-opacity:1;stroke-dasharray:none;font-family:Serif;-inkscape-font-specification:Serif Bold">$</flowPara></flowRoot>  </g>
</svg>
