<?xml version="1.0" encoding="UTF-8" standalone="no"?>
<!-- Created with Inkscape (http://www.inkscape.org/) -->

<svg
   xmlns:dc="http://purl.org/dc/elements/1.1/"
   xmlns:cc="http://creativecommons.org/ns#"
   xmlns:rdf="http://www.w3.org/1999/02/22-rdf-syntax-ns#"
   xmlns:svg="http://www.w3.org/2000/svg"
   xmlns="http://www.w3.org/2000/svg"
   xmlns:sodipodi="http://sodipodi.sourceforge.net/DTD/sodipodi-0.dtd"
   xmlns:inkscape="http://www.inkscape.org/namespaces/inkscape"
   width="710.4375"
   height="701.57703"
   id="svg3191"
   version="1.1"
   inkscape:version="0.48.3.1 r9886"
   sodipodi:docname="purchase_ledger.svg">
  <defs
     id="defs3193" />
  <sodipodi:namedview
     id="base"
     pagecolor="#ffffff"
     bordercolor="#666666"
     borderopacity="1.0"
     inkscape:pageopacity="0.0"
     inkscape:pageshadow="2"
     inkscape:zoom="0.49722802"
     inkscape:cx="355.19194"
     inkscape:cy="350.78466"
     inkscape:document-units="px"
     inkscape:current-layer="layer1"
     showgrid="false"
     inkscape:window-width="1440"
     inkscape:window-height="851"
     inkscape:window-x="0"
     inkscape:window-y="25"
     inkscape:window-maximized="1"
     fit-margin-top="28"
     fit-margin-left="5"
     fit-margin-right="5"
     fit-margin-bottom="28" />
  <metadata
     id="metadata3196">
    <rdf:RDF>
      <cc:Work
         rdf:about="">
        <dc:format>image/svg+xml</dc:format>
        <dc:type
           rdf:resource="http://purl.org/dc/dcmitype/StillImage" />
        <dc:title />
      </cc:Work>
    </rdf:RDF>
  </metadata>
  <g
     inkscape:label="Layer 1"
     inkscape:groupmode="layer"
     id="layer1"
     transform="translate(-9.09375,-120.29794)">
    <path
       style="fill:#6193cf;fill-opacity:1;stroke:#110b02;stroke-width:2;stroke-linecap:butt;stroke-linejoin:miter;stroke-miterlimit:4;stroke-opacity:1;stroke-dasharray:none"
       d="m 655.16248,792.87987 -639.928756,0 65.447436,-454.4947 c 0,0 9.943382,-18.07061 18.179563,-23.63375 13.037437,-8.8059 45.449447,-12.72584 45.449447,-12.72584 l 458.13097,-5.45394 110.89652,450.85878 -41.81332,10.90785 -106.64161,-446.60348 33.92228,-15.16315 c 0,0 -23.27274,7.25224 -32.72372,14.54383 -9.2163,7.11082 -21.81569,27.2697 -21.81569,27.2697 z"
       id="path3897"
       inkscape:connector-curvature="0"
       sodipodi:nodetypes="cccsccccccscc" />
    <path
       style="fill:#146bd5;fill-opacity:1;stroke:#146bd5;stroke-width:2;stroke-linecap:butt;stroke-linejoin:miter;stroke-miterlimit:4;stroke-opacity:1;stroke-dasharray:none"
       d="m 440.42793,163.46198 c 0,0 40.87852,14.22281 53.29378,31.17185 14.03912,19.16589 22.12196,59.32705 22.12196,59.32705 l 8.04434,42.23281 -38.21064,1.00554 8.04434,-36.19955 2.01109,-29.16075 z"
       id="path3765"
       inkscape:connector-curvature="0"
       sodipodi:nodetypes="cscccccc" />
    <path
       style="fill:#6193cf;fill-opacity:1;stroke:#6193cf;stroke-width:2;stroke-linecap:butt;stroke-linejoin:miter;stroke-miterlimit:4;stroke-opacity:1;stroke-dasharray:none"
       d="m 82.498864,336.56718 103.624986,0 c 0,0 56.08752,-100.06718 78.17317,-143.62031 18.22095,-35.93242 72.4285,-44.04194 112.71458,-43.63149 36.68452,0.37372 79.12809,12.97668 101.80692,41.8135 32.21225,40.95899 5.45384,147.25629 5.45384,147.25629 l 59.43215,0 z"
       id="path3901"
       inkscape:connector-curvature="0"
       sodipodi:nodetypes="ccsssccc" />
    <g
       transform="matrix(3.8173627,0,0,4.6257707,-1995.5727,-2474.2794)"
       style="font-size:32px;font-style:normal;font-variant:normal;font-weight:bold;font-stretch:normal;text-align:center;line-height:100%;letter-spacing:0px;word-spacing:0px;writing-mode:lr-tb;text-anchor:middle;fill:#ffffff;fill-opacity:1;stroke:#110b02;stroke-width:0.59493053;stroke-miterlimit:4;stroke-opacity:1;font-family:Nimbus Roman No9 L;-inkscape-font-specification:Nimbus Roman No9 L Bold"
       id="flowRoot3903">
      <path
         d="m 550.61838,639.97911 c 4.31999,-0.032 5.408,-0.128 6.816,-0.704 2.59199,-0.992 4,-2.94401 4,-5.408 0,-3.712 -3.04001,-5.824 -8.384,-5.824 l -10.30401,0 0,0.8 c 2.24,0.192 2.68801,0.704 2.68801,2.944 l 0,14.144 c 0,1.98399 -0.41601,2.624 -1.92001,2.816 -0.096,0 -0.416,0.064 -0.768,0.128 l 0,0.8 10.68801,0 0,-0.8 c -2.528,-0.32 -2.816,-0.60801 -2.816,-2.944 l 0,-5.952 m 0,-9.696 c 0,-0.736 0.544,-1.12 1.6,-1.12 2.65599,0 3.712,1.408 3.712,4.864 0,2.01599 -0.38401,3.232 -1.216,3.968 -0.768,0.64 -1.82401,0.864 -4.096,0.864 l 0,-8.576"
         style="fill:#ffffff;stroke:#110b02;font-family:Nimbus Roman No9 L;-inkscape-font-specification:Nimbus Roman No9 L Bold"
         id="path3771" />
      <path
         d="m 572.77287,650.09111 c 1.376,-0.48 2.14401,-0.608 4.22401,-0.832 l 1.98399,-0.224 0,-0.736 c -1.40799,-0.064 -1.79199,-0.48001 -1.79199,-1.856 l 0,-11.52 -6.432,0 0,0.768 c 1.59999,0.128 1.98399,0.512 1.98399,1.888 l 0,9.056 c -1.05599,1.05599 -1.728,1.408 -2.62399,1.408 -1.312,0 -1.792,-0.64001 -1.792,-2.272 l 0,-10.848 -6.01601,0 0,0.768 c 1.312,0.256 1.56801,0.544 1.56801,1.888 l 0,8.064 c 0,2.81599 1.6,4.48 4.256,4.48 1.66399,0 2.784,-0.51201 4.63999,-2.112 l 0,2.08"
         style="fill:#ffffff;stroke:#110b02;font-family:Nimbus Roman No9 L;-inkscape-font-specification:Nimbus Roman No9 L Bold"
         id="path3773" />
      <path
         d="m 586.58537,634.92311 -6.048,0 0,0.768 c 1.376,0.192 1.728,0.608 1.728,1.888 l 0,9.408 c 0,1.31199 -0.32,1.664 -1.728,1.92 l 0,0.768 8.51201,0 0,-0.768 c -1.952,-0.128 -2.336,-0.54401 -2.336,-2.528 l 0,-6.048 c 0,-1.664 0.896,-3.04 1.952,-3.04 0.25599,0 0.544,0.224 0.89599,0.736 0.608,0.86399 1.08801,1.152 1.92,1.152 1.184,0 2.01601,-0.89601 2.01601,-2.144 0,-1.44 -1.08801,-2.496 -2.592,-2.496 -1.6,0 -2.81601,0.864 -4.32001,3.008 l 0,-2.624"
         style="fill:#ffffff;stroke:#110b02;font-family:Nimbus Roman No9 L;-inkscape-font-specification:Nimbus Roman No9 L Bold"
         id="path3775" />
      <path
         d="m 606.98087,646.18711 c -1.18399,1.34399 -2.016,1.792 -3.328,1.792 -2.78399,0 -4.544,-2.78401 -4.544,-7.136 0,-3.296 1.02401,-5.312 2.688,-5.312 0.512,0 0.99201,0.256 1.184,0.608 0.16,0.288 0.16001,0.288 0.16001,1.632 0.032,1.56799 0.608,2.304 1.79199,2.304 1.344,0 2.176,-0.76801 2.176,-2.016 0,-1.984 -2.144,-3.52 -4.96,-3.52 -4.35199,0 -7.552,3.392 -7.552,8 0,4.41599 2.88001,7.584 6.84801,7.584 2.46399,0 4.256,-0.99201 6.11199,-3.36 l -0.576,-0.576"
         style="fill:#ffffff;stroke:#110b02;font-family:Nimbus Roman No9 L;-inkscape-font-specification:Nimbus Roman No9 L Bold"
         id="path3777" />
      <path
         d="m 614.64037,628.04311 -6.144,0 0,0.768 c 1.472,0.288 1.696,0.544 1.696,1.856 l 0,16.32 c 0,1.34399 -0.256,1.632 -1.696,1.92 l 0,0.768 7.71201,0 0,-0.768 c -1.184,-0.16 -1.56801,-0.64001 -1.56801,-1.824 l 0,-8.544 c 0,-0.128 0.22401,-0.448 0.54401,-0.736 0.70399,-0.736 1.472,-1.12 2.208,-1.12 1.11999,0 1.66399,0.864 1.66399,2.656 l 0,7.744 c 0,1.18399 -0.416,1.696 -1.504,1.824 l 0,0.768 7.52,0 0,-0.768 c -1.15199,-0.096 -1.568,-0.57601 -1.568,-1.92 l 0,-7.936 c 0,-2.752 -1.696,-4.512 -4.31999,-4.512 -1.696,0 -2.88001,0.64 -4.54401,2.496 l 0,-8.992"
         style="fill:#ffffff;stroke:#110b02;font-family:Nimbus Roman No9 L;-inkscape-font-specification:Nimbus Roman No9 L Bold"
         id="path3779" />
      <path
         d="m 640.93287,647.62711 -0.31999,0.32 c -0.096,0.096 -0.19201,0.128 -0.352,0.128 -0.448,0 -0.672,-0.288 -0.672,-0.8 l 0,-8.352 c 0,-2.688 -2.43201,-4.384 -6.336,-4.384 -3.616,0 -6.048,1.632 -6.048,4.032 0,1.31199 0.768,2.112 2.08,2.112 1.27999,0 2.17599,-0.76801 2.17599,-1.856 0,-0.448 -0.192,-0.864 -0.576,-1.376 -0.28799,-0.32 -0.384,-0.512 -0.384,-0.704 0,-0.672 0.89601,-1.184 2.01601,-1.184 1.85599,0 2.688,0.864 2.688,2.816 l 0,2.336 c -3.808,1.15199 -5.37601,1.792 -6.56001,2.592 -1.37599,0.95999 -2.048,2.048 -2.048,3.424 0,1.95199 1.50401,3.392 3.552,3.392 1.824,0 3.29601,-0.64001 5.05601,-2.24 0.35199,1.63199 1.056,2.24 2.624,2.24 1.37599,0 2.368,-0.51201 3.58399,-1.824 l -0.48,-0.672 m -5.76,-1.152 c -0.86399,0.99199 -1.504,1.376 -2.27199,1.376 -0.96,0 -1.63201,-0.86401 -1.63201,-2.144 0,-1.856 1.34401,-3.2 3.904,-3.872 l 0,4.64"
         style="fill:#ffffff;stroke:#110b02;font-family:Nimbus Roman No9 L;-inkscape-font-specification:Nimbus Roman No9 L Bold"
         id="path3781" />
      <path
         d="m 652.67687,639.24311 0,-4.64 -0.70399,0 c -0.192,0.48 -0.38401,0.64 -0.768,0.64 -0.192,0 -0.51201,-0.064 -1.024,-0.224 -1.056,-0.352 -1.79201,-0.48 -2.496,-0.48 -2.912,0 -5.024,1.984 -5.024,4.672 0,2.11199 1.312,3.584 4.544,4.96 2.17599,0.95999 3.072,1.76 3.072,2.784 0,1.24799 -0.96001,2.08 -2.4,2.08 -2.24,0 -3.71201,-1.44001 -4.384,-4.224 l -0.89601,0 0,5.28 0.80001,0 c 0.35199,-0.672 0.544,-0.896 0.832,-0.896 0.15999,0 0.416,0.064 0.73599,0.192 0.864,0.384 2.56001,0.736 3.45601,0.736 2.91199,0 4.928,-1.98401 4.928,-4.864 0,-2.272 -1.24801,-3.64801 -4.41601,-4.992 -2.17599,-0.928 -3.072,-1.72801 -3.072,-2.816 0,-1.056 0.89601,-1.856 2.11201,-1.856 0.83199,0 1.696,0.352 2.4,1.024 0.67199,0.64 1.024,1.216 1.504,2.624 l 0.79999,0"
         style="fill:#ffffff;stroke:#110b02;font-family:Nimbus Roman No9 L;-inkscape-font-specification:Nimbus Roman No9 L Bold"
         id="path3783" />
      <path
         d="m 667.09838,645.67511 c -1.28,1.56799 -2.27201,2.144 -3.64801,2.144 -1.24799,0 -2.176,-0.57601 -2.84799,-1.696 -0.576,-1.024 -0.83201,-2.08001 -0.96,-4.288 l 8.06399,0 c -0.19199,-2.688 -0.672,-4.19201 -1.696,-5.408 -1.05599,-1.248 -2.528,-1.888 -4.28799,-1.888 -4,0 -6.68801,3.168 -6.68801,7.84 0,4.67199 2.62401,7.744 6.59201,7.744 2.59199,0 4.16,-1.02401 6.23999,-4 l -0.76799,-0.448 m -7.616,-5.024 c 0.096,-3.84 0.672,-5.12 2.24,-5.12 0.89599,0 1.504,0.512 1.76,1.504 0.15999,0.608 0.224,1.504 0.28799,3.136 l 0,0.48 -4.28799,0"
         style="fill:#ffffff;stroke:#110b02;font-family:Nimbus Roman No9 L;-inkscape-font-specification:Nimbus Roman No9 L Bold"
         id="path3785" />
      <path
         d="m 576.86913,674.41111 -0.928,0 c -1.056,2.49599 -1.69601,3.488 -2.816,4.512 -1.312,1.18399 -3.10401,1.76 -5.568,1.76 -1.952,0 -2.56001,-0.41601 -2.56001,-1.792 l 0,-15.104 c 0,-2.4 0.44801,-2.816 3.232,-2.944 l 0,-0.8 -11.168,0 0,0.8 c 2.176,0.128 2.75201,0.64 2.75201,2.272 l 0,15.488 c 0,1.63199 -0.41601,1.984 -2.75201,2.272 l 0,0.8 18.49601,0 1.312,-7.264"
         style="fill:#ffffff;stroke:#110b02;font-family:Nimbus Roman No9 L;-inkscape-font-specification:Nimbus Roman No9 L Bold"
         id="path3787" />
      <path
         d="m 590.69213,677.67511 c -1.28,1.56799 -2.27201,2.144 -3.64801,2.144 -1.24799,0 -2.176,-0.57601 -2.84799,-1.696 -0.576,-1.024 -0.83201,-2.08001 -0.96,-4.288 l 8.06399,0 c -0.19199,-2.688 -0.672,-4.19201 -1.696,-5.408 -1.05599,-1.248 -2.528,-1.888 -4.28799,-1.888 -4,0 -6.68801,3.168 -6.68801,7.84 0,4.67199 2.62401,7.744 6.59201,7.744 2.59199,0 4.16,-1.02401 6.23999,-4 l -0.76799,-0.448 m -7.616,-5.024 c 0.096,-3.84 0.672,-5.12 2.24,-5.12 0.89599,0 1.504,0.512 1.76,1.504 0.15999,0.608 0.224,1.504 0.28799,3.136 l 0,0.48 -4.28799,0"
         style="fill:#ffffff;stroke:#110b02;font-family:Nimbus Roman No9 L;-inkscape-font-specification:Nimbus Roman No9 L Bold"
         id="path3789" />
      <path
         d="m 602.86362,682.09111 c 1.472,-0.416 2.27201,-0.576 4.25601,-0.8 l 1.98399,-0.256 0,-0.736 c -1.47199,-0.096 -1.88799,-0.51201 -1.88799,-1.856 l 0,-18.4 -6.88,0 0,0.768 c 2.14399,0.16 2.43199,0.384 2.43199,1.856 l 0,5.856 c -1.37599,-1.472 -2.336,-1.984 -3.808,-1.984 -3.51999,0 -6.144,3.424 -6.144,8.064 0,4.35199 2.43201,7.52 5.792,7.52 1.696,0 2.75201,-0.51201 4.256,-2.112 l 0,2.08 m -0.096,-4 c 0,0.192 -0.32,0.736 -0.704,1.152 -0.63999,0.73599 -1.312,1.088 -2.01599,1.088 -1.696,0 -2.49601,-1.92001 -2.49601,-5.984 0,-4.128 0.86401,-6.016 2.72,-6.016 1.056,0 2.04801,0.768 2.496,1.984 l 0,7.776"
         style="fill:#ffffff;stroke:#110b02;font-family:Nimbus Roman No9 L;-inkscape-font-specification:Nimbus Roman No9 L Bold"
         id="path3791" />
      <path
         d="m 625.25212,668.93911 0,-1.696 -4.16,0 c -1.40799,-0.512 -2.304,-0.704 -3.584,-0.704 -3.80799,0 -6.496,2.112 -6.496,5.152 0,1.08799 0.41601,2.144 1.15201,3.04 0.70399,0.76799 1.312,1.184 2.816,1.824 -2.528,0.86399 -3.808,2.08 -3.808,3.744 0,1.31199 0.576,1.888 2.62399,2.624 -2.01599,0.288 -3.072,1.088 -3.072,2.4 0,1.85599 2.40001,2.944 6.432,2.944 5.312,0 8.12801,-1.66401 8.12801,-4.832 0,-2.464 -1.98401,-3.936 -5.24801,-3.936 l -2.07999,0 c -2.56,0 -3.20001,-0.22401 -3.20001,-1.12 0,-0.96 0.89601,-1.664 2.17601,-1.664 l 1.43999,0.032 c 1.504,0 2.30401,-0.192 3.39201,-0.832 1.43999,-0.832 2.17599,-2.14401 2.17599,-3.84 0,-1.28 -0.384,-2.24001 -1.28,-3.136 l 2.592,0 m -5.05599,14.4 c 1.72799,0 2.55999,0.544 2.55999,1.6 0,1.47199 -1.76,2.304 -4.928,2.304 -2.81599,0 -4.288,-0.73601 -4.288,-2.144 0,-0.672 0.22401,-1.02401 1.12,-1.76 l 5.53601,0 m -2.68801,-15.808 c 1.504,0 2.11201,1.216 2.11201,4.192 0,2.97599 -0.60801,4.128 -2.11201,4.128 -1.53599,0 -2.112,-1.15201 -2.112,-4.128 0,-3.008 0.60801,-4.192 2.112,-4.192"
         style="fill:#ffffff;stroke:#110b02;font-family:Nimbus Roman No9 L;-inkscape-font-specification:Nimbus Roman No9 L Bold"
         id="path3793" />
      <path
         d="m 638.69213,677.67511 c -1.28,1.56799 -2.27201,2.144 -3.64801,2.144 -1.24799,0 -2.176,-0.57601 -2.84799,-1.696 -0.576,-1.024 -0.83201,-2.08001 -0.96,-4.288 l 8.06399,0 c -0.19199,-2.688 -0.672,-4.19201 -1.696,-5.408 -1.05599,-1.248 -2.528,-1.888 -4.28799,-1.888 -4,0 -6.68801,3.168 -6.68801,7.84 0,4.67199 2.62401,7.744 6.59201,7.744 2.59199,0 4.16,-1.02401 6.23999,-4 l -0.76799,-0.448 m -7.616,-5.024 c 0.096,-3.84 0.672,-5.12 2.24,-5.12 0.89599,0 1.504,0.512 1.76,1.504 0.15999,0.608 0.224,1.504 0.28799,3.136 l 0,0.48 -4.28799,0"
         style="fill:#ffffff;stroke:#110b02;font-family:Nimbus Roman No9 L;-inkscape-font-specification:Nimbus Roman No9 L Bold"
         id="path3795" />
      <path
         d="m 646.99162,666.92311 -6.048,0 0,0.768 c 1.376,0.192 1.728,0.608 1.728,1.888 l 0,9.408 c 0,1.31199 -0.32,1.664 -1.728,1.92 l 0,0.768 8.51201,0 0,-0.768 c -1.952,-0.128 -2.336,-0.54401 -2.336,-2.528 l 0,-6.048 c 0,-1.664 0.896,-3.04 1.952,-3.04 0.25599,0 0.544,0.224 0.89599,0.736 0.608,0.86399 1.08801,1.152 1.92,1.152 1.184,0 2.01601,-0.89601 2.01601,-2.144 0,-1.44 -1.08801,-2.496 -2.592,-2.496 -1.6,0 -2.81601,0.864 -4.32001,3.008 l 0,-2.624"
         style="fill:#ffffff;stroke:#110b02;font-family:Nimbus Roman No9 L;-inkscape-font-specification:Nimbus Roman No9 L Bold"
         id="path3797" />
    </g>
    <path
       style="fill:none;stroke:#110b02;stroke-width:2;stroke-linecap:butt;stroke-linejoin:miter;stroke-miterlimit:4;stroke-opacity:1;stroke-dasharray:none"
       d="m 670.69732,759.74911 -15.08315,32.17738 z"
       id="path2990"
       inkscape:connector-curvature="0" />
    <path
       style="fill:#ffffff;fill-opacity:1;stroke:none"
       d="m 244.347,300.21586 c 0,0 15.14776,-74.5628 39.21619,-102.56541 15.83936,-18.42843 35.67457,-29.03715 57.31596,-34.18846 27.785,-6.61368 59.02052,-4.74217 85.47117,6.03326 18.72017,7.6262 36.78925,21.35551 46.25499,39.21618 14.68122,27.70162 12.42076,61.62385 7.0388,92.50998 -2.23884,12.84834 -14.07761,36.19955 -14.07761,36.19955 l -236.30265,-1.00554 z"
       id="path2992"
       inkscape:connector-curvature="0"
       sodipodi:nodetypes="csssssccc" />
    <path
       style="fill:#000000;fill-opacity:1;stroke:#000000;stroke-width:1px;stroke-linecap:butt;stroke-linejoin:miter;stroke-opacity:1"
       d="m 203.62891,302.20334 -18.60314,33.68675 -101.060269,-1.00557 11.061323,-17.59756 11.564116,-5.02788 10.55854,-5.53065 24.13379,-3.51952 z"
       id="path3761"
       inkscape:connector-curvature="0"
       sodipodi:nodetypes="cccccccc" />
    <path
       style="fill:#000000;fill-opacity:1;stroke:#000000;stroke-width:1px;stroke-linecap:butt;stroke-linejoin:miter;stroke-opacity:1"
       d="m 244.35469,301.19776 235.30451,-2.01115 c 0,0 -1.55997,7.34974 -4.02229,14.32944 -2.06094,5.84194 -10.30714,24.1338 -10.30714,24.1338 l -235.55591,-1.25697 z"
       id="path3763"
       inkscape:connector-curvature="0"
       sodipodi:nodetypes="ccsccc" />
    <path
       style="fill:#000000;fill-opacity:1;stroke:#000000;stroke-width:1px;stroke-linecap:butt;stroke-linejoin:miter;stroke-opacity:1"
       d="m 492.98308,298.93522 -3.51952,20.36289 -3.7709,17.59756 58.07195,0.25139 20.36289,-25.39076 30.16724,-14.07805 z"
       id="path3766"
       inkscape:connector-curvature="0" />
    <path
       style="fill:#146bd5;fill-opacity:1;stroke:#146bd5;stroke-width:1px;stroke-linecap:butt;stroke-linejoin:miter;stroke-opacity:1"
       d="M 669.71286,757.72875 656.64038,791.91829 545.02157,337.39846 564.1275,314.27023 z"
       id="path3768"
       inkscape:connector-curvature="0" />
  </g>
</svg>
