<?xml version="1.0" encoding="UTF-8" standalone="no"?>
<!-- Created with Inkscape (http://www.inkscape.org/) -->

<svg
   xmlns:dc="http://purl.org/dc/elements/1.1/"
   xmlns:cc="http://creativecommons.org/ns#"
   xmlns:rdf="http://www.w3.org/1999/02/22-rdf-syntax-ns#"
   xmlns:svg="http://www.w3.org/2000/svg"
   xmlns="http://www.w3.org/2000/svg"
   xmlns:xlink="http://www.w3.org/1999/xlink"
   xmlns:sodipodi="http://sodipodi.sourceforge.net/DTD/sodipodi-0.dtd"
   xmlns:inkscape="http://www.inkscape.org/namespaces/inkscape"
   width="751.82233"
   height="759.05969"
   id="svg3257"
   version="1.1"
   inkscape:version="0.48.3.1 r9886"
   sodipodi:docname="sales_ledger.svg">
  <defs
     id="defs3259">
    <linearGradient
       id="linearGradient3774">
      <stop
         style="stop-color:#000080;stop-opacity:1;"
         offset="0"
         id="stop3776" />
      <stop
         style="stop-color:#146bd5;stop-opacity:1;"
         offset="1"
         id="stop3778" />
    </linearGradient>
    <linearGradient
       id="linearGradient3764">
      <stop
         style="stop-color:#dddddd;stop-opacity:1;"
         offset="0"
         id="stop3766" />
      <stop
         style="stop-color:#3b3b3b;stop-opacity:1;"
         offset="1"
         id="stop3768" />
    </linearGradient>
    <radialGradient
       inkscape:collect="always"
       xlink:href="#linearGradient3764"
       id="radialGradient3772"
       cx="550.67639"
       cy="763.93549"
       fx="550.67639"
       fy="763.93549"
       r="139.42326"
       gradientTransform="matrix(1,0,0,1.1114673,0,-85.15382)"
       gradientUnits="userSpaceOnUse" />
    <linearGradient
       inkscape:collect="always"
       xlink:href="#linearGradient3774"
       id="linearGradient3780"
       x1="93.896278"
       y1="819.927"
       x2="96.26152"
       y2="874.36188"
       gradientUnits="userSpaceOnUse" />
    <linearGradient
       inkscape:collect="always"
       xlink:href="#linearGradient3774"
       id="linearGradient3796"
       x1="93.896278"
       y1="819.927"
       x2="96.26152"
       y2="874.36188"
       gradientUnits="userSpaceOnUse" />
    <linearGradient
       inkscape:collect="always"
       xlink:href="#linearGradient3774"
       id="linearGradient3806"
       gradientUnits="userSpaceOnUse"
       x1="93.896278"
       y1="819.927"
       x2="96.26152"
       y2="874.36188" />
    <linearGradient
       inkscape:collect="always"
       xlink:href="#linearGradient3774"
       id="linearGradient3808"
       gradientUnits="userSpaceOnUse"
       x1="93.896278"
       y1="819.927"
       x2="96.26152"
       y2="874.36188" />
    <linearGradient
       inkscape:collect="always"
       xlink:href="#linearGradient3774"
       id="linearGradient3810"
       gradientUnits="userSpaceOnUse"
       x1="93.896278"
       y1="819.927"
       x2="96.26152"
       y2="874.36188" />
    <linearGradient
       inkscape:collect="always"
       xlink:href="#linearGradient3774"
       id="linearGradient3812"
       gradientUnits="userSpaceOnUse"
       x1="93.896278"
       y1="819.927"
       x2="96.26152"
       y2="874.36188" />
  </defs>
  <sodipodi:namedview
     id="base"
     pagecolor="#ffffff"
     bordercolor="#666666"
     borderopacity="1.0"
     inkscape:pageopacity="0.0"
     inkscape:pageshadow="2"
     inkscape:zoom="0.35"
     inkscape:cx="-389.35731"
     inkscape:cy="391.57253"
     inkscape:document-units="px"
     inkscape:current-layer="layer1"
     showgrid="false"
     inkscape:window-width="1440"
     inkscape:window-height="851"
     inkscape:window-x="0"
     inkscape:window-y="25"
     inkscape:window-maximized="1"
     fit-margin-top="5"
     fit-margin-left="40"
     fit-margin-right="40"
     fit-margin-bottom="5" />
  <metadata
     id="metadata3262">
    <rdf:RDF>
      <cc:Work
         rdf:about="">
        <dc:format>image/svg+xml</dc:format>
        <dc:type
           rdf:resource="http://purl.org/dc/dcmitype/StillImage" />
        <dc:title />
      </cc:Work>
    </rdf:RDF>
  </metadata>
  <g
     inkscape:label="Layer 1"
     inkscape:groupmode="layer"
     id="layer1"
     transform="translate(21.720106,-164.875)">
    <path
       style="fill:#ffffff;fill-opacity:1;stroke:#110b02;stroke-width:5;stroke-linecap:butt;stroke-linejoin:miter;stroke-miterlimit:4;stroke-opacity:1;stroke-dasharray:none"
       d="m 412.04125,857.85288 c -14.91136,-35.41075 -12.32288,-76.69684 -8.64053,-114.9421 5.4681,-56.79106 32.64072,-109.43279 45.16128,-165.09575 11.64381,-51.767 22.03577,-103.98909 27.7913,-156.73644 8.99991,-82.47938 10.42173,-248.68856 10.42173,-248.68856 l -378.65813,2.08985 c 0,0 2.20511,170.43458 -6.94782,254.95797 -4.657113,43.00779 -13.992426,85.47 -24.31739,127.47899 -13.37415,54.41562 -48.669516,94.78467 -54.901467,150.47211 -3.650504,32.61872 1.464419,105.81832 13.214102,108.66552 186.543735,45.20334 475.928095,100.31134 475.928095,100.31134 0,0 -47.916,-9.76029 -67.76363,-22.98903 -13.13014,-8.75133 -25.16394,-20.9814 -31.28754,-35.5239 z"
       id="path3915"
       inkscape:connector-curvature="0"
       sodipodi:nodetypes="ssssccsssscss" />
    <path
       id="path3917"
       style="fill:#ffffff;fill-opacity:1;stroke:url(#radialGradient3772);stroke-width:5;stroke-linecap:butt;stroke-linejoin:miter;stroke-miterlimit:4;stroke-opacity:1;stroke-dasharray:none"
       d="M 592.12226,636.03338 440.14313,611.47112 z m -42.96894,134.03585 c 2.75056,-6.12594 8.7232,-1.28112 8.93237,2.57125 0.46382,8.54305 -9.39928,15.03357 -16.87282,15.11349 -12.45945,0.13319 -18.46208,-12.42708 -15.2902,-24.37187 4.43431,-16.699 22.58778,-27.59207 37.74311,-25.63453 19.47006,2.51484 28.38279,22.96293 21.71767,42.75083 -8.14283,24.17502 -34.74385,39.54409 -56.88109,35.56403 -26.15622,-4.70264 -37.89694,-32.82061 -27.90039,-59.96907 11.53297,-31.32116 46.30026,-51.02278 75.07524,-45.09727 32.60933,6.71512 47.09384,42.25456 33.89283,76.46458 -14.75354,38.23337 -57.44335,62.14465 -92.62361,54.33874 -38.88286,-8.62744 -56.04159,-51.38407 -39.73432,-92.43902 17.86029,-44.96487 68.27376,-72.98477 109.68421,-63.35115 45.01165,10.47138 64.7869,60.27766 45.45194,108.00833 -20.88204,51.54975 -78.85424,83.59401 -126.3548,72.17598 -51.01995,-12.26402 -73.36283,-68.97966 -51.06502,-123.2477 23.83608,-58.01173 89.22724,-94.00854 142.70156,-80.84238 56.92545,14.01583 81.79382,77.52071 56.58799,138.20949 -26.73399,64.36821 -99.42346,104.2551 -158.7723,89.37218 -62.74147,-15.73387 -90.09831,-85.92362 -62.03192,-152.93246 29.58415,-70.63244 109.4661,-114.35486 174.60286,-97.78198 68.47858,17.42315 98.29115,94.20554 67.40575,167.44611 -32.39273,76.81492 -119.37314,124.32376 -190.22144,106.08519 -31.06103,-7.99649 -56.55777,-27.83549 -71.44778,-55.32446"
       inkscape:connector-curvature="0" />
    <g
       transform="matrix(4.4658501,0.25744608,-0.02554767,5.7647894,-118.00273,-4561.1303)"
       style="font-size:12px;font-style:normal;font-variant:normal;font-weight:normal;font-stretch:normal;text-align:start;line-height:125%;letter-spacing:0px;word-spacing:0px;writing-mode:lr-tb;text-anchor:start;fill:url(#linearGradient3796);fill-opacity:1;stroke:url(#linearGradient3780);stroke-width:0.39412206;stroke-miterlimit:4;stroke-opacity:1;font-family:Sans;-inkscape-font-specification:Sans"
       id="flowRoot3919">
      <path
         d="m 67.3585,826.08074 c 0.439989,10e-6 0.725989,0.12468 0.858,0.374 0.146655,0.24934 0.219989,0.60868 0.22,1.078 l 0,1.936 c -1.1e-5,0.98267 -0.359344,1.474 -1.078,1.474 -0.117344,0 -0.227343,-0.007 -0.33,-0.022 -0.08801,-0.0293 -0.168676,-0.0587 -0.242,-0.088 -0.05868,-0.044 -0.117343,-0.0953 -0.176,-0.154 -0.05868,-0.0733 -0.102676,-0.132 -0.132,-0.176 -0.02934,-0.044 -0.05868,-0.10999 -0.088,-0.198 -0.02934,-0.088 -0.05134,-0.14666 -0.066,-0.176 -9e-6,-0.044 -0.01468,-0.10999 -0.044,-0.198 -0.01468,-0.10266 -0.02201,-0.16133 -0.022,-0.176 -0.102676,-0.43999 -0.396009,-0.79199 -0.88,-1.056 -0.469341,-0.27866 -1.048674,-0.41799 -1.738,-0.418 -0.689339,10e-6 -1.276005,0.16134 -1.76,0.484 -0.484004,0.32267 -0.726004,0.71867 -0.726,1.188 -4e-6,0.49867 0.241996,0.88734 0.726,1.166 0.483995,0.264 1.048661,0.44 1.694,0.528 0.645326,0.0733 1.363992,0.22 2.156,0.44 0.791991,0.20534 1.415323,0.49134 1.87,0.858 0.865322,0.68934 1.297988,1.606 1.298,2.75 -1.2e-5,1.144 -0.462011,2.068 -1.386,2.772 -0.92401,0.704 -2.141342,1.056 -3.652,1.056 -1.217339,0 -2.361338,-0.286 -3.432,-0.858 -0.293336,0.352 -0.586669,0.528 -0.88,0.528 -0.748002,0 -1.122001,-0.484 -1.122,-1.452 l 0,-1.452 c -10e-7,-0.484 0.08067,-0.84333 0.242,-1.078 0.161332,-0.24933 0.447331,-0.374 0.858,-0.374 0.131997,0 0.249331,0.0147 0.352,0.044 0.11733,0.0293 0.212664,0.0733 0.286,0.132 0.07333,0.0587 0.131997,0.11733 0.176,0.176 0.05866,0.044 0.102663,0.11 0.132,0.198 0.044,0.088 0.07333,0.154 0.088,0.198 0.01466,0.044 0.02933,0.10267 0.044,0.176 0.02933,0.0733 0.044,0.11733 0.044,0.132 0.102663,0.396 0.454663,0.73333 1.056,1.012 0.601328,0.27866 1.268661,0.418 2.002,0.418 0.821326,0 1.510659,-0.16134 2.068,-0.484 0.557324,-0.32267 0.83599,-0.71867 0.836,-1.188 -1e-5,-0.44 -0.220009,-0.792 -0.66,-1.056 -0.425342,-0.264 -0.924008,-0.44 -1.496,-0.528 -0.55734,-0.088 -1.21734,-0.22 -1.98,-0.396 -0.748005,-0.176 -1.349337,-0.38866 -1.804,-0.638 -0.557336,-0.32266 -0.997336,-0.75533 -1.32,-1.298 -0.322669,-0.54266 -0.484002,-1.12933 -0.484,-1.76 -2e-6,-1.11466 0.454664,-2.03866 1.364,-2.772 0.909329,-0.74799 2.045995,-1.12199 3.41,-1.122 1.129326,10e-6 2.082658,0.24201 2.86,0.726 0.117324,-0.27866 0.234657,-0.46932 0.352,-0.572 0.117323,-0.10266 0.28599,-0.15399 0.506,-0.154"
         style="font-size:22px;font-weight:bold;fill:url(#linearGradient3806);stroke:url(#linearGradient3808);font-family:FreeMono;-inkscape-font-specification:FreeMono Bold"
         id="path3007" />
      <path
         d="m 71.177906,836.59674 c -10e-7,-0.99733 0.491332,-1.86267 1.474,-2.596 0.982664,-0.748 2.265996,-1.122 3.85,-1.122 0.659993,0 1.422659,0.0733 2.288,0.22 l 0,-0.506 c -8e-6,-0.71866 -0.682008,-1.078 -2.046,-1.078 -0.601339,0 -1.283338,0.088 -2.046,0.264 -0.76267,0.16134 -1.22467,0.242 -1.386,0.242 -0.308002,0 -0.564669,-0.10266 -0.77,-0.308 -0.205335,-0.22 -0.308002,-0.49133 -0.308,-0.814 -2e-6,-0.46933 0.219998,-0.77733 0.66,-0.924 1.246663,-0.43999 2.507995,-0.65999 3.784,-0.66 1.349326,10e-6 2.405325,0.28601 3.168,0.858 0.777323,0.572 1.165989,1.37134 1.166,2.398 l 0,4.444 0.352,0 c 0.967988,0 1.451988,0.36666 1.452,1.1 -1.2e-5,0.73333 -0.484012,1.1 -1.452,1.1 l -2.574,0 0,-0.506 c -1.100007,0.572 -2.317339,0.858 -3.652,0.858 -1.085337,0 -2.016669,-0.286 -2.794,-0.858 -0.777334,-0.58667 -1.166001,-1.29067 -1.166,-2.112 m 7.634,-0.352 0,-1.1 c -0.924007,-0.16133 -1.738007,-0.242 -2.442,-0.242 -0.748005,0 -1.415338,0.16133 -2.002,0.484 -0.572003,0.32267 -0.858003,0.69667 -0.858,1.122 -3e-6,0.24933 0.16133,0.45467 0.484,0.616 0.322663,0.16133 0.718662,0.242 1.188,0.242 1.202661,0 2.41266,-0.374 3.63,-1.122"
         style="font-size:22px;font-weight:bold;fill:url(#linearGradient3806);stroke:url(#linearGradient3808);font-family:FreeMono;-inkscape-font-specification:FreeMono Bold"
         id="path3009" />
      <path
         d="m 85.755313,826.60874 c -3e-6,-0.42532 0.124664,-0.71132 0.373999,-0.858 0.249331,-0.16132 0.615997,-0.24199 1.100001,-0.242 l 3.916,0 0,11.506 2.683999,0 c 0.967989,0 1.451989,0.36666 1.452,1.1 -1.1e-5,0.73333 -0.484011,1.1 -1.452,1.1 l -7.567999,0 c -0.968002,0 -1.452002,-0.36667 -1.452,-1.1 -2e-6,-0.42534 0.124665,-0.71134 0.373999,-0.858 0.249332,-0.16133 0.608665,-0.242 1.078001,-0.242 l 2.683999,0 0,-9.306 -1.715999,0 c -0.98267,10e-6 -1.474003,-0.36666 -1.474,-1.1"
         style="font-size:22px;font-weight:bold;fill:url(#linearGradient3806);stroke:url(#linearGradient3808);font-family:FreeMono;-inkscape-font-specification:FreeMono Bold"
         id="path3011" />
      <path
         d="m 108.73672,837.74074 c -1e-5,0.46933 -0.42535,0.858 -1.276,1.166 -0.85068,0.29333 -1.65001,0.47666 -2.398,0.55 -0.73334,0.0733 -1.36401,0.11 -1.892,0.11 -1.70134,0 -3.09467,-0.47667 -4.180001,-1.43 -1.085335,-0.95334 -1.628001,-2.178 -1.628,-3.674 -10e-7,-1.452 0.542665,-2.66933 1.628,-3.652 1.100001,-0.99733 2.449331,-1.49599 4.048001,-1.496 1.64266,10e-6 2.99932,0.49867 4.07,1.496 1.08532,0.99734 1.62799,2.25134 1.628,3.762 l 0,0.858 -8.976001,0 c 0.498661,1.29067 1.701331,1.936 3.608001,1.936 0.77732,0 1.64266,-0.11734 2.596,-0.352 0.95332,-0.24933 1.52532,-0.374 1.716,-0.374 0.29332,0 0.54265,0.11 0.748,0.33 0.20532,0.20533 0.30799,0.462 0.308,0.77 m -8.910001,-4.246 6.468001,0 c -0.17601,-0.60133 -0.55734,-1.078 -1.144,-1.43 -0.58668,-0.36666 -1.28334,-0.55 -2.09,-0.55 -0.80667,0 -1.51067,0.18334 -2.112,0.55 -0.58667,0.36667 -0.960671,0.84334 -1.122001,1.43"
         style="font-size:22px;font-weight:bold;fill:url(#linearGradient3806);stroke:url(#linearGradient3808);font-family:FreeMono;-inkscape-font-specification:FreeMono Bold"
         id="path3013" />
      <path
         d="m 120.96013,831.58074 c -2e-5,0.46934 -0.0807,0.82867 -0.242,1.078 -0.14668,0.24934 -0.43268,0.374 -0.85801,0.374 -0.264,0 -0.484,-0.0807 -0.65999,-0.242 -0.17601,-0.16133 -0.32268,-0.33 -0.44,-0.506 -0.10268,-0.19066 -0.35201,-0.36666 -0.74801,-0.528 -0.38134,-0.16133 -0.902,-0.242 -1.56199,-0.242 -0.55734,0 -1.06334,0.0807 -1.518,0.242 -0.44001,0.14667 -0.66001,0.32267 -0.66,0.528 -1e-5,0.29334 0.32266,0.506 0.968,0.638 0.64532,0.11734 1.45199,0.24934 2.41999,0.396 0.968,0.14667 1.70866,0.36667 2.22201,0.66 0.48398,0.264 0.85798,0.616 1.122,1.056 0.27865,0.44 0.41798,0.91667 0.41799,1.43 -1e-5,0.89466 -0.46201,1.63533 -1.386,2.222 -0.924,0.58666 -2.09734,0.88 -3.51999,0.88 -1.27601,0 -2.36134,-0.21267 -3.256,-0.638 -0.22001,0.176 -0.45467,0.264 -0.70401,0.264 -0.748,0 -1.122,-0.484 -1.122,-1.452 l 0,-0.726 c 0,-0.98267 0.374,-1.474 1.122,-1.474 0.55734,0 0.93133,0.32267 1.122,0.968 0.63067,0.572 1.54733,0.858 2.75,0.858 0.704,0 1.30533,-0.0953 1.804,-0.286 0.51333,-0.19067 0.77,-0.41067 0.77001,-0.66 -10e-6,-0.572 -0.92401,-0.95333 -2.772,-1.144 -1.54001,-0.16133 -2.65468,-0.47667 -3.344,-0.946 -0.68934,-0.46933 -1.03401,-1.13666 -1.034,-2.002 -1e-5,-0.88 0.42533,-1.59866 1.27599,-2.156 0.85067,-0.57199 1.936,-0.85799 3.256,-0.858 1.07066,10e-6 2.01666,0.19067 2.83801,0.572 0.16132,-0.38133 0.39599,-0.57199 0.704,-0.572 0.68932,10e-6 1.03398,0.48401 1.034,1.452 l 0,0.814"
         style="font-size:22px;font-weight:bold;fill:url(#linearGradient3806);stroke:url(#linearGradient3808);font-family:FreeMono;-inkscape-font-specification:FreeMono Bold"
         id="path3015" />
      <path
         d="m 68.5245,861.01674 c 0.425321,0 0.711321,0.12467 0.858,0.374 0.161321,0.24933 0.241987,0.616 0.242,1.1 l 0,4.224 -10.384,0 c -0.968001,0 -1.452001,-0.36667 -1.452,-1.1 -10e-7,-0.42534 0.124666,-0.71134 0.374,-0.858 0.249332,-0.16133 0.608665,-0.242 1.078,-0.242 l 1.254,0 0,-8.426 -1.254,0 c -0.968001,10e-6 -1.452001,-0.36666 -1.452,-1.1 -10e-7,-0.42532 0.124666,-0.71132 0.374,-0.858 0.249332,-0.16132 0.608665,-0.24199 1.078,-0.242 l 4.708,0 c 0.967992,10e-6 1.451992,0.36668 1.452,1.1 -8e-6,0.73334 -0.484008,1.10001 -1.452,1.1 l -1.254,0 0,8.426 4.73,0 0,-2.024 c -10e-6,-0.98267 0.366656,-1.474 1.1,-1.474"
         style="font-size:22px;font-weight:bold;fill:url(#linearGradient3810);stroke:url(#linearGradient3812);font-family:FreeMono;-inkscape-font-specification:FreeMono Bold"
         id="path3017" />
      <path
         d="m 82.353906,865.24074 c -1.2e-5,0.46933 -0.425345,0.858 -1.276,1.166 -0.850676,0.29333 -1.650009,0.47666 -2.398,0.55 -0.733341,0.0733 -1.364007,0.11 -1.892,0.11 -1.701338,0 -3.09467,-0.47667 -4.18,-1.43 -1.085334,-0.95334 -1.628,-2.178 -1.628,-3.674 0,-1.452 0.542666,-2.66933 1.628,-3.652 1.099997,-0.99733 2.449329,-1.49599 4.048,-1.496 1.642659,10e-6 2.999324,0.49867 4.07,1.496 1.085322,0.99734 1.627988,2.25134 1.628,3.762 l 0,0.858 -8.976,0 c 0.498663,1.29067 1.701329,1.936 3.608,1.936 0.777326,0 1.642659,-0.11734 2.596,-0.352 0.953323,-0.24933 1.525323,-0.374 1.716,-0.374 0.293322,0 0.542655,0.11 0.748,0.33 0.205322,0.20533 0.307988,0.462 0.308,0.77 m -8.91,-4.246 6.468,0 c -0.176009,-0.60133 -0.557342,-1.078 -1.144,-1.43 -0.586674,-0.36666 -1.28334,-0.55 -2.09,-0.55 -0.806672,0 -1.510671,0.18334 -2.112,0.55 -0.58667,0.36667 -0.96067,0.84334 -1.122,1.43"
         style="font-size:22px;font-weight:bold;fill:url(#linearGradient3810);stroke:url(#linearGradient3812);font-family:FreeMono;-inkscape-font-specification:FreeMono Bold"
         id="path3019" />
      <path
         d="m 95.479313,864.51474 c 0.967986,0 1.451986,0.36666 1.452,1.1 -1.4e-5,0.73333 -0.484014,1.1 -1.452,1.1 l -2.552001,0 0,-0.77 c -1.056008,0.71866 -2.16334,1.078 -3.322,1.078 -1.642671,0 -2.962669,-0.49134 -3.959999,-1.474 -0.982668,-0.98267 -1.474001,-2.2 -1.474001,-3.652 0,-1.452 0.491333,-2.662 1.474001,-3.63 0.99733,-0.98266 2.324662,-1.47399 3.982,-1.474 1.275992,10e-6 2.375991,0.36667 3.299999,1.1 l 0,-2.706 -0.352,0 c -0.469341,10e-6 -0.828674,-0.0733 -1.078,-0.22 -0.249341,-0.16133 -0.374007,-0.45466 -0.374,-0.88 -7e-6,-0.41066 0.124659,-0.68932 0.374,-0.836 0.249326,-0.16132 0.608659,-0.24199 1.078,-0.242 l 2.552001,0 0,11.506 0.352,0 m -2.552001,-2.574 c -9e-6,-0.88 -0.300675,-1.59133 -0.902,-2.134 -0.601341,-0.54266 -1.400673,-0.814 -2.397999,-0.814 -0.982672,0 -1.774672,0.286 -2.376001,0.858 -0.586669,0.55734 -0.880002,1.23934 -0.879999,2.046 -3e-6,0.836 0.300663,1.53267 0.902,2.09 0.615995,0.55733 1.407994,0.836 2.376,0.836 0.967992,0 1.752658,-0.27133 2.353999,-0.814 0.615991,-0.55733 0.923991,-1.24667 0.924,-2.068"
         style="font-size:22px;font-weight:bold;fill:url(#linearGradient3810);stroke:url(#linearGradient3812);font-family:FreeMono;-inkscape-font-specification:FreeMono Bold"
         id="path3021" />
      <path
         d="m 99.738719,870.01474 c -3e-6,-0.42534 0.124663,-0.71867 0.374001,-0.88 0.24933,-0.14667 0.60866,-0.22001 1.078,-0.22 l 2.398,0 c 0.64532,-1e-5 1.15132,-0.15401 1.518,-0.462 0.36666,-0.30801 0.54999,-0.74067 0.55,-1.298 l 0,-1.21 c -0.96801,0.71866 -2.00201,1.078 -3.102,1.078 -1.48134,0 -2.720671,-0.484 -3.718001,-1.452 -0.982668,-0.98267 -1.474001,-2.2 -1.474,-3.652 -10e-7,-1.46666 0.491332,-2.684 1.474,-3.652 0.99733,-0.98266 2.236661,-1.47399 3.718001,-1.474 1.20266,10e-6 2.23666,0.36667 3.102,1.1 l 0,-0.792 2.552,0 c 0.96799,10e-6 1.45199,0.36667 1.452,1.1 -1e-5,0.73334 -0.48401,1.1 -1.452,1.1 l -0.352,0 0,7.854 c -10e-6,1.15866 -0.40335,2.10466 -1.21,2.838 -0.79201,0.74799 -1.78934,1.12199 -2.992,1.122 l -2.464,0 c -0.968,-10e-6 -1.452004,-0.36667 -1.452001,-1.1 m 2.860001,-11.022 c -0.83601,0 -1.55467,0.286 -2.156,0.858 -0.586671,0.55734 -0.880004,1.23934 -0.880001,2.046 -3e-6,0.80667 0.29333,1.496 0.880001,2.068 0.60133,0.572 1.31999,0.858 2.156,0.858 0.83599,0 1.55466,-0.27867 2.156,-0.836 0.60132,-0.572 0.90199,-1.254 0.902,-2.046 -1e-5,-0.82133 -0.30068,-1.518 -0.902,-2.09 -0.58668,-0.572 -1.30534,-0.858 -2.156,-0.858"
         style="font-size:22px;font-weight:bold;fill:url(#linearGradient3810);stroke:url(#linearGradient3812);font-family:FreeMono;-inkscape-font-specification:FreeMono Bold"
         id="path3023" />
      <path
         d="m 121.92812,865.24074 c -1e-5,0.46933 -0.42534,0.858 -1.276,1.166 -0.85067,0.29333 -1.65,0.47666 -2.39799,0.55 -0.73335,0.0733 -1.36401,0.11 -1.892,0.11 -1.70134,0 -3.09468,-0.47667 -4.18,-1.43 -1.08534,-0.95334 -1.62801,-2.178 -1.628,-3.674 -1e-5,-1.452 0.54266,-2.66933 1.628,-3.652 1.09999,-0.99733 2.44932,-1.49599 4.048,-1.496 1.64265,10e-6 2.99932,0.49867 4.07,1.496 1.08532,0.99734 1.62798,2.25134 1.62799,3.762 l 0,0.858 -8.976,0 c 0.49867,1.29067 1.70133,1.936 3.60801,1.936 0.77732,0 1.64265,-0.11734 2.596,-0.352 0.95332,-0.24933 1.52532,-0.374 1.71599,-0.374 0.29333,0 0.54266,0.11 0.74801,0.33 0.20532,0.20533 0.30798,0.462 0.30799,0.77 m -8.91,-4.246 6.46801,0 c -0.17601,-0.60133 -0.55735,-1.078 -1.14401,-1.43 -0.58667,-0.36666 -1.28334,-0.55 -2.08999,-0.55 -0.80668,0 -1.51068,0.18334 -2.11201,0.55 -0.58667,0.36667 -0.96067,0.84334 -1.122,1.43"
         style="font-size:22px;font-weight:bold;fill:url(#linearGradient3810);stroke:url(#linearGradient3812);font-family:FreeMono;-inkscape-font-specification:FreeMono Bold"
         id="path3025" />
      <path
         d="m 132.80953,856.83674 c 0.61599,1e-5 1.23199,0.19067 1.848,0.572 0.61599,0.38134 0.92399,0.814 0.924,1.298 -10e-6,0.308 -0.11001,0.572 -0.33,0.792 -0.22001,0.22 -0.47668,0.33 -0.77,0.33 -0.24934,0 -0.53534,-0.132 -0.858,-0.396 -0.32268,-0.264 -0.60868,-0.396 -0.858,-0.396 -0.35201,0 -0.78467,0.16134 -1.298,0.484 -0.49867,0.308 -1.27601,0.89467 -2.332,1.76 l 0,3.234 3.058,0 c 0.98266,0 1.47399,0.36666 1.474,1.1 -1e-5,0.73333 -0.49134,1.1 -1.474,1.1 l -6.534,0 c -0.968,0 -1.452,-0.36667 -1.452,-1.1 0,-0.42534 0.12467,-0.71134 0.374,-0.858 0.24933,-0.16133 0.60867,-0.242 1.078,-0.242 l 1.276,0 0,-5.214 -0.77,0 c -0.968,0 -1.452,-0.36666 -1.452,-1.1 0,-0.73333 0.484,-1.09999 1.452,-1.1 l 2.97,0 0,1.43 c 0.87999,-0.65999 1.57666,-1.10733 2.09,-1.342 0.51333,-0.23466 1.04133,-0.35199 1.584,-0.352"
         style="font-size:22px;font-weight:bold;fill:url(#linearGradient3810);stroke:url(#linearGradient3812);font-family:FreeMono;-inkscape-font-specification:FreeMono Bold"
         id="path3027" />
    </g>
  </g>
</svg>
