<?xml version="1.0" encoding="UTF-8" standalone="no"?>
<!-- Created with Inkscape (http://www.inkscape.org/) -->

<svg
   xmlns:dc="http://purl.org/dc/elements/1.1/"
   xmlns:cc="http://creativecommons.org/ns#"
   xmlns:rdf="http://www.w3.org/1999/02/22-rdf-syntax-ns#"
   xmlns:svg="http://www.w3.org/2000/svg"
   xmlns="http://www.w3.org/2000/svg"
   xmlns:xlink="http://www.w3.org/1999/xlink"
   xmlns:sodipodi="http://sodipodi.sourceforge.net/DTD/sodipodi-0.dtd"
   xmlns:inkscape="http://www.inkscape.org/namespaces/inkscape"
   width="699.25397"
   height="708.43445"
   id="svg3314"
   version="1.1"
   inkscape:version="0.48.3.1 r9886"
   sodipodi:docname="wages.svg">
  <defs
     id="defs3316">
    <linearGradient
       id="linearGradient3755">
      <stop
         style="stop-color:#110b02;stop-opacity:1;"
         offset="0"
         id="stop3757" />
      <stop
         style="stop-color:#dddddd;stop-opacity:1;"
         offset="1"
         id="stop3759" />
    </linearGradient>
    <linearGradient
       inkscape:collect="always"
       xlink:href="#linearGradient3755"
       id="linearGradient3761"
       x1="16.436571"
       y1="588.81531"
       x2="394.11304"
       y2="588.81531"
       gradientUnits="userSpaceOnUse" />
  </defs>
  <sodipodi:namedview
     id="base"
     pagecolor="#ffffff"
     bordercolor="#666666"
     borderopacity="1.0"
     inkscape:pageopacity="0.0"
     inkscape:pageshadow="2"
     inkscape:zoom="0.35"
     inkscape:cx="-606.86551"
     inkscape:cy="334.18087"
     inkscape:document-units="px"
     inkscape:current-layer="layer1"
     showgrid="false"
     inkscape:window-width="1440"
     inkscape:window-height="851"
     inkscape:window-x="0"
     inkscape:window-y="25"
     inkscape:window-maximized="1"
     fit-margin-top="7"
     fit-margin-left="5"
     fit-margin-right="5"
     fit-margin-bottom="7" />
  <metadata
     id="metadata3319">
    <rdf:RDF>
      <cc:Work
         rdf:about="">
        <dc:format>image/svg+xml</dc:format>
        <dc:type
           rdf:resource="http://purl.org/dc/dcmitype/StillImage" />
        <dc:title />
      </cc:Work>
    </rdf:RDF>
  </metadata>
  <g
     inkscape:label="Layer 1"
     inkscape:groupmode="layer"
     id="layer1"
     transform="translate(-10.436945,-158.10857)">
    <g
       transform="matrix(5.532953,0,0,4.1657297,-1302.042,-1290.5536)"
       style="font-size:12px;font-style:normal;font-variant:normal;font-weight:normal;font-stretch:normal;text-align:start;line-height:125%;letter-spacing:0px;word-spacing:0px;writing-mode:lr-tb;text-anchor:start;fill:#110b02;fill-opacity:1;stroke:#110b02;stroke-width:0.41658723;stroke-miterlimit:4;stroke-opacity:1;font-family:Sans;-inkscape-font-specification:Sans"
       id="flowRoot3866">
      <path
         d="m 336.20125,404.17237 -22.5,0 c -1.44,-12.23999 -1.98,-18.18001 -1.98,-24.66 0,-15.83998 6.30001,-25.02 17.1,-25.02 6.65999,0 9.9,3.06001 10.08,9.36 0.18,9.53999 1.62001,12.06 7.02,12.06 5.21999,0 9,-3.96001 9,-9.54 0,-9.53999 -10.08001,-16.74 -23.4,-16.74 -21.41998,0 -35.1,16.38003 -35.1,42.12 0,4.32 0.36,7.74001 1.26,12.42 l -19.26,0 0,8.1 19.44,0 c 3.6,26.45997 3.96,29.52 3.96,32.76 0,1.26 -0.18,2.34 -0.72,3.78 -3.42,-0.72 -5.58,-0.9 -8.28,-0.9 -9.71999,0 -16.38,5.40001 -16.38,13.68 0,6.83999 4.86001,11.16 12.24,11.16 6.29999,0 10.44001,-2.70001 17.64,-11.16 12.23999,8.45999 18.18001,10.98 25.92,10.98 8.63999,0 16.74001,-3.78001 22.5,-10.44 3.78,-4.32 7.74,-12.24 7.74,-15.3 0,-0.54 -0.36,-0.9 -1.08,-0.9 -0.9,0 -2.34,0.9 -4.14,2.88 -5.75999,6.11999 -12.06001,8.82 -20.34,8.82 -8.81999,0 -15.12001,-1.44 -26.82,-6.3 4.32,-21.95998 4.5,-22.86001 4.5,-29.16 l -0.18,-5.04 0,-4.86 21.78,0 0,-8.1 m -45.9,50.22 c 4.32,0 9.54,1.8 9.54,3.24 0,1.44 -1.08,3.6 -3.06,5.94 -2.52,3.06 -4.68,4.14 -8.28,4.14 -4.32,0 -7.38,-2.7 -7.38,-6.66 0,-4.32 3.24001,-6.66 9.18,-6.66"
         style="font-size:180px;fill:#110b02;stroke:#110b02;font-family:Nimbus Roman No9 L;-inkscape-font-specification:Nimbus Roman No9 L"
         id="path3772"
         inkscape:connector-curvature="0" />
    </g>
    <path
       style="fill:url(#linearGradient3761);fill-opacity:1;stroke:#000000;stroke-width:4;stroke-linecap:round;stroke-linejoin:round;stroke-miterlimit:4;stroke-opacity:1;stroke-dasharray:none"
       d="m 17.436572,801.10401 c 0,0 124.980188,55.50979 192.206588,56.43269 63.5968,0.87311 183.46988,-48.37085 183.46988,-48.37085 0,0 -13.21208,-102.40714 -32.03442,-150.48718 C 348.68109,627.01018 336.32866,591.9497 308.65868,569.99869 291.42691,556.32853 244.5898,548.5005 244.5898,548.5005 l -2.91219,-16.12361 c 0,0 34.44646,-16.26261 46.5955,-29.55995 8.95879,-9.80555 12.91051,-22.82007 17.4733,-34.93454 11.57668,-30.73643 5.82446,-61.80721 5.82446,-61.80721 0,0 -10.9532,-46.2126 -49.50772,-67.18175 -23.32618,-12.68672 -51.55344,-18.82978 -78.62999,-18.81093 -23.07423,0.0147 -46.53904,15.71476 -64.06884,29.55999 -18.49601,14.60837 -28.313557,29.78942 -32.034452,48.37085 -4.843448,24.18722 4.320336,49.84738 14.561112,72.55634 5.89678,13.07616 15.66206,24.64562 26.20996,34.9345 7.60622,7.41942 26.21007,18.8109 26.21007,18.8109 l 0,21.49815 c 0,0 -48.7034,5.16419 -69.893335,21.49819 -27.815547,21.44122 -39.163348,54.96994 -49.507761,85.99269 -15.794553,47.36739 -17.473342,147.79989 -17.473342,147.79989 z"
       id="path3037-9-3"
       inkscape:connector-curvature="0"
       sodipodi:nodetypes="cscssccsscssssssccssc" />
  </g>
</svg>
