<?xml version="1.0" encoding="UTF-8" standalone="no"?>
<!-- Created with Inkscape (http://www.inkscape.org/) -->

<svg
   xmlns:dc="http://purl.org/dc/elements/1.1/"
   xmlns:cc="http://creativecommons.org/ns#"
   xmlns:rdf="http://www.w3.org/1999/02/22-rdf-syntax-ns#"
   xmlns:svg="http://www.w3.org/2000/svg"
   xmlns="http://www.w3.org/2000/svg"
   xmlns:xlink="http://www.w3.org/1999/xlink"
   xmlns:sodipodi="http://sodipodi.sourceforge.net/DTD/sodipodi-0.dtd"
   xmlns:inkscape="http://www.inkscape.org/namespaces/inkscape"
   width="648.65625"
   height="650.81561"
   id="svg3175"
   version="1.1"
   inkscape:version="0.48.4 r9939"
   sodipodi:docname="doc_info.svg">
  <defs
     id="defs3177">
    <linearGradient
       id="linearGradient3766">
      <stop
         style="stop-color:#110b02;stop-opacity:1;"
         offset="0"
         id="stop3768" />
      <stop
         style="stop-color:#3b3b3b;stop-opacity:1;"
         offset="1"
         id="stop3770" />
    </linearGradient>
    <linearGradient
       id="linearGradient3758">
      <stop
         style="stop-color:#ffffff;stop-opacity:1;"
         offset="0"
         id="stop3760" />
      <stop
         style="stop-color:#f4ff72;stop-opacity:1;"
         offset="1"
         id="stop3762" />
    </linearGradient>
    <linearGradient
       inkscape:collect="always"
       xlink:href="#linearGradient3758"
       id="linearGradient3764"
       x1="19.666916"
       y1="595.12488"
       x2="578.32007"
       y2="595.12488"
       gradientUnits="userSpaceOnUse" />
    <linearGradient
       inkscape:collect="always"
       xlink:href="#linearGradient3766"
       id="linearGradient3772"
       x1="388.41199"
       y1="845.43341"
       x2="512.62457"
       y2="713.47577"
       gradientUnits="userSpaceOnUse" />
  </defs>
  <sodipodi:namedview
     id="base"
     pagecolor="#ffffff"
     bordercolor="#666666"
     borderopacity="1.0"
     inkscape:pageopacity="0.0"
     inkscape:pageshadow="2"
     inkscape:zoom="0.59105127"
     inkscape:cx="397.39102"
     inkscape:cy="394.35016"
     inkscape:document-units="px"
     inkscape:current-layer="layer1"
     showgrid="false"
     inkscape:window-width="1440"
     inkscape:window-height="824"
     inkscape:window-x="0"
     inkscape:window-y="24"
     inkscape:window-maximized="1"
     fit-margin-top="5"
     fit-margin-left="45"
     fit-margin-right="45"
     fit-margin-bottom="5" />
  <metadata
     id="metadata3180">
    <rdf:RDF>
      <cc:Work
         rdf:about="">
        <dc:format>image/svg+xml</dc:format>
        <dc:type
           rdf:resource="http://purl.org/dc/dcmitype/StillImage" />
        <dc:title />
      </cc:Work>
    </rdf:RDF>
  </metadata>
  <g
     inkscape:label="Layer 1"
     inkscape:groupmode="layer"
     id="layer1"
     transform="translate(25.34378,-269.71562)">
    <rect
       style="fill:url(#linearGradient3764);fill-opacity:1;stroke:#110b02;stroke-width:5;stroke-linejoin:round;stroke-miterlimit:4;stroke-opacity:1;stroke-dasharray:none"
       id="rect4802"
       width="553.65314"
       height="635.836"
       x="22.166916"
       y="277.20685" />
    <path
       sodipodi:type="arc"
       style="fill:#110b02;fill-opacity:1;stroke:#110b02;stroke-width:0.57492423;stroke-miterlimit:4;stroke-opacity:1;stroke-dasharray:none"
       id="path4871"
       sodipodi:cx="357.14542"
       sodipodi:cy="140.76723"
       sodipodi:rx="58.030621"
       sodipodi:ry="55.973843"
       d="m 415.17604,140.76723 c 0,30.9135 -25.9812,55.97384 -58.03062,55.97384 -32.04943,0 -58.03062,-25.06034 -58.03062,-55.97384 0,-30.9135 25.98119,-55.973845 58.03062,-55.973845 32.04942,0 58.03062,25.060345 58.03062,55.973845 z"
       transform="matrix(3.4858194,0,0,3.4716336,-993.96862,99.955465)" />
    <path
       sodipodi:type="arc"
       style="fill:#ffffff;fill-opacity:1;stroke:#110b02;stroke-width:0.66556275;stroke-miterlimit:4;stroke-opacity:1;stroke-dasharray:none"
       id="path4871-0"
       sodipodi:cx="357.14542"
       sodipodi:cy="140.76723"
       sodipodi:rx="58.030621"
       sodipodi:ry="55.973843"
       d="m 415.17604,140.76723 c 0,30.9135 -25.9812,55.97384 -58.03062,55.97384 -32.04943,0 -58.03062,-25.06034 -58.03062,-55.97384 0,-30.9135 25.98119,-55.973845 58.03062,-55.973845 32.04942,0 58.03062,25.060345 58.03062,55.973845 z"
       transform="matrix(3.0358546,0,0,2.9744111,-833.26935,169.37555)" />
    <path
       style="fill:url(#linearGradient3772);fill-opacity:1;stroke:#110b02;stroke-width:2;stroke-linecap:butt;stroke-linejoin:miter;stroke-miterlimit:4;stroke-opacity:1;stroke-dasharray:none"
       d="m 381.16463,737.1322 c 0,0 74.4711,85.03012 121.05364,107.36569 5.99487,2.87443 14.50519,-0.085 19.41434,-4.56872 4.4445,-4.05943 8.15251,-11.63093 5.71003,-17.13285 C 507.95853,779.13148 401.7209,716.57281 401.7209,716.57281 z"
       id="path4891"
       inkscape:connector-curvature="0"
       sodipodi:nodetypes="cssscc" />
    <g
       transform="matrix(4.5549405,0,0,4.5549405,-2396.4201,204.5784)"
       style="font-size:14px;font-style:normal;font-weight:bold;line-height:125%;letter-spacing:0px;word-spacing:0px;fill:#000000;fill-opacity:1;stroke:none;font-family:Sans;-inkscape-font-specification:Sans Bold"
       id="flowRoot4649">
      <path
         d="m 536.79199,25.112691 0,6.227539 0.94336,0 c 1.07552,2e-6 1.89583,-0.266599 2.46094,-0.799804 0.56965,-0.5332 0.85448,-1.307939 0.85449,-2.324219 -10e-6,-1.011713 -0.28256,-1.781894 -0.84766,-2.310547 -0.56511,-0.528638 -1.3877,-0.79296 -2.46777,-0.792969 l -0.94336,0 m -2.63183,-1.989257 2.77539,0 c 1.54947,10e-6 2.70246,0.111663 3.45898,0.334961 0.76106,0.218759 1.41275,0.592457 1.95508,1.121093 0.47851,0.460295 0.83397,0.991219 1.06641,1.592774 0.23241,0.601569 0.34862,1.282883 0.34863,2.043945 -10e-6,0.770187 -0.11622,1.458337 -0.34863,2.064453 -0.23244,0.601565 -0.5879,1.132489 -1.06641,1.592774 -0.54688,0.528646 -1.20313,0.904623 -1.96875,1.127929 -0.76563,0.21875 -1.91407,0.328125 -3.44531,0.328125 l -2.77539,0 0,-10.206054"
         id="path3775"
         inkscape:connector-curvature="0" />
      <path
         d="m 549.31543,27.238668 c -0.54232,6e-6 -0.95704,0.195969 -1.24414,0.587891 -0.28256,0.387374 -0.42383,0.947921 -0.42383,1.68164 0,0.733727 0.14127,1.296552 0.42383,1.688477 0.2871,0.387371 0.70182,0.581056 1.24414,0.581054 0.5332,2e-6 0.94107,-0.193683 1.22363,-0.581054 0.28255,-0.391925 0.42382,-0.95475 0.42383,-1.688477 -10e-6,-0.733719 -0.14128,-1.294266 -0.42383,-1.68164 -0.28256,-0.391922 -0.69043,-0.587885 -1.22363,-0.587891 m 0,-1.75 c 1.31705,8e-6 2.34472,0.355476 3.08301,1.066406 0.74283,0.710944 1.11425,1.695318 1.11426,2.953125 -10e-6,1.257815 -0.37143,2.242189 -1.11426,2.953125 -0.73829,0.710938 -1.76596,1.066406 -3.08301,1.066406 -1.32162,0 -2.35612,-0.355468 -3.10352,-1.066406 -0.74284,-0.710936 -1.11425,-1.69531 -1.11425,-2.953125 0,-1.257807 0.37141,-2.242181 1.11425,-2.953125 0.7474,-0.71093 1.7819,-1.066398 3.10352,-1.066406"
         id="path3777"
         inkscape:connector-curvature="0" />
      <path
         d="m 561.4834,25.912496 0,1.996094 c -0.33269,-0.227859 -0.66765,-0.396479 -1.00488,-0.50586 -0.33269,-0.109369 -0.67905,-0.164056 -1.03907,-0.164062 -0.6836,6e-6 -1.2168,0.200527 -1.59961,0.601562 -0.37825,0.39649 -0.56738,0.952479 -0.56738,1.667969 0,0.715498 0.18913,1.273766 0.56738,1.674805 0.38281,0.396486 0.91601,0.594728 1.59961,0.594726 0.38281,2e-6 0.74511,-0.05696 1.08692,-0.170898 0.34634,-0.11393 0.66535,-0.28255 0.95703,-0.505859 l 0,2.002929 c -0.38282,0.141276 -0.77247,0.246094 -1.16895,0.314453 -0.39193,0.07292 -0.78614,0.109375 -1.18261,0.109375 -1.38087,0 -2.46094,-0.35319 -3.24024,-1.05957 -0.7793,-0.710936 -1.16894,-1.697588 -1.16894,-2.959961 0,-1.262365 0.38964,-2.246739 1.16894,-2.953125 0.7793,-0.71093 1.85937,-1.066398 3.24024,-1.066406 0.40103,8e-6 0.79524,0.03647 1.18261,0.109375 0.39192,0.06837 0.78157,0.173185 1.16895,0.314453"
         id="path3779"
         inkscape:connector-curvature="0" />
      <path
         d="m 563.52734,30.34902 0,-4.675782 2.46094,0 0,0.765625 c 0,0.41472 -0.002,0.93653 -0.007,1.56543 -0.005,0.624354 -0.007,1.041345 -0.007,1.250977 0,0.615237 0.0159,1.059573 0.0479,1.333007 0.0319,0.268883 0.0866,0.464846 0.16406,0.587891 0.10026,0.159507 0.23014,0.282554 0.38965,0.369141 0.16406,0.08659 0.35091,0.129884 0.56055,0.129882 0.51041,2e-6 0.91145,-0.195961 1.20312,-0.58789 0.29166,-0.391925 0.4375,-0.936521 0.4375,-1.633789 l 0,-3.780274 2.44727,0 0,7.65625 -2.44727,0 0,-1.107422 c -0.36914,0.446616 -0.76107,0.777019 -1.17578,0.991211 -0.41016,0.209636 -0.86361,0.314453 -1.36035,0.314453 -0.88412,0 -1.5586,-0.271158 -2.02344,-0.813476 -0.46028,-0.542317 -0.69043,-1.330727 -0.69043,-2.365234"
         id="path3781"
         inkscape:connector-curvature="0" />
      <path
         d="m 580.68555,26.944723 c 0.30988,-0.473952 0.67675,-0.833978 1.10058,-1.080078 0.42838,-0.250644 0.89778,-0.375969 1.40821,-0.375977 0.87954,8e-6 1.54946,0.271166 2.00976,0.813477 0.46027,0.542324 0.69042,1.330734 0.69043,2.365234 l 0,4.662109 -2.46094,0 0,-3.992187 c 0.005,-0.05924 0.007,-0.120764 0.007,-0.184571 0.005,-0.0638 0.007,-0.154943 0.007,-0.273437 -2e-5,-0.542313 -0.0798,-0.934239 -0.23926,-1.175781 -0.15952,-0.246088 -0.417,-0.369135 -0.77246,-0.369141 -0.46486,6e-6 -0.82488,0.191412 -1.08008,0.574219 -0.25066,0.382817 -0.38054,0.936528 -0.38965,1.661133 l 0,3.759765 -2.46094,0 0,-3.992187 c 0,-0.847652 -0.0729,-1.392247 -0.21875,-1.633789 -0.14584,-0.246088 -0.4056,-0.369135 -0.77929,-0.369141 -0.46941,6e-6 -0.83171,0.193691 -1.08692,0.581055 -0.25521,0.382817 -0.38281,0.93197 -0.38281,1.647461 l 0,3.766601 -2.46094,0 0,-7.65625 2.46094,0 0,1.121094 c 0.30078,-0.432936 0.64485,-0.758782 1.03223,-0.977539 0.39192,-0.218742 0.82258,-0.328117 1.29199,-0.328125 0.52864,8e-6 0.99576,0.127612 1.40137,0.382812 0.40559,0.255216 0.7132,0.612963 0.92285,1.073243"
         id="path3783"
         inkscape:connector-curvature="0" />
      <path
         d="m 595.83398,29.480855 0,0.697266 -5.72168,0 c 0.0593,0.574221 0.2666,1.004885 0.62207,1.291992 0.35547,0.287111 0.85221,0.430666 1.49024,0.430664 0.51497,2e-6 1.04133,-0.07519 1.5791,-0.225586 0.54231,-0.154946 1.0983,-0.387367 1.66797,-0.697265 l 0,1.886719 c -0.57878,0.21875 -1.15756,0.382812 -1.73633,0.492187 -0.57878,0.113932 -1.15756,0.170898 -1.73633,0.170898 -1.38542,0 -2.46322,-0.350911 -3.2334,-1.052734 -0.76562,-0.706379 -1.14843,-1.69531 -1.14843,-2.966797 0,-1.248693 0.37597,-2.230788 1.12793,-2.946289 0.75651,-0.715487 1.79557,-1.073234 3.11718,-1.073242 1.20312,8e-6 2.16471,0.362312 2.88477,1.086914 0.7246,0.724615 1.08691,1.693039 1.08691,2.905273 m -2.51562,-0.813476 c -10e-6,-0.464839 -0.13673,-0.838536 -0.41016,-1.121094 -0.26888,-0.287103 -0.62207,-0.430658 -1.05957,-0.430664 -0.47396,6e-6 -0.85905,0.134446 -1.15527,0.40332 -0.29623,0.264329 -0.4808,0.647141 -0.55371,1.148438 l 3.17871,0"
         id="path3785"
         inkscape:connector-curvature="0" />
      <path
         d="m 605.37695,28.667379 0,4.662109 -2.46093,0 0,-0.758789 0,-2.80957 c -10e-6,-0.660803 -0.016,-1.116532 -0.0479,-1.367188 -0.0273,-0.250645 -0.0775,-0.435216 -0.15039,-0.553711 -0.0957,-0.159499 -0.22559,-0.282546 -0.38965,-0.36914 -0.16406,-0.09114 -0.35091,-0.136713 -0.56054,-0.136719 -0.51042,6e-6 -0.91146,0.198248 -1.20313,0.594727 -0.29167,0.391932 -0.4375,0.936528 -0.4375,1.633789 l 0,3.766601 -2.44726,0 0,-7.65625 2.44726,0 0,1.121094 c 0.36914,-0.446608 0.76107,-0.774732 1.17578,-0.984375 0.41471,-0.214185 0.87272,-0.321281 1.37403,-0.321289 0.88411,8e-6 1.55403,0.271166 2.00976,0.813477 0.46028,0.542324 0.69042,1.330734 0.69043,2.365234"
         id="path3787"
         inkscape:connector-curvature="0" />
      <path
         d="m 610.33301,23.49941 0,2.173828 2.52246,0 0,1.75 -2.52246,0 0,3.247071 c -10e-6,0.355471 0.0706,0.597007 0.21191,0.724609 0.14127,0.123049 0.42155,0.184572 0.84082,0.18457 l 1.25781,0 0,1.75 -2.09863,0 c -0.96615,0 -1.65202,-0.20052 -2.05762,-0.601562 -0.40104,-0.405598 -0.60156,-1.09147 -0.60156,-2.057617 l 0,-3.247071 -1.21679,0 0,-1.75 1.21679,0 0,-2.173828 2.44727,0"
         id="path3789"
         inkscape:connector-curvature="0" />
      <path
         d="m 619.33594,23.123434 2.63183,0 0,10.206054 -2.63183,0 0,-10.206054"
         id="path3791"
         inkscape:connector-curvature="0" />
      <path
         d="m 632.14648,28.667379 0,4.662109 -2.46093,0 0,-0.758789 0,-2.80957 c -1e-5,-0.660803 -0.016,-1.116532 -0.0479,-1.367188 -0.0273,-0.250645 -0.0775,-0.435216 -0.1504,-0.553711 -0.0957,-0.159499 -0.22559,-0.282546 -0.38964,-0.36914 -0.16407,-0.09114 -0.35092,-0.136713 -0.56055,-0.136719 -0.51042,6e-6 -0.91146,0.198248 -1.20313,0.594727 -0.29167,0.391932 -0.4375,0.936528 -0.4375,1.633789 l 0,3.766601 -2.44726,0 0,-7.65625 2.44726,0 0,1.121094 c 0.36914,-0.446608 0.76107,-0.774732 1.17579,-0.984375 0.4147,-0.214185 0.87271,-0.321281 1.37402,-0.321289 0.88411,8e-6 1.55403,0.271166 2.00976,0.813477 0.46028,0.542324 0.69043,1.330734 0.69043,2.365234"
         id="path3793"
         inkscape:connector-curvature="0" />
      <path
         d="m 639.46777,22.69277 0,1.606445 -1.35351,0 c -0.34636,9e-6 -0.5879,0.06381 -0.72461,0.191406 -0.13672,0.123056 -0.20508,0.339527 -0.20508,0.649414 l 0,0.533203 2.0918,0 0,1.75 -2.0918,0 0,5.90625 -2.44727,0 0,-5.90625 -1.21679,0 0,-1.75 1.21679,0 0,-0.533203 c 0,-0.833975 0.23242,-1.449209 0.69727,-1.845703 0.46484,-0.401031 1.18489,-0.601552 2.16016,-0.601562 l 1.87304,0"
         id="path3795"
         inkscape:connector-curvature="0" />
      <path
         d="m 644.1709,27.238668 c -0.54232,6e-6 -0.95704,0.195969 -1.24414,0.587891 -0.28256,0.387374 -0.42383,0.947921 -0.42383,1.68164 0,0.733727 0.14127,1.296552 0.42383,1.688477 0.2871,0.387371 0.70182,0.581056 1.24414,0.581054 0.5332,2e-6 0.94107,-0.193683 1.22363,-0.581054 0.28255,-0.391925 0.42382,-0.95475 0.42383,-1.688477 -10e-6,-0.733719 -0.14128,-1.294266 -0.42383,-1.68164 -0.28256,-0.391922 -0.69043,-0.587885 -1.22363,-0.587891 m 0,-1.75 c 1.31705,8e-6 2.34472,0.355476 3.08301,1.066406 0.74283,0.710944 1.11425,1.695318 1.11425,2.953125 0,1.257815 -0.37142,2.242189 -1.11425,2.953125 -0.73829,0.710938 -1.76596,1.066406 -3.08301,1.066406 -1.32162,0 -2.35612,-0.355468 -3.10352,-1.066406 -0.74284,-0.710936 -1.11426,-1.69531 -1.11426,-2.953125 0,-1.257807 0.37142,-2.242181 1.11426,-2.953125 0.7474,-0.71093 1.7819,-1.066398 3.10352,-1.066406"
         id="path3797"
         inkscape:connector-curvature="0" />
    </g>
  </g>
</svg>
