<?xml version="1.0" encoding="UTF-8" standalone="no"?>
<!-- Created with Inkscape (http://www.inkscape.org/) -->

<svg
   xmlns:dc="http://purl.org/dc/elements/1.1/"
   xmlns:cc="http://creativecommons.org/ns#"
   xmlns:rdf="http://www.w3.org/1999/02/22-rdf-syntax-ns#"
   xmlns:svg="http://www.w3.org/2000/svg"
   xmlns="http://www.w3.org/2000/svg"
   xmlns:sodipodi="http://sodipodi.sourceforge.net/DTD/sodipodi-0.dtd"
   xmlns:inkscape="http://www.inkscape.org/namespaces/inkscape"
   width="708.375"
   height="710.59375"
   id="svg3305"
   version="1.1"
   inkscape:version="0.48.4 r9939"
   sodipodi:docname="grammar_check.svg">
  <defs
     id="defs3307" />
  <sodipodi:namedview
     id="base"
     pagecolor="#ffffff"
     bordercolor="#666666"
     borderopacity="1.0"
     inkscape:pageopacity="0.0"
     inkscape:pageshadow="2"
     inkscape:zoom="0.35"
     inkscape:cx="-622.02678"
     inkscape:cy="345.29407"
     inkscape:document-units="px"
     inkscape:current-layer="layer1"
     showgrid="false"
     inkscape:window-width="1440"
     inkscape:window-height="824"
     inkscape:window-x="0"
     inkscape:window-y="24"
     inkscape:window-maximized="1"
     fit-margin-top="35"
     fit-margin-left="5"
     fit-margin-right="5"
     fit-margin-bottom="35" />
  <metadata
     id="metadata3310">
    <rdf:RDF>
      <cc:Work
         rdf:about="">
        <dc:format>image/svg+xml</dc:format>
        <dc:type
           rdf:resource="http://purl.org/dc/dcmitype/StillImage" />
        <dc:title />
      </cc:Work>
    </rdf:RDF>
  </metadata>
  <g
     inkscape:label="Layer 1"
     inkscape:groupmode="layer"
     id="layer1"
     transform="translate(-11.3125,-167.0625)">
    <rect
       style="fill:#ffffff;fill-opacity:1;stroke:#ffffff;stroke-width:2;stroke-miterlimit:4;stroke-opacity:1;stroke-dasharray:none"
       id="rect4675"
       width="696.37238"
       height="638.60876"
       x="17.320198"
       y="203.05782"
       ry="27.27726" />
    <rect
       style="fill:#110b02;fill-opacity:1;stroke:#110b02;stroke-width:2;stroke-miterlimit:4;stroke-opacity:1;stroke-dasharray:none"
       id="rect4677"
       width="625.7724"
       height="572.82245"
       x="52.620113"
       y="238.35783"
       ry="20" />
    <g
       transform="matrix(3.4144432,-2.1106369,2.1106369,3.4144432,-1724.6789,66.965628)"
       style="font-size:14px;font-style:normal;font-weight:normal;line-height:125%;letter-spacing:0px;word-spacing:0px;fill:#ffffff;fill-opacity:1;stroke:#ffffff;stroke-width:0.5;stroke-miterlimit:4;stroke-opacity:1;font-family:Sans"
       id="flowRoot4679">
      <path
         d="m 316.75391,368.21287 c -0.5469,3.0599 -0.87242,6.28907 -0.97657,9.6875 -0.13022,4.20573 -0.83335,7.25911 -2.10937,9.16016 -1.70575,2.53905 -4.72658,3.80858 -9.0625,3.80859 -5.06511,-1e-5 -7.59766,-1.00261 -7.59766,-3.00781 0,-0.71616 0.22787,-1.29558 0.6836,-1.73828 0.45572,-0.44272 1.05468,-0.66407 1.79687,-0.66407 0.58594,0 1.42578,0.11068 2.51953,0.33204 1.09375,0.22134 2.0638,0.33202 2.91016,0.33203 1.94009,-1e-5 3.37238,-0.59246 4.29687,-1.77735 0.88541,-1.15885 1.40624,-3.0013 1.5625,-5.52734 -0.66407,0.67708 -1.41277,1.18489 -2.24609,1.52344 -0.83334,0.33854 -1.7448,0.50781 -2.73438,0.50781 -2.59115,0 -4.70052,-0.83985 -6.32812,-2.51953 -1.61458,-1.69271 -2.42188,-3.85416 -2.42188,-6.48438 0,-3.54165 1.08073,-6.40623 3.24219,-8.59375 2.23958,-2.2656 5.26692,-3.39841 9.08203,-3.39843 1.22395,2e-5 2.27863,0.14975 3.16407,0.44921 0.8854,0.2995 1.60154,0.75523 2.14843,1.36719 1.65363,0.19533 2.48045,1.17189 2.48047,2.92969 -2e-5,0.87241 -0.13674,2.07683 -0.41015,3.61328 m -7.57813,-3.90625 c -2.20053,2e-5 -3.91277,0.72267 -5.13672,2.16797 -1.09375,1.31512 -1.64063,3.02084 -1.64062,5.11719 -10e-6,1.54948 0.29296,2.71485 0.8789,3.49609 0.58593,0.78125 1.46484,1.17188 2.63672,1.17188 1.0677,0 2.14192,-0.61849 3.22266,-1.85547 1.01561,-1.17187 1.59504,-2.33073 1.73828,-3.47657 0.24738,-1.24999 0.53384,-3.1966 0.85937,-5.83984 -0.44272,-0.2604 -0.87892,-0.45571 -1.30859,-0.58594 -0.4297,-0.13019 -0.84637,-0.19529 -1.25,-0.19531"
         style="font-size:40px;font-variant:normal;font-weight:bold;font-stretch:normal;fill:#ffffff;fill-opacity:1;stroke:#ffffff;stroke-opacity:1;font-family:Comic Sans MS;-inkscape-font-specification:Comic Sans MS Bold"
         id="path2993"
         inkscape:connector-curvature="0" />
      <path
         d="m 336.26562,365.77146 c -0.1172,1.9922 -1.02215,2.9883 -2.71484,2.98829 -1.64064,1e-5 -2.46095,-0.84635 -2.46094,-2.53907 l -0.0976,-1.97265 c -2.9297,0.46876 -5.02605,1.97267 -6.28907,4.51172 l 0.0195,9.82421 c -10e-6,0.74219 -0.25392,1.35417 -0.76172,1.83594 -0.50782,0.49479 -1.15235,0.74219 -1.9336,0.74219 -0.80729,0 -1.43229,-0.26042 -1.875,-0.78125 -0.41666,-0.46875 -0.625,-1.06771 -0.625,-1.79688 l 0,-12.79296 c 0,-0.40364 0.013,-1.00259 0.0391,-1.79688 0.026,-0.80727 0.0391,-1.41274 0.0391,-1.81641 0,-0.72914 0.21484,-1.33461 0.64453,-1.8164 0.44271,-0.49477 1.0677,-0.74217 1.875,-0.74219 1.44531,2e-5 2.30468,0.74221 2.57812,2.22656 2.30468,-1.71873 4.86327,-2.5781 7.67579,-2.57812 2.60415,2e-5 3.90623,1.73179 3.90625,5.19531 -2e-5,0.66408 -0.007,1.10027 -0.0195,1.30859"
         style="font-size:40px;font-variant:normal;font-weight:bold;font-stretch:normal;fill:#ffffff;fill-opacity:1;stroke:#ffffff;stroke-opacity:1;font-family:Comic Sans MS;-inkscape-font-specification:Comic Sans MS Bold"
         id="path2995"
         inkscape:connector-curvature="0" />
      <path
         d="m 355.97266,381.14256 c -0.59898,0 -1.5495,-0.65104 -2.85157,-1.95313 -1.19793,0.57292 -2.25261,1.00261 -3.16406,1.28907 -0.91147,0.29947 -1.68621,0.44921 -2.32422,0.44921 -3.13803,0 -5.49479,-0.83984 -7.07031,-2.51953 -1.5625,-1.67968 -2.34375,-4.1927 -2.34375,-7.53906 0,-3.13801 1.15885,-5.8203 3.47656,-8.04687 2.3177,-2.23957 5.09114,-3.35936 8.32031,-3.35938 1.23697,2e-5 2.66926,0.35158 4.29688,1.05469 1.96613,0.84637 2.9492,1.82944 2.94922,2.94922 -2e-5,0.46876 -0.14976,0.87892 -0.44922,1.23047 -0.13023,0.52084 -0.23439,1.17839 -0.3125,1.97265 -0.0651,0.78126 -0.0977,1.69923 -0.0977,2.75391 -2e-5,2.48698 0.17577,4.27735 0.52735,5.37109 0.039,0.11719 0.33852,0.79428 0.89843,2.03125 0.5078,1.11979 0.7617,1.75782 0.76172,1.91406 -2e-5,0.69011 -0.26694,1.26302 -0.80078,1.71875 -0.52085,0.45573 -1.12632,0.6836 -1.8164,0.6836 m -4.84375,-13.39844 c -2e-5,-0.41665 0.026,-0.89191 0.0781,-1.42578 0.0651,-0.54686 0.15624,-1.15233 0.27344,-1.81641 -0.26043,-0.13019 -0.49481,-0.22134 -0.70313,-0.27343 -0.19532,-0.0651 -0.36459,-0.0976 -0.50781,-0.0977 -1.77084,10e-6 -3.32032,0.69663 -4.64844,2.08984 -1.32813,1.38022 -1.99219,2.98178 -1.99218,4.80469 -10e-6,1.7448 0.31249,3.0599 0.9375,3.94531 0.62499,0.8724 1.56249,1.3086 2.8125,1.3086 0.80728,0 1.56899,-0.13021 2.28515,-0.39063 0.72916,-0.27343 1.41275,-0.67057 2.05078,-1.1914 -0.39064,-3.09895 -0.58595,-5.41666 -0.58593,-6.95313"
         style="font-size:40px;font-variant:normal;font-weight:bold;font-stretch:normal;fill:#ffffff;fill-opacity:1;stroke:#ffffff;stroke-opacity:1;font-family:Comic Sans MS;-inkscape-font-specification:Comic Sans MS Bold"
         id="path2997"
         inkscape:connector-curvature="0" />
      <path
         d="m 366.44141,362.56834 c 1.96613,-2.27863 3.82811,-3.41795 5.58593,-3.41797 2.0052,2e-5 3.47655,0.76174 4.41407,2.28516 0.79425,-0.70311 1.67315,-1.23045 2.63671,-1.58203 0.96353,-0.35155 2.00519,-0.52733 3.125,-0.52735 2.55206,2e-5 4.28383,1.26955 5.19532,3.8086 0.18226,0.52084 0.46221,2.28517 0.83984,5.29296 0.36456,2.10939 0.8333,5.62501 1.40625,10.54688 0.0521,0.74219 -0.20185,1.35417 -0.76172,1.83594 -0.55992,0.48177 -1.21747,0.72265 -1.97265,0.72265 -1.49743,0 -2.37633,-0.74219 -2.63672,-2.22656 -0.2344,-1.34114 -0.47529,-3.23567 -0.72266,-5.68359 -0.26044,-2.68229 -0.47528,-4.58333 -0.64453,-5.70313 -0.35159,-2.33071 -0.8008,-3.49608 -1.34766,-3.49609 -0.2995,10e-6 -0.98309,0.29949 -2.05078,0.89844 -1.06772,0.59897 -1.84897,1.11329 -2.34375,1.54296 -2e-5,1.48439 0.17577,3.6198 0.52735,6.40625 0.36456,2.85157 0.54685,4.98698 0.54687,6.40625 -2e-5,0.74219 -0.25392,1.36068 -0.76172,1.85547 -0.50783,0.49479 -1.15236,0.74219 -1.93359,0.74219 -0.78127,0 -1.4258,-0.2474 -1.9336,-0.74219 -0.50782,-0.49479 -0.76173,-1.11328 -0.76171,-1.85547 -2e-5,-1.48437 -0.16278,-3.66536 -0.48829,-6.54296 -0.31251,-2.89062 -0.46876,-5.07812 -0.46875,-6.5625 -1e-5,-0.83332 -0.0716,-1.49739 -0.21484,-1.99219 -1.51043,0.87241 -3.02735,2.32423 -4.55078,4.35547 -0.0651,0.0911 -0.17579,0.22787 -0.33203,0.41015 -0.0521,2.63022 -0.0781,4.69402 -0.0781,6.19141 0,0.36459 -0.013,0.85938 -0.0391,1.48437 -0.026,0.61199 -0.0391,1.06771 -0.0391,1.36719 -10e-6,0.70313 -0.28647,1.25651 -0.85938,1.66016 -0.52084,0.3776 -1.16537,0.5664 -1.93359,0.5664 -1.10677,0 -1.85547,-0.48177 -2.24609,-1.44531 -0.27344,-0.65104 -0.41016,-1.68619 -0.41016,-3.10547 l 0,-7.26562 c 0,-0.65103 -0.026,-1.60155 -0.0781,-2.85156 -0.0521,-1.26301 -0.0781,-2.22004 -0.0781,-2.8711 0,-1.15883 0.20833,-2.20701 0.625,-3.14453 0.50781,-1.17185 1.22395,-1.75779 2.14844,-1.75781 0.72916,2e-5 1.3802,0.28648 1.95312,0.85937 0.57291,0.55992 0.85937,1.17841 0.85938,1.85547 -10e-6,-0.27342 -0.0586,0.28648 -0.17578,1.67969"
         style="font-size:40px;font-variant:normal;font-weight:bold;font-stretch:normal;fill:#ffffff;fill-opacity:1;stroke:#ffffff;stroke-opacity:1;font-family:Comic Sans MS;-inkscape-font-specification:Comic Sans MS Bold"
         id="path2999"
         inkscape:connector-curvature="0" />
      <path
         d="m 397.53516,362.56834 c 1.96613,-2.27863 3.82811,-3.41795 5.58593,-3.41797 2.0052,2e-5 3.47655,0.76174 4.41407,2.28516 0.79425,-0.70311 1.67315,-1.23045 2.63671,-1.58203 0.96353,-0.35155 2.00519,-0.52733 3.125,-0.52735 2.55206,2e-5 4.28383,1.26955 5.19532,3.8086 0.18226,0.52084 0.46221,2.28517 0.83984,5.29296 0.36456,2.10939 0.8333,5.62501 1.40625,10.54688 0.0521,0.74219 -0.20185,1.35417 -0.76172,1.83594 -0.55992,0.48177 -1.21747,0.72265 -1.97265,0.72265 -1.49743,0 -2.37633,-0.74219 -2.63672,-2.22656 -0.2344,-1.34114 -0.47529,-3.23567 -0.72266,-5.68359 -0.26044,-2.68229 -0.47528,-4.58333 -0.64453,-5.70313 -0.35159,-2.33071 -0.8008,-3.49608 -1.34766,-3.49609 -0.2995,10e-6 -0.98309,0.29949 -2.05078,0.89844 -1.06772,0.59897 -1.84897,1.11329 -2.34375,1.54296 -2e-5,1.48439 0.17577,3.6198 0.52735,6.40625 0.36456,2.85157 0.54685,4.98698 0.54687,6.40625 -2e-5,0.74219 -0.25392,1.36068 -0.76172,1.85547 -0.50783,0.49479 -1.15236,0.74219 -1.93359,0.74219 -0.78127,0 -1.4258,-0.2474 -1.9336,-0.74219 -0.50782,-0.49479 -0.76173,-1.11328 -0.76171,-1.85547 -2e-5,-1.48437 -0.16278,-3.66536 -0.48829,-6.54296 -0.31251,-2.89062 -0.46876,-5.07812 -0.46875,-6.5625 -1e-5,-0.83332 -0.0716,-1.49739 -0.21484,-1.99219 -1.51043,0.87241 -3.02735,2.32423 -4.55078,4.35547 -0.0651,0.0911 -0.17579,0.22787 -0.33203,0.41015 -0.0521,2.63022 -0.0781,4.69402 -0.0781,6.19141 0,0.36459 -0.013,0.85938 -0.0391,1.48437 -0.026,0.61199 -0.0391,1.06771 -0.0391,1.36719 -10e-6,0.70313 -0.28647,1.25651 -0.85938,1.66016 -0.52084,0.3776 -1.16537,0.5664 -1.93359,0.5664 -1.10677,0 -1.85547,-0.48177 -2.24609,-1.44531 -0.27344,-0.65104 -0.41016,-1.68619 -0.41016,-3.10547 l 0,-7.26562 c 0,-0.65103 -0.026,-1.60155 -0.0781,-2.85156 -0.0521,-1.26301 -0.0781,-2.22004 -0.0781,-2.8711 0,-1.15883 0.20833,-2.20701 0.625,-3.14453 0.50781,-1.17185 1.22395,-1.75779 2.14844,-1.75781 0.72916,2e-5 1.3802,0.28648 1.95312,0.85937 0.57291,0.55992 0.85937,1.17841 0.85938,1.85547 -10e-6,-0.27342 -0.0586,0.28648 -0.17578,1.67969"
         style="font-size:40px;font-variant:normal;font-weight:bold;font-stretch:normal;fill:#ffffff;fill-opacity:1;stroke:#ffffff;stroke-opacity:1;font-family:Comic Sans MS;-inkscape-font-specification:Comic Sans MS Bold"
         id="path3001"
         inkscape:connector-curvature="0" />
      <path
         d="m 440.42578,381.14256 c -0.59898,0 -1.5495,-0.65104 -2.85156,-1.95313 -1.19793,0.57292 -2.25262,1.00261 -3.16406,1.28907 -0.91147,0.29947 -1.68621,0.44921 -2.32422,0.44921 -3.13803,0 -5.4948,-0.83984 -7.07032,-2.51953 -1.5625,-1.67968 -2.34375,-4.1927 -2.34375,-7.53906 0,-3.13801 1.15886,-5.8203 3.47657,-8.04687 2.3177,-2.23957 5.09113,-3.35936 8.32031,-3.35938 1.23697,2e-5 2.66926,0.35158 4.29687,1.05469 1.96613,0.84637 2.9492,1.82944 2.94922,2.94922 -2e-5,0.46876 -0.14976,0.87892 -0.44922,1.23047 -0.13022,0.52084 -0.23439,1.17839 -0.3125,1.97265 -0.0651,0.78126 -0.0977,1.69923 -0.0976,2.75391 -2e-5,2.48698 0.17576,4.27735 0.52734,5.37109 0.039,0.11719 0.33852,0.79428 0.89844,2.03125 0.50779,1.11979 0.7617,1.75782 0.76172,1.91406 -2e-5,0.69011 -0.26695,1.26302 -0.80078,1.71875 -0.52086,0.45573 -1.12632,0.6836 -1.81641,0.6836 m -4.84375,-13.39844 c -1e-5,-0.41665 0.026,-0.89191 0.0781,-1.42578 0.0651,-0.54686 0.15623,-1.15233 0.27343,-1.81641 -0.26043,-0.13019 -0.4948,-0.22134 -0.70312,-0.27343 -0.19533,-0.0651 -0.3646,-0.0976 -0.50781,-0.0977 -1.77085,10e-6 -3.32033,0.69663 -4.64844,2.08984 -1.32813,1.38022 -1.9922,2.98178 -1.99219,4.80469 -10e-6,1.7448 0.31249,3.0599 0.9375,3.94531 0.62499,0.8724 1.56249,1.3086 2.8125,1.3086 0.80728,0 1.569,-0.13021 2.28516,-0.39063 0.72915,-0.27343 1.41274,-0.67057 2.05078,-1.1914 -0.39064,-3.09895 -0.58595,-5.41666 -0.58594,-6.95313"
         style="font-size:40px;font-variant:normal;font-weight:bold;font-stretch:normal;fill:#ffffff;fill-opacity:1;stroke:#ffffff;stroke-opacity:1;font-family:Comic Sans MS;-inkscape-font-specification:Comic Sans MS Bold"
         id="path3003"
         inkscape:connector-curvature="0" />
      <path
         d="m 462.20312,365.77146 c -0.1172,1.9922 -1.02215,2.9883 -2.71484,2.98829 -1.64064,1e-5 -2.46095,-0.84635 -2.46094,-2.53907 l -0.0976,-1.97265 c -2.9297,0.46876 -5.02605,1.97267 -6.28907,4.51172 l 0.0195,9.82421 c -10e-6,0.74219 -0.25392,1.35417 -0.76172,1.83594 -0.50782,0.49479 -1.15235,0.74219 -1.9336,0.74219 -0.80729,0 -1.43229,-0.26042 -1.875,-0.78125 -0.41666,-0.46875 -0.625,-1.06771 -0.625,-1.79688 l 0,-12.79296 c 0,-0.40364 0.013,-1.00259 0.0391,-1.79688 0.026,-0.80727 0.0391,-1.41274 0.0391,-1.81641 0,-0.72914 0.21484,-1.33461 0.64453,-1.8164 0.44271,-0.49477 1.0677,-0.74217 1.875,-0.74219 1.44531,2e-5 2.30468,0.74221 2.57812,2.22656 2.30468,-1.71873 4.86327,-2.5781 7.67579,-2.57812 2.60415,2e-5 3.90623,1.73179 3.90625,5.19531 -2e-5,0.66408 -0.007,1.10027 -0.0195,1.30859"
         style="font-size:40px;font-variant:normal;font-weight:bold;font-stretch:normal;fill:#ffffff;fill-opacity:1;stroke:#ffffff;stroke-opacity:1;font-family:Comic Sans MS;-inkscape-font-specification:Comic Sans MS Bold"
         id="path3005"
         inkscape:connector-curvature="0" />
    </g>
  </g>
</svg>
