<?xml version="1.0" encoding="UTF-8" standalone="no"?>
<!-- Created with Inkscape (http://www.inkscape.org/) -->

<svg
   xmlns:dc="http://purl.org/dc/elements/1.1/"
   xmlns:cc="http://creativecommons.org/ns#"
   xmlns:rdf="http://www.w3.org/1999/02/22-rdf-syntax-ns#"
   xmlns:svg="http://www.w3.org/2000/svg"
   xmlns="http://www.w3.org/2000/svg"
   xmlns:sodipodi="http://sodipodi.sourceforge.net/DTD/sodipodi-0.dtd"
   xmlns:inkscape="http://www.inkscape.org/namespaces/inkscape"
   width="624.73706"
   height="619.29584"
   id="svg3326"
   version="1.1"
   inkscape:version="0.48.4 r9939"
   sodipodi:docname="subscript.svg">
  <defs
     id="defs3328" />
  <sodipodi:namedview
     id="base"
     pagecolor="#ffffff"
     bordercolor="#666666"
     borderopacity="1.0"
     inkscape:pageopacity="0.0"
     inkscape:pageshadow="2"
     inkscape:zoom="0.59105127"
     inkscape:cx="348.2922"
     inkscape:cy="308.15685"
     inkscape:document-units="px"
     inkscape:current-layer="layer1"
     showgrid="false"
     inkscape:window-width="1440"
     inkscape:window-height="824"
     inkscape:window-x="0"
     inkscape:window-y="24"
     inkscape:window-maximized="1"
     fit-margin-top="30"
     fit-margin-left="5"
     fit-margin-right="5"
     fit-margin-bottom="30" />
  <metadata
     id="metadata3331">
    <rdf:RDF>
      <cc:Work
         rdf:about="">
        <dc:format>image/svg+xml</dc:format>
        <dc:type
           rdf:resource="http://purl.org/dc/dcmitype/StillImage" />
        <dc:title />
      </cc:Work>
    </rdf:RDF>
  </metadata>
  <g
     inkscape:label="Layer 1"
     inkscape:groupmode="layer"
     id="layer1"
     transform="translate(-23.755038,-215.0421)">
    <g
       transform="matrix(4.6617814,0,0,4.9734723,-1282.2253,-1520.0743)"
       style="font-size:144px;font-style:normal;font-variant:normal;font-weight:normal;font-stretch:normal;text-align:start;line-height:125%;letter-spacing:0px;word-spacing:0px;writing-mode:lr-tb;text-anchor:start;fill:#110b02;fill-opacity:1;stroke:#110b02;stroke-width:0.41535953;stroke-miterlimit:4;stroke-opacity:1;font-family:Liberation Serif;-inkscape-font-specification:Liberation Serif"
       id="flowRoot3004">
      <path
         d="m 281.42969,449.3967 0,-3.72657 12.09375,-1.89843 0,-83.10938 -12.09375,-1.82812 0,-3.72657 37.75781,0 0,3.72657 -12.09375,1.82812 0,37.05469 44.36719,0 0,-37.05469 -12.09375,-1.82812 0,-3.72657 37.6875,0 0,3.72657 -12.09375,1.82812 0,83.10938 12.09375,1.89843 0,3.72657 -37.6875,0 0,-3.72657 12.09375,-1.89843 0,-39.72657 -44.36719,0 0,39.72657 12.09375,1.89843 0,3.72657 -37.75781,0"
         style="fill:#110b02;stroke:#110b02;font-family:Liberation Serif;-inkscape-font-specification:Liberation Serif"
         id="path3762"
         inkscape:connector-curvature="0" />
    </g>
    <g
       transform="matrix(5.9773864,0,0,5.4619506,-1944.7162,-1704.9163)"
       style="font-size:12px;font-style:normal;font-variant:normal;font-weight:normal;font-stretch:normal;text-align:start;line-height:125%;letter-spacing:0px;word-spacing:0px;writing-mode:lr-tb;text-anchor:start;fill:#e3dd00;fill-opacity:1;stroke:#110b02;stroke-width:0.87506527;stroke-linejoin:round;stroke-miterlimit:4;stroke-opacity:1;font-family:Droid Serif;-inkscape-font-specification:Droid Serif"
       id="flowRoot3780">
      <path
         d="m 407.78516,452.97688 24.78515,0 0,5.97656 -33.32812,0 0,-5.97656 c 2.6953,-2.78906 6.36327,-6.52733 11.0039,-11.21485 4.66405,-4.71091 7.59373,-7.74607 8.78907,-9.10547 2.27341,-2.55465 3.85544,-4.7109 4.74609,-6.46875 0.91403,-1.78121 1.37106,-3.5273 1.37109,-5.23828 -3e-5,-2.78902 -0.9844,-5.06245 -2.95312,-6.82031 -1.94534,-1.75777 -4.48831,-2.63667 -7.62891,-2.63672 -2.22658,5e-5 -4.58204,0.38677 -7.0664,1.16016 -2.46095,0.77348 -5.09767,1.94536 -7.91016,3.51562 l 0,-7.17187 c 2.85937,-1.14839 5.53124,-2.01557 8.01562,-2.60156 2.48436,-0.58589 4.7578,-0.87886 6.82032,-0.87891 5.43747,5e-5 9.7734,1.35943 13.00781,4.07812 3.23434,2.7188 4.85152,6.35161 4.85156,10.89844 -4e-5,2.15629 -0.41019,4.20707 -1.23047,6.15235 -0.79691,1.9219 -2.26175,4.19534 -4.39453,6.82031 -0.58597,0.67971 -2.44925,2.64846 -5.58984,5.90625 -3.14065,3.23439 -7.57033,7.76954 -13.28906,13.60547"
         style="font-size:72px;fill:#e3dd00;stroke:#110b02;font-family:Droid Serif;-inkscape-font-specification:Droid Serif"
         id="path3759"
         inkscape:connector-curvature="0" />
    </g>
  </g>
</svg>
