<?xml version="1.0" encoding="UTF-8" standalone="no"?>
<!-- Created with Inkscape (http://www.inkscape.org/) -->

<svg
   xmlns:dc="http://purl.org/dc/elements/1.1/"
   xmlns:cc="http://creativecommons.org/ns#"
   xmlns:rdf="http://www.w3.org/1999/02/22-rdf-syntax-ns#"
   xmlns:svg="http://www.w3.org/2000/svg"
   xmlns="http://www.w3.org/2000/svg"
   xmlns:xlink="http://www.w3.org/1999/xlink"
   xmlns:sodipodi="http://sodipodi.sourceforge.net/DTD/sodipodi-0.dtd"
   xmlns:inkscape="http://www.inkscape.org/namespaces/inkscape"
   width="712.15625"
   height="713.0011"
   id="svg3331"
   version="1.1"
   inkscape:version="0.48.4 r9939"
   sodipodi:docname="save_all.svg">
  <defs
     id="defs3333">
    <linearGradient
       id="linearGradient3757">
      <stop
         style="stop-color:#6193cf;stop-opacity:1;"
         offset="0"
         id="stop3759" />
      <stop
         style="stop-color:#000080;stop-opacity:1;"
         offset="1"
         id="stop3761" />
    </linearGradient>
    <linearGradient
       inkscape:collect="always"
       xlink:href="#linearGradient3757"
       id="linearGradient3763"
       x1="98.929886"
       y1="191.05112"
       x2="603.92731"
       y2="713.90826"
       gradientUnits="userSpaceOnUse" />
    <linearGradient
       inkscape:collect="always"
       xlink:href="#linearGradient3757"
       id="linearGradient3771"
       x1="98.929886"
       y1="191.05112"
       x2="603.92731"
       y2="713.90826"
       gradientUnits="userSpaceOnUse" />
  </defs>
  <sodipodi:namedview
     id="base"
     pagecolor="#ffffff"
     bordercolor="#666666"
     borderopacity="1.0"
     inkscape:pageopacity="0.0"
     inkscape:pageshadow="2"
     inkscape:zoom="0.59105127"
     inkscape:cx="349.92226"
     inkscape:cy="192.26923"
     inkscape:document-units="px"
     inkscape:current-layer="layer1"
     showgrid="false"
     inkscape:window-width="1440"
     inkscape:window-height="824"
     inkscape:window-x="0"
     inkscape:window-y="24"
     inkscape:window-maximized="1"
     fit-margin-top="37"
     fit-margin-left="5"
     fit-margin-right="5"
     fit-margin-bottom="37" />
  <metadata
     id="metadata3336">
    <rdf:RDF>
      <cc:Work
         rdf:about="">
        <dc:format>image/svg+xml</dc:format>
        <dc:type
           rdf:resource="http://purl.org/dc/dcmitype/StillImage" />
        <dc:title />
      </cc:Work>
    </rdf:RDF>
  </metadata>
  <g
     inkscape:label="Layer 1"
     inkscape:groupmode="layer"
     id="layer1"
     transform="translate(-11.062491,-157.40515)">
    <rect
       style="fill:url(#linearGradient3763);fill-opacity:1;stroke:url(#linearGradient3771);stroke-width:2;stroke-linejoin:round;stroke-miterlimit:4;stroke-opacity:1;stroke-dasharray:none"
       id="rect3833"
       width="700.14026"
       height="636.98334"
       x="17.072741"
       y="195.4166" />
    <rect
       style="fill:#ffffff;fill-opacity:1;stroke:#ffffff;stroke-width:2;stroke-linejoin:round;stroke-miterlimit:4;stroke-opacity:1;stroke-dasharray:none"
       id="rect3835"
       width="615.32947"
       height="553.97693"
       x="60.380371"
       y="235.11534" />
    <g
       transform="matrix(4.813715,0,0,4.813715,-1416.005,-1286.035)"
       style="font-size:12px;font-style:normal;font-variant:normal;font-weight:normal;font-stretch:normal;text-align:start;line-height:125%;letter-spacing:0px;word-spacing:0px;writing-mode:lr-tb;text-anchor:start;fill:#110b02;fill-opacity:1;stroke:#110b02;stroke-width:0.41547951;stroke-miterlimit:4;stroke-opacity:1;font-family:Sans;-inkscape-font-specification:Sans"
       id="flowRoot3823">
      <path
         d="m 329.84375,364.25099 c -2.03126,0 -3.9297,-0.25 -5.69531,-0.75 -1.75001,-0.5 -3.23438,-1.09375 -4.45313,-1.78125 l -1.61719,1.64062 -1.99218,0 -0.30469,-12.02344 2.01562,0 c 0.45313,1.14064 1.03125,2.34376 1.73438,3.60938 0.70312,1.26563 1.51562,2.39844 2.4375,3.39844 0.95312,1.04688 2.01562,1.89844 3.1875,2.55468 1.18749,0.65626 2.5703,0.98438 4.14844,0.98438 2.12498,0 3.74998,-0.51562 4.875,-1.54688 1.1406,-1.04687 1.71091,-2.35937 1.71093,-3.9375 -2e-5,-1.29686 -0.48439,-2.3828 -1.45312,-3.25781 -0.95314,-0.89061 -2.43752,-1.65624 -4.45313,-2.29687 -1.31251,-0.42187 -2.52345,-0.81249 -3.63281,-1.17188 -1.09376,-0.35936 -2.12501,-0.72655 -3.09375,-1.10156 -2.23438,-0.89061 -3.89844,-2.16405 -4.99219,-3.82031 -1.07812,-1.65623 -1.61718,-3.50779 -1.61718,-5.55469 0,-1.29685 0.28124,-2.53904 0.84375,-3.72656 0.56249,-1.2031 1.38281,-2.28122 2.46093,-3.23438 1.03125,-0.89059 2.35156,-1.61715 3.96094,-2.17969 1.60937,-0.56246 3.35936,-0.84371 5.25,-0.84375 1.84374,4e-5 3.5703,0.25785 5.17969,0.77344 1.60935,0.50003 2.87498,1.00785 3.79687,1.52344 l 1.42969,-1.40625 2.03906,0 0.1875,11.34375 -2.01562,0 c -0.46878,-1.21873 -1.02346,-2.46091 -1.66406,-3.72656 -0.62503,-1.28123 -1.28909,-2.34372 -1.99219,-3.1875 -0.76565,-0.90622 -1.64846,-1.62497 -2.64844,-2.15625 -1.00002,-0.54685 -2.17189,-0.82028 -3.51562,-0.82032 -1.68752,4e-5 -3.07033,0.4766 -4.14844,1.42969 -1.06251,0.95316 -1.59376,2.13284 -1.59375,3.53906 -10e-6,1.32816 0.46093,2.41409 1.38281,3.25782 0.93749,0.84377 2.39061,1.58596 4.35938,2.22656 1.15623,0.39065 2.33592,0.78127 3.53906,1.17187 1.2031,0.39065 2.27342,0.76565 3.21094,1.125 2.2656,0.87502 3.98435,2.08596 5.15625,3.63282 1.18747,1.53126 1.78122,3.43751 1.78125,5.71875 -3e-5,1.43751 -0.33597,2.82813 -1.00782,4.17187 -0.6719,1.34376 -1.57815,2.46094 -2.71875,3.35156 -1.25002,0.98438 -2.69533,1.74219 -4.33593,2.27344 -1.64065,0.53125 -3.55471,0.79688 -5.74219,0.79688"
         style="font-size:48px;font-weight:bold;text-align:center;text-anchor:middle;fill:#110b02;stroke:#110b02;font-family:Georgia;-inkscape-font-specification:Georgia Bold"
         id="path3774"
         inkscape:connector-curvature="0" />
      <path
         d="m 373.55469,362.86817 c -0.68753,0.29688 -1.50003,0.57032 -2.4375,0.82032 -0.93753,0.25 -1.92971,0.375 -2.97657,0.375 -1.92189,0 -3.33595,-0.28125 -4.24218,-0.84375 -0.90627,-0.57813 -1.52346,-1.39844 -1.85157,-2.46094 l -0.14062,0 c -0.53127,0.53125 -1.04689,0.98438 -1.54688,1.35937 -0.48438,0.37501 -1.00782,0.69532 -1.57031,0.96094 -0.73439,0.34375 -1.44532,0.59375 -2.13281,0.75 -0.67189,0.17188 -1.6172,0.25781 -2.83594,0.25781 -1.8125,0 -3.35938,-0.53125 -4.64062,-1.59375 -1.28125,-1.07812 -1.92188,-2.49999 -1.92188,-4.26562 0,-1.01562 0.14063,-1.87499 0.42188,-2.57813 0.28124,-0.71874 0.67968,-1.35155 1.19531,-1.89843 0.46875,-0.49999 1.00781,-0.91405 1.61719,-1.24219 0.62499,-0.32811 1.30468,-0.6328 2.03906,-0.91406 1.40624,-0.51562 3.09374,-1.04687 5.0625,-1.59375 1.96874,-0.56249 3.40623,-1.06249 4.3125,-1.5 l 0,-2.25 c -2e-5,-0.39061 -0.0313,-0.90623 -0.0937,-1.54688 -0.0625,-0.6406 -0.19533,-1.17967 -0.39844,-1.61719 -0.21876,-0.49997 -0.56251,-0.92185 -1.03125,-1.26562 -0.46876,-0.34373 -1.08595,-0.5156 -1.85156,-0.51563 -0.68751,3e-5 -1.26564,0.10159 -1.73438,0.30469 -0.45313,0.18752 -0.82032,0.38284 -1.10156,0.58594 0.0469,0.31252 0.17968,0.78908 0.39844,1.42969 0.21874,0.64064 0.32811,1.25783 0.32812,1.85156 -10e-6,0.26564 -0.0703,0.60158 -0.21093,1.00781 -0.14064,0.39064 -0.34376,0.70314 -0.60938,0.9375 -0.35938,0.31252 -0.76563,0.5547 -1.21875,0.72656 -0.43751,0.17189 -1.11719,0.25783 -2.03906,0.25782 -1.31251,10e-6 -2.30469,-0.31249 -2.97656,-0.9375 -0.67188,-0.64061 -1.00782,-1.46874 -1.00782,-2.48438 0,-0.87498 0.34375,-1.65623 1.03125,-2.34375 0.70313,-0.7031 1.55469,-1.28123 2.55469,-1.73437 0.98437,-0.46873 2.11718,-0.8281 3.39844,-1.07813 1.28124,-0.2656 2.46874,-0.39841 3.5625,-0.39844 1.51561,3e-5 2.90623,0.0938 4.17187,0.28125 1.26561,0.1719 2.40623,0.53909 3.42188,1.10157 0.96873,0.54689 1.73435,1.34377 2.29687,2.39062 0.57811,1.03127 0.86717,2.38283 0.86719,4.05469 -2e-5,1.76564 -0.0391,3.85939 -0.11719,6.28125 -0.0625,2.42188 -0.0938,4.01563 -0.0937,4.78125 -2e-5,0.70313 0.10154,1.25782 0.30469,1.66406 0.21873,0.40626 0.54685,0.71094 0.98438,0.91406 0.2656,0.12501 0.67966,0.20313 1.24218,0.23438 0.5781,0.0156 1.10154,0.0234 1.57032,0.0234 l 0,1.71093 M 361.90635,350.6572 c -0.87502,0.29688 -1.7422,0.64063 -2.60156,1.03125 -0.85939,0.37501 -1.56251,0.77345 -2.10938,1.19531 -0.57813,0.43751 -1.03126,1.00001 -1.35937,1.6875 -0.32814,0.67188 -0.4922,1.46876 -0.49219,2.39062 -10e-6,1.21876 0.27343,2.10157 0.82031,2.64844 0.56249,0.54688 1.24999,0.82032 2.0625,0.82031 0.85936,10e-6 1.56249,-0.17187 2.10938,-0.51562 0.56248,-0.35937 1.05467,-0.79687 1.47656,-1.3125 l 0.0937,-7.94531"
         style="font-size:48px;font-weight:bold;text-align:center;text-anchor:middle;fill:#110b02;stroke:#110b02;font-family:Georgia;-inkscape-font-specification:Georgia Bold"
         id="path3776"
         inkscape:connector-curvature="0" />
      <path
         d="m 402.07812,341.8213 c -0.70315,0.1094 -1.39065,0.37502 -2.0625,0.79687 -0.65627,0.4219 -1.20314,1.07815 -1.64062,1.96875 -1.09377,2.28127 -2.1719,4.58596 -3.23438,6.91407 -1.04689,2.31251 -2.07814,4.55469 -3.09375,6.72656 -0.31251,0.65625 -0.67189,1.5 -1.07812,2.53125 -0.39064,1.03125 -0.71877,1.96875 -0.98438,2.8125 l -4.3125,0 c -1.79688,-4.17187 -3.33594,-7.63281 -4.61718,-10.38281 -1.26563,-2.74999 -2.60938,-5.70311 -4.03125,-8.85938 -0.32813,-0.73435 -0.84375,-1.31248 -1.54688,-1.73437 -0.6875,-0.42186 -1.39062,-0.67967 -2.10937,-0.77344 l 0,-1.71094 14.4375,0 0,1.71094 c -0.53127,0.0156 -1.15627,0.13283 -1.875,0.35156 -0.71876,0.21877 -1.07814,0.50002 -1.07813,0.84375 -1e-5,0.0938 0.0312,0.2344 0.0937,0.42188 0.0625,0.18752 0.14062,0.39845 0.23438,0.63281 0.49999,1.18752 1.24999,2.89845 2.25,5.13281 1.01561,2.23439 2.08592,4.58595 3.21093,7.05469 0.78124,-1.70312 1.52342,-3.36718 2.22657,-4.99219 0.71873,-1.64061 1.60154,-3.72654 2.64843,-6.25781 0.14061,-0.37498 0.21873,-0.67967 0.23438,-0.91406 0.0312,-0.23436 0.0469,-0.39061 0.0469,-0.46875 -2e-5,-0.28123 -0.14064,-0.52342 -0.42187,-0.72657 -0.26565,-0.21872 -0.58596,-0.40622 -0.96094,-0.5625 -0.39064,-0.15622 -0.76564,-0.27341 -1.125,-0.35156 -0.35939,-0.0781 -0.65627,-0.13279 -0.89062,-0.16406 l 0,-1.71094 9.67968,0 0,1.71094"
         style="font-size:48px;font-weight:bold;text-align:center;text-anchor:middle;fill:#110b02;stroke:#110b02;font-family:Georgia;-inkscape-font-specification:Georgia Bold"
         id="path3778"
         inkscape:connector-curvature="0" />
      <path
         d="m 427.74219,357.7588 c -0.5469,0.89063 -1.21097,1.73438 -1.99219,2.53125 -0.76565,0.78125 -1.64065,1.45313 -2.625,2.01562 -1.0469,0.59376 -2.10939,1.03907 -3.1875,1.33594 -1.06252,0.3125 -2.28908,0.46875 -3.67969,0.46875 -2.31251,0 -4.31251,-0.32812 -6,-0.98437 -1.67188,-0.65625 -3.05469,-1.53906 -4.14844,-2.64844 -1.09375,-1.10937 -1.91406,-2.41406 -2.46093,-3.91406 -0.53125,-1.51562 -0.79688,-3.15624 -0.79688,-4.92188 0,-1.59373 0.28906,-3.11717 0.86719,-4.57031 0.59375,-1.46873 1.42968,-2.77342 2.50781,-3.91406 1.0625,-1.10936 2.39843,-2.00779 4.00781,-2.69532 1.62499,-0.68747 3.43749,-1.03122 5.4375,-1.03125 2.18749,3e-5 3.98436,0.26565 5.39063,0.79688 1.40623,0.53127 2.57029,1.26565 3.49219,2.20312 0.8906,0.89065 1.53904,1.94534 1.94531,3.16407 0.40622,1.20314 0.60935,2.46876 0.60937,3.79687 l 0,1.52344 -15.84375,0 c -1e-5,3.20313 0.61718,5.64063 1.85157,7.3125 1.23436,1.67188 3.19529,2.50781 5.88281,2.50781 1.46873,0 2.78904,-0.39843 3.96094,-1.19531 1.17185,-0.8125 2.17185,-1.83593 3,-3.07031 l 1.78125,1.28906 m -8.95313,-8.90625 c -2e-5,-0.93749 -0.0469,-1.89842 -0.14062,-2.88281 -0.0938,-0.98436 -0.25783,-1.78905 -0.49219,-2.41407 -0.26564,-0.73435 -0.63283,-1.28904 -1.10156,-1.66406 -0.45314,-0.37498 -1.03127,-0.56248 -1.73438,-0.5625 -1.20314,2e-5 -2.16407,0.6094 -2.88281,1.82813 -0.71876,1.21877 -1.10939,3.14845 -1.17188,5.78906 l 7.52344,-0.0937"
         style="font-size:48px;font-weight:bold;text-align:center;text-anchor:middle;fill:#110b02;stroke:#110b02;font-family:Georgia;-inkscape-font-specification:Georgia Bold"
         id="path3780"
         inkscape:connector-curvature="0" />
      <path
         d="m 374.49219,423.36036 -18.11719,0 0,-1.82812 c 0.84373,-0.0625 1.83592,-0.21094 2.97656,-0.44532 1.1406,-0.24999 1.71092,-0.55468 1.71094,-0.91406 -2e-5,-0.12499 -0.0156,-0.26562 -0.0469,-0.42187 -0.0156,-0.15625 -0.0781,-0.36719 -0.1875,-0.63282 l -2.83593,-6.89062 -11.48438,0 c -0.26563,0.64064 -0.56251,1.39063 -0.89062,2.25 -0.31251,0.85938 -0.58595,1.62501 -0.82032,2.29687 -0.29688,0.87501 -0.47657,1.50782 -0.53906,1.89844 -0.0469,0.39063 -0.0703,0.66407 -0.0703,0.82031 -1e-5,0.50001 0.37499,0.92969 1.125,1.28907 0.76562,0.34375 2.03124,0.59375 3.79687,0.75 l 0,1.82812 -13.64062,0 0,-1.82812 c 0.51563,-0.0312 1.09375,-0.10938 1.73437,-0.23438 0.65625,-0.14062 1.17188,-0.32812 1.54688,-0.5625 0.64062,-0.37499 1.17968,-0.83593 1.61719,-1.38281 0.45312,-0.54687 0.82812,-1.19531 1.125,-1.94531 1.81249,-4.39062 3.62499,-8.78905 5.4375,-13.19532 1.82811,-4.40622 3.84373,-9.26559 6.04687,-14.57812 l 4.6875,0 c 3.06248,7.53128 5.46091,13.48439 7.19531,17.85937 1.73435,4.37502 3.21091,8.00001 4.42969,10.875 0.20309,0.46876 0.46091,0.89845 0.77344,1.28907 0.31247,0.375 0.75778,0.73438 1.33594,1.07812 0.43746,0.25 0.94527,0.4375 1.52343,0.5625 0.57809,0.125 1.10153,0.20313 1.57032,0.23438 l 0,1.82812 m -17.46094,-13.45312 -4.82813,-12.04688 -4.75781,12.04688 9.58594,0"
         style="font-size:48px;font-weight:bold;text-align:center;text-anchor:middle;fill:#110b02;stroke:#110b02;font-family:Georgia;-inkscape-font-specification:Georgia Bold"
         id="path3782"
         inkscape:connector-curvature="0" />
      <path
         d="m 388.78906,423.36036 -14.69531,0 0,-1.71094 c 0.40625,-0.0312 0.79687,-0.0703 1.17187,-0.11718 0.39063,-0.0469 0.73438,-0.125 1.03125,-0.23438 0.5,-0.1875 0.83594,-0.45312 1.00782,-0.79687 0.18749,-0.35937 0.28124,-0.82812 0.28125,-1.40625 l 0,-25.96875 c -10e-6,-0.59372 -0.12501,-1.1406 -0.375,-1.64063 -0.23438,-0.51559 -0.55469,-0.90622 -0.96094,-1.17187 -0.3125,-0.20309 -0.78906,-0.39841 -1.42969,-0.58594 -0.625,-0.18747 -1.17969,-0.29684 -1.66406,-0.32813 l 0,-1.71093 11.78906,-0.60938 0.35156,0.375 0,31.33594 c -1e-5,0.57813 0.10156,1.04688 0.30469,1.40625 0.20311,0.35938 0.53124,0.64063 0.98438,0.84375 0.31248,0.14063 0.64061,0.26563 0.98437,0.375 0.34374,0.10938 0.74999,0.1875 1.21875,0.23437 l 0,1.71094"
         style="font-size:48px;font-weight:bold;text-align:center;text-anchor:middle;fill:#110b02;stroke:#110b02;font-family:Georgia;-inkscape-font-specification:Georgia Bold"
         id="path3784"
         inkscape:connector-curvature="0" />
      <path
         d="m 405.28906,423.36036 -14.69531,0 0,-1.71094 c 0.40625,-0.0312 0.79687,-0.0703 1.17187,-0.11718 0.39063,-0.0469 0.73438,-0.125 1.03125,-0.23438 0.5,-0.1875 0.83594,-0.45312 1.00782,-0.79687 0.18749,-0.35937 0.28124,-0.82812 0.28125,-1.40625 l 0,-25.96875 c -10e-6,-0.59372 -0.12501,-1.1406 -0.375,-1.64063 -0.23438,-0.51559 -0.55469,-0.90622 -0.96094,-1.17187 -0.3125,-0.20309 -0.78906,-0.39841 -1.42969,-0.58594 -0.625,-0.18747 -1.17969,-0.29684 -1.66406,-0.32813 l 0,-1.71093 11.78906,-0.60938 0.35156,0.375 0,31.33594 c -1e-5,0.57813 0.10156,1.04688 0.30469,1.40625 0.20311,0.35938 0.53124,0.64063 0.98438,0.84375 0.31248,0.14063 0.64061,0.26563 0.98437,0.375 0.34374,0.10938 0.74999,0.1875 1.21875,0.23437 l 0,1.71094"
         style="font-size:48px;font-weight:bold;text-align:center;text-anchor:middle;fill:#110b02;stroke:#110b02;font-family:Georgia;-inkscape-font-specification:Georgia Bold"
         id="path3786"
         inkscape:connector-curvature="0" />
    </g>
  </g>
</svg>
