<?xml version="1.0" encoding="UTF-8" standalone="no"?>
<!-- Created with Inkscape (http://www.inkscape.org/) -->

<svg
   xmlns:dc="http://purl.org/dc/elements/1.1/"
   xmlns:cc="http://creativecommons.org/ns#"
   xmlns:rdf="http://www.w3.org/1999/02/22-rdf-syntax-ns#"
   xmlns:svg="http://www.w3.org/2000/svg"
   xmlns="http://www.w3.org/2000/svg"
   xmlns:xlink="http://www.w3.org/1999/xlink"
   xmlns:sodipodi="http://sodipodi.sourceforge.net/DTD/sodipodi-0.dtd"
   xmlns:inkscape="http://www.inkscape.org/namespaces/inkscape"
   width="656.09979"
   height="651.25"
   id="svg3262"
   version="1.1"
   inkscape:version="0.48.4 r9939"
   sodipodi:docname="unix_or_dos.svg">
  <defs
     id="defs3264">
    <linearGradient
       id="linearGradient3776">
      <stop
         style="stop-color:#110b02;stop-opacity:1;"
         offset="0"
         id="stop3778" />
      <stop
         style="stop-color:#e3dd00;stop-opacity:1;"
         offset="1"
         id="stop3780" />
    </linearGradient>
    <linearGradient
       id="linearGradient3760">
      <stop
         style="stop-color:#110b02;stop-opacity:1;"
         offset="0"
         id="stop3762" />
      <stop
         style="stop-color:#146bd5;stop-opacity:1;"
         offset="1"
         id="stop3764" />
    </linearGradient>
    <linearGradient
       inkscape:collect="always"
       xlink:href="#linearGradient3760"
       id="linearGradient3766"
       x1="77.28273"
       y1="320.92239"
       x2="80.268654"
       y2="357.6647"
       gradientUnits="userSpaceOnUse" />
    <linearGradient
       inkscape:collect="always"
       xlink:href="#linearGradient3760"
       id="linearGradient3774"
       x1="77.28273"
       y1="320.92239"
       x2="80.268654"
       y2="357.6647"
       gradientUnits="userSpaceOnUse" />
    <linearGradient
       inkscape:collect="always"
       xlink:href="#linearGradient3776"
       id="linearGradient3782"
       x1="37.556103"
       y1="434.76459"
       x2="106.3989"
       y2="434.76459"
       gradientUnits="userSpaceOnUse" />
    <linearGradient
       inkscape:collect="always"
       xlink:href="#linearGradient3776"
       id="linearGradient3797"
       gradientUnits="userSpaceOnUse"
       x1="37.556103"
       y1="434.76459"
       x2="106.3989"
       y2="434.76459" />
    <linearGradient
       inkscape:collect="always"
       xlink:href="#linearGradient3776"
       id="linearGradient3800"
       gradientUnits="userSpaceOnUse"
       x1="57.848305"
       y1="422.51019"
       x2="105.34476"
       y2="447.54605"
       gradientTransform="matrix(7.1996343,0,0,7.1996343,-238.40242,-2481.1225)" />
    <linearGradient
       inkscape:collect="always"
       xlink:href="#linearGradient3776"
       id="linearGradient3803"
       gradientUnits="userSpaceOnUse"
       x1="57.848305"
       y1="422.51019"
       x2="105.34476"
       y2="447.54605"
       gradientTransform="matrix(7.1996343,0,0,7.1996343,-238.40242,-2481.1225)" />
    <linearGradient
       inkscape:collect="always"
       xlink:href="#linearGradient3776"
       id="linearGradient3806"
       gradientUnits="userSpaceOnUse"
       x1="57.848305"
       y1="422.51019"
       x2="105.34476"
       y2="447.54605"
       gradientTransform="matrix(7.1996343,0,0,7.1996343,-238.40242,-2481.1225)" />
    <linearGradient
       inkscape:collect="always"
       xlink:href="#linearGradient3760"
       id="linearGradient3840"
       gradientUnits="userSpaceOnUse"
       x1="77.28273"
       y1="320.92239"
       x2="80.268654"
       y2="357.6647" />
    <linearGradient
       inkscape:collect="always"
       xlink:href="#linearGradient3760"
       id="linearGradient3842"
       gradientUnits="userSpaceOnUse"
       x1="77.28273"
       y1="320.92239"
       x2="80.268654"
       y2="357.6647" />
  </defs>
  <sodipodi:namedview
     id="base"
     pagecolor="#ffffff"
     bordercolor="#666666"
     borderopacity="1.0"
     inkscape:pageopacity="0.0"
     inkscape:pageshadow="2"
     inkscape:zoom="0.59105127"
     inkscape:cx="304.84667"
     inkscape:cy="334.20172"
     inkscape:document-units="px"
     inkscape:current-layer="layer1"
     showgrid="false"
     inkscape:window-width="1440"
     inkscape:window-height="824"
     inkscape:window-x="0"
     inkscape:window-y="24"
     inkscape:window-maximized="1"
     fit-margin-top="30"
     fit-margin-left="5"
     fit-margin-right="5"
     fit-margin-bottom="30" />
  <metadata
     id="metadata3267">
    <rdf:RDF>
      <cc:Work
         rdf:about="">
        <dc:format>image/svg+xml</dc:format>
        <dc:type
           rdf:resource="http://purl.org/dc/dcmitype/StillImage" />
        <dc:title />
      </cc:Work>
    </rdf:RDF>
  </metadata>
  <g
     inkscape:label="Layer 1"
     inkscape:groupmode="layer"
     id="layer1"
     transform="translate(-22.40019,-165.875)">
    <g
       transform="matrix(6.1709226,0,0,6.1709226,-201.90057,-1763.2937)"
       style="font-size:12px;font-style:normal;font-variant:normal;font-weight:normal;font-stretch:normal;text-align:start;line-height:125%;letter-spacing:0px;word-spacing:0px;writing-mode:lr-tb;text-anchor:start;fill:url(#linearGradient3766);fill-opacity:1;stroke:url(#linearGradient3774);stroke-width:0.32410064;stroke-miterlimit:4;stroke-opacity:1;font-family:Sans;-inkscape-font-specification:Sans"
       id="flowRoot3787">
      <path
         d="m 65.816406,324.43051 c -0.364613,0.013 -0.898466,0.0912 -1.601562,0.23438 -0.703153,0.14325 -1.276069,0.35809 -1.71875,0.64453 -0.442735,0.2995 -0.748724,0.91799 -0.917969,1.85547 -0.169296,0.93752 -0.253932,2.08335 -0.253906,3.4375 l 0,12.05078 c -2.6e-5,1.53646 -0.319036,2.8711 -0.957032,4.0039 -0.638044,1.13282 -1.477887,2.06381 -2.519531,2.79297 -1.028667,0.70313 -2.115905,1.20443 -3.261719,1.50391 -1.13283,0.3125 -2.220068,0.46875 -3.261718,0.46875 -1.666681,0 -3.151054,-0.22136 -4.453125,-0.66406 -1.302093,-0.42969 -2.395842,-1.01563 -3.28125,-1.75782 -0.872403,-0.74218 -1.529954,-1.58854 -1.972657,-2.53906 -0.442713,-0.96354 -0.664067,-1.96614 -0.664062,-3.00781 l 0,-16.38672 c -5e-6,-0.45571 -0.07813,-0.83331 -0.234375,-1.13281 -0.143234,-0.31248 -0.442713,-0.59894 -0.898438,-0.85938 -0.325524,-0.18226 -0.74219,-0.32549 -1.25,-0.42969 -0.507814,-0.11716 -0.92448,-0.18877 -1.25,-0.21484 l 0,-1.38672 11.542969,0 0,1.38672 c -0.364596,0.013 -0.826835,0.0716 -1.386719,0.17578 -0.546886,0.10419 -0.950531,0.20185 -1.210937,0.29297 -0.442718,0.15628 -0.742197,0.41669 -0.898438,0.78125 -0.143238,0.36461 -0.214853,0.76174 -0.214843,1.19141 l 0,15.3125 c -10e-6,0.74219 0.07812,1.52344 0.234375,2.34375 0.169261,0.80729 0.494781,1.5625 0.976562,2.26562 0.507802,0.71615 1.197905,1.30209 2.070313,1.75781 0.872382,0.45573 2.070298,0.6836 3.59375,0.6836 1.432274,0 2.630189,-0.22787 3.59375,-0.6836 0.976542,-0.45572 1.74477,-1.05468 2.304687,-1.79687 0.533832,-0.70312 0.911436,-1.4388 1.132813,-2.20703 0.221331,-0.76822 0.332007,-1.54296 0.332031,-2.32422 l 0,-11.36719 c -2.4e-5,-1.44529 -0.10419,-2.62367 -0.3125,-3.53515 -0.208356,-0.92446 -0.514346,-1.52993 -0.917969,-1.81641 -0.455751,-0.3255 -1.08075,-0.5794 -1.875,-0.76172 -0.781269,-0.18227 -1.380227,-0.28643 -1.796875,-0.3125 l 0,-1.38672 11.328125,0 0,1.38672"
         style="font-size:40px;fill:url(#linearGradient3840);stroke:url(#linearGradient3842);font-family:Georgia;-inkscape-font-specification:Georgia"
         id="path3845" />
      <path
         d="m 88.785156,350.75864 -9.433594,0 0,-1.28907 c 0.299466,-0.026 0.624987,-0.0521 0.976563,-0.0781 0.364569,-0.026 0.664048,-0.0781 0.898437,-0.15625 0.364568,-0.11719 0.631495,-0.31901 0.800782,-0.60547 0.182275,-0.29948 0.273421,-0.68359 0.273437,-1.15234 l 0,-9.90235 c -1.6e-5,-1.36717 -0.325536,-2.42186 -0.976562,-3.16406 -0.638036,-0.74217 -1.419285,-1.11326 -2.34375,-1.11328 -0.690117,2e-5 -1.321626,0.11069 -1.894532,0.33203 -0.572927,0.20835 -1.080739,0.46877 -1.523437,0.78125 -0.429697,0.29949 -0.774748,0.62501 -1.035156,0.97656 -0.247404,0.33856 -0.429696,0.612 -0.546875,0.82031 l 0,11.07422 c -8e-6,0.44271 0.09114,0.8073 0.273437,1.09375 0.182284,0.28646 0.455721,0.50782 0.820313,0.66407 0.273428,0.1302 0.566396,0.22786 0.878906,0.29296 0.325511,0.0651 0.657542,0.11068 0.996094,0.13672 l 0,1.28907 -9.433594,0 0,-1.28907 c 0.299477,-0.026 0.605467,-0.0521 0.917969,-0.0781 0.325518,-0.026 0.605466,-0.0781 0.839843,-0.15625 0.36458,-0.11719 0.631507,-0.31901 0.800782,-0.60547 0.182287,-0.29948 0.273433,-0.68359 0.273437,-1.15234 l 0,-11.89454 c -4e-6,-0.44269 -0.09766,-0.84633 -0.292969,-1.21093 -0.182295,-0.37759 -0.442711,-0.68358 -0.78125,-0.91797 -0.247398,-0.15623 -0.540367,-0.26691 -0.878906,-0.33203 -0.338543,-0.0781 -0.703126,-0.13019 -1.09375,-0.15625 l 0,-1.26953 6.40625,-0.42969 0.273438,0.27344 0,2.71484 0.09766,0 c 0.312492,-0.31248 0.703116,-0.68358 1.171875,-1.11328 0.46874,-0.44269 0.911448,-0.80077 1.328125,-1.07422 0.48176,-0.31248 1.054676,-0.5729 1.71875,-0.78125 0.66405,-0.20831 1.412747,-0.31248 2.246094,-0.3125 1.848942,2e-5 3.216128,0.57945 4.101562,1.73828 0.898418,1.14585 1.347637,2.6758 1.347656,4.58984 l 0,10.01954 c -1.9e-5,0.45573 0.07811,0.82682 0.234375,1.11328 0.15623,0.27344 0.423157,0.48828 0.800782,0.64453 0.312479,0.13021 0.579405,0.22135 0.800781,0.27344 0.234353,0.0521 0.553363,0.0911 0.957031,0.11718 l 0,1.28907"
         style="font-size:40px;fill:url(#linearGradient3840);stroke:url(#linearGradient3842);font-family:Georgia;-inkscape-font-specification:Georgia"
         id="path3847" />
      <path
         d="m 100.54297,350.75864 -9.316408,0 0,-1.28907 c 0.299478,-0.026 0.605467,-0.0521 0.917969,-0.0781 0.325518,-0.026 0.605466,-0.0781 0.839844,-0.15625 0.36458,-0.11719 0.631507,-0.31901 0.800781,-0.60547 0.182288,-0.29948 0.273433,-0.68359 0.273438,-1.15234 l 0,-11.89454 c -5e-6,-0.41665 -0.09766,-0.79425 -0.292969,-1.13281 -0.182295,-0.35154 -0.442712,-0.64451 -0.78125,-0.8789 -0.247399,-0.15624 -0.605471,-0.28645 -1.074219,-0.39063 -0.468751,-0.11717 -0.898438,-0.18878 -1.289062,-0.21484 l 0,-1.26953 6.796875,-0.42969 0.273437,0.27344 0,15.70312 c -8e-6,0.45573 0.08463,0.83334 0.253906,1.13281 0.182284,0.29948 0.462231,0.52084 0.839844,0.66407 0.286449,0.11718 0.566397,0.21484 0.839844,0.29296 0.273427,0.0651 0.57942,0.11068 0.91797,0.13672 l 0,1.28907 m -2.460939,-27.08985 c -8e-6,0.74222 -0.247404,1.39326 -0.742187,1.95313 -0.481778,0.5469 -1.080736,0.82033 -1.796875,0.82031 -0.664068,2e-5 -1.243494,-0.26039 -1.738282,-0.78125 -0.481774,-0.53383 -0.722659,-1.1393 -0.722656,-1.81641 -3e-6,-0.71612 0.240882,-1.34112 0.722656,-1.875 0.494788,-0.53382 1.074214,-0.80075 1.738282,-0.80078 0.742181,3e-5 1.347649,0.25394 1.816406,0.76172 0.481763,0.49482 0.722648,1.07425 0.722656,1.73828"
         style="font-size:40px;fill:url(#linearGradient3840);stroke:url(#linearGradient3842);font-family:Georgia;-inkscape-font-specification:Georgia"
         id="path3849" />
      <path
         d="m 121.46094,350.75864 -8.82813,0 0,-1.28907 c 0.58593,-0.0651 1.08072,-0.1302 1.48438,-0.19531 0.41665,-0.0651 0.62498,-0.23437 0.625,-0.50781 -2e-5,-0.11719 -0.0651,-0.29948 -0.19531,-0.54688 -0.13023,-0.24739 -0.26043,-0.47525 -0.39063,-0.68359 -0.32553,-0.50781 -0.77475,-1.18489 -1.34766,-2.03125 -0.5599,-0.85937 -1.25001,-1.8815 -2.07031,-3.06641 -0.67709,0.84636 -1.30209,1.67319 -1.875,2.48047 -0.57292,0.79428 -1.17188,1.64063 -1.79687,2.53906 -0.0912,0.13022 -0.18881,0.29298 -0.29297,0.48829 -0.0911,0.19531 -0.13673,0.35156 -0.13672,0.46875 -1e-5,0.28646 0.18229,0.52734 0.54687,0.72265 0.3776,0.18229 0.9375,0.30599 1.67969,0.3711 l 0,1.25 -7.1289,0 0,-1.21094 c 0.88541,-0.26042 1.59505,-0.57292 2.1289,-0.9375 0.54687,-0.3776 1.04817,-0.83984 1.50391,-1.38672 0.40364,-0.52083 0.96353,-1.23698 1.67969,-2.14844 0.72916,-0.91145 1.66665,-2.14843 2.8125,-3.71094 -0.66408,-0.95051 -1.47788,-2.10936 -2.44141,-3.47656 -0.95053,-1.38019 -1.73829,-2.52602 -2.36328,-3.4375 -0.33855,-0.49477 -0.72917,-0.89191 -1.17188,-1.1914 -0.42969,-0.31249 -1.04167,-0.46874 -1.83593,-0.46875 l 0,-1.28907 8.3789,0 0,1.28907 c -0.41667,10e-6 -0.82683,0.026 -1.23047,0.0781 -0.40365,0.0521 -0.60547,0.16929 -0.60547,0.35156 0,0.11721 0.0391,0.24742 0.11719,0.39063 0.0781,0.14324 0.17578,0.29949 0.29297,0.46875 0.28645,0.44272 0.72916,1.12632 1.32813,2.05078 0.61196,0.92449 1.26952,1.90105 1.97265,2.92969 0.45572,-0.62499 0.98306,-1.35416 1.58203,-2.1875 0.61197,-0.83332 1.17186,-1.62759 1.67969,-2.38282 0.0521,-0.0911 0.10415,-0.2018 0.15625,-0.33203 0.0521,-0.14321 0.0781,-0.27993 0.0781,-0.41015 -2e-5,-0.27342 -0.22788,-0.48827 -0.6836,-0.64453 -0.44272,-0.16926 -0.8659,-0.28645 -1.26953,-0.35157 l 0,-1.25 7.10938,0 0,1.21094 c -1.00263,0.26043 -1.78388,0.57293 -2.34375,0.9375 -0.55992,0.35158 -1.03518,0.76174 -1.42579,1.23047 -0.4297,0.53387 -0.94402,1.19142 -1.54296,1.97266 -0.58596,0.78126 -1.41278,1.87501 -2.48047,3.28125 1.18488,1.66667 2.14842,3.03386 2.89062,4.10156 0.74217,1.06771 1.49087,2.16797 2.2461,3.30078 0.37758,0.57292 0.79425,1.02865 1.25,1.36719 0.46873,0.32552 1.10675,0.51432 1.91406,0.5664 l 0,1.28907"
         style="font-size:40px;fill:url(#linearGradient3840);stroke:url(#linearGradient3842);font-family:Georgia;-inkscape-font-specification:Georgia"
         id="path3851" />
    </g>
    <path
       inkscape:connector-curvature="0"
       id="path3785"
       style="font-size:40px;font-style:normal;font-variant:normal;font-weight:bold;font-stretch:normal;text-align:start;line-height:125%;letter-spacing:0px;word-spacing:0px;writing-mode:lr-tb;text-anchor:start;fill:url(#linearGradient3806);fill-opacity:1;stroke:#110b02;stroke-width:5;stroke-miterlimit:4;stroke-opacity:1;font-family:Courier 10 Pitch;-inkscape-font-specification:Courier 10 Pitch Bold;stroke-dasharray:none"
       d="m 87.129045,701.43682 0,-105.11466 c 2.879854,-0.28799 5.759707,-0.28799 8.351576,-0.28799 34.558209,0 51.261399,17.2792 51.261399,52.70133 0,36.28615 -16.41521,52.98931 -51.549385,52.98931 -2.591868,0 -5.183736,0 -8.06359,-0.28799 m -36.286157,31.10242 26.494654,0 c 5.471715,0 10.655466,0 15.839196,0 21.310892,0 39.454012,-0.57597 54.141252,-8.63956 25.0547,-13.24726 39.74198,-40.02997 39.74198,-74.8762 0,-33.40623 -12.95936,-58.74901 -35.13422,-72.28433 -17.2791,-10.36747 -39.45402,-10.94344 -66.236632,-10.94344 -2.879854,0 -5.471722,0 -8.351576,0 l -26.494654,0 c -12.095371,0 -17.855093,4.0318 -17.855093,15.55121 0,10.07949 5.471729,15.55121 15.55121,15.55121 0.863956,0 1.439927,0 2.303883,0 l 0,104.82668 c -0.863956,0 -1.727912,0 -2.303883,0 -10.079481,0 -15.55121,5.18373 -15.55121,15.26322 0,11.8074 6.047707,15.55121 17.855093,15.55121" />
    <path
       inkscape:connector-curvature="0"
       id="path3787"
       style="font-size:40px;font-style:normal;font-variant:normal;font-weight:bold;font-stretch:normal;text-align:start;line-height:125%;letter-spacing:0px;word-spacing:0px;writing-mode:lr-tb;text-anchor:start;fill:url(#linearGradient3803);fill-opacity:1;stroke:#110b02;stroke-width:5;stroke-miterlimit:4;stroke-opacity:1;font-family:Courier 10 Pitch;-inkscape-font-specification:Courier 10 Pitch Bold;stroke-dasharray:none"
       d="m 283.40907,704.60466 c -23.0388,0 -38.87802,-19.87099 -38.87802,-55.58118 0,-35.71011 15.26325,-55.29319 38.87802,-55.29319 23.3268,0 38.87803,19.29509 38.87803,55.29319 0,35.99817 -15.55123,55.58118 -38.87803,55.58118 m 79.19598,-55.58118 c 0,-51.26132 -33.11836,-87.83554 -79.19598,-87.83554 -46.65358,0 -79.48396,36.28623 -79.48396,87.83554 0,51.54938 33.98232,87.83554 79.48396,87.83554 46.07762,0 79.19598,-36.28616 79.19598,-87.83554" />
    <path
       inkscape:connector-curvature="0"
       id="path3789"
       style="font-size:40px;font-style:normal;font-variant:normal;font-weight:bold;font-stretch:normal;text-align:start;line-height:125%;letter-spacing:0px;word-spacing:0px;writing-mode:lr-tb;text-anchor:start;fill:url(#linearGradient3800);fill-opacity:1;stroke:#110b02;stroke-width:5;stroke-miterlimit:4;stroke-opacity:1;font-family:Courier 10 Pitch;-inkscape-font-specification:Courier 10 Pitch Bold;stroke-dasharray:none"
       d="m 416.33232,729.94737 c 14.68724,5.47172 27.9346,6.91165 42.33385,6.91165 43.77371,0 67.96455,-19.29502 67.96455,-53.85326 0,-28.51048 -16.41517,-44.06177 -51.2614,-51.2614 -29.08649,-6.04769 -45.2137,-7.48762 -45.2137,-22.17487 0,-11.51942 10.65547,-20.73495 28.22257,-20.73495 13.5353,0 23.6148,6.33568 29.37451,17.56711 3.45582,6.91165 4.60776,13.24732 16.12718,13.24732 10.94344,0 14.39926,-4.31978 14.39926,-14.97523 0,-0.57598 0,-0.86396 0,-1.43993 l -0.57597,-27.07063 c -0.28798,-12.09531 -2.59186,-14.97524 -11.8074,-14.97524 -7.7756,0 -11.23143,0.86396 -14.39926,7.77561 -12.09538,-5.18374 -23.9028,-7.77561 -36.86213,-7.77561 -38.30202,0 -64.79671,22.46294 -64.79671,54.42924 0,28.51055 16.70318,39.16601 48.38154,47.51759 31.67836,8.35157 47.80557,8.35164 47.80557,26.49465 0,13.24733 -10.36748,20.44696 -27.35861,20.44696 -19.00701,0 -31.6784,-6.91165 -39.16601,-21.5989 -5.18373,-10.07949 -6.62368,-18.14308 -17.56711,-18.14308 -11.80738,0 -15.83919,4.60784 -15.83919,16.70315 0,0.57597 0,0.86396 0,1.43993 l 0.86396,33.11832 c 0.28798,11.8074 4.60778,15.26322 16.12718,15.26322 6.33567,0 10.07948,-1.43993 13.24732,-6.91165" />
  </g>
</svg>
