<?xml version="1.0" encoding="UTF-8" standalone="no"?>
<!-- Created with Inkscape (http://www.inkscape.org/) -->

<svg
   xmlns:dc="http://purl.org/dc/elements/1.1/"
   xmlns:cc="http://creativecommons.org/ns#"
   xmlns:rdf="http://www.w3.org/1999/02/22-rdf-syntax-ns#"
   xmlns:svg="http://www.w3.org/2000/svg"
   xmlns="http://www.w3.org/2000/svg"
   xmlns:sodipodi="http://sodipodi.sourceforge.net/DTD/sodipodi-0.dtd"
   xmlns:inkscape="http://www.inkscape.org/namespaces/inkscape"
   width="744.09448819"
   height="1052.3622047"
   id="svg3801"
   version="1.1"
   inkscape:version="0.48.4 r9939"
   sodipodi:docname="New document 38">
  <defs
     id="defs3803" />
  <sodipodi:namedview
     id="base"
     pagecolor="#ffffff"
     bordercolor="#666666"
     borderopacity="1.0"
     inkscape:pageopacity="0.0"
     inkscape:pageshadow="2"
     inkscape:zoom="0.35"
     inkscape:cx="375"
     inkscape:cy="520"
     inkscape:document-units="px"
     inkscape:current-layer="layer1"
     showgrid="false"
     inkscape:window-width="1440"
     inkscape:window-height="845"
     inkscape:window-x="-4"
     inkscape:window-y="-3"
     inkscape:window-maximized="1" />
  <metadata
     id="metadata3806">
    <rdf:RDF>
      <cc:Work
         rdf:about="">
        <dc:format>image/svg+xml</dc:format>
        <dc:type
           rdf:resource="http://purl.org/dc/dcmitype/StillImage" />
        <dc:title></dc:title>
      </cc:Work>
    </rdf:RDF>
  </metadata>
  <g
     inkscape:label="Layer 1"
     inkscape:groupmode="layer"
     id="layer1">
    <path
       style="fill:none;stroke:#000000;stroke-width:4.69102764px;stroke-linecap:butt;stroke-linejoin:miter;stroke-opacity:1"
       d="m 24.644325,869.29943 c 0,0 84.169475,38.99229 128.492295,49.80558 60.45207,14.74832 122.94226,19.31099 184.84849,19.92222 66.3309,0.65493 132.99116,-5.07028 198.37407,-17.43193 49.0452,-9.27278 144.27201,-42.33472 144.27201,-42.33472 l -4.50857,-408.40546 c 0,0 -46.0908,-40.25161 -72.13598,-54.78611 -18.45332,-10.29793 -38.77053,-15.99018 -58.61051,-22.41251 -21.51237,-6.96367 -43.19712,-13.81219 -65.37326,-17.43197 -39.46042,-6.44103 -79.59309,-8.27536 -119.47525,-7.47082 -56.59178,1.14172 -113.32824,6.56962 -169.06877,17.43197 -32.12788,6.26088 -64.80728,12.90363 -94.6785,27.39308 -22.901658,11.10872 -47.771723,23.00698 -63.118983,44.82497 -7.290087,10.36369 -11.27128,37.35414 -11.27128,37.35414 z"
       id="path4114"
       inkscape:connector-curvature="0"
       sodipodi:nodetypes="csssccssssssscc" />
    <path
       style="fill:#ffffff;fill-opacity:1;stroke:#000000;stroke-width:3.12530541;stroke-linecap:butt;stroke-linejoin:miter;stroke-miterlimit:4;stroke-opacity:1;stroke-dasharray:none"
       d="m 254.54452,438.5296 9.02012,-160.10682 c 0,0 15.26776,-56.33876 36.08042,-74.4158 16.6907,-14.49686 41.03433,-20.07924 63.14069,-20.29524 31.38935,-0.30673 67.26991,5.62314 90.201,27.06032 18.76603,17.5435 27.06032,72.16081 27.06032,72.16081 l 0,157.85172 c 0,0 18.25013,14.92789 29.31532,15.78521 13.51052,1.0468 38.33544,-13.53017 38.33544,-13.53017 0,0 -4.21501,-106.10345 0,-151.08668 3.08633,-32.93796 -13.43952,-68.33499 -36.0804,-92.45605 -24.39627,-25.9912 -62.40128,-36.38302 -96.96608,-45.10048 -24.82381,-6.26075 -51.44556,-8.8806 -76.67089,-4.51004 -32.1902,5.57729 -66.62479,15.71962 -90.20102,38.33544 -24.02132,23.04279 -43.68556,56.92503 -42.84548,90.20096 1.42621,56.4937 -2.255,160.10682 -2.255,160.10682 0,0 18.56869,14.11106 29.31532,13.53011 8.75318,-0.47317 22.55024,-13.53011 22.55024,-13.53011 z"
       id="path4118"
       inkscape:connector-curvature="0"
       sodipodi:nodetypes="ccsssccscsssssscsc" />
    <path
       sodipodi:type="arc"
       style="fill:#ffffff;fill-opacity:1;stroke:#353535;stroke-width:0.69999999;stroke-linejoin:round;stroke-miterlimit:4;stroke-opacity:1;stroke-dasharray:none"
       id="path4120"
       sodipodi:cx="604.32373"
       sodipodi:cy="878.61597"
       sodipodi:rx="76.519058"
       sodipodi:ry="17.67767"
       d="m 530.29286,874.14464 a 76.519058,17.67767 0 0 1 149.99857,2.35302"
       sodipodi:start="3.3973071"
       sodipodi:end="6.1630672"
       sodipodi:open="true"
       transform="matrix(4.269735,0,0,-4.4690605,-2233.1128,4375.8929)" />
    <path
       sodipodi:type="arc"
       style="fill:#ffffff;fill-opacity:1;stroke:#353535;stroke-width:0.69999999;stroke-linejoin:round;stroke-miterlimit:4;stroke-opacity:1;stroke-dasharray:none"
       id="path4120-9"
       sodipodi:cx="604.32373"
       sodipodi:cy="878.61597"
       sodipodi:rx="76.519058"
       sodipodi:ry="17.67767"
       d="m 530.29286,874.14464 a 76.519058,17.67767 0 0 1 149.99857,2.35302"
       sodipodi:start="3.3973071"
       sodipodi:end="6.1630672"
       sodipodi:open="true"
       transform="matrix(4.3447288,0,0,-4.46738,-2279.447,4673.4524)" />
  </g>
</svg>
