<?xml version="1.0" encoding="UTF-8" standalone="no"?>
<!-- Created with Inkscape (http://www.inkscape.org/) -->

<svg
   xmlns:dc="http://purl.org/dc/elements/1.1/"
   xmlns:cc="http://creativecommons.org/ns#"
   xmlns:rdf="http://www.w3.org/1999/02/22-rdf-syntax-ns#"
   xmlns:svg="http://www.w3.org/2000/svg"
   xmlns="http://www.w3.org/2000/svg"
   xmlns:sodipodi="http://sodipodi.sourceforge.net/DTD/sodipodi-0.dtd"
   xmlns:inkscape="http://www.inkscape.org/namespaces/inkscape"
   width="744.09448819"
   height="1052.3622047"
   id="svg3674"
   version="1.1"
   inkscape:version="0.48.4 r9939"
   sodipodi:docname="New document 32">
  <defs
     id="defs3676" />
  <sodipodi:namedview
     id="base"
     pagecolor="#ffffff"
     bordercolor="#666666"
     borderopacity="1.0"
     inkscape:pageopacity="0.0"
     inkscape:pageshadow="2"
     inkscape:zoom="0.35"
     inkscape:cx="375"
     inkscape:cy="520"
     inkscape:document-units="px"
     inkscape:current-layer="layer1"
     showgrid="false"
     inkscape:window-width="1440"
     inkscape:window-height="845"
     inkscape:window-x="-4"
     inkscape:window-y="-3"
     inkscape:window-maximized="1" />
  <metadata
     id="metadata3679">
    <rdf:RDF>
      <cc:Work
         rdf:about="">
        <dc:format>image/svg+xml</dc:format>
        <dc:type
           rdf:resource="http://purl.org/dc/dcmitype/StillImage" />
        <dc:title></dc:title>
      </cc:Work>
    </rdf:RDF>
  </metadata>
  <g
     inkscape:label="Layer 1"
     inkscape:groupmode="layer"
     id="layer1">
    <rect
       style="fill:#fefefe;fill-opacity:1;stroke:#5d5d5d;stroke-width:1.67554498;stroke-linejoin:round;stroke-miterlimit:4;stroke-opacity:1;stroke-dasharray:none"
       id="rect3965-68"
       width="461.53506"
       height="285.41388"
       x="-113.09552"
       y="518.08099"
       ry="38.983368"
       transform="matrix(0.92293859,-0.38494721,0.40104646,0.91605771,0,0)" />
    <path
       inkscape:connector-curvature="0"
       style="fill:none;stroke:#353535;stroke-width:1.98073828;stroke-linecap:butt;stroke-linejoin:miter;stroke-miterlimit:4;stroke-opacity:1;stroke-dasharray:none"
       d="M 67.730872,489.72498 C 109.96988,339.29752 275.1851,249.23315 436.7494,288.56061 598.31369,327.88804 695.04592,481.7148 652.80691,632.1422 610.56786,782.56969 445.35261,872.63405 283.78834,833.30663 129.76878,795.81568 33.351397,653.55579 63.295867,507.97893"
       id="path4083" />
    <path
       inkscape:connector-curvature="0"
       style="fill:none;stroke:#353535;stroke-width:1.98073828;stroke-linecap:butt;stroke-linejoin:miter;stroke-miterlimit:4;stroke-opacity:1;stroke-dasharray:none"
       d="M 30.470744,478.2671 C 78.57165,303.63492 266.71514,199.07865 450.70103,244.73411 634.68695,290.38959 744.84349,468.96803 696.74262,643.60021 648.64171,818.23238 460.49826,922.78859 276.51233,877.1331 101.11819,833.60975 -8.679801,668.45933 25.420257,499.45822"
       id="path4057" />
    <path
       inkscape:connector-curvature="0"
       style="fill:none;stroke:#353535;stroke-width:1.98073828;stroke-linecap:butt;stroke-linejoin:miter;stroke-miterlimit:4;stroke-opacity:1;stroke-dasharray:none"
       d="M 167.69021,777.69215 516.17119,317.49718 z"
       id="path4085" />
    <path
       inkscape:connector-curvature="0"
       style="fill:none;stroke:#353535;stroke-width:1.98073828;stroke-linecap:butt;stroke-linejoin:miter;stroke-miterlimit:4;stroke-opacity:1;stroke-dasharray:none"
       d="M 207.70716,804.37012 559.52288,344.17515 z"
       id="path4087" />
    <path
       style="fill:#fefefe;fill-opacity:1;stroke:none"
       id="path4077"
       d="m 538.60804,365.25225 c -15.37707,-4.42536 -32.60348,-7.13528 -49.04608,-10.53634 0,0 38.9628,-53.85752 38.9628,-53.85752 l 0,0 c 16.64091,3.68909 34.2267,6.33565 50.76101,10.15287 0,0 -40.67773,54.24099 -40.67773,54.24099 z"
       inkscape:connector-curvature="0" />
  </g>
</svg>
