<?xml version="1.0" encoding="UTF-8" standalone="no"?>
<!-- Created with Inkscape (http://www.inkscape.org/) -->

<svg
   xmlns:dc="http://purl.org/dc/elements/1.1/"
   xmlns:cc="http://creativecommons.org/ns#"
   xmlns:rdf="http://www.w3.org/1999/02/22-rdf-syntax-ns#"
   xmlns:svg="http://www.w3.org/2000/svg"
   xmlns="http://www.w3.org/2000/svg"
   xmlns:sodipodi="http://sodipodi.sourceforge.net/DTD/sodipodi-0.dtd"
   xmlns:inkscape="http://www.inkscape.org/namespaces/inkscape"
   width="744.09448819"
   height="1052.3622047"
   id="svg3488"
   version="1.1"
   inkscape:version="0.48.4 r9939"
   sodipodi:docname="zoom_out.svg">
  <defs
     id="defs3490" />
  <sodipodi:namedview
     id="base"
     pagecolor="#ffffff"
     bordercolor="#666666"
     borderopacity="1.0"
     inkscape:pageopacity="0.0"
     inkscape:pageshadow="2"
     inkscape:zoom="0.35"
     inkscape:cx="-117.85714"
     inkscape:cy="521.42857"
     inkscape:document-units="px"
     inkscape:current-layer="layer1"
     showgrid="false"
     inkscape:window-width="1440"
     inkscape:window-height="851"
     inkscape:window-x="0"
     inkscape:window-y="25"
     inkscape:window-maximized="1" />
  <metadata
     id="metadata3493">
    <rdf:RDF>
      <cc:Work
         rdf:about="">
        <dc:format>image/svg+xml</dc:format>
        <dc:type
           rdf:resource="http://purl.org/dc/dcmitype/StillImage" />
        <dc:title />
      </cc:Work>
    </rdf:RDF>
  </metadata>
  <g
     inkscape:label="Layer 1"
     inkscape:groupmode="layer"
     id="layer1">
    <path
       sodipodi:type="arc"
       style="fill:none;stroke:#110b02;stroke-width:0.48738829;stroke-linejoin:round;stroke-miterlimit:4;stroke-opacity:1;stroke-dasharray:none"
       id="path3891-8"
       sodipodi:cx="609.17084"
       sodipodi:cy="378.99155"
       sodipodi:rx="51.110512"
       sodipodi:ry="55.058071"
       d="m 660.28135,378.99155 a 51.110512,55.058071 0 1 1 -102.22102,0 51.110512,55.058071 0 1 1 102.22102,0 z"
       transform="matrix(4.3561235,0,0,3.8655351,-2375.6626,-1047.4684)" />
    <path
       sodipodi:type="arc"
       style="fill:none;stroke:#110b02;stroke-width:0.5576597;stroke-linejoin:round;stroke-miterlimit:4;stroke-opacity:1;stroke-dasharray:none"
       id="path3893-9"
       sodipodi:cx="610.41742"
       sodipodi:cy="383.56241"
       sodipodi:rx="69.393951"
       sodipodi:ry="69.18618"
       d="m 679.81137,383.56241 a 69.393951,69.18618 0 1 1 -138.7879,0 69.393951,69.18618 0 1 1 138.7879,0 z"
       transform="matrix(3.6138382,0,0,3.559203,-1928.7424,-952.17166)" />
    <path
       style="fill:none;stroke:#110b02;stroke-width:2;stroke-linecap:butt;stroke-linejoin:miter;stroke-miterlimit:4;stroke-opacity:1;stroke-dasharray:none"
       d="m 441.86366,601.83097 c 0,0 101.5216,110.37121 149.55028,138.97601 27.93,16.63448 93.65774,34.744 93.65774,34.744 0,0 16.00833,-2.1113 21.14854,-7.55303 6.12703,-6.48642 7.55303,-25.68033 7.55303,-25.68033 0,0 -24.28243,-35.40942 -45.31827,-55.89258 C 626.616,645.68528 484.1607,553.4915 484.1607,553.4915 c 0,0 -13.83707,17.34286 -21.14854,25.68033 -6.812,7.76792 -21.1485,22.65914 -21.1485,22.65914 z"
       id="path3895-1"
       inkscape:connector-curvature="0"
       sodipodi:nodetypes="cscscscsc" />
    <path
       style="fill:none;stroke:#110b02;stroke-width:2;stroke-linecap:butt;stroke-linejoin:miter;stroke-miterlimit:4;stroke-opacity:1;stroke-dasharray:none"
       d="m 340.65285,597.29913 c 0,0 -131.04483,13.19729 -182.78369,-19.6379 -69.41148,-44.0508 -90.636541,-152.57151 -90.636541,-152.57151 0,0 66.807111,98.70983 119.338111,117.82751 62.78738,22.85028 154.08212,54.3819 154.08212,54.3819 z"
       id="path3897-3"
       inkscape:connector-curvature="0"
       sodipodi:nodetypes="cscsc" />
    <flowRoot
       xml:space="preserve"
       id="flowRoot3960"
       style="font-size:40px;font-style:normal;font-variant:normal;font-weight:normal;font-stretch:normal;text-align:start;line-height:125%;letter-spacing:0px;word-spacing:0px;writing-mode:lr-tb;text-anchor:start;fill:none;stroke:#110b02;stroke-width:0.07840984;stroke-miterlimit:4;stroke-opacity:1;stroke-dasharray:none;font-family:Sans;-inkscape-font-specification:Sans"
       transform="matrix(30.181715,0,0,21.556335,-1575.4064,-13424.589)"><flowRegion
         id="flowRegion3962"><rect
           id="rect3964"
           width="86.846329"
           height="51.941566"
           x="54.019241"
           y="613.14423"
           style="font-size:40px;font-style:normal;font-variant:normal;font-weight:normal;font-stretch:normal;text-align:start;line-height:125%;writing-mode:lr-tb;text-anchor:start;fill:none;stroke:#110b02;stroke-width:0.07840984;stroke-miterlimit:4;stroke-opacity:1;stroke-dasharray:none;font-family:Sans;-inkscape-font-specification:Sans" /></flowRegion><flowPara
         id="flowPara3966"
         style="font-size:40px;font-style:normal;font-variant:normal;font-weight:normal;font-stretch:normal;text-align:start;line-height:125%;writing-mode:lr-tb;text-anchor:start;fill:none;stroke:#110b02;stroke-width:0.07840984;stroke-miterlimit:4;stroke-opacity:1;stroke-dasharray:none;font-family:Sans;-inkscape-font-specification:Sans">-</flowPara></flowRoot>  </g>
</svg>
