<?xml version="1.0" encoding="UTF-8" standalone="no"?>
<!-- Created with Inkscape (http://www.inkscape.org/) -->

<svg
   xmlns:dc="http://purl.org/dc/elements/1.1/"
   xmlns:cc="http://creativecommons.org/ns#"
   xmlns:rdf="http://www.w3.org/1999/02/22-rdf-syntax-ns#"
   xmlns:svg="http://www.w3.org/2000/svg"
   xmlns="http://www.w3.org/2000/svg"
   xmlns:sodipodi="http://sodipodi.sourceforge.net/DTD/sodipodi-0.dtd"
   xmlns:inkscape="http://www.inkscape.org/namespaces/inkscape"
   width="725.09375"
   height="727.125"
   id="svg3823"
   version="1.1"
   inkscape:version="0.48.4 r9939"
   sodipodi:docname="number_list.svg">
  <defs
     id="defs3825" />
  <sodipodi:namedview
     id="base"
     pagecolor="#ffffff"
     bordercolor="#666666"
     borderopacity="1.0"
     inkscape:pageopacity="0.0"
     inkscape:pageshadow="2"
     inkscape:zoom="0.35"
     inkscape:cx="-620.71874"
     inkscape:cy="424.98157"
     inkscape:document-units="px"
     inkscape:current-layer="layer1"
     showgrid="false"
     inkscape:window-width="1440"
     inkscape:window-height="824"
     inkscape:window-x="0"
     inkscape:window-y="24"
     inkscape:window-maximized="1"
     fit-margin-top="5"
     fit-margin-left="20"
     fit-margin-right="20"
     fit-margin-bottom="5" />
  <metadata
     id="metadata3828">
    <rdf:RDF>
      <cc:Work
         rdf:about="">
        <dc:format>image/svg+xml</dc:format>
        <dc:type
           rdf:resource="http://purl.org/dc/dcmitype/StillImage" />
        <dc:title />
      </cc:Work>
    </rdf:RDF>
  </metadata>
  <g
     inkscape:label="Layer 1"
     inkscape:groupmode="layer"
     id="layer1"
     transform="translate(-15.71875,-230.21875)">
    <rect
       style="fill:#ffffff;fill-opacity:1;stroke:#110b02;stroke-width:7;stroke-linecap:round;stroke-linejoin:round;stroke-miterlimit:4;stroke-opacity:1;stroke-dasharray:none"
       id="rect3851-4-6"
       width="678.08423"
       height="710.11969"
       x="39.225887"
       y="238.73093"
       ry="56.06208" />
    <rect
       style="fill:#3b3b3b;fill-opacity:1;stroke:#3b3b3b;stroke-width:2;stroke-linecap:round;stroke-linejoin:round;stroke-miterlimit:4;stroke-opacity:1;stroke-dasharray:none"
       id="rect3855-35-5"
       width="511.56897"
       height="83.059174"
       x="177.69896"
       y="284.20654"
       ry="5.6631866" />
    <rect
       style="fill:#3b3b3b;fill-opacity:1;stroke:#3b3b3b;stroke-width:2;stroke-linecap:round;stroke-linejoin:round;stroke-miterlimit:4;stroke-opacity:1;stroke-dasharray:none"
       id="rect3855-8-7-9"
       width="511.56897"
       height="83.059174"
       x="176.75502"
       y="386.14261"
       ry="5.6631866" />
    <rect
       style="fill:#3b3b3b;fill-opacity:1;stroke:#3b3b3b;stroke-width:2;stroke-linecap:round;stroke-linejoin:round;stroke-miterlimit:4;stroke-opacity:1;stroke-dasharray:none"
       id="rect3855-1-4-0"
       width="511.56897"
       height="83.059174"
       x="172.97968"
       y="497.51761"
       ry="5.6631866" />
    <rect
       style="fill:#3b3b3b;fill-opacity:1;stroke:#3b3b3b;stroke-width:2;stroke-linecap:round;stroke-linejoin:round;stroke-miterlimit:4;stroke-opacity:1;stroke-dasharray:none"
       id="rect3855-7-1-9"
       width="511.56897"
       height="83.059174"
       x="172.97968"
       y="605.11707"
       ry="5.6631866" />
    <rect
       style="fill:#3b3b3b;fill-opacity:1;stroke:#3b3b3b;stroke-width:2;stroke-linecap:round;stroke-linejoin:round;stroke-miterlimit:4;stroke-opacity:1;stroke-dasharray:none"
       id="rect3855-0-9-5"
       width="511.56897"
       height="83.059174"
       x="174.86734"
       y="824.09106"
       ry="5.6631866" />
    <rect
       style="fill:#3b3b3b;fill-opacity:1;stroke:#3b3b3b;stroke-width:2;stroke-linecap:round;stroke-linejoin:round;stroke-miterlimit:4;stroke-opacity:1;stroke-dasharray:none"
       id="rect3855-3-9-9"
       width="511.56897"
       height="83.059174"
       x="174.86734"
       y="718.37952"
       ry="5.6631866" />
    <g
       transform="matrix(3.737472,0,0,3.737472,-1894.5329,-2807.0497)"
       style="font-size:12px;font-style:normal;font-variant:normal;font-weight:normal;font-stretch:normal;text-align:start;line-height:125%;letter-spacing:0px;word-spacing:0px;writing-mode:lr-tb;text-anchor:start;fill:#000000;fill-opacity:1;stroke:none;font-family:Sans;-inkscape-font-specification:Sans"
       id="flowRoot4107">
      <path
         d="m 535.04687,954.06446 c 0.58593,0.39063 1.07812,0.91797 1.47657,1.58203 0.39842,0.65625 0.59764,1.47266 0.59765,2.44922 -10e-6,1.71875 -0.66798,3.12109 -2.0039,4.20703 -1.32814,1.09374 -3.02735,1.64062 -5.09766,1.64062 -1.60157,0 -2.9375,-0.34375 -4.00781,-1.03125 -1.07031,-0.6875 -1.60547,-1.5 -1.60547,-2.4375 0,-0.55468 0.17578,-1.02343 0.52734,-1.40625 0.35938,-0.38281 0.83594,-0.57421 1.42969,-0.57422 0.61719,10e-6 1.12109,0.16797 1.51172,0.50391 0.39843,0.32813 0.59765,0.76953 0.59766,1.32422 -10e-6,0.39062 -0.0664,0.8164 -0.19922,1.27734 -0.13282,0.46094 -0.24219,0.8125 -0.32813,1.05469 0.1875,0.0703 0.40625,0.12109 0.65625,0.15234 0.25,0.0391 0.48437,0.0586 0.70313,0.0586 0.4453,0 0.8828,-0.10157 1.3125,-0.30469 0.42968,-0.19531 0.79686,-0.48438 1.10156,-0.86719 0.35155,-0.4375 0.61718,-0.95703 0.79687,-1.55859 0.17968,-0.59375 0.26953,-1.26953 0.26954,-2.02734 -10e-6,-1.10156 -0.29689,-2.00391 -0.89063,-2.70704 -0.58594,-0.71093 -1.34766,-1.0664 -2.28516,-1.0664 -0.72656,0 -1.33594,0.14844 -1.82812,0.44531 -0.49219,0.28907 -0.9336,0.67188 -1.32422,1.14844 l -0.91406,-0.30469 1.13672,-8.625 9.90234,0 0,3.23438 -9.05859,0 -0.48047,3.86718 c 0.42187,-0.26562 0.96484,-0.51952 1.6289,-0.76172 0.66406,-0.24218 1.44531,-0.36327 2.34375,-0.36328 0.69531,10e-6 1.3789,0.0781 2.05079,0.23438 0.67967,0.14844 1.33983,0.4336 1.98046,0.85547"
         style="font-size:24px;font-weight:bold;font-family:Georgia;-inkscape-font-specification:Georgia Bold"
         id="path3027" />
      <path
         d="m 544.39844,957.67383 c -1e-5,0.61719 -0.23048,1.15235 -0.69141,1.60547 -0.45313,0.45313 -0.99219,0.67969 -1.61719,0.67969 -0.63281,0 -1.17969,-0.22266 -1.64062,-0.66797 -0.45313,-0.45312 -0.67969,-0.99219 -0.67969,-1.61719 0,-0.625 0.22656,-1.16406 0.67969,-1.61719 0.46093,-0.46093 1.00781,-0.6914 1.64062,-0.6914 0.625,0 1.16406,0.23047 1.61719,0.6914 0.46093,0.46095 0.6914,1.00001 0.69141,1.61719"
         style="font-size:24px;font-weight:bold;font-family:Georgia;-inkscape-font-specification:Georgia Bold"
         id="path3029" />
    </g>
    <g
       id="flowRoot4071"
       style="font-size:12px;font-style:normal;font-variant:normal;font-weight:normal;font-stretch:normal;text-align:start;line-height:125%;letter-spacing:0px;word-spacing:0px;writing-mode:lr-tb;text-anchor:start;fill:#110b02;fill-opacity:1;stroke:none;font-family:Liberation Serif;-inkscape-font-specification:Liberation Serif"
       transform="matrix(5.0687253,0,0,5.4390682,-2591.782,-4216.4641)">
      <path
         inkscape:connector-curvature="0"
         id="path3787"
         style="font-size:24px;font-weight:bold;fill:#110b02;font-family:Liberation Serif;-inkscape-font-specification:Liberation Serif"
         d="m 531.27734,840.37216 2.73047,0.28125 0,1.00782 -8.83594,0 0,-1.00782 2.71875,-0.28125 0,-11.84765 -2.70703,0.89062 0,-0.99609 4.42969,-2.60156 1.66406,0 0,14.55468" />
      <path
         inkscape:connector-curvature="0"
         id="path3789"
         style="font-size:24px;font-weight:bold;fill:#110b02;font-family:Liberation Serif;-inkscape-font-specification:Liberation Serif"
         d="m 538.25,842.00107 c -0.27344,0 -0.52735,-0.0508 -0.76172,-0.15234 -0.23438,-0.10157 -0.44141,-0.23829 -0.62109,-0.41016 -0.17188,-0.17969 -0.3086,-0.38672 -0.41016,-0.62109 -0.10156,-0.23438 -0.15234,-0.48828 -0.15234,-0.76172 0,-0.26563 0.0508,-0.51563 0.15234,-0.75 0.10156,-0.24219 0.23828,-0.44922 0.41016,-0.6211 0.17968,-0.17968 0.38671,-0.32031 0.62109,-0.42187 0.23437,-0.10156 0.48828,-0.15234 0.76172,-0.15235 0.26562,10e-6 0.51562,0.0508 0.75,0.15235 0.24218,0.10156 0.44921,0.24219 0.62109,0.42187 0.17969,0.17188 0.32031,0.37891 0.42188,0.6211 0.10156,0.23437 0.15234,0.48437 0.15234,0.75 0,0.27344 -0.0508,0.52734 -0.15234,0.76172 -0.10157,0.23437 -0.24219,0.4414 -0.42188,0.62109 -0.17188,0.17187 -0.37891,0.30859 -0.62109,0.41016 -0.23438,0.10156 -0.48438,0.15234 -0.75,0.15234" />
    </g>
    <g
       id="flowRoot4083"
       style="font-size:12px;font-style:normal;font-variant:normal;font-weight:normal;font-stretch:normal;text-align:start;line-height:125%;letter-spacing:0px;word-spacing:0px;writing-mode:lr-tb;text-anchor:start;fill:#110b02;fill-opacity:1;stroke:none;font-family:Liberation Serif;-inkscape-font-specification:Liberation Serif"
       transform="matrix(5.1716457,0,0,4.7283255,-2642.3707,-3643.5293)">
      <path
         inkscape:connector-curvature="0"
         id="path3792"
         style="font-size:24px;font-weight:bold;fill:#110b02;font-family:Liberation Serif;-inkscape-font-specification:Liberation Serif"
         d="m 532.71875,869.94248 -9.96094,0 0,-2.21485 c 0.67188,-0.71874 1.29297,-1.35937 1.86328,-1.92187 0.57031,-0.57031 1.08594,-1.09765 1.54688,-1.58203 0.46874,-0.49219 0.88281,-0.95703 1.24219,-1.39454 0.35937,-0.4453 0.65624,-0.90233 0.89062,-1.37109 0.24218,-0.47655 0.42578,-0.98436 0.55078,-1.52344 0.125,-0.53905 0.1875,-1.15233 0.1875,-1.83984 0,-0.47655 -0.0625,-0.89061 -0.1875,-1.24219 -0.125,-0.35936 -0.29297,-0.65623 -0.5039,-0.89062 -0.20314,-0.24218 -0.44142,-0.42186 -0.71485,-0.53907 -0.27344,-0.11717 -0.5625,-0.17576 -0.86719,-0.17578 -0.48437,2e-5 -0.87109,0.0508 -1.16015,0.15235 -0.28907,0.10157 -0.55469,0.25392 -0.79688,0.45703 l -0.5039,2.27344 -1.01953,0 0,-3.57422 c 0.62499,-0.14061 1.23437,-0.2578 1.82812,-0.35157 0.60156,-0.10154 1.2539,-0.15232 1.95703,-0.15234 1.72656,2e-5 3.04687,0.35549 3.96094,1.06641 0.92186,0.71095 1.3828,1.72267 1.38281,3.03515 -10e-6,0.62501 -0.0742,1.19142 -0.22265,1.69922 -0.14845,0.50001 -0.3672,0.97267 -0.65625,1.41797 -0.28126,0.44532 -0.63283,0.87892 -1.05469,1.30078 -0.42188,0.42188 -0.91017,0.8672 -1.46485,1.33594 -0.54688,0.46876 -1.15625,0.97657 -1.82812,1.52344 -0.67188,0.54688 -1.39844,1.16797 -2.17969,1.86328 l 7.71094,0 0,2.64844" />
      <path
         inkscape:connector-curvature="0"
         id="path3794"
         style="font-size:24px;font-weight:bold;fill:#110b02;font-family:Liberation Serif;-inkscape-font-specification:Liberation Serif"
         d="m 536.75,870.28232 c -0.27344,0 -0.52735,-0.0508 -0.76172,-0.15234 -0.23438,-0.10157 -0.44141,-0.23829 -0.62109,-0.41016 -0.17188,-0.17969 -0.3086,-0.38672 -0.41016,-0.62109 -0.10156,-0.23438 -0.15234,-0.48828 -0.15234,-0.76172 0,-0.26563 0.0508,-0.51563 0.15234,-0.75 0.10156,-0.24219 0.23828,-0.44922 0.41016,-0.6211 0.17968,-0.17968 0.38671,-0.32031 0.62109,-0.42187 0.23437,-0.10156 0.48828,-0.15234 0.76172,-0.15235 0.26562,10e-6 0.51562,0.0508 0.75,0.15235 0.24218,0.10156 0.44921,0.24219 0.62109,0.42187 0.17969,0.17188 0.32031,0.37891 0.42188,0.6211 0.10156,0.23437 0.15234,0.48437 0.15234,0.75 0,0.27344 -0.0508,0.52734 -0.15234,0.76172 -0.10157,0.23437 -0.24219,0.4414 -0.42188,0.62109 -0.17188,0.17187 -0.37891,0.30859 -0.62109,0.41016 -0.23438,0.10156 -0.48438,0.15234 -0.75,0.15234" />
    </g>
    <g
       id="flowRoot4091"
       style="font-size:12px;font-style:normal;font-variant:normal;font-weight:normal;font-stretch:normal;text-align:start;line-height:125%;letter-spacing:0px;word-spacing:0px;writing-mode:lr-tb;text-anchor:start;fill:#110b02;fill-opacity:1;stroke:none;font-family:Liberation Serif;-inkscape-font-specification:Liberation Serif"
       transform="matrix(4.4498446,0,0,4.6176508,-2265.6808,-3576.0062)">
      <path
         inkscape:connector-curvature="0"
         id="path3797"
         style="font-size:24px;font-weight:bold;fill:#110b02;font-family:Liberation Serif;-inkscape-font-specification:Liberation Serif"
         d="m 533.92969,894.94638 c -1e-5,0.71094 -0.12892,1.34766 -0.38672,1.91016 -0.25782,0.55469 -0.63673,1.02734 -1.13672,1.41797 -0.4922,0.38281 -1.09766,0.67578 -1.81641,0.8789 -0.71875,0.20313 -1.53907,0.30469 -2.46093,0.30469 -0.79688,0 -1.56641,-0.0469 -2.3086,-0.14062 -0.74219,-0.0859 -1.41797,-0.19532 -2.02734,-0.32813 l -0.14063,-3.80859 1.07813,0 0.60937,2.51953 c 0.25,0.14062 0.55859,0.27344 0.92578,0.39844 0.375,0.11718 0.77734,0.17578 1.20704,0.17578 0.51562,0 0.96093,-0.0859 1.33593,-0.25782 0.375,-0.17187 0.6875,-0.41015 0.9375,-0.71484 0.25,-0.30468 0.43359,-0.66797 0.55078,-1.08984 0.125,-0.42187 0.1875,-0.88281 0.1875,-1.38282 0,-0.56249 -0.0703,-1.03124 -0.21093,-1.40625 -0.14063,-0.3828 -0.33204,-0.68749 -0.57422,-0.91406 -0.2422,-0.23437 -0.53126,-0.40233 -0.86719,-0.5039 -0.32813,-0.10937 -0.67969,-0.17578 -1.05469,-0.19922 l -1.35937,-0.082 0,-1.41797 1.3125,-0.0937 c 0.69531,-0.0469 1.20702,-0.30077 1.53515,-0.76172 0.33594,-0.46874 0.5039,-1.17187 0.50391,-2.10938 -10e-6,-0.47655 -0.0586,-0.89061 -0.17578,-1.24218 -0.10938,-0.35155 -0.26563,-0.64452 -0.46875,-0.87891 -0.19532,-0.23436 -0.4336,-0.40624 -0.71484,-0.51563 -0.28126,-0.11717 -0.58595,-0.17576 -0.91407,-0.17578 -0.42188,2e-5 -0.76953,0.0664 -1.04297,0.19922 -0.26562,0.12502 -0.51953,0.26174 -0.76171,0.41016 l -0.50391,2.27344 -1.01953,0 0,-3.57422 c 0.28125,-0.0703 0.5625,-0.13671 0.84375,-0.19922 0.28125,-0.0625 0.57421,-0.11327 0.8789,-0.15235 0.30469,-0.0469 0.625,-0.082 0.96094,-0.10546 0.33594,-0.0312 0.69922,-0.0469 1.08985,-0.0469 1.72655,2e-5 3.03905,0.31642 3.9375,0.94922 0.89842,0.63283 1.34764,1.60548 1.34765,2.91797 -10e-6,0.4922 -0.0664,0.95313 -0.19922,1.38281 -0.12501,0.42189 -0.32032,0.79689 -0.58593,1.125 -0.26564,0.32814 -0.60548,0.60548 -1.01954,0.83203 -0.40625,0.21876 -0.89063,0.3711 -1.45312,0.45703 1.34374,0.16407 2.33983,0.57423 2.98828,1.23047 0.64843,0.65626 0.97265,1.56251 0.97266,2.71875" />
      <path
         inkscape:connector-curvature="0"
         id="path3799"
         style="font-size:24px;font-weight:bold;fill:#110b02;font-family:Liberation Serif;-inkscape-font-specification:Liberation Serif"
         d="m 537.75,899.56357 c -0.27344,0 -0.52735,-0.0508 -0.76172,-0.15234 -0.23438,-0.10157 -0.44141,-0.23829 -0.62109,-0.41016 -0.17188,-0.17969 -0.3086,-0.38672 -0.41016,-0.62109 -0.10156,-0.23438 -0.15234,-0.48828 -0.15234,-0.76172 0,-0.26563 0.0508,-0.51563 0.15234,-0.75 0.10156,-0.24219 0.23828,-0.44922 0.41016,-0.6211 0.17968,-0.17968 0.38671,-0.32031 0.62109,-0.42187 0.23437,-0.10156 0.48828,-0.15234 0.76172,-0.15235 0.26562,10e-6 0.51562,0.0508 0.75,0.15235 0.24218,0.10156 0.44921,0.24219 0.62109,0.42187 0.17969,0.17188 0.32031,0.37891 0.42188,0.6211 0.10156,0.23437 0.15234,0.48437 0.15234,0.75 0,0.27344 -0.0508,0.52734 -0.15234,0.76172 -0.10157,0.23437 -0.24219,0.4414 -0.42188,0.62109 -0.17188,0.17187 -0.37891,0.30859 -0.62109,0.41016 -0.23438,0.10156 -0.48438,0.15234 -0.75,0.15234" />
    </g>
    <g
       id="flowRoot4099"
       style="font-size:12px;font-style:normal;font-variant:normal;font-weight:normal;font-stretch:normal;text-align:start;line-height:125%;letter-spacing:0px;word-spacing:0px;writing-mode:lr-tb;text-anchor:start;fill:#110b02;fill-opacity:1;stroke:none;font-family:Liberation Serif;-inkscape-font-specification:Liberation Serif"
       transform="matrix(4.7691061,0,0,4.7223635,-2432.7862,-3693.7229)">
      <path
         inkscape:connector-curvature="0"
         id="path3802"
         style="font-size:24px;font-weight:bold;fill:#110b02;font-family:Liberation Serif;-inkscape-font-specification:Liberation Serif"
         d="m 533.23437,923.89951 0,3.10547 -3.15234,0 0,-3.10547 -6.50391,0 0,-1.91016 7.07813,-10.78125 2.57812,0 0,10.28906 1.57032,0 0,2.40235 -1.57032,0 m -3.15234,-7.05469 c -10e-6,-0.20311 0.004,-0.41796 0.0117,-0.64453 0.008,-0.22655 0.0156,-0.44921 0.0234,-0.66797 0.0156,-0.22655 0.0273,-0.43749 0.0351,-0.63281 0.0156,-0.20312 0.0312,-0.3828 0.0469,-0.53907 l -4.67578,7.13672 4.55859,0 0,-4.65234" />
      <path
         inkscape:connector-curvature="0"
         id="path3804"
         style="font-size:24px;font-weight:bold;fill:#110b02;font-family:Liberation Serif;-inkscape-font-specification:Liberation Serif"
         d="m 538.25,927.34482 c -0.27344,0 -0.52735,-0.0508 -0.76172,-0.15234 -0.23438,-0.10157 -0.44141,-0.23829 -0.62109,-0.41016 -0.17188,-0.17969 -0.3086,-0.38672 -0.41016,-0.62109 -0.10156,-0.23438 -0.15234,-0.48828 -0.15234,-0.76172 0,-0.26563 0.0508,-0.51563 0.15234,-0.75 0.10156,-0.24219 0.23828,-0.44922 0.41016,-0.6211 0.17968,-0.17968 0.38671,-0.32031 0.62109,-0.42187 0.23437,-0.10156 0.48828,-0.15234 0.76172,-0.15235 0.26562,10e-6 0.51562,0.0508 0.75,0.15235 0.24218,0.10156 0.44921,0.24219 0.62109,0.42187 0.17969,0.17188 0.32031,0.37891 0.42188,0.6211 0.10156,0.23437 0.15234,0.48437 0.15234,0.75 0,0.27344 -0.0508,0.52734 -0.15234,0.76172 -0.10157,0.23437 -0.24219,0.4414 -0.42188,0.62109 -0.17188,0.17187 -0.37891,0.30859 -0.62109,0.41016 -0.23438,0.10156 -0.48438,0.15234 -0.75,0.15234" />
    </g>
    <g
       id="flowRoot4115"
       style="font-size:12px;font-style:normal;font-variant:normal;font-weight:normal;font-stretch:normal;text-align:start;line-height:125%;letter-spacing:0px;word-spacing:0px;writing-mode:lr-tb;text-anchor:start;fill:#110b02;fill-opacity:1;stroke:none;font-family:Liberation Serif;-inkscape-font-specification:Liberation Serif"
       transform="matrix(4.4462206,0,0,4.6006172,-2274.6032,-3650.0784)">
      <path
         inkscape:connector-curvature="0"
         id="path3807"
         style="font-size:24px;font-weight:bold;fill:#110b02;font-family:Liberation Serif;-inkscape-font-specification:Liberation Serif"
         d="m 536.07812,985.87341 c -10e-6,0.8125 -0.10547,1.53516 -0.3164,2.16797 -0.21095,0.63281 -0.52736,1.16797 -0.94922,1.60547 -0.41407,0.4375 -0.92579,0.76953 -1.53516,0.99609 -0.60938,0.22656 -1.3125,0.33984 -2.10937,0.33984 -0.87501,0 -1.66016,-0.16797 -2.35547,-0.5039 -0.6875,-0.33594 -1.26953,-0.83594 -1.74609,-1.5 -0.47657,-0.67188 -0.83985,-1.50391 -1.08985,-2.4961 -0.25,-0.99999 -0.375,-2.16405 -0.375,-3.49218 0,-1.42187 0.16406,-2.64453 0.49219,-3.66797 0.33594,-1.02343 0.78125,-1.86718 1.33594,-2.53125 0.55468,-0.66405 1.1914,-1.15233 1.91015,-1.46485 0.72656,-0.31248 1.48047,-0.46873 2.26172,-0.46875 0.60937,2e-5 1.22265,0.0469 1.83985,0.14063 0.62499,0.0938 1.18749,0.21486 1.6875,0.36328 l 0,3.57422 -1.01954,0 -0.5039,-2.27344 c -0.25001,-0.18749 -0.52735,-0.33592 -0.83203,-0.44531 -0.29689,-0.10936 -0.60938,-0.16405 -0.9375,-0.16406 -0.35938,10e-6 -0.69923,0.1172 -1.01953,0.35156 -0.31251,0.23439 -0.58985,0.58595 -0.83204,1.05469 -0.24219,0.46876 -0.44531,1.06251 -0.60937,1.78125 -0.15625,0.71094 -0.25782,1.54688 -0.30469,2.50781 0.39844,-0.17187 0.80078,-0.30468 1.20703,-0.39844 0.41406,-0.10155 0.85547,-0.15233 1.32422,-0.15234 0.67968,10e-6 1.29296,0.0977 1.83985,0.29297 0.55467,0.1875 1.02733,0.47657 1.41796,0.86718 0.39062,0.38282 0.6914,0.8672 0.90235,1.45313 0.21093,0.58594 0.31639,1.27344 0.3164,2.0625 m -4.95703,3.92578 c 0.57031,0 0.96484,-0.30859 1.1836,-0.92578 0.21874,-0.61719 0.32811,-1.54297 0.32812,-2.77735 -10e-6,-0.66405 -0.0508,-1.21483 -0.15234,-1.65234 -0.10157,-0.44531 -0.23829,-0.80077 -0.41016,-1.06641 -0.16407,-0.26561 -0.35547,-0.44921 -0.57422,-0.55078 -0.21875,-0.10936 -0.44532,-0.16405 -0.67968,-0.16406 -0.35938,10e-6 -0.67188,0.0235 -0.9375,0.0703 -0.26563,0.0469 -0.54298,0.11329 -0.83204,0.19922 l 0,0.0586 c 0,1.09375 0.0391,2.0625 0.11719,2.90625 0.0781,0.84375 0.19922,1.55469 0.36328,2.13281 0.17187,0.57812 0.38672,1.01953 0.64453,1.32422 0.26562,0.29687 0.58203,0.44531 0.94922,0.44531" />
      <path
         inkscape:connector-curvature="0"
         id="path3809"
         style="font-size:24px;font-weight:bold;fill:#110b02;font-family:Liberation Serif;-inkscape-font-specification:Liberation Serif"
         d="m 539.78125,991.08825 c -0.27344,0 -0.52735,-0.0508 -0.76172,-0.15234 -0.23438,-0.10156 -0.44141,-0.23828 -0.62109,-0.41016 -0.17188,-0.17969 -0.3086,-0.38672 -0.41016,-0.62109 -0.10156,-0.23438 -0.15234,-0.48828 -0.15234,-0.76172 0,-0.26562 0.0508,-0.51562 0.15234,-0.75 0.10156,-0.24219 0.23828,-0.44922 0.41016,-0.62109 0.17968,-0.17969 0.38671,-0.32031 0.62109,-0.42188 0.23437,-0.10156 0.48828,-0.15234 0.76172,-0.15234 0.26562,0 0.51562,0.0508 0.75,0.15234 0.24218,0.10157 0.44921,0.24219 0.62109,0.42188 0.17969,0.17187 0.32031,0.3789 0.42188,0.62109 0.10156,0.23438 0.15234,0.48438 0.15234,0.75 0,0.27344 -0.0508,0.52734 -0.15234,0.76172 -0.10157,0.23437 -0.24219,0.4414 -0.42188,0.62109 -0.17188,0.17188 -0.37891,0.3086 -0.62109,0.41016 -0.23438,0.10156 -0.48438,0.15234 -0.75,0.15234" />
    </g>
    <g
       id="flowRoot3013"
       style="font-size:48px;font-style:normal;font-weight:bold;line-height:125%;letter-spacing:0px;word-spacing:0px;fill:#110b02;fill-opacity:1;stroke:none;font-family:Sans;-inkscape-font-specification:Liberation Serif Bold"
       transform="matrix(2.2361637,0,0,2.69065,-81.1329,-1270.9772)" />
  </g>
</svg>
