<?xml version="1.0" encoding="UTF-8" standalone="no"?>
<!-- Created with Inkscape (http://www.inkscape.org/) -->

<svg
   xmlns:dc="http://purl.org/dc/elements/1.1/"
   xmlns:cc="http://creativecommons.org/ns#"
   xmlns:rdf="http://www.w3.org/1999/02/22-rdf-syntax-ns#"
   xmlns:svg="http://www.w3.org/2000/svg"
   xmlns="http://www.w3.org/2000/svg"
   xmlns:sodipodi="http://sodipodi.sourceforge.net/DTD/sodipodi-0.dtd"
   xmlns:inkscape="http://www.inkscape.org/namespaces/inkscape"
   width="739.71875"
   height="734.0022"
   id="svg3202"
   version="1.1"
   inkscape:version="0.48.4 r9939"
   sodipodi:docname="tab_width.svg">
  <defs
     id="defs3204" />
  <sodipodi:namedview
     id="base"
     pagecolor="#ffffff"
     bordercolor="#666666"
     borderopacity="1.0"
     inkscape:pageopacity="0.0"
     inkscape:pageshadow="2"
     inkscape:zoom="0.35"
     inkscape:cx="-612.27676"
     inkscape:cy="217.01282"
     inkscape:document-units="px"
     inkscape:current-layer="layer1"
     showgrid="false"
     inkscape:window-width="1440"
     inkscape:window-height="824"
     inkscape:window-x="0"
     inkscape:window-y="24"
     inkscape:window-maximized="1"
     fit-margin-top="175"
     fit-margin-left="5"
     fit-margin-right="5"
     fit-margin-bottom="175" />
  <metadata
     id="metadata3207">
    <rdf:RDF>
      <cc:Work
         rdf:about="">
        <dc:format>image/svg+xml</dc:format>
        <dc:type
           rdf:resource="http://purl.org/dc/dcmitype/StillImage" />
        <dc:title />
      </cc:Work>
    </rdf:RDF>
  </metadata>
  <g
     inkscape:label="Layer 1"
     inkscape:groupmode="layer"
     id="layer1"
     transform="translate(-1.5624814,-15.372802)">
    <rect
       style="fill:#ffffff;fill-opacity:1;stroke:#ffffff;stroke-width:4;stroke-linecap:round;stroke-linejoin:round;stroke-miterlimit:4;stroke-opacity:1;stroke-dasharray:none"
       id="rect2986"
       width="725.71429"
       height="380"
       x="8.5714283"
       y="192.36218" />
    <path
       inkscape:connector-curvature="0"
       id="path3757"
       style="font-size:32px;font-style:normal;font-variant:normal;font-weight:bold;font-stretch:normal;text-align:start;line-height:125%;letter-spacing:0px;word-spacing:0px;writing-mode:lr-tb;text-anchor:start;fill:#110b02;fill-opacity:1;stroke:#110b02;stroke-width:1.56334949;stroke-miterlimit:4;stroke-opacity:1;font-family:Georgia;-inkscape-font-specification:Georgia Bold"
       d="m 144.38222,327.0194 -6.90089,0 c -1.85226,-6.42675 -4.83962,-13.31267 -8.96216,-20.65777 -4.06294,-7.34485 -7.82704,-11.29984 -11.29231,-11.86498 -1.91197,-0.28238 -4.27201,-0.52951 -7.08008,-0.74156 -2.80824,-0.21174 -5.22799,-0.31764 -7.25937,-0.31778 l -4.21219,0 0,117.90819 c -5.7e-5,2.54252 0.388313,4.80251 1.165052,6.77999 0.776678,1.90688 2.300218,3.42531 4.570728,4.55528 1.37412,0.63528 3.49516,1.30664 6.3631,2.01277 2.9276,0.63529 5.40712,1.09477 7.43862,1.37722 l 0,8.26311 -70.890685,0 0,-8.26311 c 1.732665,-0.21153 4.152476,-0.49426 7.259376,-0.8475 3.166609,-0.42375 5.317527,-0.91807 6.452752,-1.48312 2.330104,-1.12995 3.883582,-2.6484 4.660322,-4.55528 0.776682,-1.90685 1.165051,-4.16684 1.165051,-6.77999 l 0,-118.96756 -4.212184,0 c -2.031442,1.5e-4 -4.451253,0.10611 -7.259376,0.31778 -2.808123,0.21201 -5.168167,0.45921 -7.080075,0.74156 -3.465386,0.56511 -7.259375,4.52013 -11.381967,11.86498 -4.062825,7.3451 -7.020365,14.23102 -8.872506,20.65777 l -6.900889,0 0,-43.01054 123.229681,0 0,43.01054" />
    <path
       inkscape:connector-curvature="0"
       id="path3759"
       style="font-size:32px;font-style:normal;font-variant:normal;font-weight:bold;font-stretch:normal;text-align:start;line-height:125%;letter-spacing:0px;word-spacing:0px;writing-mode:lr-tb;text-anchor:start;fill:#110b02;fill-opacity:1;stroke:#110b02;stroke-width:1.56334949;stroke-miterlimit:4;stroke-opacity:1;font-family:Georgia;-inkscape-font-specification:Georgia Bold"
       d="m 274.96081,466.32693 -129.95127,0 0,-12.92435 129.95127,0 0,12.92435" />
    <path
       inkscape:connector-curvature="0"
       id="path3761"
       style="font-size:32px;font-style:normal;font-variant:normal;font-weight:bold;font-stretch:normal;text-align:start;line-height:125%;letter-spacing:0px;word-spacing:0px;writing-mode:lr-tb;text-anchor:start;fill:#e3dd00;fill-opacity:1;stroke:#110b02;stroke-width:1.56334949;stroke-miterlimit:4;stroke-opacity:1;font-family:Georgia;-inkscape-font-specification:Georgia Bold"
       d="m 404.01586,466.32693 -129.95127,0 0,-12.92435 129.95127,0 0,12.92435" />
    <path
       inkscape:connector-curvature="0"
       id="path3763"
       style="font-size:32px;font-style:normal;font-variant:normal;font-weight:bold;font-stretch:normal;text-align:start;line-height:125%;letter-spacing:0px;word-spacing:0px;writing-mode:lr-tb;text-anchor:start;fill:#110b02;fill-opacity:1;stroke:#110b02;stroke-width:1.56334949;stroke-miterlimit:4;stroke-opacity:1;font-family:Georgia;-inkscape-font-specification:Georgia Bold"
       d="m 533.07091,466.32693 -129.95127,0 0,-12.92435 129.95127,0 0,12.92435" />
    <path
       inkscape:connector-curvature="0"
       id="path3765"
       style="font-size:32px;font-style:normal;font-variant:normal;font-weight:bold;font-stretch:normal;text-align:start;line-height:125%;letter-spacing:0px;word-spacing:0px;writing-mode:lr-tb;text-anchor:start;fill:#e3dd00;fill-opacity:1;stroke:#110b02;stroke-width:1.56334949;stroke-miterlimit:4;stroke-opacity:1;font-family:Georgia;-inkscape-font-specification:Georgia Bold"
       d="m 662.12596,466.32693 -129.95126,0 0,-12.92435 129.95126,0 0,12.92435" />
    <path
       inkscape:connector-curvature="0"
       id="path3767"
       style="font-size:32px;font-style:normal;font-variant:normal;font-weight:bold;font-stretch:normal;text-align:start;line-height:125%;letter-spacing:0px;word-spacing:0px;writing-mode:lr-tb;text-anchor:start;fill:#a6a6a6;fill-opacity:1;stroke:#110b02;stroke-width:1.56334949;stroke-miterlimit:4;stroke-opacity:1;font-family:Georgia;-inkscape-font-specification:Georgia Bold"
       d="m 704.96507,479.25127 -15.32526,0 0,-206.25988 15.32526,0 0,206.25988" />
  </g>
</svg>
