<?xml version="1.0" encoding="UTF-8" standalone="no"?>
<!-- Created with Inkscape (http://www.inkscape.org/) -->

<svg
   xmlns:dc="http://purl.org/dc/elements/1.1/"
   xmlns:cc="http://creativecommons.org/ns#"
   xmlns:rdf="http://www.w3.org/1999/02/22-rdf-syntax-ns#"
   xmlns:svg="http://www.w3.org/2000/svg"
   xmlns="http://www.w3.org/2000/svg"
   xmlns:xlink="http://www.w3.org/1999/xlink"
   xmlns:sodipodi="http://sodipodi.sourceforge.net/DTD/sodipodi-0.dtd"
   xmlns:inkscape="http://www.inkscape.org/namespaces/inkscape"
   width="708.42175"
   height="698.90063"
   id="svg3554"
   version="1.1"
   inkscape:version="0.48.4 r9939"
   sodipodi:docname="zoom_orig.svg">
  <defs
     id="defs3556">
    <linearGradient
       id="linearGradient3765">
      <stop
         style="stop-color:#110b02;stop-opacity:1;"
         offset="0"
         id="stop3767" />
      <stop
         style="stop-color:#dddddd;stop-opacity:1;"
         offset="1"
         id="stop3769" />
    </linearGradient>
    <linearGradient
       inkscape:collect="always"
       xlink:href="#linearGradient3765"
       id="linearGradient3771"
       x1="520.60468"
       y1="699.55371"
       x2="654.742"
       y2="562.36139"
       gradientUnits="userSpaceOnUse" />
  </defs>
  <sodipodi:namedview
     id="base"
     pagecolor="#ffffff"
     bordercolor="#666666"
     borderopacity="1.0"
     inkscape:pageopacity="0.0"
     inkscape:pageshadow="2"
     inkscape:zoom="0.59105127"
     inkscape:cx="363.0315"
     inkscape:cy="298.47516"
     inkscape:document-units="px"
     inkscape:current-layer="layer1"
     showgrid="false"
     inkscape:window-width="1440"
     inkscape:window-height="824"
     inkscape:window-x="0"
     inkscape:window-y="24"
     inkscape:window-maximized="1"
     fit-margin-top="40"
     fit-margin-left="5"
     fit-margin-right="5"
     fit-margin-bottom="40" />
  <metadata
     id="metadata3559">
    <rdf:RDF>
      <cc:Work
         rdf:about="">
        <dc:format>image/svg+xml</dc:format>
        <dc:type
           rdf:resource="http://purl.org/dc/dcmitype/StillImage" />
        <dc:title />
      </cc:Work>
    </rdf:RDF>
  </metadata>
  <g
     inkscape:label="Layer 1"
     inkscape:groupmode="layer"
     id="layer1"
     transform="translate(-9.0157432,-125.75559)">
    <path
       sodipodi:type="arc"
       style="fill:#110b02;fill-opacity:1;stroke:#110b02;stroke-width:0.55081457;stroke-linejoin:round;stroke-miterlimit:4;stroke-opacity:1;stroke-dasharray:none"
       id="path3893-4"
       sodipodi:cx="610.41742"
       sodipodi:cy="383.56241"
       sodipodi:rx="69.393951"
       sodipodi:ry="69.18618"
       d="m 679.81137,383.56241 c 0,38.21047 -31.06873,69.18618 -69.39395,69.18618 -38.32522,0 -69.39395,-30.97571 -69.39395,-69.18618 0,-38.21047 31.06873,-69.18618 69.39395,-69.18618 38.32522,0 69.39395,30.97571 69.39395,69.18618 z"
       transform="matrix(3.6587483,0,0,3.6034341,-1964.4524,-966.06054)" />
    <path
       style="fill:url(#linearGradient3771);fill-opacity:1;stroke:#110b02;stroke-width:3;stroke-linecap:butt;stroke-linejoin:miter;stroke-miterlimit:4;stroke-opacity:1;stroke-dasharray:none"
       d="m 435.61386,607.25409 c 0,0 102.78324,111.74283 151.40879,140.70311 28.27709,16.8412 94.82165,35.17577 94.82165,35.17577 0,0 16.20726,-2.13754 21.41135,-7.64689 6.20317,-6.56703 7.6469,-25.99947 7.6469,-25.99947 0,0 -24.5842,-35.84947 -45.88145,-56.58717 -42.35893,-41.24605 -186.58456,-134.58555 -186.58456,-134.58555 0,0 -14.00903,17.55839 -21.41136,25.99948 -6.89665,7.86445 -21.41132,22.94072 -21.41132,22.94072 z"
       id="path3895-4"
       inkscape:connector-curvature="0"
       sodipodi:nodetypes="cscscscsc" />
    <path
       sodipodi:type="arc"
       style="fill:#ffffff;fill-opacity:1;stroke:#110b02;stroke-width:0.48140574;stroke-linejoin:round;stroke-miterlimit:4;stroke-opacity:1;stroke-dasharray:none"
       id="path3891-4"
       sodipodi:cx="609.17084"
       sodipodi:cy="378.99155"
       sodipodi:rx="51.110512"
       sodipodi:ry="55.058071"
       d="m 660.28135,378.99155 c 0,30.40773 -22.88296,55.05807 -51.11051,55.05807 -28.22756,0 -51.11051,-24.65034 -51.11051,-55.05807 0,-30.40774 22.88295,-55.05807 51.11051,-55.05807 28.22755,0 51.11051,24.65033 51.11051,55.05807 z"
       transform="matrix(4.4102582,0,0,3.9135732,-2416.9266,-1062.5416)" />
    <path
       style="fill:#6193cf;fill-opacity:1;stroke:none"
       d="m 333.14528,602.66594 c 0,0 -132.67335,13.36129 -185.05517,-19.88195 C 77.816028,538.18576 56.327198,428.31643 56.327198,428.31643 c 0,0 67.637342,99.93653 120.821162,119.29179 63.56766,23.13425 155.99692,55.05772 155.99692,55.05772 z"
       id="path3897-5"
       inkscape:connector-curvature="0"
       sodipodi:nodetypes="cscsc" />
    <g
       transform="matrix(6.034165,0,0,7.0522734,-1757.4841,-3987.8147)"
       style="font-size:12px;font-style:normal;font-variant:normal;font-weight:normal;font-stretch:normal;text-align:start;line-height:125%;letter-spacing:0px;word-spacing:0px;writing-mode:lr-tb;text-anchor:start;fill:#110b02;fill-opacity:1;stroke:#110b02;stroke-width:0.30658919;stroke-miterlimit:4;stroke-opacity:1;font-family:Sans;-inkscape-font-specification:Sans"
       id="flowRoot3968">
      <path
         d="m 319.35425,609.34342 -11.088,4.796 0,1.144 c 0.396,-0.132 0.748,-0.264 0.88,-0.352 1.188,-0.44 2.288,-0.748 2.86,-0.748 1.1,0 1.584,0.968 1.584,3.036 l 0,16.94 c 0,3.60799 -0.88,4.356 -5.236,4.4 l 0,1.056 16.5,0 0,-1.056 c -4.004,-0.088 -4.752,-0.74801 -4.752,-4.136 l 0,-25.08 -0.748,0"
         style="font-size:44px;font-weight:bold;fill:#110b02;stroke:#110b02;font-family:Nimbus Roman No9 L;-inkscape-font-specification:Nimbus Roman No9 L Bold"
         id="path2991"
         inkscape:connector-curvature="0" />
      <path
         d="m 334.71025,632.75142 c -2.024,0 -3.696,1.716 -3.696,3.696 0,2.11199 1.584,3.74 3.652,3.74 2.112,0 3.784,-1.62801 3.784,-3.652 0,-2.068 -1.672,-3.784 -3.74,-3.784 m 0,-13.904 c -2.024,0 -3.696,1.672 -3.696,3.652 0,2.15599 1.584,3.784 3.696,3.784 2.068,0 3.74,-1.67201 3.74,-3.696 0,-2.068 -1.672,-3.74 -3.74,-3.74"
         style="font-size:44px;font-weight:bold;fill:#110b02;stroke:#110b02;font-family:Nimbus Roman No9 L;-inkscape-font-specification:Nimbus Roman No9 L Bold"
         id="path2993"
         inkscape:connector-curvature="0" />
      <path
         d="m 356.04956,609.34342 -11.088,4.796 0,1.144 c 0.396,-0.132 0.748,-0.264 0.88,-0.352 1.188,-0.44 2.288,-0.748 2.86,-0.748 1.1,0 1.584,0.968 1.584,3.036 l 0,16.94 c 0,3.60799 -0.88,4.356 -5.236,4.4 l 0,1.056 16.5,0 0,-1.056 c -4.00399,-0.088 -4.752,-0.74801 -4.752,-4.136 l 0,-25.08 -0.748,0"
         style="font-size:44px;font-weight:bold;fill:#110b02;stroke:#110b02;font-family:Nimbus Roman No9 L;-inkscape-font-specification:Nimbus Roman No9 L Bold"
         id="path2995"
         inkscape:connector-curvature="0" />
    </g>
  </g>
</svg>
