<?xml version="1.0" encoding="UTF-8" standalone="no"?>
<!-- Created with Inkscape (http://www.inkscape.org/) -->

<svg
   xmlns:dc="http://purl.org/dc/elements/1.1/"
   xmlns:cc="http://creativecommons.org/ns#"
   xmlns:rdf="http://www.w3.org/1999/02/22-rdf-syntax-ns#"
   xmlns:svg="http://www.w3.org/2000/svg"
   xmlns="http://www.w3.org/2000/svg"
   xmlns:xlink="http://www.w3.org/1999/xlink"
   xmlns:sodipodi="http://sodipodi.sourceforge.net/DTD/sodipodi-0.dtd"
   xmlns:inkscape="http://www.inkscape.org/namespaces/inkscape"
   width="704.9375"
   height="717.85693"
   id="svg3445"
   version="1.1"
   inkscape:version="0.48.4 r9939"
   sodipodi:docname="add_forecast.svg">
  <defs
     id="defs3447">
    <linearGradient
       inkscape:collect="always"
       id="linearGradient3788">
      <stop
         style="stop-color:#110b02;stop-opacity:1;"
         offset="0"
         id="stop3790" />
      <stop
         style="stop-color:#110b02;stop-opacity:0;"
         offset="1"
         id="stop3792" />
    </linearGradient>
    <linearGradient
       id="linearGradient3780">
      <stop
         style="stop-color:#110b02;stop-opacity:1;"
         offset="0"
         id="stop3782" />
      <stop
         style="stop-color:#3b3b3b;stop-opacity:1;"
         offset="1"
         id="stop3784" />
    </linearGradient>
    <linearGradient
       id="linearGradient3772">
      <stop
         style="stop-color:#ffffff;stop-opacity:1;"
         offset="0"
         id="stop3774" />
      <stop
         style="stop-color:#3b3b3b;stop-opacity:1;"
         offset="1"
         id="stop3776" />
    </linearGradient>
    <radialGradient
       inkscape:collect="always"
       xlink:href="#linearGradient3772"
       id="radialGradient3778"
       cx="602.17847"
       cy="384.18292"
       fx="602.17847"
       fy="384.18292"
       r="84.903091"
       gradientTransform="matrix(1.1043576,0.14326663,-0.14756996,1.1377058,-6.1480366,-139.39274)"
       gradientUnits="userSpaceOnUse" />
    <linearGradient
       inkscape:collect="always"
       xlink:href="#linearGradient3780"
       id="linearGradient3786"
       x1="20.974194"
       y1="774.28583"
       x2="1081.6008"
       y2="771.42871"
       gradientUnits="userSpaceOnUse" />
    <linearGradient
       inkscape:collect="always"
       xlink:href="#linearGradient3788"
       id="linearGradient3794"
       x1="20.974194"
       y1="774.28583"
       x2="1081.6008"
       y2="771.42871"
       gradientUnits="userSpaceOnUse" />
    <radialGradient
       inkscape:collect="always"
       xlink:href="#linearGradient3772"
       id="radialGradient3812"
       gradientUnits="userSpaceOnUse"
       gradientTransform="matrix(1.1043576,0.14326663,-0.14756996,1.1377058,-6.1480366,-139.39274)"
       cx="602.17847"
       cy="384.18292"
       fx="602.17847"
       fy="384.18292"
       r="84.903091" />
  </defs>
  <sodipodi:namedview
     id="base"
     pagecolor="#ffffff"
     bordercolor="#666666"
     borderopacity="1.0"
     inkscape:pageopacity="0.0"
     inkscape:pageshadow="2"
     inkscape:zoom="0.35"
     inkscape:cx="-140.46297"
     inkscape:cy="353.80823"
     inkscape:document-units="px"
     inkscape:current-layer="layer1"
     showgrid="false"
     inkscape:window-width="1440"
     inkscape:window-height="851"
     inkscape:window-x="0"
     inkscape:window-y="25"
     inkscape:window-maximized="1"
     fit-margin-top="2"
     fit-margin-left="2"
     fit-margin-right="2"
     fit-margin-bottom="2" />
  <metadata
     id="metadata3450">
    <rdf:RDF>
      <cc:Work
         rdf:about="">
        <dc:format>image/svg+xml</dc:format>
        <dc:type
           rdf:resource="http://purl.org/dc/dcmitype/StillImage" />
        <dc:title />
      </cc:Work>
    </rdf:RDF>
  </metadata>
  <g
     inkscape:label="Layer 1"
     inkscape:groupmode="layer"
     id="layer1"
     transform="translate(-18.84375,-168.31345)">
    <path
       style="fill:url(#linearGradient3786);fill-opacity:1;stroke:url(#linearGradient3794);stroke-width:2;stroke-linecap:butt;stroke-linejoin:miter;stroke-miterlimit:4;stroke-opacity:1;stroke-dasharray:none"
       d="m 611.72387,668.41062 45.36538,3.02434 18.14613,42.341 24.19488,3.02438 21.1705,39.31663 c 0,0 -92.58382,123.92746 -353.84979,127.02301 C 142.85848,885.79273 21.974193,771.23876 21.974193,771.23876 l 12.09746,-45.36534 33.267921,-6.04875 21.170502,-51.41405 36.292254,-3.02437 z"
       id="path3875"
       inkscape:connector-curvature="0"
       sodipodi:nodetypes="cccccscccccc" />
    <path
       transform="matrix(3.8427574,0,0,3.8424596,-1968.1166,-975.8202)"
       style="fill:url(#radialGradient3812);fill-opacity:1;stroke:#110b02;stroke-width:1.0409596;stroke-linejoin:round;stroke-miterlimit:4;stroke-opacity:1"
       d="m 694.99997,379.50504 c 0,44.57727 -37.8959,80.71428 -84.64285,80.71428 -46.74696,0 -84.64286,-36.13701 -84.64286,-80.71428 0,-44.57727 37.8959,-80.71429 84.64286,-80.71429 46.74695,0 84.64285,36.13702 84.64285,80.71429 z"
       id="path3877"
       inkscape:connector-curvature="0" />
    <g
       transform="matrix(9.1697062,-2.0887239,1.8325552,10.451519,-5554.5584,-2167.499)"
       style="font-size:12px;font-style:normal;font-variant:normal;font-weight:normal;font-stretch:normal;text-align:start;line-height:125%;letter-spacing:0px;word-spacing:0px;writing-mode:lr-tb;text-anchor:start;fill:#000080;fill-opacity:1;stroke:#000080;stroke-width:0.20033579;stroke-miterlimit:4;stroke-opacity:1;font-family:Sans;-inkscape-font-specification:Sans"
       id="flowRoot3879">
      <path
         d="m 556.19325,355.10736 -2.052,0 c -0.342,-1.53 -0.702,-3.528 -0.702,-3.924 0,-0.684 0.414,-1.134 1.008,-1.134 0.504,0 0.792,0.27 0.792,0.774 l 0,0.054 -0.036,0.792 c -0.036,0.684 0.432,1.17 1.116,1.17 0.756,0 1.224,-0.504 1.224,-1.296 0,-1.242 -1.044,-2.034 -2.718,-2.034 -0.9,0 -1.692,0.234 -2.268,0.648 -0.864,0.63 -1.386,1.71 -1.386,2.862 0,0.54 0.054,0.99 0.252,2.088 l -1.44,0 0,1.17 1.764,0 c 0.63,1.764 0.702,2.052 0.738,2.718 -0.36,-0.09 -0.594,-0.126 -0.918,-0.126 -1.242,0 -1.908,0.576 -1.908,1.656 0,0.972 0.576,1.53 1.584,1.53 0.81,0 1.422,-0.342 2.016,-1.116 0.972,0.882 1.476,1.134 2.25,1.134 0.72,0 1.296,-0.306 1.674,-0.864 0.378,-0.558 0.558,-1.26 0.684,-2.682 l -0.414,0 c -0.27,0.972 -0.684,1.278 -1.8,1.278 -0.486,0 -0.972,-0.108 -1.746,-0.396 0.288,-0.828 0.36,-1.296 0.36,-2.16 0,-0.378 -0.018,-0.63 -0.036,-0.972 l 1.962,0 0,-1.17 m -3.654,5.166 c -0.252,0.882 -0.63,1.242 -1.296,1.242 -0.594,0 -1.008,-0.36 -1.008,-0.882 0,-0.576 0.396,-0.936 1.008,-0.936 0.486,0 0.81,0.144 1.296,0.576"
         style="font-size:18px;font-weight:bold;line-height:125%;fill:#000080;stroke:#000080;font-family:Nimbus Roman No9 L;-inkscape-font-specification:Nimbus Roman No9 L Bold"
         id="path3809"
         inkscape:connector-curvature="0" />
    </g>
    <g
       transform="matrix(7.7351655,0,0,9.3046314,-4250.6803,-2735.4639)"
       style="font-size:12px;font-style:normal;font-variant:normal;font-weight:normal;font-stretch:normal;text-align:start;line-height:125%;letter-spacing:0px;word-spacing:0px;writing-mode:lr-tb;text-anchor:start;fill:#110b02;fill-opacity:1;stroke:#110b02;stroke-width:0.2357467;stroke-miterlimit:4;stroke-opacity:1;font-family:Sans;-inkscape-font-specification:Sans"
       id="flowRoot3887">
      <path
         d="m 604.0918,331.66023 -3.99903,0 0,3.65625 -3.34863,0 0,-3.65625 -3.99023,0 0,-1.70507 3.99023,0 0,-0.58008 -0.43066,-0.75586 -3.55957,0 0,-1.6875 2.5664,0 -2.94433,-4.73731 3.50683,0 2.54004,4.05176 2.53125,-4.05176 3.51563,0 -2.95313,4.73731 2.5752,0 0,1.6875 -3.56836,0 -0.43067,0.75586 0,0.58008 3.99903,0 0,1.70507"
         style="font-size:18px;font-weight:bold;line-height:125%;fill:#110b02;stroke:#110b02;font-family:Sans;-inkscape-font-specification:Sans Bold"
         id="path3806"
         inkscape:connector-curvature="0" />
    </g>
    <g
       transform="matrix(9.2652655,1.4402077,-1.2635754,10.560436,-4109.2692,-4088.3492)"
       style="font-size:12px;font-style:normal;font-variant:normal;font-weight:normal;font-stretch:normal;text-align:start;line-height:125%;letter-spacing:0px;word-spacing:0px;writing-mode:lr-tb;text-anchor:start;fill:#110b02;fill-opacity:1;stroke:#110b02;stroke-width:0.20033579;stroke-miterlimit:4;stroke-opacity:1;font-family:Sans;-inkscape-font-specification:Sans"
       id="flowRoot3879-4">
      <path
         d="m 556.19325,355.10736 -2.052,0 c -0.342,-1.53 -0.702,-3.528 -0.702,-3.924 0,-0.684 0.414,-1.134 1.008,-1.134 0.504,0 0.792,0.27 0.792,0.774 l 0,0.054 -0.036,0.792 c -0.036,0.684 0.432,1.17 1.116,1.17 0.756,0 1.224,-0.504 1.224,-1.296 0,-1.242 -1.044,-2.034 -2.718,-2.034 -0.9,0 -1.692,0.234 -2.268,0.648 -0.864,0.63 -1.386,1.71 -1.386,2.862 0,0.54 0.054,0.99 0.252,2.088 l -1.44,0 0,1.17 1.764,0 c 0.63,1.764 0.702,2.052 0.738,2.718 -0.36,-0.09 -0.594,-0.126 -0.918,-0.126 -1.242,0 -1.908,0.576 -1.908,1.656 0,0.972 0.576,1.53 1.584,1.53 0.81,0 1.422,-0.342 2.016,-1.116 0.972,0.882 1.476,1.134 2.25,1.134 0.72,0 1.296,-0.306 1.674,-0.864 0.378,-0.558 0.558,-1.26 0.684,-2.682 l -0.414,0 c -0.27,0.972 -0.684,1.278 -1.8,1.278 -0.486,0 -0.972,-0.108 -1.746,-0.396 0.288,-0.828 0.36,-1.296 0.36,-2.16 0,-0.378 -0.018,-0.63 -0.036,-0.972 l 1.962,0 0,-1.17 m -3.654,5.166 c -0.252,0.882 -0.63,1.242 -1.296,1.242 -0.594,0 -1.008,-0.36 -1.008,-0.882 0,-0.576 0.396,-0.936 1.008,-0.936 0.486,0 0.81,0.144 1.296,0.576"
         style="font-size:18px;font-weight:bold;line-height:125%;fill:#110b02;stroke:#110b02;font-family:Nimbus Roman No9 L;-inkscape-font-specification:Nimbus Roman No9 L Bold"
         id="path3803"
         inkscape:connector-curvature="0" />
    </g>
    <g
       transform="matrix(4.4952907,0,0,4.908143,-2484.8726,-1361.7453)"
       style="font-size:12px;font-style:normal;font-variant:normal;font-weight:normal;font-stretch:normal;text-align:start;line-height:125%;letter-spacing:0px;word-spacing:0px;writing-mode:lr-tb;text-anchor:start;fill:#110b02;fill-opacity:1;stroke:#110b02;stroke-width:0.42578709;stroke-miterlimit:4;stroke-opacity:1;font-family:Sans;-inkscape-font-specification:Sans"
       id="flowRoot3924">
      <path
         d="m 603.5575,397.1547 0,-5.64 c -1.88,-1.12 -3.24,-1.56 -6.36,-2.08 l 0,-3.04 -2.2,0 0,3.12 c -1.84,0.2 -2.72,0.44 -3.96,1.12 -2.2,1.28 -3.44,3.4 -3.44,5.92 0,3.55999 2.00001,5.92 7.36,8.6 l 0,10.04 c -2.96,-0.56 -4.56,-2.36001 -5.84,-6.68 l -0.84,-0.08 0,6.24 c 3.28,1.36 4.24,1.6 6.72,1.72 l 0,3.96 2.2,0 0,-3.96 c 3.28,-0.6 4.84,-1.28 6.12,-2.52 1.32,-1.28 2,-3.08001 2,-5.32 0,-1.92 -0.6,-3.64 -1.64,-4.8 -1.4,-1.6 -2.6,-2.40001 -6.48,-4.4 l 0,-8.6 c 2.84,0.64 4.36,2.4 5.52,6.4 l 0.84,0 m -6.36,9.24 c 3.2,1.79999 3.72,2.48 3.72,4.64 0,2.35999 -1.2,3.68 -3.72,4.16 l 0,-8.8 m -2.24,-8.16 c -2.4,-0.84 -3.56,-2.16001 -3.56,-4 0,-1.92 1.04,-2.96 3.56,-3.6 l 0,7.6"
         style="font-size:40px;font-weight:bold;line-height:125%;fill:#110b02;stroke:#110b02;font-family:Nimbus Roman No9 L;-inkscape-font-specification:Nimbus Roman No9 L Bold"
         id="path3800"
         inkscape:connector-curvature="0" />
    </g>
    <g
       transform="matrix(4.4114545,-0.98491631,0.86412258,5.0281217,-2427.1508,-1106.0113)"
       style="font-size:12px;font-style:normal;font-variant:normal;font-weight:normal;font-stretch:normal;text-align:start;line-height:125%;letter-spacing:0px;word-spacing:0px;writing-mode:lr-tb;text-anchor:start;fill:#000080;fill-opacity:1;stroke:#000080;stroke-width:0.41673523;stroke-miterlimit:4;stroke-opacity:1;font-family:Sans;-inkscape-font-specification:Sans"
       id="flowRoot3924-1">
      <path
         d="m 603.5575,397.1547 0,-5.64 c -1.88,-1.12 -3.24,-1.56 -6.36,-2.08 l 0,-3.04 -2.2,0 0,3.12 c -1.84,0.2 -2.72,0.44 -3.96,1.12 -2.2,1.28 -3.44,3.4 -3.44,5.92 0,3.55999 2.00001,5.92 7.36,8.6 l 0,10.04 c -2.96,-0.56 -4.56,-2.36001 -5.84,-6.68 l -0.84,-0.08 0,6.24 c 3.28,1.36 4.24,1.6 6.72,1.72 l 0,3.96 2.2,0 0,-3.96 c 3.28,-0.6 4.84,-1.28 6.12,-2.52 1.32,-1.28 2,-3.08001 2,-5.32 0,-1.92 -0.6,-3.64 -1.64,-4.8 -1.4,-1.6 -2.6,-2.40001 -6.48,-4.4 l 0,-8.6 c 2.84,0.64 4.36,2.4 5.52,6.4 l 0.84,0 m -6.36,9.24 c 3.2,1.79999 3.72,2.48 3.72,4.64 0,2.35999 -1.2,3.68 -3.72,4.16 l 0,-8.8 m -2.24,-8.16 c -2.4,-0.84 -3.56,-2.16001 -3.56,-4 0,-1.92 1.04,-2.96 3.56,-3.6 l 0,7.6"
         style="font-size:40px;font-weight:bold;line-height:125%;fill:#000080;stroke:#000080;font-family:Nimbus Roman No9 L;-inkscape-font-specification:Nimbus Roman No9 L Bold"
         id="path3797"
         inkscape:connector-curvature="0" />
    </g>
  </g>
</svg>
