<?xml version="1.0" encoding="UTF-8" standalone="no"?>
<!-- Created with Inkscape (http://www.inkscape.org/) -->

<svg
   xmlns:dc="http://purl.org/dc/elements/1.1/"
   xmlns:cc="http://creativecommons.org/ns#"
   xmlns:rdf="http://www.w3.org/1999/02/22-rdf-syntax-ns#"
   xmlns:svg="http://www.w3.org/2000/svg"
   xmlns="http://www.w3.org/2000/svg"
   xmlns:sodipodi="http://sodipodi.sourceforge.net/DTD/sodipodi-0.dtd"
   xmlns:inkscape="http://www.inkscape.org/namespaces/inkscape"
   width="691.875"
   height="682.599"
   id="svg3247"
   version="1.1"
   inkscape:version="0.48.4 r9939"
   sodipodi:docname="cash_flow.svg">
  <defs
     id="defs3249" />
  <sodipodi:namedview
     id="base"
     pagecolor="#ffffff"
     bordercolor="#666666"
     borderopacity="1.0"
     inkscape:pageopacity="0.0"
     inkscape:pageshadow="2"
     inkscape:zoom="0.60625516"
     inkscape:cx="365.14099"
     inkscape:cy="285.47516"
     inkscape:document-units="px"
     inkscape:current-layer="layer1"
     showgrid="false"
     inkscape:window-width="1440"
     inkscape:window-height="851"
     inkscape:window-x="0"
     inkscape:window-y="25"
     inkscape:window-maximized="1"
     fit-margin-top="8"
     fit-margin-left="2"
     fit-margin-right="2"
     fit-margin-bottom="8" />
  <metadata
     id="metadata3252">
    <rdf:RDF>
      <cc:Work
         rdf:about="">
        <dc:format>image/svg+xml</dc:format>
        <dc:type
           rdf:resource="http://purl.org/dc/dcmitype/StillImage" />
        <dc:title />
      </cc:Work>
    </rdf:RDF>
  </metadata>
  <g
     inkscape:label="Layer 1"
     inkscape:groupmode="layer"
     id="layer1"
     transform="translate(-6.90625,-129.05723)">
    <rect
       style="fill:#999999;fill-opacity:1;stroke:#110b02;stroke-width:1.94060981;stroke-linejoin:round;stroke-miterlimit:4;stroke-opacity:1;stroke-dasharray:none"
       id="rect3826"
       width="101.09723"
       height="231.39641"
       x="55.479744"
       y="554.80353" />
    <rect
       style="fill:#110b02;fill-opacity:1;stroke:#110b02;stroke-width:1.94060981;stroke-linejoin:round;stroke-miterlimit:4;stroke-opacity:1;stroke-dasharray:none"
       id="rect3828"
       width="82.434181"
       height="220.71088"
       x="195.82112"
       y="326.32324" />
    <rect
       style="fill:#999999;fill-opacity:1;stroke:#110b02;stroke-width:1.94060981;stroke-linejoin:round;stroke-miterlimit:4;stroke-opacity:1;stroke-dasharray:none"
       id="rect3830"
       width="77.146049"
       height="188.83107"
       x="320.78714"
       y="552.77264" />
    <rect
       style="fill:#999999;fill-opacity:1;stroke:#110b02;stroke-width:1.94060981;stroke-linejoin:round;stroke-miterlimit:4;stroke-opacity:1;stroke-dasharray:none"
       id="rect3832"
       width="82.46978"
       height="159.58563"
       x="435.12866"
       y="556.23157" />
    <rect
       style="fill:#110b02;fill-opacity:1;stroke:#110b02;stroke-width:1.94060981;stroke-linejoin:round;stroke-miterlimit:4;stroke-opacity:1;stroke-dasharray:none"
       id="rect3834"
       width="74.45668"
       height="234.00671"
       x="560.12714"
       y="311.60599" />
    <g
       transform="matrix(5.6570853,0,0,6.5068831,-2945.7647,-163.83927)"
       style="font-size:12px;font-style:normal;font-variant:normal;font-weight:normal;font-stretch:normal;text-align:start;line-height:125%;letter-spacing:0px;word-spacing:0px;writing-mode:lr-tb;text-anchor:start;fill:#145bd5;fill-opacity:1;stroke:#145bd5;stroke-width:0.52127218;stroke-miterlimit:4;stroke-opacity:1;font-family:Sans;-inkscape-font-specification:Sans"
       id="flowRoot3836">
      <path
         d="m 568.8585,62.263757 -0.768,0 c -0.928,2.303998 -1.312,2.496 -4.576,2.496 l -4.832,0 5.184,-4.928 c 2.528,-2.399997 3.648,-4.544002 3.648,-6.976 0,-3.423996 -2.464,-5.856 -5.92,-5.856 -1.6,0 -3.136,0.640001 -4.256,1.792 -1.248,1.247999 -1.888,2.336003 -2.784,4.736 l 0.896,0 c 0.992,-1.983998 2.176,-2.88 3.904,-2.88 1.408,0 2.464,0.608001 3.168,1.76 0.384,0.671999 0.64,1.568001 0.64,2.304 0,1.407999 -0.608,3.168002 -1.632,4.736 -1.632,2.495998 -2.752,3.840005 -7.424,8.832 l 0,0.736 13.312,0 1.44,-6.752"
         style="font-size:32px;font-weight:bold;line-height:125%;fill:#145bd5;stroke:#145bd5;font-family:Nimbus Roman No9 L;-inkscape-font-specification:Nimbus Roman No9 L Bold"
         id="path3761"
         inkscape:connector-curvature="0" />
      <path
         d="m 577.5625,46.999757 c -2.08,0 -4.192,1.408002 -5.504,3.712 -1.024,1.759998 -1.728,4.768003 -1.728,7.424 0,6.591994 3.008,11.296 7.264,11.296 4.128,0 7.2,-4.768006 7.2,-11.2 0,-6.399993 -3.104,-11.232 -7.232,-11.232 m 2.176,14.912 c 0,1.887998 -0.256,4.384001 -0.544,5.248 -0.352,0.927999 -0.864,1.376 -1.6,1.376 -1.6,0 -2.208,-1.888005 -2.208,-6.624 l 0,-7.328 c 0,-4.831995 0.608,-6.688 2.144,-6.688 1.568,0 2.208,1.984005 2.208,6.688 l 0,7.328"
         style="font-size:32px;font-weight:bold;line-height:125%;fill:#145bd5;stroke:#145bd5;font-family:Nimbus Roman No9 L;-inkscape-font-specification:Nimbus Roman No9 L Bold"
         id="path3763"
         inkscape:connector-curvature="0" />
      <path
         d="m 595.7065,46.999757 -8.064,3.488 0,0.832 c 0.288,-0.096 0.544,-0.192 0.64,-0.256 0.864,-0.32 1.664,-0.544 2.08,-0.544 0.8,0 1.152,0.704002 1.152,2.208 l 0,12.32 c 0,2.623997 -0.64,3.168 -3.808,3.2 l 0,0.768 12,0 0,-0.768 c -2.912,-0.064 -3.456,-0.544002 -3.456,-3.008 l 0,-18.24 -0.544,0"
         style="font-size:32px;font-weight:bold;line-height:125%;fill:#145bd5;stroke:#145bd5;font-family:Nimbus Roman No9 L;-inkscape-font-specification:Nimbus Roman No9 L Bold"
         id="path3765"
         inkscape:connector-curvature="0" />
      <path
         d="m 603.4185,52.279757 c 1.216,-1.951998 2.272,-2.688 3.936,-2.688 2.016,0 3.264,1.280002 3.264,3.296 0,2.111998 -1.12,3.232001 -4.16,4.192 l 0,0.544 c 2.656,0.927999 3.712,1.472001 4.864,2.56 0.992,0.927999 1.568,2.368002 1.568,3.904 0,2.303998 -1.216,3.776 -3.136,3.776 -0.768,0 -1.376,-0.352001 -2.432,-1.376 -1.248,-1.247999 -2.208,-1.76 -3.168,-1.76 -1.216,0 -2.08,0.768001 -2.08,1.856 0,1.727998 1.952,2.88 4.896,2.88 5.34399,0 9.568,-3.648005 9.568,-8.32 0,-1.471998 -0.48,-2.848001 -1.408,-3.968 -0.672,-0.767999 -1.216,-1.152 -2.496,-1.728 2.048,-1.247999 2.656,-2.176002 2.656,-4.064 0,-2.751997 -1.952,-4.384 -5.216,-4.384 -3.168,0 -5.568,1.600003 -7.328,4.896 l 0.672,0.384"
         style="font-size:32px;font-weight:bold;line-height:125%;fill:#145bd5;stroke:#145bd5;font-family:Nimbus Roman No9 L;-inkscape-font-specification:Nimbus Roman No9 L Bold"
         id="path3767"
         inkscape:connector-curvature="0" />
    </g>
    <path
       style="fill:none;stroke:#110b02;stroke-width:9.70304871;stroke-linecap:round;stroke-linejoin:round;stroke-miterlimit:4;stroke-opacity:1;stroke-dasharray:none"
       d="m 20.316206,550.93102 667.450914,0 z"
       id="path3824"
       inkscape:connector-curvature="0" />
  </g>
</svg>
