<?xml version="1.0" encoding="UTF-8" standalone="no"?>
<!-- Created with Inkscape (http://www.inkscape.org/) -->

<svg
   xmlns:dc="http://purl.org/dc/elements/1.1/"
   xmlns:cc="http://creativecommons.org/ns#"
   xmlns:rdf="http://www.w3.org/1999/02/22-rdf-syntax-ns#"
   xmlns:svg="http://www.w3.org/2000/svg"
   xmlns="http://www.w3.org/2000/svg"
   xmlns:sodipodi="http://sodipodi.sourceforge.net/DTD/sodipodi-0.dtd"
   xmlns:inkscape="http://www.inkscape.org/namespaces/inkscape"
   width="700.875"
   height="689.21875"
   id="svg3505"
   version="1.1"
   inkscape:version="0.48.3.1 r9886"
   sodipodi:docname="invoices_list.svg">
  <defs
     id="defs3507" />
  <sodipodi:namedview
     id="base"
     pagecolor="#ffffff"
     bordercolor="#666666"
     borderopacity="1.0"
     inkscape:pageopacity="0.0"
     inkscape:pageshadow="2"
     inkscape:zoom="0.5"
     inkscape:cx="247.70907"
     inkscape:cy="344.13295"
     inkscape:document-units="px"
     inkscape:current-layer="layer1"
     showgrid="false"
     inkscape:window-width="1440"
     inkscape:window-height="851"
     inkscape:window-x="0"
     inkscape:window-y="25"
     inkscape:window-maximized="1"
     fit-margin-top="7"
     fit-margin-left="5"
     fit-margin-right="5"
     fit-margin-bottom="7" />
  <metadata
     id="metadata3510">
    <rdf:RDF>
      <cc:Work
         rdf:about="">
        <dc:format>image/svg+xml</dc:format>
        <dc:type
           rdf:resource="http://purl.org/dc/dcmitype/StillImage" />
        <dc:title />
      </cc:Work>
    </rdf:RDF>
  </metadata>
  <g
     inkscape:label="Layer 1"
     inkscape:groupmode="layer"
     id="layer1"
     transform="translate(-13.84375,-137.90625)">
    <rect
       style="fill:#ffffff;fill-opacity:1;stroke:#110b02;stroke-width:5;stroke-linejoin:round;stroke-miterlimit:4;stroke-opacity:1;stroke-dasharray:none"
       id="rect3856"
       width="685.85889"
       height="670.19208"
       x="21.356255"
       y="147.41985"
       ry="12.185311" />
    <rect
       style="fill:#515151;fill-opacity:1;stroke:#515151;stroke-width:2;stroke-linejoin:round;stroke-miterlimit:4;stroke-opacity:1;stroke-dasharray:none"
       id="rect3858"
       width="400.66449"
       height="52.512733"
       x="43.841137"
       y="316.12851"
       ry="0" />
    <rect
       style="fill:#110b02;stroke:#110b02;stroke-width:2;stroke-linejoin:round;stroke-miterlimit:4;stroke-opacity:1;stroke-dasharray:none"
       id="rect3858-0"
       width="400.66449"
       height="52.512733"
       x="45.58186"
       y="387.49963"
       ry="0" />
    <rect
       style="fill:#515151;fill-opacity:1;stroke:#515151;stroke-width:2;stroke-linejoin:round;stroke-miterlimit:4;stroke-opacity:1;stroke-dasharray:none"
       id="rect3858-9"
       width="400.66449"
       height="52.512733"
       x="43.841137"
       y="457.12991"
       ry="0" />
    <rect
       style="fill:#110b02;stroke:#110b02;stroke-width:2;stroke-linejoin:round;stroke-miterlimit:4;stroke-opacity:1;stroke-dasharray:none"
       id="rect3858-9-7"
       width="400.66449"
       height="52.512733"
       x="42.100414"
       y="530.24188"
       ry="0" />
    <rect
       style="fill:#cdcdcd;fill-opacity:1;stroke:none"
       id="rect3915"
       width="637.11768"
       height="6.9630351"
       x="37.022972"
       y="617.42487" />
    <g
       transform="matrix(5.636209,0,0,6.6873006,-3070.7541,-1911.622)"
       style="font-size:12px;font-style:normal;font-variant:normal;font-weight:normal;font-stretch:normal;text-align:start;line-height:125%;letter-spacing:0px;word-spacing:0px;writing-mode:lr-tb;text-anchor:start;fill:#146bd5;stroke:#146bd5;stroke-width:0.32576996;stroke-miterlimit:4;stroke-opacity:1;font-family:Sans;-inkscape-font-specification:Sans"
       id="flowRoot3917">
      <path
         d="m 584.44862,319.59688 c 0,0.8 -0.288,1.024 -1.48799,1.136 l 0,0.4 5.59999,0 0,-0.4 c -1.21599,-0.08 -1.52,-0.304 -1.52,-1.136 l 0,-7.744 c 0,-0.832 0.33601,-1.088 1.52,-1.136 l 0,-0.4 -5.59999,0 0,0.4 c 1.15199,0.08 1.48799,0.32 1.48799,1.136 l 0,7.744"
         style="font-size:16px;font-weight:bold;text-align:center;text-anchor:middle;fill:#146bd5;stroke:#146bd5;font-family:Nimbus Roman No9 L;-inkscape-font-specification:Nimbus Roman No9 L Bold"
         id="path3057" />
      <path
         d="m 592.25138,313.75688 -3.056,0 0,0.384 c 0.70399,0.112 0.84799,0.272 0.84799,0.944 l 0,4.704 c 0,0.672 -0.128,0.816 -0.84799,0.96 l 0,0.384 3.85599,0 0,-0.384 c -0.59199,-0.08 -0.78399,-0.32 -0.78399,-0.912 l 0,-4.272 c 0,-0.064 0.112,-0.224 0.27199,-0.368 0.352,-0.368 0.73601,-0.56 1.104,-0.56 0.56,0 0.832,0.432 0.832,1.328 l 0,3.872 c 0,0.592 -0.208,0.848 -0.75199,0.912 l 0,0.384 3.76,0 0,-0.384 c -0.624,-0.048 -0.784,-0.24 -0.784,-0.912 l 0,-4.016 c 0,-1.376 -0.84801,-2.256 -2.16001,-2.256 -0.95999,0 -1.696,0.448 -2.28799,1.392 l 0,-1.2"
         style="font-size:16px;font-weight:bold;text-align:center;text-anchor:middle;fill:#146bd5;stroke:#146bd5;font-family:Nimbus Roman No9 L;-inkscape-font-specification:Nimbus Roman No9 L Bold"
         id="path3059" />
      <path
         d="m 605.52562,313.75688 -2.41599,0 0,0.384 c 0.68799,0.032 0.88,0.144 0.88,0.528 0,0.176 -0.064,0.432 -0.17601,0.72 l -1.152,2.912 -1.264,-3.248 c -0.11199,-0.304 -0.14399,-0.4 -0.14399,-0.496 0,-0.24 0.16,-0.352 0.55999,-0.384 0.032,0 0.16001,-0.016 0.28801,-0.032 l 0,-0.384 -4,0 0,0.384 c 0.36799,0.048 0.464,0.096 0.55999,0.24 0.032,-0.016 0.78401,1.584 1.04001,2.24 l 1.91999,4.736 0.41601,0 2.55999,-6.336 c 0.304,-0.704 0.43201,-0.832 0.928,-0.88 l 0,-0.384"
         style="font-size:16px;font-weight:bold;text-align:center;text-anchor:middle;fill:#146bd5;stroke:#146bd5;font-family:Nimbus Roman No9 L;-inkscape-font-specification:Nimbus Roman No9 L Bold"
         id="path3061" />
      <path
         d="m 609.78162,313.56488 c -2.03199,0 -3.616,1.68 -3.616,3.856 0,2.288 1.52001,3.936 3.616,3.936 2.064,0 3.6,-1.664 3.6,-3.888 0,-2.24 -1.536,-3.904 -3.6,-3.904 m 0.016,0.496 c 0.92799,0 1.23199,0.88 1.23199,3.504 0,2.464 -0.32,3.296 -1.248,3.296 -0.94399,0 -1.264,-0.816 -1.264,-3.152 0,-2.816 0.28801,-3.648 1.28001,-3.648"
         style="font-size:16px;font-weight:bold;text-align:center;text-anchor:middle;fill:#146bd5;stroke:#146bd5;font-family:Nimbus Roman No9 L;-inkscape-font-specification:Nimbus Roman No9 L Bold"
         id="path3063" />
      <path
         d="m 617.09362,313.75688 -3.072,0 0,0.384 c 0.704,0.144 0.84801,0.288 0.84801,0.944 l 0,4.704 c 0,0.656 -0.11201,0.784 -0.84801,0.96 l 0,0.384 3.82401,0 0,-0.384 c -0.56,-0.08 -0.75201,-0.304 -0.75201,-0.912 l 0,-6.08 m -1.12,-3.68 c -0.68799,0 -1.24799,0.56 -1.24799,1.232 0,0.72 0.528,1.248 1.23199,1.248 0.704,0 1.24801,-0.528 1.24801,-1.232 0,-0.688 -0.54401,-1.248 -1.23201,-1.248"
         style="font-size:16px;font-weight:bold;text-align:center;text-anchor:middle;fill:#146bd5;stroke:#146bd5;font-family:Nimbus Roman No9 L;-inkscape-font-specification:Nimbus Roman No9 L Bold"
         id="path3065" />
      <path
         d="m 624.79512,319.38888 c -0.59199,0.672 -1.008,0.896 -1.664,0.896 -1.39199,0 -2.272,-1.392 -2.272,-3.568 0,-1.648 0.51201,-2.656 1.344,-2.656 0.256,0 0.49601,0.128 0.592,0.304 0.08,0.144 0.08,0.144 0.08,0.816 0.016,0.784 0.304,1.152 0.89599,1.152 0.672,0 1.088,-0.384 1.088,-1.008 0,-0.992 -1.072,-1.76 -2.47999,-1.76 -2.176,0 -3.77601,1.696 -3.77601,4 0,2.208 1.44001,3.792 3.424,3.792 1.232,0 2.12801,-0.496 3.056,-1.68 l -0.288,-0.288"
         style="font-size:16px;font-weight:bold;text-align:center;text-anchor:middle;fill:#146bd5;stroke:#146bd5;font-family:Nimbus Roman No9 L;-inkscape-font-specification:Nimbus Roman No9 L Bold"
         id="path3067" />
      <path
         d="m 631.72888,319.13288 c -0.64,0.784 -1.13601,1.072 -1.82401,1.072 -0.62399,0 -1.088,-0.288 -1.424,-0.848 -0.28799,-0.512 -0.416,-1.04 -0.48,-2.144 l 4.032,0 c -0.096,-1.344 -0.336,-2.096 -0.84799,-2.704 -0.528,-0.624 -1.26401,-0.944 -2.144,-0.944 -2,0 -3.34401,1.584 -3.34401,3.92 0,2.336 1.31201,3.872 3.29601,3.872 1.29599,0 2.08,-0.512 3.12,-2 l -0.384,-0.224 m -3.808,-2.512 c 0.048,-1.92 0.336,-2.56 1.12,-2.56 0.44799,0 0.752,0.256 0.88,0.752 0.08,0.304 0.112,0.752 0.144,1.568 l 0,0.24 -2.144,0"
         style="font-size:16px;font-weight:bold;text-align:center;text-anchor:middle;fill:#146bd5;stroke:#146bd5;font-family:Nimbus Roman No9 L;-inkscape-font-specification:Nimbus Roman No9 L Bold"
         id="path3069" />
      <path
         d="m 637.83063,315.91688 0,-2.32 -0.35201,0 c -0.096,0.24 -0.192,0.32 -0.384,0.32 -0.096,0 -0.256,-0.032 -0.512,-0.112 -0.52799,-0.176 -0.896,-0.24 -1.248,-0.24 -1.45599,0 -2.51199,0.992 -2.51199,2.336 0,1.056 0.656,1.792 2.27199,2.48 1.088,0.48 1.536,0.88 1.536,1.392 0,0.624 -0.48,1.04 -1.2,1.04 -1.11999,0 -1.856,-0.72 -2.192,-2.112 l -0.448,0 0,2.64 0.4,0 c 0.176,-0.336 0.27201,-0.448 0.416,-0.448 0.08,0 0.20801,0.032 0.368,0.096 0.432,0.192 1.28001,0.368 1.728,0.368 1.456,0 2.464,-0.992 2.464,-2.432 0,-1.136 -0.624,-1.824 -2.208,-2.496 -1.08799,-0.464 -1.53599,-0.864 -1.53599,-1.408 0,-0.528 0.448,-0.928 1.05599,-0.928 0.416,0 0.84801,0.176 1.2,0.512 0.336,0.32 0.51201,0.608 0.752,1.312 l 0.40001,0"
         style="font-size:16px;font-weight:bold;text-align:center;text-anchor:middle;fill:#146bd5;stroke:#146bd5;font-family:Nimbus Roman No9 L;-inkscape-font-specification:Nimbus Roman No9 L Bold"
         id="path3071" />
    </g>
    <g
       style="font-size:40px;font-style:normal;font-weight:normal;line-height:125%;letter-spacing:0px;word-spacing:0px;fill:#000080;fill-opacity:1;stroke:none;font-family:Sans"
       id="flowRoot2992">
      <path
         d="m 587.09375,355.02025 0,5.22657 -20.46094,0 0,-2.88282 c 0.51562,-0.46874 1.07031,-0.95312 1.66406,-1.45312 0.59375,-0.5 1.13281,-1.03906 1.61719,-1.61719 0.5,-0.57812 0.91406,-1.20312 1.24219,-1.875 0.32812,-0.67187 0.49218,-1.42187 0.49219,-2.25 -1e-5,-0.70311 -0.13282,-1.41405 -0.39844,-2.13281 -0.25001,-0.73436 -0.55469,-1.5078 -0.91406,-2.32031 l -3.82032,0 0,-2.36719 2.0625,0 c -0.4375,-0.98436 -0.8125,-2.02342 -1.125,-3.11719 -0.29687,-1.09373 -0.44531,-2.28123 -0.44531,-3.5625 0,-2.62497 0.92187,-4.64841 2.76563,-6.07031 1.85937,-1.42185 4.6328,-2.13278 8.32031,-2.13281 0.71874,3e-5 1.3828,0.0313 1.99219,0.0937 0.62498,0.0469 1.21873,0.11721 1.78125,0.21093 0.5781,0.0782 1.14842,0.17972 1.71093,0.30469 0.57811,0.12503 1.17967,0.25784 1.80469,0.39844 l 0,7.14844 -2.03906,0 -1.00781,-4.54688 c -0.51564,-0.31247 -1.13283,-0.59372 -1.85157,-0.84375 -0.70314,-0.2656 -1.50001,-0.39841 -2.39062,-0.39844 -1.42189,3e-5 -2.47657,0.49222 -3.16406,1.47657 -0.68751,0.9844 -1.03126,2.43752 -1.03125,4.35937 -1e-5,1.43752 0.0625,2.68752 0.1875,3.75 0.12499,1.04689 0.26561,2.02346 0.42187,2.92969 l 5.88281,0 0,2.36719 -5.57812,0 c 0.0937,0.59376 0.17186,1.17188 0.23437,1.73437 0.0625,0.54689 0.0937,1.16407 0.0937,1.85156 -10e-6,1.31251 -0.21094,2.42189 -0.63281,3.32813 -0.42188,0.90625 -0.91407,1.71094 -1.47656,2.41406 l 14.0625,-0.0234"
         style="font-size:48px;font-variant:normal;font-weight:bold;font-stretch:normal;text-align:end;text-anchor:end;font-family:Liberation Serif;-inkscape-font-specification:Liberation Serif Bold"
         id="path3046" />
      <path
         d="m 593.375,337.79369 -2.03906,0 0,-8.97656 20.08593,0 0,1.85156 -12.21093,29.57813 -5.60157,0 13.24219,-26.20313 -12.39844,0 -1.07812,3.75"
         style="font-size:48px;font-variant:normal;font-weight:bold;font-stretch:normal;text-align:end;text-anchor:end;font-family:Liberation Serif;-inkscape-font-specification:Liberation Serif Bold"
         id="path3048" />
      <path
         d="m 618.59375,360.9265 c -0.54688,0 -1.05469,-0.10156 -1.52344,-0.30468 -0.46875,-0.20313 -0.88281,-0.47657 -1.24219,-0.82032 -0.34375,-0.35937 -0.61719,-0.77343 -0.82031,-1.24218 -0.20312,-0.46875 -0.30469,-0.97656 -0.30469,-1.52344 0,-0.53125 0.10157,-1.03125 0.30469,-1.5 0.20312,-0.48437 0.47656,-0.89843 0.82031,-1.24219 0.35938,-0.35937 0.77344,-0.64062 1.24219,-0.84375 0.46875,-0.20312 0.97656,-0.30468 1.52344,-0.30469 0.53124,1e-5 1.03124,0.10157 1.5,0.30469 0.48437,0.20313 0.89843,0.48438 1.24219,0.84375 0.35936,0.34376 0.64061,0.75782 0.84375,1.24219 0.20311,0.46875 0.30468,0.96875 0.30468,1.5 0,0.54688 -0.10157,1.05469 -0.30468,1.52344 -0.20314,0.46875 -0.48439,0.88281 -0.84375,1.24218 -0.34376,0.34375 -0.75782,0.61719 -1.24219,0.82032 -0.46876,0.20312 -0.96876,0.30468 -1.5,0.30468"
         style="font-size:48px;font-variant:normal;font-weight:bold;font-stretch:normal;text-align:end;text-anchor:end;font-family:Liberation Serif;-inkscape-font-specification:Liberation Serif Bold"
         id="path3050" />
      <path
         d="m 625.90625,338.40307 c 0,-1.60936 0.23437,-3.03123 0.70312,-4.26563 0.48438,-1.24997 1.17188,-2.28903 2.0625,-3.11719 0.90625,-0.84372 2,-1.47653 3.28125,-1.89843 1.28125,-0.43747 2.71874,-0.65622 4.3125,-0.65625 1.81249,3e-5 3.3828,0.31253 4.71094,0.9375 1.34373,0.62503 2.4453,1.59377 3.30469,2.90625 0.87498,1.2969 1.52342,2.95315 1.94531,4.96875 0.42186,2.01564 0.63279,4.40626 0.63281,7.17187 -2e-5,3.03126 -0.34377,5.58595 -1.03125,7.66406 -0.67189,2.06251 -1.58595,3.73438 -2.74218,5.01563 -1.14064,1.26562 -2.46877,2.17969 -3.98438,2.74219 -1.50001,0.5625 -3.07032,0.84374 -4.71094,0.84375 -1.4375,-1e-5 -2.73438,-0.0859 -3.89062,-0.25782 -1.15625,-0.17187 -2.28907,-0.42187 -3.39844,-0.75 l 0,-7.14843 2.03906,0 1.00782,4.54687 c 0.54687,0.39063 1.1953,0.69532 1.94531,0.91406 0.76562,0.21875 1.49999,0.32813 2.20312,0.32813 0.73437,0 1.42187,-0.19531 2.0625,-0.58594 0.64062,-0.40625 1.20312,-1.05468 1.6875,-1.94531 0.49999,-0.89062 0.90624,-2.03906 1.21875,-3.44531 0.32812,-1.42187 0.53905,-3.15624 0.63282,-5.20313 -0.75002,0.26564 -1.52345,0.47658 -2.32032,0.63281 -0.79688,0.15627 -1.64063,0.23439 -2.53125,0.23438 -1.35938,10e-6 -2.60157,-0.20311 -3.72656,-0.60938 -1.10938,-0.42186 -2.07031,-1.03123 -2.88281,-1.82812 -0.79688,-0.81249 -1.42188,-1.8203 -1.875,-3.02344 -0.4375,-1.20311 -0.65625,-2.59373 -0.65625,-4.17187 m 6.89062,0.0937 c 0,1.21877 0.0859,2.25783 0.25782,3.11718 0.18749,0.84377 0.43749,1.53127 0.75,2.0625 0.32811,0.53127 0.71093,0.92189 1.14843,1.17188 0.45312,0.23439 0.95312,0.35158 1.5,0.35156 1.18749,2e-5 2.35937,-0.14061 3.51563,-0.42187 l 0,-0.32813 c -2e-5,-4.5156 -0.27345,-7.91404 -0.82031,-10.19531 -0.53127,-2.28122 -1.47658,-3.42185 -2.83594,-3.42188 -1.21876,3e-5 -2.10938,0.65628 -2.67188,1.96875 -0.5625,1.31253 -0.84375,3.21096 -0.84375,5.69532"
         style="font-size:48px;font-variant:normal;font-weight:bold;font-stretch:normal;text-align:end;text-anchor:end;font-family:Liberation Serif;-inkscape-font-specification:Liberation Serif Bold"
         id="path3052" />
      <path
         d="m 653.375,337.79369 -2.03906,0 0,-8.97656 20.08593,0 0,1.85156 -12.21093,29.57813 -5.60157,0 13.24219,-26.20313 -12.39844,0 -1.07812,3.75"
         style="font-size:48px;font-variant:normal;font-weight:bold;font-stretch:normal;text-align:end;text-anchor:end;font-family:Liberation Serif;-inkscape-font-specification:Liberation Serif Bold"
         id="path3054" />
    </g>
    <g
       transform="translate(1.2523565,67.539295)"
       style="font-size:40px;font-style:normal;font-weight:normal;line-height:125%;letter-spacing:0px;word-spacing:0px;fill:#000080;fill-opacity:1;stroke:none;font-family:Sans"
       id="flowRoot2992-7">
      <path
         d="m 563.09375,355.02025 0,5.22657 -20.46094,0 0,-2.88282 c 0.51562,-0.46874 1.07031,-0.95312 1.66406,-1.45312 0.59375,-0.5 1.13281,-1.03906 1.61719,-1.61719 0.5,-0.57812 0.91406,-1.20312 1.24219,-1.875 0.32812,-0.67187 0.49218,-1.42187 0.49219,-2.25 -1e-5,-0.70311 -0.13282,-1.41405 -0.39844,-2.13281 -0.25001,-0.73436 -0.55469,-1.5078 -0.91406,-2.32031 l -3.82032,0 0,-2.36719 2.0625,0 c -0.4375,-0.98436 -0.8125,-2.02342 -1.125,-3.11719 -0.29687,-1.09373 -0.44531,-2.28123 -0.44531,-3.5625 0,-2.62497 0.92187,-4.64841 2.76563,-6.07031 1.85937,-1.42185 4.6328,-2.13278 8.32031,-2.13281 0.71874,3e-5 1.3828,0.0313 1.99219,0.0937 0.62498,0.0469 1.21873,0.11721 1.78125,0.21093 0.5781,0.0782 1.14842,0.17972 1.71093,0.30469 0.57811,0.12503 1.17967,0.25784 1.80469,0.39844 l 0,7.14844 -2.03906,0 -1.00781,-4.54688 c -0.51564,-0.31247 -1.13283,-0.59372 -1.85157,-0.84375 -0.70314,-0.2656 -1.50001,-0.39841 -2.39062,-0.39844 -1.42189,3e-5 -2.47657,0.49222 -3.16406,1.47657 -0.68751,0.9844 -1.03126,2.43752 -1.03125,4.35937 -1e-5,1.43752 0.0625,2.68752 0.1875,3.75 0.12499,1.04689 0.26561,2.02346 0.42187,2.92969 l 5.88281,0 0,2.36719 -5.57812,0 c 0.0937,0.59376 0.17186,1.17188 0.23437,1.73437 0.0625,0.54689 0.0937,1.16407 0.0937,1.85156 -10e-6,1.31251 -0.21094,2.42189 -0.63281,3.32813 -0.42188,0.90625 -0.91407,1.71094 -1.47656,2.41406 l 14.0625,-0.0234"
         style="font-size:48px;font-variant:normal;font-weight:bold;font-stretch:normal;text-align:end;text-anchor:end;fill:#000080;font-family:Liberation Serif;-inkscape-font-specification:Liberation Serif Bold"
         id="path3033" />
      <path
         d="m 584.5625,354.03588 0,6.21094 -6.30469,0 0,-6.21094 -13.00781,0 0,-3.82031 14.15625,-21.5625 5.15625,0 0,20.57812 3.14062,0 0,4.80469 -3.14062,0 m -6.30469,-14.10938 c -10e-6,-0.40623 0.008,-0.83591 0.0234,-1.28906 0.0156,-0.4531 0.0312,-0.89841 0.0469,-1.33594 0.0312,-0.4531 0.0547,-0.87497 0.0703,-1.26562 0.0312,-0.40623 0.0625,-0.7656 0.0937,-1.07813 l -9.35157,14.27344 9.11719,0 0,-9.30469"
         style="font-size:48px;font-variant:normal;font-weight:bold;font-stretch:normal;text-align:end;text-anchor:end;fill:#000080;font-family:Liberation Serif;-inkscape-font-specification:Liberation Serif Bold"
         id="path3035" />
      <path
         d="m 610.53125,360.24682 -19.92188,0 0,-4.42969 c 1.34375,-1.4375 2.58594,-2.71875 3.72657,-3.84375 1.14062,-1.14062 2.17186,-2.1953 3.09375,-3.16406 0.93749,-0.98437 1.76561,-1.91405 2.48437,-2.78907 0.71874,-0.89061 1.31249,-1.80467 1.78125,-2.74218 0.48436,-0.95311 0.85155,-1.96874 1.10156,-3.04688 0.24999,-1.0781 0.37499,-2.30466 0.375,-3.67969 -10e-6,-0.9531 -0.12501,-1.78122 -0.375,-2.48437 -0.25001,-0.71873 -0.58595,-1.31247 -1.00781,-1.78125 -0.40626,-0.48435 -0.88282,-0.84372 -1.42969,-1.07813 -0.54688,-0.23434 -1.12501,-0.35153 -1.73437,-0.35156 -0.96876,3e-5 -1.7422,0.10159 -2.32031,0.30469 -0.57813,0.20315 -1.10938,0.50784 -1.59375,0.91406 l -1.00782,4.54688 -2.03906,0 0,-7.14844 c 1.25,-0.28122 2.46875,-0.5156 3.65625,-0.70313 1.20312,-0.20309 2.50781,-0.30465 3.91406,-0.30468 3.45312,3e-5 6.09374,0.71096 7.92188,2.13281 1.84373,1.4219 2.7656,3.44534 2.76562,6.07031 -2e-5,1.25002 -0.14845,2.38283 -0.44531,3.39844 -0.29689,1.00002 -0.73439,1.94533 -1.3125,2.83594 -0.56252,0.89064 -1.26564,1.75782 -2.10937,2.60156 -0.84377,0.84376 -1.82033,1.73439 -2.92969,2.67187 -1.09376,0.93751 -2.31251,1.95314 -3.65625,3.04688 -1.34376,1.09376 -2.79688,2.33594 -4.35938,3.72656 l 15.42188,0 0,5.29688"
         style="font-size:48px;font-variant:normal;font-weight:bold;font-stretch:normal;text-align:end;text-anchor:end;fill:#000080;font-family:Liberation Serif;-inkscape-font-specification:Liberation Serif Bold"
         id="path3037" />
      <path
         d="m 618.59375,360.9265 c -0.54688,0 -1.05469,-0.10156 -1.52344,-0.30468 -0.46875,-0.20313 -0.88281,-0.47657 -1.24219,-0.82032 -0.34375,-0.35937 -0.61719,-0.77343 -0.82031,-1.24218 -0.20312,-0.46875 -0.30469,-0.97656 -0.30469,-1.52344 0,-0.53125 0.10157,-1.03125 0.30469,-1.5 0.20312,-0.48437 0.47656,-0.89843 0.82031,-1.24219 0.35938,-0.35937 0.77344,-0.64062 1.24219,-0.84375 0.46875,-0.20312 0.97656,-0.30468 1.52344,-0.30469 0.53124,1e-5 1.03124,0.10157 1.5,0.30469 0.48437,0.20313 0.89843,0.48438 1.24219,0.84375 0.35936,0.34376 0.64061,0.75782 0.84375,1.24219 0.20311,0.46875 0.30468,0.96875 0.30468,1.5 0,0.54688 -0.10157,1.05469 -0.30468,1.52344 -0.20314,0.46875 -0.48439,0.88281 -0.84375,1.24218 -0.34376,0.34375 -0.75782,0.61719 -1.24219,0.82032 -0.46876,0.20312 -0.96876,0.30468 -1.5,0.30468"
         style="font-size:48px;font-variant:normal;font-weight:bold;font-stretch:normal;text-align:end;text-anchor:end;fill:#000080;font-family:Liberation Serif;-inkscape-font-specification:Liberation Serif Bold"
         id="path3039" />
      <path
         d="m 646.76562,344.40307 c -2e-5,2.62501 -0.21095,4.95313 -0.63281,6.98437 -0.40627,2.03126 -1.03127,3.74219 -1.875,5.13281 -0.84377,1.37501 -1.91408,2.42188 -3.21094,3.14063 -1.29689,0.70312 -2.82813,1.05468 -4.59375,1.05469 -3.3125,-1e-5 -5.8125,-1.39063 -7.5,-4.17188 -1.6875,-2.78124 -2.53125,-6.82811 -2.53125,-12.14062 0,-5.20311 0.84375,-9.17967 2.53125,-11.92969 1.6875,-2.7656 4.25,-4.14841 7.6875,-4.14844 3.31249,3e-5 5.82811,1.36722 7.54688,4.10156 1.71873,2.71878 2.5781,6.71096 2.57812,11.97657 m -6.86718,0 c -2e-5,-2.17186 -0.0547,-4.10936 -0.16407,-5.8125 -0.10939,-1.70311 -0.29688,-3.1406 -0.5625,-4.3125 -0.26563,-1.17185 -0.6172,-2.06248 -1.05468,-2.67188 -0.42189,-0.60935 -0.96095,-0.91403 -1.61719,-0.91406 -0.65626,3e-5 -1.19532,0.30471 -1.61719,0.91406 -0.40626,0.6094 -0.72657,1.50003 -0.96094,2.67188 -0.23438,1.1719 -0.39844,2.60939 -0.49218,4.3125 -0.0938,1.70314 -0.14064,3.64064 -0.14063,5.8125 -10e-6,2.18751 0.0469,4.14844 0.14063,5.88281 0.0937,1.71876 0.2578,3.17969 0.49218,4.38281 0.23437,1.1875 0.55468,2.10157 0.96094,2.74219 0.42187,0.64062 0.96093,0.96094 1.61719,0.96094 0.65624,0 1.1953,-0.32032 1.61719,-0.96094 0.43748,-0.64062 0.78905,-1.55469 1.05468,-2.74219 0.26562,-1.20312 0.45311,-2.66405 0.5625,-4.38281 0.10936,-1.73437 0.16405,-3.6953 0.16407,-5.88281"
         style="font-size:48px;font-variant:normal;font-weight:bold;font-stretch:normal;text-align:end;text-anchor:end;fill:#000080;font-family:Liberation Serif;-inkscape-font-specification:Liberation Serif Bold"
         id="path3041" />
      <path
         d="m 649.90625,338.40307 c 0,-1.60936 0.23437,-3.03123 0.70312,-4.26563 0.48438,-1.24997 1.17188,-2.28903 2.0625,-3.11719 0.90625,-0.84372 2,-1.47653 3.28125,-1.89843 1.28125,-0.43747 2.71874,-0.65622 4.3125,-0.65625 1.81249,3e-5 3.3828,0.31253 4.71094,0.9375 1.34373,0.62503 2.4453,1.59377 3.30469,2.90625 0.87498,1.2969 1.52342,2.95315 1.94531,4.96875 0.42186,2.01564 0.63279,4.40626 0.63281,7.17187 -2e-5,3.03126 -0.34377,5.58595 -1.03125,7.66406 -0.67189,2.06251 -1.58595,3.73438 -2.74218,5.01563 -1.14064,1.26562 -2.46877,2.17969 -3.98438,2.74219 -1.50001,0.5625 -3.07032,0.84374 -4.71094,0.84375 -1.4375,-1e-5 -2.73438,-0.0859 -3.89062,-0.25782 -1.15625,-0.17187 -2.28907,-0.42187 -3.39844,-0.75 l 0,-7.14843 2.03906,0 1.00782,4.54687 c 0.54687,0.39063 1.1953,0.69532 1.94531,0.91406 0.76562,0.21875 1.49999,0.32813 2.20312,0.32813 0.73437,0 1.42187,-0.19531 2.0625,-0.58594 0.64062,-0.40625 1.20312,-1.05468 1.6875,-1.94531 0.49999,-0.89062 0.90624,-2.03906 1.21875,-3.44531 0.32812,-1.42187 0.53905,-3.15624 0.63282,-5.20313 -0.75002,0.26564 -1.52345,0.47658 -2.32032,0.63281 -0.79688,0.15627 -1.64063,0.23439 -2.53125,0.23438 -1.35938,10e-6 -2.60157,-0.20311 -3.72656,-0.60938 -1.10938,-0.42186 -2.07031,-1.03123 -2.88281,-1.82812 -0.79688,-0.81249 -1.42188,-1.8203 -1.875,-3.02344 -0.4375,-1.20311 -0.65625,-2.59373 -0.65625,-4.17187 m 6.89062,0.0937 c 0,1.21877 0.0859,2.25783 0.25782,3.11718 0.18749,0.84377 0.43749,1.53127 0.75,2.0625 0.32811,0.53127 0.71093,0.92189 1.14843,1.17188 0.45312,0.23439 0.95312,0.35158 1.5,0.35156 1.18749,2e-5 2.35937,-0.14061 3.51563,-0.42187 l 0,-0.32813 c -2e-5,-4.5156 -0.27345,-7.91404 -0.82031,-10.19531 -0.53127,-2.28122 -1.47658,-3.42185 -2.83594,-3.42188 -1.21876,3e-5 -2.10938,0.65628 -2.67188,1.96875 -0.5625,1.31253 -0.84375,3.21096 -0.84375,5.69532"
         style="font-size:48px;font-variant:normal;font-weight:bold;font-stretch:normal;text-align:end;text-anchor:end;fill:#000080;font-family:Liberation Serif;-inkscape-font-specification:Liberation Serif Bold"
         id="path3043" />
    </g>
    <g
       transform="translate(0.20468609,139.82858)"
       style="font-size:40px;font-style:normal;font-weight:normal;line-height:125%;letter-spacing:0px;word-spacing:0px;fill:#000080;fill-opacity:1;stroke:none;font-family:Sans"
       id="flowRoot2992-6">
      <path
         d="m 563.09375,355.02025 0,5.22657 -20.46094,0 0,-2.88282 c 0.51562,-0.46874 1.07031,-0.95312 1.66406,-1.45312 0.59375,-0.5 1.13281,-1.03906 1.61719,-1.61719 0.5,-0.57812 0.91406,-1.20312 1.24219,-1.875 0.32812,-0.67187 0.49218,-1.42187 0.49219,-2.25 -1e-5,-0.70311 -0.13282,-1.41405 -0.39844,-2.13281 -0.25001,-0.73436 -0.55469,-1.5078 -0.91406,-2.32031 l -3.82032,0 0,-2.36719 2.0625,0 c -0.4375,-0.98436 -0.8125,-2.02342 -1.125,-3.11719 -0.29687,-1.09373 -0.44531,-2.28123 -0.44531,-3.5625 0,-2.62497 0.92187,-4.64841 2.76563,-6.07031 1.85937,-1.42185 4.6328,-2.13278 8.32031,-2.13281 0.71874,3e-5 1.3828,0.0313 1.99219,0.0937 0.62498,0.0469 1.21873,0.11721 1.78125,0.21093 0.5781,0.0782 1.14842,0.17972 1.71093,0.30469 0.57811,0.12503 1.17967,0.25784 1.80469,0.39844 l 0,7.14844 -2.03906,0 -1.00781,-4.54688 c -0.51564,-0.31247 -1.13283,-0.59372 -1.85157,-0.84375 -0.70314,-0.2656 -1.50001,-0.39841 -2.39062,-0.39844 -1.42189,3e-5 -2.47657,0.49222 -3.16406,1.47657 -0.68751,0.9844 -1.03126,2.43752 -1.03125,4.35937 -1e-5,1.43752 0.0625,2.68752 0.1875,3.75 0.12499,1.04689 0.26561,2.02346 0.42187,2.92969 l 5.88281,0 0,2.36719 -5.57812,0 c 0.0937,0.59376 0.17186,1.17188 0.23437,1.73437 0.0625,0.54689 0.0937,1.16407 0.0937,1.85156 -10e-6,1.31251 -0.21094,2.42189 -0.63281,3.32813 -0.42188,0.90625 -0.91407,1.71094 -1.47656,2.41406 l 14.0625,-0.0234"
         style="font-size:48px;font-variant:normal;font-weight:bold;font-stretch:normal;text-align:end;text-anchor:end;fill:#000080;font-family:Liberation Serif;-inkscape-font-specification:Liberation Serif Bold"
         id="path3020" />
      <path
         d="m 586.53125,360.24682 -19.92188,0 0,-4.42969 c 1.34375,-1.4375 2.58594,-2.71875 3.72657,-3.84375 1.14062,-1.14062 2.17186,-2.1953 3.09375,-3.16406 0.93749,-0.98437 1.76561,-1.91405 2.48437,-2.78907 0.71874,-0.89061 1.31249,-1.80467 1.78125,-2.74218 0.48436,-0.95311 0.85155,-1.96874 1.10156,-3.04688 0.24999,-1.0781 0.37499,-2.30466 0.375,-3.67969 -10e-6,-0.9531 -0.12501,-1.78122 -0.375,-2.48437 -0.25001,-0.71873 -0.58595,-1.31247 -1.00781,-1.78125 -0.40626,-0.48435 -0.88282,-0.84372 -1.42969,-1.07813 -0.54688,-0.23434 -1.12501,-0.35153 -1.73437,-0.35156 -0.96876,3e-5 -1.7422,0.10159 -2.32031,0.30469 -0.57813,0.20315 -1.10938,0.50784 -1.59375,0.91406 l -1.00782,4.54688 -2.03906,0 0,-7.14844 c 1.25,-0.28122 2.46875,-0.5156 3.65625,-0.70313 1.20312,-0.20309 2.50781,-0.30465 3.91406,-0.30468 3.45312,3e-5 6.09374,0.71096 7.92188,2.13281 1.84373,1.4219 2.7656,3.44534 2.76562,6.07031 -2e-5,1.25002 -0.14845,2.38283 -0.44531,3.39844 -0.29689,1.00002 -0.73439,1.94533 -1.3125,2.83594 -0.56252,0.89064 -1.26564,1.75782 -2.10937,2.60156 -0.84377,0.84376 -1.82033,1.73439 -2.92969,2.67187 -1.09376,0.93751 -2.31251,1.95314 -3.65625,3.04688 -1.34376,1.09376 -2.79688,2.33594 -4.35938,3.72656 l 15.42188,0 0,5.29688"
         style="font-size:48px;font-variant:normal;font-weight:bold;font-stretch:normal;text-align:end;text-anchor:end;fill:#000080;font-family:Liberation Serif;-inkscape-font-specification:Liberation Serif Bold"
         id="path3022" />
      <path
         d="m 610.76562,344.40307 c -2e-5,2.62501 -0.21095,4.95313 -0.63281,6.98437 -0.40627,2.03126 -1.03127,3.74219 -1.875,5.13281 -0.84377,1.37501 -1.91408,2.42188 -3.21094,3.14063 -1.29689,0.70312 -2.82813,1.05468 -4.59375,1.05469 -3.3125,-1e-5 -5.8125,-1.39063 -7.5,-4.17188 -1.6875,-2.78124 -2.53125,-6.82811 -2.53125,-12.14062 0,-5.20311 0.84375,-9.17967 2.53125,-11.92969 1.6875,-2.7656 4.25,-4.14841 7.6875,-4.14844 3.31249,3e-5 5.82811,1.36722 7.54688,4.10156 1.71873,2.71878 2.5781,6.71096 2.57812,11.97657 m -6.86718,0 c -2e-5,-2.17186 -0.0547,-4.10936 -0.16407,-5.8125 -0.10939,-1.70311 -0.29688,-3.1406 -0.5625,-4.3125 -0.26563,-1.17185 -0.6172,-2.06248 -1.05468,-2.67188 -0.42189,-0.60935 -0.96095,-0.91403 -1.61719,-0.91406 -0.65626,3e-5 -1.19532,0.30471 -1.61719,0.91406 -0.40626,0.6094 -0.72657,1.50003 -0.96094,2.67188 -0.23438,1.1719 -0.39844,2.60939 -0.49218,4.3125 -0.0938,1.70314 -0.14064,3.64064 -0.14063,5.8125 -10e-6,2.18751 0.0469,4.14844 0.14063,5.88281 0.0937,1.71876 0.2578,3.17969 0.49218,4.38281 0.23437,1.1875 0.55468,2.10157 0.96094,2.74219 0.42187,0.64062 0.96093,0.96094 1.61719,0.96094 0.65624,0 1.1953,-0.32032 1.61719,-0.96094 0.43748,-0.64062 0.78905,-1.55469 1.05468,-2.74219 0.26562,-1.20312 0.45311,-2.66405 0.5625,-4.38281 0.10936,-1.73437 0.16405,-3.6953 0.16407,-5.88281"
         style="font-size:48px;font-variant:normal;font-weight:bold;font-stretch:normal;text-align:end;text-anchor:end;fill:#000080;font-family:Liberation Serif;-inkscape-font-specification:Liberation Serif Bold"
         id="path3024" />
      <path
         d="m 618.59375,360.9265 c -0.54688,0 -1.05469,-0.10156 -1.52344,-0.30468 -0.46875,-0.20313 -0.88281,-0.47657 -1.24219,-0.82032 -0.34375,-0.35937 -0.61719,-0.77343 -0.82031,-1.24218 -0.20312,-0.46875 -0.30469,-0.97656 -0.30469,-1.52344 0,-0.53125 0.10157,-1.03125 0.30469,-1.5 0.20312,-0.48437 0.47656,-0.89843 0.82031,-1.24219 0.35938,-0.35937 0.77344,-0.64062 1.24219,-0.84375 0.46875,-0.20312 0.97656,-0.30468 1.52344,-0.30469 0.53124,1e-5 1.03124,0.10157 1.5,0.30469 0.48437,0.20313 0.89843,0.48438 1.24219,0.84375 0.35936,0.34376 0.64061,0.75782 0.84375,1.24219 0.20311,0.46875 0.30468,0.96875 0.30468,1.5 0,0.54688 -0.10157,1.05469 -0.30468,1.52344 -0.20314,0.46875 -0.48439,0.88281 -0.84375,1.24218 -0.34376,0.34375 -0.75782,0.61719 -1.24219,0.82032 -0.46876,0.20312 -0.96876,0.30468 -1.5,0.30468"
         style="font-size:48px;font-variant:normal;font-weight:bold;font-stretch:normal;text-align:end;text-anchor:end;fill:#000080;font-family:Liberation Serif;-inkscape-font-specification:Liberation Serif Bold"
         id="path3026" />
      <path
         d="m 646.76562,344.40307 c -2e-5,2.62501 -0.21095,4.95313 -0.63281,6.98437 -0.40627,2.03126 -1.03127,3.74219 -1.875,5.13281 -0.84377,1.37501 -1.91408,2.42188 -3.21094,3.14063 -1.29689,0.70312 -2.82813,1.05468 -4.59375,1.05469 -3.3125,-1e-5 -5.8125,-1.39063 -7.5,-4.17188 -1.6875,-2.78124 -2.53125,-6.82811 -2.53125,-12.14062 0,-5.20311 0.84375,-9.17967 2.53125,-11.92969 1.6875,-2.7656 4.25,-4.14841 7.6875,-4.14844 3.31249,3e-5 5.82811,1.36722 7.54688,4.10156 1.71873,2.71878 2.5781,6.71096 2.57812,11.97657 m -6.86718,0 c -2e-5,-2.17186 -0.0547,-4.10936 -0.16407,-5.8125 -0.10939,-1.70311 -0.29688,-3.1406 -0.5625,-4.3125 -0.26563,-1.17185 -0.6172,-2.06248 -1.05468,-2.67188 -0.42189,-0.60935 -0.96095,-0.91403 -1.61719,-0.91406 -0.65626,3e-5 -1.19532,0.30471 -1.61719,0.91406 -0.40626,0.6094 -0.72657,1.50003 -0.96094,2.67188 -0.23438,1.1719 -0.39844,2.60939 -0.49218,4.3125 -0.0938,1.70314 -0.14064,3.64064 -0.14063,5.8125 -10e-6,2.18751 0.0469,4.14844 0.14063,5.88281 0.0937,1.71876 0.2578,3.17969 0.49218,4.38281 0.23437,1.1875 0.55468,2.10157 0.96094,2.74219 0.42187,0.64062 0.96093,0.96094 1.61719,0.96094 0.65624,0 1.1953,-0.32032 1.61719,-0.96094 0.43748,-0.64062 0.78905,-1.55469 1.05468,-2.74219 0.26562,-1.20312 0.45311,-2.66405 0.5625,-4.38281 0.10936,-1.73437 0.16405,-3.6953 0.16407,-5.88281"
         style="font-size:48px;font-variant:normal;font-weight:bold;font-stretch:normal;text-align:end;text-anchor:end;fill:#000080;font-family:Liberation Serif;-inkscape-font-specification:Liberation Serif Bold"
         id="path3028" />
      <path
         d="m 670.76562,344.40307 c -2e-5,2.62501 -0.21095,4.95313 -0.63281,6.98437 -0.40627,2.03126 -1.03127,3.74219 -1.875,5.13281 -0.84377,1.37501 -1.91408,2.42188 -3.21094,3.14063 -1.29689,0.70312 -2.82813,1.05468 -4.59375,1.05469 -3.3125,-1e-5 -5.8125,-1.39063 -7.5,-4.17188 -1.6875,-2.78124 -2.53125,-6.82811 -2.53125,-12.14062 0,-5.20311 0.84375,-9.17967 2.53125,-11.92969 1.6875,-2.7656 4.25,-4.14841 7.6875,-4.14844 3.31249,3e-5 5.82811,1.36722 7.54688,4.10156 1.71873,2.71878 2.5781,6.71096 2.57812,11.97657 m -6.86718,0 c -2e-5,-2.17186 -0.0547,-4.10936 -0.16407,-5.8125 -0.10939,-1.70311 -0.29688,-3.1406 -0.5625,-4.3125 -0.26563,-1.17185 -0.6172,-2.06248 -1.05468,-2.67188 -0.42189,-0.60935 -0.96095,-0.91403 -1.61719,-0.91406 -0.65626,3e-5 -1.19532,0.30471 -1.61719,0.91406 -0.40626,0.6094 -0.72657,1.50003 -0.96094,2.67188 -0.23438,1.1719 -0.39844,2.60939 -0.49218,4.3125 -0.0938,1.70314 -0.14064,3.64064 -0.14063,5.8125 -10e-6,2.18751 0.0469,4.14844 0.14063,5.88281 0.0937,1.71876 0.2578,3.17969 0.49218,4.38281 0.23437,1.1875 0.55468,2.10157 0.96094,2.74219 0.42187,0.64062 0.96093,0.96094 1.61719,0.96094 0.65624,0 1.1953,-0.32032 1.61719,-0.96094 0.43748,-0.64062 0.78905,-1.55469 1.05468,-2.74219 0.26562,-1.20312 0.45311,-2.66405 0.5625,-4.38281 0.10936,-1.73437 0.16405,-3.6953 0.16407,-5.88281"
         style="font-size:48px;font-variant:normal;font-weight:bold;font-stretch:normal;text-align:end;text-anchor:end;fill:#000080;font-family:Liberation Serif;-inkscape-font-specification:Liberation Serif Bold"
         id="path3030" />
    </g>
    <g
       transform="translate(1.2523569,212.11786)"
       style="font-size:40px;font-style:normal;font-weight:normal;line-height:125%;letter-spacing:0px;word-spacing:0px;fill:#000080;fill-opacity:1;stroke:none;font-family:Sans"
       id="flowRoot2992-5">
      <path
         d="m 587.09375,355.02025 0,5.22657 -20.46094,0 0,-2.88282 c 0.51562,-0.46874 1.07031,-0.95312 1.66406,-1.45312 0.59375,-0.5 1.13281,-1.03906 1.61719,-1.61719 0.5,-0.57812 0.91406,-1.20312 1.24219,-1.875 0.32812,-0.67187 0.49218,-1.42187 0.49219,-2.25 -1e-5,-0.70311 -0.13282,-1.41405 -0.39844,-2.13281 -0.25001,-0.73436 -0.55469,-1.5078 -0.91406,-2.32031 l -3.82032,0 0,-2.36719 2.0625,0 c -0.4375,-0.98436 -0.8125,-2.02342 -1.125,-3.11719 -0.29687,-1.09373 -0.44531,-2.28123 -0.44531,-3.5625 0,-2.62497 0.92187,-4.64841 2.76563,-6.07031 1.85937,-1.42185 4.6328,-2.13278 8.32031,-2.13281 0.71874,3e-5 1.3828,0.0313 1.99219,0.0937 0.62498,0.0469 1.21873,0.11721 1.78125,0.21093 0.5781,0.0782 1.14842,0.17972 1.71093,0.30469 0.57811,0.12503 1.17967,0.25784 1.80469,0.39844 l 0,7.14844 -2.03906,0 -1.00781,-4.54688 c -0.51564,-0.31247 -1.13283,-0.59372 -1.85157,-0.84375 -0.70314,-0.2656 -1.50001,-0.39841 -2.39062,-0.39844 -1.42189,3e-5 -2.47657,0.49222 -3.16406,1.47657 -0.68751,0.9844 -1.03126,2.43752 -1.03125,4.35937 -1e-5,1.43752 0.0625,2.68752 0.1875,3.75 0.12499,1.04689 0.26561,2.02346 0.42187,2.92969 l 5.88281,0 0,2.36719 -5.57812,0 c 0.0937,0.59376 0.17186,1.17188 0.23437,1.73437 0.0625,0.54689 0.0937,1.16407 0.0937,1.85156 -10e-6,1.31251 -0.21094,2.42189 -0.63281,3.32813 -0.42188,0.90625 -0.91407,1.71094 -1.47656,2.41406 l 14.0625,-0.0234"
         style="font-size:48px;font-variant:normal;font-weight:bold;font-stretch:normal;text-align:end;text-anchor:end;fill:#000080;font-family:Liberation Serif;-inkscape-font-specification:Liberation Serif Bold"
         id="path3009" />
      <path
         d="m 610.76562,344.40307 c -2e-5,2.62501 -0.21095,4.95313 -0.63281,6.98437 -0.40627,2.03126 -1.03127,3.74219 -1.875,5.13281 -0.84377,1.37501 -1.91408,2.42188 -3.21094,3.14063 -1.29689,0.70312 -2.82813,1.05468 -4.59375,1.05469 -3.3125,-1e-5 -5.8125,-1.39063 -7.5,-4.17188 -1.6875,-2.78124 -2.53125,-6.82811 -2.53125,-12.14062 0,-5.20311 0.84375,-9.17967 2.53125,-11.92969 1.6875,-2.7656 4.25,-4.14841 7.6875,-4.14844 3.31249,3e-5 5.82811,1.36722 7.54688,4.10156 1.71873,2.71878 2.5781,6.71096 2.57812,11.97657 m -6.86718,0 c -2e-5,-2.17186 -0.0547,-4.10936 -0.16407,-5.8125 -0.10939,-1.70311 -0.29688,-3.1406 -0.5625,-4.3125 -0.26563,-1.17185 -0.6172,-2.06248 -1.05468,-2.67188 -0.42189,-0.60935 -0.96095,-0.91403 -1.61719,-0.91406 -0.65626,3e-5 -1.19532,0.30471 -1.61719,0.91406 -0.40626,0.6094 -0.72657,1.50003 -0.96094,2.67188 -0.23438,1.1719 -0.39844,2.60939 -0.49218,4.3125 -0.0938,1.70314 -0.14064,3.64064 -0.14063,5.8125 -10e-6,2.18751 0.0469,4.14844 0.14063,5.88281 0.0937,1.71876 0.2578,3.17969 0.49218,4.38281 0.23437,1.1875 0.55468,2.10157 0.96094,2.74219 0.42187,0.64062 0.96093,0.96094 1.61719,0.96094 0.65624,0 1.1953,-0.32032 1.61719,-0.96094 0.43748,-0.64062 0.78905,-1.55469 1.05468,-2.74219 0.26562,-1.20312 0.45311,-2.66405 0.5625,-4.38281 0.10936,-1.73437 0.16405,-3.6953 0.16407,-5.88281"
         style="font-size:48px;font-variant:normal;font-weight:bold;font-stretch:normal;text-align:end;text-anchor:end;fill:#000080;font-family:Liberation Serif;-inkscape-font-specification:Liberation Serif Bold"
         id="path3011" />
      <path
         d="m 618.59375,360.9265 c -0.54688,0 -1.05469,-0.10156 -1.52344,-0.30468 -0.46875,-0.20313 -0.88281,-0.47657 -1.24219,-0.82032 -0.34375,-0.35937 -0.61719,-0.77343 -0.82031,-1.24218 -0.20312,-0.46875 -0.30469,-0.97656 -0.30469,-1.52344 0,-0.53125 0.10157,-1.03125 0.30469,-1.5 0.20312,-0.48437 0.47656,-0.89843 0.82031,-1.24219 0.35938,-0.35937 0.77344,-0.64062 1.24219,-0.84375 0.46875,-0.20312 0.97656,-0.30468 1.52344,-0.30469 0.53124,1e-5 1.03124,0.10157 1.5,0.30469 0.48437,0.20313 0.89843,0.48438 1.24219,0.84375 0.35936,0.34376 0.64061,0.75782 0.84375,1.24219 0.20311,0.46875 0.30468,0.96875 0.30468,1.5 0,0.54688 -0.10157,1.05469 -0.30468,1.52344 -0.20314,0.46875 -0.48439,0.88281 -0.84375,1.24218 -0.34376,0.34375 -0.75782,0.61719 -1.24219,0.82032 -0.46876,0.20312 -0.96876,0.30468 -1.5,0.30468"
         style="font-size:48px;font-variant:normal;font-weight:bold;font-stretch:normal;text-align:end;text-anchor:end;fill:#000080;font-family:Liberation Serif;-inkscape-font-specification:Liberation Serif Bold"
         id="path3013" />
      <path
         d="m 644.5625,354.03588 0,6.21094 -6.30469,0 0,-6.21094 -13.00781,0 0,-3.82031 14.15625,-21.5625 5.15625,0 0,20.57812 3.14062,0 0,4.80469 -3.14062,0 m -6.30469,-14.10938 c -10e-6,-0.40623 0.008,-0.83591 0.0234,-1.28906 0.0156,-0.4531 0.0312,-0.89841 0.0469,-1.33594 0.0312,-0.4531 0.0547,-0.87497 0.0703,-1.26562 0.0312,-0.40623 0.0625,-0.7656 0.0937,-1.07813 l -9.35157,14.27344 9.11719,0 0,-9.30469"
         style="font-size:48px;font-variant:normal;font-weight:bold;font-stretch:normal;text-align:end;text-anchor:end;fill:#000080;font-family:Liberation Serif;-inkscape-font-specification:Liberation Serif Bold"
         id="path3015" />
      <path
         d="m 649.90625,338.40307 c 0,-1.60936 0.23437,-3.03123 0.70312,-4.26563 0.48438,-1.24997 1.17188,-2.28903 2.0625,-3.11719 0.90625,-0.84372 2,-1.47653 3.28125,-1.89843 1.28125,-0.43747 2.71874,-0.65622 4.3125,-0.65625 1.81249,3e-5 3.3828,0.31253 4.71094,0.9375 1.34373,0.62503 2.4453,1.59377 3.30469,2.90625 0.87498,1.2969 1.52342,2.95315 1.94531,4.96875 0.42186,2.01564 0.63279,4.40626 0.63281,7.17187 -2e-5,3.03126 -0.34377,5.58595 -1.03125,7.66406 -0.67189,2.06251 -1.58595,3.73438 -2.74218,5.01563 -1.14064,1.26562 -2.46877,2.17969 -3.98438,2.74219 -1.50001,0.5625 -3.07032,0.84374 -4.71094,0.84375 -1.4375,-1e-5 -2.73438,-0.0859 -3.89062,-0.25782 -1.15625,-0.17187 -2.28907,-0.42187 -3.39844,-0.75 l 0,-7.14843 2.03906,0 1.00782,4.54687 c 0.54687,0.39063 1.1953,0.69532 1.94531,0.91406 0.76562,0.21875 1.49999,0.32813 2.20312,0.32813 0.73437,0 1.42187,-0.19531 2.0625,-0.58594 0.64062,-0.40625 1.20312,-1.05468 1.6875,-1.94531 0.49999,-0.89062 0.90624,-2.03906 1.21875,-3.44531 0.32812,-1.42187 0.53905,-3.15624 0.63282,-5.20313 -0.75002,0.26564 -1.52345,0.47658 -2.32032,0.63281 -0.79688,0.15627 -1.64063,0.23439 -2.53125,0.23438 -1.35938,10e-6 -2.60157,-0.20311 -3.72656,-0.60938 -1.10938,-0.42186 -2.07031,-1.03123 -2.88281,-1.82812 -0.79688,-0.81249 -1.42188,-1.8203 -1.875,-3.02344 -0.4375,-1.20311 -0.65625,-2.59373 -0.65625,-4.17187 m 6.89062,0.0937 c 0,1.21877 0.0859,2.25783 0.25782,3.11718 0.18749,0.84377 0.43749,1.53127 0.75,2.0625 0.32811,0.53127 0.71093,0.92189 1.14843,1.17188 0.45312,0.23439 0.95312,0.35158 1.5,0.35156 1.18749,2e-5 2.35937,-0.14061 3.51563,-0.42187 l 0,-0.32813 c -2e-5,-4.5156 -0.27345,-7.91404 -0.82031,-10.19531 -0.53127,-2.28122 -1.47658,-3.42185 -2.83594,-3.42188 -1.21876,3e-5 -2.10938,0.65628 -2.67188,1.96875 -0.5625,1.31253 -0.84375,3.21096 -0.84375,5.69532"
         style="font-size:48px;font-variant:normal;font-weight:bold;font-stretch:normal;text-align:end;text-anchor:end;fill:#000080;font-family:Liberation Serif;-inkscape-font-specification:Liberation Serif Bold"
         id="path3017" />
    </g>
  </g>
</svg>
