<?xml version="1.0" encoding="UTF-8" standalone="no"?>
<!-- Created with Inkscape (http://www.inkscape.org/) -->

<svg
   xmlns:dc="http://purl.org/dc/elements/1.1/"
   xmlns:cc="http://creativecommons.org/ns#"
   xmlns:rdf="http://www.w3.org/1999/02/22-rdf-syntax-ns#"
   xmlns:svg="http://www.w3.org/2000/svg"
   xmlns="http://www.w3.org/2000/svg"
   xmlns:xlink="http://www.w3.org/1999/xlink"
   xmlns:sodipodi="http://sodipodi.sourceforge.net/DTD/sodipodi-0.dtd"
   xmlns:inkscape="http://www.inkscape.org/namespaces/inkscape"
   width="712.44067"
   height="714.4375"
   id="svg3321"
   version="1.1"
   inkscape:version="0.48.3.1 r9886"
   sodipodi:docname="reconcile.svg">
  <defs
     id="defs3323">
    <linearGradient
       id="linearGradient3781">
      <stop
         style="stop-color:#000080;stop-opacity:1;"
         offset="0"
         id="stop3783" />
      <stop
         style="stop-color:#146bd5;stop-opacity:1;"
         offset="1"
         id="stop3785" />
    </linearGradient>
    <linearGradient
       id="linearGradient3759">
      <stop
         style="stop-color:#9a9a9a;stop-opacity:1;"
         offset="0"
         id="stop3761" />
      <stop
         style="stop-color:#3b3b3b;stop-opacity:1;"
         offset="1"
         id="stop3763" />
    </linearGradient>
    <radialGradient
       inkscape:collect="always"
       xlink:href="#linearGradient3759"
       id="radialGradient3765"
       cx="366.27936"
       cy="309.29089"
       fx="366.27936"
       fy="309.29089"
       r="80.924065"
       gradientTransform="matrix(0.99877807,-0.04942031,0.04102306,0.82907069,-12.24049,70.96852)"
       gradientUnits="userSpaceOnUse" />
    <linearGradient
       inkscape:collect="always"
       xlink:href="#linearGradient3781"
       id="linearGradient3787"
       x1="321.06354"
       y1="933.24554"
       x2="435.27213"
       y2="933.24554"
       gradientUnits="userSpaceOnUse" />
    <linearGradient
       inkscape:collect="always"
       xlink:href="#linearGradient3781"
       id="linearGradient3795"
       x1="321.06354"
       y1="933.24554"
       x2="435.27213"
       y2="933.24554"
       gradientUnits="userSpaceOnUse" />
    <linearGradient
       inkscape:collect="always"
       xlink:href="#linearGradient3781"
       id="linearGradient3816"
       gradientUnits="userSpaceOnUse"
       x1="321.06354"
       y1="933.24554"
       x2="435.27213"
       y2="933.24554" />
    <linearGradient
       inkscape:collect="always"
       xlink:href="#linearGradient3781"
       id="linearGradient3818"
       gradientUnits="userSpaceOnUse"
       x1="321.06354"
       y1="933.24554"
       x2="435.27213"
       y2="933.24554" />
    <linearGradient
       inkscape:collect="always"
       xlink:href="#linearGradient3781"
       id="linearGradient3820"
       gradientUnits="userSpaceOnUse"
       x1="321.06354"
       y1="933.24554"
       x2="435.27213"
       y2="933.24554" />
    <linearGradient
       inkscape:collect="always"
       xlink:href="#linearGradient3781"
       id="linearGradient3822"
       gradientUnits="userSpaceOnUse"
       x1="321.06354"
       y1="933.24554"
       x2="435.27213"
       y2="933.24554" />
    <linearGradient
       inkscape:collect="always"
       xlink:href="#linearGradient3781"
       id="linearGradient3824"
       gradientUnits="userSpaceOnUse"
       x1="321.06354"
       y1="933.24554"
       x2="435.27213"
       y2="933.24554" />
    <linearGradient
       inkscape:collect="always"
       xlink:href="#linearGradient3781"
       id="linearGradient3826"
       gradientUnits="userSpaceOnUse"
       x1="321.06354"
       y1="933.24554"
       x2="435.27213"
       y2="933.24554" />
    <linearGradient
       inkscape:collect="always"
       xlink:href="#linearGradient3781"
       id="linearGradient3828"
       gradientUnits="userSpaceOnUse"
       x1="321.06354"
       y1="933.24554"
       x2="435.27213"
       y2="933.24554" />
    <linearGradient
       inkscape:collect="always"
       xlink:href="#linearGradient3781"
       id="linearGradient3830"
       gradientUnits="userSpaceOnUse"
       x1="321.06354"
       y1="933.24554"
       x2="435.27213"
       y2="933.24554" />
    <linearGradient
       inkscape:collect="always"
       xlink:href="#linearGradient3781"
       id="linearGradient3832"
       gradientUnits="userSpaceOnUse"
       x1="321.06354"
       y1="933.24554"
       x2="435.27213"
       y2="933.24554" />
    <linearGradient
       inkscape:collect="always"
       xlink:href="#linearGradient3781"
       id="linearGradient3834"
       gradientUnits="userSpaceOnUse"
       x1="321.06354"
       y1="933.24554"
       x2="435.27213"
       y2="933.24554" />
    <linearGradient
       inkscape:collect="always"
       xlink:href="#linearGradient3781"
       id="linearGradient3836"
       gradientUnits="userSpaceOnUse"
       x1="321.06354"
       y1="933.24554"
       x2="435.27213"
       y2="933.24554" />
    <linearGradient
       inkscape:collect="always"
       xlink:href="#linearGradient3781"
       id="linearGradient3838"
       gradientUnits="userSpaceOnUse"
       x1="321.06354"
       y1="933.24554"
       x2="435.27213"
       y2="933.24554" />
    <linearGradient
       inkscape:collect="always"
       xlink:href="#linearGradient3781"
       id="linearGradient3840"
       gradientUnits="userSpaceOnUse"
       x1="321.06354"
       y1="933.24554"
       x2="435.27213"
       y2="933.24554" />
    <linearGradient
       inkscape:collect="always"
       xlink:href="#linearGradient3781"
       id="linearGradient3842"
       gradientUnits="userSpaceOnUse"
       x1="321.06354"
       y1="933.24554"
       x2="435.27213"
       y2="933.24554" />
    <linearGradient
       inkscape:collect="always"
       xlink:href="#linearGradient3781"
       id="linearGradient3844"
       gradientUnits="userSpaceOnUse"
       x1="321.06354"
       y1="933.24554"
       x2="435.27213"
       y2="933.24554" />
    <linearGradient
       inkscape:collect="always"
       xlink:href="#linearGradient3781"
       id="linearGradient3846"
       gradientUnits="userSpaceOnUse"
       x1="321.06354"
       y1="933.24554"
       x2="435.27213"
       y2="933.24554" />
    <linearGradient
       inkscape:collect="always"
       xlink:href="#linearGradient3781"
       id="linearGradient3848"
       gradientUnits="userSpaceOnUse"
       x1="321.06354"
       y1="933.24554"
       x2="435.27213"
       y2="933.24554" />
    <linearGradient
       inkscape:collect="always"
       xlink:href="#linearGradient3781"
       id="linearGradient3850"
       gradientUnits="userSpaceOnUse"
       x1="321.06354"
       y1="933.24554"
       x2="435.27213"
       y2="933.24554" />
    <linearGradient
       inkscape:collect="always"
       xlink:href="#linearGradient3781"
       id="linearGradient3852"
       gradientUnits="userSpaceOnUse"
       x1="321.06354"
       y1="933.24554"
       x2="435.27213"
       y2="933.24554" />
    <linearGradient
       inkscape:collect="always"
       xlink:href="#linearGradient3781"
       id="linearGradient3854"
       gradientUnits="userSpaceOnUse"
       x1="321.06354"
       y1="933.24554"
       x2="435.27213"
       y2="933.24554" />
  </defs>
  <sodipodi:namedview
     id="base"
     pagecolor="#ffffff"
     bordercolor="#666666"
     borderopacity="1.0"
     inkscape:pageopacity="0.0"
     inkscape:pageshadow="2"
     inkscape:zoom="0.4518409"
     inkscape:cx="356.22179"
     inkscape:cy="309.92691"
     inkscape:document-units="px"
     inkscape:current-layer="layer1"
     showgrid="false"
     inkscape:window-width="1440"
     inkscape:window-height="851"
     inkscape:window-x="0"
     inkscape:window-y="25"
     inkscape:window-maximized="1"
     fit-margin-top="2"
     fit-margin-left="5"
     fit-margin-right="5"
     fit-margin-bottom="2" />
  <metadata
     id="metadata3326">
    <rdf:RDF>
      <cc:Work
         rdf:about="">
        <dc:format>image/svg+xml</dc:format>
        <dc:type
           rdf:resource="http://purl.org/dc/dcmitype/StillImage" />
        <dc:title />
      </cc:Work>
    </rdf:RDF>
  </metadata>
  <g
     inkscape:label="Layer 1"
     inkscape:groupmode="layer"
     id="layer1"
     transform="translate(-14.965552,-206.9375)">
    <path
       style="fill:#3b3b3b;fill-opacity:1;stroke:#110b02;stroke-width:2;stroke-linecap:butt;stroke-linejoin:miter;stroke-miterlimit:4;stroke-opacity:1;stroke-dasharray:none"
       d="m 643.33052,916.51791 78.07826,-81.34298 -2.49059,-206.74994 c 0,0 -20.35475,-19.96681 -32.38256,-27.4006 -21.5167,-13.29791 -44.48189,-31.10259 -69.74729,-29.89153 -61.3074,2.9387 -141.98466,0 -141.98466,0 0,0 -44.9006,-50.79387 -54.8013,-82.2018 -10.98619,-34.85297 -2.49108,-109.60239 -2.49108,-109.60239 0,0 34.30401,-28.32015 44.83747,-47.32831 11.22589,-20.2574 23.52199,-44.90982 17.43657,-67.25601 -6.78722,-24.92589 -54.8008,-54.80115 -54.8008,-54.80115 l -113.63997,0.51552 c 0,0 -45.91976,21.1432 -53.2545,46.81279 -7.50385,26.26144 8.36626,52.33282 21.81741,76.10323 9.00556,15.91456 40.45664,46.81279 40.45664,46.81279 0,0 9.96177,74.19334 -0.85922,108.22802 -10.96893,34.5006 -61.41483,82.71731 -61.41483,82.71731 0,0 -82.60115,0.30237 -124.54858,0 -18.6586,-0.1345 -36.295415,10.35154 -52.310218,19.92771 -22.637027,13.53598 -50.826142,27.83253 -59.782965,52.31021 -3.687447,10.07725 14.6749,-20.97032 24.136172,-21.30208 171.866281,-6.02663 576.186021,-3.60758 576.186021,-3.60758 0,0 22.04844,2.20574 28.25962,9.10506 4.74641,5.27245 4.12294,23.2775 4.12294,23.2775 l 2.49108,246.60535 z"
       id="path3947"
       inkscape:connector-curvature="0"
       sodipodi:nodetypes="cccsscscssccsscscsssscsccc" />
    <rect
       style="fill:#110b02;fill-opacity:1;stroke:#110b02;stroke-width:1.9945401;stroke-miterlimit:4;stroke-opacity:1;stroke-dasharray:none"
       id="rect3756"
       width="635.35052"
       height="298.13751"
       x="21.21266"
       y="620.23547"
       ry="26.698881" />
    <rect
       style="fill:#ffffff;fill-opacity:1;stroke:#110b02;stroke-width:2;stroke-linejoin:round;stroke-miterlimit:4;stroke-opacity:1;stroke-dasharray:none"
       id="rect3949"
       width="580.39441"
       height="261.55112"
       x="43.867195"
       y="650.84351" />
    <path
       sodipodi:type="arc"
       style="fill:url(#radialGradient3765);fill-opacity:1;stroke:none"
       id="path3757"
       sodipodi:cx="366.27936"
       sodipodi:cy="309.29089"
       sodipodi:rx="79.674065"
       sodipodi:ry="68.054932"
       d="m 445.95342,309.29089 c 0,37.5857 -35.67129,68.05494 -79.67406,68.05494 -44.00277,0 -79.67407,-30.46924 -79.67407,-68.05494 0,-37.5857 35.6713,-68.05493 79.67407,-68.05493 44.00277,0 79.67406,30.46923 79.67406,68.05493 z" />
    <path
       transform="matrix(0.99558543,-0.09385972,0.0107014,0.99994274,0,0)"
       style="fill:#aaaaaa;fill-opacity:1;stroke:none"
       d="m 652.21749,704.49258 59.23811,-6.85652 0.64169,204.41525 -59.78473,57.71099 z"
       id="rect3778"
       inkscape:connector-curvature="0"
       sodipodi:nodetypes="ccccc" />
    <g
       transform="matrix(4.7129538,0,0,4.9318554,-1452.6221,-3831.821)"
       style="font-size:28px;font-style:normal;font-variant:normal;font-weight:bold;font-stretch:normal;text-align:center;line-height:100%;letter-spacing:0px;word-spacing:0px;writing-mode:lr-tb;text-anchor:middle;fill:url(#linearGradient3852);fill-opacity:1;stroke:url(#linearGradient3854);stroke-width:0.41483772;stroke-miterlimit:4;stroke-opacity:1;font-family:Nimbus Roman No9 L;-inkscape-font-specification:Nimbus Roman No9 L Bold"
       id="flowRoot3951">
      <path
         d="m 340.56297,942.02353 c -0.504,0 -0.868,-0.168 -1.148,-0.532 l -5.628,-7.98 c 1.652,-0.532 2.352,-0.896 3.136,-1.596 0.812,-0.756 1.26,-1.876 1.26,-3.136 0,-3.22 -2.77201,-4.984 -7.896,-4.984 l -9.016,0 0,0.7 c 2.072,0.14 2.464,0.56 2.464,2.576 l 0,12.376 c 0,2.044 -0.28,2.324 -2.464,2.576 l 0,0.7 9.464,0 0,-0.7 c -2.184,-0.28 -2.464,-0.588 -2.464,-2.576 l 0,-5.488 0.756,0 5.796,8.764 5.74,0 0,-0.7 m -12.292,-16.1 c 0,-0.168 0.112,-0.588 0.196,-0.756 0.168,-0.28 0.616,-0.42 1.316,-0.42 2.576,0 3.612,1.204 3.612,4.144 0,1.792 -0.42,2.884 -1.316,3.472 -0.728,0.476 -1.68,0.672 -3.808,0.7 l 0,-7.14"
         style="fill:url(#linearGradient3816);stroke:url(#linearGradient3818);font-family:Nimbus Roman No9 L;-inkscape-font-specification:Nimbus Roman No9 L Bold"
         id="path3798"
         inkscape:connector-curvature="0" />
      <path
         d="m 352.03334,939.22353 c -1.12,1.372 -1.988,1.876 -3.192,1.876 -1.092,0 -1.904,-0.504 -2.492,-1.484 -0.504,-0.896 -0.728,-1.82 -0.84,-3.752 l 7.056,0 c -0.168,-2.352 -0.588,-3.668 -1.484,-4.732 -0.924,-1.092 -2.212,-1.652 -3.752,-1.652 -3.49999,0 -5.852,2.772 -5.852,6.86 0,4.088 2.29601,6.776 5.768,6.776 2.268,0 3.64001,-0.896 5.46,-3.5 l -0.672,-0.392 m -6.664,-4.396 c 0.084,-3.36 0.58801,-4.48 1.96,-4.48 0.784,0 1.316,0.448 1.54,1.316 0.14,0.532 0.196,1.316 0.252,2.744 l 0,0.42 -3.752,0"
         style="fill:url(#linearGradient3820);stroke:url(#linearGradient3822);font-family:Nimbus Roman No9 L;-inkscape-font-specification:Nimbus Roman No9 L Bold"
         id="path3800"
         inkscape:connector-curvature="0" />
      <path
         d="m 364.72741,939.67153 c -1.036,1.176 -1.764,1.568 -2.912,1.568 -2.436,0 -3.976,-2.436 -3.976,-6.244 0,-2.884 0.896,-4.648 2.352,-4.648 0.448,0 0.868,0.224 1.036,0.532 0.14,0.252 0.14,0.252 0.14,1.428 0.028,1.372 0.532,2.016 1.568,2.016 1.176,0 1.904,-0.672 1.904,-1.764 0,-1.736 -1.87601,-3.08 -4.34,-3.08 -3.808,0 -6.608,2.968 -6.608,7 0,3.864 2.52,6.636 5.992,6.636 2.15599,0 3.724,-0.868 5.348,-2.94 l -0.504,-0.504"
         style="fill:url(#linearGradient3824);stroke:url(#linearGradient3826);font-family:Nimbus Roman No9 L;-inkscape-font-specification:Nimbus Roman No9 L Bold"
         id="path3802"
         inkscape:connector-curvature="0" />
      <path
         d="m 372.63347,929.47953 c -3.556,0 -6.328,2.94 -6.328,6.748 0,4.004 2.66,6.888 6.328,6.888 3.612,0 6.3,-2.912 6.3,-6.804 0,-3.92 -2.688,-6.832 -6.3,-6.832 m 0.028,0.868 c 1.624,0 2.156,1.54 2.156,6.132 0,4.312 -0.56,5.768 -2.184,5.768 -1.652,0 -2.212,-1.428 -2.212,-5.516 0,-4.928 0.504,-6.384 2.24,-6.384"
         style="fill:url(#linearGradient3828);stroke:url(#linearGradient3830);font-family:Nimbus Roman No9 L;-inkscape-font-specification:Nimbus Roman No9 L Bold"
         id="path3804"
         inkscape:connector-curvature="0" />
      <path
         d="m 385.54147,929.81553 -5.348,0 0,0.672 c 1.232,0.196 1.484,0.476 1.484,1.652 l 0,8.232 c 0,1.176 -0.224,1.428 -1.484,1.68 l 0,0.672 6.748,0 0,-0.672 c -1.036,-0.14 -1.372,-0.56 -1.372,-1.596 l 0,-7.476 c 0,-0.112 0.196,-0.392 0.476,-0.644 0.616,-0.644 1.288,-0.98 1.932,-0.98 0.98,0 1.456,0.756 1.456,2.324 l 0,6.776 c 0,1.036 -0.364,1.484 -1.316,1.596 l 0,0.672 6.58,0 0,-0.672 c -1.092,-0.084 -1.372,-0.42 -1.372,-1.596 l 0,-7.028 c 0,-2.408 -1.484,-3.948 -3.78,-3.948 -1.68,0 -2.968,0.784 -4.004,2.436 l 0,-2.1"
         style="fill:url(#linearGradient3832);stroke:url(#linearGradient3834);font-family:Nimbus Roman No9 L;-inkscape-font-specification:Nimbus Roman No9 L Bold"
         id="path3806"
         inkscape:connector-curvature="0" />
      <path
         d="m 406.72741,939.67153 c -1.036,1.176 -1.764,1.568 -2.912,1.568 -2.436,0 -3.976,-2.436 -3.976,-6.244 0,-2.884 0.896,-4.648 2.352,-4.648 0.448,0 0.868,0.224 1.036,0.532 0.14,0.252 0.14,0.252 0.14,1.428 0.028,1.372 0.532,2.016 1.568,2.016 1.176,0 1.904,-0.672 1.904,-1.764 0,-1.736 -1.87601,-3.08 -4.34,-3.08 -3.808,0 -6.608,2.968 -6.608,7 0,3.864 2.52,6.636 5.992,6.636 2.15599,0 3.724,-0.868 5.348,-2.94 l -0.504,-0.504"
         style="fill:url(#linearGradient3836);stroke:url(#linearGradient3838);font-family:Nimbus Roman No9 L;-inkscape-font-specification:Nimbus Roman No9 L Bold"
         id="path3808"
         inkscape:connector-curvature="0" />
      <path
         d="m 413.42947,929.81553 -5.376,0 0,0.672 c 1.232,0.252 1.484,0.504 1.484,1.652 l 0,8.232 c 0,1.148 -0.196,1.372 -1.484,1.68 l 0,0.672 6.692,0 0,-0.672 c -0.98,-0.14 -1.316,-0.532 -1.316,-1.596 l 0,-10.64 m -1.96,-6.44 c -1.204,0 -2.184,0.98 -2.184,2.156 0,1.26 0.924,2.184 2.156,2.184 1.232,0 2.184,-0.924 2.184,-2.156 0,-1.204 -0.952,-2.184 -2.156,-2.184"
         style="fill:url(#linearGradient3840);stroke:url(#linearGradient3842);font-family:Nimbus Roman No9 L;-inkscape-font-specification:Nimbus Roman No9 L Bold"
         id="path3810"
         inkscape:connector-curvature="0" />
      <path
         d="m 421.13909,923.79553 -5.32,0 0,0.672 c 0.98,0.084 1.428,0.588 1.428,1.624 l 0,14.28 c 0,1.036 -0.476,1.596 -1.428,1.68 l 0,0.672 6.692,0 0,-0.672 c -0.924,-0.028 -1.372,-0.56 -1.372,-1.68 l 0,-16.576"
         style="fill:url(#linearGradient3844);stroke:url(#linearGradient3846);font-family:Nimbus Roman No9 L;-inkscape-font-specification:Nimbus Roman No9 L Bold"
         id="path3812"
         inkscape:connector-curvature="0" />
      <path
         d="m 434.39272,939.22353 c -1.12,1.372 -1.988,1.876 -3.192,1.876 -1.092,0 -1.904,-0.504 -2.492,-1.484 -0.504,-0.896 -0.728,-1.82 -0.84,-3.752 l 7.056,0 c -0.168,-2.352 -0.588,-3.668 -1.484,-4.732 -0.924,-1.092 -2.212,-1.652 -3.752,-1.652 -3.5,0 -5.852,2.772 -5.852,6.86 0,4.088 2.296,6.776 5.768,6.776 2.268,0 3.64,-0.896 5.46,-3.5 l -0.672,-0.392 m -6.664,-4.396 c 0.084,-3.36 0.588,-4.48 1.96,-4.48 0.784,0 1.316,0.448 1.54,1.316 0.14,0.532 0.196,1.316 0.252,2.744 l 0,0.42 -3.752,0"
         style="fill:url(#linearGradient3848);stroke:url(#linearGradient3850);font-family:Nimbus Roman No9 L;-inkscape-font-specification:Nimbus Roman No9 L Bold"
         id="path3814"
         inkscape:connector-curvature="0" />
    </g>
  </g>
</svg>
