<?xml version="1.0" encoding="UTF-8" standalone="no"?>
<!-- Created with Inkscape (http://www.inkscape.org/) -->

<svg
   xmlns:dc="http://purl.org/dc/elements/1.1/"
   xmlns:cc="http://creativecommons.org/ns#"
   xmlns:rdf="http://www.w3.org/1999/02/22-rdf-syntax-ns#"
   xmlns:svg="http://www.w3.org/2000/svg"
   xmlns="http://www.w3.org/2000/svg"
   xmlns:xlink="http://www.w3.org/1999/xlink"
   xmlns:sodipodi="http://sodipodi.sourceforge.net/DTD/sodipodi-0.dtd"
   xmlns:inkscape="http://www.inkscape.org/namespaces/inkscape"
   width="694.72504"
   height="694.58759"
   id="svg3722"
   version="1.1"
   inkscape:version="0.48.3.1 r9886"
   sodipodi:docname="what_if.svg">
  <defs
     id="defs3724">
    <linearGradient
       id="linearGradient3755">
      <stop
         style="stop-color:#110b02;stop-opacity:1;"
         offset="0"
         id="stop3757" />
      <stop
         id="stop3763"
         offset="0.36666667"
         style="stop-color:#3b3b3b;stop-opacity:1;" />
      <stop
         style="stop-color:#6193cf;stop-opacity:1;"
         offset="1"
         id="stop3759" />
    </linearGradient>
    <linearGradient
       inkscape:collect="always"
       xlink:href="#linearGradient3755"
       id="linearGradient3761"
       x1="39.668369"
       y1="834.30713"
       x2="156.88422"
       y2="932.55139"
       gradientUnits="userSpaceOnUse" />
    <linearGradient
       inkscape:collect="always"
       xlink:href="#linearGradient3755"
       id="linearGradient3780"
       gradientUnits="userSpaceOnUse"
       x1="39.668369"
       y1="834.30713"
       x2="156.88422"
       y2="932.55139" />
    <linearGradient
       inkscape:collect="always"
       xlink:href="#linearGradient3755"
       id="linearGradient3782"
       gradientUnits="userSpaceOnUse"
       x1="39.668369"
       y1="834.30713"
       x2="156.88422"
       y2="932.55139" />
    <linearGradient
       inkscape:collect="always"
       xlink:href="#linearGradient3755"
       id="linearGradient3784"
       gradientUnits="userSpaceOnUse"
       x1="39.668369"
       y1="834.30713"
       x2="156.88422"
       y2="932.55139" />
    <linearGradient
       inkscape:collect="always"
       xlink:href="#linearGradient3755"
       id="linearGradient3786"
       gradientUnits="userSpaceOnUse"
       x1="39.668369"
       y1="834.30713"
       x2="156.88422"
       y2="932.55139" />
    <linearGradient
       inkscape:collect="always"
       xlink:href="#linearGradient3755"
       id="linearGradient3788"
       gradientUnits="userSpaceOnUse"
       x1="39.668369"
       y1="834.30713"
       x2="156.88422"
       y2="932.55139" />
    <linearGradient
       inkscape:collect="always"
       xlink:href="#linearGradient3755"
       id="linearGradient3790"
       gradientUnits="userSpaceOnUse"
       x1="39.668369"
       y1="834.30713"
       x2="156.88422"
       y2="932.55139" />
    <linearGradient
       inkscape:collect="always"
       xlink:href="#linearGradient3755"
       id="linearGradient3792"
       gradientUnits="userSpaceOnUse"
       x1="39.668369"
       y1="834.30713"
       x2="156.88422"
       y2="932.55139" />
    <linearGradient
       inkscape:collect="always"
       xlink:href="#linearGradient3755"
       id="linearGradient3794"
       gradientUnits="userSpaceOnUse"
       x1="39.668369"
       y1="834.30713"
       x2="156.88422"
       y2="932.55139" />
  </defs>
  <sodipodi:namedview
     id="base"
     pagecolor="#ffffff"
     bordercolor="#666666"
     borderopacity="1.0"
     inkscape:pageopacity="0.0"
     inkscape:pageshadow="2"
     inkscape:zoom="0.35"
     inkscape:cx="-611.92697"
     inkscape:cy="308.43662"
     inkscape:document-units="px"
     inkscape:current-layer="layer1"
     showgrid="false"
     inkscape:window-width="1440"
     inkscape:window-height="851"
     inkscape:window-x="0"
     inkscape:window-y="25"
     inkscape:window-maximized="1"
     fit-margin-top="80"
     fit-margin-left="5"
     fit-margin-right="5"
     fit-margin-bottom="80" />
  <metadata
     id="metadata3727">
    <rdf:RDF>
      <cc:Work
         rdf:about="">
        <dc:format>image/svg+xml</dc:format>
        <dc:type
           rdf:resource="http://purl.org/dc/dcmitype/StillImage" />
        <dc:title />
      </cc:Work>
    </rdf:RDF>
  </metadata>
  <g
     inkscape:label="Layer 1"
     inkscape:groupmode="layer"
     id="layer1"
     transform="translate(-15.498401,-146.21125)">
    <g
       transform="matrix(4.1679341,0,0,4.7112908,-109.60912,-3708.5983)"
       style="font-size:12px;font-style:normal;font-variant:normal;font-weight:normal;font-stretch:normal;text-align:start;line-height:125%;letter-spacing:0px;word-spacing:0px;writing-mode:lr-tb;text-anchor:start;fill:url(#linearGradient3794);fill-opacity:1;stroke:#110b02;stroke-width:0.90267128;stroke-linecap:round;stroke-linejoin:round;stroke-miterlimit:4;stroke-opacity:1;font-family:Sans;-inkscape-font-specification:Sans"
       id="flowRoot4048">
      <path
         d="m 31.667969,837.36873 10.089843,0 7.054688,29.66797 7,-29.66797 10.144531,0 7,29.66797 7.054688,-29.66797 10.007812,0 -9.625,40.82422 -12.140625,0 -7.410156,-31.03515 -7.328125,31.03515 -12.140625,0 -9.707031,-40.82422"
         style="font-size:56px;font-weight:bold;fill:url(#linearGradient3780);stroke:#110b02;font-family:Sans;-inkscape-font-specification:Sans Bold"
         id="path3766"
         inkscape:connector-curvature="0" />
      <path
         d="m 127.28906,859.54452 0,18.64843 -9.84375,0 0,-3.03515 0,-11.1836 c -2e-5,-2.67967 -0.0638,-4.52081 -0.1914,-5.52343 -0.1094,-1.00259 -0.30992,-1.74087 -0.60157,-2.21485 -0.38283,-0.638 -0.90236,-1.13018 -1.55859,-1.47656 -0.65627,-0.36456 -1.40367,-0.54685 -2.24219,-0.54688 -2.04168,3e-5 -3.64585,0.793 -4.8125,2.37891 -1.16668,1.56773 -1.75001,3.74611 -1.75,6.53516 l 0,15.0664 -9.78906,0 0,-42.54687 9.78906,0 0,16.40625 c 1.47655,-1.78643 3.04426,-3.09893 4.70313,-3.9375 1.65883,-0.85674 3.49086,-1.28513 5.49609,-1.28516 3.53643,3e-5 6.21612,1.08467 8.03906,3.25391 1.84112,2.16929 2.76169,5.32294 2.76172,9.46094"
         style="font-size:56px;font-weight:bold;fill:url(#linearGradient3782);stroke:#110b02;font-family:Sans;-inkscape-font-specification:Sans Bold"
         id="path3768"
         inkscape:connector-curvature="0" />
      <path
         d="m 150.14844,864.4117 c -2.04169,2e-5 -3.58205,0.34637 -4.6211,1.03907 -1.02084,0.69272 -1.53126,1.71355 -1.53125,3.0625 -1e-5,1.23959 0.41015,2.21485 1.23047,2.92578 0.83853,0.69271 1.99608,1.03906 3.47266,1.03906 1.84113,0 3.3906,-0.65624 4.64844,-1.96875 1.25779,-1.33072 1.88669,-2.98957 1.88671,-4.97656 l 0,-1.1211 -5.08593,0 m 14.95703,-3.6914 0,17.47265 -9.8711,0 0,-4.53906 c -1.31252,1.85938 -2.78908,3.21745 -4.42968,4.07422 -1.64064,0.83854 -3.63674,1.25781 -5.98828,1.25781 -3.17189,0 -5.75131,-0.92057 -7.73829,-2.76172 -1.96875,-1.85937 -2.95312,-4.26562 -2.95312,-7.21875 0,-3.59113 1.23047,-6.22524 3.69141,-7.90234 2.47915,-1.67707 6.36196,-2.51561 11.64843,-2.51563 l 5.76953,0 0,-0.76562 c -2e-5,-1.54946 -0.61069,-2.67967 -1.83203,-3.39063 -1.22137,-0.72914 -3.12632,-1.09372 -5.71484,-1.09375 -2.09637,3e-5 -4.04689,0.20966 -5.85156,0.62891 -1.8047,0.4193 -3.48178,1.0482 -5.03125,1.88672 l 0,-7.46484 c 2.09634,-0.51039 4.20181,-0.8932 6.3164,-1.14844 2.11457,-0.27341 4.22915,-0.41013 6.34375,-0.41016 5.52342,3e-5 9.50649,1.09378 11.94922,3.28125 2.46091,2.1693 3.69138,5.70575 3.69141,10.60938"
         style="font-size:56px;font-weight:bold;fill:url(#linearGradient3784);stroke:#110b02;font-family:Sans;-inkscape-font-specification:Sans Bold"
         id="path3770"
         inkscape:connector-curvature="0" />
      <path
         d="m 184.95703,838.87264 0,8.69531 10.08984,0 0,7 -10.08984,0 0,12.98828 c -1e-5,1.42189 0.28254,2.38803 0.84766,2.89844 0.56508,0.4922 1.68618,0.73829 3.36328,0.73828 l 5.03125,0 0,7 -8.39453,0 c -3.8646,0 -6.60809,-0.80208 -8.23047,-2.40625 -1.60417,-1.62239 -2.40626,-4.36588 -2.40625,-8.23047 l 0,-12.98828 -4.86719,0 0,-7 4.86719,0 0,-8.69531 9.78906,0"
         style="font-size:56px;font-weight:bold;fill:url(#linearGradient3786);stroke:#110b02;font-family:Sans;-inkscape-font-specification:Sans Bold"
         id="path3772"
         inkscape:connector-curvature="0" />
      <path
         d="m 34.703125,917.56795 9.789062,0 0,30.625 -9.789062,0 0,-30.625 m 0,-11.92187 9.789062,0 0,7.98437 -9.789062,0 0,-7.98437"
         style="font-size:56px;font-weight:bold;fill:url(#linearGradient3788);stroke:#110b02;font-family:Sans;-inkscape-font-specification:Sans Bold"
         id="path3774"
         inkscape:connector-curvature="0" />
      <path
         d="m 74.105469,905.64608 0,6.42578 -5.414063,0 c -1.385434,4e-5 -2.351579,0.25524 -2.898437,0.76562 -0.546891,0.49223 -0.820328,1.35811 -0.820313,2.59766 l 0,2.13281 8.367188,0 0,7 -8.367188,0 0,23.625 -9.789062,0 0,-23.625 -4.867188,0 0,-7 4.867188,0 0,-2.13281 c -6e-6,-3.3359 0.92968,-5.79684 2.789062,-7.38281 1.859365,-1.60413 4.73957,-2.40621 8.640625,-2.40625 l 7.492188,0"
         style="font-size:56px;font-weight:bold;fill:url(#linearGradient3790);stroke:#110b02;font-family:Sans;-inkscape-font-specification:Sans Bold"
         id="path3776"
         inkscape:connector-curvature="0" />
      <path
         d="m 112.49609,934.4117 -9.87109,0 0,-1.33984 c -1e-5,-1.49478 0.30077,-2.81639 0.90234,-3.96484 0.60156,-1.16665 1.86848,-2.64321 3.80079,-4.42969 l 1.75,-1.58594 c 1.03904,-0.94789 1.79555,-1.84112 2.26953,-2.67969 0.49217,-0.83851 0.73826,-1.67705 0.73828,-2.51562 -2e-5,-1.27601 -0.43752,-2.2695 -1.3125,-2.98047 -0.87502,-0.72913 -2.09637,-1.09372 -3.66406,-1.09375 -1.47658,3e-5 -3.07163,0.30993 -4.78516,0.92969 -1.71355,0.60159 -3.500007,1.50393 -5.359376,2.70703 l 0,-8.58594 c 2.205723,-0.76558 4.220046,-1.33069 6.042966,-1.69531 1.82291,-0.36454 3.58202,-0.54684 5.27735,-0.54688 4.44789,4e-5 7.83851,0.9115 10.17187,2.73438 2.33331,1.80472 3.49997,4.44795 3.5,7.92969 -3e-5,1.78648 -0.3555,3.39065 -1.0664,4.8125 -0.71097,1.40367 -1.92321,2.91669 -3.63672,4.53906 l -1.75,1.55859 c -1.23961,1.13023 -2.05081,2.04169 -2.4336,2.73438 -0.38283,0.67449 -0.57424,1.42189 -0.57422,2.24218 l 0,1.23047 m -9.87109,4.04688 9.87109,0 0,9.73437 -9.87109,0 0,-9.73437"
         style="font-size:56px;font-weight:bold;fill:url(#linearGradient3792);stroke:#110b02;font-family:Sans;-inkscape-font-specification:Sans Bold"
         id="path3778"
         inkscape:connector-curvature="0" />
    </g>
  </g>
</svg>
