<?xml version="1.0" encoding="UTF-8" standalone="no"?>
<!-- Created with Inkscape (http://www.inkscape.org/) -->

<svg
   xmlns:dc="http://purl.org/dc/elements/1.1/"
   xmlns:cc="http://creativecommons.org/ns#"
   xmlns:rdf="http://www.w3.org/1999/02/22-rdf-syntax-ns#"
   xmlns:svg="http://www.w3.org/2000/svg"
   xmlns="http://www.w3.org/2000/svg"
   xmlns:sodipodi="http://sodipodi.sourceforge.net/DTD/sodipodi-0.dtd"
   xmlns:inkscape="http://www.inkscape.org/namespaces/inkscape"
   width="744.09448819"
   height="1052.3622047"
   id="svg3266"
   version="1.1"
   inkscape:version="0.48.4 r9939"
   sodipodi:docname="New document 14">
  <defs
     id="defs3268" />
  <sodipodi:namedview
     id="base"
     pagecolor="#ffffff"
     bordercolor="#666666"
     borderopacity="1.0"
     inkscape:pageopacity="0.0"
     inkscape:pageshadow="2"
     inkscape:zoom="0.35"
     inkscape:cx="375"
     inkscape:cy="520"
     inkscape:document-units="px"
     inkscape:current-layer="layer1"
     showgrid="false"
     inkscape:window-width="1440"
     inkscape:window-height="845"
     inkscape:window-x="-4"
     inkscape:window-y="-3"
     inkscape:window-maximized="1" />
  <metadata
     id="metadata3271">
    <rdf:RDF>
      <cc:Work
         rdf:about="">
        <dc:format>image/svg+xml</dc:format>
        <dc:type
           rdf:resource="http://purl.org/dc/dcmitype/StillImage" />
        <dc:title></dc:title>
      </cc:Work>
    </rdf:RDF>
  </metadata>
  <g
     inkscape:label="Layer 1"
     inkscape:groupmode="layer"
     id="layer1">
    <path
       inkscape:connector-curvature="0"
       id="path3796-0-1"
       style="fill:none;stroke:#000000;stroke-width:2.18876672;stroke-linecap:butt;stroke-linejoin:miter;stroke-miterlimit:4;stroke-opacity:1;stroke-dasharray:none"
       d="m 461.60273,317.45718 -2.61197,45.92817 z m -167.16505,134.5039 0,82.01455 z m -242.911619,111.53981 73.134719,0 z m 350.001659,-337.90001 235.07573,0 0,91.8563 -235.07573,0 z m -141.0454,141.06506 240.29966,0 0,91.8563 -240.29966,0 z m -133.20958,167.30972 193.28455,0 0,75.45339 -193.28455,0 z m -91.418394,154.18738 637.316534,3.2806 z m 15.671715,-482.24567 0,518.33208 z m -33.955468,-42.64757 686.943647,0 0,600.34659 -686.943647,0 z" />
    <path
       id="path3837"
       style="fill:#ffffff;fill-opacity:1;stroke:#000000;stroke-width:1.45917773;stroke-linecap:butt;stroke-linejoin:miter;stroke-miterlimit:4;stroke-opacity:1;stroke-dasharray:none"
       d="M 264.15504,662.82679 698.98271,233.52655 z M 243.88764,635.18945 678.71536,202.20424 z M 214.4078,627.81947 647.39301,191.14925 z m -62.64465,140.02927 c 0,0 -1.30283,-26.07974 -11.05495,-31.32235 -8.9216,-4.79613 -29.47984,7.36998 -29.47984,7.36998 0,0 16.4566,-8.83722 23.95236,-5.52747 10.31387,4.55405 16.58243,29.47984 16.58243,29.47984 z m 33.16481,-140.02927 c 0,0 51.59911,-1.56522 68.17213,14.73992 13.48689,13.26889 12.89745,55.27471 12.89745,55.27471 0,0 -0.42199,-41.79792 -14.73992,-55.27471 -16.40134,-15.43781 -66.32966,-14.73992 -66.32966,-14.73992 z m 82.91205,73.69961 440.35515,-429.30024 c 0,0 5.48881,-42.6544 -29.4798,-70.01464 -23.80612,-18.62644 -60.80219,-5.52747 -60.80219,-5.52747 L 188.61293,622.292 65.16609,819.43844 z"
       inkscape:connector-curvature="0" />
  </g>
</svg>
