<?xml version="1.0" encoding="UTF-8" standalone="no"?>
<!-- Created with Inkscape (http://www.inkscape.org/) -->

<svg
   xmlns:dc="http://purl.org/dc/elements/1.1/"
   xmlns:cc="http://creativecommons.org/ns#"
   xmlns:rdf="http://www.w3.org/1999/02/22-rdf-syntax-ns#"
   xmlns:svg="http://www.w3.org/2000/svg"
   xmlns="http://www.w3.org/2000/svg"
   xmlns:xlink="http://www.w3.org/1999/xlink"
   xmlns:sodipodi="http://sodipodi.sourceforge.net/DTD/sodipodi-0.dtd"
   xmlns:inkscape="http://www.inkscape.org/namespaces/inkscape"
   width="696.1355"
   height="696.21704"
   id="svg3400"
   version="1.1"
   inkscape:version="0.48.4 r9939"
   sodipodi:docname="holidays.svg">
  <defs
     id="defs3402">
    <linearGradient
       id="linearGradient3760">
      <stop
         style="stop-color:#e3f700;stop-opacity:1;"
         offset="0"
         id="stop3762" />
      <stop
         style="stop-color:#e3dd00;stop-opacity:1;"
         offset="1"
         id="stop3764" />
    </linearGradient>
    <linearGradient
       id="linearGradient3752">
      <stop
         style="stop-color:#110b02;stop-opacity:1;"
         offset="0"
         id="stop3754" />
      <stop
         style="stop-color:#878787;stop-opacity:1;"
         offset="1"
         id="stop3756" />
    </linearGradient>
    <linearGradient
       inkscape:collect="always"
       xlink:href="#linearGradient3752"
       id="linearGradient3758"
       x1="448.01102"
       y1="366.32834"
       x2="508.83533"
       y2="709.57385"
       gradientUnits="userSpaceOnUse" />
    <radialGradient
       inkscape:collect="always"
       xlink:href="#linearGradient3760"
       id="radialGradient3768"
       cx="341.6954"
       cy="814.00171"
       fx="341.6954"
       fy="814.00171"
       r="326.53119"
       gradientTransform="matrix(1,0,0,0.41110039,0,479.3653)"
       gradientUnits="userSpaceOnUse" />
  </defs>
  <sodipodi:namedview
     id="base"
     pagecolor="#ffffff"
     bordercolor="#666666"
     borderopacity="1.0"
     inkscape:pageopacity="0.0"
     inkscape:pageshadow="2"
     inkscape:zoom="0.59105127"
     inkscape:cx="378.37163"
     inkscape:cy="428.56719"
     inkscape:document-units="px"
     inkscape:current-layer="layer1"
     showgrid="false"
     inkscape:window-width="1440"
     inkscape:window-height="824"
     inkscape:window-x="0"
     inkscape:window-y="24"
     inkscape:window-maximized="1"
     fit-margin-top="5"
     fit-margin-left="20"
     fit-margin-right="20"
     fit-margin-bottom="5" />
  <metadata
     id="metadata3405">
    <rdf:RDF>
      <cc:Work
         rdf:about="">
        <dc:format>image/svg+xml</dc:format>
        <dc:type
           rdf:resource="http://purl.org/dc/dcmitype/StillImage" />
        <dc:title />
      </cc:Work>
    </rdf:RDF>
  </metadata>
  <g
     inkscape:label="Layer 1"
     inkscape:groupmode="layer"
     id="layer1"
     transform="translate(6.3243861,-258.53125)">
    <path
       style="fill:url(#radialGradient3768);fill-opacity:1;stroke:#6193cf;stroke-width:5;stroke-linecap:butt;stroke-linejoin:round;stroke-miterlimit:4;stroke-opacity:1;stroke-dasharray:none"
       d="m 286.54421,708.10412 c 131.26866,29.38034 216.72317,-26.54664 293.63188,0 63.87521,22.04786 60.40159,41.04325 73.91423,72.90171 13.17949,31.07299 20.94726,74.01571 1.01252,101.25237 -43.57108,59.53079 -137.99977,60.02769 -211.61746,64.80152 -44.40661,2.8796 -95.39777,-29.8822 -144.79089,-32.40076 C 230.12746,911.16273 157.33216,965.85812 94.164705,938.95953 78.20354,932.16279 62.77647,897.44605 62.77647,897.44605 c 0,0 -48.115171,10.47817 -46.576091,-5.06261 2.334168,-23.56915 41.962162,-41.96894 75.939279,-81.0019 19.587222,-22.50182 -69.49926,-34.72363 -62.77647,-63.78899 8.467328,-36.60771 106.314992,-37.46338 106.314992,-37.46338 0,0 51.58747,-29.59487 79.98937,-29.36319 25.32125,0.20655 53.31429,23.40736 70.87666,27.33814 z"
       id="path2983"
       inkscape:connector-curvature="0"
       sodipodi:nodetypes="ssssssscssscss" />
    <path
       style="fill:url(#linearGradient3758);fill-opacity:1;stroke:#110b02;stroke-width:2;stroke-linecap:butt;stroke-linejoin:miter;stroke-miterlimit:4;stroke-opacity:1;stroke-dasharray:none"
       d="m 521.04138,741.05938 c 9.6307,24.56997 -92.15105,36.02596 -77.42352,-4.46407 0,0 -6.95438,-44.98181 -3.48529,-140.19046 1.06662,-48.42681 -7.84347,-145.10381 -7.84347,-145.10381 0,0 -36.46413,54.8245 -43.13898,86.27792 -2.98818,14.08095 1.96087,43.13899 1.96087,43.13899 0,0 -33.63508,-52.74215 -33.33467,-82.35621 0.30282,-29.86545 35.29555,-82.35621 35.29555,-82.35621 0,0 -58.91207,-12.33651 -82.35625,1.96083 -13.98435,8.52831 -23.53033,43.13899 -23.53033,43.13899 0,0 -12.68257,-62.03885 5.88259,-82.35622 19.20847,-21.02138 84.31709,-13.72606 84.31709,-13.72606 0,0 -31.72433,-17.74118 -43.13898,-31.37379 -16.32713,-19.49964 -33.33468,-68.63019 -33.33468,-68.63019 0,0 57.97869,16.7786 78.4345,37.25639 9.71156,9.722 17.64778,37.25639 17.64778,37.25639 0,0 37.38264,-24.85105 58.82588,-29.41292 28.79749,-6.1264 88.2388,3.92171 88.2388,3.92171 0,0 -46.15662,22.14928 -70.59107,29.41292 -17.20375,5.11417 -52.94325,9.80435 -52.94325,9.80435 0,0 59.04823,-12.30063 88.23881,-7.84347 32.15763,4.91023 90.19968,37.25639 90.19968,37.25639 0,0 -52.28967,0 -78.4345,0 -27.45208,0 -82.35625,0 -82.35625,0 0,0 72.47601,1.48867 101.96486,19.60861 21.83264,13.41544 47.0607,60.78676 47.0607,60.78676 0,0 -46.06306,-32.71583 -72.5519,-41.17814 -24.4096,-7.79805 -76.47366,-7.84343 -76.47366,-7.84343 0,0 48.81197,17.39573 68.63019,33.33467 24.6593,19.83235 58.82588,74.51274 58.82588,74.51274 0,0 -51.69027,-4.07343 -72.5519,-17.64773 -17.97094,-11.69336 -39.21727,-50.98245 -39.21727,-50.98245 l 21.56949,33.33467 c 0,0 9.12735,63.89567 9.80431,96.08227 5.77316,53.75693 -3.80615,113.49841 35.80899,158.38056 z"
       id="path3912"
       inkscape:connector-curvature="0"
       sodipodi:nodetypes="ccccscscscscscscscscscscscscscscccc" />
  </g>
</svg>
